G04 #@! TF.GenerationSoftware,KiCad,Pcbnew,5.0.0+dfsg1-2*
G04 #@! TF.CreationDate,2019-01-23T11:39:39+01:00*
G04 #@! TF.ProjectId,SLC_Free_PCB,534C435F467265655F5043422E6B6963,rev?*
G04 #@! TF.SameCoordinates,Original*
G04 #@! TF.FileFunction,Legend,Top*
G04 #@! TF.FilePolarity,Positive*
%FSLAX46Y46*%
G04 Gerber Fmt 4.6, Leading zero omitted, Abs format (unit mm)*
G04 Created by KiCad (PCBNEW 5.0.0+dfsg1-2) date Wed Jan 23 11:39:39 2019*
%MOMM*%
%LPD*%
G01*
G04 APERTURE LIST*
%ADD10C,0.081280*%
%ADD11C,0.048768*%
%ADD12C,0.065024*%
%ADD13C,0.113792*%
%ADD14C,0.101600*%
%ADD15C,0.152400*%
%ADD16C,0.100000*%
%ADD17C,0.254000*%
%ADD18C,0.050800*%
%ADD19C,0.120000*%
%ADD20C,0.150000*%
%ADD21C,0.096520*%
%ADD22C,0.120650*%
G04 APERTURE END LIST*
D10*
X173179338Y-117990139D02*
X173179338Y-118449758D01*
X173638957Y-118495720D01*
X173592995Y-118449758D01*
X173547033Y-118357834D01*
X173547033Y-118128025D01*
X173592995Y-118036101D01*
X173638957Y-117990139D01*
X173730880Y-117944177D01*
X173960690Y-117944177D01*
X174052614Y-117990139D01*
X174098576Y-118036101D01*
X174144538Y-118128025D01*
X174144538Y-118357834D01*
X174098576Y-118449758D01*
X174052614Y-118495720D01*
X173501071Y-117622444D02*
X174144538Y-117392634D01*
X173501071Y-117162825D01*
X175638300Y-118020377D02*
X175592338Y-118112301D01*
X175592338Y-118250187D01*
X175638300Y-118388072D01*
X175730223Y-118479996D01*
X175822147Y-118525958D01*
X176005995Y-118571920D01*
X176143880Y-118571920D01*
X176327728Y-118525958D01*
X176419652Y-118479996D01*
X176511576Y-118388072D01*
X176557538Y-118250187D01*
X176557538Y-118158263D01*
X176511576Y-118020377D01*
X176465614Y-117974415D01*
X176143880Y-117974415D01*
X176143880Y-118158263D01*
X175914071Y-117560758D02*
X176557538Y-117560758D01*
X176005995Y-117560758D02*
X175960033Y-117514796D01*
X175914071Y-117422872D01*
X175914071Y-117284987D01*
X175960033Y-117193063D01*
X176051957Y-117147101D01*
X176557538Y-117147101D01*
X176557538Y-116273825D02*
X175592338Y-116273825D01*
X176511576Y-116273825D02*
X176557538Y-116365748D01*
X176557538Y-116549596D01*
X176511576Y-116641520D01*
X176465614Y-116687482D01*
X176373690Y-116733444D01*
X176097919Y-116733444D01*
X176005995Y-116687482D01*
X175960033Y-116641520D01*
X175914071Y-116549596D01*
X175914071Y-116365748D01*
X175960033Y-116273825D01*
X175158941Y-123283838D02*
X175158941Y-122318638D01*
X175526636Y-122318638D01*
X175618560Y-122364600D01*
X175664522Y-122410561D01*
X175710484Y-122502485D01*
X175710484Y-122640371D01*
X175664522Y-122732295D01*
X175618560Y-122778257D01*
X175526636Y-122824219D01*
X175158941Y-122824219D01*
X176124141Y-123283838D02*
X176124141Y-122640371D01*
X176124141Y-122824219D02*
X176170103Y-122732295D01*
X176216065Y-122686333D01*
X176307989Y-122640371D01*
X176399912Y-122640371D01*
X176859532Y-123283838D02*
X176767608Y-123237876D01*
X176721646Y-123191914D01*
X176675684Y-123099990D01*
X176675684Y-122824219D01*
X176721646Y-122732295D01*
X176767608Y-122686333D01*
X176859532Y-122640371D01*
X176997417Y-122640371D01*
X177089341Y-122686333D01*
X177135303Y-122732295D01*
X177181265Y-122824219D01*
X177181265Y-123099990D01*
X177135303Y-123191914D01*
X177089341Y-123237876D01*
X176997417Y-123283838D01*
X176859532Y-123283838D01*
X178008579Y-122640371D02*
X178008579Y-123421723D01*
X177962617Y-123513647D01*
X177916655Y-123559609D01*
X177824732Y-123605571D01*
X177686846Y-123605571D01*
X177594922Y-123559609D01*
X178008579Y-123237876D02*
X177916655Y-123283838D01*
X177732808Y-123283838D01*
X177640884Y-123237876D01*
X177594922Y-123191914D01*
X177548960Y-123099990D01*
X177548960Y-122824219D01*
X177594922Y-122732295D01*
X177640884Y-122686333D01*
X177732808Y-122640371D01*
X177916655Y-122640371D01*
X178008579Y-122686333D01*
X179203589Y-123283838D02*
X179203589Y-122318638D01*
X179203589Y-122778257D02*
X179755132Y-122778257D01*
X179755132Y-123283838D02*
X179755132Y-122318638D01*
X180582446Y-123237876D02*
X180490522Y-123283838D01*
X180306674Y-123283838D01*
X180214751Y-123237876D01*
X180168789Y-123145952D01*
X180168789Y-122778257D01*
X180214751Y-122686333D01*
X180306674Y-122640371D01*
X180490522Y-122640371D01*
X180582446Y-122686333D01*
X180628408Y-122778257D01*
X180628408Y-122870180D01*
X180168789Y-122962104D01*
X181455722Y-123283838D02*
X181455722Y-122778257D01*
X181409760Y-122686333D01*
X181317836Y-122640371D01*
X181133989Y-122640371D01*
X181042065Y-122686333D01*
X181455722Y-123237876D02*
X181363798Y-123283838D01*
X181133989Y-123283838D01*
X181042065Y-123237876D01*
X180996103Y-123145952D01*
X180996103Y-123054028D01*
X181042065Y-122962104D01*
X181133989Y-122916142D01*
X181363798Y-122916142D01*
X181455722Y-122870180D01*
X182328998Y-123283838D02*
X182328998Y-122318638D01*
X182328998Y-123237876D02*
X182237074Y-123283838D01*
X182053227Y-123283838D01*
X181961303Y-123237876D01*
X181915341Y-123191914D01*
X181869379Y-123099990D01*
X181869379Y-122824219D01*
X181915341Y-122732295D01*
X181961303Y-122686333D01*
X182053227Y-122640371D01*
X182237074Y-122640371D01*
X182328998Y-122686333D01*
X183156312Y-123237876D02*
X183064389Y-123283838D01*
X182880541Y-123283838D01*
X182788617Y-123237876D01*
X182742655Y-123145952D01*
X182742655Y-122778257D01*
X182788617Y-122686333D01*
X182880541Y-122640371D01*
X183064389Y-122640371D01*
X183156312Y-122686333D01*
X183202274Y-122778257D01*
X183202274Y-122870180D01*
X182742655Y-122962104D01*
X183615932Y-123283838D02*
X183615932Y-122640371D01*
X183615932Y-122824219D02*
X183661893Y-122732295D01*
X183707855Y-122686333D01*
X183799779Y-122640371D01*
X183891703Y-122640371D01*
X156820141Y-122420238D02*
X156820141Y-123201590D01*
X156866103Y-123293514D01*
X156912065Y-123339476D01*
X157003989Y-123385438D01*
X157187836Y-123385438D01*
X157279760Y-123339476D01*
X157325722Y-123293514D01*
X157371684Y-123201590D01*
X157371684Y-122420238D01*
X157831303Y-122741971D02*
X157831303Y-123385438D01*
X157831303Y-122833895D02*
X157877265Y-122787933D01*
X157969189Y-122741971D01*
X158107074Y-122741971D01*
X158198998Y-122787933D01*
X158244960Y-122879857D01*
X158244960Y-123385438D01*
X159118236Y-122741971D02*
X159118236Y-123385438D01*
X158704579Y-122741971D02*
X158704579Y-123247552D01*
X158750541Y-123339476D01*
X158842465Y-123385438D01*
X158980351Y-123385438D01*
X159072274Y-123339476D01*
X159118236Y-123293514D01*
X159531893Y-123339476D02*
X159623817Y-123385438D01*
X159807665Y-123385438D01*
X159899589Y-123339476D01*
X159945551Y-123247552D01*
X159945551Y-123201590D01*
X159899589Y-123109666D01*
X159807665Y-123063704D01*
X159669779Y-123063704D01*
X159577855Y-123017742D01*
X159531893Y-122925819D01*
X159531893Y-122879857D01*
X159577855Y-122787933D01*
X159669779Y-122741971D01*
X159807665Y-122741971D01*
X159899589Y-122787933D01*
X160726903Y-123339476D02*
X160634979Y-123385438D01*
X160451132Y-123385438D01*
X160359208Y-123339476D01*
X160313246Y-123247552D01*
X160313246Y-122879857D01*
X160359208Y-122787933D01*
X160451132Y-122741971D01*
X160634979Y-122741971D01*
X160726903Y-122787933D01*
X160772865Y-122879857D01*
X160772865Y-122971780D01*
X160313246Y-123063704D01*
X161600179Y-123385438D02*
X161600179Y-122420238D01*
X161600179Y-123339476D02*
X161508255Y-123385438D01*
X161324408Y-123385438D01*
X161232484Y-123339476D01*
X161186522Y-123293514D01*
X161140560Y-123201590D01*
X161140560Y-122925819D01*
X161186522Y-122833895D01*
X161232484Y-122787933D01*
X161324408Y-122741971D01*
X161508255Y-122741971D01*
X161600179Y-122787933D01*
X162795189Y-123385438D02*
X162795189Y-122420238D01*
X163162884Y-122420238D01*
X163254808Y-122466200D01*
X163300770Y-122512161D01*
X163346732Y-122604085D01*
X163346732Y-122741971D01*
X163300770Y-122833895D01*
X163254808Y-122879857D01*
X163162884Y-122925819D01*
X162795189Y-122925819D01*
X163760389Y-123385438D02*
X163760389Y-122741971D01*
X163760389Y-122420238D02*
X163714427Y-122466200D01*
X163760389Y-122512161D01*
X163806351Y-122466200D01*
X163760389Y-122420238D01*
X163760389Y-122512161D01*
X164220008Y-122741971D02*
X164220008Y-123385438D01*
X164220008Y-122833895D02*
X164265970Y-122787933D01*
X164357893Y-122741971D01*
X164495779Y-122741971D01*
X164587703Y-122787933D01*
X164633665Y-122879857D01*
X164633665Y-123385438D01*
X165828674Y-123385438D02*
X165828674Y-122420238D01*
X165828674Y-122879857D02*
X166380217Y-122879857D01*
X166380217Y-123385438D02*
X166380217Y-122420238D01*
X167207532Y-123339476D02*
X167115608Y-123385438D01*
X166931760Y-123385438D01*
X166839836Y-123339476D01*
X166793874Y-123247552D01*
X166793874Y-122879857D01*
X166839836Y-122787933D01*
X166931760Y-122741971D01*
X167115608Y-122741971D01*
X167207532Y-122787933D01*
X167253493Y-122879857D01*
X167253493Y-122971780D01*
X166793874Y-123063704D01*
X168080808Y-123385438D02*
X168080808Y-122879857D01*
X168034846Y-122787933D01*
X167942922Y-122741971D01*
X167759074Y-122741971D01*
X167667151Y-122787933D01*
X168080808Y-123339476D02*
X167988884Y-123385438D01*
X167759074Y-123385438D01*
X167667151Y-123339476D01*
X167621189Y-123247552D01*
X167621189Y-123155628D01*
X167667151Y-123063704D01*
X167759074Y-123017742D01*
X167988884Y-123017742D01*
X168080808Y-122971780D01*
X168954084Y-123385438D02*
X168954084Y-122420238D01*
X168954084Y-123339476D02*
X168862160Y-123385438D01*
X168678312Y-123385438D01*
X168586389Y-123339476D01*
X168540427Y-123293514D01*
X168494465Y-123201590D01*
X168494465Y-122925819D01*
X168540427Y-122833895D01*
X168586389Y-122787933D01*
X168678312Y-122741971D01*
X168862160Y-122741971D01*
X168954084Y-122787933D01*
X169781398Y-123339476D02*
X169689474Y-123385438D01*
X169505627Y-123385438D01*
X169413703Y-123339476D01*
X169367741Y-123247552D01*
X169367741Y-122879857D01*
X169413703Y-122787933D01*
X169505627Y-122741971D01*
X169689474Y-122741971D01*
X169781398Y-122787933D01*
X169827360Y-122879857D01*
X169827360Y-122971780D01*
X169367741Y-123063704D01*
X170241017Y-123385438D02*
X170241017Y-122741971D01*
X170241017Y-122925819D02*
X170286979Y-122833895D01*
X170332941Y-122787933D01*
X170424865Y-122741971D01*
X170516789Y-122741971D01*
X169089938Y-118066339D02*
X169089938Y-118525958D01*
X169549557Y-118571920D01*
X169503595Y-118525958D01*
X169457633Y-118434034D01*
X169457633Y-118204225D01*
X169503595Y-118112301D01*
X169549557Y-118066339D01*
X169641480Y-118020377D01*
X169871290Y-118020377D01*
X169963214Y-118066339D01*
X170009176Y-118112301D01*
X170055138Y-118204225D01*
X170055138Y-118434034D01*
X170009176Y-118525958D01*
X169963214Y-118571920D01*
X169411671Y-117698644D02*
X170055138Y-117468834D01*
X169411671Y-117239025D01*
X166570500Y-118096577D02*
X166524538Y-118188501D01*
X166524538Y-118326387D01*
X166570500Y-118464272D01*
X166662423Y-118556196D01*
X166754347Y-118602158D01*
X166938195Y-118648120D01*
X167076080Y-118648120D01*
X167259928Y-118602158D01*
X167351852Y-118556196D01*
X167443776Y-118464272D01*
X167489738Y-118326387D01*
X167489738Y-118234463D01*
X167443776Y-118096577D01*
X167397814Y-118050615D01*
X167076080Y-118050615D01*
X167076080Y-118234463D01*
X166846271Y-117636958D02*
X167489738Y-117636958D01*
X166938195Y-117636958D02*
X166892233Y-117590996D01*
X166846271Y-117499072D01*
X166846271Y-117361187D01*
X166892233Y-117269263D01*
X166984157Y-117223301D01*
X167489738Y-117223301D01*
X167489738Y-116350025D02*
X166524538Y-116350025D01*
X167443776Y-116350025D02*
X167489738Y-116441948D01*
X167489738Y-116625796D01*
X167443776Y-116717720D01*
X167397814Y-116763682D01*
X167305890Y-116809644D01*
X167030119Y-116809644D01*
X166938195Y-116763682D01*
X166892233Y-116717720D01*
X166846271Y-116625796D01*
X166846271Y-116441948D01*
X166892233Y-116350025D01*
D11*
X157119522Y-118766015D02*
X156540402Y-118766015D01*
X156540402Y-118545397D01*
X156567980Y-118490243D01*
X156595557Y-118462666D01*
X156650711Y-118435089D01*
X156733442Y-118435089D01*
X156788597Y-118462666D01*
X156816174Y-118490243D01*
X156843751Y-118545397D01*
X156843751Y-118766015D01*
X156540402Y-118076586D02*
X156540402Y-118021432D01*
X156567980Y-117966277D01*
X156595557Y-117938700D01*
X156650711Y-117911123D01*
X156761020Y-117883546D01*
X156898905Y-117883546D01*
X157009214Y-117911123D01*
X157064368Y-117938700D01*
X157091945Y-117966277D01*
X157119522Y-118021432D01*
X157119522Y-118076586D01*
X157091945Y-118131740D01*
X157064368Y-118159317D01*
X157009214Y-118186895D01*
X156898905Y-118214472D01*
X156761020Y-118214472D01*
X156650711Y-118186895D01*
X156595557Y-118159317D01*
X156567980Y-118131740D01*
X156540402Y-118076586D01*
X157312562Y-117469889D02*
X157312562Y-117607775D01*
X156485248Y-117607775D01*
X156485248Y-117469889D01*
X156733442Y-117001077D02*
X157119522Y-117001077D01*
X156512825Y-117138963D02*
X156926482Y-117276849D01*
X156926482Y-116918346D01*
X157312562Y-116752883D02*
X157312562Y-116614997D01*
X156485248Y-116614997D01*
X156485248Y-116752883D01*
X158897522Y-118893015D02*
X158318402Y-118893015D01*
X158318402Y-118672397D01*
X158345980Y-118617243D01*
X158373557Y-118589666D01*
X158428711Y-118562089D01*
X158511442Y-118562089D01*
X158566597Y-118589666D01*
X158594174Y-118617243D01*
X158621751Y-118672397D01*
X158621751Y-118893015D01*
X158897522Y-118010546D02*
X158897522Y-118341472D01*
X158897522Y-118176009D02*
X158318402Y-118176009D01*
X158401134Y-118231163D01*
X158456288Y-118286317D01*
X158483865Y-118341472D01*
X159090562Y-117596889D02*
X159090562Y-117734775D01*
X158263248Y-117734775D01*
X158263248Y-117596889D01*
X158318402Y-117431426D02*
X158318402Y-117072923D01*
X158539020Y-117265963D01*
X158539020Y-117183232D01*
X158566597Y-117128077D01*
X158594174Y-117100500D01*
X158649328Y-117072923D01*
X158787214Y-117072923D01*
X158842368Y-117100500D01*
X158869945Y-117128077D01*
X158897522Y-117183232D01*
X158897522Y-117348695D01*
X158869945Y-117403849D01*
X158842368Y-117431426D01*
X159090562Y-116879883D02*
X159090562Y-116741997D01*
X158263248Y-116741997D01*
X158263248Y-116879883D01*
X162910722Y-118816815D02*
X162331602Y-118816815D01*
X162331602Y-118596197D01*
X162359180Y-118541043D01*
X162386757Y-118513466D01*
X162441911Y-118485889D01*
X162524642Y-118485889D01*
X162579797Y-118513466D01*
X162607374Y-118541043D01*
X162634951Y-118596197D01*
X162634951Y-118816815D01*
X162910722Y-117934346D02*
X162910722Y-118265272D01*
X162910722Y-118099809D02*
X162331602Y-118099809D01*
X162414334Y-118154963D01*
X162469488Y-118210117D01*
X162497065Y-118265272D01*
X163103762Y-117520689D02*
X163103762Y-117658575D01*
X162276448Y-117658575D01*
X162276448Y-117520689D01*
X162331602Y-117355226D02*
X162331602Y-116969146D01*
X162910722Y-117217340D01*
X163103762Y-116803683D02*
X163103762Y-116665797D01*
X162276448Y-116665797D01*
X162276448Y-116803683D01*
X164968122Y-118740615D02*
X164389002Y-118740615D01*
X164389002Y-118519997D01*
X164416580Y-118464843D01*
X164444157Y-118437266D01*
X164499311Y-118409689D01*
X164582042Y-118409689D01*
X164637197Y-118437266D01*
X164664774Y-118464843D01*
X164692351Y-118519997D01*
X164692351Y-118740615D01*
X164444157Y-118189072D02*
X164416580Y-118161495D01*
X164389002Y-118106340D01*
X164389002Y-117968455D01*
X164416580Y-117913300D01*
X164444157Y-117885723D01*
X164499311Y-117858146D01*
X164554465Y-117858146D01*
X164637197Y-117885723D01*
X164968122Y-118216649D01*
X164968122Y-117858146D01*
X165161162Y-117444489D02*
X165161162Y-117582375D01*
X164333848Y-117582375D01*
X164333848Y-117444489D01*
X164389002Y-117279026D02*
X164389002Y-116892946D01*
X164968122Y-117141140D01*
X165161162Y-116727483D02*
X165161162Y-116589597D01*
X164333848Y-116589597D01*
X164333848Y-116727483D01*
D12*
X106896291Y-122275820D02*
X107006600Y-122312590D01*
X107190447Y-122312590D01*
X107263986Y-122275820D01*
X107300756Y-122239051D01*
X107337525Y-122165512D01*
X107337525Y-122091973D01*
X107300756Y-122018434D01*
X107263986Y-121981664D01*
X107190447Y-121944895D01*
X107043369Y-121908125D01*
X106969830Y-121871356D01*
X106933061Y-121834586D01*
X106896291Y-121761047D01*
X106896291Y-121687508D01*
X106933061Y-121613969D01*
X106969830Y-121577200D01*
X107043369Y-121540430D01*
X107227217Y-121540430D01*
X107337525Y-121577200D01*
X107668451Y-121908125D02*
X107925838Y-121908125D01*
X108036146Y-122312590D02*
X107668451Y-122312590D01*
X107668451Y-121540430D01*
X108036146Y-121540430D01*
X108367072Y-122312590D02*
X108367072Y-121540430D01*
X108808306Y-122312590D01*
X108808306Y-121540430D01*
X109139232Y-122275820D02*
X109249541Y-122312590D01*
X109433388Y-122312590D01*
X109506927Y-122275820D01*
X109543697Y-122239051D01*
X109580466Y-122165512D01*
X109580466Y-122091973D01*
X109543697Y-122018434D01*
X109506927Y-121981664D01*
X109433388Y-121944895D01*
X109286310Y-121908125D01*
X109212771Y-121871356D01*
X109176002Y-121834586D01*
X109139232Y-121761047D01*
X109139232Y-121687508D01*
X109176002Y-121613969D01*
X109212771Y-121577200D01*
X109286310Y-121540430D01*
X109470158Y-121540430D01*
X109580466Y-121577200D01*
X110058470Y-121540430D02*
X110205548Y-121540430D01*
X110279087Y-121577200D01*
X110352626Y-121650739D01*
X110389396Y-121797817D01*
X110389396Y-122055203D01*
X110352626Y-122202281D01*
X110279087Y-122275820D01*
X110205548Y-122312590D01*
X110058470Y-122312590D01*
X109984931Y-122275820D01*
X109911392Y-122202281D01*
X109874622Y-122055203D01*
X109874622Y-121797817D01*
X109911392Y-121650739D01*
X109984931Y-121577200D01*
X110058470Y-121540430D01*
X111161556Y-122312590D02*
X110904169Y-121944895D01*
X110720322Y-122312590D02*
X110720322Y-121540430D01*
X111014478Y-121540430D01*
X111088017Y-121577200D01*
X111124786Y-121613969D01*
X111161556Y-121687508D01*
X111161556Y-121797817D01*
X111124786Y-121871356D01*
X111088017Y-121908125D01*
X111014478Y-121944895D01*
X110720322Y-121944895D01*
X112711130Y-101920086D02*
X111938970Y-101920086D01*
X111938970Y-101625930D01*
X111975740Y-101552391D01*
X112012509Y-101515622D01*
X112086048Y-101478852D01*
X112196357Y-101478852D01*
X112269896Y-101515622D01*
X112306665Y-101552391D01*
X112343435Y-101625930D01*
X112343435Y-101920086D01*
X111938970Y-101000848D02*
X111938970Y-100853770D01*
X111975740Y-100780231D01*
X112049279Y-100706692D01*
X112196357Y-100669922D01*
X112453743Y-100669922D01*
X112600821Y-100706692D01*
X112674360Y-100780231D01*
X112711130Y-100853770D01*
X112711130Y-101000848D01*
X112674360Y-101074387D01*
X112600821Y-101147926D01*
X112453743Y-101184696D01*
X112196357Y-101184696D01*
X112049279Y-101147926D01*
X111975740Y-101074387D01*
X111938970Y-101000848D01*
X111938970Y-100412536D02*
X112711130Y-100228688D01*
X112159587Y-100081610D01*
X112711130Y-99934532D01*
X111938970Y-99750684D01*
X112306665Y-99456528D02*
X112306665Y-99199142D01*
X112711130Y-99088833D02*
X112711130Y-99456528D01*
X111938970Y-99456528D01*
X111938970Y-99088833D01*
X112711130Y-98316673D02*
X112343435Y-98574060D01*
X112711130Y-98757907D02*
X111938970Y-98757907D01*
X111938970Y-98463751D01*
X111975740Y-98390212D01*
X112012509Y-98353442D01*
X112086048Y-98316673D01*
X112196357Y-98316673D01*
X112269896Y-98353442D01*
X112306665Y-98390212D01*
X112343435Y-98463751D01*
X112343435Y-98757907D01*
X112416974Y-97985747D02*
X112416974Y-97397435D01*
X112711130Y-97691591D02*
X112122818Y-97691591D01*
X111938970Y-96882662D02*
X111938970Y-96735583D01*
X111975740Y-96662044D01*
X112049279Y-96588505D01*
X112196357Y-96551736D01*
X112453743Y-96551736D01*
X112600821Y-96588505D01*
X112674360Y-96662044D01*
X112711130Y-96735583D01*
X112711130Y-96882662D01*
X112674360Y-96956201D01*
X112600821Y-97029740D01*
X112453743Y-97066509D01*
X112196357Y-97066509D01*
X112049279Y-97029740D01*
X111975740Y-96956201D01*
X111938970Y-96882662D01*
X111938970Y-96220810D02*
X112564052Y-96220810D01*
X112637591Y-96184041D01*
X112674360Y-96147271D01*
X112711130Y-96073732D01*
X112711130Y-95926654D01*
X112674360Y-95853115D01*
X112637591Y-95816345D01*
X112564052Y-95779576D01*
X111938970Y-95779576D01*
X111938970Y-95522189D02*
X111938970Y-95080955D01*
X112711130Y-95301572D02*
X111938970Y-95301572D01*
X112711130Y-94823568D02*
X111938970Y-94823568D01*
X111938970Y-94529412D01*
X111975740Y-94455873D01*
X112012509Y-94419103D01*
X112086048Y-94382334D01*
X112196357Y-94382334D01*
X112269896Y-94419103D01*
X112306665Y-94455873D01*
X112343435Y-94529412D01*
X112343435Y-94823568D01*
X111938970Y-94051408D02*
X112564052Y-94051408D01*
X112637591Y-94014639D01*
X112674360Y-93977869D01*
X112711130Y-93904330D01*
X112711130Y-93757252D01*
X112674360Y-93683713D01*
X112637591Y-93646943D01*
X112564052Y-93610174D01*
X111938970Y-93610174D01*
X111938970Y-93352787D02*
X111938970Y-92911553D01*
X112711130Y-93132170D02*
X111938970Y-93132170D01*
D13*
X118729904Y-87084000D02*
X118987291Y-87984853D01*
X119244678Y-87341386D01*
X119502064Y-87984853D01*
X119759451Y-87084000D01*
X120145531Y-87084000D02*
X120402918Y-87984853D01*
X120660304Y-87341386D01*
X120917691Y-87984853D01*
X121175078Y-87084000D01*
X121561158Y-87084000D02*
X121818544Y-87984853D01*
X122075931Y-87341386D01*
X122333318Y-87984853D01*
X122590704Y-87084000D01*
X123105478Y-87856160D02*
X123169824Y-87920506D01*
X123105478Y-87984853D01*
X123041131Y-87920506D01*
X123105478Y-87856160D01*
X123105478Y-87984853D01*
X124456758Y-87984853D02*
X123684598Y-87984853D01*
X124070678Y-87984853D02*
X124070678Y-86633573D01*
X123941984Y-86826613D01*
X123813291Y-86955306D01*
X123684598Y-87019653D01*
X125614998Y-87084000D02*
X125614998Y-87984853D01*
X125293264Y-86569226D02*
X124971531Y-87534426D01*
X125808038Y-87534426D01*
X126322811Y-87984853D02*
X126322811Y-86633573D01*
X126837584Y-86633573D01*
X126966278Y-86697920D01*
X127030624Y-86762266D01*
X127094971Y-86890960D01*
X127094971Y-87084000D01*
X127030624Y-87212693D01*
X126966278Y-87277040D01*
X126837584Y-87341386D01*
X126322811Y-87341386D01*
X127867131Y-87984853D02*
X127738438Y-87920506D01*
X127674091Y-87856160D01*
X127609744Y-87727466D01*
X127609744Y-87341386D01*
X127674091Y-87212693D01*
X127738438Y-87148346D01*
X127867131Y-87084000D01*
X128060171Y-87084000D01*
X128188864Y-87148346D01*
X128253211Y-87212693D01*
X128317558Y-87341386D01*
X128317558Y-87727466D01*
X128253211Y-87856160D01*
X128188864Y-87920506D01*
X128060171Y-87984853D01*
X127867131Y-87984853D01*
X128896678Y-87984853D02*
X128896678Y-87084000D01*
X128896678Y-86633573D02*
X128832331Y-86697920D01*
X128896678Y-86762266D01*
X128961024Y-86697920D01*
X128896678Y-86633573D01*
X128896678Y-86762266D01*
X129540144Y-87084000D02*
X129540144Y-87984853D01*
X129540144Y-87212693D02*
X129604491Y-87148346D01*
X129733184Y-87084000D01*
X129926224Y-87084000D01*
X130054918Y-87148346D01*
X130119264Y-87277040D01*
X130119264Y-87984853D01*
X130569691Y-87084000D02*
X131084464Y-87084000D01*
X130762731Y-86633573D02*
X130762731Y-87791813D01*
X130827078Y-87920506D01*
X130955771Y-87984853D01*
X131084464Y-87984853D01*
X131406198Y-86633573D02*
X132307051Y-86633573D01*
X131727931Y-87984853D01*
X132821824Y-87856160D02*
X132886171Y-87920506D01*
X132821824Y-87984853D01*
X132757478Y-87920506D01*
X132821824Y-87856160D01*
X132821824Y-87984853D01*
X134044411Y-87920506D02*
X133915718Y-87984853D01*
X133658331Y-87984853D01*
X133529638Y-87920506D01*
X133465291Y-87856160D01*
X133400944Y-87727466D01*
X133400944Y-87341386D01*
X133465291Y-87212693D01*
X133529638Y-87148346D01*
X133658331Y-87084000D01*
X133915718Y-87084000D01*
X134044411Y-87148346D01*
X134816571Y-87984853D02*
X134687878Y-87920506D01*
X134623531Y-87856160D01*
X134559184Y-87727466D01*
X134559184Y-87341386D01*
X134623531Y-87212693D01*
X134687878Y-87148346D01*
X134816571Y-87084000D01*
X135009611Y-87084000D01*
X135138304Y-87148346D01*
X135202651Y-87212693D01*
X135266998Y-87341386D01*
X135266998Y-87727466D01*
X135202651Y-87856160D01*
X135138304Y-87920506D01*
X135009611Y-87984853D01*
X134816571Y-87984853D01*
X135846118Y-87984853D02*
X135846118Y-87084000D01*
X135846118Y-87212693D02*
X135910464Y-87148346D01*
X136039158Y-87084000D01*
X136232198Y-87084000D01*
X136360891Y-87148346D01*
X136425238Y-87277040D01*
X136425238Y-87984853D01*
X136425238Y-87277040D02*
X136489584Y-87148346D01*
X136618278Y-87084000D01*
X136811318Y-87084000D01*
X136940011Y-87148346D01*
X137004358Y-87277040D01*
X137004358Y-87984853D01*
D12*
X181609960Y-118644656D02*
X181646730Y-118534347D01*
X181646730Y-118350500D01*
X181609960Y-118276961D01*
X181573191Y-118240191D01*
X181499652Y-118203422D01*
X181426113Y-118203422D01*
X181352574Y-118240191D01*
X181315804Y-118276961D01*
X181279035Y-118350500D01*
X181242265Y-118497578D01*
X181205496Y-118571117D01*
X181168726Y-118607886D01*
X181095187Y-118644656D01*
X181021648Y-118644656D01*
X180948109Y-118607886D01*
X180911340Y-118571117D01*
X180874570Y-118497578D01*
X180874570Y-118313730D01*
X180911340Y-118203422D01*
X181573191Y-117431262D02*
X181609960Y-117468031D01*
X181646730Y-117578340D01*
X181646730Y-117651879D01*
X181609960Y-117762187D01*
X181536421Y-117835726D01*
X181462882Y-117872496D01*
X181315804Y-117909265D01*
X181205496Y-117909265D01*
X181058418Y-117872496D01*
X180984879Y-117835726D01*
X180911340Y-117762187D01*
X180874570Y-117651879D01*
X180874570Y-117578340D01*
X180911340Y-117468031D01*
X180948109Y-117431262D01*
X181646730Y-116732641D02*
X181646730Y-117100336D01*
X180874570Y-117100336D01*
X182920910Y-118669020D02*
X183031219Y-118705790D01*
X183215066Y-118705790D01*
X183288605Y-118669020D01*
X183325375Y-118632251D01*
X183362144Y-118558712D01*
X183362144Y-118485173D01*
X183325375Y-118411634D01*
X183288605Y-118374864D01*
X183215066Y-118338095D01*
X183067988Y-118301325D01*
X182994449Y-118264556D01*
X182957680Y-118227786D01*
X182920910Y-118154247D01*
X182920910Y-118080708D01*
X182957680Y-118007169D01*
X182994449Y-117970400D01*
X183067988Y-117933630D01*
X183251836Y-117933630D01*
X183362144Y-117970400D01*
X183693070Y-118705790D02*
X183693070Y-117933630D01*
X183876918Y-117933630D01*
X183987226Y-117970400D01*
X184060765Y-118043939D01*
X184097535Y-118117478D01*
X184134304Y-118264556D01*
X184134304Y-118374864D01*
X184097535Y-118521942D01*
X184060765Y-118595481D01*
X183987226Y-118669020D01*
X183876918Y-118705790D01*
X183693070Y-118705790D01*
X184428461Y-118485173D02*
X184796156Y-118485173D01*
X184354922Y-118705790D02*
X184612308Y-117933630D01*
X184869695Y-118705790D01*
D14*
X138723149Y-87959695D02*
X138895506Y-88017147D01*
X139182768Y-88017147D01*
X139297673Y-87959695D01*
X139355125Y-87902242D01*
X139412578Y-87787338D01*
X139412578Y-87672433D01*
X139355125Y-87557528D01*
X139297673Y-87500076D01*
X139182768Y-87442623D01*
X138952959Y-87385171D01*
X138838054Y-87327719D01*
X138780601Y-87270266D01*
X138723149Y-87155361D01*
X138723149Y-87040457D01*
X138780601Y-86925552D01*
X138838054Y-86868100D01*
X138952959Y-86810647D01*
X139240220Y-86810647D01*
X139412578Y-86868100D01*
X140504173Y-88017147D02*
X139929649Y-88017147D01*
X139929649Y-86810647D01*
X141595768Y-87902242D02*
X141538316Y-87959695D01*
X141365959Y-88017147D01*
X141251054Y-88017147D01*
X141078697Y-87959695D01*
X140963792Y-87844790D01*
X140906340Y-87729885D01*
X140848887Y-87500076D01*
X140848887Y-87327719D01*
X140906340Y-87097909D01*
X140963792Y-86983004D01*
X141078697Y-86868100D01*
X141251054Y-86810647D01*
X141365959Y-86810647D01*
X141538316Y-86868100D01*
X141595768Y-86925552D01*
X141825578Y-88132052D02*
X142744816Y-88132052D01*
X143434244Y-87385171D02*
X143032078Y-87385171D01*
X143032078Y-88017147D02*
X143032078Y-86810647D01*
X143606601Y-86810647D01*
X144066220Y-88017147D02*
X144066220Y-87212814D01*
X144066220Y-87442623D02*
X144123673Y-87327719D01*
X144181125Y-87270266D01*
X144296030Y-87212814D01*
X144410935Y-87212814D01*
X145272720Y-87959695D02*
X145157816Y-88017147D01*
X144928006Y-88017147D01*
X144813101Y-87959695D01*
X144755649Y-87844790D01*
X144755649Y-87385171D01*
X144813101Y-87270266D01*
X144928006Y-87212814D01*
X145157816Y-87212814D01*
X145272720Y-87270266D01*
X145330173Y-87385171D01*
X145330173Y-87500076D01*
X144755649Y-87614980D01*
X146306863Y-87959695D02*
X146191959Y-88017147D01*
X145962149Y-88017147D01*
X145847244Y-87959695D01*
X145789792Y-87844790D01*
X145789792Y-87385171D01*
X145847244Y-87270266D01*
X145962149Y-87212814D01*
X146191959Y-87212814D01*
X146306863Y-87270266D01*
X146364316Y-87385171D01*
X146364316Y-87500076D01*
X145789792Y-87614980D01*
X146594125Y-88132052D02*
X147513363Y-88132052D01*
X147800625Y-88017147D02*
X147800625Y-86810647D01*
X148260244Y-86810647D01*
X148375149Y-86868100D01*
X148432601Y-86925552D01*
X148490054Y-87040457D01*
X148490054Y-87212814D01*
X148432601Y-87327719D01*
X148375149Y-87385171D01*
X148260244Y-87442623D01*
X147800625Y-87442623D01*
X149696554Y-87902242D02*
X149639101Y-87959695D01*
X149466744Y-88017147D01*
X149351840Y-88017147D01*
X149179482Y-87959695D01*
X149064578Y-87844790D01*
X149007125Y-87729885D01*
X148949673Y-87500076D01*
X148949673Y-87327719D01*
X149007125Y-87097909D01*
X149064578Y-86983004D01*
X149179482Y-86868100D01*
X149351840Y-86810647D01*
X149466744Y-86810647D01*
X149639101Y-86868100D01*
X149696554Y-86925552D01*
X150615792Y-87385171D02*
X150788149Y-87442623D01*
X150845601Y-87500076D01*
X150903054Y-87614980D01*
X150903054Y-87787338D01*
X150845601Y-87902242D01*
X150788149Y-87959695D01*
X150673244Y-88017147D01*
X150213625Y-88017147D01*
X150213625Y-86810647D01*
X150615792Y-86810647D01*
X150730697Y-86868100D01*
X150788149Y-86925552D01*
X150845601Y-87040457D01*
X150845601Y-87155361D01*
X150788149Y-87270266D01*
X150730697Y-87327719D01*
X150615792Y-87385171D01*
X150213625Y-87385171D01*
X151132863Y-88132052D02*
X152052101Y-88132052D01*
X152224459Y-87212814D02*
X152511720Y-88017147D01*
X152798982Y-87212814D01*
X153201149Y-86925552D02*
X153258601Y-86868100D01*
X153373506Y-86810647D01*
X153660768Y-86810647D01*
X153775673Y-86868100D01*
X153833125Y-86925552D01*
X153890578Y-87040457D01*
X153890578Y-87155361D01*
X153833125Y-87327719D01*
X153143697Y-88017147D01*
X153890578Y-88017147D01*
X154407649Y-87902242D02*
X154465101Y-87959695D01*
X154407649Y-88017147D01*
X154350197Y-87959695D01*
X154407649Y-87902242D01*
X154407649Y-88017147D01*
X155211982Y-86810647D02*
X155326887Y-86810647D01*
X155441792Y-86868100D01*
X155499244Y-86925552D01*
X155556697Y-87040457D01*
X155614149Y-87270266D01*
X155614149Y-87557528D01*
X155556697Y-87787338D01*
X155499244Y-87902242D01*
X155441792Y-87959695D01*
X155326887Y-88017147D01*
X155211982Y-88017147D01*
X155097078Y-87959695D01*
X155039625Y-87902242D01*
X154982173Y-87787338D01*
X154924720Y-87557528D01*
X154924720Y-87270266D01*
X154982173Y-87040457D01*
X155039625Y-86925552D01*
X155097078Y-86868100D01*
X155211982Y-86810647D01*
X156763197Y-88017147D02*
X156073768Y-88017147D01*
X156418482Y-88017147D02*
X156418482Y-86810647D01*
X156303578Y-86983004D01*
X156188673Y-87097909D01*
X156073768Y-87155361D01*
D15*
G04 #@! TO.C,IC2*
X132077300Y-108674000D02*
G75*
G03X132077300Y-106642000I0J1016000D01*
G01*
X132077300Y-110579000D02*
X132077300Y-108674000D01*
X132077300Y-104737000D02*
X132077300Y-106642000D01*
X167637300Y-104737000D02*
X167637300Y-110579000D01*
X132077300Y-110579000D02*
X167637300Y-110579000D01*
X167637300Y-104737000D02*
X132077300Y-104737000D01*
D16*
G04 #@! TO.C,R13*
G36*
X123771500Y-112230000D02*
X123771500Y-112611000D01*
X124279500Y-112611000D01*
X124279500Y-112230000D01*
X123771500Y-112230000D01*
G37*
G36*
X123771500Y-117691000D02*
X123771500Y-118072000D01*
X124279500Y-118072000D01*
X124279500Y-117691000D01*
X123771500Y-117691000D01*
G37*
D15*
X123263500Y-117691000D02*
X124787500Y-117691000D01*
X123009500Y-117437000D02*
X123009500Y-117056000D01*
X125041500Y-117437000D02*
X125041500Y-117056000D01*
X123136500Y-116929000D02*
X123136500Y-113373000D01*
X123136500Y-116929000D02*
X123009500Y-117056000D01*
X124914500Y-116929000D02*
X124914500Y-113373000D01*
X124914500Y-116929000D02*
X125041500Y-117056000D01*
X123136500Y-113373000D02*
X123009500Y-113246000D01*
X123009500Y-112865000D02*
X123009500Y-113246000D01*
X124914500Y-113373000D02*
X125041500Y-113246000D01*
X125041500Y-112865000D02*
X125041500Y-113246000D01*
X123263500Y-112611000D02*
X124787500Y-112611000D01*
X124787500Y-117691000D02*
G75*
G03X125041500Y-117437000I0J254000D01*
G01*
X123263500Y-117691000D02*
G75*
G02X123009500Y-117437000I0J254000D01*
G01*
X123009500Y-112865000D02*
G75*
G02X123263500Y-112611000I254000J0D01*
G01*
X125041500Y-112865000D02*
G75*
G03X124787500Y-112611000I-254000J0D01*
G01*
D16*
G04 #@! TO.C,R4*
G36*
X138046300Y-94348400D02*
X138046300Y-94729400D01*
X138554300Y-94729400D01*
X138554300Y-94348400D01*
X138046300Y-94348400D01*
G37*
G36*
X138046300Y-99809400D02*
X138046300Y-100190400D01*
X138554300Y-100190400D01*
X138554300Y-99809400D01*
X138046300Y-99809400D01*
G37*
D15*
X137538300Y-99809400D02*
X139062300Y-99809400D01*
X137284300Y-99555400D02*
X137284300Y-99174400D01*
X139316300Y-99555400D02*
X139316300Y-99174400D01*
X137411300Y-99047400D02*
X137411300Y-95491400D01*
X137411300Y-99047400D02*
X137284300Y-99174400D01*
X139189300Y-99047400D02*
X139189300Y-95491400D01*
X139189300Y-99047400D02*
X139316300Y-99174400D01*
X137411300Y-95491400D02*
X137284300Y-95364400D01*
X137284300Y-94983400D02*
X137284300Y-95364400D01*
X139189300Y-95491400D02*
X139316300Y-95364400D01*
X139316300Y-94983400D02*
X139316300Y-95364400D01*
X137538300Y-94729400D02*
X139062300Y-94729400D01*
X139062300Y-99809400D02*
G75*
G03X139316300Y-99555400I0J254000D01*
G01*
X137538300Y-99809400D02*
G75*
G02X137284300Y-99555400I0J254000D01*
G01*
X137284300Y-94983400D02*
G75*
G02X137538300Y-94729400I254000J0D01*
G01*
X139316300Y-94983400D02*
G75*
G03X139062300Y-94729400I-254000J0D01*
G01*
D16*
G04 #@! TO.C,R12*
G36*
X152727500Y-115405000D02*
X152727500Y-115786000D01*
X153235500Y-115786000D01*
X153235500Y-115405000D01*
X152727500Y-115405000D01*
G37*
G36*
X152727500Y-120866000D02*
X152727500Y-121247000D01*
X153235500Y-121247000D01*
X153235500Y-120866000D01*
X152727500Y-120866000D01*
G37*
D15*
X152219500Y-120866000D02*
X153743500Y-120866000D01*
X151965500Y-120612000D02*
X151965500Y-120231000D01*
X153997500Y-120612000D02*
X153997500Y-120231000D01*
X152092500Y-120104000D02*
X152092500Y-116548000D01*
X152092500Y-120104000D02*
X151965500Y-120231000D01*
X153870500Y-120104000D02*
X153870500Y-116548000D01*
X153870500Y-120104000D02*
X153997500Y-120231000D01*
X152092500Y-116548000D02*
X151965500Y-116421000D01*
X151965500Y-116040000D02*
X151965500Y-116421000D01*
X153870500Y-116548000D02*
X153997500Y-116421000D01*
X153997500Y-116040000D02*
X153997500Y-116421000D01*
X152219500Y-115786000D02*
X153743500Y-115786000D01*
X153743500Y-120866000D02*
G75*
G03X153997500Y-120612000I0J254000D01*
G01*
X152219500Y-120866000D02*
G75*
G02X151965500Y-120612000I0J254000D01*
G01*
X151965500Y-116040000D02*
G75*
G02X152219500Y-115786000I254000J0D01*
G01*
X153997500Y-116040000D02*
G75*
G03X153743500Y-115786000I-254000J0D01*
G01*
D16*
G04 #@! TO.C,R10*
G36*
X156359700Y-99657000D02*
X156359700Y-99276000D01*
X155851700Y-99276000D01*
X155851700Y-99657000D01*
X156359700Y-99657000D01*
G37*
G36*
X156359700Y-94196000D02*
X156359700Y-93815000D01*
X155851700Y-93815000D01*
X155851700Y-94196000D01*
X156359700Y-94196000D01*
G37*
D15*
X156867700Y-94196000D02*
X155343700Y-94196000D01*
X157121700Y-94450000D02*
X157121700Y-94831000D01*
X155089700Y-94450000D02*
X155089700Y-94831000D01*
X156994700Y-94958000D02*
X156994700Y-98514000D01*
X156994700Y-94958000D02*
X157121700Y-94831000D01*
X155216700Y-94958000D02*
X155216700Y-98514000D01*
X155216700Y-94958000D02*
X155089700Y-94831000D01*
X156994700Y-98514000D02*
X157121700Y-98641000D01*
X157121700Y-99022000D02*
X157121700Y-98641000D01*
X155216700Y-98514000D02*
X155089700Y-98641000D01*
X155089700Y-99022000D02*
X155089700Y-98641000D01*
X156867700Y-99276000D02*
X155343700Y-99276000D01*
X155343700Y-94196000D02*
G75*
G03X155089700Y-94450000I0J-254000D01*
G01*
X156867700Y-94196000D02*
G75*
G02X157121700Y-94450000I0J-254000D01*
G01*
X157121700Y-99022000D02*
G75*
G02X156867700Y-99276000I-254000J0D01*
G01*
X155089700Y-99022000D02*
G75*
G03X155343700Y-99276000I254000J0D01*
G01*
G04 #@! TO.C,C6*
X141145100Y-97574200D02*
X141145100Y-97701200D01*
D17*
X141145100Y-97574200D02*
X141907100Y-97574200D01*
X140383100Y-97574200D02*
X141145100Y-97574200D01*
X141145100Y-97066200D02*
X141907100Y-97066200D01*
X141145100Y-97066200D02*
X140383100Y-97066200D01*
D15*
X141145100Y-96939200D02*
X141145100Y-97066200D01*
X142415100Y-99479200D02*
G75*
G02X142161100Y-99733200I-254000J0D01*
G01*
X142161100Y-94907200D02*
G75*
G02X142415100Y-95161200I0J-254000D01*
G01*
X139875100Y-99479200D02*
G75*
G03X140129100Y-99733200I254000J0D01*
G01*
X140129100Y-94907200D02*
G75*
G03X139875100Y-95161200I0J-254000D01*
G01*
X140129100Y-99733200D02*
X142161100Y-99733200D01*
X140129100Y-94907200D02*
X142161100Y-94907200D01*
X142415100Y-95161200D02*
X142415100Y-99479200D01*
X139875100Y-99479200D02*
X139875100Y-95161200D01*
G04 #@! TO.C,C8*
X153130000Y-95264000D02*
X153130000Y-95391000D01*
D17*
X153130000Y-95264000D02*
X153892000Y-95264000D01*
X152368000Y-95264000D02*
X153130000Y-95264000D01*
X153130000Y-94756000D02*
X153892000Y-94756000D01*
X153130000Y-94756000D02*
X152368000Y-94756000D01*
D15*
X153130000Y-94629000D02*
X153130000Y-94756000D01*
X154400000Y-97169000D02*
G75*
G02X154146000Y-97423000I-254000J0D01*
G01*
X154146000Y-92597000D02*
G75*
G02X154400000Y-92851000I0J-254000D01*
G01*
X151860000Y-97169000D02*
G75*
G03X152114000Y-97423000I254000J0D01*
G01*
X152114000Y-92597000D02*
G75*
G03X151860000Y-92851000I0J-254000D01*
G01*
X152114000Y-97423000D02*
X154146000Y-97423000D01*
X152114000Y-92597000D02*
X154146000Y-92597000D01*
X154400000Y-92851000D02*
X154400000Y-97169000D01*
X151860000Y-97169000D02*
X151860000Y-92851000D01*
G04 #@! TO.C,C5*
X133347300Y-99022000D02*
X133347300Y-99149000D01*
D17*
X133347300Y-99022000D02*
X134109300Y-99022000D01*
X132585300Y-99022000D02*
X133347300Y-99022000D01*
X133347300Y-98514000D02*
X134109300Y-98514000D01*
X133347300Y-98514000D02*
X132585300Y-98514000D01*
D15*
X133347300Y-98387000D02*
X133347300Y-98514000D01*
X134617300Y-100927000D02*
G75*
G02X134363300Y-101181000I-254000J0D01*
G01*
X134363300Y-96355000D02*
G75*
G02X134617300Y-96609000I0J-254000D01*
G01*
X132077300Y-100927000D02*
G75*
G03X132331300Y-101181000I254000J0D01*
G01*
X132331300Y-96355000D02*
G75*
G03X132077300Y-96609000I0J-254000D01*
G01*
X132331300Y-101181000D02*
X134363300Y-101181000D01*
X132331300Y-96355000D02*
X134363300Y-96355000D01*
X134617300Y-96609000D02*
X134617300Y-100927000D01*
X132077300Y-100927000D02*
X132077300Y-96609000D01*
D16*
G04 #@! TO.C,D2*
G36*
X182547100Y-89471600D02*
X180642100Y-89471600D01*
X180642100Y-90233600D01*
X182547100Y-90233600D01*
X182547100Y-89471600D01*
G37*
G36*
X176578100Y-89471600D02*
X174673100Y-89471600D01*
X174673100Y-90233600D01*
X176578100Y-90233600D01*
X176578100Y-89471600D01*
G37*
G36*
X180261100Y-88582600D02*
X179753100Y-88582600D01*
X179753100Y-91122600D01*
X180261100Y-91122600D01*
X180261100Y-88582600D01*
G37*
D15*
X178610100Y-89852600D02*
X178610100Y-89217600D01*
X178610100Y-90487600D02*
X178610100Y-89852600D01*
X178610100Y-89852600D02*
X177594100Y-90487600D01*
X178610100Y-89852600D02*
X177086100Y-89852600D01*
X177594100Y-89217600D02*
X178610100Y-89852600D01*
X177594100Y-90487600D02*
X177594100Y-89217600D01*
X179245100Y-89852600D02*
X178610100Y-89852600D01*
X180642100Y-91122600D02*
X180642100Y-88582600D01*
X180642100Y-91122600D02*
X176578100Y-91122600D01*
X176578100Y-88582600D02*
X176578100Y-91122600D01*
X176578100Y-88582600D02*
X180642100Y-88582600D01*
D16*
G04 #@! TO.C,D3*
G36*
X182572500Y-92722800D02*
X180667500Y-92722800D01*
X180667500Y-93484800D01*
X182572500Y-93484800D01*
X182572500Y-92722800D01*
G37*
G36*
X176603500Y-92722800D02*
X174698500Y-92722800D01*
X174698500Y-93484800D01*
X176603500Y-93484800D01*
X176603500Y-92722800D01*
G37*
G36*
X180286500Y-91833800D02*
X179778500Y-91833800D01*
X179778500Y-94373800D01*
X180286500Y-94373800D01*
X180286500Y-91833800D01*
G37*
D15*
X178635500Y-93103800D02*
X178635500Y-92468800D01*
X178635500Y-93738800D02*
X178635500Y-93103800D01*
X178635500Y-93103800D02*
X177619500Y-93738800D01*
X178635500Y-93103800D02*
X177111500Y-93103800D01*
X177619500Y-92468800D02*
X178635500Y-93103800D01*
X177619500Y-93738800D02*
X177619500Y-92468800D01*
X179270500Y-93103800D02*
X178635500Y-93103800D01*
X180667500Y-94373800D02*
X180667500Y-91833800D01*
X180667500Y-94373800D02*
X176603500Y-94373800D01*
X176603500Y-91833800D02*
X176603500Y-94373800D01*
X176603500Y-91833800D02*
X180667500Y-91833800D01*
D16*
G04 #@! TO.C,R8*
G36*
X144523300Y-94348400D02*
X144523300Y-94729400D01*
X145031300Y-94729400D01*
X145031300Y-94348400D01*
X144523300Y-94348400D01*
G37*
G36*
X144523300Y-99809400D02*
X144523300Y-100190400D01*
X145031300Y-100190400D01*
X145031300Y-99809400D01*
X144523300Y-99809400D01*
G37*
D15*
X144015300Y-99809400D02*
X145539300Y-99809400D01*
X143761300Y-99555400D02*
X143761300Y-99174400D01*
X145793300Y-99555400D02*
X145793300Y-99174400D01*
X143888300Y-99047400D02*
X143888300Y-95491400D01*
X143888300Y-99047400D02*
X143761300Y-99174400D01*
X145666300Y-99047400D02*
X145666300Y-95491400D01*
X145666300Y-99047400D02*
X145793300Y-99174400D01*
X143888300Y-95491400D02*
X143761300Y-95364400D01*
X143761300Y-94983400D02*
X143761300Y-95364400D01*
X145666300Y-95491400D02*
X145793300Y-95364400D01*
X145793300Y-94983400D02*
X145793300Y-95364400D01*
X144015300Y-94729400D02*
X145539300Y-94729400D01*
X145539300Y-99809400D02*
G75*
G03X145793300Y-99555400I0J254000D01*
G01*
X144015300Y-99809400D02*
G75*
G02X143761300Y-99555400I0J254000D01*
G01*
X143761300Y-94983400D02*
G75*
G02X144015300Y-94729400I254000J0D01*
G01*
X145793300Y-94983400D02*
G75*
G03X145539300Y-94729400I-254000J0D01*
G01*
D16*
G04 #@! TO.C,R2*
G36*
X128521300Y-115074800D02*
X128521300Y-115455800D01*
X129029300Y-115455800D01*
X129029300Y-115074800D01*
X128521300Y-115074800D01*
G37*
G36*
X128521300Y-120535800D02*
X128521300Y-120916800D01*
X129029300Y-120916800D01*
X129029300Y-120535800D01*
X128521300Y-120535800D01*
G37*
D15*
X128013300Y-120535800D02*
X129537300Y-120535800D01*
X127759300Y-120281800D02*
X127759300Y-119900800D01*
X129791300Y-120281800D02*
X129791300Y-119900800D01*
X127886300Y-119773800D02*
X127886300Y-116217800D01*
X127886300Y-119773800D02*
X127759300Y-119900800D01*
X129664300Y-119773800D02*
X129664300Y-116217800D01*
X129664300Y-119773800D02*
X129791300Y-119900800D01*
X127886300Y-116217800D02*
X127759300Y-116090800D01*
X127759300Y-115709800D02*
X127759300Y-116090800D01*
X129664300Y-116217800D02*
X129791300Y-116090800D01*
X129791300Y-115709800D02*
X129791300Y-116090800D01*
X128013300Y-115455800D02*
X129537300Y-115455800D01*
X129537300Y-120535800D02*
G75*
G03X129791300Y-120281800I0J254000D01*
G01*
X128013300Y-120535800D02*
G75*
G02X127759300Y-120281800I0J254000D01*
G01*
X127759300Y-115709800D02*
G75*
G02X128013300Y-115455800I254000J0D01*
G01*
X129791300Y-115709800D02*
G75*
G03X129537300Y-115455800I-254000J0D01*
G01*
D16*
G04 #@! TO.C,R6*
G36*
X133448900Y-115074800D02*
X133448900Y-115455800D01*
X133956900Y-115455800D01*
X133956900Y-115074800D01*
X133448900Y-115074800D01*
G37*
G36*
X133448900Y-120535800D02*
X133448900Y-120916800D01*
X133956900Y-120916800D01*
X133956900Y-120535800D01*
X133448900Y-120535800D01*
G37*
D15*
X132940900Y-120535800D02*
X134464900Y-120535800D01*
X132686900Y-120281800D02*
X132686900Y-119900800D01*
X134718900Y-120281800D02*
X134718900Y-119900800D01*
X132813900Y-119773800D02*
X132813900Y-116217800D01*
X132813900Y-119773800D02*
X132686900Y-119900800D01*
X134591900Y-119773800D02*
X134591900Y-116217800D01*
X134591900Y-119773800D02*
X134718900Y-119900800D01*
X132813900Y-116217800D02*
X132686900Y-116090800D01*
X132686900Y-115709800D02*
X132686900Y-116090800D01*
X134591900Y-116217800D02*
X134718900Y-116090800D01*
X134718900Y-115709800D02*
X134718900Y-116090800D01*
X132940900Y-115455800D02*
X134464900Y-115455800D01*
X134464900Y-120535800D02*
G75*
G03X134718900Y-120281800I0J254000D01*
G01*
X132940900Y-120535800D02*
G75*
G02X132686900Y-120281800I0J254000D01*
G01*
X132686900Y-115709800D02*
G75*
G02X132940900Y-115455800I254000J0D01*
G01*
X134718900Y-115709800D02*
G75*
G03X134464900Y-115455800I-254000J0D01*
G01*
D16*
G04 #@! TO.C,R7*
G36*
X148180900Y-100190400D02*
X148180900Y-99809400D01*
X147672900Y-99809400D01*
X147672900Y-100190400D01*
X148180900Y-100190400D01*
G37*
G36*
X148180900Y-94729400D02*
X148180900Y-94348400D01*
X147672900Y-94348400D01*
X147672900Y-94729400D01*
X148180900Y-94729400D01*
G37*
D15*
X148688900Y-94729400D02*
X147164900Y-94729400D01*
X148942900Y-94983400D02*
X148942900Y-95364400D01*
X146910900Y-94983400D02*
X146910900Y-95364400D01*
X148815900Y-95491400D02*
X148815900Y-99047400D01*
X148815900Y-95491400D02*
X148942900Y-95364400D01*
X147037900Y-95491400D02*
X147037900Y-99047400D01*
X147037900Y-95491400D02*
X146910900Y-95364400D01*
X148815900Y-99047400D02*
X148942900Y-99174400D01*
X148942900Y-99555400D02*
X148942900Y-99174400D01*
X147037900Y-99047400D02*
X146910900Y-99174400D01*
X146910900Y-99555400D02*
X146910900Y-99174400D01*
X148688900Y-99809400D02*
X147164900Y-99809400D01*
X147164900Y-94729400D02*
G75*
G03X146910900Y-94983400I0J-254000D01*
G01*
X148688900Y-94729400D02*
G75*
G02X148942900Y-94983400I0J-254000D01*
G01*
X148942900Y-99555400D02*
G75*
G02X148688900Y-99809400I-254000J0D01*
G01*
X146910900Y-99555400D02*
G75*
G03X147164900Y-99809400I254000J0D01*
G01*
D16*
G04 #@! TO.C,IC3*
G36*
X120545700Y-112839600D02*
X121815700Y-112839600D01*
X121815700Y-110045600D01*
X120545700Y-110045600D01*
X120545700Y-112839600D01*
G37*
G36*
X118005700Y-112839600D02*
X119275700Y-112839600D01*
X119275700Y-110045600D01*
X118005700Y-110045600D01*
X118005700Y-112839600D01*
G37*
G36*
X115465700Y-112839600D02*
X116735700Y-112839600D01*
X116735700Y-110045600D01*
X115465700Y-110045600D01*
X115465700Y-112839600D01*
G37*
G36*
X115719700Y-113474600D02*
X116481700Y-113474600D01*
X116481700Y-112839600D01*
X115719700Y-112839600D01*
X115719700Y-113474600D01*
G37*
G36*
X118259700Y-113474600D02*
X119021700Y-113474600D01*
X119021700Y-112839600D01*
X118259700Y-112839600D01*
X118259700Y-113474600D01*
G37*
G36*
X120799700Y-113474600D02*
X121561700Y-113474600D01*
X121561700Y-112839600D01*
X120799700Y-112839600D01*
X120799700Y-113474600D01*
G37*
D18*
X114068700Y-109410600D02*
X114068700Y-101155600D01*
X123212700Y-101155600D02*
X114068700Y-101155600D01*
X123212700Y-101155600D02*
X123212700Y-109410600D01*
X114068700Y-109410600D02*
X123212700Y-109410600D01*
D15*
X113433700Y-96075600D02*
X113433700Y-94170600D01*
X114322700Y-96075600D02*
X113433700Y-96075600D01*
X114322700Y-97599600D02*
X114322700Y-96075600D01*
X113433700Y-97599600D02*
X114322700Y-97599600D01*
X113433700Y-110045600D02*
X113433700Y-97599600D01*
X123847700Y-96075600D02*
X123847700Y-94170600D01*
X122958700Y-96075600D02*
X123847700Y-96075600D01*
X122958700Y-97599600D02*
X122958700Y-96075600D01*
X123847700Y-97599600D02*
X122958700Y-97599600D01*
X123847700Y-110045600D02*
X123847700Y-97599600D01*
X123847700Y-94170600D02*
X113433700Y-94170600D01*
X113433700Y-110045600D02*
X123847700Y-110045600D01*
D16*
G04 #@! TO.C,R5*
G36*
X137995500Y-120916800D02*
X137995500Y-120535800D01*
X137487500Y-120535800D01*
X137487500Y-120916800D01*
X137995500Y-120916800D01*
G37*
G36*
X137995500Y-115455800D02*
X137995500Y-115074800D01*
X137487500Y-115074800D01*
X137487500Y-115455800D01*
X137995500Y-115455800D01*
G37*
D15*
X138503500Y-115455800D02*
X136979500Y-115455800D01*
X138757500Y-115709800D02*
X138757500Y-116090800D01*
X136725500Y-115709800D02*
X136725500Y-116090800D01*
X138630500Y-116217800D02*
X138630500Y-119773800D01*
X138630500Y-116217800D02*
X138757500Y-116090800D01*
X136852500Y-116217800D02*
X136852500Y-119773800D01*
X136852500Y-116217800D02*
X136725500Y-116090800D01*
X138630500Y-119773800D02*
X138757500Y-119900800D01*
X138757500Y-120281800D02*
X138757500Y-119900800D01*
X136852500Y-119773800D02*
X136725500Y-119900800D01*
X136725500Y-120281800D02*
X136725500Y-119900800D01*
X138503500Y-120535800D02*
X136979500Y-120535800D01*
X136979500Y-115455800D02*
G75*
G03X136725500Y-115709800I0J-254000D01*
G01*
X138503500Y-115455800D02*
G75*
G02X138757500Y-115709800I0J-254000D01*
G01*
X138757500Y-120281800D02*
G75*
G02X138503500Y-120535800I-254000J0D01*
G01*
X136725500Y-120281800D02*
G75*
G03X136979500Y-120535800I254000J0D01*
G01*
D16*
G04 #@! TO.C,R9*
G36*
X140078300Y-115074800D02*
X140078300Y-115455800D01*
X140586300Y-115455800D01*
X140586300Y-115074800D01*
X140078300Y-115074800D01*
G37*
G36*
X140078300Y-120535800D02*
X140078300Y-120916800D01*
X140586300Y-120916800D01*
X140586300Y-120535800D01*
X140078300Y-120535800D01*
G37*
D15*
X139570300Y-120535800D02*
X141094300Y-120535800D01*
X139316300Y-120281800D02*
X139316300Y-119900800D01*
X141348300Y-120281800D02*
X141348300Y-119900800D01*
X139443300Y-119773800D02*
X139443300Y-116217800D01*
X139443300Y-119773800D02*
X139316300Y-119900800D01*
X141221300Y-119773800D02*
X141221300Y-116217800D01*
X141221300Y-119773800D02*
X141348300Y-119900800D01*
X139443300Y-116217800D02*
X139316300Y-116090800D01*
X139316300Y-115709800D02*
X139316300Y-116090800D01*
X141221300Y-116217800D02*
X141348300Y-116090800D01*
X141348300Y-115709800D02*
X141348300Y-116090800D01*
X139570300Y-115455800D02*
X141094300Y-115455800D01*
X141094300Y-120535800D02*
G75*
G03X141348300Y-120281800I0J254000D01*
G01*
X139570300Y-120535800D02*
G75*
G02X139316300Y-120281800I0J254000D01*
G01*
X139316300Y-115709800D02*
G75*
G02X139570300Y-115455800I254000J0D01*
G01*
X141348300Y-115709800D02*
G75*
G03X141094300Y-115455800I-254000J0D01*
G01*
G04 #@! TO.C,C7*
X144040700Y-118376800D02*
X144040700Y-118249800D01*
D17*
X144040700Y-118376800D02*
X143278700Y-118376800D01*
X144802700Y-118376800D02*
X144040700Y-118376800D01*
X144040700Y-118884800D02*
X143278700Y-118884800D01*
X144040700Y-118884800D02*
X144802700Y-118884800D01*
D15*
X144040700Y-119011800D02*
X144040700Y-118884800D01*
X142770700Y-116471800D02*
G75*
G02X143024700Y-116217800I254000J0D01*
G01*
X143024700Y-121043800D02*
G75*
G02X142770700Y-120789800I0J254000D01*
G01*
X145310700Y-116471800D02*
G75*
G03X145056700Y-116217800I-254000J0D01*
G01*
X145056700Y-121043800D02*
G75*
G03X145310700Y-120789800I0J254000D01*
G01*
X145056700Y-116217800D02*
X143024700Y-116217800D01*
X145056700Y-121043800D02*
X143024700Y-121043800D01*
X142770700Y-120789800D02*
X142770700Y-116471800D01*
X145310700Y-116471800D02*
X145310700Y-120789800D01*
D16*
G04 #@! TO.C,IC1*
G36*
X176019300Y-114211200D02*
X177289300Y-114211200D01*
X177289300Y-111417200D01*
X176019300Y-111417200D01*
X176019300Y-114211200D01*
G37*
G36*
X173479300Y-114211200D02*
X174749300Y-114211200D01*
X174749300Y-111417200D01*
X173479300Y-111417200D01*
X173479300Y-114211200D01*
G37*
G36*
X170939300Y-114211200D02*
X172209300Y-114211200D01*
X172209300Y-111417200D01*
X170939300Y-111417200D01*
X170939300Y-114211200D01*
G37*
G36*
X171193300Y-114846200D02*
X171955300Y-114846200D01*
X171955300Y-114211200D01*
X171193300Y-114211200D01*
X171193300Y-114846200D01*
G37*
G36*
X173733300Y-114846200D02*
X174495300Y-114846200D01*
X174495300Y-114211200D01*
X173733300Y-114211200D01*
X173733300Y-114846200D01*
G37*
G36*
X176273300Y-114846200D02*
X177035300Y-114846200D01*
X177035300Y-114211200D01*
X176273300Y-114211200D01*
X176273300Y-114846200D01*
G37*
D18*
X169542300Y-110782200D02*
X169542300Y-102527200D01*
X178686300Y-102527200D02*
X169542300Y-102527200D01*
X178686300Y-102527200D02*
X178686300Y-110782200D01*
X169542300Y-110782200D02*
X178686300Y-110782200D01*
D15*
X168907300Y-97447200D02*
X168907300Y-95542200D01*
X169796300Y-97447200D02*
X168907300Y-97447200D01*
X169796300Y-98971200D02*
X169796300Y-97447200D01*
X168907300Y-98971200D02*
X169796300Y-98971200D01*
X168907300Y-111417200D02*
X168907300Y-98971200D01*
X179321300Y-97447200D02*
X179321300Y-95542200D01*
X178432300Y-97447200D02*
X179321300Y-97447200D01*
X178432300Y-98971200D02*
X178432300Y-97447200D01*
X179321300Y-98971200D02*
X178432300Y-98971200D01*
X179321300Y-111417200D02*
X179321300Y-98971200D01*
X179321300Y-95542200D02*
X168907300Y-95542200D01*
X168907300Y-111417200D02*
X179321300Y-111417200D01*
G04 #@! TO.C,C2*
X183004300Y-102654200D02*
X183131300Y-102654200D01*
D17*
X183004300Y-102654200D02*
X183004300Y-101892200D01*
X183004300Y-103416200D02*
X183004300Y-102654200D01*
X182496300Y-102654200D02*
X182496300Y-101892200D01*
X182496300Y-102654200D02*
X182496300Y-103416200D01*
D15*
X182369300Y-102654200D02*
X182496300Y-102654200D01*
X184909300Y-101384200D02*
G75*
G02X185163300Y-101638200I0J-254000D01*
G01*
X180337300Y-101638200D02*
G75*
G02X180591300Y-101384200I254000J0D01*
G01*
X184909300Y-103924200D02*
G75*
G03X185163300Y-103670200I0J254000D01*
G01*
X180337300Y-103670200D02*
G75*
G03X180591300Y-103924200I254000J0D01*
G01*
X185163300Y-103670200D02*
X185163300Y-101638200D01*
X180337300Y-103670200D02*
X180337300Y-101638200D01*
X180591300Y-101384200D02*
X184909300Y-101384200D01*
X184909300Y-103924200D02*
X180591300Y-103924200D01*
G04 #@! TO.C,C4*
X186153900Y-116294000D02*
X186026900Y-116294000D01*
D17*
X186153900Y-116294000D02*
X186153900Y-117056000D01*
X186153900Y-115532000D02*
X186153900Y-116294000D01*
X186661900Y-116294000D02*
X186661900Y-117056000D01*
X186661900Y-116294000D02*
X186661900Y-115532000D01*
D15*
X186788900Y-116294000D02*
X186661900Y-116294000D01*
X184248900Y-117564000D02*
G75*
G02X183994900Y-117310000I0J254000D01*
G01*
X188820900Y-117310000D02*
G75*
G02X188566900Y-117564000I-254000J0D01*
G01*
X184248900Y-115024000D02*
G75*
G03X183994900Y-115278000I0J-254000D01*
G01*
X188820900Y-115278000D02*
G75*
G03X188566900Y-115024000I-254000J0D01*
G01*
X183994900Y-115278000D02*
X183994900Y-117310000D01*
X188820900Y-115278000D02*
X188820900Y-117310000D01*
X188566900Y-117564000D02*
X184248900Y-117564000D01*
X184248900Y-115024000D02*
X188566900Y-115024000D01*
D16*
G04 #@! TO.C,D1*
G36*
X181658100Y-106413400D02*
X181658100Y-108318400D01*
X182420100Y-108318400D01*
X182420100Y-106413400D01*
X181658100Y-106413400D01*
G37*
G36*
X181658100Y-112382400D02*
X181658100Y-114287400D01*
X182420100Y-114287400D01*
X182420100Y-112382400D01*
X181658100Y-112382400D01*
G37*
G36*
X180769100Y-108699400D02*
X180769100Y-109207400D01*
X183309100Y-109207400D01*
X183309100Y-108699400D01*
X180769100Y-108699400D01*
G37*
D15*
X182039100Y-110350400D02*
X181404100Y-110350400D01*
X182674100Y-110350400D02*
X182039100Y-110350400D01*
X182039100Y-110350400D02*
X182674100Y-111366400D01*
X182039100Y-110350400D02*
X182039100Y-111874400D01*
X181404100Y-111366400D02*
X182039100Y-110350400D01*
X182674100Y-111366400D02*
X181404100Y-111366400D01*
X182039100Y-109715400D02*
X182039100Y-110350400D01*
X183309100Y-108318400D02*
X180769100Y-108318400D01*
X183309100Y-108318400D02*
X183309100Y-112382400D01*
X180769100Y-112382400D02*
X183309100Y-112382400D01*
X180769100Y-112382400D02*
X180769100Y-108318400D01*
G04 #@! TO.C,C1*
X185798300Y-98361600D02*
G75*
G03X185798300Y-98361600I-2540000J0D01*
G01*
X184274300Y-99885600D02*
X184274300Y-100393600D01*
X184528300Y-100139600D02*
X184020300Y-100139600D01*
G04 #@! TO.C,C3*
X188871700Y-111061600D02*
G75*
G03X188871700Y-111061600I-2540000J0D01*
G01*
X187347700Y-112585600D02*
X187347700Y-113093600D01*
X187601700Y-112839600D02*
X187093700Y-112839600D01*
D16*
G04 #@! TO.C,R3*
G36*
X131518500Y-120916800D02*
X131518500Y-120535800D01*
X131010500Y-120535800D01*
X131010500Y-120916800D01*
X131518500Y-120916800D01*
G37*
G36*
X131518500Y-115455800D02*
X131518500Y-115074800D01*
X131010500Y-115074800D01*
X131010500Y-115455800D01*
X131518500Y-115455800D01*
G37*
D15*
X132026500Y-115455800D02*
X130502500Y-115455800D01*
X132280500Y-115709800D02*
X132280500Y-116090800D01*
X130248500Y-115709800D02*
X130248500Y-116090800D01*
X132153500Y-116217800D02*
X132153500Y-119773800D01*
X132153500Y-116217800D02*
X132280500Y-116090800D01*
X130375500Y-116217800D02*
X130375500Y-119773800D01*
X130375500Y-116217800D02*
X130248500Y-116090800D01*
X132153500Y-119773800D02*
X132280500Y-119900800D01*
X132280500Y-120281800D02*
X132280500Y-119900800D01*
X130375500Y-119773800D02*
X130248500Y-119900800D01*
X130248500Y-120281800D02*
X130248500Y-119900800D01*
X132026500Y-120535800D02*
X130502500Y-120535800D01*
X130502500Y-115455800D02*
G75*
G03X130248500Y-115709800I0J-254000D01*
G01*
X132026500Y-115455800D02*
G75*
G02X132280500Y-115709800I0J-254000D01*
G01*
X132280500Y-120281800D02*
G75*
G02X132026500Y-120535800I-254000J0D01*
G01*
X130248500Y-120281800D02*
G75*
G03X130502500Y-120535800I254000J0D01*
G01*
G04 #@! TO.C,JP3*
X184452100Y-121856600D02*
X183182100Y-121856600D01*
X182547100Y-121221600D02*
X183182100Y-121856600D01*
X183182100Y-119316600D02*
X182547100Y-119951600D01*
X185087100Y-121221600D02*
X184452100Y-121856600D01*
X185087100Y-119951600D02*
X185087100Y-121221600D01*
X184452100Y-119316600D02*
X185087100Y-119951600D01*
X183182100Y-119316600D02*
X184452100Y-119316600D01*
X174292100Y-121856600D02*
X173022100Y-121856600D01*
X172387100Y-121221600D02*
X173022100Y-121856600D01*
X173022100Y-119316600D02*
X172387100Y-119951600D01*
X172387100Y-119951600D02*
X172387100Y-121221600D01*
X175562100Y-121856600D02*
X174927100Y-121221600D01*
X176832100Y-121856600D02*
X175562100Y-121856600D01*
X177467100Y-121221600D02*
X176832100Y-121856600D01*
X177467100Y-119951600D02*
X177467100Y-121221600D01*
X176832100Y-119316600D02*
X177467100Y-119951600D01*
X175562100Y-119316600D02*
X176832100Y-119316600D01*
X174927100Y-119951600D02*
X175562100Y-119316600D01*
X174927100Y-121221600D02*
X174292100Y-121856600D01*
X174927100Y-119951600D02*
X174927100Y-121221600D01*
X174292100Y-119316600D02*
X174927100Y-119951600D01*
X173022100Y-119316600D02*
X174292100Y-119316600D01*
X181912100Y-121856600D02*
X180642100Y-121856600D01*
X180007100Y-121221600D02*
X180642100Y-121856600D01*
X180642100Y-119316600D02*
X180007100Y-119951600D01*
X178102100Y-121856600D02*
X177467100Y-121221600D01*
X179372100Y-121856600D02*
X178102100Y-121856600D01*
X180007100Y-121221600D02*
X179372100Y-121856600D01*
X180007100Y-119951600D02*
X180007100Y-121221600D01*
X179372100Y-119316600D02*
X180007100Y-119951600D01*
X178102100Y-119316600D02*
X179372100Y-119316600D01*
X177467100Y-119951600D02*
X178102100Y-119316600D01*
X182547100Y-121221600D02*
X181912100Y-121856600D01*
X182547100Y-119951600D02*
X182547100Y-121221600D01*
X181912100Y-119316600D02*
X182547100Y-119951600D01*
X180642100Y-119316600D02*
X181912100Y-119316600D01*
D16*
G04 #@! TO.C,R11*
G36*
X162836700Y-99936400D02*
X162836700Y-99555400D01*
X162328700Y-99555400D01*
X162328700Y-99936400D01*
X162836700Y-99936400D01*
G37*
G36*
X162836700Y-94475400D02*
X162836700Y-94094400D01*
X162328700Y-94094400D01*
X162328700Y-94475400D01*
X162836700Y-94475400D01*
G37*
D15*
X163344700Y-94475400D02*
X161820700Y-94475400D01*
X163598700Y-94729400D02*
X163598700Y-95110400D01*
X161566700Y-94729400D02*
X161566700Y-95110400D01*
X163471700Y-95237400D02*
X163471700Y-98793400D01*
X163471700Y-95237400D02*
X163598700Y-95110400D01*
X161693700Y-95237400D02*
X161693700Y-98793400D01*
X161693700Y-95237400D02*
X161566700Y-95110400D01*
X163471700Y-98793400D02*
X163598700Y-98920400D01*
X163598700Y-99301400D02*
X163598700Y-98920400D01*
X161693700Y-98793400D02*
X161566700Y-98920400D01*
X161566700Y-99301400D02*
X161566700Y-98920400D01*
X163344700Y-99555400D02*
X161820700Y-99555400D01*
X161820700Y-94475400D02*
G75*
G03X161566700Y-94729400I0J-254000D01*
G01*
X163344700Y-94475400D02*
G75*
G02X163598700Y-94729400I0J-254000D01*
G01*
X163598700Y-99301400D02*
G75*
G02X163344700Y-99555400I-254000J0D01*
G01*
X161566700Y-99301400D02*
G75*
G03X161820700Y-99555400I254000J0D01*
G01*
G04 #@! TO.C,JP4*
X156943900Y-91579800D02*
X156308900Y-90944800D01*
X158213900Y-91579800D02*
X156943900Y-91579800D01*
X158848900Y-90944800D02*
X158213900Y-91579800D01*
X158848900Y-89674800D02*
X158848900Y-90944800D01*
X158213900Y-89039800D02*
X158848900Y-89674800D01*
X156943900Y-89039800D02*
X158213900Y-89039800D01*
X156308900Y-89674800D02*
X156943900Y-89039800D01*
X120113900Y-91579800D02*
X118843900Y-91579800D01*
X118208900Y-90944800D02*
X118843900Y-91579800D01*
X118843900Y-89039800D02*
X118208900Y-89674800D01*
X118208900Y-89674800D02*
X118208900Y-90944800D01*
X121383900Y-91579800D02*
X120748900Y-90944800D01*
X122653900Y-91579800D02*
X121383900Y-91579800D01*
X123288900Y-90944800D02*
X122653900Y-91579800D01*
X123288900Y-89674800D02*
X123288900Y-90944800D01*
X122653900Y-89039800D02*
X123288900Y-89674800D01*
X121383900Y-89039800D02*
X122653900Y-89039800D01*
X120748900Y-89674800D02*
X121383900Y-89039800D01*
X120748900Y-90944800D02*
X120113900Y-91579800D01*
X120748900Y-89674800D02*
X120748900Y-90944800D01*
X120113900Y-89039800D02*
X120748900Y-89674800D01*
X118843900Y-89039800D02*
X120113900Y-89039800D01*
X127733900Y-91579800D02*
X126463900Y-91579800D01*
X125828900Y-90944800D02*
X126463900Y-91579800D01*
X126463900Y-89039800D02*
X125828900Y-89674800D01*
X123923900Y-91579800D02*
X123288900Y-90944800D01*
X125193900Y-91579800D02*
X123923900Y-91579800D01*
X125828900Y-90944800D02*
X125193900Y-91579800D01*
X125828900Y-89674800D02*
X125828900Y-90944800D01*
X125193900Y-89039800D02*
X125828900Y-89674800D01*
X123923900Y-89039800D02*
X125193900Y-89039800D01*
X123288900Y-89674800D02*
X123923900Y-89039800D01*
X129003900Y-91579800D02*
X128368900Y-90944800D01*
X130273900Y-91579800D02*
X129003900Y-91579800D01*
X130908900Y-90944800D02*
X130273900Y-91579800D01*
X130908900Y-89674800D02*
X130908900Y-90944800D01*
X130273900Y-89039800D02*
X130908900Y-89674800D01*
X129003900Y-89039800D02*
X130273900Y-89039800D01*
X128368900Y-89674800D02*
X129003900Y-89039800D01*
X128368900Y-90944800D02*
X127733900Y-91579800D01*
X128368900Y-89674800D02*
X128368900Y-90944800D01*
X127733900Y-89039800D02*
X128368900Y-89674800D01*
X126463900Y-89039800D02*
X127733900Y-89039800D01*
X135353900Y-91579800D02*
X134083900Y-91579800D01*
X133448900Y-90944800D02*
X134083900Y-91579800D01*
X134083900Y-89039800D02*
X133448900Y-89674800D01*
X131543900Y-91579800D02*
X130908900Y-90944800D01*
X132813900Y-91579800D02*
X131543900Y-91579800D01*
X133448900Y-90944800D02*
X132813900Y-91579800D01*
X133448900Y-89674800D02*
X133448900Y-90944800D01*
X132813900Y-89039800D02*
X133448900Y-89674800D01*
X131543900Y-89039800D02*
X132813900Y-89039800D01*
X130908900Y-89674800D02*
X131543900Y-89039800D01*
X136623900Y-91579800D02*
X135988900Y-90944800D01*
X137893900Y-91579800D02*
X136623900Y-91579800D01*
X138528900Y-90944800D02*
X137893900Y-91579800D01*
X138528900Y-89674800D02*
X138528900Y-90944800D01*
X137893900Y-89039800D02*
X138528900Y-89674800D01*
X136623900Y-89039800D02*
X137893900Y-89039800D01*
X135988900Y-89674800D02*
X136623900Y-89039800D01*
X135988900Y-90944800D02*
X135353900Y-91579800D01*
X135988900Y-89674800D02*
X135988900Y-90944800D01*
X135353900Y-89039800D02*
X135988900Y-89674800D01*
X134083900Y-89039800D02*
X135353900Y-89039800D01*
X142973900Y-91579800D02*
X141703900Y-91579800D01*
X141068900Y-90944800D02*
X141703900Y-91579800D01*
X141703900Y-89039800D02*
X141068900Y-89674800D01*
X139163900Y-91579800D02*
X138528900Y-90944800D01*
X140433900Y-91579800D02*
X139163900Y-91579800D01*
X141068900Y-90944800D02*
X140433900Y-91579800D01*
X141068900Y-89674800D02*
X141068900Y-90944800D01*
X140433900Y-89039800D02*
X141068900Y-89674800D01*
X139163900Y-89039800D02*
X140433900Y-89039800D01*
X138528900Y-89674800D02*
X139163900Y-89039800D01*
X144243900Y-91579800D02*
X143608900Y-90944800D01*
X145513900Y-91579800D02*
X144243900Y-91579800D01*
X146148900Y-90944800D02*
X145513900Y-91579800D01*
X146148900Y-89674800D02*
X146148900Y-90944800D01*
X145513900Y-89039800D02*
X146148900Y-89674800D01*
X144243900Y-89039800D02*
X145513900Y-89039800D01*
X143608900Y-89674800D02*
X144243900Y-89039800D01*
X143608900Y-90944800D02*
X142973900Y-91579800D01*
X143608900Y-89674800D02*
X143608900Y-90944800D01*
X142973900Y-89039800D02*
X143608900Y-89674800D01*
X141703900Y-89039800D02*
X142973900Y-89039800D01*
X150593900Y-91579800D02*
X149323900Y-91579800D01*
X148688900Y-90944800D02*
X149323900Y-91579800D01*
X149323900Y-89039800D02*
X148688900Y-89674800D01*
X146783900Y-91579800D02*
X146148900Y-90944800D01*
X148053900Y-91579800D02*
X146783900Y-91579800D01*
X148688900Y-90944800D02*
X148053900Y-91579800D01*
X148688900Y-89674800D02*
X148688900Y-90944800D01*
X148053900Y-89039800D02*
X148688900Y-89674800D01*
X146783900Y-89039800D02*
X148053900Y-89039800D01*
X146148900Y-89674800D02*
X146783900Y-89039800D01*
X151863900Y-91579800D02*
X151228900Y-90944800D01*
X153133900Y-91579800D02*
X151863900Y-91579800D01*
X153768900Y-90944800D02*
X153133900Y-91579800D01*
X153768900Y-89674800D02*
X153768900Y-90944800D01*
X153133900Y-89039800D02*
X153768900Y-89674800D01*
X151863900Y-89039800D02*
X153133900Y-89039800D01*
X151228900Y-89674800D02*
X151863900Y-89039800D01*
X151228900Y-90944800D02*
X150593900Y-91579800D01*
X151228900Y-89674800D02*
X151228900Y-90944800D01*
X150593900Y-89039800D02*
X151228900Y-89674800D01*
X149323900Y-89039800D02*
X150593900Y-89039800D01*
X154403900Y-91579800D02*
X153768900Y-90944800D01*
X155673900Y-91579800D02*
X154403900Y-91579800D01*
X156308900Y-90944800D02*
X155673900Y-91579800D01*
X156308900Y-89674800D02*
X156308900Y-90944800D01*
X155673900Y-89039800D02*
X156308900Y-89674800D01*
X154403900Y-89039800D02*
X155673900Y-89039800D01*
X153768900Y-89674800D02*
X154403900Y-89039800D01*
G04 #@! TO.C,C10*
X150238300Y-118580000D02*
X150238300Y-118707000D01*
D17*
X150238300Y-118580000D02*
X151000300Y-118580000D01*
X149476300Y-118580000D02*
X150238300Y-118580000D01*
X150238300Y-118072000D02*
X151000300Y-118072000D01*
X150238300Y-118072000D02*
X149476300Y-118072000D01*
D15*
X150238300Y-117945000D02*
X150238300Y-118072000D01*
X151508300Y-120485000D02*
G75*
G02X151254300Y-120739000I-254000J0D01*
G01*
X151254300Y-115913000D02*
G75*
G02X151508300Y-116167000I0J-254000D01*
G01*
X148968300Y-120485000D02*
G75*
G03X149222300Y-120739000I254000J0D01*
G01*
X149222300Y-115913000D02*
G75*
G03X148968300Y-116167000I0J-254000D01*
G01*
X149222300Y-120739000D02*
X151254300Y-120739000D01*
X149222300Y-115913000D02*
X151254300Y-115913000D01*
X151508300Y-116167000D02*
X151508300Y-120485000D01*
X148968300Y-120485000D02*
X148968300Y-116167000D01*
G04 #@! TO.C,C9*
X159356900Y-96990000D02*
X159356900Y-96863000D01*
D17*
X159356900Y-96990000D02*
X158594900Y-96990000D01*
X160118900Y-96990000D02*
X159356900Y-96990000D01*
X159356900Y-97498000D02*
X158594900Y-97498000D01*
X159356900Y-97498000D02*
X160118900Y-97498000D01*
D15*
X159356900Y-97625000D02*
X159356900Y-97498000D01*
X158086900Y-95085000D02*
G75*
G02X158340900Y-94831000I254000J0D01*
G01*
X158340900Y-99657000D02*
G75*
G02X158086900Y-99403000I0J254000D01*
G01*
X160626900Y-95085000D02*
G75*
G03X160372900Y-94831000I-254000J0D01*
G01*
X160372900Y-99657000D02*
G75*
G03X160626900Y-99403000I0J254000D01*
G01*
X160372900Y-94831000D02*
X158340900Y-94831000D01*
X160372900Y-99657000D02*
X158340900Y-99657000D01*
X158086900Y-99403000D02*
X158086900Y-95085000D01*
X160626900Y-95085000D02*
X160626900Y-99403000D01*
G04 #@! TO.C,C11*
X127987900Y-104889400D02*
X128114900Y-104889400D01*
D17*
X127987900Y-104889400D02*
X127987900Y-104127400D01*
X127987900Y-105651400D02*
X127987900Y-104889400D01*
X127479900Y-104889400D02*
X127479900Y-104127400D01*
X127479900Y-104889400D02*
X127479900Y-105651400D01*
D15*
X127352900Y-104889400D02*
X127479900Y-104889400D01*
X129892900Y-103619400D02*
G75*
G02X130146900Y-103873400I0J-254000D01*
G01*
X125320900Y-103873400D02*
G75*
G02X125574900Y-103619400I254000J0D01*
G01*
X129892900Y-106159400D02*
G75*
G03X130146900Y-105905400I0J254000D01*
G01*
X125320900Y-105905400D02*
G75*
G03X125574900Y-106159400I254000J0D01*
G01*
X130146900Y-105905400D02*
X130146900Y-103873400D01*
X125320900Y-105905400D02*
X125320900Y-103873400D01*
X125574900Y-103619400D02*
X129892900Y-103619400D01*
X129892900Y-106159400D02*
X125574900Y-106159400D01*
D16*
G04 #@! TO.C,R14*
G36*
X128749900Y-95440600D02*
X128749900Y-95821600D01*
X129257900Y-95821600D01*
X129257900Y-95440600D01*
X128749900Y-95440600D01*
G37*
G36*
X128749900Y-100901600D02*
X128749900Y-101282600D01*
X129257900Y-101282600D01*
X129257900Y-100901600D01*
X128749900Y-100901600D01*
G37*
D15*
X128241900Y-100901600D02*
X129765900Y-100901600D01*
X127987900Y-100647600D02*
X127987900Y-100266600D01*
X130019900Y-100647600D02*
X130019900Y-100266600D01*
X128114900Y-100139600D02*
X128114900Y-96583600D01*
X128114900Y-100139600D02*
X127987900Y-100266600D01*
X129892900Y-100139600D02*
X129892900Y-96583600D01*
X129892900Y-100139600D02*
X130019900Y-100266600D01*
X128114900Y-96583600D02*
X127987900Y-96456600D01*
X127987900Y-96075600D02*
X127987900Y-96456600D01*
X129892900Y-96583600D02*
X130019900Y-96456600D01*
X130019900Y-96075600D02*
X130019900Y-96456600D01*
X128241900Y-95821600D02*
X129765900Y-95821600D01*
X129765900Y-100901600D02*
G75*
G03X130019900Y-100647600I0J254000D01*
G01*
X128241900Y-100901600D02*
G75*
G02X127987900Y-100647600I0J254000D01*
G01*
X127987900Y-96075600D02*
G75*
G02X128241900Y-95821600I254000J0D01*
G01*
X130019900Y-96075600D02*
G75*
G03X129765900Y-95821600I-254000J0D01*
G01*
D16*
G04 #@! TO.C,R15*
G36*
X126819500Y-101282600D02*
X126819500Y-100901600D01*
X126311500Y-100901600D01*
X126311500Y-101282600D01*
X126819500Y-101282600D01*
G37*
G36*
X126819500Y-95821600D02*
X126819500Y-95440600D01*
X126311500Y-95440600D01*
X126311500Y-95821600D01*
X126819500Y-95821600D01*
G37*
D15*
X127327500Y-95821600D02*
X125803500Y-95821600D01*
X127581500Y-96075600D02*
X127581500Y-96456600D01*
X125549500Y-96075600D02*
X125549500Y-96456600D01*
X127454500Y-96583600D02*
X127454500Y-100139600D01*
X127454500Y-96583600D02*
X127581500Y-96456600D01*
X125676500Y-96583600D02*
X125676500Y-100139600D01*
X125676500Y-96583600D02*
X125549500Y-96456600D01*
X127454500Y-100139600D02*
X127581500Y-100266600D01*
X127581500Y-100647600D02*
X127581500Y-100266600D01*
X125676500Y-100139600D02*
X125549500Y-100266600D01*
X125549500Y-100647600D02*
X125549500Y-100266600D01*
X127327500Y-100901600D02*
X125803500Y-100901600D01*
X125803500Y-95821600D02*
G75*
G03X125549500Y-96075600I0J-254000D01*
G01*
X127327500Y-95821600D02*
G75*
G02X127581500Y-96075600I0J-254000D01*
G01*
X127581500Y-100647600D02*
G75*
G02X127327500Y-100901600I-254000J0D01*
G01*
X125549500Y-100647600D02*
G75*
G03X125803500Y-100901600I254000J0D01*
G01*
D16*
G04 #@! TO.C,R16*
G36*
X161617500Y-90640000D02*
X161998500Y-90640000D01*
X161998500Y-90132000D01*
X161617500Y-90132000D01*
X161617500Y-90640000D01*
G37*
G36*
X167078500Y-90640000D02*
X167459500Y-90640000D01*
X167459500Y-90132000D01*
X167078500Y-90132000D01*
X167078500Y-90640000D01*
G37*
D15*
X167078500Y-91148000D02*
X167078500Y-89624000D01*
X166824500Y-91402000D02*
X166443500Y-91402000D01*
X166824500Y-89370000D02*
X166443500Y-89370000D01*
X166316500Y-91275000D02*
X162760500Y-91275000D01*
X166316500Y-91275000D02*
X166443500Y-91402000D01*
X166316500Y-89497000D02*
X162760500Y-89497000D01*
X166316500Y-89497000D02*
X166443500Y-89370000D01*
X162760500Y-91275000D02*
X162633500Y-91402000D01*
X162252500Y-91402000D02*
X162633500Y-91402000D01*
X162760500Y-89497000D02*
X162633500Y-89370000D01*
X162252500Y-89370000D02*
X162633500Y-89370000D01*
X161998500Y-91148000D02*
X161998500Y-89624000D01*
X167078500Y-89624000D02*
G75*
G03X166824500Y-89370000I-254000J0D01*
G01*
X167078500Y-91148000D02*
G75*
G02X166824500Y-91402000I-254000J0D01*
G01*
X162252500Y-91402000D02*
G75*
G02X161998500Y-91148000I0J254000D01*
G01*
X162252500Y-89370000D02*
G75*
G03X161998500Y-89624000I0J-254000D01*
G01*
G04 #@! TO.C,JP5*
X170228100Y-121856600D02*
X168958100Y-121856600D01*
X168323100Y-121221600D02*
X168958100Y-121856600D01*
X168958100Y-119316600D02*
X168323100Y-119951600D01*
X170863100Y-121221600D02*
X170228100Y-121856600D01*
X170863100Y-119951600D02*
X170863100Y-121221600D01*
X170228100Y-119316600D02*
X170863100Y-119951600D01*
X168958100Y-119316600D02*
X170228100Y-119316600D01*
X157528100Y-121856600D02*
X156258100Y-121856600D01*
X155623100Y-121221600D02*
X156258100Y-121856600D01*
X156258100Y-119316600D02*
X155623100Y-119951600D01*
X155623100Y-119951600D02*
X155623100Y-121221600D01*
X158798100Y-121856600D02*
X158163100Y-121221600D01*
X160068100Y-121856600D02*
X158798100Y-121856600D01*
X160703100Y-121221600D02*
X160068100Y-121856600D01*
X160703100Y-119951600D02*
X160703100Y-121221600D01*
X160068100Y-119316600D02*
X160703100Y-119951600D01*
X158798100Y-119316600D02*
X160068100Y-119316600D01*
X158163100Y-119951600D02*
X158798100Y-119316600D01*
X158163100Y-121221600D02*
X157528100Y-121856600D01*
X158163100Y-119951600D02*
X158163100Y-121221600D01*
X157528100Y-119316600D02*
X158163100Y-119951600D01*
X156258100Y-119316600D02*
X157528100Y-119316600D01*
X165148100Y-121856600D02*
X163878100Y-121856600D01*
X163243100Y-121221600D02*
X163878100Y-121856600D01*
X163878100Y-119316600D02*
X163243100Y-119951600D01*
X161338100Y-121856600D02*
X160703100Y-121221600D01*
X162608100Y-121856600D02*
X161338100Y-121856600D01*
X163243100Y-121221600D02*
X162608100Y-121856600D01*
X163243100Y-119951600D02*
X163243100Y-121221600D01*
X162608100Y-119316600D02*
X163243100Y-119951600D01*
X161338100Y-119316600D02*
X162608100Y-119316600D01*
X160703100Y-119951600D02*
X161338100Y-119316600D01*
X166418100Y-121856600D02*
X165783100Y-121221600D01*
X167688100Y-121856600D02*
X166418100Y-121856600D01*
X168323100Y-121221600D02*
X167688100Y-121856600D01*
X168323100Y-119951600D02*
X168323100Y-121221600D01*
X167688100Y-119316600D02*
X168323100Y-119951600D01*
X166418100Y-119316600D02*
X167688100Y-119316600D01*
X165783100Y-119951600D02*
X166418100Y-119316600D01*
X165783100Y-121221600D02*
X165148100Y-121856600D01*
X165783100Y-119951600D02*
X165783100Y-121221600D01*
X165148100Y-119316600D02*
X165783100Y-119951600D01*
X163878100Y-119316600D02*
X165148100Y-119316600D01*
D16*
G04 #@! TO.C,R1*
G36*
X188236700Y-96558200D02*
X188236700Y-97421800D01*
X188846300Y-97421800D01*
X188846300Y-96558200D01*
X188236700Y-96558200D01*
G37*
G36*
X188236700Y-106057800D02*
X188236700Y-106921400D01*
X188846300Y-106921400D01*
X188846300Y-106057800D01*
X188236700Y-106057800D01*
G37*
D15*
X187271500Y-106057800D02*
X189811500Y-106057800D01*
X187017500Y-105803800D02*
X187017500Y-105168800D01*
X190065500Y-105803800D02*
X190065500Y-105168800D01*
X187144500Y-105041800D02*
X187144500Y-98437800D01*
X187144500Y-105041800D02*
X187017500Y-105168800D01*
X189938500Y-105041800D02*
X189938500Y-98437800D01*
X189938500Y-105041800D02*
X190065500Y-105168800D01*
X187144500Y-98437800D02*
X187017500Y-98310800D01*
X187017500Y-97675800D02*
X187017500Y-98310800D01*
X189938500Y-98437800D02*
X190065500Y-98310800D01*
X190065500Y-97675800D02*
X190065500Y-98310800D01*
X187271500Y-97421800D02*
X189811500Y-97421800D01*
X189811500Y-106057800D02*
G75*
G03X190065500Y-105803800I0J254000D01*
G01*
X187271500Y-106057800D02*
G75*
G02X187017500Y-105803800I0J254000D01*
G01*
X187017500Y-97675800D02*
G75*
G02X187271500Y-97421800I254000J0D01*
G01*
X190065500Y-97675800D02*
G75*
G03X189811500Y-97421800I-254000J0D01*
G01*
D19*
G04 #@! TO.C,JP1*
X96600000Y-96380000D02*
G75*
G03X96600000Y-96380000I-1760000J0D01*
G01*
X86130000Y-96380000D02*
X86130000Y-102515000D01*
X86130000Y-102515000D02*
X101150000Y-102515000D01*
X101150000Y-102515000D02*
X101150000Y-101340000D01*
X86130000Y-96380000D02*
X86130000Y-90245000D01*
X86130000Y-90245000D02*
X101150000Y-90245000D01*
X101150000Y-90245000D02*
X101150000Y-91420000D01*
X101150000Y-97120000D02*
X101150000Y-95640000D01*
X104250000Y-99530000D02*
X105530000Y-99530000D01*
X104250000Y-98930000D02*
X105530000Y-98930000D01*
X104250000Y-93830000D02*
X105530000Y-93830000D01*
X104250000Y-93230000D02*
X105530000Y-93230000D01*
X102140000Y-101730000D02*
X102440000Y-102330000D01*
X102440000Y-102330000D02*
X101840000Y-102330000D01*
X101840000Y-102330000D02*
X102140000Y-101730000D01*
G04 #@! TO.C,JP2*
X96600000Y-117970000D02*
G75*
G03X96600000Y-117970000I-1760000J0D01*
G01*
X96600000Y-106570000D02*
G75*
G03X96600000Y-106570000I-1760000J0D01*
G01*
X86130000Y-112270000D02*
X86130000Y-121255000D01*
X86130000Y-121255000D02*
X101150000Y-121255000D01*
X101150000Y-121255000D02*
X101150000Y-120080000D01*
X86130000Y-112270000D02*
X86130000Y-103285000D01*
X86130000Y-103285000D02*
X101150000Y-103285000D01*
X101150000Y-103285000D02*
X101150000Y-104460000D01*
X101150000Y-115860000D02*
X101150000Y-114380000D01*
X101150000Y-110160000D02*
X101150000Y-108680000D01*
X104250000Y-118270000D02*
X105530000Y-118270000D01*
X104250000Y-117670000D02*
X105530000Y-117670000D01*
X104250000Y-112570000D02*
X105530000Y-112570000D01*
X104250000Y-111970000D02*
X105530000Y-111970000D01*
X104250000Y-106870000D02*
X105530000Y-106870000D01*
X104250000Y-106270000D02*
X105530000Y-106270000D01*
X102140000Y-120470000D02*
X102440000Y-121070000D01*
X102440000Y-121070000D02*
X101840000Y-121070000D01*
X101840000Y-121070000D02*
X102140000Y-120470000D01*
G04 #@! TO.C,@HOLE0*
D20*
G04 #@! TO.C,@HOLE1*
G04 #@! TO.C,@HOLE2*
G04 #@! TO.C,@HOLE3*
G04 #@! TO.C,IC2*
D21*
X131594038Y-108297452D02*
X130628838Y-108297452D01*
X131502114Y-107286290D02*
X131548076Y-107332252D01*
X131594038Y-107470138D01*
X131594038Y-107562062D01*
X131548076Y-107699947D01*
X131456152Y-107791871D01*
X131364228Y-107837833D01*
X131180380Y-107883795D01*
X131042495Y-107883795D01*
X130858647Y-107837833D01*
X130766723Y-107791871D01*
X130674800Y-107699947D01*
X130628838Y-107562062D01*
X130628838Y-107470138D01*
X130674800Y-107332252D01*
X130720761Y-107286290D01*
X130720761Y-106918595D02*
X130674800Y-106872633D01*
X130628838Y-106780709D01*
X130628838Y-106550900D01*
X130674800Y-106458976D01*
X130720761Y-106413014D01*
X130812685Y-106367052D01*
X130904609Y-106367052D01*
X131042495Y-106413014D01*
X131594038Y-106964557D01*
X131594038Y-106367052D01*
G04 #@! TO.C,R13*
X126409238Y-116185061D02*
X125949619Y-116506795D01*
X126409238Y-116736604D02*
X125444038Y-116736604D01*
X125444038Y-116368909D01*
X125490000Y-116276985D01*
X125535961Y-116231023D01*
X125627885Y-116185061D01*
X125765771Y-116185061D01*
X125857695Y-116231023D01*
X125903657Y-116276985D01*
X125949619Y-116368909D01*
X125949619Y-116736604D01*
X126409238Y-115265823D02*
X126409238Y-115817366D01*
X126409238Y-115541595D02*
X125444038Y-115541595D01*
X125581923Y-115633518D01*
X125673847Y-115725442D01*
X125719809Y-115817366D01*
X125444038Y-114944090D02*
X125444038Y-114346585D01*
X125811733Y-114668318D01*
X125811733Y-114530433D01*
X125857695Y-114438509D01*
X125903657Y-114392547D01*
X125995580Y-114346585D01*
X126225390Y-114346585D01*
X126317314Y-114392547D01*
X126363276Y-114438509D01*
X126409238Y-114530433D01*
X126409238Y-114806204D01*
X126363276Y-114898128D01*
X126317314Y-114944090D01*
G04 #@! TO.C,R4*
X138704038Y-98005909D02*
X138244419Y-98327642D01*
X138704038Y-98557452D02*
X137738838Y-98557452D01*
X137738838Y-98189757D01*
X137784800Y-98097833D01*
X137830761Y-98051871D01*
X137922685Y-98005909D01*
X138060571Y-98005909D01*
X138152495Y-98051871D01*
X138198457Y-98097833D01*
X138244419Y-98189757D01*
X138244419Y-98557452D01*
X138060571Y-97178595D02*
X138704038Y-97178595D01*
X137692876Y-97408404D02*
X138382304Y-97638214D01*
X138382304Y-97040709D01*
G04 #@! TO.C,R12*
X153439238Y-118015061D02*
X152979619Y-118336795D01*
X153439238Y-118566604D02*
X152474038Y-118566604D01*
X152474038Y-118198909D01*
X152520000Y-118106985D01*
X152565961Y-118061023D01*
X152657885Y-118015061D01*
X152795771Y-118015061D01*
X152887695Y-118061023D01*
X152933657Y-118106985D01*
X152979619Y-118198909D01*
X152979619Y-118566604D01*
X153439238Y-117095823D02*
X153439238Y-117647366D01*
X153439238Y-117371595D02*
X152474038Y-117371595D01*
X152611923Y-117463518D01*
X152703847Y-117555442D01*
X152749809Y-117647366D01*
X152565961Y-116728128D02*
X152520000Y-116682166D01*
X152474038Y-116590242D01*
X152474038Y-116360433D01*
X152520000Y-116268509D01*
X152565961Y-116222547D01*
X152657885Y-116176585D01*
X152749809Y-116176585D01*
X152887695Y-116222547D01*
X153439238Y-116774090D01*
X153439238Y-116176585D01*
G04 #@! TO.C,R10*
X156534038Y-97385909D02*
X156074419Y-97707642D01*
X156534038Y-97937452D02*
X155568838Y-97937452D01*
X155568838Y-97569757D01*
X155614800Y-97477833D01*
X155660761Y-97431871D01*
X155752685Y-97385909D01*
X155890571Y-97385909D01*
X155982495Y-97431871D01*
X156028457Y-97477833D01*
X156074419Y-97569757D01*
X156074419Y-97937452D01*
X156534038Y-96466671D02*
X156534038Y-97018214D01*
X156534038Y-96742442D02*
X155568838Y-96742442D01*
X155706723Y-96834366D01*
X155798647Y-96926290D01*
X155844609Y-97018214D01*
X155568838Y-95869166D02*
X155568838Y-95777242D01*
X155614800Y-95685319D01*
X155660761Y-95639357D01*
X155752685Y-95593395D01*
X155936533Y-95547433D01*
X156166342Y-95547433D01*
X156350190Y-95593395D01*
X156442114Y-95639357D01*
X156488076Y-95685319D01*
X156534038Y-95777242D01*
X156534038Y-95869166D01*
X156488076Y-95961090D01*
X156442114Y-96007052D01*
X156350190Y-96053014D01*
X156166342Y-96098976D01*
X155936533Y-96098976D01*
X155752685Y-96053014D01*
X155660761Y-96007052D01*
X155614800Y-95961090D01*
X155568838Y-95869166D01*
G04 #@! TO.C,C6*
X140754176Y-101157314D02*
X140708214Y-101203276D01*
X140570328Y-101249238D01*
X140478404Y-101249238D01*
X140340519Y-101203276D01*
X140248595Y-101111352D01*
X140202633Y-101019428D01*
X140156671Y-100835580D01*
X140156671Y-100697695D01*
X140202633Y-100513847D01*
X140248595Y-100421923D01*
X140340519Y-100330000D01*
X140478404Y-100284038D01*
X140570328Y-100284038D01*
X140708214Y-100330000D01*
X140754176Y-100375961D01*
X141581490Y-100284038D02*
X141397642Y-100284038D01*
X141305719Y-100330000D01*
X141259757Y-100375961D01*
X141167833Y-100513847D01*
X141121871Y-100697695D01*
X141121871Y-101065390D01*
X141167833Y-101157314D01*
X141213795Y-101203276D01*
X141305719Y-101249238D01*
X141489566Y-101249238D01*
X141581490Y-101203276D01*
X141627452Y-101157314D01*
X141673414Y-101065390D01*
X141673414Y-100835580D01*
X141627452Y-100743657D01*
X141581490Y-100697695D01*
X141489566Y-100651733D01*
X141305719Y-100651733D01*
X141213795Y-100697695D01*
X141167833Y-100743657D01*
X141121871Y-100835580D01*
G04 #@! TO.C,C8*
X150440176Y-98123314D02*
X150394214Y-98169276D01*
X150256328Y-98215238D01*
X150164404Y-98215238D01*
X150026519Y-98169276D01*
X149934595Y-98077352D01*
X149888633Y-97985428D01*
X149842671Y-97801580D01*
X149842671Y-97663695D01*
X149888633Y-97479847D01*
X149934595Y-97387923D01*
X150026519Y-97296000D01*
X150164404Y-97250038D01*
X150256328Y-97250038D01*
X150394214Y-97296000D01*
X150440176Y-97341961D01*
X150991719Y-97663695D02*
X150899795Y-97617733D01*
X150853833Y-97571771D01*
X150807871Y-97479847D01*
X150807871Y-97433885D01*
X150853833Y-97341961D01*
X150899795Y-97296000D01*
X150991719Y-97250038D01*
X151175566Y-97250038D01*
X151267490Y-97296000D01*
X151313452Y-97341961D01*
X151359414Y-97433885D01*
X151359414Y-97479847D01*
X151313452Y-97571771D01*
X151267490Y-97617733D01*
X151175566Y-97663695D01*
X150991719Y-97663695D01*
X150899795Y-97709657D01*
X150853833Y-97755619D01*
X150807871Y-97847542D01*
X150807871Y-98031390D01*
X150853833Y-98123314D01*
X150899795Y-98169276D01*
X150991719Y-98215238D01*
X151175566Y-98215238D01*
X151267490Y-98169276D01*
X151313452Y-98123314D01*
X151359414Y-98031390D01*
X151359414Y-97847542D01*
X151313452Y-97755619D01*
X151267490Y-97709657D01*
X151175566Y-97663695D01*
G04 #@! TO.C,C5*
X133014176Y-95877314D02*
X132968214Y-95923276D01*
X132830328Y-95969238D01*
X132738404Y-95969238D01*
X132600519Y-95923276D01*
X132508595Y-95831352D01*
X132462633Y-95739428D01*
X132416671Y-95555580D01*
X132416671Y-95417695D01*
X132462633Y-95233847D01*
X132508595Y-95141923D01*
X132600519Y-95050000D01*
X132738404Y-95004038D01*
X132830328Y-95004038D01*
X132968214Y-95050000D01*
X133014176Y-95095961D01*
X133887452Y-95004038D02*
X133427833Y-95004038D01*
X133381871Y-95463657D01*
X133427833Y-95417695D01*
X133519757Y-95371733D01*
X133749566Y-95371733D01*
X133841490Y-95417695D01*
X133887452Y-95463657D01*
X133933414Y-95555580D01*
X133933414Y-95785390D01*
X133887452Y-95877314D01*
X133841490Y-95923276D01*
X133749566Y-95969238D01*
X133519757Y-95969238D01*
X133427833Y-95923276D01*
X133381871Y-95877314D01*
G04 #@! TO.C,D2*
X178924733Y-92422838D02*
X178924733Y-91457638D01*
X179154542Y-91457638D01*
X179292428Y-91503600D01*
X179384352Y-91595523D01*
X179430314Y-91687447D01*
X179476276Y-91871295D01*
X179476276Y-92009180D01*
X179430314Y-92193028D01*
X179384352Y-92284952D01*
X179292428Y-92376876D01*
X179154542Y-92422838D01*
X178924733Y-92422838D01*
X179843971Y-91549561D02*
X179889933Y-91503600D01*
X179981857Y-91457638D01*
X180211666Y-91457638D01*
X180303590Y-91503600D01*
X180349552Y-91549561D01*
X180395514Y-91641485D01*
X180395514Y-91733409D01*
X180349552Y-91871295D01*
X179798009Y-92422838D01*
X180395514Y-92422838D01*
G04 #@! TO.C,D3*
X177492633Y-93689238D02*
X177492633Y-92724038D01*
X177722442Y-92724038D01*
X177860328Y-92770000D01*
X177952252Y-92861923D01*
X177998214Y-92953847D01*
X178044176Y-93137695D01*
X178044176Y-93275580D01*
X177998214Y-93459428D01*
X177952252Y-93551352D01*
X177860328Y-93643276D01*
X177722442Y-93689238D01*
X177492633Y-93689238D01*
X178365909Y-92724038D02*
X178963414Y-92724038D01*
X178641681Y-93091733D01*
X178779566Y-93091733D01*
X178871490Y-93137695D01*
X178917452Y-93183657D01*
X178963414Y-93275580D01*
X178963414Y-93505390D01*
X178917452Y-93597314D01*
X178871490Y-93643276D01*
X178779566Y-93689238D01*
X178503795Y-93689238D01*
X178411871Y-93643276D01*
X178365909Y-93597314D01*
G04 #@! TO.C,R8*
X145299238Y-97505823D02*
X144839619Y-97827557D01*
X145299238Y-98057366D02*
X144334038Y-98057366D01*
X144334038Y-97689671D01*
X144380000Y-97597747D01*
X144425961Y-97551785D01*
X144517885Y-97505823D01*
X144655771Y-97505823D01*
X144747695Y-97551785D01*
X144793657Y-97597747D01*
X144839619Y-97689671D01*
X144839619Y-98057366D01*
X144747695Y-96954280D02*
X144701733Y-97046204D01*
X144655771Y-97092166D01*
X144563847Y-97138128D01*
X144517885Y-97138128D01*
X144425961Y-97092166D01*
X144380000Y-97046204D01*
X144334038Y-96954280D01*
X144334038Y-96770433D01*
X144380000Y-96678509D01*
X144425961Y-96632547D01*
X144517885Y-96586585D01*
X144563847Y-96586585D01*
X144655771Y-96632547D01*
X144701733Y-96678509D01*
X144747695Y-96770433D01*
X144747695Y-96954280D01*
X144793657Y-97046204D01*
X144839619Y-97092166D01*
X144931542Y-97138128D01*
X145115390Y-97138128D01*
X145207314Y-97092166D01*
X145253276Y-97046204D01*
X145299238Y-96954280D01*
X145299238Y-96770433D01*
X145253276Y-96678509D01*
X145207314Y-96632547D01*
X145115390Y-96586585D01*
X144931542Y-96586585D01*
X144839619Y-96632547D01*
X144793657Y-96678509D01*
X144747695Y-96770433D01*
G04 #@! TO.C,R2*
X129309238Y-118255823D02*
X128849619Y-118577557D01*
X129309238Y-118807366D02*
X128344038Y-118807366D01*
X128344038Y-118439671D01*
X128390000Y-118347747D01*
X128435961Y-118301785D01*
X128527885Y-118255823D01*
X128665771Y-118255823D01*
X128757695Y-118301785D01*
X128803657Y-118347747D01*
X128849619Y-118439671D01*
X128849619Y-118807366D01*
X128435961Y-117888128D02*
X128390000Y-117842166D01*
X128344038Y-117750242D01*
X128344038Y-117520433D01*
X128390000Y-117428509D01*
X128435961Y-117382547D01*
X128527885Y-117336585D01*
X128619809Y-117336585D01*
X128757695Y-117382547D01*
X129309238Y-117934090D01*
X129309238Y-117336585D01*
G04 #@! TO.C,R6*
X134099238Y-118375823D02*
X133639619Y-118697557D01*
X134099238Y-118927366D02*
X133134038Y-118927366D01*
X133134038Y-118559671D01*
X133180000Y-118467747D01*
X133225961Y-118421785D01*
X133317885Y-118375823D01*
X133455771Y-118375823D01*
X133547695Y-118421785D01*
X133593657Y-118467747D01*
X133639619Y-118559671D01*
X133639619Y-118927366D01*
X133134038Y-117548509D02*
X133134038Y-117732357D01*
X133180000Y-117824280D01*
X133225961Y-117870242D01*
X133363847Y-117962166D01*
X133547695Y-118008128D01*
X133915390Y-118008128D01*
X134007314Y-117962166D01*
X134053276Y-117916204D01*
X134099238Y-117824280D01*
X134099238Y-117640433D01*
X134053276Y-117548509D01*
X134007314Y-117502547D01*
X133915390Y-117456585D01*
X133685580Y-117456585D01*
X133593657Y-117502547D01*
X133547695Y-117548509D01*
X133501733Y-117640433D01*
X133501733Y-117824280D01*
X133547695Y-117916204D01*
X133593657Y-117962166D01*
X133685580Y-118008128D01*
G04 #@! TO.C,R7*
X148409238Y-96045823D02*
X147949619Y-96367557D01*
X148409238Y-96597366D02*
X147444038Y-96597366D01*
X147444038Y-96229671D01*
X147490000Y-96137747D01*
X147535961Y-96091785D01*
X147627885Y-96045823D01*
X147765771Y-96045823D01*
X147857695Y-96091785D01*
X147903657Y-96137747D01*
X147949619Y-96229671D01*
X147949619Y-96597366D01*
X147444038Y-95724090D02*
X147444038Y-95080623D01*
X148409238Y-95494280D01*
G04 #@! TO.C,IC3*
X114784738Y-103276052D02*
X113819538Y-103276052D01*
X114692814Y-102264890D02*
X114738776Y-102310852D01*
X114784738Y-102448738D01*
X114784738Y-102540662D01*
X114738776Y-102678547D01*
X114646852Y-102770471D01*
X114554928Y-102816433D01*
X114371080Y-102862395D01*
X114233195Y-102862395D01*
X114049347Y-102816433D01*
X113957423Y-102770471D01*
X113865500Y-102678547D01*
X113819538Y-102540662D01*
X113819538Y-102448738D01*
X113865500Y-102310852D01*
X113911461Y-102264890D01*
X113819538Y-101943157D02*
X113819538Y-101345652D01*
X114187233Y-101667385D01*
X114187233Y-101529500D01*
X114233195Y-101437576D01*
X114279157Y-101391614D01*
X114371080Y-101345652D01*
X114600890Y-101345652D01*
X114692814Y-101391614D01*
X114738776Y-101437576D01*
X114784738Y-101529500D01*
X114784738Y-101805271D01*
X114738776Y-101897195D01*
X114692814Y-101943157D01*
D14*
X114445587Y-100579866D02*
X114905206Y-100579866D01*
X114353663Y-100855638D02*
X114675397Y-99890438D01*
X114997130Y-100855638D01*
X115824444Y-100855638D02*
X115272901Y-100855638D01*
X115548673Y-100855638D02*
X115548673Y-99890438D01*
X115456749Y-100028323D01*
X115364825Y-100120247D01*
X115272901Y-100166209D01*
X116146178Y-99890438D02*
X116789644Y-99890438D01*
X116375987Y-100855638D01*
X117203301Y-100809676D02*
X117203301Y-100855638D01*
X117157340Y-100947561D01*
X117111378Y-100993523D01*
X118076578Y-99890438D02*
X117616959Y-99890438D01*
X117570997Y-100350057D01*
X117616959Y-100304095D01*
X117708882Y-100258133D01*
X117938692Y-100258133D01*
X118030616Y-100304095D01*
X118076578Y-100350057D01*
X118122540Y-100441980D01*
X118122540Y-100671790D01*
X118076578Y-100763714D01*
X118030616Y-100809676D01*
X117938692Y-100855638D01*
X117708882Y-100855638D01*
X117616959Y-100809676D01*
X117570997Y-100763714D01*
X118536197Y-100855638D02*
X118536197Y-100212171D01*
X118536197Y-100304095D02*
X118582159Y-100258133D01*
X118674082Y-100212171D01*
X118811968Y-100212171D01*
X118903892Y-100258133D01*
X118949854Y-100350057D01*
X118949854Y-100855638D01*
X118949854Y-100350057D02*
X118995816Y-100258133D01*
X119087740Y-100212171D01*
X119225625Y-100212171D01*
X119317549Y-100258133D01*
X119363511Y-100350057D01*
X119363511Y-100855638D01*
X119823130Y-100855638D02*
X119823130Y-100212171D01*
X119823130Y-100304095D02*
X119869092Y-100258133D01*
X119961016Y-100212171D01*
X120098901Y-100212171D01*
X120190825Y-100258133D01*
X120236787Y-100350057D01*
X120236787Y-100855638D01*
X120236787Y-100350057D02*
X120282749Y-100258133D01*
X120374673Y-100212171D01*
X120512559Y-100212171D01*
X120604482Y-100258133D01*
X120650444Y-100350057D01*
X120650444Y-100855638D01*
G04 #@! TO.C,R5*
D21*
X138104038Y-119125909D02*
X137644419Y-119447642D01*
X138104038Y-119677452D02*
X137138838Y-119677452D01*
X137138838Y-119309757D01*
X137184800Y-119217833D01*
X137230761Y-119171871D01*
X137322685Y-119125909D01*
X137460571Y-119125909D01*
X137552495Y-119171871D01*
X137598457Y-119217833D01*
X137644419Y-119309757D01*
X137644419Y-119677452D01*
X137138838Y-118252633D02*
X137138838Y-118712252D01*
X137598457Y-118758214D01*
X137552495Y-118712252D01*
X137506533Y-118620328D01*
X137506533Y-118390519D01*
X137552495Y-118298595D01*
X137598457Y-118252633D01*
X137690380Y-118206671D01*
X137920190Y-118206671D01*
X138012114Y-118252633D01*
X138058076Y-118298595D01*
X138104038Y-118390519D01*
X138104038Y-118620328D01*
X138058076Y-118712252D01*
X138012114Y-118758214D01*
G04 #@! TO.C,R9*
X140869238Y-119625823D02*
X140409619Y-119947557D01*
X140869238Y-120177366D02*
X139904038Y-120177366D01*
X139904038Y-119809671D01*
X139950000Y-119717747D01*
X139995961Y-119671785D01*
X140087885Y-119625823D01*
X140225771Y-119625823D01*
X140317695Y-119671785D01*
X140363657Y-119717747D01*
X140409619Y-119809671D01*
X140409619Y-120177366D01*
X140869238Y-119166204D02*
X140869238Y-118982357D01*
X140823276Y-118890433D01*
X140777314Y-118844471D01*
X140639428Y-118752547D01*
X140455580Y-118706585D01*
X140087885Y-118706585D01*
X139995961Y-118752547D01*
X139950000Y-118798509D01*
X139904038Y-118890433D01*
X139904038Y-119074280D01*
X139950000Y-119166204D01*
X139995961Y-119212166D01*
X140087885Y-119258128D01*
X140317695Y-119258128D01*
X140409619Y-119212166D01*
X140455580Y-119166204D01*
X140501542Y-119074280D01*
X140501542Y-118890433D01*
X140455580Y-118798509D01*
X140409619Y-118752547D01*
X140317695Y-118706585D01*
G04 #@! TO.C,C7*
X143754090Y-122122114D02*
X143708128Y-122168076D01*
X143570242Y-122214038D01*
X143478318Y-122214038D01*
X143340433Y-122168076D01*
X143248509Y-122076152D01*
X143202547Y-121984228D01*
X143156585Y-121800380D01*
X143156585Y-121662495D01*
X143202547Y-121478647D01*
X143248509Y-121386723D01*
X143340433Y-121294800D01*
X143478318Y-121248838D01*
X143570242Y-121248838D01*
X143708128Y-121294800D01*
X143754090Y-121340761D01*
X144075823Y-121248838D02*
X144719290Y-121248838D01*
X144305633Y-122214038D01*
G04 #@! TO.C,C2*
X183870476Y-105005514D02*
X183824514Y-105051476D01*
X183686628Y-105097438D01*
X183594704Y-105097438D01*
X183456819Y-105051476D01*
X183364895Y-104959552D01*
X183318933Y-104867628D01*
X183272971Y-104683780D01*
X183272971Y-104545895D01*
X183318933Y-104362047D01*
X183364895Y-104270123D01*
X183456819Y-104178200D01*
X183594704Y-104132238D01*
X183686628Y-104132238D01*
X183824514Y-104178200D01*
X183870476Y-104224161D01*
X184238171Y-104224161D02*
X184284133Y-104178200D01*
X184376057Y-104132238D01*
X184605866Y-104132238D01*
X184697790Y-104178200D01*
X184743752Y-104224161D01*
X184789714Y-104316085D01*
X184789714Y-104408009D01*
X184743752Y-104545895D01*
X184192209Y-105097438D01*
X184789714Y-105097438D01*
G04 #@! TO.C,C4*
X185074090Y-114562114D02*
X185028128Y-114608076D01*
X184890242Y-114654038D01*
X184798318Y-114654038D01*
X184660433Y-114608076D01*
X184568509Y-114516152D01*
X184522547Y-114424228D01*
X184476585Y-114240380D01*
X184476585Y-114102495D01*
X184522547Y-113918647D01*
X184568509Y-113826723D01*
X184660433Y-113734800D01*
X184798318Y-113688838D01*
X184890242Y-113688838D01*
X185028128Y-113734800D01*
X185074090Y-113780761D01*
X185901404Y-114010571D02*
X185901404Y-114654038D01*
X185671595Y-113642876D02*
X185441785Y-114332304D01*
X186039290Y-114332304D01*
G04 #@! TO.C,D1*
X182499238Y-111817366D02*
X181534038Y-111817366D01*
X181534038Y-111587557D01*
X181580000Y-111449671D01*
X181671923Y-111357747D01*
X181763847Y-111311785D01*
X181947695Y-111265823D01*
X182085580Y-111265823D01*
X182269428Y-111311785D01*
X182361352Y-111357747D01*
X182453276Y-111449671D01*
X182499238Y-111587557D01*
X182499238Y-111817366D01*
X182499238Y-110346585D02*
X182499238Y-110898128D01*
X182499238Y-110622357D02*
X181534038Y-110622357D01*
X181671923Y-110714280D01*
X181763847Y-110806204D01*
X181809809Y-110898128D01*
G04 #@! TO.C,C1*
X181664090Y-95692114D02*
X181618128Y-95738076D01*
X181480242Y-95784038D01*
X181388318Y-95784038D01*
X181250433Y-95738076D01*
X181158509Y-95646152D01*
X181112547Y-95554228D01*
X181066585Y-95370380D01*
X181066585Y-95232495D01*
X181112547Y-95048647D01*
X181158509Y-94956723D01*
X181250433Y-94864800D01*
X181388318Y-94818838D01*
X181480242Y-94818838D01*
X181618128Y-94864800D01*
X181664090Y-94910761D01*
X182583328Y-95784038D02*
X182031785Y-95784038D01*
X182307557Y-95784038D02*
X182307557Y-94818838D01*
X182215633Y-94956723D01*
X182123709Y-95048647D01*
X182031785Y-95094609D01*
G04 #@! TO.C,C3*
X186124090Y-109702114D02*
X186078128Y-109748076D01*
X185940242Y-109794038D01*
X185848318Y-109794038D01*
X185710433Y-109748076D01*
X185618509Y-109656152D01*
X185572547Y-109564228D01*
X185526585Y-109380380D01*
X185526585Y-109242495D01*
X185572547Y-109058647D01*
X185618509Y-108966723D01*
X185710433Y-108874800D01*
X185848318Y-108828838D01*
X185940242Y-108828838D01*
X186078128Y-108874800D01*
X186124090Y-108920761D01*
X186445823Y-108828838D02*
X187043328Y-108828838D01*
X186721595Y-109196533D01*
X186859480Y-109196533D01*
X186951404Y-109242495D01*
X186997366Y-109288457D01*
X187043328Y-109380380D01*
X187043328Y-109610190D01*
X186997366Y-109702114D01*
X186951404Y-109748076D01*
X186859480Y-109794038D01*
X186583709Y-109794038D01*
X186491785Y-109748076D01*
X186445823Y-109702114D01*
G04 #@! TO.C,R3*
X131809238Y-118285823D02*
X131349619Y-118607557D01*
X131809238Y-118837366D02*
X130844038Y-118837366D01*
X130844038Y-118469671D01*
X130890000Y-118377747D01*
X130935961Y-118331785D01*
X131027885Y-118285823D01*
X131165771Y-118285823D01*
X131257695Y-118331785D01*
X131303657Y-118377747D01*
X131349619Y-118469671D01*
X131349619Y-118837366D01*
X130844038Y-117964090D02*
X130844038Y-117366585D01*
X131211733Y-117688318D01*
X131211733Y-117550433D01*
X131257695Y-117458509D01*
X131303657Y-117412547D01*
X131395580Y-117366585D01*
X131625390Y-117366585D01*
X131717314Y-117412547D01*
X131763276Y-117458509D01*
X131809238Y-117550433D01*
X131809238Y-117826204D01*
X131763276Y-117918128D01*
X131717314Y-117964090D01*
G04 #@! TO.C,JP3*
X172264938Y-120934785D02*
X172954366Y-120934785D01*
X173092252Y-120980747D01*
X173184176Y-121072671D01*
X173230138Y-121210557D01*
X173230138Y-121302480D01*
X173230138Y-120475166D02*
X172264938Y-120475166D01*
X172264938Y-120107471D01*
X172310900Y-120015547D01*
X172356861Y-119969585D01*
X172448785Y-119923623D01*
X172586671Y-119923623D01*
X172678595Y-119969585D01*
X172724557Y-120015547D01*
X172770519Y-120107471D01*
X172770519Y-120475166D01*
X172264938Y-119601890D02*
X172264938Y-119004385D01*
X172632633Y-119326118D01*
X172632633Y-119188233D01*
X172678595Y-119096309D01*
X172724557Y-119050347D01*
X172816480Y-119004385D01*
X173046290Y-119004385D01*
X173138214Y-119050347D01*
X173184176Y-119096309D01*
X173230138Y-119188233D01*
X173230138Y-119464004D01*
X173184176Y-119555928D01*
X173138214Y-119601890D01*
G04 #@! TO.C,R11*
X163004038Y-97785909D02*
X162544419Y-98107642D01*
X163004038Y-98337452D02*
X162038838Y-98337452D01*
X162038838Y-97969757D01*
X162084800Y-97877833D01*
X162130761Y-97831871D01*
X162222685Y-97785909D01*
X162360571Y-97785909D01*
X162452495Y-97831871D01*
X162498457Y-97877833D01*
X162544419Y-97969757D01*
X162544419Y-98337452D01*
X163004038Y-96866671D02*
X163004038Y-97418214D01*
X163004038Y-97142442D02*
X162038838Y-97142442D01*
X162176723Y-97234366D01*
X162268647Y-97326290D01*
X162314609Y-97418214D01*
X163004038Y-95947433D02*
X163004038Y-96498976D01*
X163004038Y-96223204D02*
X162038838Y-96223204D01*
X162176723Y-96315128D01*
X162268647Y-96407052D01*
X162314609Y-96498976D01*
G04 #@! TO.C,JP4*
X117121538Y-87912681D02*
X117810966Y-87912681D01*
X117948852Y-87958642D01*
X118040776Y-88050566D01*
X118086738Y-88188452D01*
X118086738Y-88280376D01*
X118086738Y-87453062D02*
X117121538Y-87453062D01*
X117121538Y-87085366D01*
X117167500Y-86993442D01*
X117213461Y-86947481D01*
X117305385Y-86901519D01*
X117443271Y-86901519D01*
X117535195Y-86947481D01*
X117581157Y-86993442D01*
X117627119Y-87085366D01*
X117627119Y-87453062D01*
X117443271Y-86074204D02*
X118086738Y-86074204D01*
X117075576Y-86304014D02*
X117765004Y-86533823D01*
X117765004Y-85936319D01*
G04 #@! TO.C,C10*
X149184938Y-121897314D02*
X149138976Y-121943276D01*
X149001090Y-121989238D01*
X148909166Y-121989238D01*
X148771281Y-121943276D01*
X148679357Y-121851352D01*
X148633395Y-121759428D01*
X148587433Y-121575580D01*
X148587433Y-121437695D01*
X148633395Y-121253847D01*
X148679357Y-121161923D01*
X148771281Y-121070000D01*
X148909166Y-121024038D01*
X149001090Y-121024038D01*
X149138976Y-121070000D01*
X149184938Y-121115961D01*
X150104176Y-121989238D02*
X149552633Y-121989238D01*
X149828404Y-121989238D02*
X149828404Y-121024038D01*
X149736481Y-121161923D01*
X149644557Y-121253847D01*
X149552633Y-121299809D01*
X150701681Y-121024038D02*
X150793604Y-121024038D01*
X150885528Y-121070000D01*
X150931490Y-121115961D01*
X150977452Y-121207885D01*
X151023414Y-121391733D01*
X151023414Y-121621542D01*
X150977452Y-121805390D01*
X150931490Y-121897314D01*
X150885528Y-121943276D01*
X150793604Y-121989238D01*
X150701681Y-121989238D01*
X150609757Y-121943276D01*
X150563795Y-121897314D01*
X150517833Y-121805390D01*
X150471871Y-121621542D01*
X150471871Y-121391733D01*
X150517833Y-121207885D01*
X150563795Y-121115961D01*
X150609757Y-121070000D01*
X150701681Y-121024038D01*
G04 #@! TO.C,C9*
X159174090Y-94462114D02*
X159128128Y-94508076D01*
X158990242Y-94554038D01*
X158898318Y-94554038D01*
X158760433Y-94508076D01*
X158668509Y-94416152D01*
X158622547Y-94324228D01*
X158576585Y-94140380D01*
X158576585Y-94002495D01*
X158622547Y-93818647D01*
X158668509Y-93726723D01*
X158760433Y-93634800D01*
X158898318Y-93588838D01*
X158990242Y-93588838D01*
X159128128Y-93634800D01*
X159174090Y-93680761D01*
X159633709Y-94554038D02*
X159817557Y-94554038D01*
X159909480Y-94508076D01*
X159955442Y-94462114D01*
X160047366Y-94324228D01*
X160093328Y-94140380D01*
X160093328Y-93772685D01*
X160047366Y-93680761D01*
X160001404Y-93634800D01*
X159909480Y-93588838D01*
X159725633Y-93588838D01*
X159633709Y-93634800D01*
X159587747Y-93680761D01*
X159541785Y-93772685D01*
X159541785Y-94002495D01*
X159587747Y-94094419D01*
X159633709Y-94140380D01*
X159725633Y-94186342D01*
X159909480Y-94186342D01*
X160001404Y-94140380D01*
X160047366Y-94094419D01*
X160093328Y-94002495D01*
G04 #@! TO.C,C11*
X126904938Y-107477314D02*
X126858976Y-107523276D01*
X126721090Y-107569238D01*
X126629166Y-107569238D01*
X126491281Y-107523276D01*
X126399357Y-107431352D01*
X126353395Y-107339428D01*
X126307433Y-107155580D01*
X126307433Y-107017695D01*
X126353395Y-106833847D01*
X126399357Y-106741923D01*
X126491281Y-106650000D01*
X126629166Y-106604038D01*
X126721090Y-106604038D01*
X126858976Y-106650000D01*
X126904938Y-106695961D01*
X127824176Y-107569238D02*
X127272633Y-107569238D01*
X127548404Y-107569238D02*
X127548404Y-106604038D01*
X127456481Y-106741923D01*
X127364557Y-106833847D01*
X127272633Y-106879809D01*
X128743414Y-107569238D02*
X128191871Y-107569238D01*
X128467642Y-107569238D02*
X128467642Y-106604038D01*
X128375719Y-106741923D01*
X128283795Y-106833847D01*
X128191871Y-106879809D01*
G04 #@! TO.C,R14*
X129469238Y-99065061D02*
X129009619Y-99386795D01*
X129469238Y-99616604D02*
X128504038Y-99616604D01*
X128504038Y-99248909D01*
X128550000Y-99156985D01*
X128595961Y-99111023D01*
X128687885Y-99065061D01*
X128825771Y-99065061D01*
X128917695Y-99111023D01*
X128963657Y-99156985D01*
X129009619Y-99248909D01*
X129009619Y-99616604D01*
X129469238Y-98145823D02*
X129469238Y-98697366D01*
X129469238Y-98421595D02*
X128504038Y-98421595D01*
X128641923Y-98513518D01*
X128733847Y-98605442D01*
X128779809Y-98697366D01*
X128825771Y-97318509D02*
X129469238Y-97318509D01*
X128458076Y-97548318D02*
X129147504Y-97778128D01*
X129147504Y-97180623D01*
G04 #@! TO.C,R15*
X125229238Y-98645061D02*
X124769619Y-98966795D01*
X125229238Y-99196604D02*
X124264038Y-99196604D01*
X124264038Y-98828909D01*
X124310000Y-98736985D01*
X124355961Y-98691023D01*
X124447885Y-98645061D01*
X124585771Y-98645061D01*
X124677695Y-98691023D01*
X124723657Y-98736985D01*
X124769619Y-98828909D01*
X124769619Y-99196604D01*
X125229238Y-97725823D02*
X125229238Y-98277366D01*
X125229238Y-98001595D02*
X124264038Y-98001595D01*
X124401923Y-98093518D01*
X124493847Y-98185442D01*
X124539809Y-98277366D01*
X124264038Y-96852547D02*
X124264038Y-97312166D01*
X124723657Y-97358128D01*
X124677695Y-97312166D01*
X124631733Y-97220242D01*
X124631733Y-96990433D01*
X124677695Y-96898509D01*
X124723657Y-96852547D01*
X124815580Y-96806585D01*
X125045390Y-96806585D01*
X125137314Y-96852547D01*
X125183276Y-96898509D01*
X125229238Y-96990433D01*
X125229238Y-97220242D01*
X125183276Y-97312166D01*
X125137314Y-97358128D01*
G04 #@! TO.C,R16*
X162842590Y-89044638D02*
X162520857Y-88585019D01*
X162291047Y-89044638D02*
X162291047Y-88079438D01*
X162658742Y-88079438D01*
X162750666Y-88125400D01*
X162796628Y-88171361D01*
X162842590Y-88263285D01*
X162842590Y-88401171D01*
X162796628Y-88493095D01*
X162750666Y-88539057D01*
X162658742Y-88585019D01*
X162291047Y-88585019D01*
X163761828Y-89044638D02*
X163210285Y-89044638D01*
X163486057Y-89044638D02*
X163486057Y-88079438D01*
X163394133Y-88217323D01*
X163302209Y-88309247D01*
X163210285Y-88355209D01*
X164589142Y-88079438D02*
X164405295Y-88079438D01*
X164313371Y-88125400D01*
X164267409Y-88171361D01*
X164175485Y-88309247D01*
X164129523Y-88493095D01*
X164129523Y-88860790D01*
X164175485Y-88952714D01*
X164221447Y-88998676D01*
X164313371Y-89044638D01*
X164497218Y-89044638D01*
X164589142Y-88998676D01*
X164635104Y-88952714D01*
X164681066Y-88860790D01*
X164681066Y-88630980D01*
X164635104Y-88539057D01*
X164589142Y-88493095D01*
X164497218Y-88447133D01*
X164313371Y-88447133D01*
X164221447Y-88493095D01*
X164175485Y-88539057D01*
X164129523Y-88630980D01*
G04 #@! TO.C,R1*
D22*
X189079047Y-100127279D02*
X188504523Y-100529446D01*
X189079047Y-100816708D02*
X187872547Y-100816708D01*
X187872547Y-100357089D01*
X187930000Y-100242184D01*
X187987452Y-100184732D01*
X188102357Y-100127279D01*
X188274714Y-100127279D01*
X188389619Y-100184732D01*
X188447071Y-100242184D01*
X188504523Y-100357089D01*
X188504523Y-100816708D01*
X189079047Y-98978232D02*
X189079047Y-99667660D01*
X189079047Y-99322946D02*
X187872547Y-99322946D01*
X188044904Y-99437851D01*
X188159809Y-99552755D01*
X188217261Y-99667660D01*
G04 #@! TO.C,JP1*
D20*
X84492380Y-97213333D02*
X85206666Y-97213333D01*
X85349523Y-97260952D01*
X85444761Y-97356190D01*
X85492380Y-97499047D01*
X85492380Y-97594285D01*
X85492380Y-96737142D02*
X84492380Y-96737142D01*
X84492380Y-96356190D01*
X84540000Y-96260952D01*
X84587619Y-96213333D01*
X84682857Y-96165714D01*
X84825714Y-96165714D01*
X84920952Y-96213333D01*
X84968571Y-96260952D01*
X85016190Y-96356190D01*
X85016190Y-96737142D01*
X85492380Y-95213333D02*
X85492380Y-95784761D01*
X85492380Y-95499047D02*
X84492380Y-95499047D01*
X84635238Y-95594285D01*
X84730476Y-95689523D01*
X84778095Y-95784761D01*
G04 #@! TO.C,JP2*
X84492380Y-113103333D02*
X85206666Y-113103333D01*
X85349523Y-113150952D01*
X85444761Y-113246190D01*
X85492380Y-113389047D01*
X85492380Y-113484285D01*
X85492380Y-112627142D02*
X84492380Y-112627142D01*
X84492380Y-112246190D01*
X84540000Y-112150952D01*
X84587619Y-112103333D01*
X84682857Y-112055714D01*
X84825714Y-112055714D01*
X84920952Y-112103333D01*
X84968571Y-112150952D01*
X85016190Y-112246190D01*
X85016190Y-112627142D01*
X84587619Y-111674761D02*
X84540000Y-111627142D01*
X84492380Y-111531904D01*
X84492380Y-111293809D01*
X84540000Y-111198571D01*
X84587619Y-111150952D01*
X84682857Y-111103333D01*
X84778095Y-111103333D01*
X84920952Y-111150952D01*
X85492380Y-111722380D01*
X85492380Y-111103333D01*
G04 #@! TD*
M02*
