G04 #@! TF.GenerationSoftware,KiCad,Pcbnew,5.0.0+dfsg1-2*
G04 #@! TF.CreationDate,2019-01-23T11:39:39+01:00*
G04 #@! TF.ProjectId,SLC_Free_PCB,534C435F467265655F5043422E6B6963,rev?*
G04 #@! TF.SameCoordinates,Original*
G04 #@! TF.FileFunction,Copper,L2,Bot,Signal*
G04 #@! TF.FilePolarity,Positive*
%FSLAX46Y46*%
G04 Gerber Fmt 4.6, Leading zero omitted, Abs format (unit mm)*
G04 Created by KiCad (PCBNEW 5.0.0+dfsg1-2) date Wed Jan 23 11:39:39 2019*
%MOMM*%
%LPD*%
G01*
G04 APERTURE LIST*
G04 #@! TA.AperFunction,ComponentPad*
%ADD10O,1.320800X2.641600*%
G04 #@! TD*
G04 #@! TA.AperFunction,ComponentPad*
%ADD11C,1.320800*%
G04 #@! TD*
G04 #@! TA.AperFunction,ComponentPad*
%ADD12C,1.676400*%
G04 #@! TD*
G04 #@! TA.AperFunction,ComponentPad*
%ADD13O,1.676400X3.352800*%
G04 #@! TD*
G04 #@! TA.AperFunction,ComponentPad*
%ADD14C,1.270000*%
G04 #@! TD*
G04 #@! TA.AperFunction,ComponentPad*
%ADD15O,1.524000X3.048000*%
G04 #@! TD*
G04 #@! TA.AperFunction,ComponentPad*
%ADD16R,3.700000X3.700000*%
G04 #@! TD*
G04 #@! TA.AperFunction,ComponentPad*
%ADD17C,3.700000*%
G04 #@! TD*
G04 #@! TA.AperFunction,ViaPad*
%ADD18C,0.800000*%
G04 #@! TD*
G04 #@! TA.AperFunction,ViaPad*
%ADD19C,0.711200*%
G04 #@! TD*
G04 #@! TA.AperFunction,ViaPad*
%ADD20C,1.006400*%
G04 #@! TD*
G04 #@! TA.AperFunction,Conductor*
%ADD21C,1.016000*%
G04 #@! TD*
G04 #@! TA.AperFunction,Conductor*
%ADD22C,0.203200*%
G04 #@! TD*
G04 #@! TA.AperFunction,Conductor*
%ADD23C,0.609600*%
G04 #@! TD*
G04 #@! TA.AperFunction,Conductor*
%ADD24C,0.304800*%
G04 #@! TD*
G04 #@! TA.AperFunction,Conductor*
%ADD25C,0.254000*%
G04 #@! TD*
G04 APERTURE END LIST*
D10*
G04 #@! TO.P,IC2,28*
G04 #@! TO.N,+5V*
X133347300Y-103848000D03*
G04 #@! TO.P,IC2,27*
G04 #@! TO.N,/RT_ADC*
X135887300Y-103848000D03*
G04 #@! TO.P,IC2,26*
G04 #@! TO.N,/P0[4]*
X138427300Y-103848000D03*
G04 #@! TO.P,IC2,25*
G04 #@! TO.N,/AC_TEMP_SENSE_OUT*
X140967300Y-103848000D03*
G04 #@! TO.P,IC2,24*
G04 #@! TO.N,/RE+_ADC*
X143507300Y-103848000D03*
G04 #@! TO.P,IC2,23*
G04 #@! TO.N,/LCD_RW*
X146047300Y-103848000D03*
G04 #@! TO.P,IC2,22*
G04 #@! TO.N,/LCD_E*
X148587300Y-103848000D03*
G04 #@! TO.P,IC2,21*
G04 #@! TO.N,/LCD_DB6*
X151127300Y-103848000D03*
G04 #@! TO.P,IC2,20*
G04 #@! TO.N,/LCD_DB4*
X153667300Y-103848000D03*
G04 #@! TO.P,IC2,19*
G04 #@! TO.N,/XRES*
X156207300Y-103848000D03*
G04 #@! TO.P,IC2,18*
G04 #@! TO.N,/PWM_NB_OUT*
X158747300Y-103848000D03*
G04 #@! TO.P,IC2,17*
G04 #@! TO.N,/PWM_HEATER*
X161287300Y-103848000D03*
G04 #@! TO.P,IC2,16*
G04 #@! TO.N,/CAL*
X163827300Y-103848000D03*
G04 #@! TO.P,IC2,15*
G04 #@! TO.N,/PROG_SDA*
X166367300Y-103848000D03*
G04 #@! TO.P,IC2,14*
G04 #@! TO.N,GND*
X166367300Y-111468000D03*
G04 #@! TO.P,IC2,13*
G04 #@! TO.N,/PROG_SCL*
X163827300Y-111468000D03*
G04 #@! TO.P,IC2,12*
G04 #@! TO.N,/P1[3]*
X161287300Y-111468000D03*
G04 #@! TO.P,IC2,11*
G04 #@! TO.N,/PWM_LIN_OUT*
X158747300Y-111468000D03*
G04 #@! TO.P,IC2,10*
G04 #@! TO.N,/P1[7]*
X156207300Y-111468000D03*
G04 #@! TO.P,IC2,9*
G04 #@! TO.N,Net-(IC2-Pad9)*
X153667300Y-111468000D03*
G04 #@! TO.P,IC2,5*
G04 #@! TO.N,/P2[7]*
X143507300Y-111468000D03*
G04 #@! TO.P,IC2,6*
G04 #@! TO.N,/LCD_RS*
X146047300Y-111468000D03*
G04 #@! TO.P,IC2,4*
G04 #@! TO.N,/INSAMP_VREF*
X140967300Y-111468000D03*
G04 #@! TO.P,IC2,3*
G04 #@! TO.N,/LSU_VGND*
X138427300Y-111468000D03*
G04 #@! TO.P,IC2,8*
G04 #@! TO.N,/LCD_DB5*
X151127300Y-111468000D03*
G04 #@! TO.P,IC2,7*
G04 #@! TO.N,/LCD_DB7*
X148587300Y-111468000D03*
G04 #@! TO.P,IC2,2*
G04 #@! TO.N,/LSU_IA*
X135887300Y-111468000D03*
G04 #@! TO.P,IC2,1*
G04 #@! TO.N,/APE_ADC*
X133347300Y-111468000D03*
G04 #@! TD*
D11*
G04 #@! TO.P,R13,2*
G04 #@! TO.N,Net-(IC3-PadG)*
X124025500Y-118961000D03*
G04 #@! TO.P,R13,1*
G04 #@! TO.N,/PWM_HEATER*
X124025500Y-111341000D03*
G04 #@! TD*
G04 #@! TO.P,R4,2*
G04 #@! TO.N,Net-(C6-Pad2)*
X138300300Y-101079400D03*
G04 #@! TO.P,R4,1*
G04 #@! TO.N,/LSU_NERMEST*
X138300300Y-93459400D03*
G04 #@! TD*
G04 #@! TO.P,R12,2*
G04 #@! TO.N,LIN_OUT*
X152981500Y-122136000D03*
G04 #@! TO.P,R12,1*
G04 #@! TO.N,/PWM_LIN_OUT*
X152981500Y-114516000D03*
G04 #@! TD*
G04 #@! TO.P,R10,2*
G04 #@! TO.N,GND*
X156105700Y-92926000D03*
G04 #@! TO.P,R10,1*
G04 #@! TO.N,/XRES*
X156105700Y-100546000D03*
G04 #@! TD*
G04 #@! TO.P,C6,2*
G04 #@! TO.N,Net-(C6-Pad2)*
X141145100Y-96050200D03*
G04 #@! TO.P,C6,1*
G04 #@! TO.N,/AC_TEMP_SENSE_OUT*
X141145100Y-98590200D03*
G04 #@! TD*
G04 #@! TO.P,C8,2*
G04 #@! TO.N,GND*
X153130000Y-93740000D03*
G04 #@! TO.P,C8,1*
G04 #@! TO.N,/XRES*
X153130000Y-96280000D03*
G04 #@! TD*
G04 #@! TO.P,C5,2*
G04 #@! TO.N,GND*
X133347300Y-97498000D03*
G04 #@! TO.P,C5,1*
G04 #@! TO.N,+5V*
X133347300Y-100038000D03*
G04 #@! TD*
D12*
G04 #@! TO.P,D2,C*
G04 #@! TO.N,Net-(D2-PadC)*
X183690100Y-89852600D03*
G04 #@! TO.P,D2,A*
G04 #@! TO.N,+12V*
X173530100Y-89852600D03*
G04 #@! TD*
G04 #@! TO.P,D3,C*
G04 #@! TO.N,Net-(C1-Pad+)*
X183715500Y-93103800D03*
G04 #@! TO.P,D3,A*
G04 #@! TO.N,GND*
X173555500Y-93103800D03*
G04 #@! TD*
D11*
G04 #@! TO.P,R8,2*
G04 #@! TO.N,/RE+_ADC*
X144777300Y-101079400D03*
G04 #@! TO.P,R8,1*
G04 #@! TO.N,/LSU_NERMEST*
X144777300Y-93459400D03*
G04 #@! TD*
G04 #@! TO.P,R2,2*
G04 #@! TO.N,/LSU_IP*
X128775300Y-121805800D03*
G04 #@! TO.P,R2,1*
G04 #@! TO.N,/APE_ADC*
X128775300Y-114185800D03*
G04 #@! TD*
G04 #@! TO.P,R6,2*
G04 #@! TO.N,/RT_ADC*
X133702900Y-121805800D03*
G04 #@! TO.P,R6,1*
G04 #@! TO.N,/LSU_IA*
X133702900Y-114185800D03*
G04 #@! TD*
G04 #@! TO.P,R7,2*
G04 #@! TO.N,/LSU_NERMEST*
X147926900Y-93459400D03*
G04 #@! TO.P,R7,1*
G04 #@! TO.N,+5V*
X147926900Y-101079400D03*
G04 #@! TD*
D13*
G04 #@! TO.P,IC3,S*
G04 #@! TO.N,/H_GND*
X121180700Y-115125600D03*
G04 #@! TO.P,IC3,D*
G04 #@! TO.N,LSU_HEATER-*
X118640700Y-115125600D03*
G04 #@! TO.P,IC3,G*
G04 #@! TO.N,Net-(IC3-PadG)*
X116100700Y-115125600D03*
G04 #@! TD*
D11*
G04 #@! TO.P,R5,2*
G04 #@! TO.N,/INSAMP_VREF*
X137741500Y-114185800D03*
G04 #@! TO.P,R5,1*
G04 #@! TO.N,+5V*
X137741500Y-121805800D03*
G04 #@! TD*
G04 #@! TO.P,R9,2*
G04 #@! TO.N,GND*
X140332300Y-121805800D03*
G04 #@! TO.P,R9,1*
G04 #@! TO.N,/INSAMP_VREF*
X140332300Y-114185800D03*
G04 #@! TD*
G04 #@! TO.P,C7,2*
G04 #@! TO.N,GND*
X144040700Y-119900800D03*
G04 #@! TO.P,C7,1*
G04 #@! TO.N,/INSAMP_VREF*
X144040700Y-117360800D03*
G04 #@! TD*
D13*
G04 #@! TO.P,IC1,3*
G04 #@! TO.N,+5V*
X176654300Y-113957200D03*
G04 #@! TO.P,IC1,2*
G04 #@! TO.N,GND*
X174114300Y-113957200D03*
G04 #@! TO.P,IC1,1*
G04 #@! TO.N,Net-(C1-Pad+)*
X171574300Y-113957200D03*
G04 #@! TD*
D11*
G04 #@! TO.P,C2,2*
G04 #@! TO.N,GND*
X181480300Y-102654200D03*
G04 #@! TO.P,C2,1*
G04 #@! TO.N,Net-(C1-Pad+)*
X184020300Y-102654200D03*
G04 #@! TD*
G04 #@! TO.P,C4,2*
G04 #@! TO.N,GND*
X187677900Y-116294000D03*
G04 #@! TO.P,C4,1*
G04 #@! TO.N,+5V*
X185137900Y-116294000D03*
G04 #@! TD*
D12*
G04 #@! TO.P,D1,C*
G04 #@! TO.N,Net-(C1-Pad+)*
X182039100Y-105270400D03*
G04 #@! TO.P,D1,A*
G04 #@! TO.N,+5V*
X182039100Y-115430400D03*
G04 #@! TD*
D14*
G04 #@! TO.P,C1,+*
G04 #@! TO.N,Net-(C1-Pad+)*
X184274300Y-98361600D03*
G04 #@! TO.P,C1,-*
G04 #@! TO.N,GND*
X182242300Y-98361600D03*
G04 #@! TD*
G04 #@! TO.P,C3,+*
G04 #@! TO.N,+5V*
X187347700Y-111061600D03*
G04 #@! TO.P,C3,-*
G04 #@! TO.N,GND*
X185315700Y-111061600D03*
G04 #@! TD*
D11*
G04 #@! TO.P,R3,2*
G04 #@! TO.N,/LSU_IA*
X131264500Y-114185800D03*
G04 #@! TO.P,R3,1*
G04 #@! TO.N,/LSU_IP*
X131264500Y-121805800D03*
G04 #@! TD*
D15*
G04 #@! TO.P,JP3,5*
G04 #@! TO.N,/PROG_SDA*
X183817100Y-120586600D03*
G04 #@! TO.P,JP3,4*
G04 #@! TO.N,/PROG_SCL*
X181277100Y-120586600D03*
G04 #@! TO.P,JP3,3*
G04 #@! TO.N,/XRES*
X178737100Y-120586600D03*
G04 #@! TO.P,JP3,2*
G04 #@! TO.N,GND*
X176197100Y-120586600D03*
G04 #@! TO.P,JP3,1*
G04 #@! TO.N,+5V*
X173657100Y-120586600D03*
G04 #@! TD*
D11*
G04 #@! TO.P,R11,2*
G04 #@! TO.N,NB_OUT*
X162582700Y-93205400D03*
G04 #@! TO.P,R11,1*
G04 #@! TO.N,/PWM_NB_OUT*
X162582700Y-100825400D03*
G04 #@! TD*
D15*
G04 #@! TO.P,JP4,16*
G04 #@! TO.N,GND*
X157578900Y-90309800D03*
G04 #@! TO.P,JP4,15*
G04 #@! TO.N,/LCD_ANODE*
X155038900Y-90309800D03*
G04 #@! TO.P,JP4,14*
G04 #@! TO.N,/LCD_DB7*
X152498900Y-90309800D03*
G04 #@! TO.P,JP4,13*
G04 #@! TO.N,/LCD_DB6*
X149958900Y-90309800D03*
G04 #@! TO.P,JP4,12*
G04 #@! TO.N,/LCD_DB5*
X147418900Y-90309800D03*
G04 #@! TO.P,JP4,11*
G04 #@! TO.N,/LCD_DB4*
X144878900Y-90309800D03*
G04 #@! TO.P,JP4,10*
G04 #@! TO.N,Net-(JP4-Pad10)*
X142338900Y-90309800D03*
G04 #@! TO.P,JP4,9*
G04 #@! TO.N,Net-(JP4-Pad9)*
X139798900Y-90309800D03*
G04 #@! TO.P,JP4,8*
G04 #@! TO.N,Net-(JP4-Pad8)*
X137258900Y-90309800D03*
G04 #@! TO.P,JP4,7*
G04 #@! TO.N,Net-(JP4-Pad7)*
X134718900Y-90309800D03*
G04 #@! TO.P,JP4,6*
G04 #@! TO.N,/LCD_E*
X132178900Y-90309800D03*
G04 #@! TO.P,JP4,5*
G04 #@! TO.N,/LCD_RW*
X129638900Y-90309800D03*
G04 #@! TO.P,JP4,4*
G04 #@! TO.N,/LCD_RS*
X127098900Y-90309800D03*
G04 #@! TO.P,JP4,3*
G04 #@! TO.N,/LCD_CONTRAST*
X124558900Y-90309800D03*
G04 #@! TO.P,JP4,2*
G04 #@! TO.N,+5V*
X122018900Y-90309800D03*
G04 #@! TO.P,JP4,1*
G04 #@! TO.N,GND*
X119478900Y-90309800D03*
G04 #@! TD*
D11*
G04 #@! TO.P,C10,2*
G04 #@! TO.N,GND*
X150238300Y-117056000D03*
G04 #@! TO.P,C10,1*
G04 #@! TO.N,LIN_OUT*
X150238300Y-119596000D03*
G04 #@! TD*
G04 #@! TO.P,C9,2*
G04 #@! TO.N,GND*
X159356900Y-98514000D03*
G04 #@! TO.P,C9,1*
G04 #@! TO.N,NB_OUT*
X159356900Y-95974000D03*
G04 #@! TD*
G04 #@! TO.P,C11,2*
G04 #@! TO.N,GND*
X126463900Y-104889400D03*
G04 #@! TO.P,C11,1*
G04 #@! TO.N,+5V*
X129003900Y-104889400D03*
G04 #@! TD*
G04 #@! TO.P,R14,2*
G04 #@! TO.N,+5V*
X129003900Y-102171600D03*
G04 #@! TO.P,R14,1*
G04 #@! TO.N,/LCD_CONTRAST*
X129003900Y-94551600D03*
G04 #@! TD*
G04 #@! TO.P,R15,2*
G04 #@! TO.N,/LCD_CONTRAST*
X126565500Y-94551600D03*
G04 #@! TO.P,R15,1*
G04 #@! TO.N,GND*
X126565500Y-102171600D03*
G04 #@! TD*
G04 #@! TO.P,R16,2*
G04 #@! TO.N,+5V*
X168348500Y-90386000D03*
G04 #@! TO.P,R16,1*
G04 #@! TO.N,/LCD_ANODE*
X160728500Y-90386000D03*
G04 #@! TD*
D15*
G04 #@! TO.P,JP5,6*
G04 #@! TO.N,+5V*
X169593100Y-120586600D03*
G04 #@! TO.P,JP5,5*
G04 #@! TO.N,GND*
X167053100Y-120586600D03*
G04 #@! TO.P,JP5,4*
G04 #@! TO.N,/P2[7]*
X164513100Y-120586600D03*
G04 #@! TO.P,JP5,3*
G04 #@! TO.N,/P1[7]*
X161973100Y-120586600D03*
G04 #@! TO.P,JP5,2*
G04 #@! TO.N,/P1[3]*
X159433100Y-120586600D03*
G04 #@! TO.P,JP5,1*
G04 #@! TO.N,/P0[4]*
X156893100Y-120586600D03*
G04 #@! TD*
D11*
G04 #@! TO.P,R1,2*
G04 #@! TO.N,Net-(C1-Pad+)*
X188541500Y-108089800D03*
G04 #@! TO.P,R1,1*
G04 #@! TO.N,Net-(D2-PadC)*
X188541500Y-95389800D03*
G04 #@! TD*
D16*
G04 #@! TO.P,JP1,1*
G04 #@! TO.N,NB_OUT*
X102140000Y-99230000D03*
D17*
G04 #@! TO.P,JP1,2*
G04 #@! TO.N,LIN_OUT*
X102140000Y-93530000D03*
G04 #@! TO.P,JP1,3*
G04 #@! TO.N,GND*
X107640000Y-99230000D03*
G04 #@! TO.P,JP1,4*
G04 #@! TO.N,+12V*
X107640000Y-93530000D03*
G04 #@! TD*
D16*
G04 #@! TO.P,JP2,1*
G04 #@! TO.N,+12V*
X102140000Y-117970000D03*
D17*
G04 #@! TO.P,JP2,2*
G04 #@! TO.N,LSU_HEATER-*
X102140000Y-112270000D03*
G04 #@! TO.P,JP2,3*
G04 #@! TO.N,/LSU_IA*
X102140000Y-106570000D03*
G04 #@! TO.P,JP2,4*
G04 #@! TO.N,/LSU_IP*
X107640000Y-117970000D03*
G04 #@! TO.P,JP2,5*
G04 #@! TO.N,/LSU_NERMEST*
X107640000Y-112270000D03*
G04 #@! TO.P,JP2,6*
G04 #@! TO.N,/LSU_VGND*
X107640000Y-106570000D03*
G04 #@! TD*
D18*
G04 #@! TO.N,GND*
X135750000Y-121210000D03*
X135750000Y-116590000D03*
X142220000Y-107750000D03*
X142200000Y-119850000D03*
X151330000Y-107880000D03*
X147820000Y-120240000D03*
D19*
G04 #@! TO.N,+5V*
X147926900Y-97244000D03*
X129003900Y-100038000D03*
X127784700Y-93357800D03*
X136852500Y-100038000D03*
X167535700Y-97244000D03*
G04 #@! TO.N,/P0[4]*
X138427300Y-109080400D03*
X157223300Y-109283600D03*
G04 #@! TO.N,/LCD_RW*
X146047300Y-97574200D03*
X130731100Y-98514000D03*
D18*
X136610000Y-97574200D03*
D19*
G04 #@! TO.N,/LCD_E*
X148942900Y-96532800D03*
X131442300Y-96278800D03*
G04 #@! TO.N,/LCD_DB4*
X143913700Y-99377600D03*
X153667300Y-100063400D03*
G04 #@! TO.N,/XRES*
X155191300Y-118783200D03*
G04 #@! TO.N,/PWM_NB_OUT*
X158747300Y-100825400D03*
G04 #@! TO.N,/PWM_HEATER*
X126159100Y-111341000D03*
X126209900Y-119062600D03*
X138046300Y-116344800D03*
X160271300Y-118072000D03*
X138046300Y-117564000D03*
G04 #@! TO.N,/PROG_SDA*
X165732300Y-117487800D03*
G04 #@! TO.N,/PROG_SCL*
X163801900Y-117995800D03*
G04 #@! TO.N,/P1[3]*
X159560100Y-117360800D03*
X160982500Y-117360800D03*
G04 #@! TO.N,/PWM_LIN_OUT*
X158747300Y-114516000D03*
G04 #@! TO.N,/P1[7]*
X161973100Y-116649600D03*
X156181900Y-116649600D03*
G04 #@! TO.N,/P2[7]*
X164513100Y-115938400D03*
X143507300Y-115633600D03*
G04 #@! TO.N,/LCD_RS*
X130019900Y-109791600D03*
G04 #@! TO.N,/INSAMP_VREF*
X140332300Y-117360800D03*
G04 #@! TO.N,/LSU_VGND*
X138605100Y-118961000D03*
G04 #@! TO.N,/LCD_DB5*
X147063300Y-113169800D03*
G04 #@! TO.N,/LCD_DB7*
X149654100Y-94246800D03*
G04 #@! TO.N,/LSU_IA*
X135887300Y-114185800D03*
X131289900Y-120383400D03*
G04 #@! TO.N,/APE_ADC*
X128775300Y-111468000D03*
G04 #@! TO.N,Net-(C6-Pad2)*
X138300300Y-96050200D03*
G04 #@! TO.N,/LSU_NERMEST*
X139316300Y-119672200D03*
D20*
G04 #@! TO.N,Net-(C1-Pad+)*
X180489700Y-116344800D03*
X188566900Y-102654200D03*
D19*
G04 #@! TO.N,LIN_OUT*
X152981500Y-119596000D03*
X125447900Y-99885600D03*
X125447900Y-119570600D03*
G04 #@! TO.N,NB_OUT*
X159356900Y-93205400D03*
X124736700Y-102425600D03*
X125498700Y-95567600D03*
D18*
X107670000Y-103425600D03*
X114310000Y-103425600D03*
G04 #@! TD*
D21*
G04 #@! TO.N,+12V*
X107640000Y-93530000D02*
X114994300Y-93530000D01*
X116964300Y-89080300D02*
X117970000Y-88074600D01*
X114994300Y-93530000D02*
X116964300Y-91560000D01*
X116964300Y-91560000D02*
X116964300Y-89080300D01*
X117970000Y-88074600D02*
X172387100Y-88074600D01*
X173530100Y-89217600D02*
X173530100Y-89852600D01*
X172387100Y-88074600D02*
X173530100Y-89217600D01*
X98090000Y-116786000D02*
X98090000Y-91720000D01*
X103700000Y-89590000D02*
X107640000Y-93530000D01*
X100220000Y-89590000D02*
X103700000Y-89590000D01*
X98090000Y-91720000D02*
X100220000Y-89590000D01*
X99274000Y-117970000D02*
X98090000Y-116786000D01*
X102140000Y-117970000D02*
X99274000Y-117970000D01*
D22*
G04 #@! TO.N,+5V*
X136852500Y-100038000D02*
X146885500Y-100038000D01*
X146885500Y-100038000D02*
X147926900Y-101079400D01*
X129003900Y-100038000D02*
X133347300Y-100038000D01*
D23*
X122018900Y-93357800D02*
X127784700Y-93357800D01*
X122018900Y-93357800D02*
X122018900Y-90309800D01*
D21*
X176654300Y-113957200D02*
X176730500Y-113881000D01*
X176730500Y-113881000D02*
X180489700Y-113881000D01*
X180489700Y-113881000D02*
X182039100Y-115430400D01*
X182039100Y-115430400D02*
X184274300Y-115430400D01*
X184274300Y-115430400D02*
X185137900Y-116294000D01*
X169593100Y-120586600D02*
X173657100Y-120586600D01*
D24*
X167339700Y-97440000D02*
X167535700Y-97244000D01*
X147926900Y-97244000D02*
X148429794Y-97244000D01*
X148429794Y-97244000D02*
X148625794Y-97440000D01*
X148625794Y-97440000D02*
X167339700Y-97440000D01*
G04 #@! TO.N,/P0[4]*
X138427300Y-109080400D02*
X138630500Y-109283600D01*
X138630500Y-109283600D02*
X157223300Y-109283600D01*
G04 #@! TO.N,/LCD_RW*
X136610000Y-97574200D02*
X146047300Y-97574200D01*
G04 #@! TO.N,/LCD_E*
X148942900Y-96532800D02*
X142110300Y-96532800D01*
X142110300Y-96532800D02*
X141576900Y-97066200D01*
X141576900Y-97066200D02*
X140713300Y-97066200D01*
X140713300Y-97066200D02*
X140408500Y-96761400D01*
X140408500Y-96761400D02*
X137995500Y-96761400D01*
X137995500Y-96761400D02*
X137309700Y-96075600D01*
X137309700Y-96075600D02*
X131645500Y-96075600D01*
X131645500Y-96075600D02*
X131442300Y-96278800D01*
G04 #@! TO.N,/LCD_DB4*
X147088700Y-99580800D02*
X147571300Y-100063400D01*
X147571300Y-100063400D02*
X153667300Y-100063400D01*
X147088700Y-99580800D02*
X144116900Y-99580800D01*
X144116900Y-99580800D02*
X143913700Y-99377600D01*
G04 #@! TO.N,/XRES*
X178737100Y-120586600D02*
X178737100Y-118707000D01*
X178737100Y-118707000D02*
X160601500Y-118707000D01*
X160601500Y-118707000D02*
X160525300Y-118783200D01*
X160525300Y-118783200D02*
X159966500Y-118783200D01*
X159966500Y-118783200D02*
X159763300Y-118580000D01*
X159763300Y-118580000D02*
X155394500Y-118580000D01*
X155394500Y-118580000D02*
X155191300Y-118783200D01*
G04 #@! TO.N,/PWM_NB_OUT*
X158747300Y-100825400D02*
X162582700Y-100825400D01*
G04 #@! TO.N,/PWM_HEATER*
X124025500Y-111341000D02*
X126159100Y-111341000D01*
X126209900Y-119062600D02*
X127124300Y-119062600D01*
X127124300Y-119062600D02*
X127835500Y-118351400D01*
X127835500Y-118351400D02*
X130096100Y-118351400D01*
X130096100Y-118351400D02*
X130299300Y-118148200D01*
X130299300Y-118148200D02*
X137462100Y-118148200D01*
X138046300Y-116344800D02*
X144472500Y-116344800D01*
X144472500Y-116344800D02*
X145996500Y-117868800D01*
X145996500Y-117868800D02*
X149603300Y-117868800D01*
X149603300Y-117868800D02*
X149806500Y-118072000D01*
X149806500Y-118072000D02*
X160271300Y-118072000D01*
X137462100Y-118148200D02*
X138046300Y-117564000D01*
G04 #@! TO.N,/PROG_SDA*
X183817100Y-120586600D02*
X183817100Y-117691000D01*
X183817100Y-117691000D02*
X165935500Y-117691000D01*
X165935500Y-117691000D02*
X165732300Y-117487800D01*
G04 #@! TO.N,/PROG_SCL*
X181277100Y-120586600D02*
X181277100Y-118199000D01*
X163801900Y-117995800D02*
X164005100Y-118199000D01*
X164005100Y-118199000D02*
X181277100Y-118199000D01*
G04 #@! TO.N,/P1[3]*
X159560100Y-117360800D02*
X160982500Y-117360800D01*
G04 #@! TO.N,/PWM_LIN_OUT*
X158747300Y-114516000D02*
X152981500Y-114516000D01*
G04 #@! TO.N,/P1[7]*
X161973100Y-116649600D02*
X156181900Y-116649600D01*
G04 #@! TO.N,/P2[7]*
X164513100Y-115938400D02*
X144802700Y-115938400D01*
X144802700Y-115938400D02*
X144497900Y-115633600D01*
X144497900Y-115633600D02*
X143507300Y-115633600D01*
G04 #@! TO.N,/LCD_RS*
X146047300Y-111468000D02*
X146047300Y-109791600D01*
X146047300Y-109791600D02*
X130019900Y-109791600D01*
G04 #@! TO.N,/INSAMP_VREF*
X137741500Y-114185800D02*
X140332300Y-114185800D01*
X144040700Y-117360800D02*
X140332300Y-117360800D01*
G04 #@! TO.N,/LSU_VGND*
X118132700Y-120281800D02*
X127378300Y-120281800D01*
X127378300Y-120281800D02*
X128292700Y-119367400D01*
X128292700Y-119367400D02*
X130553300Y-119367400D01*
X130553300Y-119367400D02*
X130756500Y-119164200D01*
X130756500Y-119164200D02*
X138401900Y-119164200D01*
X138401900Y-119164200D02*
X138605100Y-118961000D01*
X118132700Y-120281800D02*
X118132700Y-119469000D01*
X118132700Y-119469000D02*
X115795900Y-117132200D01*
X115795900Y-117132200D02*
X113154300Y-117132200D01*
X113154300Y-117132200D02*
X112722500Y-116700400D01*
X112722500Y-111652500D02*
X107640000Y-106570000D01*
X112722500Y-116700400D02*
X112722500Y-111652500D01*
G04 #@! TO.N,/LCD_DB5*
X147063300Y-113169800D02*
X151127300Y-113169800D01*
X151127300Y-113169800D02*
X151127300Y-111468000D01*
G04 #@! TO.N,/LCD_DB7*
X152498900Y-91071800D02*
X149654100Y-93916600D01*
X149654100Y-93916600D02*
X149654100Y-94246800D01*
X152498900Y-90309800D02*
X152498900Y-91071800D01*
G04 #@! TO.N,/LSU_IA*
X133702900Y-114185800D02*
X131264500Y-114185800D01*
X135887300Y-114185800D02*
X133702900Y-114185800D01*
X117116700Y-121297800D02*
X127835500Y-121297800D01*
X127835500Y-121297800D02*
X128749900Y-120383400D01*
X128749900Y-120383400D02*
X131289900Y-120383400D01*
X115338700Y-118148200D02*
X117116700Y-119926200D01*
X117116700Y-121297800D02*
X117116700Y-119926200D01*
X102140000Y-106570000D02*
X104820000Y-109250000D01*
X104820000Y-109250000D02*
X104820000Y-113990000D01*
X104820000Y-113990000D02*
X105890000Y-115060000D01*
X105890000Y-115060000D02*
X109270000Y-115060000D01*
X112358200Y-118148200D02*
X115338700Y-118148200D01*
X109270000Y-115060000D02*
X112358200Y-118148200D01*
G04 #@! TO.N,/APE_ADC*
X128775300Y-111468000D02*
X133347300Y-111468000D01*
G04 #@! TO.N,Net-(IC3-PadG)*
X116100700Y-114998600D02*
X116100700Y-115125600D01*
X118361300Y-118961000D02*
X116100700Y-116700400D01*
X116100700Y-116700400D02*
X116100700Y-115125600D01*
X118361300Y-118961000D02*
X124025500Y-118961000D01*
G04 #@! TO.N,Net-(C6-Pad2)*
X138300300Y-96050200D02*
X141145100Y-96050200D01*
G04 #@! TO.N,/LSU_NERMEST*
X147926900Y-93459400D02*
X144777300Y-93459400D01*
X144777300Y-93459400D02*
X138300300Y-93459400D01*
X130985100Y-119672200D02*
X139316300Y-119672200D01*
X128521300Y-119875400D02*
X130781900Y-119875400D01*
X127606900Y-120789800D02*
X128521300Y-119875400D01*
X117624700Y-120789800D02*
X127606900Y-120789800D01*
X107640000Y-112270000D02*
X109489999Y-114119999D01*
X109489999Y-114566090D02*
X112560919Y-117637010D01*
X130781900Y-119875400D02*
X130985100Y-119672200D01*
X109489999Y-114119999D02*
X109489999Y-114566090D01*
X112560919Y-117637010D02*
X115564110Y-117637010D01*
X115564110Y-117637010D02*
X117624700Y-119697600D01*
X117624700Y-119697600D02*
X117624700Y-120789800D01*
D21*
G04 #@! TO.N,Net-(D2-PadC)*
X183690100Y-89852600D02*
X188541500Y-94704000D01*
X188541500Y-94704000D02*
X188541500Y-95389800D01*
G04 #@! TO.N,Net-(C1-Pad+)*
X171574300Y-113957200D02*
X171574300Y-116344800D01*
X171574300Y-116344800D02*
X180489700Y-116344800D01*
X188541500Y-108089800D02*
X188566900Y-102654200D01*
D24*
G04 #@! TO.N,/LSU_IP*
X131264500Y-121805800D02*
X128775300Y-121805800D01*
X116608700Y-121805800D02*
X128775300Y-121805800D01*
X116608700Y-121805800D02*
X116608700Y-120154800D01*
X116608700Y-120154800D02*
X115110100Y-118656200D01*
X112927354Y-118656200D02*
X112927354Y-118656200D01*
X107640000Y-117970000D02*
X110256295Y-117970000D01*
X110256295Y-117970000D02*
X110942495Y-118656200D01*
X115110100Y-118656200D02*
X113410000Y-118656200D01*
X110942495Y-118656200D02*
X113410000Y-118656200D01*
X113410000Y-118656200D02*
X112927354Y-118656200D01*
G04 #@! TO.N,/LCD_CONTRAST*
X126565500Y-94551600D02*
X129003900Y-94551600D01*
G04 #@! TO.N,LIN_OUT*
X152981500Y-119596000D02*
X150238300Y-119596000D01*
X125447900Y-119570600D02*
X125651100Y-119773800D01*
X125651100Y-119773800D02*
X127149700Y-119773800D01*
X127149700Y-119773800D02*
X128064100Y-118859400D01*
X128064100Y-118859400D02*
X130324700Y-118859400D01*
X130324700Y-118859400D02*
X130527900Y-118656200D01*
X130527900Y-118656200D02*
X137893900Y-118656200D01*
X137893900Y-118656200D02*
X138300300Y-118249800D01*
X138300300Y-118249800D02*
X143481900Y-118249800D01*
X143481900Y-118249800D02*
X143608900Y-118376800D01*
X143608900Y-118376800D02*
X149019100Y-118376800D01*
X149019100Y-118376800D02*
X150238300Y-119596000D01*
X105670000Y-96280000D02*
X108804400Y-96280000D01*
X108804400Y-96280000D02*
X112410000Y-99885600D01*
X112410000Y-99885600D02*
X125447900Y-99885600D01*
X104890000Y-96280000D02*
X108804400Y-96280000D01*
X102140000Y-93530000D02*
X104890000Y-96280000D01*
G04 #@! TO.N,NB_OUT*
X159356900Y-93205400D02*
X162582700Y-93205400D01*
X102140000Y-99230000D02*
X102720000Y-99230000D01*
X108235685Y-103425600D02*
X114310000Y-103425600D01*
X107670000Y-103425600D02*
X108235685Y-103425600D01*
X138300300Y-95034200D02*
X153490000Y-95034200D01*
X125498700Y-95567600D02*
X137766900Y-95567600D01*
X137766900Y-95567600D02*
X138300300Y-95034200D01*
X153490000Y-95034200D02*
X158417100Y-95034200D01*
X158417100Y-95034200D02*
X159356900Y-95974000D01*
G04 #@! TD*
D25*
G04 #@! TO.N,GND*
G36*
X190119134Y-87128923D02*
X190353939Y-87248562D01*
X190540285Y-87434908D01*
X190659924Y-87669713D01*
X190710011Y-87985949D01*
X190710282Y-88911415D01*
X190213926Y-88415059D01*
X189392469Y-88074800D01*
X188503331Y-88074800D01*
X187681874Y-88415059D01*
X187053159Y-89043774D01*
X186712900Y-89865231D01*
X186712900Y-90754369D01*
X187053159Y-91575826D01*
X187681874Y-92204541D01*
X188503331Y-92544800D01*
X189392469Y-92544800D01*
X190213926Y-92204541D01*
X190711102Y-91707365D01*
X190719345Y-119832278D01*
X190213926Y-119326859D01*
X189392469Y-118986600D01*
X188503331Y-118986600D01*
X187681874Y-119326859D01*
X187053159Y-119955574D01*
X186712900Y-120777031D01*
X186712900Y-121666169D01*
X187053159Y-122487626D01*
X187485533Y-122920000D01*
X154029472Y-122920000D01*
X154079687Y-122869785D01*
X154276900Y-122393671D01*
X154276900Y-121878329D01*
X154079687Y-121402215D01*
X153715285Y-121037813D01*
X153239171Y-120840600D01*
X152723829Y-120840600D01*
X152247715Y-121037813D01*
X151883313Y-121402215D01*
X151686100Y-121878329D01*
X151686100Y-122393671D01*
X151883313Y-122869785D01*
X151933528Y-122920000D01*
X141008199Y-122920000D01*
X141059253Y-122712358D01*
X140332300Y-121985405D01*
X139605347Y-122712358D01*
X139656401Y-122920000D01*
X138436626Y-122920000D01*
X138475285Y-122903987D01*
X138839687Y-122539585D01*
X139036900Y-122063471D01*
X139036900Y-121842739D01*
X139053695Y-122136894D01*
X139194071Y-122475791D01*
X139425742Y-122532753D01*
X140152695Y-121805800D01*
X140511905Y-121805800D01*
X141238858Y-122532753D01*
X141470529Y-122475791D01*
X141640281Y-121989210D01*
X141610905Y-121474706D01*
X141470529Y-121135809D01*
X141238858Y-121078847D01*
X140511905Y-121805800D01*
X140152695Y-121805800D01*
X139425742Y-121078847D01*
X139194071Y-121135809D01*
X139036900Y-121586328D01*
X139036900Y-121548129D01*
X138839687Y-121072015D01*
X138666914Y-120899242D01*
X139605347Y-120899242D01*
X140332300Y-121626195D01*
X141059253Y-120899242D01*
X141036662Y-120807358D01*
X143313747Y-120807358D01*
X143370709Y-121039029D01*
X143857290Y-121208781D01*
X144371794Y-121179405D01*
X144710691Y-121039029D01*
X144767653Y-120807358D01*
X144040700Y-120080405D01*
X143313747Y-120807358D01*
X141036662Y-120807358D01*
X141002291Y-120667571D01*
X140515710Y-120497819D01*
X140001206Y-120527195D01*
X139662309Y-120667571D01*
X139605347Y-120899242D01*
X138666914Y-120899242D01*
X138475285Y-120707613D01*
X137999171Y-120510400D01*
X137483829Y-120510400D01*
X137007715Y-120707613D01*
X136643313Y-121072015D01*
X136446100Y-121548129D01*
X136446100Y-122063471D01*
X136643313Y-122539585D01*
X137007715Y-122903987D01*
X137046374Y-122920000D01*
X134398026Y-122920000D01*
X134436685Y-122903987D01*
X134801087Y-122539585D01*
X134998300Y-122063471D01*
X134998300Y-121548129D01*
X134801087Y-121072015D01*
X134436685Y-120707613D01*
X133960571Y-120510400D01*
X133445229Y-120510400D01*
X132969115Y-120707613D01*
X132604713Y-121072015D01*
X132483700Y-121364166D01*
X132362687Y-121072015D01*
X132160594Y-120869922D01*
X132280500Y-120580443D01*
X132280500Y-120459600D01*
X138702780Y-120459600D01*
X138755170Y-120511990D01*
X139119257Y-120662800D01*
X139513343Y-120662800D01*
X139877430Y-120511990D01*
X140156090Y-120233330D01*
X140306900Y-119869243D01*
X140306900Y-119475157D01*
X140156090Y-119111070D01*
X140082220Y-119037200D01*
X143039956Y-119037200D01*
X143018724Y-119058432D01*
X143134140Y-119173848D01*
X142902471Y-119230809D01*
X142732719Y-119717390D01*
X142762095Y-120231894D01*
X142902471Y-120570791D01*
X143134142Y-120627753D01*
X143861095Y-119900800D01*
X143846953Y-119886658D01*
X144026558Y-119707053D01*
X144040700Y-119721195D01*
X144054843Y-119707053D01*
X144234448Y-119886658D01*
X144220305Y-119900800D01*
X144947258Y-120627753D01*
X145178929Y-120570791D01*
X145348681Y-120084210D01*
X145319305Y-119569706D01*
X145178929Y-119230809D01*
X144947260Y-119173848D01*
X144956908Y-119164200D01*
X148692949Y-119164200D01*
X148942900Y-119414151D01*
X148942900Y-119853671D01*
X149140113Y-120329785D01*
X149504515Y-120694187D01*
X149980629Y-120891400D01*
X150495971Y-120891400D01*
X150972085Y-120694187D01*
X151282872Y-120383400D01*
X152367980Y-120383400D01*
X152420370Y-120435790D01*
X152784457Y-120586600D01*
X153178543Y-120586600D01*
X153542630Y-120435790D01*
X153821290Y-120157130D01*
X153972100Y-119793043D01*
X153972100Y-119398957D01*
X153821290Y-119034870D01*
X153645820Y-118859400D01*
X154200700Y-118859400D01*
X154200700Y-118980243D01*
X154351510Y-119344330D01*
X154630170Y-119622990D01*
X154994257Y-119773800D01*
X155388343Y-119773800D01*
X155496100Y-119729166D01*
X155496100Y-121486188D01*
X155577157Y-121893682D01*
X155885921Y-122355780D01*
X156348019Y-122664544D01*
X156893100Y-122772968D01*
X157438182Y-122664544D01*
X157900280Y-122355780D01*
X158163101Y-121962441D01*
X158425921Y-122355780D01*
X158888019Y-122664544D01*
X159433100Y-122772968D01*
X159978182Y-122664544D01*
X160440280Y-122355780D01*
X160703101Y-121962441D01*
X160965921Y-122355780D01*
X161428019Y-122664544D01*
X161973100Y-122772968D01*
X162518182Y-122664544D01*
X162980280Y-122355780D01*
X163243101Y-121962441D01*
X163505921Y-122355780D01*
X163968019Y-122664544D01*
X164513100Y-122772968D01*
X165058182Y-122664544D01*
X165520280Y-122355780D01*
X165794680Y-121945111D01*
X165811041Y-122000541D01*
X166155074Y-122426230D01*
X166635823Y-122687860D01*
X166710030Y-122702820D01*
X166926100Y-122580320D01*
X166926100Y-120713600D01*
X166906100Y-120713600D01*
X166906100Y-120459600D01*
X166926100Y-120459600D01*
X166926100Y-120439600D01*
X167180100Y-120439600D01*
X167180100Y-120459600D01*
X167200100Y-120459600D01*
X167200100Y-120713600D01*
X167180100Y-120713600D01*
X167180100Y-122580320D01*
X167396170Y-122702820D01*
X167470377Y-122687860D01*
X167951126Y-122426230D01*
X168295159Y-122000541D01*
X168311520Y-121945110D01*
X168585921Y-122355780D01*
X169048019Y-122664544D01*
X169593100Y-122772968D01*
X170138182Y-122664544D01*
X170600280Y-122355780D01*
X170909044Y-121893682D01*
X170941682Y-121729600D01*
X172308518Y-121729600D01*
X172341157Y-121893682D01*
X172649921Y-122355780D01*
X173112019Y-122664544D01*
X173657100Y-122772968D01*
X174202182Y-122664544D01*
X174664280Y-122355780D01*
X174938680Y-121945111D01*
X174955041Y-122000541D01*
X175299074Y-122426230D01*
X175779823Y-122687860D01*
X175854030Y-122702820D01*
X176070100Y-122580320D01*
X176070100Y-120713600D01*
X176050100Y-120713600D01*
X176050100Y-120459600D01*
X176070100Y-120459600D01*
X176070100Y-120439600D01*
X176324100Y-120439600D01*
X176324100Y-120459600D01*
X176344100Y-120459600D01*
X176344100Y-120713600D01*
X176324100Y-120713600D01*
X176324100Y-122580320D01*
X176540170Y-122702820D01*
X176614377Y-122687860D01*
X177095126Y-122426230D01*
X177439159Y-122000541D01*
X177455520Y-121945110D01*
X177729921Y-122355780D01*
X178192019Y-122664544D01*
X178737100Y-122772968D01*
X179282182Y-122664544D01*
X179744280Y-122355780D01*
X180007101Y-121962441D01*
X180269921Y-122355780D01*
X180732019Y-122664544D01*
X181277100Y-122772968D01*
X181822182Y-122664544D01*
X182284280Y-122355780D01*
X182547101Y-121962441D01*
X182809921Y-122355780D01*
X183272019Y-122664544D01*
X183817100Y-122772968D01*
X184362182Y-122664544D01*
X184824280Y-122355780D01*
X185133044Y-121893682D01*
X185214100Y-121486188D01*
X185214100Y-119687012D01*
X185133044Y-119279518D01*
X184824279Y-118817420D01*
X184604500Y-118670568D01*
X184604500Y-117768552D01*
X184619926Y-117691000D01*
X184574530Y-117462775D01*
X184880229Y-117589400D01*
X185395571Y-117589400D01*
X185871685Y-117392187D01*
X186063314Y-117200558D01*
X186950947Y-117200558D01*
X187007909Y-117432229D01*
X187494490Y-117601981D01*
X188008994Y-117572605D01*
X188347891Y-117432229D01*
X188404853Y-117200558D01*
X187677900Y-116473605D01*
X186950947Y-117200558D01*
X186063314Y-117200558D01*
X186236087Y-117027785D01*
X186401091Y-116629430D01*
X186539671Y-116963991D01*
X186771342Y-117020953D01*
X187498295Y-116294000D01*
X187857505Y-116294000D01*
X188584458Y-117020953D01*
X188816129Y-116963991D01*
X188985881Y-116477410D01*
X188956505Y-115962906D01*
X188816129Y-115624009D01*
X188584458Y-115567047D01*
X187857505Y-116294000D01*
X187498295Y-116294000D01*
X186771342Y-115567047D01*
X186539671Y-115624009D01*
X186412959Y-115987220D01*
X186236087Y-115560215D01*
X186063314Y-115387442D01*
X186950947Y-115387442D01*
X187677900Y-116114395D01*
X188404853Y-115387442D01*
X188347891Y-115155771D01*
X187861310Y-114986019D01*
X187346806Y-115015395D01*
X187007909Y-115155771D01*
X186950947Y-115387442D01*
X186063314Y-115387442D01*
X185871685Y-115195813D01*
X185503758Y-115043413D01*
X185162127Y-114701782D01*
X185098357Y-114606343D01*
X184720276Y-114353718D01*
X184386872Y-114287400D01*
X184386871Y-114287400D01*
X184274300Y-114265008D01*
X184161729Y-114287400D01*
X182979520Y-114287400D01*
X182873601Y-114181481D01*
X182332138Y-113957200D01*
X182182346Y-113957200D01*
X181377527Y-113152382D01*
X181313757Y-113056943D01*
X180935676Y-112804318D01*
X180602272Y-112738000D01*
X180602271Y-112738000D01*
X180489700Y-112715608D01*
X180377129Y-112738000D01*
X178080575Y-112738000D01*
X178042023Y-112544186D01*
X177716418Y-112056882D01*
X177556058Y-111949733D01*
X184607172Y-111949733D01*
X184661003Y-112178779D01*
X185138364Y-112344281D01*
X185642723Y-112314506D01*
X185970397Y-112178779D01*
X186024228Y-111949733D01*
X185315700Y-111241205D01*
X184607172Y-111949733D01*
X177556058Y-111949733D01*
X177229113Y-111731277D01*
X176654300Y-111616939D01*
X176079486Y-111731277D01*
X175592182Y-112056882D01*
X175378161Y-112377188D01*
X175066208Y-111987487D01*
X174560737Y-111709339D01*
X174469338Y-111689221D01*
X174241300Y-111810700D01*
X174241300Y-113830200D01*
X174261300Y-113830200D01*
X174261300Y-114084200D01*
X174241300Y-114084200D01*
X174241300Y-114104200D01*
X173987300Y-114104200D01*
X173987300Y-114084200D01*
X173967300Y-114084200D01*
X173967300Y-113830200D01*
X173987300Y-113830200D01*
X173987300Y-111810700D01*
X173759262Y-111689221D01*
X173667863Y-111709339D01*
X173162392Y-111987487D01*
X172850439Y-112377188D01*
X172636418Y-112056882D01*
X172149113Y-111731277D01*
X171574300Y-111616939D01*
X170999486Y-111731277D01*
X170512182Y-112056882D01*
X170186577Y-112544187D01*
X170101100Y-112973907D01*
X170101100Y-114940494D01*
X170186578Y-115370214D01*
X170431301Y-115736469D01*
X170431301Y-116232223D01*
X170408908Y-116344800D01*
X170497618Y-116790776D01*
X170573004Y-116903600D01*
X166549020Y-116903600D01*
X166293430Y-116648010D01*
X165929343Y-116497200D01*
X165535257Y-116497200D01*
X165227914Y-116624506D01*
X165352890Y-116499530D01*
X165503700Y-116135443D01*
X165503700Y-115741357D01*
X165352890Y-115377270D01*
X165074230Y-115098610D01*
X164710143Y-114947800D01*
X164316057Y-114947800D01*
X163951970Y-115098610D01*
X163899580Y-115151000D01*
X159513220Y-115151000D01*
X159587090Y-115077130D01*
X159737900Y-114713043D01*
X159737900Y-114318957D01*
X159587090Y-113954870D01*
X159308430Y-113676210D01*
X158944343Y-113525400D01*
X158550257Y-113525400D01*
X158186170Y-113676210D01*
X158133780Y-113728600D01*
X154026072Y-113728600D01*
X153733485Y-113436013D01*
X154172740Y-113348640D01*
X154601231Y-113062331D01*
X154887540Y-112633840D01*
X154937300Y-112383679D01*
X154987060Y-112633840D01*
X155273370Y-113062331D01*
X155701861Y-113348640D01*
X156207300Y-113449178D01*
X156712740Y-113348640D01*
X157141231Y-113062331D01*
X157427540Y-112633840D01*
X157477300Y-112383679D01*
X157527060Y-112633840D01*
X157813370Y-113062331D01*
X158241861Y-113348640D01*
X158747300Y-113449178D01*
X159252740Y-113348640D01*
X159681231Y-113062331D01*
X159967540Y-112633840D01*
X160017300Y-112383679D01*
X160067060Y-112633840D01*
X160353370Y-113062331D01*
X160781861Y-113348640D01*
X161287300Y-113449178D01*
X161792740Y-113348640D01*
X162221231Y-113062331D01*
X162507540Y-112633840D01*
X162557300Y-112383679D01*
X162607060Y-112633840D01*
X162893370Y-113062331D01*
X163321861Y-113348640D01*
X163827300Y-113449178D01*
X164332740Y-113348640D01*
X164761231Y-113062331D01*
X165047540Y-112633840D01*
X165102632Y-112356873D01*
X165219107Y-112741461D01*
X165541116Y-113134189D01*
X165988904Y-113373795D01*
X166040195Y-113381820D01*
X166240300Y-113257933D01*
X166240300Y-111595000D01*
X166494300Y-111595000D01*
X166494300Y-113257933D01*
X166694405Y-113381820D01*
X166745696Y-113373795D01*
X167193484Y-113134189D01*
X167515493Y-112741461D01*
X167662700Y-112255400D01*
X167662700Y-111595000D01*
X166494300Y-111595000D01*
X166240300Y-111595000D01*
X166220300Y-111595000D01*
X166220300Y-111341000D01*
X166240300Y-111341000D01*
X166240300Y-109678067D01*
X166494300Y-109678067D01*
X166494300Y-111341000D01*
X167662700Y-111341000D01*
X167662700Y-110884264D01*
X184033019Y-110884264D01*
X184062794Y-111388623D01*
X184198521Y-111716297D01*
X184427567Y-111770128D01*
X185136095Y-111061600D01*
X185495305Y-111061600D01*
X186203833Y-111770128D01*
X186260981Y-111756697D01*
X186271046Y-111780997D01*
X186628303Y-112138254D01*
X187095081Y-112331600D01*
X187600319Y-112331600D01*
X188067097Y-112138254D01*
X188424354Y-111780997D01*
X188617700Y-111314219D01*
X188617700Y-110808981D01*
X188424354Y-110342203D01*
X188067097Y-109984946D01*
X187600319Y-109791600D01*
X187095081Y-109791600D01*
X186628303Y-109984946D01*
X186271046Y-110342203D01*
X186260981Y-110366503D01*
X186203833Y-110353072D01*
X185495305Y-111061600D01*
X185136095Y-111061600D01*
X184427567Y-110353072D01*
X184198521Y-110406903D01*
X184033019Y-110884264D01*
X167662700Y-110884264D01*
X167662700Y-110680600D01*
X167515493Y-110194539D01*
X167498216Y-110173467D01*
X184607172Y-110173467D01*
X185315700Y-110881995D01*
X186024228Y-110173467D01*
X185970397Y-109944421D01*
X185493036Y-109778919D01*
X184988677Y-109808694D01*
X184661003Y-109944421D01*
X184607172Y-110173467D01*
X167498216Y-110173467D01*
X167193484Y-109801811D01*
X166745696Y-109562205D01*
X166694405Y-109554180D01*
X166494300Y-109678067D01*
X166240300Y-109678067D01*
X166040195Y-109554180D01*
X165988904Y-109562205D01*
X165541116Y-109801811D01*
X165219107Y-110194539D01*
X165102632Y-110579127D01*
X165047540Y-110302160D01*
X164761231Y-109873669D01*
X164332739Y-109587360D01*
X163827300Y-109486822D01*
X163321860Y-109587360D01*
X162893369Y-109873669D01*
X162607060Y-110302161D01*
X162557300Y-110552322D01*
X162507540Y-110302160D01*
X162221231Y-109873669D01*
X161792739Y-109587360D01*
X161287300Y-109486822D01*
X160781860Y-109587360D01*
X160353369Y-109873669D01*
X160067060Y-110302161D01*
X160017300Y-110552322D01*
X159967540Y-110302160D01*
X159681231Y-109873669D01*
X159252739Y-109587360D01*
X158747300Y-109486822D01*
X158241860Y-109587360D01*
X158142080Y-109654031D01*
X158213900Y-109480643D01*
X158213900Y-109086557D01*
X158063090Y-108722470D01*
X157784430Y-108443810D01*
X157420343Y-108293000D01*
X157026257Y-108293000D01*
X156662170Y-108443810D01*
X156609780Y-108496200D01*
X139244020Y-108496200D01*
X138988430Y-108240610D01*
X138624343Y-108089800D01*
X138230257Y-108089800D01*
X137866170Y-108240610D01*
X137587510Y-108519270D01*
X137436700Y-108883357D01*
X137436700Y-109004200D01*
X130633420Y-109004200D01*
X130581030Y-108951810D01*
X130216943Y-108801000D01*
X129822857Y-108801000D01*
X129458770Y-108951810D01*
X129180110Y-109230470D01*
X129029300Y-109594557D01*
X129029300Y-109988643D01*
X129180110Y-110352730D01*
X129458770Y-110631390D01*
X129577573Y-110680600D01*
X129388820Y-110680600D01*
X129336430Y-110628210D01*
X128972343Y-110477400D01*
X128578257Y-110477400D01*
X128214170Y-110628210D01*
X127935510Y-110906870D01*
X127784700Y-111270957D01*
X127784700Y-111665043D01*
X127935510Y-112029130D01*
X128214170Y-112307790D01*
X128578257Y-112458600D01*
X128972343Y-112458600D01*
X129336430Y-112307790D01*
X129388820Y-112255400D01*
X132051900Y-112255400D01*
X132051900Y-112255984D01*
X132127060Y-112633840D01*
X132413370Y-113062331D01*
X132761670Y-113295058D01*
X132658328Y-113398400D01*
X132309072Y-113398400D01*
X131998285Y-113087613D01*
X131522171Y-112890400D01*
X131006829Y-112890400D01*
X130530715Y-113087613D01*
X130166313Y-113452015D01*
X130019900Y-113805487D01*
X129873487Y-113452015D01*
X129509085Y-113087613D01*
X129032971Y-112890400D01*
X128517629Y-112890400D01*
X128041515Y-113087613D01*
X127677113Y-113452015D01*
X127479900Y-113928129D01*
X127479900Y-114443471D01*
X127677113Y-114919585D01*
X128041515Y-115283987D01*
X128517629Y-115481200D01*
X129032971Y-115481200D01*
X129509085Y-115283987D01*
X129873487Y-114919585D01*
X130019900Y-114566113D01*
X130166313Y-114919585D01*
X130530715Y-115283987D01*
X131006829Y-115481200D01*
X131522171Y-115481200D01*
X131998285Y-115283987D01*
X132309072Y-114973200D01*
X132658328Y-114973200D01*
X132969115Y-115283987D01*
X133445229Y-115481200D01*
X133960571Y-115481200D01*
X134436685Y-115283987D01*
X134747472Y-114973200D01*
X135273780Y-114973200D01*
X135326170Y-115025590D01*
X135690257Y-115176400D01*
X136084343Y-115176400D01*
X136448430Y-115025590D01*
X136617281Y-114856739D01*
X136643313Y-114919585D01*
X137007715Y-115283987D01*
X137483829Y-115481200D01*
X137542652Y-115481200D01*
X137485170Y-115505010D01*
X137206510Y-115783670D01*
X137055700Y-116147757D01*
X137055700Y-116541843D01*
X137206510Y-116905930D01*
X137254980Y-116954400D01*
X137206510Y-117002870D01*
X137058250Y-117360800D01*
X130376850Y-117360800D01*
X130299299Y-117345374D01*
X130221748Y-117360800D01*
X129992072Y-117406485D01*
X129756334Y-117564000D01*
X127913051Y-117564000D01*
X127835500Y-117548574D01*
X127757949Y-117564000D01*
X127757948Y-117564000D01*
X127528272Y-117609685D01*
X127267816Y-117783716D01*
X127223886Y-117849462D01*
X126810784Y-118262564D01*
X126771030Y-118222810D01*
X126406943Y-118072000D01*
X126012857Y-118072000D01*
X125648770Y-118222810D01*
X125370110Y-118501470D01*
X125337582Y-118580000D01*
X125269815Y-118580000D01*
X125123687Y-118227215D01*
X124759285Y-117862813D01*
X124283171Y-117665600D01*
X123767829Y-117665600D01*
X123291715Y-117862813D01*
X122980928Y-118173600D01*
X118687452Y-118173600D01*
X117313803Y-116799952D01*
X117370701Y-116714799D01*
X117578583Y-117025918D01*
X118065887Y-117351523D01*
X118640700Y-117465861D01*
X119215514Y-117351523D01*
X119702818Y-117025918D01*
X119910701Y-116714799D01*
X120118583Y-117025918D01*
X120605887Y-117351523D01*
X121180700Y-117465861D01*
X121755514Y-117351523D01*
X122242818Y-117025918D01*
X122568423Y-116538614D01*
X122653900Y-116108894D01*
X122653900Y-114142306D01*
X122568423Y-113712586D01*
X122242818Y-113225282D01*
X121755513Y-112899677D01*
X121180700Y-112785339D01*
X120605886Y-112899677D01*
X120118582Y-113225282D01*
X119910700Y-113536401D01*
X119702818Y-113225282D01*
X119215513Y-112899677D01*
X118640700Y-112785339D01*
X118065886Y-112899677D01*
X117578582Y-113225282D01*
X117370700Y-113536401D01*
X117162818Y-113225282D01*
X116675513Y-112899677D01*
X116100700Y-112785339D01*
X115525886Y-112899677D01*
X115038582Y-113225282D01*
X114712977Y-113712587D01*
X114627500Y-114142307D01*
X114627500Y-116108894D01*
X114674425Y-116344800D01*
X113509900Y-116344800D01*
X113509900Y-111730050D01*
X113525326Y-111652499D01*
X113488627Y-111468000D01*
X113464215Y-111345272D01*
X113290184Y-111084816D01*
X113287959Y-111083329D01*
X122730100Y-111083329D01*
X122730100Y-111598671D01*
X122927313Y-112074785D01*
X123291715Y-112439187D01*
X123767829Y-112636400D01*
X124283171Y-112636400D01*
X124759285Y-112439187D01*
X125070072Y-112128400D01*
X125545580Y-112128400D01*
X125597970Y-112180790D01*
X125962057Y-112331600D01*
X126356143Y-112331600D01*
X126720230Y-112180790D01*
X126998890Y-111902130D01*
X127149700Y-111538043D01*
X127149700Y-111143957D01*
X126998890Y-110779870D01*
X126720230Y-110501210D01*
X126356143Y-110350400D01*
X125962057Y-110350400D01*
X125597970Y-110501210D01*
X125545580Y-110553600D01*
X125070072Y-110553600D01*
X124759285Y-110242813D01*
X124283171Y-110045600D01*
X123767829Y-110045600D01*
X123291715Y-110242813D01*
X122927313Y-110607215D01*
X122730100Y-111083329D01*
X113287959Y-111083329D01*
X113224438Y-111040886D01*
X110015681Y-107832129D01*
X187246100Y-107832129D01*
X187246100Y-108347471D01*
X187443313Y-108823585D01*
X187807715Y-109187987D01*
X188283829Y-109385200D01*
X188799171Y-109385200D01*
X189275285Y-109187987D01*
X189639687Y-108823585D01*
X189836900Y-108347471D01*
X189836900Y-107832129D01*
X189687403Y-107471211D01*
X189710413Y-102546971D01*
X189705100Y-102519593D01*
X189705100Y-102427798D01*
X189671585Y-102346884D01*
X189645654Y-102213261D01*
X189566949Y-102094271D01*
X189531820Y-102009461D01*
X189469888Y-101947529D01*
X189394798Y-101834004D01*
X189276552Y-101754193D01*
X189211639Y-101689280D01*
X189130720Y-101655762D01*
X189017902Y-101579615D01*
X188878113Y-101551130D01*
X188793302Y-101516000D01*
X188705718Y-101516000D01*
X188572345Y-101488822D01*
X188432295Y-101516000D01*
X188340498Y-101516000D01*
X188259581Y-101549517D01*
X188125961Y-101575447D01*
X188006973Y-101654150D01*
X187922161Y-101689280D01*
X187860230Y-101751211D01*
X187746703Y-101826302D01*
X187666890Y-101944551D01*
X187601980Y-102009461D01*
X187568463Y-102090378D01*
X187492314Y-102203199D01*
X187463828Y-102342991D01*
X187428700Y-102427798D01*
X187428700Y-102515379D01*
X187424439Y-102536289D01*
X187401445Y-107457094D01*
X187246100Y-107832129D01*
X110015681Y-107832129D01*
X109868088Y-107684537D01*
X110125000Y-107064297D01*
X110125000Y-106075703D01*
X110009126Y-105795958D01*
X125736947Y-105795958D01*
X125793909Y-106027629D01*
X126280490Y-106197381D01*
X126794994Y-106168005D01*
X127133891Y-106027629D01*
X127190853Y-105795958D01*
X126463900Y-105069005D01*
X125736947Y-105795958D01*
X110009126Y-105795958D01*
X109746681Y-105162361D01*
X109290310Y-104705990D01*
X125155919Y-104705990D01*
X125185295Y-105220494D01*
X125325671Y-105559391D01*
X125557342Y-105616353D01*
X126284295Y-104889400D01*
X126643505Y-104889400D01*
X127370458Y-105616353D01*
X127602129Y-105559391D01*
X127728841Y-105196180D01*
X127905713Y-105623185D01*
X128270115Y-105987587D01*
X128746229Y-106184800D01*
X129261571Y-106184800D01*
X129737685Y-105987587D01*
X130102087Y-105623185D01*
X130299300Y-105147071D01*
X130299300Y-104631729D01*
X130102087Y-104155615D01*
X129737685Y-103791213D01*
X129261571Y-103594000D01*
X128746229Y-103594000D01*
X128270115Y-103791213D01*
X127905713Y-104155615D01*
X127740709Y-104553970D01*
X127602129Y-104219409D01*
X127370458Y-104162447D01*
X126643505Y-104889400D01*
X126284295Y-104889400D01*
X125557342Y-104162447D01*
X125325671Y-104219409D01*
X125155919Y-104705990D01*
X109290310Y-104705990D01*
X109047639Y-104463319D01*
X108443316Y-104213000D01*
X113633689Y-104213000D01*
X113723720Y-104303031D01*
X114104126Y-104460600D01*
X114515874Y-104460600D01*
X114896280Y-104303031D01*
X115187431Y-104011880D01*
X115199458Y-103982842D01*
X125736947Y-103982842D01*
X126463900Y-104709795D01*
X127190853Y-103982842D01*
X127133891Y-103751171D01*
X126647310Y-103581419D01*
X126132806Y-103610795D01*
X125793909Y-103751171D01*
X125736947Y-103982842D01*
X115199458Y-103982842D01*
X115345000Y-103631474D01*
X115345000Y-103219726D01*
X115187431Y-102839320D01*
X114896280Y-102548169D01*
X114515874Y-102390600D01*
X114104126Y-102390600D01*
X113723720Y-102548169D01*
X113633689Y-102638200D01*
X108346311Y-102638200D01*
X108256280Y-102548169D01*
X107875874Y-102390600D01*
X107464126Y-102390600D01*
X107083720Y-102548169D01*
X106792569Y-102839320D01*
X106635000Y-103219726D01*
X106635000Y-103631474D01*
X106792569Y-104011880D01*
X106947703Y-104167014D01*
X106232361Y-104463319D01*
X105533319Y-105162361D01*
X105155000Y-106075703D01*
X105155000Y-107064297D01*
X105533319Y-107977639D01*
X106232361Y-108676681D01*
X107145703Y-109055000D01*
X108134297Y-109055000D01*
X108754537Y-108798088D01*
X111935101Y-111978653D01*
X111935100Y-115897640D01*
X110277399Y-114239939D01*
X110277399Y-114197550D01*
X110292825Y-114119999D01*
X110268639Y-113998407D01*
X110231714Y-113812771D01*
X110057683Y-113552315D01*
X109991937Y-113508385D01*
X109868088Y-113384536D01*
X110125000Y-112764297D01*
X110125000Y-111775703D01*
X109746681Y-110862361D01*
X109047639Y-110163319D01*
X108134297Y-109785000D01*
X107145703Y-109785000D01*
X106232361Y-110163319D01*
X105607400Y-110788280D01*
X105607400Y-109327550D01*
X105622826Y-109249999D01*
X105590315Y-109086557D01*
X105561715Y-108942772D01*
X105387684Y-108682316D01*
X105321938Y-108638386D01*
X104368088Y-107684537D01*
X104625000Y-107064297D01*
X104625000Y-106075703D01*
X104246681Y-105162361D01*
X103547639Y-104463319D01*
X102634297Y-104085000D01*
X101645703Y-104085000D01*
X100732361Y-104463319D01*
X100033319Y-105162361D01*
X99655000Y-106075703D01*
X99655000Y-107064297D01*
X100033319Y-107977639D01*
X100732361Y-108676681D01*
X101645703Y-109055000D01*
X102634297Y-109055000D01*
X103254537Y-108798088D01*
X104032600Y-109576152D01*
X104032600Y-110648280D01*
X103547639Y-110163319D01*
X102634297Y-109785000D01*
X101645703Y-109785000D01*
X100732361Y-110163319D01*
X100033319Y-110862361D01*
X99655000Y-111775703D01*
X99655000Y-112764297D01*
X100033319Y-113677639D01*
X100732361Y-114376681D01*
X101645703Y-114755000D01*
X102634297Y-114755000D01*
X103547639Y-114376681D01*
X104032601Y-113891719D01*
X104032601Y-113912444D01*
X104017174Y-113990000D01*
X104071877Y-114265008D01*
X104078286Y-114297228D01*
X104252317Y-114557684D01*
X104318063Y-114601614D01*
X105278384Y-115561935D01*
X105322316Y-115627684D01*
X105480213Y-115733187D01*
X105582771Y-115801715D01*
X105890000Y-115862826D01*
X105967553Y-115847400D01*
X106270793Y-115847400D01*
X106232361Y-115863319D01*
X105533319Y-116562361D01*
X105155000Y-117475703D01*
X105155000Y-118464297D01*
X105533319Y-119377639D01*
X106232361Y-120076681D01*
X107145703Y-120455000D01*
X108134297Y-120455000D01*
X109047639Y-120076681D01*
X109746681Y-119377639D01*
X109982080Y-118809336D01*
X110330881Y-119158137D01*
X110374811Y-119223884D01*
X110635267Y-119397915D01*
X110864943Y-119443600D01*
X110942494Y-119459026D01*
X111020045Y-119443600D01*
X112635133Y-119443600D01*
X112123159Y-119955574D01*
X111782900Y-120777031D01*
X111782900Y-121666169D01*
X111785332Y-121672040D01*
X111474757Y-121513794D01*
X111474756Y-121513794D01*
X111474755Y-121513793D01*
X111263491Y-121445149D01*
X110843901Y-121378693D01*
X110749926Y-121360000D01*
X90349752Y-121360000D01*
X90040866Y-121311077D01*
X89806061Y-121191438D01*
X89619715Y-121005092D01*
X89500076Y-120770287D01*
X89450000Y-120454121D01*
X89450000Y-117545322D01*
X92705000Y-117545322D01*
X92705000Y-118394678D01*
X93030034Y-119179380D01*
X93630620Y-119779966D01*
X94415322Y-120105000D01*
X95264678Y-120105000D01*
X96049380Y-119779966D01*
X96649966Y-119179380D01*
X96975000Y-118394678D01*
X96975000Y-117545322D01*
X96649966Y-116760620D01*
X96049380Y-116160034D01*
X95264678Y-115835000D01*
X94415322Y-115835000D01*
X93630620Y-116160034D01*
X93030034Y-116760620D01*
X92705000Y-117545322D01*
X89450000Y-117545322D01*
X89450000Y-89549752D01*
X89498923Y-89240866D01*
X89618562Y-89006061D01*
X89804908Y-88819715D01*
X90039713Y-88700076D01*
X90355879Y-88650000D01*
X99569464Y-88650000D01*
X99395943Y-88765943D01*
X99332174Y-88861380D01*
X97361380Y-90832175D01*
X97265944Y-90895943D01*
X97116378Y-91119785D01*
X97013319Y-91274024D01*
X96924608Y-91720000D01*
X96947001Y-91832576D01*
X96947001Y-95887726D01*
X96649966Y-95170620D01*
X96049380Y-94570034D01*
X95264678Y-94245000D01*
X94415322Y-94245000D01*
X93630620Y-94570034D01*
X93030034Y-95170620D01*
X92705000Y-95955322D01*
X92705000Y-96804678D01*
X93030034Y-97589380D01*
X93630620Y-98189966D01*
X94415322Y-98515000D01*
X95264678Y-98515000D01*
X96049380Y-98189966D01*
X96649966Y-97589380D01*
X96947001Y-96872274D01*
X96947000Y-106077725D01*
X96649966Y-105360620D01*
X96049380Y-104760034D01*
X95264678Y-104435000D01*
X94415322Y-104435000D01*
X93630620Y-104760034D01*
X93030034Y-105360620D01*
X92705000Y-106145322D01*
X92705000Y-106994678D01*
X93030034Y-107779380D01*
X93630620Y-108379966D01*
X94415322Y-108705000D01*
X95264678Y-108705000D01*
X96049380Y-108379966D01*
X96649966Y-107779380D01*
X96947000Y-107062275D01*
X96947000Y-116673429D01*
X96924608Y-116786000D01*
X96947000Y-116898571D01*
X97013318Y-117231975D01*
X97265943Y-117610057D01*
X97361382Y-117673827D01*
X98386174Y-118698620D01*
X98449943Y-118794057D01*
X98828024Y-119046682D01*
X99161428Y-119113000D01*
X99161429Y-119113000D01*
X99274000Y-119135392D01*
X99386571Y-119113000D01*
X99642560Y-119113000D01*
X99642560Y-119820000D01*
X99691843Y-120067765D01*
X99832191Y-120277809D01*
X100042235Y-120418157D01*
X100290000Y-120467440D01*
X103990000Y-120467440D01*
X104237765Y-120418157D01*
X104447809Y-120277809D01*
X104588157Y-120067765D01*
X104637440Y-119820000D01*
X104637440Y-116120000D01*
X104588157Y-115872235D01*
X104447809Y-115662191D01*
X104237765Y-115521843D01*
X103990000Y-115472560D01*
X100290000Y-115472560D01*
X100042235Y-115521843D01*
X99832191Y-115662191D01*
X99691843Y-115872235D01*
X99642560Y-116120000D01*
X99642560Y-116722114D01*
X99233000Y-116312555D01*
X99233000Y-102228557D01*
X123746100Y-102228557D01*
X123746100Y-102622643D01*
X123896910Y-102986730D01*
X124175570Y-103265390D01*
X124539657Y-103416200D01*
X124933743Y-103416200D01*
X125297830Y-103265390D01*
X125485062Y-103078158D01*
X125838547Y-103078158D01*
X125895509Y-103309829D01*
X126382090Y-103479581D01*
X126896594Y-103450205D01*
X127235491Y-103309829D01*
X127292453Y-103078158D01*
X126565500Y-102351205D01*
X125838547Y-103078158D01*
X125485062Y-103078158D01*
X125576490Y-102986730D01*
X125617259Y-102888304D01*
X125658942Y-102898553D01*
X126385895Y-102171600D01*
X126745105Y-102171600D01*
X127472058Y-102898553D01*
X127703729Y-102841591D01*
X127783992Y-102611524D01*
X127905713Y-102905385D01*
X128270115Y-103269787D01*
X128746229Y-103467000D01*
X129261571Y-103467000D01*
X129737685Y-103269787D01*
X130102087Y-102905385D01*
X130299300Y-102429271D01*
X130299300Y-101913929D01*
X130102087Y-101437815D01*
X129737685Y-101073413D01*
X129415220Y-100939843D01*
X129565030Y-100877790D01*
X129668220Y-100774600D01*
X132251928Y-100774600D01*
X132613515Y-101136187D01*
X133089629Y-101333400D01*
X133604971Y-101333400D01*
X134081085Y-101136187D01*
X134445487Y-100771785D01*
X134642700Y-100295671D01*
X134642700Y-99780329D01*
X134445487Y-99304215D01*
X134081085Y-98939813D01*
X133682730Y-98774809D01*
X134017291Y-98636229D01*
X134074253Y-98404558D01*
X133347300Y-97677605D01*
X132620347Y-98404558D01*
X132677309Y-98636229D01*
X133040520Y-98762941D01*
X132613515Y-98939813D01*
X132251928Y-99301400D01*
X131344620Y-99301400D01*
X131570890Y-99075130D01*
X131721700Y-98711043D01*
X131721700Y-98316957D01*
X131570890Y-97952870D01*
X131292230Y-97674210D01*
X130928143Y-97523400D01*
X130534057Y-97523400D01*
X130169970Y-97674210D01*
X129891310Y-97952870D01*
X129740500Y-98316957D01*
X129740500Y-98711043D01*
X129891310Y-99075130D01*
X130117580Y-99301400D01*
X129668220Y-99301400D01*
X129565030Y-99198210D01*
X129200943Y-99047400D01*
X128806857Y-99047400D01*
X128442770Y-99198210D01*
X128164110Y-99476870D01*
X128013300Y-99840957D01*
X128013300Y-100235043D01*
X128164110Y-100599130D01*
X128442770Y-100877790D01*
X128592580Y-100939843D01*
X128270115Y-101073413D01*
X127905713Y-101437815D01*
X127791509Y-101713528D01*
X127703729Y-101501609D01*
X127472058Y-101444647D01*
X126745105Y-102171600D01*
X126385895Y-102171600D01*
X125658942Y-101444647D01*
X125427271Y-101501609D01*
X125372015Y-101659995D01*
X125297830Y-101585810D01*
X124933743Y-101435000D01*
X124539657Y-101435000D01*
X124175570Y-101585810D01*
X123896910Y-101864470D01*
X123746100Y-102228557D01*
X99233000Y-102228557D01*
X99233000Y-92193445D01*
X100693446Y-90733000D01*
X103226555Y-90733000D01*
X105264618Y-92771063D01*
X105155000Y-93035703D01*
X105155000Y-94024297D01*
X105533319Y-94937639D01*
X106088280Y-95492600D01*
X105216152Y-95492600D01*
X104368088Y-94644537D01*
X104625000Y-94024297D01*
X104625000Y-93035703D01*
X104246681Y-92122361D01*
X103547639Y-91423319D01*
X102634297Y-91045000D01*
X101645703Y-91045000D01*
X100732361Y-91423319D01*
X100033319Y-92122361D01*
X99655000Y-93035703D01*
X99655000Y-94024297D01*
X100033319Y-94937639D01*
X100732361Y-95636681D01*
X101645703Y-96015000D01*
X102634297Y-96015000D01*
X103254537Y-95758088D01*
X104278386Y-96781938D01*
X104311035Y-96830801D01*
X104237765Y-96781843D01*
X103990000Y-96732560D01*
X100290000Y-96732560D01*
X100042235Y-96781843D01*
X99832191Y-96922191D01*
X99691843Y-97132235D01*
X99642560Y-97380000D01*
X99642560Y-101080000D01*
X99691843Y-101327765D01*
X99832191Y-101537809D01*
X100042235Y-101678157D01*
X100290000Y-101727440D01*
X103990000Y-101727440D01*
X104237765Y-101678157D01*
X104447809Y-101537809D01*
X104588157Y-101327765D01*
X104637440Y-101080000D01*
X104637440Y-100996732D01*
X106052873Y-100996732D01*
X106255356Y-101351866D01*
X107172759Y-101720229D01*
X108161295Y-101709477D01*
X109024644Y-101351866D01*
X109074147Y-101265042D01*
X125838547Y-101265042D01*
X126565500Y-101991995D01*
X127292453Y-101265042D01*
X127235491Y-101033371D01*
X126748910Y-100863619D01*
X126234406Y-100892995D01*
X125895509Y-101033371D01*
X125838547Y-101265042D01*
X109074147Y-101265042D01*
X109227127Y-100996732D01*
X107640000Y-99409605D01*
X106052873Y-100996732D01*
X104637440Y-100996732D01*
X104637440Y-98762759D01*
X105149771Y-98762759D01*
X105160523Y-99751295D01*
X105518134Y-100614644D01*
X105873268Y-100817127D01*
X107460395Y-99230000D01*
X105873268Y-97642873D01*
X105518134Y-97845356D01*
X105149771Y-98762759D01*
X104637440Y-98762759D01*
X104637440Y-97380000D01*
X104588157Y-97132235D01*
X104459089Y-96939073D01*
X104582772Y-97021715D01*
X104812448Y-97067400D01*
X104889999Y-97082826D01*
X104967550Y-97067400D01*
X106353697Y-97067400D01*
X106255356Y-97108134D01*
X106052873Y-97463268D01*
X107640000Y-99050395D01*
X107654143Y-99036253D01*
X107833748Y-99215858D01*
X107819605Y-99230000D01*
X109406732Y-100817127D01*
X109761866Y-100614644D01*
X110130229Y-99697241D01*
X110119477Y-98708705D01*
X110119423Y-98708574D01*
X111798386Y-100387538D01*
X111842316Y-100453284D01*
X111923543Y-100507558D01*
X112102770Y-100627314D01*
X112102771Y-100627314D01*
X112102772Y-100627315D01*
X112332448Y-100673000D01*
X112409999Y-100688426D01*
X112487550Y-100673000D01*
X124834380Y-100673000D01*
X124886770Y-100725390D01*
X125250857Y-100876200D01*
X125644943Y-100876200D01*
X126009030Y-100725390D01*
X126287690Y-100446730D01*
X126438500Y-100082643D01*
X126438500Y-99688557D01*
X126287690Y-99324470D01*
X126009030Y-99045810D01*
X125644943Y-98895000D01*
X125250857Y-98895000D01*
X124886770Y-99045810D01*
X124834380Y-99098200D01*
X112736152Y-99098200D01*
X109416016Y-95778065D01*
X109372084Y-95712316D01*
X109132253Y-95552067D01*
X109746681Y-94937639D01*
X109856298Y-94673000D01*
X114881729Y-94673000D01*
X114994300Y-94695392D01*
X115106871Y-94673000D01*
X115106872Y-94673000D01*
X115440276Y-94606682D01*
X115818357Y-94354057D01*
X115882127Y-94258618D01*
X117692921Y-92447825D01*
X117788357Y-92384057D01*
X118040982Y-92005976D01*
X118107300Y-91672572D01*
X118107300Y-91672571D01*
X118129692Y-91560000D01*
X118107300Y-91447429D01*
X118107300Y-91284855D01*
X118236841Y-91723741D01*
X118580874Y-92149430D01*
X119061623Y-92411060D01*
X119135830Y-92426020D01*
X119351900Y-92303520D01*
X119351900Y-90436800D01*
X119331900Y-90436800D01*
X119331900Y-90182800D01*
X119351900Y-90182800D01*
X119351900Y-90162800D01*
X119605900Y-90162800D01*
X119605900Y-90182800D01*
X119625900Y-90182800D01*
X119625900Y-90436800D01*
X119605900Y-90436800D01*
X119605900Y-92303520D01*
X119821970Y-92426020D01*
X119896177Y-92411060D01*
X120376926Y-92149430D01*
X120720959Y-91723741D01*
X120737320Y-91668310D01*
X121011721Y-92078980D01*
X121079100Y-92124001D01*
X121079100Y-93265241D01*
X121060689Y-93357800D01*
X121133628Y-93724491D01*
X121301666Y-93975976D01*
X121341343Y-94035357D01*
X121652209Y-94243072D01*
X122018900Y-94316011D01*
X122111459Y-94297600D01*
X125270100Y-94297600D01*
X125270100Y-94590071D01*
X124937570Y-94727810D01*
X124658910Y-95006470D01*
X124508100Y-95370557D01*
X124508100Y-95764643D01*
X124658910Y-96128730D01*
X124937570Y-96407390D01*
X125301657Y-96558200D01*
X125695743Y-96558200D01*
X126059830Y-96407390D01*
X126112220Y-96355000D01*
X130451700Y-96355000D01*
X130451700Y-96475843D01*
X130602510Y-96839930D01*
X130881170Y-97118590D01*
X131245257Y-97269400D01*
X131639343Y-97269400D01*
X132003430Y-97118590D01*
X132163561Y-96958459D01*
X132039319Y-97314590D01*
X132068695Y-97829094D01*
X132209071Y-98167991D01*
X132440742Y-98224953D01*
X133167695Y-97498000D01*
X133153553Y-97483858D01*
X133333158Y-97304253D01*
X133347300Y-97318395D01*
X133361443Y-97304253D01*
X133541048Y-97483858D01*
X133526905Y-97498000D01*
X134253858Y-98224953D01*
X134485529Y-98167991D01*
X134655281Y-97681410D01*
X134625905Y-97166906D01*
X134500023Y-96863000D01*
X135857489Y-96863000D01*
X135732569Y-96987920D01*
X135575000Y-97368326D01*
X135575000Y-97780074D01*
X135732569Y-98160480D01*
X136023720Y-98451631D01*
X136404126Y-98609200D01*
X136815874Y-98609200D01*
X137196280Y-98451631D01*
X137286311Y-98361600D01*
X139849700Y-98361600D01*
X139849700Y-98847871D01*
X140037558Y-99301400D01*
X137516820Y-99301400D01*
X137413630Y-99198210D01*
X137049543Y-99047400D01*
X136655457Y-99047400D01*
X136291370Y-99198210D01*
X136012710Y-99476870D01*
X135861900Y-99840957D01*
X135861900Y-100235043D01*
X136012710Y-100599130D01*
X136291370Y-100877790D01*
X136655457Y-101028600D01*
X137004900Y-101028600D01*
X137004900Y-101337071D01*
X137202113Y-101813185D01*
X137566515Y-102177587D01*
X137591651Y-102187999D01*
X137493369Y-102253669D01*
X137207060Y-102682161D01*
X137157300Y-102932322D01*
X137107540Y-102682160D01*
X136821231Y-102253669D01*
X136392739Y-101967360D01*
X135887300Y-101866822D01*
X135381860Y-101967360D01*
X134953369Y-102253669D01*
X134667060Y-102682161D01*
X134617300Y-102932322D01*
X134567540Y-102682160D01*
X134281231Y-102253669D01*
X133852739Y-101967360D01*
X133347300Y-101866822D01*
X132841860Y-101967360D01*
X132413369Y-102253669D01*
X132127060Y-102682161D01*
X132051900Y-103060017D01*
X132051900Y-104635984D01*
X132127060Y-105013840D01*
X132413370Y-105442331D01*
X132841861Y-105728640D01*
X133347300Y-105829178D01*
X133852740Y-105728640D01*
X134281231Y-105442331D01*
X134567540Y-105013840D01*
X134617300Y-104763679D01*
X134667060Y-105013840D01*
X134953370Y-105442331D01*
X135381861Y-105728640D01*
X135887300Y-105829178D01*
X136392740Y-105728640D01*
X136821231Y-105442331D01*
X137107540Y-105013840D01*
X137157300Y-104763679D01*
X137207060Y-105013840D01*
X137493370Y-105442331D01*
X137921861Y-105728640D01*
X138427300Y-105829178D01*
X138932740Y-105728640D01*
X139361231Y-105442331D01*
X139647540Y-105013840D01*
X139697300Y-104763679D01*
X139747060Y-105013840D01*
X140033370Y-105442331D01*
X140461861Y-105728640D01*
X140967300Y-105829178D01*
X141472740Y-105728640D01*
X141901231Y-105442331D01*
X142187540Y-105013840D01*
X142237300Y-104763679D01*
X142287060Y-105013840D01*
X142573370Y-105442331D01*
X143001861Y-105728640D01*
X143507300Y-105829178D01*
X144012740Y-105728640D01*
X144441231Y-105442331D01*
X144727540Y-105013840D01*
X144777300Y-104763679D01*
X144827060Y-105013840D01*
X145113370Y-105442331D01*
X145541861Y-105728640D01*
X146047300Y-105829178D01*
X146552740Y-105728640D01*
X146981231Y-105442331D01*
X147267540Y-105013840D01*
X147317300Y-104763679D01*
X147367060Y-105013840D01*
X147653370Y-105442331D01*
X148081861Y-105728640D01*
X148587300Y-105829178D01*
X149092740Y-105728640D01*
X149521231Y-105442331D01*
X149807540Y-105013840D01*
X149857300Y-104763679D01*
X149907060Y-105013840D01*
X150193370Y-105442331D01*
X150621861Y-105728640D01*
X151127300Y-105829178D01*
X151632740Y-105728640D01*
X152061231Y-105442331D01*
X152347540Y-105013840D01*
X152397300Y-104763679D01*
X152447060Y-105013840D01*
X152733370Y-105442331D01*
X153161861Y-105728640D01*
X153667300Y-105829178D01*
X154172740Y-105728640D01*
X154601231Y-105442331D01*
X154887540Y-105013840D01*
X154937300Y-104763679D01*
X154987060Y-105013840D01*
X155273370Y-105442331D01*
X155701861Y-105728640D01*
X156207300Y-105829178D01*
X156712740Y-105728640D01*
X157141231Y-105442331D01*
X157427540Y-105013840D01*
X157477300Y-104763679D01*
X157527060Y-105013840D01*
X157813370Y-105442331D01*
X158241861Y-105728640D01*
X158747300Y-105829178D01*
X159252740Y-105728640D01*
X159681231Y-105442331D01*
X159967540Y-105013840D01*
X160017300Y-104763679D01*
X160067060Y-105013840D01*
X160353370Y-105442331D01*
X160781861Y-105728640D01*
X161287300Y-105829178D01*
X161792740Y-105728640D01*
X162221231Y-105442331D01*
X162507540Y-105013840D01*
X162557300Y-104763679D01*
X162607060Y-105013840D01*
X162893370Y-105442331D01*
X163321861Y-105728640D01*
X163827300Y-105829178D01*
X164332740Y-105728640D01*
X164761231Y-105442331D01*
X165047540Y-105013840D01*
X165097300Y-104763679D01*
X165147060Y-105013840D01*
X165433370Y-105442331D01*
X165861861Y-105728640D01*
X166367300Y-105829178D01*
X166872740Y-105728640D01*
X167301231Y-105442331D01*
X167587540Y-105013840D01*
X167594795Y-104977362D01*
X180565900Y-104977362D01*
X180565900Y-105563438D01*
X180790181Y-106104901D01*
X181204599Y-106519319D01*
X181746062Y-106743600D01*
X182332138Y-106743600D01*
X182873601Y-106519319D01*
X183288019Y-106104901D01*
X183512300Y-105563438D01*
X183512300Y-104977362D01*
X183288019Y-104435899D01*
X182873601Y-104021481D01*
X182332138Y-103797200D01*
X182138773Y-103797200D01*
X182150291Y-103792429D01*
X182207253Y-103560758D01*
X181480300Y-102833805D01*
X180753347Y-103560758D01*
X180810309Y-103792429D01*
X181296890Y-103962181D01*
X181355895Y-103958812D01*
X181204599Y-104021481D01*
X180790181Y-104435899D01*
X180565900Y-104977362D01*
X167594795Y-104977362D01*
X167662700Y-104635984D01*
X167662700Y-103060016D01*
X167587540Y-102682160D01*
X167446307Y-102470790D01*
X180172319Y-102470790D01*
X180201695Y-102985294D01*
X180342071Y-103324191D01*
X180573742Y-103381153D01*
X181300695Y-102654200D01*
X181659905Y-102654200D01*
X182386858Y-103381153D01*
X182618529Y-103324191D01*
X182745241Y-102960980D01*
X182922113Y-103387985D01*
X183286515Y-103752387D01*
X183762629Y-103949600D01*
X184277971Y-103949600D01*
X184754085Y-103752387D01*
X185118487Y-103387985D01*
X185315700Y-102911871D01*
X185315700Y-102396529D01*
X185118487Y-101920415D01*
X184754085Y-101556013D01*
X184277971Y-101358800D01*
X183762629Y-101358800D01*
X183286515Y-101556013D01*
X182922113Y-101920415D01*
X182757109Y-102318770D01*
X182618529Y-101984209D01*
X182386858Y-101927247D01*
X181659905Y-102654200D01*
X181300695Y-102654200D01*
X180573742Y-101927247D01*
X180342071Y-101984209D01*
X180172319Y-102470790D01*
X167446307Y-102470790D01*
X167301231Y-102253669D01*
X166872739Y-101967360D01*
X166367300Y-101866822D01*
X165861860Y-101967360D01*
X165433369Y-102253669D01*
X165147060Y-102682161D01*
X165097300Y-102932322D01*
X165047540Y-102682160D01*
X164761231Y-102253669D01*
X164332739Y-101967360D01*
X163827300Y-101866822D01*
X163321860Y-101967360D01*
X162893369Y-102253669D01*
X162607060Y-102682161D01*
X162557300Y-102932322D01*
X162507540Y-102682160D01*
X162221231Y-102253669D01*
X161792739Y-101967360D01*
X161287300Y-101866822D01*
X160781860Y-101967360D01*
X160353369Y-102253669D01*
X160067060Y-102682161D01*
X160017300Y-102932322D01*
X159967540Y-102682160D01*
X159681231Y-102253669D01*
X159252739Y-101967360D01*
X158747300Y-101866822D01*
X158241860Y-101967360D01*
X157813369Y-102253669D01*
X157527060Y-102682161D01*
X157477300Y-102932322D01*
X157427540Y-102682160D01*
X157141231Y-102253669D01*
X156712739Y-101967360D01*
X156207300Y-101866822D01*
X155701860Y-101967360D01*
X155273369Y-102253669D01*
X154987060Y-102682161D01*
X154937300Y-102932322D01*
X154887540Y-102682160D01*
X154601231Y-102253669D01*
X154172739Y-101967360D01*
X153667300Y-101866822D01*
X153161860Y-101967360D01*
X152733369Y-102253669D01*
X152447060Y-102682161D01*
X152397300Y-102932322D01*
X152347540Y-102682160D01*
X152061231Y-102253669D01*
X151632739Y-101967360D01*
X151127300Y-101866822D01*
X150621860Y-101967360D01*
X150193369Y-102253669D01*
X149907060Y-102682161D01*
X149857300Y-102932322D01*
X149807540Y-102682160D01*
X149521231Y-102253669D01*
X149092739Y-101967360D01*
X148907715Y-101930557D01*
X149025087Y-101813185D01*
X149222300Y-101337071D01*
X149222300Y-100850800D01*
X153053780Y-100850800D01*
X153106170Y-100903190D01*
X153470257Y-101054000D01*
X153864343Y-101054000D01*
X154228430Y-100903190D01*
X154507090Y-100624530D01*
X154646349Y-100288329D01*
X154810300Y-100288329D01*
X154810300Y-100803671D01*
X155007513Y-101279785D01*
X155371915Y-101644187D01*
X155848029Y-101841400D01*
X156363371Y-101841400D01*
X156839485Y-101644187D01*
X157203887Y-101279785D01*
X157401100Y-100803671D01*
X157401100Y-100628357D01*
X157756700Y-100628357D01*
X157756700Y-101022443D01*
X157907510Y-101386530D01*
X158186170Y-101665190D01*
X158550257Y-101816000D01*
X158944343Y-101816000D01*
X159308430Y-101665190D01*
X159360820Y-101612800D01*
X161538128Y-101612800D01*
X161848915Y-101923587D01*
X162325029Y-102120800D01*
X162840371Y-102120800D01*
X163316485Y-101923587D01*
X163492430Y-101747642D01*
X180753347Y-101747642D01*
X181480300Y-102474595D01*
X182207253Y-101747642D01*
X182150291Y-101515971D01*
X181663710Y-101346219D01*
X181149206Y-101375595D01*
X180810309Y-101515971D01*
X180753347Y-101747642D01*
X163492430Y-101747642D01*
X163680887Y-101559185D01*
X163878100Y-101083071D01*
X163878100Y-100567729D01*
X163680887Y-100091615D01*
X163316485Y-99727213D01*
X162840371Y-99530000D01*
X162325029Y-99530000D01*
X161848915Y-99727213D01*
X161538128Y-100038000D01*
X159360820Y-100038000D01*
X159308430Y-99985610D01*
X158944343Y-99834800D01*
X158550257Y-99834800D01*
X158186170Y-99985610D01*
X157907510Y-100264270D01*
X157756700Y-100628357D01*
X157401100Y-100628357D01*
X157401100Y-100288329D01*
X157203887Y-99812215D01*
X156839485Y-99447813D01*
X156773686Y-99420558D01*
X158629947Y-99420558D01*
X158686909Y-99652229D01*
X159173490Y-99821981D01*
X159687994Y-99792605D01*
X160026891Y-99652229D01*
X160083853Y-99420558D01*
X159913028Y-99249733D01*
X181533772Y-99249733D01*
X181587603Y-99478779D01*
X182064964Y-99644281D01*
X182569323Y-99614506D01*
X182896997Y-99478779D01*
X182950828Y-99249733D01*
X182242300Y-98541205D01*
X181533772Y-99249733D01*
X159913028Y-99249733D01*
X159356900Y-98693605D01*
X158629947Y-99420558D01*
X156773686Y-99420558D01*
X156363371Y-99250600D01*
X155848029Y-99250600D01*
X155371915Y-99447813D01*
X155007513Y-99812215D01*
X154810300Y-100288329D01*
X154646349Y-100288329D01*
X154657900Y-100260443D01*
X154657900Y-99866357D01*
X154507090Y-99502270D01*
X154228430Y-99223610D01*
X153864343Y-99072800D01*
X153470257Y-99072800D01*
X153106170Y-99223610D01*
X153053780Y-99276000D01*
X147897451Y-99276000D01*
X147700316Y-99078865D01*
X147656384Y-99013116D01*
X147395928Y-98839085D01*
X147166252Y-98793400D01*
X147166251Y-98793400D01*
X147088700Y-98777974D01*
X147011149Y-98793400D01*
X144730420Y-98793400D01*
X144474830Y-98537810D01*
X144110743Y-98387000D01*
X143716657Y-98387000D01*
X143352570Y-98537810D01*
X143073910Y-98816470D01*
X142923100Y-99180557D01*
X142923100Y-99301400D01*
X142252642Y-99301400D01*
X142440500Y-98847871D01*
X142440500Y-98361600D01*
X145433780Y-98361600D01*
X145486170Y-98413990D01*
X145850257Y-98564800D01*
X146244343Y-98564800D01*
X146608430Y-98413990D01*
X146887090Y-98135330D01*
X147037900Y-97771243D01*
X147037900Y-97686327D01*
X147087110Y-97805130D01*
X147365770Y-98083790D01*
X147729857Y-98234600D01*
X148123943Y-98234600D01*
X148292946Y-98164596D01*
X148318566Y-98181715D01*
X148548242Y-98227400D01*
X148548243Y-98227400D01*
X148625794Y-98242826D01*
X148703345Y-98227400D01*
X158084919Y-98227400D01*
X158048919Y-98330590D01*
X158078295Y-98845094D01*
X158218671Y-99183991D01*
X158450342Y-99240953D01*
X159177295Y-98514000D01*
X159163153Y-98499858D01*
X159342758Y-98320253D01*
X159356900Y-98334395D01*
X159371043Y-98320253D01*
X159550648Y-98499858D01*
X159536505Y-98514000D01*
X160263458Y-99240953D01*
X160495129Y-99183991D01*
X160664881Y-98697410D01*
X160638045Y-98227400D01*
X167262149Y-98227400D01*
X167339700Y-98242826D01*
X167381055Y-98234600D01*
X167732743Y-98234600D01*
X167854264Y-98184264D01*
X180959619Y-98184264D01*
X180989394Y-98688623D01*
X181125121Y-99016297D01*
X181354167Y-99070128D01*
X182062695Y-98361600D01*
X182421905Y-98361600D01*
X183130433Y-99070128D01*
X183187581Y-99056697D01*
X183197646Y-99080997D01*
X183554903Y-99438254D01*
X184021681Y-99631600D01*
X184526919Y-99631600D01*
X184993697Y-99438254D01*
X185350954Y-99080997D01*
X185544300Y-98614219D01*
X185544300Y-98108981D01*
X185350954Y-97642203D01*
X184993697Y-97284946D01*
X184526919Y-97091600D01*
X184021681Y-97091600D01*
X183554903Y-97284946D01*
X183197646Y-97642203D01*
X183187581Y-97666503D01*
X183130433Y-97653072D01*
X182421905Y-98361600D01*
X182062695Y-98361600D01*
X181354167Y-97653072D01*
X181125121Y-97706903D01*
X180959619Y-98184264D01*
X167854264Y-98184264D01*
X168096830Y-98083790D01*
X168375490Y-97805130D01*
X168512869Y-97473467D01*
X181533772Y-97473467D01*
X182242300Y-98181995D01*
X182950828Y-97473467D01*
X182896997Y-97244421D01*
X182419636Y-97078919D01*
X181915277Y-97108694D01*
X181587603Y-97244421D01*
X181533772Y-97473467D01*
X168512869Y-97473467D01*
X168526300Y-97441043D01*
X168526300Y-97046957D01*
X168375490Y-96682870D01*
X168096830Y-96404210D01*
X167732743Y-96253400D01*
X167338657Y-96253400D01*
X166974570Y-96404210D01*
X166726180Y-96652600D01*
X160477945Y-96652600D01*
X160652300Y-96231671D01*
X160652300Y-95716329D01*
X160455087Y-95240215D01*
X160090685Y-94875813D01*
X159614571Y-94678600D01*
X159175051Y-94678600D01*
X159028716Y-94532265D01*
X158984784Y-94466516D01*
X158724328Y-94292485D01*
X158494652Y-94246800D01*
X158494651Y-94246800D01*
X158417100Y-94231374D01*
X158339549Y-94246800D01*
X154325161Y-94246800D01*
X154437981Y-93923410D01*
X154432794Y-93832558D01*
X155378747Y-93832558D01*
X155435709Y-94064229D01*
X155922290Y-94233981D01*
X156436794Y-94204605D01*
X156775691Y-94064229D01*
X156832653Y-93832558D01*
X156105700Y-93105605D01*
X155378747Y-93832558D01*
X154432794Y-93832558D01*
X154408605Y-93408906D01*
X154268229Y-93070009D01*
X154036558Y-93013047D01*
X153309605Y-93740000D01*
X153323748Y-93754143D01*
X153144143Y-93933748D01*
X153130000Y-93919605D01*
X153115858Y-93933748D01*
X152936253Y-93754143D01*
X152950395Y-93740000D01*
X152223442Y-93013047D01*
X151991771Y-93070009D01*
X151822019Y-93556590D01*
X151851395Y-94071094D01*
X151924175Y-94246800D01*
X150644700Y-94246800D01*
X150644700Y-94049757D01*
X150641711Y-94042540D01*
X151850809Y-92833442D01*
X152403047Y-92833442D01*
X153130000Y-93560395D01*
X153856953Y-92833442D01*
X153799991Y-92601771D01*
X153313410Y-92432019D01*
X152798906Y-92461395D01*
X152460009Y-92601771D01*
X152403047Y-92833442D01*
X151850809Y-92833442D01*
X152239652Y-92444600D01*
X152498900Y-92496168D01*
X153043982Y-92387744D01*
X153506080Y-92078980D01*
X153768901Y-91685641D01*
X154031721Y-92078980D01*
X154493819Y-92387744D01*
X154893759Y-92467298D01*
X154797719Y-92742590D01*
X154827095Y-93257094D01*
X154967471Y-93595991D01*
X155199142Y-93652953D01*
X155926095Y-92926000D01*
X155911953Y-92911858D01*
X156091558Y-92732253D01*
X156105700Y-92746395D01*
X156119843Y-92732253D01*
X156299448Y-92911858D01*
X156285305Y-92926000D01*
X157012258Y-93652953D01*
X157243929Y-93595991D01*
X157413681Y-93109410D01*
X157407912Y-93008357D01*
X158366300Y-93008357D01*
X158366300Y-93402443D01*
X158517110Y-93766530D01*
X158795770Y-94045190D01*
X159159857Y-94196000D01*
X159553943Y-94196000D01*
X159918030Y-94045190D01*
X159970420Y-93992800D01*
X161538128Y-93992800D01*
X161848915Y-94303587D01*
X162325029Y-94500800D01*
X162840371Y-94500800D01*
X163316485Y-94303587D01*
X163480859Y-94139213D01*
X172699692Y-94139213D01*
X172778517Y-94389290D01*
X173329597Y-94588777D01*
X173915069Y-94562189D01*
X174332483Y-94389290D01*
X174411308Y-94139213D01*
X173555500Y-93283405D01*
X172699692Y-94139213D01*
X163480859Y-94139213D01*
X163680887Y-93939185D01*
X163878100Y-93463071D01*
X163878100Y-92947729D01*
X163849175Y-92877897D01*
X172070523Y-92877897D01*
X172097111Y-93463369D01*
X172270010Y-93880783D01*
X172520087Y-93959608D01*
X173375895Y-93103800D01*
X173735105Y-93103800D01*
X174590913Y-93959608D01*
X174840990Y-93880783D01*
X175040477Y-93329703D01*
X175013889Y-92744231D01*
X174840990Y-92326817D01*
X174590913Y-92247992D01*
X173735105Y-93103800D01*
X173375895Y-93103800D01*
X172520087Y-92247992D01*
X172270010Y-92326817D01*
X172070523Y-92877897D01*
X163849175Y-92877897D01*
X163680887Y-92471615D01*
X163316485Y-92107213D01*
X163222751Y-92068387D01*
X172699692Y-92068387D01*
X173555500Y-92924195D01*
X174411308Y-92068387D01*
X174332483Y-91818310D01*
X173781403Y-91618823D01*
X173195931Y-91645411D01*
X172778517Y-91818310D01*
X172699692Y-92068387D01*
X163222751Y-92068387D01*
X162840371Y-91910000D01*
X162325029Y-91910000D01*
X161848915Y-92107213D01*
X161538128Y-92418000D01*
X159970420Y-92418000D01*
X159918030Y-92365610D01*
X159553943Y-92214800D01*
X159159857Y-92214800D01*
X158795770Y-92365610D01*
X158517110Y-92644270D01*
X158366300Y-93008357D01*
X157407912Y-93008357D01*
X157384305Y-92594906D01*
X157299417Y-92389969D01*
X157451900Y-92303520D01*
X157451900Y-90436800D01*
X157705900Y-90436800D01*
X157705900Y-92303520D01*
X157921970Y-92426020D01*
X157996177Y-92411060D01*
X158476926Y-92149430D01*
X158820959Y-91723741D01*
X158975900Y-91198800D01*
X158975900Y-90436800D01*
X157705900Y-90436800D01*
X157451900Y-90436800D01*
X157431900Y-90436800D01*
X157431900Y-90182800D01*
X157451900Y-90182800D01*
X157451900Y-90162800D01*
X157705900Y-90162800D01*
X157705900Y-90182800D01*
X158975900Y-90182800D01*
X158975900Y-89420800D01*
X158915924Y-89217600D01*
X160164224Y-89217600D01*
X159994715Y-89287813D01*
X159630313Y-89652215D01*
X159433100Y-90128329D01*
X159433100Y-90643671D01*
X159630313Y-91119785D01*
X159994715Y-91484187D01*
X160470829Y-91681400D01*
X160986171Y-91681400D01*
X161462285Y-91484187D01*
X161826687Y-91119785D01*
X162023900Y-90643671D01*
X162023900Y-90128329D01*
X161826687Y-89652215D01*
X161462285Y-89287813D01*
X161292776Y-89217600D01*
X167784224Y-89217600D01*
X167614715Y-89287813D01*
X167250313Y-89652215D01*
X167053100Y-90128329D01*
X167053100Y-90643671D01*
X167250313Y-91119785D01*
X167614715Y-91484187D01*
X168090829Y-91681400D01*
X168606171Y-91681400D01*
X169082285Y-91484187D01*
X169446687Y-91119785D01*
X169643900Y-90643671D01*
X169643900Y-90128329D01*
X169446687Y-89652215D01*
X169082285Y-89287813D01*
X168912776Y-89217600D01*
X171913655Y-89217600D01*
X172115103Y-89419048D01*
X172056900Y-89559562D01*
X172056900Y-90145638D01*
X172281181Y-90687101D01*
X172695599Y-91101519D01*
X173237062Y-91325800D01*
X173823138Y-91325800D01*
X174364601Y-91101519D01*
X174779019Y-90687101D01*
X175003300Y-90145638D01*
X175003300Y-89559562D01*
X182216900Y-89559562D01*
X182216900Y-90145638D01*
X182441181Y-90687101D01*
X182855599Y-91101519D01*
X183397062Y-91325800D01*
X183546855Y-91325800D01*
X183851655Y-91630600D01*
X183422462Y-91630600D01*
X182880999Y-91854881D01*
X182466581Y-92269299D01*
X182242300Y-92810762D01*
X182242300Y-93396838D01*
X182466581Y-93938301D01*
X182880999Y-94352719D01*
X183422462Y-94577000D01*
X184008538Y-94577000D01*
X184550001Y-94352719D01*
X184964419Y-93938301D01*
X185188700Y-93396838D01*
X185188700Y-92967645D01*
X187277464Y-95056410D01*
X187246100Y-95132129D01*
X187246100Y-95647471D01*
X187443313Y-96123585D01*
X187807715Y-96487987D01*
X188283829Y-96685200D01*
X188799171Y-96685200D01*
X189275285Y-96487987D01*
X189639687Y-96123585D01*
X189836900Y-95647471D01*
X189836900Y-95132129D01*
X189691537Y-94781193D01*
X189706892Y-94704000D01*
X189618182Y-94258023D01*
X189508852Y-94094400D01*
X189365557Y-93879943D01*
X189270121Y-93816175D01*
X185163300Y-89709355D01*
X185163300Y-89559562D01*
X184939019Y-89018099D01*
X184524601Y-88603681D01*
X183983138Y-88379400D01*
X183397062Y-88379400D01*
X182855599Y-88603681D01*
X182441181Y-89018099D01*
X182216900Y-89559562D01*
X175003300Y-89559562D01*
X174779019Y-89018099D01*
X174625215Y-88864295D01*
X174606782Y-88771624D01*
X174354157Y-88393543D01*
X174258721Y-88329775D01*
X173274927Y-87345982D01*
X173211157Y-87250543D01*
X172955921Y-87080000D01*
X189810248Y-87080000D01*
X190119134Y-87128923D01*
X190119134Y-87128923D01*
G37*
X190119134Y-87128923D02*
X190353939Y-87248562D01*
X190540285Y-87434908D01*
X190659924Y-87669713D01*
X190710011Y-87985949D01*
X190710282Y-88911415D01*
X190213926Y-88415059D01*
X189392469Y-88074800D01*
X188503331Y-88074800D01*
X187681874Y-88415059D01*
X187053159Y-89043774D01*
X186712900Y-89865231D01*
X186712900Y-90754369D01*
X187053159Y-91575826D01*
X187681874Y-92204541D01*
X188503331Y-92544800D01*
X189392469Y-92544800D01*
X190213926Y-92204541D01*
X190711102Y-91707365D01*
X190719345Y-119832278D01*
X190213926Y-119326859D01*
X189392469Y-118986600D01*
X188503331Y-118986600D01*
X187681874Y-119326859D01*
X187053159Y-119955574D01*
X186712900Y-120777031D01*
X186712900Y-121666169D01*
X187053159Y-122487626D01*
X187485533Y-122920000D01*
X154029472Y-122920000D01*
X154079687Y-122869785D01*
X154276900Y-122393671D01*
X154276900Y-121878329D01*
X154079687Y-121402215D01*
X153715285Y-121037813D01*
X153239171Y-120840600D01*
X152723829Y-120840600D01*
X152247715Y-121037813D01*
X151883313Y-121402215D01*
X151686100Y-121878329D01*
X151686100Y-122393671D01*
X151883313Y-122869785D01*
X151933528Y-122920000D01*
X141008199Y-122920000D01*
X141059253Y-122712358D01*
X140332300Y-121985405D01*
X139605347Y-122712358D01*
X139656401Y-122920000D01*
X138436626Y-122920000D01*
X138475285Y-122903987D01*
X138839687Y-122539585D01*
X139036900Y-122063471D01*
X139036900Y-121842739D01*
X139053695Y-122136894D01*
X139194071Y-122475791D01*
X139425742Y-122532753D01*
X140152695Y-121805800D01*
X140511905Y-121805800D01*
X141238858Y-122532753D01*
X141470529Y-122475791D01*
X141640281Y-121989210D01*
X141610905Y-121474706D01*
X141470529Y-121135809D01*
X141238858Y-121078847D01*
X140511905Y-121805800D01*
X140152695Y-121805800D01*
X139425742Y-121078847D01*
X139194071Y-121135809D01*
X139036900Y-121586328D01*
X139036900Y-121548129D01*
X138839687Y-121072015D01*
X138666914Y-120899242D01*
X139605347Y-120899242D01*
X140332300Y-121626195D01*
X141059253Y-120899242D01*
X141036662Y-120807358D01*
X143313747Y-120807358D01*
X143370709Y-121039029D01*
X143857290Y-121208781D01*
X144371794Y-121179405D01*
X144710691Y-121039029D01*
X144767653Y-120807358D01*
X144040700Y-120080405D01*
X143313747Y-120807358D01*
X141036662Y-120807358D01*
X141002291Y-120667571D01*
X140515710Y-120497819D01*
X140001206Y-120527195D01*
X139662309Y-120667571D01*
X139605347Y-120899242D01*
X138666914Y-120899242D01*
X138475285Y-120707613D01*
X137999171Y-120510400D01*
X137483829Y-120510400D01*
X137007715Y-120707613D01*
X136643313Y-121072015D01*
X136446100Y-121548129D01*
X136446100Y-122063471D01*
X136643313Y-122539585D01*
X137007715Y-122903987D01*
X137046374Y-122920000D01*
X134398026Y-122920000D01*
X134436685Y-122903987D01*
X134801087Y-122539585D01*
X134998300Y-122063471D01*
X134998300Y-121548129D01*
X134801087Y-121072015D01*
X134436685Y-120707613D01*
X133960571Y-120510400D01*
X133445229Y-120510400D01*
X132969115Y-120707613D01*
X132604713Y-121072015D01*
X132483700Y-121364166D01*
X132362687Y-121072015D01*
X132160594Y-120869922D01*
X132280500Y-120580443D01*
X132280500Y-120459600D01*
X138702780Y-120459600D01*
X138755170Y-120511990D01*
X139119257Y-120662800D01*
X139513343Y-120662800D01*
X139877430Y-120511990D01*
X140156090Y-120233330D01*
X140306900Y-119869243D01*
X140306900Y-119475157D01*
X140156090Y-119111070D01*
X140082220Y-119037200D01*
X143039956Y-119037200D01*
X143018724Y-119058432D01*
X143134140Y-119173848D01*
X142902471Y-119230809D01*
X142732719Y-119717390D01*
X142762095Y-120231894D01*
X142902471Y-120570791D01*
X143134142Y-120627753D01*
X143861095Y-119900800D01*
X143846953Y-119886658D01*
X144026558Y-119707053D01*
X144040700Y-119721195D01*
X144054843Y-119707053D01*
X144234448Y-119886658D01*
X144220305Y-119900800D01*
X144947258Y-120627753D01*
X145178929Y-120570791D01*
X145348681Y-120084210D01*
X145319305Y-119569706D01*
X145178929Y-119230809D01*
X144947260Y-119173848D01*
X144956908Y-119164200D01*
X148692949Y-119164200D01*
X148942900Y-119414151D01*
X148942900Y-119853671D01*
X149140113Y-120329785D01*
X149504515Y-120694187D01*
X149980629Y-120891400D01*
X150495971Y-120891400D01*
X150972085Y-120694187D01*
X151282872Y-120383400D01*
X152367980Y-120383400D01*
X152420370Y-120435790D01*
X152784457Y-120586600D01*
X153178543Y-120586600D01*
X153542630Y-120435790D01*
X153821290Y-120157130D01*
X153972100Y-119793043D01*
X153972100Y-119398957D01*
X153821290Y-119034870D01*
X153645820Y-118859400D01*
X154200700Y-118859400D01*
X154200700Y-118980243D01*
X154351510Y-119344330D01*
X154630170Y-119622990D01*
X154994257Y-119773800D01*
X155388343Y-119773800D01*
X155496100Y-119729166D01*
X155496100Y-121486188D01*
X155577157Y-121893682D01*
X155885921Y-122355780D01*
X156348019Y-122664544D01*
X156893100Y-122772968D01*
X157438182Y-122664544D01*
X157900280Y-122355780D01*
X158163101Y-121962441D01*
X158425921Y-122355780D01*
X158888019Y-122664544D01*
X159433100Y-122772968D01*
X159978182Y-122664544D01*
X160440280Y-122355780D01*
X160703101Y-121962441D01*
X160965921Y-122355780D01*
X161428019Y-122664544D01*
X161973100Y-122772968D01*
X162518182Y-122664544D01*
X162980280Y-122355780D01*
X163243101Y-121962441D01*
X163505921Y-122355780D01*
X163968019Y-122664544D01*
X164513100Y-122772968D01*
X165058182Y-122664544D01*
X165520280Y-122355780D01*
X165794680Y-121945111D01*
X165811041Y-122000541D01*
X166155074Y-122426230D01*
X166635823Y-122687860D01*
X166710030Y-122702820D01*
X166926100Y-122580320D01*
X166926100Y-120713600D01*
X166906100Y-120713600D01*
X166906100Y-120459600D01*
X166926100Y-120459600D01*
X166926100Y-120439600D01*
X167180100Y-120439600D01*
X167180100Y-120459600D01*
X167200100Y-120459600D01*
X167200100Y-120713600D01*
X167180100Y-120713600D01*
X167180100Y-122580320D01*
X167396170Y-122702820D01*
X167470377Y-122687860D01*
X167951126Y-122426230D01*
X168295159Y-122000541D01*
X168311520Y-121945110D01*
X168585921Y-122355780D01*
X169048019Y-122664544D01*
X169593100Y-122772968D01*
X170138182Y-122664544D01*
X170600280Y-122355780D01*
X170909044Y-121893682D01*
X170941682Y-121729600D01*
X172308518Y-121729600D01*
X172341157Y-121893682D01*
X172649921Y-122355780D01*
X173112019Y-122664544D01*
X173657100Y-122772968D01*
X174202182Y-122664544D01*
X174664280Y-122355780D01*
X174938680Y-121945111D01*
X174955041Y-122000541D01*
X175299074Y-122426230D01*
X175779823Y-122687860D01*
X175854030Y-122702820D01*
X176070100Y-122580320D01*
X176070100Y-120713600D01*
X176050100Y-120713600D01*
X176050100Y-120459600D01*
X176070100Y-120459600D01*
X176070100Y-120439600D01*
X176324100Y-120439600D01*
X176324100Y-120459600D01*
X176344100Y-120459600D01*
X176344100Y-120713600D01*
X176324100Y-120713600D01*
X176324100Y-122580320D01*
X176540170Y-122702820D01*
X176614377Y-122687860D01*
X177095126Y-122426230D01*
X177439159Y-122000541D01*
X177455520Y-121945110D01*
X177729921Y-122355780D01*
X178192019Y-122664544D01*
X178737100Y-122772968D01*
X179282182Y-122664544D01*
X179744280Y-122355780D01*
X180007101Y-121962441D01*
X180269921Y-122355780D01*
X180732019Y-122664544D01*
X181277100Y-122772968D01*
X181822182Y-122664544D01*
X182284280Y-122355780D01*
X182547101Y-121962441D01*
X182809921Y-122355780D01*
X183272019Y-122664544D01*
X183817100Y-122772968D01*
X184362182Y-122664544D01*
X184824280Y-122355780D01*
X185133044Y-121893682D01*
X185214100Y-121486188D01*
X185214100Y-119687012D01*
X185133044Y-119279518D01*
X184824279Y-118817420D01*
X184604500Y-118670568D01*
X184604500Y-117768552D01*
X184619926Y-117691000D01*
X184574530Y-117462775D01*
X184880229Y-117589400D01*
X185395571Y-117589400D01*
X185871685Y-117392187D01*
X186063314Y-117200558D01*
X186950947Y-117200558D01*
X187007909Y-117432229D01*
X187494490Y-117601981D01*
X188008994Y-117572605D01*
X188347891Y-117432229D01*
X188404853Y-117200558D01*
X187677900Y-116473605D01*
X186950947Y-117200558D01*
X186063314Y-117200558D01*
X186236087Y-117027785D01*
X186401091Y-116629430D01*
X186539671Y-116963991D01*
X186771342Y-117020953D01*
X187498295Y-116294000D01*
X187857505Y-116294000D01*
X188584458Y-117020953D01*
X188816129Y-116963991D01*
X188985881Y-116477410D01*
X188956505Y-115962906D01*
X188816129Y-115624009D01*
X188584458Y-115567047D01*
X187857505Y-116294000D01*
X187498295Y-116294000D01*
X186771342Y-115567047D01*
X186539671Y-115624009D01*
X186412959Y-115987220D01*
X186236087Y-115560215D01*
X186063314Y-115387442D01*
X186950947Y-115387442D01*
X187677900Y-116114395D01*
X188404853Y-115387442D01*
X188347891Y-115155771D01*
X187861310Y-114986019D01*
X187346806Y-115015395D01*
X187007909Y-115155771D01*
X186950947Y-115387442D01*
X186063314Y-115387442D01*
X185871685Y-115195813D01*
X185503758Y-115043413D01*
X185162127Y-114701782D01*
X185098357Y-114606343D01*
X184720276Y-114353718D01*
X184386872Y-114287400D01*
X184386871Y-114287400D01*
X184274300Y-114265008D01*
X184161729Y-114287400D01*
X182979520Y-114287400D01*
X182873601Y-114181481D01*
X182332138Y-113957200D01*
X182182346Y-113957200D01*
X181377527Y-113152382D01*
X181313757Y-113056943D01*
X180935676Y-112804318D01*
X180602272Y-112738000D01*
X180602271Y-112738000D01*
X180489700Y-112715608D01*
X180377129Y-112738000D01*
X178080575Y-112738000D01*
X178042023Y-112544186D01*
X177716418Y-112056882D01*
X177556058Y-111949733D01*
X184607172Y-111949733D01*
X184661003Y-112178779D01*
X185138364Y-112344281D01*
X185642723Y-112314506D01*
X185970397Y-112178779D01*
X186024228Y-111949733D01*
X185315700Y-111241205D01*
X184607172Y-111949733D01*
X177556058Y-111949733D01*
X177229113Y-111731277D01*
X176654300Y-111616939D01*
X176079486Y-111731277D01*
X175592182Y-112056882D01*
X175378161Y-112377188D01*
X175066208Y-111987487D01*
X174560737Y-111709339D01*
X174469338Y-111689221D01*
X174241300Y-111810700D01*
X174241300Y-113830200D01*
X174261300Y-113830200D01*
X174261300Y-114084200D01*
X174241300Y-114084200D01*
X174241300Y-114104200D01*
X173987300Y-114104200D01*
X173987300Y-114084200D01*
X173967300Y-114084200D01*
X173967300Y-113830200D01*
X173987300Y-113830200D01*
X173987300Y-111810700D01*
X173759262Y-111689221D01*
X173667863Y-111709339D01*
X173162392Y-111987487D01*
X172850439Y-112377188D01*
X172636418Y-112056882D01*
X172149113Y-111731277D01*
X171574300Y-111616939D01*
X170999486Y-111731277D01*
X170512182Y-112056882D01*
X170186577Y-112544187D01*
X170101100Y-112973907D01*
X170101100Y-114940494D01*
X170186578Y-115370214D01*
X170431301Y-115736469D01*
X170431301Y-116232223D01*
X170408908Y-116344800D01*
X170497618Y-116790776D01*
X170573004Y-116903600D01*
X166549020Y-116903600D01*
X166293430Y-116648010D01*
X165929343Y-116497200D01*
X165535257Y-116497200D01*
X165227914Y-116624506D01*
X165352890Y-116499530D01*
X165503700Y-116135443D01*
X165503700Y-115741357D01*
X165352890Y-115377270D01*
X165074230Y-115098610D01*
X164710143Y-114947800D01*
X164316057Y-114947800D01*
X163951970Y-115098610D01*
X163899580Y-115151000D01*
X159513220Y-115151000D01*
X159587090Y-115077130D01*
X159737900Y-114713043D01*
X159737900Y-114318957D01*
X159587090Y-113954870D01*
X159308430Y-113676210D01*
X158944343Y-113525400D01*
X158550257Y-113525400D01*
X158186170Y-113676210D01*
X158133780Y-113728600D01*
X154026072Y-113728600D01*
X153733485Y-113436013D01*
X154172740Y-113348640D01*
X154601231Y-113062331D01*
X154887540Y-112633840D01*
X154937300Y-112383679D01*
X154987060Y-112633840D01*
X155273370Y-113062331D01*
X155701861Y-113348640D01*
X156207300Y-113449178D01*
X156712740Y-113348640D01*
X157141231Y-113062331D01*
X157427540Y-112633840D01*
X157477300Y-112383679D01*
X157527060Y-112633840D01*
X157813370Y-113062331D01*
X158241861Y-113348640D01*
X158747300Y-113449178D01*
X159252740Y-113348640D01*
X159681231Y-113062331D01*
X159967540Y-112633840D01*
X160017300Y-112383679D01*
X160067060Y-112633840D01*
X160353370Y-113062331D01*
X160781861Y-113348640D01*
X161287300Y-113449178D01*
X161792740Y-113348640D01*
X162221231Y-113062331D01*
X162507540Y-112633840D01*
X162557300Y-112383679D01*
X162607060Y-112633840D01*
X162893370Y-113062331D01*
X163321861Y-113348640D01*
X163827300Y-113449178D01*
X164332740Y-113348640D01*
X164761231Y-113062331D01*
X165047540Y-112633840D01*
X165102632Y-112356873D01*
X165219107Y-112741461D01*
X165541116Y-113134189D01*
X165988904Y-113373795D01*
X166040195Y-113381820D01*
X166240300Y-113257933D01*
X166240300Y-111595000D01*
X166494300Y-111595000D01*
X166494300Y-113257933D01*
X166694405Y-113381820D01*
X166745696Y-113373795D01*
X167193484Y-113134189D01*
X167515493Y-112741461D01*
X167662700Y-112255400D01*
X167662700Y-111595000D01*
X166494300Y-111595000D01*
X166240300Y-111595000D01*
X166220300Y-111595000D01*
X166220300Y-111341000D01*
X166240300Y-111341000D01*
X166240300Y-109678067D01*
X166494300Y-109678067D01*
X166494300Y-111341000D01*
X167662700Y-111341000D01*
X167662700Y-110884264D01*
X184033019Y-110884264D01*
X184062794Y-111388623D01*
X184198521Y-111716297D01*
X184427567Y-111770128D01*
X185136095Y-111061600D01*
X185495305Y-111061600D01*
X186203833Y-111770128D01*
X186260981Y-111756697D01*
X186271046Y-111780997D01*
X186628303Y-112138254D01*
X187095081Y-112331600D01*
X187600319Y-112331600D01*
X188067097Y-112138254D01*
X188424354Y-111780997D01*
X188617700Y-111314219D01*
X188617700Y-110808981D01*
X188424354Y-110342203D01*
X188067097Y-109984946D01*
X187600319Y-109791600D01*
X187095081Y-109791600D01*
X186628303Y-109984946D01*
X186271046Y-110342203D01*
X186260981Y-110366503D01*
X186203833Y-110353072D01*
X185495305Y-111061600D01*
X185136095Y-111061600D01*
X184427567Y-110353072D01*
X184198521Y-110406903D01*
X184033019Y-110884264D01*
X167662700Y-110884264D01*
X167662700Y-110680600D01*
X167515493Y-110194539D01*
X167498216Y-110173467D01*
X184607172Y-110173467D01*
X185315700Y-110881995D01*
X186024228Y-110173467D01*
X185970397Y-109944421D01*
X185493036Y-109778919D01*
X184988677Y-109808694D01*
X184661003Y-109944421D01*
X184607172Y-110173467D01*
X167498216Y-110173467D01*
X167193484Y-109801811D01*
X166745696Y-109562205D01*
X166694405Y-109554180D01*
X166494300Y-109678067D01*
X166240300Y-109678067D01*
X166040195Y-109554180D01*
X165988904Y-109562205D01*
X165541116Y-109801811D01*
X165219107Y-110194539D01*
X165102632Y-110579127D01*
X165047540Y-110302160D01*
X164761231Y-109873669D01*
X164332739Y-109587360D01*
X163827300Y-109486822D01*
X163321860Y-109587360D01*
X162893369Y-109873669D01*
X162607060Y-110302161D01*
X162557300Y-110552322D01*
X162507540Y-110302160D01*
X162221231Y-109873669D01*
X161792739Y-109587360D01*
X161287300Y-109486822D01*
X160781860Y-109587360D01*
X160353369Y-109873669D01*
X160067060Y-110302161D01*
X160017300Y-110552322D01*
X159967540Y-110302160D01*
X159681231Y-109873669D01*
X159252739Y-109587360D01*
X158747300Y-109486822D01*
X158241860Y-109587360D01*
X158142080Y-109654031D01*
X158213900Y-109480643D01*
X158213900Y-109086557D01*
X158063090Y-108722470D01*
X157784430Y-108443810D01*
X157420343Y-108293000D01*
X157026257Y-108293000D01*
X156662170Y-108443810D01*
X156609780Y-108496200D01*
X139244020Y-108496200D01*
X138988430Y-108240610D01*
X138624343Y-108089800D01*
X138230257Y-108089800D01*
X137866170Y-108240610D01*
X137587510Y-108519270D01*
X137436700Y-108883357D01*
X137436700Y-109004200D01*
X130633420Y-109004200D01*
X130581030Y-108951810D01*
X130216943Y-108801000D01*
X129822857Y-108801000D01*
X129458770Y-108951810D01*
X129180110Y-109230470D01*
X129029300Y-109594557D01*
X129029300Y-109988643D01*
X129180110Y-110352730D01*
X129458770Y-110631390D01*
X129577573Y-110680600D01*
X129388820Y-110680600D01*
X129336430Y-110628210D01*
X128972343Y-110477400D01*
X128578257Y-110477400D01*
X128214170Y-110628210D01*
X127935510Y-110906870D01*
X127784700Y-111270957D01*
X127784700Y-111665043D01*
X127935510Y-112029130D01*
X128214170Y-112307790D01*
X128578257Y-112458600D01*
X128972343Y-112458600D01*
X129336430Y-112307790D01*
X129388820Y-112255400D01*
X132051900Y-112255400D01*
X132051900Y-112255984D01*
X132127060Y-112633840D01*
X132413370Y-113062331D01*
X132761670Y-113295058D01*
X132658328Y-113398400D01*
X132309072Y-113398400D01*
X131998285Y-113087613D01*
X131522171Y-112890400D01*
X131006829Y-112890400D01*
X130530715Y-113087613D01*
X130166313Y-113452015D01*
X130019900Y-113805487D01*
X129873487Y-113452015D01*
X129509085Y-113087613D01*
X129032971Y-112890400D01*
X128517629Y-112890400D01*
X128041515Y-113087613D01*
X127677113Y-113452015D01*
X127479900Y-113928129D01*
X127479900Y-114443471D01*
X127677113Y-114919585D01*
X128041515Y-115283987D01*
X128517629Y-115481200D01*
X129032971Y-115481200D01*
X129509085Y-115283987D01*
X129873487Y-114919585D01*
X130019900Y-114566113D01*
X130166313Y-114919585D01*
X130530715Y-115283987D01*
X131006829Y-115481200D01*
X131522171Y-115481200D01*
X131998285Y-115283987D01*
X132309072Y-114973200D01*
X132658328Y-114973200D01*
X132969115Y-115283987D01*
X133445229Y-115481200D01*
X133960571Y-115481200D01*
X134436685Y-115283987D01*
X134747472Y-114973200D01*
X135273780Y-114973200D01*
X135326170Y-115025590D01*
X135690257Y-115176400D01*
X136084343Y-115176400D01*
X136448430Y-115025590D01*
X136617281Y-114856739D01*
X136643313Y-114919585D01*
X137007715Y-115283987D01*
X137483829Y-115481200D01*
X137542652Y-115481200D01*
X137485170Y-115505010D01*
X137206510Y-115783670D01*
X137055700Y-116147757D01*
X137055700Y-116541843D01*
X137206510Y-116905930D01*
X137254980Y-116954400D01*
X137206510Y-117002870D01*
X137058250Y-117360800D01*
X130376850Y-117360800D01*
X130299299Y-117345374D01*
X130221748Y-117360800D01*
X129992072Y-117406485D01*
X129756334Y-117564000D01*
X127913051Y-117564000D01*
X127835500Y-117548574D01*
X127757949Y-117564000D01*
X127757948Y-117564000D01*
X127528272Y-117609685D01*
X127267816Y-117783716D01*
X127223886Y-117849462D01*
X126810784Y-118262564D01*
X126771030Y-118222810D01*
X126406943Y-118072000D01*
X126012857Y-118072000D01*
X125648770Y-118222810D01*
X125370110Y-118501470D01*
X125337582Y-118580000D01*
X125269815Y-118580000D01*
X125123687Y-118227215D01*
X124759285Y-117862813D01*
X124283171Y-117665600D01*
X123767829Y-117665600D01*
X123291715Y-117862813D01*
X122980928Y-118173600D01*
X118687452Y-118173600D01*
X117313803Y-116799952D01*
X117370701Y-116714799D01*
X117578583Y-117025918D01*
X118065887Y-117351523D01*
X118640700Y-117465861D01*
X119215514Y-117351523D01*
X119702818Y-117025918D01*
X119910701Y-116714799D01*
X120118583Y-117025918D01*
X120605887Y-117351523D01*
X121180700Y-117465861D01*
X121755514Y-117351523D01*
X122242818Y-117025918D01*
X122568423Y-116538614D01*
X122653900Y-116108894D01*
X122653900Y-114142306D01*
X122568423Y-113712586D01*
X122242818Y-113225282D01*
X121755513Y-112899677D01*
X121180700Y-112785339D01*
X120605886Y-112899677D01*
X120118582Y-113225282D01*
X119910700Y-113536401D01*
X119702818Y-113225282D01*
X119215513Y-112899677D01*
X118640700Y-112785339D01*
X118065886Y-112899677D01*
X117578582Y-113225282D01*
X117370700Y-113536401D01*
X117162818Y-113225282D01*
X116675513Y-112899677D01*
X116100700Y-112785339D01*
X115525886Y-112899677D01*
X115038582Y-113225282D01*
X114712977Y-113712587D01*
X114627500Y-114142307D01*
X114627500Y-116108894D01*
X114674425Y-116344800D01*
X113509900Y-116344800D01*
X113509900Y-111730050D01*
X113525326Y-111652499D01*
X113488627Y-111468000D01*
X113464215Y-111345272D01*
X113290184Y-111084816D01*
X113287959Y-111083329D01*
X122730100Y-111083329D01*
X122730100Y-111598671D01*
X122927313Y-112074785D01*
X123291715Y-112439187D01*
X123767829Y-112636400D01*
X124283171Y-112636400D01*
X124759285Y-112439187D01*
X125070072Y-112128400D01*
X125545580Y-112128400D01*
X125597970Y-112180790D01*
X125962057Y-112331600D01*
X126356143Y-112331600D01*
X126720230Y-112180790D01*
X126998890Y-111902130D01*
X127149700Y-111538043D01*
X127149700Y-111143957D01*
X126998890Y-110779870D01*
X126720230Y-110501210D01*
X126356143Y-110350400D01*
X125962057Y-110350400D01*
X125597970Y-110501210D01*
X125545580Y-110553600D01*
X125070072Y-110553600D01*
X124759285Y-110242813D01*
X124283171Y-110045600D01*
X123767829Y-110045600D01*
X123291715Y-110242813D01*
X122927313Y-110607215D01*
X122730100Y-111083329D01*
X113287959Y-111083329D01*
X113224438Y-111040886D01*
X110015681Y-107832129D01*
X187246100Y-107832129D01*
X187246100Y-108347471D01*
X187443313Y-108823585D01*
X187807715Y-109187987D01*
X188283829Y-109385200D01*
X188799171Y-109385200D01*
X189275285Y-109187987D01*
X189639687Y-108823585D01*
X189836900Y-108347471D01*
X189836900Y-107832129D01*
X189687403Y-107471211D01*
X189710413Y-102546971D01*
X189705100Y-102519593D01*
X189705100Y-102427798D01*
X189671585Y-102346884D01*
X189645654Y-102213261D01*
X189566949Y-102094271D01*
X189531820Y-102009461D01*
X189469888Y-101947529D01*
X189394798Y-101834004D01*
X189276552Y-101754193D01*
X189211639Y-101689280D01*
X189130720Y-101655762D01*
X189017902Y-101579615D01*
X188878113Y-101551130D01*
X188793302Y-101516000D01*
X188705718Y-101516000D01*
X188572345Y-101488822D01*
X188432295Y-101516000D01*
X188340498Y-101516000D01*
X188259581Y-101549517D01*
X188125961Y-101575447D01*
X188006973Y-101654150D01*
X187922161Y-101689280D01*
X187860230Y-101751211D01*
X187746703Y-101826302D01*
X187666890Y-101944551D01*
X187601980Y-102009461D01*
X187568463Y-102090378D01*
X187492314Y-102203199D01*
X187463828Y-102342991D01*
X187428700Y-102427798D01*
X187428700Y-102515379D01*
X187424439Y-102536289D01*
X187401445Y-107457094D01*
X187246100Y-107832129D01*
X110015681Y-107832129D01*
X109868088Y-107684537D01*
X110125000Y-107064297D01*
X110125000Y-106075703D01*
X110009126Y-105795958D01*
X125736947Y-105795958D01*
X125793909Y-106027629D01*
X126280490Y-106197381D01*
X126794994Y-106168005D01*
X127133891Y-106027629D01*
X127190853Y-105795958D01*
X126463900Y-105069005D01*
X125736947Y-105795958D01*
X110009126Y-105795958D01*
X109746681Y-105162361D01*
X109290310Y-104705990D01*
X125155919Y-104705990D01*
X125185295Y-105220494D01*
X125325671Y-105559391D01*
X125557342Y-105616353D01*
X126284295Y-104889400D01*
X126643505Y-104889400D01*
X127370458Y-105616353D01*
X127602129Y-105559391D01*
X127728841Y-105196180D01*
X127905713Y-105623185D01*
X128270115Y-105987587D01*
X128746229Y-106184800D01*
X129261571Y-106184800D01*
X129737685Y-105987587D01*
X130102087Y-105623185D01*
X130299300Y-105147071D01*
X130299300Y-104631729D01*
X130102087Y-104155615D01*
X129737685Y-103791213D01*
X129261571Y-103594000D01*
X128746229Y-103594000D01*
X128270115Y-103791213D01*
X127905713Y-104155615D01*
X127740709Y-104553970D01*
X127602129Y-104219409D01*
X127370458Y-104162447D01*
X126643505Y-104889400D01*
X126284295Y-104889400D01*
X125557342Y-104162447D01*
X125325671Y-104219409D01*
X125155919Y-104705990D01*
X109290310Y-104705990D01*
X109047639Y-104463319D01*
X108443316Y-104213000D01*
X113633689Y-104213000D01*
X113723720Y-104303031D01*
X114104126Y-104460600D01*
X114515874Y-104460600D01*
X114896280Y-104303031D01*
X115187431Y-104011880D01*
X115199458Y-103982842D01*
X125736947Y-103982842D01*
X126463900Y-104709795D01*
X127190853Y-103982842D01*
X127133891Y-103751171D01*
X126647310Y-103581419D01*
X126132806Y-103610795D01*
X125793909Y-103751171D01*
X125736947Y-103982842D01*
X115199458Y-103982842D01*
X115345000Y-103631474D01*
X115345000Y-103219726D01*
X115187431Y-102839320D01*
X114896280Y-102548169D01*
X114515874Y-102390600D01*
X114104126Y-102390600D01*
X113723720Y-102548169D01*
X113633689Y-102638200D01*
X108346311Y-102638200D01*
X108256280Y-102548169D01*
X107875874Y-102390600D01*
X107464126Y-102390600D01*
X107083720Y-102548169D01*
X106792569Y-102839320D01*
X106635000Y-103219726D01*
X106635000Y-103631474D01*
X106792569Y-104011880D01*
X106947703Y-104167014D01*
X106232361Y-104463319D01*
X105533319Y-105162361D01*
X105155000Y-106075703D01*
X105155000Y-107064297D01*
X105533319Y-107977639D01*
X106232361Y-108676681D01*
X107145703Y-109055000D01*
X108134297Y-109055000D01*
X108754537Y-108798088D01*
X111935101Y-111978653D01*
X111935100Y-115897640D01*
X110277399Y-114239939D01*
X110277399Y-114197550D01*
X110292825Y-114119999D01*
X110268639Y-113998407D01*
X110231714Y-113812771D01*
X110057683Y-113552315D01*
X109991937Y-113508385D01*
X109868088Y-113384536D01*
X110125000Y-112764297D01*
X110125000Y-111775703D01*
X109746681Y-110862361D01*
X109047639Y-110163319D01*
X108134297Y-109785000D01*
X107145703Y-109785000D01*
X106232361Y-110163319D01*
X105607400Y-110788280D01*
X105607400Y-109327550D01*
X105622826Y-109249999D01*
X105590315Y-109086557D01*
X105561715Y-108942772D01*
X105387684Y-108682316D01*
X105321938Y-108638386D01*
X104368088Y-107684537D01*
X104625000Y-107064297D01*
X104625000Y-106075703D01*
X104246681Y-105162361D01*
X103547639Y-104463319D01*
X102634297Y-104085000D01*
X101645703Y-104085000D01*
X100732361Y-104463319D01*
X100033319Y-105162361D01*
X99655000Y-106075703D01*
X99655000Y-107064297D01*
X100033319Y-107977639D01*
X100732361Y-108676681D01*
X101645703Y-109055000D01*
X102634297Y-109055000D01*
X103254537Y-108798088D01*
X104032600Y-109576152D01*
X104032600Y-110648280D01*
X103547639Y-110163319D01*
X102634297Y-109785000D01*
X101645703Y-109785000D01*
X100732361Y-110163319D01*
X100033319Y-110862361D01*
X99655000Y-111775703D01*
X99655000Y-112764297D01*
X100033319Y-113677639D01*
X100732361Y-114376681D01*
X101645703Y-114755000D01*
X102634297Y-114755000D01*
X103547639Y-114376681D01*
X104032601Y-113891719D01*
X104032601Y-113912444D01*
X104017174Y-113990000D01*
X104071877Y-114265008D01*
X104078286Y-114297228D01*
X104252317Y-114557684D01*
X104318063Y-114601614D01*
X105278384Y-115561935D01*
X105322316Y-115627684D01*
X105480213Y-115733187D01*
X105582771Y-115801715D01*
X105890000Y-115862826D01*
X105967553Y-115847400D01*
X106270793Y-115847400D01*
X106232361Y-115863319D01*
X105533319Y-116562361D01*
X105155000Y-117475703D01*
X105155000Y-118464297D01*
X105533319Y-119377639D01*
X106232361Y-120076681D01*
X107145703Y-120455000D01*
X108134297Y-120455000D01*
X109047639Y-120076681D01*
X109746681Y-119377639D01*
X109982080Y-118809336D01*
X110330881Y-119158137D01*
X110374811Y-119223884D01*
X110635267Y-119397915D01*
X110864943Y-119443600D01*
X110942494Y-119459026D01*
X111020045Y-119443600D01*
X112635133Y-119443600D01*
X112123159Y-119955574D01*
X111782900Y-120777031D01*
X111782900Y-121666169D01*
X111785332Y-121672040D01*
X111474757Y-121513794D01*
X111474756Y-121513794D01*
X111474755Y-121513793D01*
X111263491Y-121445149D01*
X110843901Y-121378693D01*
X110749926Y-121360000D01*
X90349752Y-121360000D01*
X90040866Y-121311077D01*
X89806061Y-121191438D01*
X89619715Y-121005092D01*
X89500076Y-120770287D01*
X89450000Y-120454121D01*
X89450000Y-117545322D01*
X92705000Y-117545322D01*
X92705000Y-118394678D01*
X93030034Y-119179380D01*
X93630620Y-119779966D01*
X94415322Y-120105000D01*
X95264678Y-120105000D01*
X96049380Y-119779966D01*
X96649966Y-119179380D01*
X96975000Y-118394678D01*
X96975000Y-117545322D01*
X96649966Y-116760620D01*
X96049380Y-116160034D01*
X95264678Y-115835000D01*
X94415322Y-115835000D01*
X93630620Y-116160034D01*
X93030034Y-116760620D01*
X92705000Y-117545322D01*
X89450000Y-117545322D01*
X89450000Y-89549752D01*
X89498923Y-89240866D01*
X89618562Y-89006061D01*
X89804908Y-88819715D01*
X90039713Y-88700076D01*
X90355879Y-88650000D01*
X99569464Y-88650000D01*
X99395943Y-88765943D01*
X99332174Y-88861380D01*
X97361380Y-90832175D01*
X97265944Y-90895943D01*
X97116378Y-91119785D01*
X97013319Y-91274024D01*
X96924608Y-91720000D01*
X96947001Y-91832576D01*
X96947001Y-95887726D01*
X96649966Y-95170620D01*
X96049380Y-94570034D01*
X95264678Y-94245000D01*
X94415322Y-94245000D01*
X93630620Y-94570034D01*
X93030034Y-95170620D01*
X92705000Y-95955322D01*
X92705000Y-96804678D01*
X93030034Y-97589380D01*
X93630620Y-98189966D01*
X94415322Y-98515000D01*
X95264678Y-98515000D01*
X96049380Y-98189966D01*
X96649966Y-97589380D01*
X96947001Y-96872274D01*
X96947000Y-106077725D01*
X96649966Y-105360620D01*
X96049380Y-104760034D01*
X95264678Y-104435000D01*
X94415322Y-104435000D01*
X93630620Y-104760034D01*
X93030034Y-105360620D01*
X92705000Y-106145322D01*
X92705000Y-106994678D01*
X93030034Y-107779380D01*
X93630620Y-108379966D01*
X94415322Y-108705000D01*
X95264678Y-108705000D01*
X96049380Y-108379966D01*
X96649966Y-107779380D01*
X96947000Y-107062275D01*
X96947000Y-116673429D01*
X96924608Y-116786000D01*
X96947000Y-116898571D01*
X97013318Y-117231975D01*
X97265943Y-117610057D01*
X97361382Y-117673827D01*
X98386174Y-118698620D01*
X98449943Y-118794057D01*
X98828024Y-119046682D01*
X99161428Y-119113000D01*
X99161429Y-119113000D01*
X99274000Y-119135392D01*
X99386571Y-119113000D01*
X99642560Y-119113000D01*
X99642560Y-119820000D01*
X99691843Y-120067765D01*
X99832191Y-120277809D01*
X100042235Y-120418157D01*
X100290000Y-120467440D01*
X103990000Y-120467440D01*
X104237765Y-120418157D01*
X104447809Y-120277809D01*
X104588157Y-120067765D01*
X104637440Y-119820000D01*
X104637440Y-116120000D01*
X104588157Y-115872235D01*
X104447809Y-115662191D01*
X104237765Y-115521843D01*
X103990000Y-115472560D01*
X100290000Y-115472560D01*
X100042235Y-115521843D01*
X99832191Y-115662191D01*
X99691843Y-115872235D01*
X99642560Y-116120000D01*
X99642560Y-116722114D01*
X99233000Y-116312555D01*
X99233000Y-102228557D01*
X123746100Y-102228557D01*
X123746100Y-102622643D01*
X123896910Y-102986730D01*
X124175570Y-103265390D01*
X124539657Y-103416200D01*
X124933743Y-103416200D01*
X125297830Y-103265390D01*
X125485062Y-103078158D01*
X125838547Y-103078158D01*
X125895509Y-103309829D01*
X126382090Y-103479581D01*
X126896594Y-103450205D01*
X127235491Y-103309829D01*
X127292453Y-103078158D01*
X126565500Y-102351205D01*
X125838547Y-103078158D01*
X125485062Y-103078158D01*
X125576490Y-102986730D01*
X125617259Y-102888304D01*
X125658942Y-102898553D01*
X126385895Y-102171600D01*
X126745105Y-102171600D01*
X127472058Y-102898553D01*
X127703729Y-102841591D01*
X127783992Y-102611524D01*
X127905713Y-102905385D01*
X128270115Y-103269787D01*
X128746229Y-103467000D01*
X129261571Y-103467000D01*
X129737685Y-103269787D01*
X130102087Y-102905385D01*
X130299300Y-102429271D01*
X130299300Y-101913929D01*
X130102087Y-101437815D01*
X129737685Y-101073413D01*
X129415220Y-100939843D01*
X129565030Y-100877790D01*
X129668220Y-100774600D01*
X132251928Y-100774600D01*
X132613515Y-101136187D01*
X133089629Y-101333400D01*
X133604971Y-101333400D01*
X134081085Y-101136187D01*
X134445487Y-100771785D01*
X134642700Y-100295671D01*
X134642700Y-99780329D01*
X134445487Y-99304215D01*
X134081085Y-98939813D01*
X133682730Y-98774809D01*
X134017291Y-98636229D01*
X134074253Y-98404558D01*
X133347300Y-97677605D01*
X132620347Y-98404558D01*
X132677309Y-98636229D01*
X133040520Y-98762941D01*
X132613515Y-98939813D01*
X132251928Y-99301400D01*
X131344620Y-99301400D01*
X131570890Y-99075130D01*
X131721700Y-98711043D01*
X131721700Y-98316957D01*
X131570890Y-97952870D01*
X131292230Y-97674210D01*
X130928143Y-97523400D01*
X130534057Y-97523400D01*
X130169970Y-97674210D01*
X129891310Y-97952870D01*
X129740500Y-98316957D01*
X129740500Y-98711043D01*
X129891310Y-99075130D01*
X130117580Y-99301400D01*
X129668220Y-99301400D01*
X129565030Y-99198210D01*
X129200943Y-99047400D01*
X128806857Y-99047400D01*
X128442770Y-99198210D01*
X128164110Y-99476870D01*
X128013300Y-99840957D01*
X128013300Y-100235043D01*
X128164110Y-100599130D01*
X128442770Y-100877790D01*
X128592580Y-100939843D01*
X128270115Y-101073413D01*
X127905713Y-101437815D01*
X127791509Y-101713528D01*
X127703729Y-101501609D01*
X127472058Y-101444647D01*
X126745105Y-102171600D01*
X126385895Y-102171600D01*
X125658942Y-101444647D01*
X125427271Y-101501609D01*
X125372015Y-101659995D01*
X125297830Y-101585810D01*
X124933743Y-101435000D01*
X124539657Y-101435000D01*
X124175570Y-101585810D01*
X123896910Y-101864470D01*
X123746100Y-102228557D01*
X99233000Y-102228557D01*
X99233000Y-92193445D01*
X100693446Y-90733000D01*
X103226555Y-90733000D01*
X105264618Y-92771063D01*
X105155000Y-93035703D01*
X105155000Y-94024297D01*
X105533319Y-94937639D01*
X106088280Y-95492600D01*
X105216152Y-95492600D01*
X104368088Y-94644537D01*
X104625000Y-94024297D01*
X104625000Y-93035703D01*
X104246681Y-92122361D01*
X103547639Y-91423319D01*
X102634297Y-91045000D01*
X101645703Y-91045000D01*
X100732361Y-91423319D01*
X100033319Y-92122361D01*
X99655000Y-93035703D01*
X99655000Y-94024297D01*
X100033319Y-94937639D01*
X100732361Y-95636681D01*
X101645703Y-96015000D01*
X102634297Y-96015000D01*
X103254537Y-95758088D01*
X104278386Y-96781938D01*
X104311035Y-96830801D01*
X104237765Y-96781843D01*
X103990000Y-96732560D01*
X100290000Y-96732560D01*
X100042235Y-96781843D01*
X99832191Y-96922191D01*
X99691843Y-97132235D01*
X99642560Y-97380000D01*
X99642560Y-101080000D01*
X99691843Y-101327765D01*
X99832191Y-101537809D01*
X100042235Y-101678157D01*
X100290000Y-101727440D01*
X103990000Y-101727440D01*
X104237765Y-101678157D01*
X104447809Y-101537809D01*
X104588157Y-101327765D01*
X104637440Y-101080000D01*
X104637440Y-100996732D01*
X106052873Y-100996732D01*
X106255356Y-101351866D01*
X107172759Y-101720229D01*
X108161295Y-101709477D01*
X109024644Y-101351866D01*
X109074147Y-101265042D01*
X125838547Y-101265042D01*
X126565500Y-101991995D01*
X127292453Y-101265042D01*
X127235491Y-101033371D01*
X126748910Y-100863619D01*
X126234406Y-100892995D01*
X125895509Y-101033371D01*
X125838547Y-101265042D01*
X109074147Y-101265042D01*
X109227127Y-100996732D01*
X107640000Y-99409605D01*
X106052873Y-100996732D01*
X104637440Y-100996732D01*
X104637440Y-98762759D01*
X105149771Y-98762759D01*
X105160523Y-99751295D01*
X105518134Y-100614644D01*
X105873268Y-100817127D01*
X107460395Y-99230000D01*
X105873268Y-97642873D01*
X105518134Y-97845356D01*
X105149771Y-98762759D01*
X104637440Y-98762759D01*
X104637440Y-97380000D01*
X104588157Y-97132235D01*
X104459089Y-96939073D01*
X104582772Y-97021715D01*
X104812448Y-97067400D01*
X104889999Y-97082826D01*
X104967550Y-97067400D01*
X106353697Y-97067400D01*
X106255356Y-97108134D01*
X106052873Y-97463268D01*
X107640000Y-99050395D01*
X107654143Y-99036253D01*
X107833748Y-99215858D01*
X107819605Y-99230000D01*
X109406732Y-100817127D01*
X109761866Y-100614644D01*
X110130229Y-99697241D01*
X110119477Y-98708705D01*
X110119423Y-98708574D01*
X111798386Y-100387538D01*
X111842316Y-100453284D01*
X111923543Y-100507558D01*
X112102770Y-100627314D01*
X112102771Y-100627314D01*
X112102772Y-100627315D01*
X112332448Y-100673000D01*
X112409999Y-100688426D01*
X112487550Y-100673000D01*
X124834380Y-100673000D01*
X124886770Y-100725390D01*
X125250857Y-100876200D01*
X125644943Y-100876200D01*
X126009030Y-100725390D01*
X126287690Y-100446730D01*
X126438500Y-100082643D01*
X126438500Y-99688557D01*
X126287690Y-99324470D01*
X126009030Y-99045810D01*
X125644943Y-98895000D01*
X125250857Y-98895000D01*
X124886770Y-99045810D01*
X124834380Y-99098200D01*
X112736152Y-99098200D01*
X109416016Y-95778065D01*
X109372084Y-95712316D01*
X109132253Y-95552067D01*
X109746681Y-94937639D01*
X109856298Y-94673000D01*
X114881729Y-94673000D01*
X114994300Y-94695392D01*
X115106871Y-94673000D01*
X115106872Y-94673000D01*
X115440276Y-94606682D01*
X115818357Y-94354057D01*
X115882127Y-94258618D01*
X117692921Y-92447825D01*
X117788357Y-92384057D01*
X118040982Y-92005976D01*
X118107300Y-91672572D01*
X118107300Y-91672571D01*
X118129692Y-91560000D01*
X118107300Y-91447429D01*
X118107300Y-91284855D01*
X118236841Y-91723741D01*
X118580874Y-92149430D01*
X119061623Y-92411060D01*
X119135830Y-92426020D01*
X119351900Y-92303520D01*
X119351900Y-90436800D01*
X119331900Y-90436800D01*
X119331900Y-90182800D01*
X119351900Y-90182800D01*
X119351900Y-90162800D01*
X119605900Y-90162800D01*
X119605900Y-90182800D01*
X119625900Y-90182800D01*
X119625900Y-90436800D01*
X119605900Y-90436800D01*
X119605900Y-92303520D01*
X119821970Y-92426020D01*
X119896177Y-92411060D01*
X120376926Y-92149430D01*
X120720959Y-91723741D01*
X120737320Y-91668310D01*
X121011721Y-92078980D01*
X121079100Y-92124001D01*
X121079100Y-93265241D01*
X121060689Y-93357800D01*
X121133628Y-93724491D01*
X121301666Y-93975976D01*
X121341343Y-94035357D01*
X121652209Y-94243072D01*
X122018900Y-94316011D01*
X122111459Y-94297600D01*
X125270100Y-94297600D01*
X125270100Y-94590071D01*
X124937570Y-94727810D01*
X124658910Y-95006470D01*
X124508100Y-95370557D01*
X124508100Y-95764643D01*
X124658910Y-96128730D01*
X124937570Y-96407390D01*
X125301657Y-96558200D01*
X125695743Y-96558200D01*
X126059830Y-96407390D01*
X126112220Y-96355000D01*
X130451700Y-96355000D01*
X130451700Y-96475843D01*
X130602510Y-96839930D01*
X130881170Y-97118590D01*
X131245257Y-97269400D01*
X131639343Y-97269400D01*
X132003430Y-97118590D01*
X132163561Y-96958459D01*
X132039319Y-97314590D01*
X132068695Y-97829094D01*
X132209071Y-98167991D01*
X132440742Y-98224953D01*
X133167695Y-97498000D01*
X133153553Y-97483858D01*
X133333158Y-97304253D01*
X133347300Y-97318395D01*
X133361443Y-97304253D01*
X133541048Y-97483858D01*
X133526905Y-97498000D01*
X134253858Y-98224953D01*
X134485529Y-98167991D01*
X134655281Y-97681410D01*
X134625905Y-97166906D01*
X134500023Y-96863000D01*
X135857489Y-96863000D01*
X135732569Y-96987920D01*
X135575000Y-97368326D01*
X135575000Y-97780074D01*
X135732569Y-98160480D01*
X136023720Y-98451631D01*
X136404126Y-98609200D01*
X136815874Y-98609200D01*
X137196280Y-98451631D01*
X137286311Y-98361600D01*
X139849700Y-98361600D01*
X139849700Y-98847871D01*
X140037558Y-99301400D01*
X137516820Y-99301400D01*
X137413630Y-99198210D01*
X137049543Y-99047400D01*
X136655457Y-99047400D01*
X136291370Y-99198210D01*
X136012710Y-99476870D01*
X135861900Y-99840957D01*
X135861900Y-100235043D01*
X136012710Y-100599130D01*
X136291370Y-100877790D01*
X136655457Y-101028600D01*
X137004900Y-101028600D01*
X137004900Y-101337071D01*
X137202113Y-101813185D01*
X137566515Y-102177587D01*
X137591651Y-102187999D01*
X137493369Y-102253669D01*
X137207060Y-102682161D01*
X137157300Y-102932322D01*
X137107540Y-102682160D01*
X136821231Y-102253669D01*
X136392739Y-101967360D01*
X135887300Y-101866822D01*
X135381860Y-101967360D01*
X134953369Y-102253669D01*
X134667060Y-102682161D01*
X134617300Y-102932322D01*
X134567540Y-102682160D01*
X134281231Y-102253669D01*
X133852739Y-101967360D01*
X133347300Y-101866822D01*
X132841860Y-101967360D01*
X132413369Y-102253669D01*
X132127060Y-102682161D01*
X132051900Y-103060017D01*
X132051900Y-104635984D01*
X132127060Y-105013840D01*
X132413370Y-105442331D01*
X132841861Y-105728640D01*
X133347300Y-105829178D01*
X133852740Y-105728640D01*
X134281231Y-105442331D01*
X134567540Y-105013840D01*
X134617300Y-104763679D01*
X134667060Y-105013840D01*
X134953370Y-105442331D01*
X135381861Y-105728640D01*
X135887300Y-105829178D01*
X136392740Y-105728640D01*
X136821231Y-105442331D01*
X137107540Y-105013840D01*
X137157300Y-104763679D01*
X137207060Y-105013840D01*
X137493370Y-105442331D01*
X137921861Y-105728640D01*
X138427300Y-105829178D01*
X138932740Y-105728640D01*
X139361231Y-105442331D01*
X139647540Y-105013840D01*
X139697300Y-104763679D01*
X139747060Y-105013840D01*
X140033370Y-105442331D01*
X140461861Y-105728640D01*
X140967300Y-105829178D01*
X141472740Y-105728640D01*
X141901231Y-105442331D01*
X142187540Y-105013840D01*
X142237300Y-104763679D01*
X142287060Y-105013840D01*
X142573370Y-105442331D01*
X143001861Y-105728640D01*
X143507300Y-105829178D01*
X144012740Y-105728640D01*
X144441231Y-105442331D01*
X144727540Y-105013840D01*
X144777300Y-104763679D01*
X144827060Y-105013840D01*
X145113370Y-105442331D01*
X145541861Y-105728640D01*
X146047300Y-105829178D01*
X146552740Y-105728640D01*
X146981231Y-105442331D01*
X147267540Y-105013840D01*
X147317300Y-104763679D01*
X147367060Y-105013840D01*
X147653370Y-105442331D01*
X148081861Y-105728640D01*
X148587300Y-105829178D01*
X149092740Y-105728640D01*
X149521231Y-105442331D01*
X149807540Y-105013840D01*
X149857300Y-104763679D01*
X149907060Y-105013840D01*
X150193370Y-105442331D01*
X150621861Y-105728640D01*
X151127300Y-105829178D01*
X151632740Y-105728640D01*
X152061231Y-105442331D01*
X152347540Y-105013840D01*
X152397300Y-104763679D01*
X152447060Y-105013840D01*
X152733370Y-105442331D01*
X153161861Y-105728640D01*
X153667300Y-105829178D01*
X154172740Y-105728640D01*
X154601231Y-105442331D01*
X154887540Y-105013840D01*
X154937300Y-104763679D01*
X154987060Y-105013840D01*
X155273370Y-105442331D01*
X155701861Y-105728640D01*
X156207300Y-105829178D01*
X156712740Y-105728640D01*
X157141231Y-105442331D01*
X157427540Y-105013840D01*
X157477300Y-104763679D01*
X157527060Y-105013840D01*
X157813370Y-105442331D01*
X158241861Y-105728640D01*
X158747300Y-105829178D01*
X159252740Y-105728640D01*
X159681231Y-105442331D01*
X159967540Y-105013840D01*
X160017300Y-104763679D01*
X160067060Y-105013840D01*
X160353370Y-105442331D01*
X160781861Y-105728640D01*
X161287300Y-105829178D01*
X161792740Y-105728640D01*
X162221231Y-105442331D01*
X162507540Y-105013840D01*
X162557300Y-104763679D01*
X162607060Y-105013840D01*
X162893370Y-105442331D01*
X163321861Y-105728640D01*
X163827300Y-105829178D01*
X164332740Y-105728640D01*
X164761231Y-105442331D01*
X165047540Y-105013840D01*
X165097300Y-104763679D01*
X165147060Y-105013840D01*
X165433370Y-105442331D01*
X165861861Y-105728640D01*
X166367300Y-105829178D01*
X166872740Y-105728640D01*
X167301231Y-105442331D01*
X167587540Y-105013840D01*
X167594795Y-104977362D01*
X180565900Y-104977362D01*
X180565900Y-105563438D01*
X180790181Y-106104901D01*
X181204599Y-106519319D01*
X181746062Y-106743600D01*
X182332138Y-106743600D01*
X182873601Y-106519319D01*
X183288019Y-106104901D01*
X183512300Y-105563438D01*
X183512300Y-104977362D01*
X183288019Y-104435899D01*
X182873601Y-104021481D01*
X182332138Y-103797200D01*
X182138773Y-103797200D01*
X182150291Y-103792429D01*
X182207253Y-103560758D01*
X181480300Y-102833805D01*
X180753347Y-103560758D01*
X180810309Y-103792429D01*
X181296890Y-103962181D01*
X181355895Y-103958812D01*
X181204599Y-104021481D01*
X180790181Y-104435899D01*
X180565900Y-104977362D01*
X167594795Y-104977362D01*
X167662700Y-104635984D01*
X167662700Y-103060016D01*
X167587540Y-102682160D01*
X167446307Y-102470790D01*
X180172319Y-102470790D01*
X180201695Y-102985294D01*
X180342071Y-103324191D01*
X180573742Y-103381153D01*
X181300695Y-102654200D01*
X181659905Y-102654200D01*
X182386858Y-103381153D01*
X182618529Y-103324191D01*
X182745241Y-102960980D01*
X182922113Y-103387985D01*
X183286515Y-103752387D01*
X183762629Y-103949600D01*
X184277971Y-103949600D01*
X184754085Y-103752387D01*
X185118487Y-103387985D01*
X185315700Y-102911871D01*
X185315700Y-102396529D01*
X185118487Y-101920415D01*
X184754085Y-101556013D01*
X184277971Y-101358800D01*
X183762629Y-101358800D01*
X183286515Y-101556013D01*
X182922113Y-101920415D01*
X182757109Y-102318770D01*
X182618529Y-101984209D01*
X182386858Y-101927247D01*
X181659905Y-102654200D01*
X181300695Y-102654200D01*
X180573742Y-101927247D01*
X180342071Y-101984209D01*
X180172319Y-102470790D01*
X167446307Y-102470790D01*
X167301231Y-102253669D01*
X166872739Y-101967360D01*
X166367300Y-101866822D01*
X165861860Y-101967360D01*
X165433369Y-102253669D01*
X165147060Y-102682161D01*
X165097300Y-102932322D01*
X165047540Y-102682160D01*
X164761231Y-102253669D01*
X164332739Y-101967360D01*
X163827300Y-101866822D01*
X163321860Y-101967360D01*
X162893369Y-102253669D01*
X162607060Y-102682161D01*
X162557300Y-102932322D01*
X162507540Y-102682160D01*
X162221231Y-102253669D01*
X161792739Y-101967360D01*
X161287300Y-101866822D01*
X160781860Y-101967360D01*
X160353369Y-102253669D01*
X160067060Y-102682161D01*
X160017300Y-102932322D01*
X159967540Y-102682160D01*
X159681231Y-102253669D01*
X159252739Y-101967360D01*
X158747300Y-101866822D01*
X158241860Y-101967360D01*
X157813369Y-102253669D01*
X157527060Y-102682161D01*
X157477300Y-102932322D01*
X157427540Y-102682160D01*
X157141231Y-102253669D01*
X156712739Y-101967360D01*
X156207300Y-101866822D01*
X155701860Y-101967360D01*
X155273369Y-102253669D01*
X154987060Y-102682161D01*
X154937300Y-102932322D01*
X154887540Y-102682160D01*
X154601231Y-102253669D01*
X154172739Y-101967360D01*
X153667300Y-101866822D01*
X153161860Y-101967360D01*
X152733369Y-102253669D01*
X152447060Y-102682161D01*
X152397300Y-102932322D01*
X152347540Y-102682160D01*
X152061231Y-102253669D01*
X151632739Y-101967360D01*
X151127300Y-101866822D01*
X150621860Y-101967360D01*
X150193369Y-102253669D01*
X149907060Y-102682161D01*
X149857300Y-102932322D01*
X149807540Y-102682160D01*
X149521231Y-102253669D01*
X149092739Y-101967360D01*
X148907715Y-101930557D01*
X149025087Y-101813185D01*
X149222300Y-101337071D01*
X149222300Y-100850800D01*
X153053780Y-100850800D01*
X153106170Y-100903190D01*
X153470257Y-101054000D01*
X153864343Y-101054000D01*
X154228430Y-100903190D01*
X154507090Y-100624530D01*
X154646349Y-100288329D01*
X154810300Y-100288329D01*
X154810300Y-100803671D01*
X155007513Y-101279785D01*
X155371915Y-101644187D01*
X155848029Y-101841400D01*
X156363371Y-101841400D01*
X156839485Y-101644187D01*
X157203887Y-101279785D01*
X157401100Y-100803671D01*
X157401100Y-100628357D01*
X157756700Y-100628357D01*
X157756700Y-101022443D01*
X157907510Y-101386530D01*
X158186170Y-101665190D01*
X158550257Y-101816000D01*
X158944343Y-101816000D01*
X159308430Y-101665190D01*
X159360820Y-101612800D01*
X161538128Y-101612800D01*
X161848915Y-101923587D01*
X162325029Y-102120800D01*
X162840371Y-102120800D01*
X163316485Y-101923587D01*
X163492430Y-101747642D01*
X180753347Y-101747642D01*
X181480300Y-102474595D01*
X182207253Y-101747642D01*
X182150291Y-101515971D01*
X181663710Y-101346219D01*
X181149206Y-101375595D01*
X180810309Y-101515971D01*
X180753347Y-101747642D01*
X163492430Y-101747642D01*
X163680887Y-101559185D01*
X163878100Y-101083071D01*
X163878100Y-100567729D01*
X163680887Y-100091615D01*
X163316485Y-99727213D01*
X162840371Y-99530000D01*
X162325029Y-99530000D01*
X161848915Y-99727213D01*
X161538128Y-100038000D01*
X159360820Y-100038000D01*
X159308430Y-99985610D01*
X158944343Y-99834800D01*
X158550257Y-99834800D01*
X158186170Y-99985610D01*
X157907510Y-100264270D01*
X157756700Y-100628357D01*
X157401100Y-100628357D01*
X157401100Y-100288329D01*
X157203887Y-99812215D01*
X156839485Y-99447813D01*
X156773686Y-99420558D01*
X158629947Y-99420558D01*
X158686909Y-99652229D01*
X159173490Y-99821981D01*
X159687994Y-99792605D01*
X160026891Y-99652229D01*
X160083853Y-99420558D01*
X159913028Y-99249733D01*
X181533772Y-99249733D01*
X181587603Y-99478779D01*
X182064964Y-99644281D01*
X182569323Y-99614506D01*
X182896997Y-99478779D01*
X182950828Y-99249733D01*
X182242300Y-98541205D01*
X181533772Y-99249733D01*
X159913028Y-99249733D01*
X159356900Y-98693605D01*
X158629947Y-99420558D01*
X156773686Y-99420558D01*
X156363371Y-99250600D01*
X155848029Y-99250600D01*
X155371915Y-99447813D01*
X155007513Y-99812215D01*
X154810300Y-100288329D01*
X154646349Y-100288329D01*
X154657900Y-100260443D01*
X154657900Y-99866357D01*
X154507090Y-99502270D01*
X154228430Y-99223610D01*
X153864343Y-99072800D01*
X153470257Y-99072800D01*
X153106170Y-99223610D01*
X153053780Y-99276000D01*
X147897451Y-99276000D01*
X147700316Y-99078865D01*
X147656384Y-99013116D01*
X147395928Y-98839085D01*
X147166252Y-98793400D01*
X147166251Y-98793400D01*
X147088700Y-98777974D01*
X147011149Y-98793400D01*
X144730420Y-98793400D01*
X144474830Y-98537810D01*
X144110743Y-98387000D01*
X143716657Y-98387000D01*
X143352570Y-98537810D01*
X143073910Y-98816470D01*
X142923100Y-99180557D01*
X142923100Y-99301400D01*
X142252642Y-99301400D01*
X142440500Y-98847871D01*
X142440500Y-98361600D01*
X145433780Y-98361600D01*
X145486170Y-98413990D01*
X145850257Y-98564800D01*
X146244343Y-98564800D01*
X146608430Y-98413990D01*
X146887090Y-98135330D01*
X147037900Y-97771243D01*
X147037900Y-97686327D01*
X147087110Y-97805130D01*
X147365770Y-98083790D01*
X147729857Y-98234600D01*
X148123943Y-98234600D01*
X148292946Y-98164596D01*
X148318566Y-98181715D01*
X148548242Y-98227400D01*
X148548243Y-98227400D01*
X148625794Y-98242826D01*
X148703345Y-98227400D01*
X158084919Y-98227400D01*
X158048919Y-98330590D01*
X158078295Y-98845094D01*
X158218671Y-99183991D01*
X158450342Y-99240953D01*
X159177295Y-98514000D01*
X159163153Y-98499858D01*
X159342758Y-98320253D01*
X159356900Y-98334395D01*
X159371043Y-98320253D01*
X159550648Y-98499858D01*
X159536505Y-98514000D01*
X160263458Y-99240953D01*
X160495129Y-99183991D01*
X160664881Y-98697410D01*
X160638045Y-98227400D01*
X167262149Y-98227400D01*
X167339700Y-98242826D01*
X167381055Y-98234600D01*
X167732743Y-98234600D01*
X167854264Y-98184264D01*
X180959619Y-98184264D01*
X180989394Y-98688623D01*
X181125121Y-99016297D01*
X181354167Y-99070128D01*
X182062695Y-98361600D01*
X182421905Y-98361600D01*
X183130433Y-99070128D01*
X183187581Y-99056697D01*
X183197646Y-99080997D01*
X183554903Y-99438254D01*
X184021681Y-99631600D01*
X184526919Y-99631600D01*
X184993697Y-99438254D01*
X185350954Y-99080997D01*
X185544300Y-98614219D01*
X185544300Y-98108981D01*
X185350954Y-97642203D01*
X184993697Y-97284946D01*
X184526919Y-97091600D01*
X184021681Y-97091600D01*
X183554903Y-97284946D01*
X183197646Y-97642203D01*
X183187581Y-97666503D01*
X183130433Y-97653072D01*
X182421905Y-98361600D01*
X182062695Y-98361600D01*
X181354167Y-97653072D01*
X181125121Y-97706903D01*
X180959619Y-98184264D01*
X167854264Y-98184264D01*
X168096830Y-98083790D01*
X168375490Y-97805130D01*
X168512869Y-97473467D01*
X181533772Y-97473467D01*
X182242300Y-98181995D01*
X182950828Y-97473467D01*
X182896997Y-97244421D01*
X182419636Y-97078919D01*
X181915277Y-97108694D01*
X181587603Y-97244421D01*
X181533772Y-97473467D01*
X168512869Y-97473467D01*
X168526300Y-97441043D01*
X168526300Y-97046957D01*
X168375490Y-96682870D01*
X168096830Y-96404210D01*
X167732743Y-96253400D01*
X167338657Y-96253400D01*
X166974570Y-96404210D01*
X166726180Y-96652600D01*
X160477945Y-96652600D01*
X160652300Y-96231671D01*
X160652300Y-95716329D01*
X160455087Y-95240215D01*
X160090685Y-94875813D01*
X159614571Y-94678600D01*
X159175051Y-94678600D01*
X159028716Y-94532265D01*
X158984784Y-94466516D01*
X158724328Y-94292485D01*
X158494652Y-94246800D01*
X158494651Y-94246800D01*
X158417100Y-94231374D01*
X158339549Y-94246800D01*
X154325161Y-94246800D01*
X154437981Y-93923410D01*
X154432794Y-93832558D01*
X155378747Y-93832558D01*
X155435709Y-94064229D01*
X155922290Y-94233981D01*
X156436794Y-94204605D01*
X156775691Y-94064229D01*
X156832653Y-93832558D01*
X156105700Y-93105605D01*
X155378747Y-93832558D01*
X154432794Y-93832558D01*
X154408605Y-93408906D01*
X154268229Y-93070009D01*
X154036558Y-93013047D01*
X153309605Y-93740000D01*
X153323748Y-93754143D01*
X153144143Y-93933748D01*
X153130000Y-93919605D01*
X153115858Y-93933748D01*
X152936253Y-93754143D01*
X152950395Y-93740000D01*
X152223442Y-93013047D01*
X151991771Y-93070009D01*
X151822019Y-93556590D01*
X151851395Y-94071094D01*
X151924175Y-94246800D01*
X150644700Y-94246800D01*
X150644700Y-94049757D01*
X150641711Y-94042540D01*
X151850809Y-92833442D01*
X152403047Y-92833442D01*
X153130000Y-93560395D01*
X153856953Y-92833442D01*
X153799991Y-92601771D01*
X153313410Y-92432019D01*
X152798906Y-92461395D01*
X152460009Y-92601771D01*
X152403047Y-92833442D01*
X151850809Y-92833442D01*
X152239652Y-92444600D01*
X152498900Y-92496168D01*
X153043982Y-92387744D01*
X153506080Y-92078980D01*
X153768901Y-91685641D01*
X154031721Y-92078980D01*
X154493819Y-92387744D01*
X154893759Y-92467298D01*
X154797719Y-92742590D01*
X154827095Y-93257094D01*
X154967471Y-93595991D01*
X155199142Y-93652953D01*
X155926095Y-92926000D01*
X155911953Y-92911858D01*
X156091558Y-92732253D01*
X156105700Y-92746395D01*
X156119843Y-92732253D01*
X156299448Y-92911858D01*
X156285305Y-92926000D01*
X157012258Y-93652953D01*
X157243929Y-93595991D01*
X157413681Y-93109410D01*
X157407912Y-93008357D01*
X158366300Y-93008357D01*
X158366300Y-93402443D01*
X158517110Y-93766530D01*
X158795770Y-94045190D01*
X159159857Y-94196000D01*
X159553943Y-94196000D01*
X159918030Y-94045190D01*
X159970420Y-93992800D01*
X161538128Y-93992800D01*
X161848915Y-94303587D01*
X162325029Y-94500800D01*
X162840371Y-94500800D01*
X163316485Y-94303587D01*
X163480859Y-94139213D01*
X172699692Y-94139213D01*
X172778517Y-94389290D01*
X173329597Y-94588777D01*
X173915069Y-94562189D01*
X174332483Y-94389290D01*
X174411308Y-94139213D01*
X173555500Y-93283405D01*
X172699692Y-94139213D01*
X163480859Y-94139213D01*
X163680887Y-93939185D01*
X163878100Y-93463071D01*
X163878100Y-92947729D01*
X163849175Y-92877897D01*
X172070523Y-92877897D01*
X172097111Y-93463369D01*
X172270010Y-93880783D01*
X172520087Y-93959608D01*
X173375895Y-93103800D01*
X173735105Y-93103800D01*
X174590913Y-93959608D01*
X174840990Y-93880783D01*
X175040477Y-93329703D01*
X175013889Y-92744231D01*
X174840990Y-92326817D01*
X174590913Y-92247992D01*
X173735105Y-93103800D01*
X173375895Y-93103800D01*
X172520087Y-92247992D01*
X172270010Y-92326817D01*
X172070523Y-92877897D01*
X163849175Y-92877897D01*
X163680887Y-92471615D01*
X163316485Y-92107213D01*
X163222751Y-92068387D01*
X172699692Y-92068387D01*
X173555500Y-92924195D01*
X174411308Y-92068387D01*
X174332483Y-91818310D01*
X173781403Y-91618823D01*
X173195931Y-91645411D01*
X172778517Y-91818310D01*
X172699692Y-92068387D01*
X163222751Y-92068387D01*
X162840371Y-91910000D01*
X162325029Y-91910000D01*
X161848915Y-92107213D01*
X161538128Y-92418000D01*
X159970420Y-92418000D01*
X159918030Y-92365610D01*
X159553943Y-92214800D01*
X159159857Y-92214800D01*
X158795770Y-92365610D01*
X158517110Y-92644270D01*
X158366300Y-93008357D01*
X157407912Y-93008357D01*
X157384305Y-92594906D01*
X157299417Y-92389969D01*
X157451900Y-92303520D01*
X157451900Y-90436800D01*
X157705900Y-90436800D01*
X157705900Y-92303520D01*
X157921970Y-92426020D01*
X157996177Y-92411060D01*
X158476926Y-92149430D01*
X158820959Y-91723741D01*
X158975900Y-91198800D01*
X158975900Y-90436800D01*
X157705900Y-90436800D01*
X157451900Y-90436800D01*
X157431900Y-90436800D01*
X157431900Y-90182800D01*
X157451900Y-90182800D01*
X157451900Y-90162800D01*
X157705900Y-90162800D01*
X157705900Y-90182800D01*
X158975900Y-90182800D01*
X158975900Y-89420800D01*
X158915924Y-89217600D01*
X160164224Y-89217600D01*
X159994715Y-89287813D01*
X159630313Y-89652215D01*
X159433100Y-90128329D01*
X159433100Y-90643671D01*
X159630313Y-91119785D01*
X159994715Y-91484187D01*
X160470829Y-91681400D01*
X160986171Y-91681400D01*
X161462285Y-91484187D01*
X161826687Y-91119785D01*
X162023900Y-90643671D01*
X162023900Y-90128329D01*
X161826687Y-89652215D01*
X161462285Y-89287813D01*
X161292776Y-89217600D01*
X167784224Y-89217600D01*
X167614715Y-89287813D01*
X167250313Y-89652215D01*
X167053100Y-90128329D01*
X167053100Y-90643671D01*
X167250313Y-91119785D01*
X167614715Y-91484187D01*
X168090829Y-91681400D01*
X168606171Y-91681400D01*
X169082285Y-91484187D01*
X169446687Y-91119785D01*
X169643900Y-90643671D01*
X169643900Y-90128329D01*
X169446687Y-89652215D01*
X169082285Y-89287813D01*
X168912776Y-89217600D01*
X171913655Y-89217600D01*
X172115103Y-89419048D01*
X172056900Y-89559562D01*
X172056900Y-90145638D01*
X172281181Y-90687101D01*
X172695599Y-91101519D01*
X173237062Y-91325800D01*
X173823138Y-91325800D01*
X174364601Y-91101519D01*
X174779019Y-90687101D01*
X175003300Y-90145638D01*
X175003300Y-89559562D01*
X182216900Y-89559562D01*
X182216900Y-90145638D01*
X182441181Y-90687101D01*
X182855599Y-91101519D01*
X183397062Y-91325800D01*
X183546855Y-91325800D01*
X183851655Y-91630600D01*
X183422462Y-91630600D01*
X182880999Y-91854881D01*
X182466581Y-92269299D01*
X182242300Y-92810762D01*
X182242300Y-93396838D01*
X182466581Y-93938301D01*
X182880999Y-94352719D01*
X183422462Y-94577000D01*
X184008538Y-94577000D01*
X184550001Y-94352719D01*
X184964419Y-93938301D01*
X185188700Y-93396838D01*
X185188700Y-92967645D01*
X187277464Y-95056410D01*
X187246100Y-95132129D01*
X187246100Y-95647471D01*
X187443313Y-96123585D01*
X187807715Y-96487987D01*
X188283829Y-96685200D01*
X188799171Y-96685200D01*
X189275285Y-96487987D01*
X189639687Y-96123585D01*
X189836900Y-95647471D01*
X189836900Y-95132129D01*
X189691537Y-94781193D01*
X189706892Y-94704000D01*
X189618182Y-94258023D01*
X189508852Y-94094400D01*
X189365557Y-93879943D01*
X189270121Y-93816175D01*
X185163300Y-89709355D01*
X185163300Y-89559562D01*
X184939019Y-89018099D01*
X184524601Y-88603681D01*
X183983138Y-88379400D01*
X183397062Y-88379400D01*
X182855599Y-88603681D01*
X182441181Y-89018099D01*
X182216900Y-89559562D01*
X175003300Y-89559562D01*
X174779019Y-89018099D01*
X174625215Y-88864295D01*
X174606782Y-88771624D01*
X174354157Y-88393543D01*
X174258721Y-88329775D01*
X173274927Y-87345982D01*
X173211157Y-87250543D01*
X172955921Y-87080000D01*
X189810248Y-87080000D01*
X190119134Y-87128923D01*
G36*
X150432048Y-117041858D02*
X150417905Y-117056000D01*
X150432048Y-117070143D01*
X150252443Y-117249748D01*
X150238300Y-117235605D01*
X150224158Y-117249748D01*
X150044553Y-117070143D01*
X150058695Y-117056000D01*
X150044553Y-117041858D01*
X150224158Y-116862253D01*
X150238300Y-116876395D01*
X150252443Y-116862253D01*
X150432048Y-117041858D01*
X150432048Y-117041858D01*
G37*
X150432048Y-117041858D02*
X150417905Y-117056000D01*
X150432048Y-117070143D01*
X150252443Y-117249748D01*
X150238300Y-117235605D01*
X150224158Y-117249748D01*
X150044553Y-117070143D01*
X150058695Y-117056000D01*
X150044553Y-117041858D01*
X150224158Y-116862253D01*
X150238300Y-116876395D01*
X150252443Y-116862253D01*
X150432048Y-117041858D01*
G04 #@! TD*
M02*
