G04 #@! TF.GenerationSoftware,KiCad,Pcbnew,5.0.0+dfsg1-2*
G04 #@! TF.CreationDate,2019-01-23T11:39:39+01:00*
G04 #@! TF.ProjectId,SLC_Free_PCB,534C435F467265655F5043422E6B6963,rev?*
G04 #@! TF.SameCoordinates,Original*
G04 #@! TF.FileFunction,Soldermask,Top*
G04 #@! TF.FilePolarity,Negative*
%FSLAX46Y46*%
G04 Gerber Fmt 4.6, Leading zero omitted, Abs format (unit mm)*
G04 Created by KiCad (PCBNEW 5.0.0+dfsg1-2) date Wed Jan 23 11:39:39 2019*
%MOMM*%
%LPD*%
G01*
G04 APERTURE LIST*
%ADD10O,1.422400X2.743200*%
%ADD11C,1.422400*%
%ADD12C,1.778000*%
%ADD13O,1.778000X3.454400*%
%ADD14C,1.371600*%
%ADD15O,1.625600X3.149600*%
%ADD16R,4.100000X4.100000*%
%ADD17C,4.100000*%
%ADD18C,3.400000*%
G04 APERTURE END LIST*
D10*
G04 #@! TO.C,IC2*
X133347300Y-103848000D03*
X135887300Y-103848000D03*
X138427300Y-103848000D03*
X140967300Y-103848000D03*
X143507300Y-103848000D03*
X146047300Y-103848000D03*
X148587300Y-103848000D03*
X151127300Y-103848000D03*
X153667300Y-103848000D03*
X156207300Y-103848000D03*
X158747300Y-103848000D03*
X161287300Y-103848000D03*
X163827300Y-103848000D03*
X166367300Y-103848000D03*
X166367300Y-111468000D03*
X163827300Y-111468000D03*
X161287300Y-111468000D03*
X158747300Y-111468000D03*
X156207300Y-111468000D03*
X153667300Y-111468000D03*
X143507300Y-111468000D03*
X146047300Y-111468000D03*
X140967300Y-111468000D03*
X138427300Y-111468000D03*
X151127300Y-111468000D03*
X148587300Y-111468000D03*
X135887300Y-111468000D03*
X133347300Y-111468000D03*
G04 #@! TD*
D11*
G04 #@! TO.C,R13*
X124025500Y-118961000D03*
X124025500Y-111341000D03*
G04 #@! TD*
G04 #@! TO.C,R4*
X138300300Y-101079400D03*
X138300300Y-93459400D03*
G04 #@! TD*
G04 #@! TO.C,R12*
X152981500Y-122136000D03*
X152981500Y-114516000D03*
G04 #@! TD*
G04 #@! TO.C,R10*
X156105700Y-92926000D03*
X156105700Y-100546000D03*
G04 #@! TD*
G04 #@! TO.C,C6*
X141145100Y-96050200D03*
X141145100Y-98590200D03*
G04 #@! TD*
G04 #@! TO.C,C8*
X153130000Y-93740000D03*
X153130000Y-96280000D03*
G04 #@! TD*
G04 #@! TO.C,C5*
X133347300Y-97498000D03*
X133347300Y-100038000D03*
G04 #@! TD*
D12*
G04 #@! TO.C,D2*
X183690100Y-89852600D03*
X173530100Y-89852600D03*
G04 #@! TD*
G04 #@! TO.C,D3*
X183715500Y-93103800D03*
X173555500Y-93103800D03*
G04 #@! TD*
D11*
G04 #@! TO.C,R8*
X144777300Y-101079400D03*
X144777300Y-93459400D03*
G04 #@! TD*
G04 #@! TO.C,R2*
X128775300Y-121805800D03*
X128775300Y-114185800D03*
G04 #@! TD*
G04 #@! TO.C,R6*
X133702900Y-121805800D03*
X133702900Y-114185800D03*
G04 #@! TD*
G04 #@! TO.C,R7*
X147926900Y-93459400D03*
X147926900Y-101079400D03*
G04 #@! TD*
D13*
G04 #@! TO.C,IC3*
X121180700Y-115125600D03*
X118640700Y-115125600D03*
X116100700Y-115125600D03*
G04 #@! TD*
D11*
G04 #@! TO.C,R5*
X137741500Y-114185800D03*
X137741500Y-121805800D03*
G04 #@! TD*
G04 #@! TO.C,R9*
X140332300Y-121805800D03*
X140332300Y-114185800D03*
G04 #@! TD*
G04 #@! TO.C,C7*
X144040700Y-119900800D03*
X144040700Y-117360800D03*
G04 #@! TD*
D13*
G04 #@! TO.C,IC1*
X176654300Y-113957200D03*
X174114300Y-113957200D03*
X171574300Y-113957200D03*
G04 #@! TD*
D11*
G04 #@! TO.C,C2*
X181480300Y-102654200D03*
X184020300Y-102654200D03*
G04 #@! TD*
G04 #@! TO.C,C4*
X187677900Y-116294000D03*
X185137900Y-116294000D03*
G04 #@! TD*
D12*
G04 #@! TO.C,D1*
X182039100Y-105270400D03*
X182039100Y-115430400D03*
G04 #@! TD*
D14*
G04 #@! TO.C,C1*
X184274300Y-98361600D03*
X182242300Y-98361600D03*
G04 #@! TD*
G04 #@! TO.C,C3*
X187347700Y-111061600D03*
X185315700Y-111061600D03*
G04 #@! TD*
D11*
G04 #@! TO.C,R3*
X131264500Y-114185800D03*
X131264500Y-121805800D03*
G04 #@! TD*
D15*
G04 #@! TO.C,JP3*
X183817100Y-120586600D03*
X181277100Y-120586600D03*
X178737100Y-120586600D03*
X176197100Y-120586600D03*
X173657100Y-120586600D03*
G04 #@! TD*
D11*
G04 #@! TO.C,R11*
X162582700Y-93205400D03*
X162582700Y-100825400D03*
G04 #@! TD*
D15*
G04 #@! TO.C,JP4*
X157578900Y-90309800D03*
X155038900Y-90309800D03*
X152498900Y-90309800D03*
X149958900Y-90309800D03*
X147418900Y-90309800D03*
X144878900Y-90309800D03*
X142338900Y-90309800D03*
X139798900Y-90309800D03*
X137258900Y-90309800D03*
X134718900Y-90309800D03*
X132178900Y-90309800D03*
X129638900Y-90309800D03*
X127098900Y-90309800D03*
X124558900Y-90309800D03*
X122018900Y-90309800D03*
X119478900Y-90309800D03*
G04 #@! TD*
D11*
G04 #@! TO.C,C10*
X150238300Y-117056000D03*
X150238300Y-119596000D03*
G04 #@! TD*
G04 #@! TO.C,C9*
X159356900Y-98514000D03*
X159356900Y-95974000D03*
G04 #@! TD*
G04 #@! TO.C,C11*
X126463900Y-104889400D03*
X129003900Y-104889400D03*
G04 #@! TD*
G04 #@! TO.C,R14*
X129003900Y-102171600D03*
X129003900Y-94551600D03*
G04 #@! TD*
G04 #@! TO.C,R15*
X126565500Y-94551600D03*
X126565500Y-102171600D03*
G04 #@! TD*
G04 #@! TO.C,R16*
X168348500Y-90386000D03*
X160728500Y-90386000D03*
G04 #@! TD*
D15*
G04 #@! TO.C,JP5*
X169593100Y-120586600D03*
X167053100Y-120586600D03*
X164513100Y-120586600D03*
X161973100Y-120586600D03*
X159433100Y-120586600D03*
X156893100Y-120586600D03*
G04 #@! TD*
D11*
G04 #@! TO.C,R1*
X188541500Y-108089800D03*
X188541500Y-95389800D03*
G04 #@! TD*
D16*
G04 #@! TO.C,JP1*
X102140000Y-99230000D03*
D17*
X102140000Y-93530000D03*
X107640000Y-99230000D03*
X107640000Y-93530000D03*
D18*
X94840000Y-96380000D03*
G04 #@! TD*
D16*
G04 #@! TO.C,JP2*
X102140000Y-117970000D03*
D17*
X102140000Y-112270000D03*
X102140000Y-106570000D03*
X107640000Y-117970000D03*
X107640000Y-112270000D03*
X107640000Y-106570000D03*
D18*
X94840000Y-117970000D03*
X94840000Y-106570000D03*
G04 #@! TD*
M02*
