G04 #@! TF.GenerationSoftware,KiCad,Pcbnew,5.0.0+dfsg1-2*
G04 #@! TF.CreationDate,2019-01-23T11:39:39+01:00*
G04 #@! TF.ProjectId,SLC_Free_PCB,534C435F467265655F5043422E6B6963,rev?*
G04 #@! TF.SameCoordinates,Original*
G04 #@! TF.FileFunction,Copper,L1,Top,Signal*
G04 #@! TF.FilePolarity,Positive*
%FSLAX46Y46*%
G04 Gerber Fmt 4.6, Leading zero omitted, Abs format (unit mm)*
G04 Created by KiCad (PCBNEW 5.0.0+dfsg1-2) date Wed Jan 23 11:39:39 2019*
%MOMM*%
%LPD*%
G01*
G04 APERTURE LIST*
G04 #@! TA.AperFunction,ComponentPad*
%ADD10O,1.320800X2.641600*%
G04 #@! TD*
G04 #@! TA.AperFunction,ComponentPad*
%ADD11C,1.320800*%
G04 #@! TD*
G04 #@! TA.AperFunction,ComponentPad*
%ADD12C,1.676400*%
G04 #@! TD*
G04 #@! TA.AperFunction,ComponentPad*
%ADD13O,1.676400X3.352800*%
G04 #@! TD*
G04 #@! TA.AperFunction,ComponentPad*
%ADD14C,1.270000*%
G04 #@! TD*
G04 #@! TA.AperFunction,ComponentPad*
%ADD15O,1.524000X3.048000*%
G04 #@! TD*
G04 #@! TA.AperFunction,ComponentPad*
%ADD16R,3.700000X3.700000*%
G04 #@! TD*
G04 #@! TA.AperFunction,ComponentPad*
%ADD17C,3.700000*%
G04 #@! TD*
G04 #@! TA.AperFunction,ViaPad*
%ADD18C,0.800000*%
G04 #@! TD*
G04 #@! TA.AperFunction,ViaPad*
%ADD19C,0.711200*%
G04 #@! TD*
G04 #@! TA.AperFunction,ViaPad*
%ADD20C,1.006400*%
G04 #@! TD*
G04 #@! TA.AperFunction,Conductor*
%ADD21C,1.350000*%
G04 #@! TD*
G04 #@! TA.AperFunction,Conductor*
%ADD22C,0.609600*%
G04 #@! TD*
G04 #@! TA.AperFunction,Conductor*
%ADD23C,0.304800*%
G04 #@! TD*
G04 #@! TA.AperFunction,Conductor*
%ADD24C,0.203200*%
G04 #@! TD*
G04 #@! TA.AperFunction,Conductor*
%ADD25C,1.016000*%
G04 #@! TD*
G04 #@! TA.AperFunction,Conductor*
%ADD26C,0.254000*%
G04 #@! TD*
G04 APERTURE END LIST*
D10*
G04 #@! TO.P,IC2,28*
G04 #@! TO.N,+5V*
X133347300Y-103848000D03*
G04 #@! TO.P,IC2,27*
G04 #@! TO.N,/RT_ADC*
X135887300Y-103848000D03*
G04 #@! TO.P,IC2,26*
G04 #@! TO.N,/P0[4]*
X138427300Y-103848000D03*
G04 #@! TO.P,IC2,25*
G04 #@! TO.N,/AC_TEMP_SENSE_OUT*
X140967300Y-103848000D03*
G04 #@! TO.P,IC2,24*
G04 #@! TO.N,/RE+_ADC*
X143507300Y-103848000D03*
G04 #@! TO.P,IC2,23*
G04 #@! TO.N,/LCD_RW*
X146047300Y-103848000D03*
G04 #@! TO.P,IC2,22*
G04 #@! TO.N,/LCD_E*
X148587300Y-103848000D03*
G04 #@! TO.P,IC2,21*
G04 #@! TO.N,/LCD_DB6*
X151127300Y-103848000D03*
G04 #@! TO.P,IC2,20*
G04 #@! TO.N,/LCD_DB4*
X153667300Y-103848000D03*
G04 #@! TO.P,IC2,19*
G04 #@! TO.N,/XRES*
X156207300Y-103848000D03*
G04 #@! TO.P,IC2,18*
G04 #@! TO.N,/PWM_NB_OUT*
X158747300Y-103848000D03*
G04 #@! TO.P,IC2,17*
G04 #@! TO.N,/PWM_HEATER*
X161287300Y-103848000D03*
G04 #@! TO.P,IC2,16*
G04 #@! TO.N,/CAL*
X163827300Y-103848000D03*
G04 #@! TO.P,IC2,15*
G04 #@! TO.N,/PROG_SDA*
X166367300Y-103848000D03*
G04 #@! TO.P,IC2,14*
G04 #@! TO.N,GND*
X166367300Y-111468000D03*
G04 #@! TO.P,IC2,13*
G04 #@! TO.N,/PROG_SCL*
X163827300Y-111468000D03*
G04 #@! TO.P,IC2,12*
G04 #@! TO.N,/P1[3]*
X161287300Y-111468000D03*
G04 #@! TO.P,IC2,11*
G04 #@! TO.N,/PWM_LIN_OUT*
X158747300Y-111468000D03*
G04 #@! TO.P,IC2,10*
G04 #@! TO.N,/P1[7]*
X156207300Y-111468000D03*
G04 #@! TO.P,IC2,9*
G04 #@! TO.N,Net-(IC2-Pad9)*
X153667300Y-111468000D03*
G04 #@! TO.P,IC2,5*
G04 #@! TO.N,/P2[7]*
X143507300Y-111468000D03*
G04 #@! TO.P,IC2,6*
G04 #@! TO.N,/LCD_RS*
X146047300Y-111468000D03*
G04 #@! TO.P,IC2,4*
G04 #@! TO.N,/INSAMP_VREF*
X140967300Y-111468000D03*
G04 #@! TO.P,IC2,3*
G04 #@! TO.N,/LSU_VGND*
X138427300Y-111468000D03*
G04 #@! TO.P,IC2,8*
G04 #@! TO.N,/LCD_DB5*
X151127300Y-111468000D03*
G04 #@! TO.P,IC2,7*
G04 #@! TO.N,/LCD_DB7*
X148587300Y-111468000D03*
G04 #@! TO.P,IC2,2*
G04 #@! TO.N,/LSU_IA*
X135887300Y-111468000D03*
G04 #@! TO.P,IC2,1*
G04 #@! TO.N,/APE_ADC*
X133347300Y-111468000D03*
G04 #@! TD*
D11*
G04 #@! TO.P,R13,2*
G04 #@! TO.N,Net-(IC3-PadG)*
X124025500Y-118961000D03*
G04 #@! TO.P,R13,1*
G04 #@! TO.N,/PWM_HEATER*
X124025500Y-111341000D03*
G04 #@! TD*
G04 #@! TO.P,R4,2*
G04 #@! TO.N,Net-(C6-Pad2)*
X138300300Y-101079400D03*
G04 #@! TO.P,R4,1*
G04 #@! TO.N,/LSU_NERMEST*
X138300300Y-93459400D03*
G04 #@! TD*
G04 #@! TO.P,R12,2*
G04 #@! TO.N,LIN_OUT*
X152981500Y-122136000D03*
G04 #@! TO.P,R12,1*
G04 #@! TO.N,/PWM_LIN_OUT*
X152981500Y-114516000D03*
G04 #@! TD*
G04 #@! TO.P,R10,2*
G04 #@! TO.N,GND*
X156105700Y-92926000D03*
G04 #@! TO.P,R10,1*
G04 #@! TO.N,/XRES*
X156105700Y-100546000D03*
G04 #@! TD*
G04 #@! TO.P,C6,2*
G04 #@! TO.N,Net-(C6-Pad2)*
X141145100Y-96050200D03*
G04 #@! TO.P,C6,1*
G04 #@! TO.N,/AC_TEMP_SENSE_OUT*
X141145100Y-98590200D03*
G04 #@! TD*
G04 #@! TO.P,C8,2*
G04 #@! TO.N,GND*
X153130000Y-93740000D03*
G04 #@! TO.P,C8,1*
G04 #@! TO.N,/XRES*
X153130000Y-96280000D03*
G04 #@! TD*
G04 #@! TO.P,C5,2*
G04 #@! TO.N,GND*
X133347300Y-97498000D03*
G04 #@! TO.P,C5,1*
G04 #@! TO.N,+5V*
X133347300Y-100038000D03*
G04 #@! TD*
D12*
G04 #@! TO.P,D2,C*
G04 #@! TO.N,Net-(D2-PadC)*
X183690100Y-89852600D03*
G04 #@! TO.P,D2,A*
G04 #@! TO.N,+12V*
X173530100Y-89852600D03*
G04 #@! TD*
G04 #@! TO.P,D3,C*
G04 #@! TO.N,Net-(C1-Pad+)*
X183715500Y-93103800D03*
G04 #@! TO.P,D3,A*
G04 #@! TO.N,GND*
X173555500Y-93103800D03*
G04 #@! TD*
D11*
G04 #@! TO.P,R8,2*
G04 #@! TO.N,/RE+_ADC*
X144777300Y-101079400D03*
G04 #@! TO.P,R8,1*
G04 #@! TO.N,/LSU_NERMEST*
X144777300Y-93459400D03*
G04 #@! TD*
G04 #@! TO.P,R2,2*
G04 #@! TO.N,/LSU_IP*
X128775300Y-121805800D03*
G04 #@! TO.P,R2,1*
G04 #@! TO.N,/APE_ADC*
X128775300Y-114185800D03*
G04 #@! TD*
G04 #@! TO.P,R6,2*
G04 #@! TO.N,/RT_ADC*
X133702900Y-121805800D03*
G04 #@! TO.P,R6,1*
G04 #@! TO.N,/LSU_IA*
X133702900Y-114185800D03*
G04 #@! TD*
G04 #@! TO.P,R7,2*
G04 #@! TO.N,/LSU_NERMEST*
X147926900Y-93459400D03*
G04 #@! TO.P,R7,1*
G04 #@! TO.N,+5V*
X147926900Y-101079400D03*
G04 #@! TD*
D13*
G04 #@! TO.P,IC3,S*
G04 #@! TO.N,/H_GND*
X121180700Y-115125600D03*
G04 #@! TO.P,IC3,D*
G04 #@! TO.N,LSU_HEATER-*
X118640700Y-115125600D03*
G04 #@! TO.P,IC3,G*
G04 #@! TO.N,Net-(IC3-PadG)*
X116100700Y-115125600D03*
G04 #@! TD*
D11*
G04 #@! TO.P,R5,2*
G04 #@! TO.N,/INSAMP_VREF*
X137741500Y-114185800D03*
G04 #@! TO.P,R5,1*
G04 #@! TO.N,+5V*
X137741500Y-121805800D03*
G04 #@! TD*
G04 #@! TO.P,R9,2*
G04 #@! TO.N,GND*
X140332300Y-121805800D03*
G04 #@! TO.P,R9,1*
G04 #@! TO.N,/INSAMP_VREF*
X140332300Y-114185800D03*
G04 #@! TD*
G04 #@! TO.P,C7,2*
G04 #@! TO.N,GND*
X144040700Y-119900800D03*
G04 #@! TO.P,C7,1*
G04 #@! TO.N,/INSAMP_VREF*
X144040700Y-117360800D03*
G04 #@! TD*
D13*
G04 #@! TO.P,IC1,3*
G04 #@! TO.N,+5V*
X176654300Y-113957200D03*
G04 #@! TO.P,IC1,2*
G04 #@! TO.N,GND*
X174114300Y-113957200D03*
G04 #@! TO.P,IC1,1*
G04 #@! TO.N,Net-(C1-Pad+)*
X171574300Y-113957200D03*
G04 #@! TD*
D11*
G04 #@! TO.P,C2,2*
G04 #@! TO.N,GND*
X181480300Y-102654200D03*
G04 #@! TO.P,C2,1*
G04 #@! TO.N,Net-(C1-Pad+)*
X184020300Y-102654200D03*
G04 #@! TD*
G04 #@! TO.P,C4,2*
G04 #@! TO.N,GND*
X187677900Y-116294000D03*
G04 #@! TO.P,C4,1*
G04 #@! TO.N,+5V*
X185137900Y-116294000D03*
G04 #@! TD*
D12*
G04 #@! TO.P,D1,C*
G04 #@! TO.N,Net-(C1-Pad+)*
X182039100Y-105270400D03*
G04 #@! TO.P,D1,A*
G04 #@! TO.N,+5V*
X182039100Y-115430400D03*
G04 #@! TD*
D14*
G04 #@! TO.P,C1,+*
G04 #@! TO.N,Net-(C1-Pad+)*
X184274300Y-98361600D03*
G04 #@! TO.P,C1,-*
G04 #@! TO.N,GND*
X182242300Y-98361600D03*
G04 #@! TD*
G04 #@! TO.P,C3,+*
G04 #@! TO.N,+5V*
X187347700Y-111061600D03*
G04 #@! TO.P,C3,-*
G04 #@! TO.N,GND*
X185315700Y-111061600D03*
G04 #@! TD*
D11*
G04 #@! TO.P,R3,2*
G04 #@! TO.N,/LSU_IA*
X131264500Y-114185800D03*
G04 #@! TO.P,R3,1*
G04 #@! TO.N,/LSU_IP*
X131264500Y-121805800D03*
G04 #@! TD*
D15*
G04 #@! TO.P,JP3,5*
G04 #@! TO.N,/PROG_SDA*
X183817100Y-120586600D03*
G04 #@! TO.P,JP3,4*
G04 #@! TO.N,/PROG_SCL*
X181277100Y-120586600D03*
G04 #@! TO.P,JP3,3*
G04 #@! TO.N,/XRES*
X178737100Y-120586600D03*
G04 #@! TO.P,JP3,2*
G04 #@! TO.N,GND*
X176197100Y-120586600D03*
G04 #@! TO.P,JP3,1*
G04 #@! TO.N,+5V*
X173657100Y-120586600D03*
G04 #@! TD*
D11*
G04 #@! TO.P,R11,2*
G04 #@! TO.N,NB_OUT*
X162582700Y-93205400D03*
G04 #@! TO.P,R11,1*
G04 #@! TO.N,/PWM_NB_OUT*
X162582700Y-100825400D03*
G04 #@! TD*
D15*
G04 #@! TO.P,JP4,16*
G04 #@! TO.N,GND*
X157578900Y-90309800D03*
G04 #@! TO.P,JP4,15*
G04 #@! TO.N,/LCD_ANODE*
X155038900Y-90309800D03*
G04 #@! TO.P,JP4,14*
G04 #@! TO.N,/LCD_DB7*
X152498900Y-90309800D03*
G04 #@! TO.P,JP4,13*
G04 #@! TO.N,/LCD_DB6*
X149958900Y-90309800D03*
G04 #@! TO.P,JP4,12*
G04 #@! TO.N,/LCD_DB5*
X147418900Y-90309800D03*
G04 #@! TO.P,JP4,11*
G04 #@! TO.N,/LCD_DB4*
X144878900Y-90309800D03*
G04 #@! TO.P,JP4,10*
G04 #@! TO.N,Net-(JP4-Pad10)*
X142338900Y-90309800D03*
G04 #@! TO.P,JP4,9*
G04 #@! TO.N,Net-(JP4-Pad9)*
X139798900Y-90309800D03*
G04 #@! TO.P,JP4,8*
G04 #@! TO.N,Net-(JP4-Pad8)*
X137258900Y-90309800D03*
G04 #@! TO.P,JP4,7*
G04 #@! TO.N,Net-(JP4-Pad7)*
X134718900Y-90309800D03*
G04 #@! TO.P,JP4,6*
G04 #@! TO.N,/LCD_E*
X132178900Y-90309800D03*
G04 #@! TO.P,JP4,5*
G04 #@! TO.N,/LCD_RW*
X129638900Y-90309800D03*
G04 #@! TO.P,JP4,4*
G04 #@! TO.N,/LCD_RS*
X127098900Y-90309800D03*
G04 #@! TO.P,JP4,3*
G04 #@! TO.N,/LCD_CONTRAST*
X124558900Y-90309800D03*
G04 #@! TO.P,JP4,2*
G04 #@! TO.N,+5V*
X122018900Y-90309800D03*
G04 #@! TO.P,JP4,1*
G04 #@! TO.N,GND*
X119478900Y-90309800D03*
G04 #@! TD*
D11*
G04 #@! TO.P,C10,2*
G04 #@! TO.N,GND*
X150238300Y-117056000D03*
G04 #@! TO.P,C10,1*
G04 #@! TO.N,LIN_OUT*
X150238300Y-119596000D03*
G04 #@! TD*
G04 #@! TO.P,C9,2*
G04 #@! TO.N,GND*
X159356900Y-98514000D03*
G04 #@! TO.P,C9,1*
G04 #@! TO.N,NB_OUT*
X159356900Y-95974000D03*
G04 #@! TD*
G04 #@! TO.P,C11,2*
G04 #@! TO.N,GND*
X126463900Y-104889400D03*
G04 #@! TO.P,C11,1*
G04 #@! TO.N,+5V*
X129003900Y-104889400D03*
G04 #@! TD*
G04 #@! TO.P,R14,2*
G04 #@! TO.N,+5V*
X129003900Y-102171600D03*
G04 #@! TO.P,R14,1*
G04 #@! TO.N,/LCD_CONTRAST*
X129003900Y-94551600D03*
G04 #@! TD*
G04 #@! TO.P,R15,2*
G04 #@! TO.N,/LCD_CONTRAST*
X126565500Y-94551600D03*
G04 #@! TO.P,R15,1*
G04 #@! TO.N,GND*
X126565500Y-102171600D03*
G04 #@! TD*
G04 #@! TO.P,R16,2*
G04 #@! TO.N,+5V*
X168348500Y-90386000D03*
G04 #@! TO.P,R16,1*
G04 #@! TO.N,/LCD_ANODE*
X160728500Y-90386000D03*
G04 #@! TD*
D15*
G04 #@! TO.P,JP5,6*
G04 #@! TO.N,+5V*
X169593100Y-120586600D03*
G04 #@! TO.P,JP5,5*
G04 #@! TO.N,GND*
X167053100Y-120586600D03*
G04 #@! TO.P,JP5,4*
G04 #@! TO.N,/P2[7]*
X164513100Y-120586600D03*
G04 #@! TO.P,JP5,3*
G04 #@! TO.N,/P1[7]*
X161973100Y-120586600D03*
G04 #@! TO.P,JP5,2*
G04 #@! TO.N,/P1[3]*
X159433100Y-120586600D03*
G04 #@! TO.P,JP5,1*
G04 #@! TO.N,/P0[4]*
X156893100Y-120586600D03*
G04 #@! TD*
D11*
G04 #@! TO.P,R1,2*
G04 #@! TO.N,Net-(C1-Pad+)*
X188541500Y-108089800D03*
G04 #@! TO.P,R1,1*
G04 #@! TO.N,Net-(D2-PadC)*
X188541500Y-95389800D03*
G04 #@! TD*
D16*
G04 #@! TO.P,JP1,1*
G04 #@! TO.N,NB_OUT*
X102140000Y-99230000D03*
D17*
G04 #@! TO.P,JP1,2*
G04 #@! TO.N,LIN_OUT*
X102140000Y-93530000D03*
G04 #@! TO.P,JP1,3*
G04 #@! TO.N,GND*
X107640000Y-99230000D03*
G04 #@! TO.P,JP1,4*
G04 #@! TO.N,+12V*
X107640000Y-93530000D03*
G04 #@! TD*
D16*
G04 #@! TO.P,JP2,1*
G04 #@! TO.N,+12V*
X102140000Y-117970000D03*
D17*
G04 #@! TO.P,JP2,2*
G04 #@! TO.N,LSU_HEATER-*
X102140000Y-112270000D03*
G04 #@! TO.P,JP2,3*
G04 #@! TO.N,/LSU_IA*
X102140000Y-106570000D03*
G04 #@! TO.P,JP2,4*
G04 #@! TO.N,/LSU_IP*
X107640000Y-117970000D03*
G04 #@! TO.P,JP2,5*
G04 #@! TO.N,/LSU_NERMEST*
X107640000Y-112270000D03*
G04 #@! TO.P,JP2,6*
G04 #@! TO.N,/LSU_VGND*
X107640000Y-106570000D03*
G04 #@! TD*
D18*
G04 #@! TO.N,GND*
X135750000Y-121210000D03*
X135750000Y-116590000D03*
X142220000Y-107750000D03*
X142200000Y-119850000D03*
X151330000Y-107880000D03*
X147820000Y-120240000D03*
D19*
G04 #@! TO.N,+5V*
X147926900Y-97244000D03*
X129003900Y-100038000D03*
X127784700Y-93357800D03*
X136852500Y-100038000D03*
X167535700Y-97244000D03*
G04 #@! TO.N,/P0[4]*
X138427300Y-109080400D03*
X157223300Y-109283600D03*
G04 #@! TO.N,/LCD_RW*
X146047300Y-97574200D03*
X130731100Y-98514000D03*
D18*
X136610000Y-97574200D03*
D19*
G04 #@! TO.N,/LCD_E*
X148942900Y-96532800D03*
X131442300Y-96278800D03*
G04 #@! TO.N,/LCD_DB4*
X143913700Y-99377600D03*
X153667300Y-100063400D03*
G04 #@! TO.N,/XRES*
X155191300Y-118783200D03*
G04 #@! TO.N,/PWM_NB_OUT*
X158747300Y-100825400D03*
G04 #@! TO.N,/PWM_HEATER*
X126159100Y-111341000D03*
X126209900Y-119062600D03*
X138046300Y-116344800D03*
X160271300Y-118072000D03*
X138046300Y-117564000D03*
G04 #@! TO.N,/PROG_SDA*
X165732300Y-117487800D03*
G04 #@! TO.N,/PROG_SCL*
X163801900Y-117995800D03*
G04 #@! TO.N,/P1[3]*
X159560100Y-117360800D03*
X160982500Y-117360800D03*
G04 #@! TO.N,/PWM_LIN_OUT*
X158747300Y-114516000D03*
G04 #@! TO.N,/P1[7]*
X161973100Y-116649600D03*
X156181900Y-116649600D03*
G04 #@! TO.N,/P2[7]*
X164513100Y-115938400D03*
X143507300Y-115633600D03*
G04 #@! TO.N,/LCD_RS*
X130019900Y-109791600D03*
G04 #@! TO.N,/INSAMP_VREF*
X140332300Y-117360800D03*
G04 #@! TO.N,/LSU_VGND*
X138605100Y-118961000D03*
G04 #@! TO.N,/LCD_DB5*
X147063300Y-113169800D03*
G04 #@! TO.N,/LCD_DB7*
X149654100Y-94246800D03*
G04 #@! TO.N,/LSU_IA*
X135887300Y-114185800D03*
X131289900Y-120383400D03*
G04 #@! TO.N,/APE_ADC*
X128775300Y-111468000D03*
G04 #@! TO.N,Net-(C6-Pad2)*
X138300300Y-96050200D03*
G04 #@! TO.N,/LSU_NERMEST*
X139316300Y-119672200D03*
D20*
G04 #@! TO.N,Net-(C1-Pad+)*
X180489700Y-116344800D03*
X188566900Y-102654200D03*
D19*
G04 #@! TO.N,LIN_OUT*
X152981500Y-119596000D03*
X125447900Y-99885600D03*
X125447900Y-119570600D03*
G04 #@! TO.N,NB_OUT*
X159356900Y-93205400D03*
X124736700Y-102425600D03*
X125498700Y-95567600D03*
D18*
X107670000Y-103425600D03*
X114310000Y-103425600D03*
G04 #@! TD*
D21*
G04 #@! TO.N,GND*
X121180000Y-115124900D02*
X121180700Y-115125600D01*
X107640000Y-99230000D02*
X121180000Y-112770000D01*
X121180000Y-112770000D02*
X121180000Y-115124900D01*
D22*
X135750000Y-117155685D02*
X135750000Y-121210000D01*
D23*
X142220000Y-119750000D02*
X142120000Y-119850000D01*
D22*
X142220000Y-107750000D02*
X142220000Y-119750000D01*
D23*
X147820000Y-119474300D02*
X150238300Y-117056000D01*
X147820000Y-120240000D02*
X147820000Y-119474300D01*
X150898699Y-116395601D02*
X150898699Y-114391301D01*
X150238300Y-117056000D02*
X150898699Y-116395601D01*
X150898699Y-114391301D02*
X152390000Y-112900000D01*
X152390000Y-108940000D02*
X151330000Y-107880000D01*
X152390000Y-112900000D02*
X152390000Y-108940000D01*
D22*
X135750000Y-117155685D02*
X135750000Y-116590000D01*
G04 #@! TO.N,+5V*
X133347300Y-103848000D02*
X133347300Y-100038000D01*
D24*
X133347300Y-100038000D02*
X136852500Y-100038000D01*
X147926900Y-101079400D02*
X147926900Y-97244000D01*
D22*
X129003900Y-104889400D02*
X129003900Y-102171600D01*
D24*
X129003900Y-102171600D02*
X129003900Y-100038000D01*
D22*
X127784700Y-93357800D02*
X127784700Y-100952400D01*
X127784700Y-100952400D02*
X129003900Y-102171600D01*
D24*
X137741500Y-121805800D02*
X136776300Y-120840600D01*
X136776300Y-120840600D02*
X136776300Y-113779400D01*
X136776300Y-113779400D02*
X136852500Y-113703200D01*
X136852500Y-113703200D02*
X136852500Y-100038000D01*
D25*
X176654300Y-113957200D02*
X176654300Y-116319400D01*
X176654300Y-116319400D02*
X173657100Y-119316600D01*
X173657100Y-119316600D02*
X173657100Y-120586600D01*
D22*
X168348500Y-90386000D02*
X167535700Y-91198800D01*
X167535700Y-91198800D02*
X167535700Y-97244000D01*
X167535700Y-97244000D02*
X167535700Y-111671200D01*
X167535700Y-111671200D02*
X169593100Y-113728600D01*
X169593100Y-113728600D02*
X169593100Y-120586600D01*
D25*
X187347700Y-111061600D02*
X187347700Y-114084200D01*
X187347700Y-114084200D02*
X185137900Y-116294000D01*
D23*
G04 #@! TO.N,/RT_ADC*
X133702900Y-121805800D02*
X134871300Y-120637400D01*
X134871300Y-120637400D02*
X134871300Y-106692800D01*
X134871300Y-106692800D02*
X135887300Y-105676800D01*
X135887300Y-105676800D02*
X135887300Y-103848000D01*
G04 #@! TO.N,/P0[4]*
X156893100Y-120586600D02*
X156893100Y-112890400D01*
X156893100Y-112890400D02*
X157223300Y-112560200D01*
X138427300Y-103848000D02*
X138427300Y-109080400D01*
X157223300Y-109283600D02*
X157223300Y-112560200D01*
G04 #@! TO.N,/AC_TEMP_SENSE_OUT*
X140967300Y-103848000D02*
X140967300Y-98768000D01*
X140967300Y-98768000D02*
X141145100Y-98590200D01*
G04 #@! TO.N,/RE+_ADC*
X143507300Y-103848000D02*
X143507300Y-102349400D01*
X143507300Y-102349400D02*
X144777300Y-101079400D01*
G04 #@! TO.N,/LCD_RW*
X146047300Y-103848000D02*
X146047300Y-97574200D01*
X134210900Y-98539400D02*
X130731100Y-98514000D01*
X130731100Y-98514000D02*
X130731100Y-91402000D01*
X130731100Y-91402000D02*
X129638900Y-90309800D01*
X135176100Y-97574200D02*
X136610000Y-97574200D01*
X134210900Y-98539400D02*
X135176100Y-97574200D01*
G04 #@! TO.N,/LCD_E*
X148587300Y-103848000D02*
X148942900Y-103492400D01*
X148942900Y-103492400D02*
X148942900Y-96532800D01*
X131442300Y-96278800D02*
X131442300Y-91046400D01*
X131442300Y-91046400D02*
X132178900Y-90309800D01*
G04 #@! TO.N,/LCD_DB6*
X151127300Y-103848000D02*
X151127300Y-91478200D01*
X151127300Y-91478200D02*
X149958900Y-90309800D01*
G04 #@! TO.N,/LCD_DB4*
X144878900Y-90309800D02*
X144878900Y-91910000D01*
X144878900Y-91910000D02*
X143761300Y-93027600D01*
X153667300Y-100063400D02*
X153667300Y-103848000D01*
X143761300Y-93027600D02*
X143761300Y-99225200D01*
X143761300Y-99225200D02*
X143913700Y-99377600D01*
G04 #@! TO.N,/XRES*
X156207300Y-100647600D02*
X156105700Y-100546000D01*
X155191300Y-118783200D02*
X155191300Y-106718200D01*
X155191300Y-106718200D02*
X156207300Y-105702200D01*
X156207300Y-105702200D02*
X156207300Y-103848000D01*
X156207300Y-103848000D02*
X156207300Y-100647600D01*
X156105700Y-99255700D02*
X156105700Y-100546000D01*
X153130000Y-96280000D02*
X156105700Y-99255700D01*
G04 #@! TO.N,/PWM_NB_OUT*
X158747300Y-103848000D02*
X158747300Y-100825400D01*
G04 #@! TO.N,/PWM_HEATER*
X126159100Y-111341000D02*
X126159100Y-119011800D01*
X126159100Y-119011800D02*
X126209900Y-119062600D01*
X160271300Y-118072000D02*
X160271300Y-106616600D01*
X160271300Y-106616600D02*
X161287300Y-105600600D01*
X161287300Y-105600600D02*
X161287300Y-103848000D01*
X138046300Y-117564000D02*
X138046300Y-116344800D01*
G04 #@! TO.N,/PROG_SDA*
X165351300Y-106743600D02*
X166367300Y-105727600D01*
X166367300Y-105727600D02*
X166367300Y-103848000D01*
X165351300Y-106743600D02*
X165351300Y-117106800D01*
X165351300Y-117106800D02*
X165732300Y-117487800D01*
G04 #@! TO.N,/PROG_SCL*
X163827300Y-111468000D02*
X163827300Y-115735200D01*
X163827300Y-115735200D02*
X163801900Y-115760600D01*
X163801900Y-115760600D02*
X163801900Y-117995800D01*
G04 #@! TO.N,/P1[3]*
X159433100Y-120586600D02*
X159433100Y-117487800D01*
X159433100Y-117487800D02*
X159560100Y-117360800D01*
X160982500Y-117360800D02*
X160982500Y-111772800D01*
X160982500Y-111772800D02*
X161287300Y-111468000D01*
G04 #@! TO.N,/PWM_LIN_OUT*
X158747300Y-114516000D02*
X158747300Y-111468000D01*
G04 #@! TO.N,/P1[7]*
X161973100Y-120586600D02*
X161973100Y-116649600D01*
X156207300Y-111468000D02*
X156207300Y-116624200D01*
X156207300Y-116624200D02*
X156181900Y-116649600D01*
G04 #@! TO.N,/P2[7]*
X164513100Y-120586600D02*
X164513100Y-115938400D01*
X143507300Y-115633600D02*
X143507300Y-111468000D01*
G04 #@! TO.N,/LCD_RS*
X130019900Y-109791600D02*
X130019900Y-93230800D01*
X130019900Y-93230800D02*
X127098900Y-90309800D01*
G04 #@! TO.N,/INSAMP_VREF*
X140967300Y-111468000D02*
X140967300Y-113550800D01*
X140967300Y-113550800D02*
X140332300Y-114185800D01*
X140332300Y-117360800D02*
X140332300Y-114185800D01*
G04 #@! TO.N,/LSU_VGND*
X138605100Y-118961000D02*
X138757500Y-118808600D01*
X138757500Y-118808600D02*
X138757500Y-111798200D01*
X138757500Y-111798200D02*
X138427300Y-111468000D01*
G04 #@! TO.N,/LCD_DB5*
X147418900Y-90309800D02*
X147418900Y-92519600D01*
X147418900Y-92519600D02*
X146910900Y-93027600D01*
X146910900Y-93027600D02*
X146910900Y-101511200D01*
X146910900Y-101511200D02*
X147063300Y-101663600D01*
X147063300Y-101663600D02*
X147063300Y-113169800D01*
G04 #@! TO.N,/LCD_DB7*
X149654100Y-94246800D02*
X149654100Y-108623200D01*
X149654100Y-108623200D02*
X148587300Y-109690000D01*
X148587300Y-109690000D02*
X148587300Y-111468000D01*
G04 #@! TO.N,/LSU_IA*
X135887300Y-111468000D02*
X135887300Y-114185800D01*
X131289900Y-120383400D02*
X131264500Y-118453000D01*
X131264500Y-118453000D02*
X131264500Y-114185800D01*
G04 #@! TO.N,/APE_ADC*
X128775300Y-114185800D02*
X128775300Y-111468000D01*
G04 #@! TO.N,Net-(C6-Pad2)*
X138300300Y-101079400D02*
X138300300Y-96050200D01*
G04 #@! TO.N,/LSU_NERMEST*
X139316300Y-119672200D02*
X139316300Y-112636400D01*
X139316300Y-112636400D02*
X139443300Y-112509400D01*
X139443300Y-112509400D02*
X139443300Y-94602400D01*
X139443300Y-94602400D02*
X138300300Y-93459400D01*
D25*
G04 #@! TO.N,Net-(C1-Pad+)*
X180489700Y-116344800D02*
X180489700Y-106819800D01*
X180489700Y-106819800D02*
X182039100Y-105270400D01*
X188566900Y-102654200D02*
X184020300Y-102654200D01*
X184274300Y-98361600D02*
X184274300Y-102400200D01*
X184274300Y-102400200D02*
X184020300Y-102654200D01*
X182039100Y-105270400D02*
X184020300Y-103289200D01*
X184020300Y-103289200D02*
X184020300Y-102654200D01*
X183715500Y-93103800D02*
X184274300Y-93662600D01*
X184274300Y-93662600D02*
X184274300Y-98361600D01*
D22*
G04 #@! TO.N,/LCD_ANODE*
X155038900Y-90309800D02*
X155038900Y-88277800D01*
X155038900Y-88277800D02*
X158620300Y-88277800D01*
X158620300Y-88277800D02*
X160728500Y-90386000D01*
D23*
G04 #@! TO.N,/LCD_CONTRAST*
X124558900Y-90309800D02*
X124558900Y-92545000D01*
X124558900Y-92545000D02*
X126565500Y-94551600D01*
G04 #@! TO.N,LIN_OUT*
X152981500Y-119596000D02*
X152981500Y-122136000D01*
X125447900Y-99885600D02*
X125447900Y-119570600D01*
D22*
G04 #@! TO.N,H_GND*
X171675900Y-118097400D02*
X171675900Y-119418200D01*
D23*
G04 #@! TO.N,NB_OUT*
X159356900Y-95974000D02*
X159356900Y-93205400D01*
X124736700Y-102425600D02*
X124736700Y-96329600D01*
X124736700Y-96329600D02*
X125498700Y-95567600D01*
X102140000Y-101384800D02*
X103180800Y-102425600D01*
X102140000Y-101384800D02*
X102140000Y-99230000D01*
X104180800Y-103425600D02*
X102140000Y-101384800D01*
X107670000Y-103425600D02*
X104180800Y-103425600D01*
X123736700Y-103425600D02*
X124736700Y-102425600D01*
X114310000Y-103425600D02*
X123736700Y-103425600D01*
G04 #@! TD*
D26*
G04 #@! TO.N,LSU_HEATER-*
G36*
X131366100Y-88736480D02*
X131223932Y-88909712D01*
X131117797Y-89108278D01*
X131052439Y-89323734D01*
X131035900Y-89491655D01*
X131035900Y-90700799D01*
X131023974Y-90715331D01*
X130996650Y-90748625D01*
X130996649Y-90748627D01*
X130947119Y-90841290D01*
X130941909Y-90858467D01*
X130781900Y-90698458D01*
X130781900Y-89491654D01*
X130765361Y-89323733D01*
X130700003Y-89108277D01*
X130593868Y-88909711D01*
X130451033Y-88735667D01*
X130276988Y-88592832D01*
X130078422Y-88486697D01*
X129862966Y-88421339D01*
X129638900Y-88399270D01*
X129414833Y-88421339D01*
X129199377Y-88486697D01*
X129000811Y-88592832D01*
X128826767Y-88735667D01*
X128683932Y-88909712D01*
X128577797Y-89108278D01*
X128512439Y-89323734D01*
X128495900Y-89491655D01*
X128495900Y-90952459D01*
X128241900Y-90698459D01*
X128241900Y-89491654D01*
X128225361Y-89323733D01*
X128160003Y-89108277D01*
X128053868Y-88909711D01*
X127911033Y-88735667D01*
X127736988Y-88592832D01*
X127538422Y-88486697D01*
X127322966Y-88421339D01*
X127098900Y-88399270D01*
X126874833Y-88421339D01*
X126659377Y-88486697D01*
X126460811Y-88592832D01*
X126286767Y-88735667D01*
X126143932Y-88909712D01*
X126037797Y-89108278D01*
X125972439Y-89323734D01*
X125955900Y-89491655D01*
X125955900Y-91127946D01*
X125972439Y-91295867D01*
X126037798Y-91511323D01*
X126143933Y-91709889D01*
X126286768Y-91883933D01*
X126460812Y-92026768D01*
X126659378Y-92132903D01*
X126874834Y-92198261D01*
X127098900Y-92220330D01*
X127322967Y-92198261D01*
X127538423Y-92132903D01*
X127736989Y-92026768D01*
X127911033Y-91883933D01*
X127914485Y-91879726D01*
X129486501Y-93451742D01*
X129486501Y-93624296D01*
X129307665Y-93550220D01*
X129106469Y-93510200D01*
X128901331Y-93510200D01*
X128700135Y-93550220D01*
X128510612Y-93628723D01*
X128470500Y-93655525D01*
X128470500Y-93626960D01*
X128492993Y-93572658D01*
X128521300Y-93430349D01*
X128521300Y-93285251D01*
X128492993Y-93142942D01*
X128437466Y-93008889D01*
X128356855Y-92888245D01*
X128254255Y-92785645D01*
X128133611Y-92705034D01*
X127999558Y-92649507D01*
X127857249Y-92621200D01*
X127712151Y-92621200D01*
X127569842Y-92649507D01*
X127435789Y-92705034D01*
X127315145Y-92785645D01*
X127212545Y-92888245D01*
X127131934Y-93008889D01*
X127076407Y-93142942D01*
X127048100Y-93285251D01*
X127048100Y-93430349D01*
X127076407Y-93572658D01*
X127098900Y-93626961D01*
X127098900Y-93655525D01*
X127058788Y-93628723D01*
X126869265Y-93550220D01*
X126668069Y-93510200D01*
X126462931Y-93510200D01*
X126309050Y-93540809D01*
X125092300Y-92324059D01*
X125092300Y-92082725D01*
X125196989Y-92026768D01*
X125371033Y-91883933D01*
X125513868Y-91709889D01*
X125620003Y-91511323D01*
X125685361Y-91295867D01*
X125701900Y-91127946D01*
X125701900Y-89491654D01*
X125685361Y-89323733D01*
X125620003Y-89108277D01*
X125513868Y-88909711D01*
X125371033Y-88735667D01*
X125196988Y-88592832D01*
X124998422Y-88486697D01*
X124782966Y-88421339D01*
X124558900Y-88399270D01*
X124334833Y-88421339D01*
X124119377Y-88486697D01*
X123920811Y-88592832D01*
X123746767Y-88735667D01*
X123603932Y-88909712D01*
X123497797Y-89108278D01*
X123432439Y-89323734D01*
X123415900Y-89491655D01*
X123415900Y-91127946D01*
X123432439Y-91295867D01*
X123497798Y-91511323D01*
X123603933Y-91709889D01*
X123746768Y-91883933D01*
X123920812Y-92026768D01*
X124025501Y-92082725D01*
X124025501Y-92518803D01*
X124022921Y-92545000D01*
X124033219Y-92649564D01*
X124063719Y-92750110D01*
X124063720Y-92750111D01*
X124113250Y-92842775D01*
X124120661Y-92851805D01*
X124163207Y-92903648D01*
X124163210Y-92903651D01*
X124179906Y-92923995D01*
X124200250Y-92940691D01*
X125554709Y-94295150D01*
X125524100Y-94449031D01*
X125524100Y-94654169D01*
X125559274Y-94831000D01*
X125426151Y-94831000D01*
X125283842Y-94859307D01*
X125149789Y-94914834D01*
X125029145Y-94995445D01*
X124926545Y-95098045D01*
X124845934Y-95218689D01*
X124790407Y-95352742D01*
X124762100Y-95495051D01*
X124762100Y-95549859D01*
X124378050Y-95933909D01*
X124357706Y-95950605D01*
X124341010Y-95970949D01*
X124341007Y-95970952D01*
X124318374Y-95998531D01*
X124291050Y-96031825D01*
X124291049Y-96031827D01*
X124241519Y-96124490D01*
X124211019Y-96225036D01*
X124200721Y-96329600D01*
X124203301Y-96355797D01*
X124203300Y-101917290D01*
X124164545Y-101956045D01*
X124083934Y-102076689D01*
X124028407Y-102210742D01*
X124000100Y-102353051D01*
X124000100Y-102407859D01*
X123515759Y-102892200D01*
X114881101Y-102892200D01*
X114807859Y-102818958D01*
X114679942Y-102733487D01*
X114537809Y-102674613D01*
X114386922Y-102644600D01*
X114233078Y-102644600D01*
X114082191Y-102674613D01*
X113940058Y-102733487D01*
X113812141Y-102818958D01*
X113703358Y-102927741D01*
X113617887Y-103055658D01*
X113559013Y-103197791D01*
X113529000Y-103348678D01*
X113529000Y-103502522D01*
X113559013Y-103653409D01*
X113560565Y-103657157D01*
X109784943Y-99881535D01*
X109785264Y-99880759D01*
X109871000Y-99449734D01*
X109871000Y-99010266D01*
X109785264Y-98579241D01*
X109617087Y-98173225D01*
X109372931Y-97807820D01*
X109062180Y-97497069D01*
X108696775Y-97252913D01*
X108290759Y-97084736D01*
X107859734Y-96999000D01*
X107420266Y-96999000D01*
X106989241Y-97084736D01*
X106583225Y-97252913D01*
X106217820Y-97497069D01*
X105907069Y-97807820D01*
X105662913Y-98173225D01*
X105494736Y-98579241D01*
X105409000Y-99010266D01*
X105409000Y-99449734D01*
X105494736Y-99880759D01*
X105662913Y-100286775D01*
X105907069Y-100652180D01*
X106217820Y-100962931D01*
X106583225Y-101207087D01*
X106989241Y-101375264D01*
X107420266Y-101461000D01*
X107859734Y-101461000D01*
X108290759Y-101375264D01*
X108291535Y-101374943D01*
X120124000Y-113207410D01*
X120124000Y-113677990D01*
X120048856Y-113818576D01*
X119979141Y-114048396D01*
X119961500Y-114227508D01*
X119961500Y-116023693D01*
X119979142Y-116202805D01*
X120048857Y-116432625D01*
X120162068Y-116644429D01*
X120314425Y-116830076D01*
X120500072Y-116982433D01*
X120711876Y-117095644D01*
X120941696Y-117165359D01*
X121180700Y-117188899D01*
X121419705Y-117165359D01*
X121649525Y-117095644D01*
X121861329Y-116982433D01*
X122046976Y-116830076D01*
X122199333Y-116644429D01*
X122312544Y-116432625D01*
X122382259Y-116202805D01*
X122399900Y-116023693D01*
X122399900Y-114227507D01*
X122382259Y-114048395D01*
X122312544Y-113818575D01*
X122236000Y-113675370D01*
X122236000Y-112821865D01*
X122241108Y-112770000D01*
X122236000Y-112718135D01*
X122236000Y-112718128D01*
X122220720Y-112562988D01*
X122160337Y-112363931D01*
X122062280Y-112180479D01*
X122037191Y-112149908D01*
X121963384Y-112059974D01*
X121963380Y-112059970D01*
X121930317Y-112019683D01*
X121890030Y-111986620D01*
X114078444Y-104175035D01*
X114082191Y-104176587D01*
X114233078Y-104206600D01*
X114386922Y-104206600D01*
X114537809Y-104176587D01*
X114679942Y-104117713D01*
X114807859Y-104032242D01*
X114881101Y-103959000D01*
X123710513Y-103959000D01*
X123736700Y-103961579D01*
X123762887Y-103959000D01*
X123762895Y-103959000D01*
X123841265Y-103951281D01*
X123941811Y-103920781D01*
X124034475Y-103871251D01*
X124115695Y-103804595D01*
X124132396Y-103784245D01*
X124754441Y-103162200D01*
X124809249Y-103162200D01*
X124914500Y-103141264D01*
X124914501Y-110797013D01*
X124834408Y-110677146D01*
X124689354Y-110532092D01*
X124518788Y-110418123D01*
X124329265Y-110339620D01*
X124128069Y-110299600D01*
X123922931Y-110299600D01*
X123721735Y-110339620D01*
X123532212Y-110418123D01*
X123361646Y-110532092D01*
X123216592Y-110677146D01*
X123102623Y-110847712D01*
X123024120Y-111037235D01*
X122984100Y-111238431D01*
X122984100Y-111443569D01*
X123024120Y-111644765D01*
X123102623Y-111834288D01*
X123216592Y-112004854D01*
X123361646Y-112149908D01*
X123532212Y-112263877D01*
X123721735Y-112342380D01*
X123922931Y-112382400D01*
X124128069Y-112382400D01*
X124329265Y-112342380D01*
X124518788Y-112263877D01*
X124689354Y-112149908D01*
X124834408Y-112004854D01*
X124914501Y-111884987D01*
X124914501Y-118417013D01*
X124834408Y-118297146D01*
X124689354Y-118152092D01*
X124518788Y-118038123D01*
X124329265Y-117959620D01*
X124128069Y-117919600D01*
X123922931Y-117919600D01*
X123721735Y-117959620D01*
X123532212Y-118038123D01*
X123361646Y-118152092D01*
X123216592Y-118297146D01*
X123102623Y-118467712D01*
X123024120Y-118657235D01*
X122984100Y-118858431D01*
X122984100Y-119063569D01*
X123024120Y-119264765D01*
X123102623Y-119454288D01*
X123216592Y-119624854D01*
X123361646Y-119769908D01*
X123532212Y-119883877D01*
X123721735Y-119962380D01*
X123922931Y-120002400D01*
X124128069Y-120002400D01*
X124329265Y-119962380D01*
X124518788Y-119883877D01*
X124689354Y-119769908D01*
X124728690Y-119730572D01*
X124739607Y-119785458D01*
X124795134Y-119919511D01*
X124875745Y-120040155D01*
X124978345Y-120142755D01*
X125098989Y-120223366D01*
X125233042Y-120278893D01*
X125375351Y-120307200D01*
X125520449Y-120307200D01*
X125662758Y-120278893D01*
X125796811Y-120223366D01*
X125917455Y-120142755D01*
X126020055Y-120040155D01*
X126100666Y-119919511D01*
X126150501Y-119799200D01*
X126282449Y-119799200D01*
X126424758Y-119770893D01*
X126558811Y-119715366D01*
X126679455Y-119634755D01*
X126782055Y-119532155D01*
X126862666Y-119411511D01*
X126918193Y-119277458D01*
X126946500Y-119135149D01*
X126946500Y-118990051D01*
X126918193Y-118847742D01*
X126862666Y-118713689D01*
X126782055Y-118593045D01*
X126692500Y-118503490D01*
X126692500Y-114083231D01*
X127733900Y-114083231D01*
X127733900Y-114288369D01*
X127773920Y-114489565D01*
X127852423Y-114679088D01*
X127966392Y-114849654D01*
X128111446Y-114994708D01*
X128282012Y-115108677D01*
X128471535Y-115187180D01*
X128672731Y-115227200D01*
X128877869Y-115227200D01*
X129079065Y-115187180D01*
X129268588Y-115108677D01*
X129439154Y-114994708D01*
X129584208Y-114849654D01*
X129698177Y-114679088D01*
X129776680Y-114489565D01*
X129816700Y-114288369D01*
X129816700Y-114083231D01*
X129776680Y-113882035D01*
X129698177Y-113692512D01*
X129584208Y-113521946D01*
X129439154Y-113376892D01*
X129308700Y-113289725D01*
X129308700Y-111976310D01*
X129347455Y-111937555D01*
X129428066Y-111816911D01*
X129483593Y-111682858D01*
X129511900Y-111540549D01*
X129511900Y-111395451D01*
X129483593Y-111253142D01*
X129428066Y-111119089D01*
X129347455Y-110998445D01*
X129244855Y-110895845D01*
X129124211Y-110815234D01*
X128990158Y-110759707D01*
X128847849Y-110731400D01*
X128702751Y-110731400D01*
X128560442Y-110759707D01*
X128426389Y-110815234D01*
X128305745Y-110895845D01*
X128203145Y-110998445D01*
X128122534Y-111119089D01*
X128067007Y-111253142D01*
X128038700Y-111395451D01*
X128038700Y-111540549D01*
X128067007Y-111682858D01*
X128122534Y-111816911D01*
X128203145Y-111937555D01*
X128241901Y-111976311D01*
X128241900Y-113289725D01*
X128111446Y-113376892D01*
X127966392Y-113521946D01*
X127852423Y-113692512D01*
X127773920Y-113882035D01*
X127733900Y-114083231D01*
X126692500Y-114083231D01*
X126692500Y-111849310D01*
X126731255Y-111810555D01*
X126811866Y-111689911D01*
X126867393Y-111555858D01*
X126895700Y-111413549D01*
X126895700Y-111268451D01*
X126867393Y-111126142D01*
X126811866Y-110992089D01*
X126731255Y-110871445D01*
X126628655Y-110768845D01*
X126508011Y-110688234D01*
X126373958Y-110632707D01*
X126231649Y-110604400D01*
X126086551Y-110604400D01*
X125981300Y-110625336D01*
X125981300Y-105816704D01*
X126160135Y-105890780D01*
X126361331Y-105930800D01*
X126566469Y-105930800D01*
X126767665Y-105890780D01*
X126957188Y-105812277D01*
X127127754Y-105698308D01*
X127272808Y-105553254D01*
X127386777Y-105382688D01*
X127465280Y-105193165D01*
X127505300Y-104991969D01*
X127505300Y-104786831D01*
X127465280Y-104585635D01*
X127386777Y-104396112D01*
X127272808Y-104225546D01*
X127127754Y-104080492D01*
X126957188Y-103966523D01*
X126767665Y-103888020D01*
X126566469Y-103848000D01*
X126361331Y-103848000D01*
X126160135Y-103888020D01*
X125981300Y-103962096D01*
X125981300Y-103033731D01*
X126072212Y-103094477D01*
X126261735Y-103172980D01*
X126462931Y-103213000D01*
X126668069Y-103213000D01*
X126869265Y-103172980D01*
X127058788Y-103094477D01*
X127229354Y-102980508D01*
X127374408Y-102835454D01*
X127488377Y-102664888D01*
X127566880Y-102475365D01*
X127606900Y-102274169D01*
X127606900Y-102069031D01*
X127566880Y-101867835D01*
X127488377Y-101678312D01*
X127382924Y-101520491D01*
X127962500Y-102100068D01*
X127962500Y-102274169D01*
X128002520Y-102475365D01*
X128081023Y-102664888D01*
X128194992Y-102835454D01*
X128318101Y-102958563D01*
X128318100Y-104102438D01*
X128194992Y-104225546D01*
X128081023Y-104396112D01*
X128002520Y-104585635D01*
X127962500Y-104786831D01*
X127962500Y-104991969D01*
X128002520Y-105193165D01*
X128081023Y-105382688D01*
X128194992Y-105553254D01*
X128340046Y-105698308D01*
X128510612Y-105812277D01*
X128700135Y-105890780D01*
X128901331Y-105930800D01*
X129106469Y-105930800D01*
X129307665Y-105890780D01*
X129486500Y-105816704D01*
X129486500Y-109283290D01*
X129447745Y-109322045D01*
X129367134Y-109442689D01*
X129311607Y-109576742D01*
X129283300Y-109719051D01*
X129283300Y-109864149D01*
X129311607Y-110006458D01*
X129367134Y-110140511D01*
X129447745Y-110261155D01*
X129550345Y-110363755D01*
X129670989Y-110444366D01*
X129805042Y-110499893D01*
X129947351Y-110528200D01*
X130092449Y-110528200D01*
X130234758Y-110499893D01*
X130368811Y-110444366D01*
X130489455Y-110363755D01*
X130592055Y-110261155D01*
X130672666Y-110140511D01*
X130728193Y-110006458D01*
X130756500Y-109864149D01*
X130756500Y-109719051D01*
X130728193Y-109576742D01*
X130672666Y-109442689D01*
X130592055Y-109322045D01*
X130553300Y-109283290D01*
X130553300Y-99229664D01*
X130658551Y-99250600D01*
X130803649Y-99250600D01*
X130945958Y-99222293D01*
X131080011Y-99166766D01*
X131200655Y-99086155D01*
X131235713Y-99051097D01*
X131366100Y-99052049D01*
X131366100Y-113144400D01*
X131161931Y-113144400D01*
X130960735Y-113184420D01*
X130771212Y-113262923D01*
X130600646Y-113376892D01*
X130455592Y-113521946D01*
X130341623Y-113692512D01*
X130263120Y-113882035D01*
X130223100Y-114083231D01*
X130223100Y-114288369D01*
X130263120Y-114489565D01*
X130341623Y-114679088D01*
X130455592Y-114849654D01*
X130600646Y-114994708D01*
X130731101Y-115081875D01*
X130731100Y-118430329D01*
X130730802Y-118433826D01*
X130731100Y-118456475D01*
X130731100Y-118479194D01*
X130731445Y-118482697D01*
X130749853Y-119881737D01*
X130717745Y-119913845D01*
X130637134Y-120034489D01*
X130581607Y-120168542D01*
X130553300Y-120310851D01*
X130553300Y-120455949D01*
X130581607Y-120598258D01*
X130637134Y-120732311D01*
X130717745Y-120852955D01*
X130757125Y-120892335D01*
X130600646Y-120996892D01*
X130455592Y-121141946D01*
X130341623Y-121312512D01*
X130263120Y-121502035D01*
X130223100Y-121703231D01*
X130223100Y-121908369D01*
X130263120Y-122109565D01*
X130341623Y-122299088D01*
X130455592Y-122469654D01*
X130600646Y-122614708D01*
X130771212Y-122728677D01*
X130960735Y-122807180D01*
X131161931Y-122847200D01*
X131366100Y-122847200D01*
X131366100Y-123174000D01*
X114356792Y-123174000D01*
X114595736Y-123126471D01*
X114956255Y-122977139D01*
X115280714Y-122760343D01*
X115556643Y-122484414D01*
X115773439Y-122159955D01*
X115922771Y-121799436D01*
X115941907Y-121703231D01*
X127733900Y-121703231D01*
X127733900Y-121908369D01*
X127773920Y-122109565D01*
X127852423Y-122299088D01*
X127966392Y-122469654D01*
X128111446Y-122614708D01*
X128282012Y-122728677D01*
X128471535Y-122807180D01*
X128672731Y-122847200D01*
X128877869Y-122847200D01*
X129079065Y-122807180D01*
X129268588Y-122728677D01*
X129439154Y-122614708D01*
X129584208Y-122469654D01*
X129698177Y-122299088D01*
X129776680Y-122109565D01*
X129816700Y-121908369D01*
X129816700Y-121703231D01*
X129776680Y-121502035D01*
X129698177Y-121312512D01*
X129584208Y-121141946D01*
X129439154Y-120996892D01*
X129268588Y-120882923D01*
X129079065Y-120804420D01*
X128877869Y-120764400D01*
X128672731Y-120764400D01*
X128471535Y-120804420D01*
X128282012Y-120882923D01*
X128111446Y-120996892D01*
X127966392Y-121141946D01*
X127852423Y-121312512D01*
X127773920Y-121502035D01*
X127733900Y-121703231D01*
X115941907Y-121703231D01*
X115998900Y-121416711D01*
X115998900Y-121026489D01*
X115922771Y-120643764D01*
X115773439Y-120283245D01*
X115556643Y-119958786D01*
X115280714Y-119682857D01*
X114956255Y-119466061D01*
X114595736Y-119316729D01*
X114213011Y-119240600D01*
X113822789Y-119240600D01*
X113440064Y-119316729D01*
X113079545Y-119466061D01*
X112755086Y-119682857D01*
X112479157Y-119958786D01*
X112262361Y-120283245D01*
X112113029Y-120643764D01*
X112036900Y-121026489D01*
X112036900Y-121416711D01*
X112113029Y-121799436D01*
X112262361Y-122159955D01*
X112479157Y-122484414D01*
X112755086Y-122760343D01*
X113079545Y-122977139D01*
X113440064Y-123126471D01*
X113679008Y-123174000D01*
X112632275Y-123174000D01*
X112544776Y-122891338D01*
X112528740Y-122853191D01*
X112513278Y-122814919D01*
X112510289Y-122809297D01*
X112510289Y-122809296D01*
X112510286Y-122809292D01*
X112365374Y-122541283D01*
X112342249Y-122506998D01*
X112319633Y-122472436D01*
X112315618Y-122467514D01*
X112315609Y-122467501D01*
X112315599Y-122467491D01*
X112121396Y-122232740D01*
X112092065Y-122203613D01*
X112063154Y-122174089D01*
X112058248Y-122170030D01*
X111822134Y-121977461D01*
X111787723Y-121954598D01*
X111753610Y-121931240D01*
X111748016Y-121928216D01*
X111748008Y-121928211D01*
X111748000Y-121928208D01*
X111478989Y-121785171D01*
X111440768Y-121769417D01*
X111402790Y-121753140D01*
X111396711Y-121751258D01*
X111396705Y-121751256D01*
X111105028Y-121663194D01*
X111064503Y-121655170D01*
X111024060Y-121646573D01*
X111017728Y-121645908D01*
X110774070Y-121622017D01*
X110769392Y-121620598D01*
X110702399Y-121614000D01*
X90311699Y-121614000D01*
X90086918Y-121591960D01*
X89880845Y-121529743D01*
X89690782Y-121428684D01*
X89523964Y-121292631D01*
X89386755Y-121126774D01*
X89284370Y-120937418D01*
X89220714Y-120731779D01*
X89196000Y-120496639D01*
X89196000Y-117784738D01*
X92959000Y-117784738D01*
X92959000Y-118155262D01*
X93031286Y-118518667D01*
X93173080Y-118860987D01*
X93378932Y-119169067D01*
X93640933Y-119431068D01*
X93949013Y-119636920D01*
X94291333Y-119778714D01*
X94654738Y-119851000D01*
X95025262Y-119851000D01*
X95388667Y-119778714D01*
X95730987Y-119636920D01*
X96039067Y-119431068D01*
X96301068Y-119169067D01*
X96506920Y-118860987D01*
X96648714Y-118518667D01*
X96721000Y-118155262D01*
X96721000Y-117784738D01*
X96648714Y-117421333D01*
X96506920Y-117079013D01*
X96301068Y-116770933D01*
X96039067Y-116508932D01*
X95730987Y-116303080D01*
X95388667Y-116161286D01*
X95181109Y-116120000D01*
X99907157Y-116120000D01*
X99907157Y-119820000D01*
X99914513Y-119894689D01*
X99936299Y-119966508D01*
X99971678Y-120032696D01*
X100019289Y-120090711D01*
X100077304Y-120138322D01*
X100143492Y-120173701D01*
X100215311Y-120195487D01*
X100290000Y-120202843D01*
X103990000Y-120202843D01*
X104064689Y-120195487D01*
X104136508Y-120173701D01*
X104202696Y-120138322D01*
X104260711Y-120090711D01*
X104308322Y-120032696D01*
X104343701Y-119966508D01*
X104365487Y-119894689D01*
X104372843Y-119820000D01*
X104372843Y-117750266D01*
X105409000Y-117750266D01*
X105409000Y-118189734D01*
X105494736Y-118620759D01*
X105662913Y-119026775D01*
X105907069Y-119392180D01*
X106217820Y-119702931D01*
X106583225Y-119947087D01*
X106989241Y-120115264D01*
X107420266Y-120201000D01*
X107859734Y-120201000D01*
X108290759Y-120115264D01*
X108696775Y-119947087D01*
X109062180Y-119702931D01*
X109372931Y-119392180D01*
X109617087Y-119026775D01*
X109785264Y-118620759D01*
X109871000Y-118189734D01*
X109871000Y-117750266D01*
X109785264Y-117319241D01*
X109617087Y-116913225D01*
X109372931Y-116547820D01*
X109062180Y-116237069D01*
X108696775Y-115992913D01*
X108290759Y-115824736D01*
X107859734Y-115739000D01*
X107420266Y-115739000D01*
X106989241Y-115824736D01*
X106583225Y-115992913D01*
X106217820Y-116237069D01*
X105907069Y-116547820D01*
X105662913Y-116913225D01*
X105494736Y-117319241D01*
X105409000Y-117750266D01*
X104372843Y-117750266D01*
X104372843Y-116120000D01*
X104365487Y-116045311D01*
X104343701Y-115973492D01*
X104308322Y-115907304D01*
X104260711Y-115849289D01*
X104202696Y-115801678D01*
X104136508Y-115766299D01*
X104064689Y-115744513D01*
X103990000Y-115737157D01*
X100290000Y-115737157D01*
X100215311Y-115744513D01*
X100143492Y-115766299D01*
X100077304Y-115801678D01*
X100019289Y-115849289D01*
X99971678Y-115907304D01*
X99936299Y-115973492D01*
X99914513Y-116045311D01*
X99907157Y-116120000D01*
X95181109Y-116120000D01*
X95025262Y-116089000D01*
X94654738Y-116089000D01*
X94291333Y-116161286D01*
X93949013Y-116303080D01*
X93640933Y-116508932D01*
X93378932Y-116770933D01*
X93173080Y-117079013D01*
X93031286Y-117421333D01*
X92959000Y-117784738D01*
X89196000Y-117784738D01*
X89196000Y-113832101D01*
X100613255Y-113832101D01*
X100813080Y-114138882D01*
X101203177Y-114361841D01*
X101629275Y-114504412D01*
X102075001Y-114561116D01*
X102523224Y-114529773D01*
X102956720Y-114411589D01*
X103358830Y-114211104D01*
X103466920Y-114138882D01*
X103666745Y-113832101D01*
X102140000Y-112305355D01*
X100613255Y-113832101D01*
X89196000Y-113832101D01*
X89196000Y-112205001D01*
X99848884Y-112205001D01*
X99880227Y-112653224D01*
X99998411Y-113086720D01*
X100198896Y-113488830D01*
X100271118Y-113596920D01*
X100577899Y-113796745D01*
X102104645Y-112270000D01*
X102175355Y-112270000D01*
X103702101Y-113796745D01*
X104008882Y-113596920D01*
X104231841Y-113206823D01*
X104374412Y-112780725D01*
X104431116Y-112334999D01*
X104411206Y-112050266D01*
X105409000Y-112050266D01*
X105409000Y-112489734D01*
X105494736Y-112920759D01*
X105662913Y-113326775D01*
X105907069Y-113692180D01*
X106217820Y-114002931D01*
X106583225Y-114247087D01*
X106989241Y-114415264D01*
X107420266Y-114501000D01*
X107859734Y-114501000D01*
X108290759Y-114415264D01*
X108696775Y-114247087D01*
X108726077Y-114227508D01*
X114881500Y-114227508D01*
X114881500Y-116023693D01*
X114899142Y-116202805D01*
X114968857Y-116432625D01*
X115082068Y-116644429D01*
X115234425Y-116830076D01*
X115420072Y-116982433D01*
X115631876Y-117095644D01*
X115861696Y-117165359D01*
X116100700Y-117188899D01*
X116339705Y-117165359D01*
X116569525Y-117095644D01*
X116781329Y-116982433D01*
X116966976Y-116830076D01*
X117119333Y-116644429D01*
X117232544Y-116432625D01*
X117302259Y-116202805D01*
X117319900Y-116023693D01*
X117319900Y-115150600D01*
X117371500Y-115150600D01*
X117371500Y-115988800D01*
X117400765Y-116235928D01*
X117477680Y-116472598D01*
X117599289Y-116689716D01*
X117760919Y-116878937D01*
X117956358Y-117032990D01*
X118178096Y-117145954D01*
X118417500Y-117213220D01*
X118615700Y-117124981D01*
X118615700Y-115150600D01*
X118665700Y-115150600D01*
X118665700Y-117124981D01*
X118863900Y-117213220D01*
X119103304Y-117145954D01*
X119325042Y-117032990D01*
X119520481Y-116878937D01*
X119682111Y-116689716D01*
X119803720Y-116472598D01*
X119880635Y-116235928D01*
X119909900Y-115988800D01*
X119909900Y-115150600D01*
X118665700Y-115150600D01*
X118615700Y-115150600D01*
X117371500Y-115150600D01*
X117319900Y-115150600D01*
X117319900Y-114262400D01*
X117371500Y-114262400D01*
X117371500Y-115100600D01*
X118615700Y-115100600D01*
X118615700Y-113126219D01*
X118665700Y-113126219D01*
X118665700Y-115100600D01*
X119909900Y-115100600D01*
X119909900Y-114262400D01*
X119880635Y-114015272D01*
X119803720Y-113778602D01*
X119682111Y-113561484D01*
X119520481Y-113372263D01*
X119325042Y-113218210D01*
X119103304Y-113105246D01*
X118863900Y-113037980D01*
X118665700Y-113126219D01*
X118615700Y-113126219D01*
X118417500Y-113037980D01*
X118178096Y-113105246D01*
X117956358Y-113218210D01*
X117760919Y-113372263D01*
X117599289Y-113561484D01*
X117477680Y-113778602D01*
X117400765Y-114015272D01*
X117371500Y-114262400D01*
X117319900Y-114262400D01*
X117319900Y-114227507D01*
X117302259Y-114048395D01*
X117232544Y-113818575D01*
X117119333Y-113606771D01*
X116966976Y-113421124D01*
X116781328Y-113268767D01*
X116569524Y-113155556D01*
X116339704Y-113085841D01*
X116100700Y-113062301D01*
X115861695Y-113085841D01*
X115631875Y-113155556D01*
X115420071Y-113268767D01*
X115234424Y-113421124D01*
X115082067Y-113606772D01*
X114968856Y-113818576D01*
X114899141Y-114048396D01*
X114881500Y-114227508D01*
X108726077Y-114227508D01*
X109062180Y-114002931D01*
X109372931Y-113692180D01*
X109617087Y-113326775D01*
X109785264Y-112920759D01*
X109871000Y-112489734D01*
X109871000Y-112050266D01*
X109785264Y-111619241D01*
X109617087Y-111213225D01*
X109372931Y-110847820D01*
X109062180Y-110537069D01*
X108696775Y-110292913D01*
X108290759Y-110124736D01*
X107859734Y-110039000D01*
X107420266Y-110039000D01*
X106989241Y-110124736D01*
X106583225Y-110292913D01*
X106217820Y-110537069D01*
X105907069Y-110847820D01*
X105662913Y-111213225D01*
X105494736Y-111619241D01*
X105409000Y-112050266D01*
X104411206Y-112050266D01*
X104399773Y-111886776D01*
X104281589Y-111453280D01*
X104081104Y-111051170D01*
X104008882Y-110943080D01*
X103702101Y-110743255D01*
X102175355Y-112270000D01*
X102104645Y-112270000D01*
X100577899Y-110743255D01*
X100271118Y-110943080D01*
X100048159Y-111333177D01*
X99905588Y-111759275D01*
X99848884Y-112205001D01*
X89196000Y-112205001D01*
X89196000Y-110707899D01*
X100613255Y-110707899D01*
X102140000Y-112234645D01*
X103666745Y-110707899D01*
X103466920Y-110401118D01*
X103076823Y-110178159D01*
X102650725Y-110035588D01*
X102204999Y-109978884D01*
X101756776Y-110010227D01*
X101323280Y-110128411D01*
X100921170Y-110328896D01*
X100813080Y-110401118D01*
X100613255Y-110707899D01*
X89196000Y-110707899D01*
X89196000Y-106384738D01*
X92959000Y-106384738D01*
X92959000Y-106755262D01*
X93031286Y-107118667D01*
X93173080Y-107460987D01*
X93378932Y-107769067D01*
X93640933Y-108031068D01*
X93949013Y-108236920D01*
X94291333Y-108378714D01*
X94654738Y-108451000D01*
X95025262Y-108451000D01*
X95388667Y-108378714D01*
X95730987Y-108236920D01*
X96039067Y-108031068D01*
X96301068Y-107769067D01*
X96506920Y-107460987D01*
X96648714Y-107118667D01*
X96721000Y-106755262D01*
X96721000Y-106384738D01*
X96714144Y-106350266D01*
X99909000Y-106350266D01*
X99909000Y-106789734D01*
X99994736Y-107220759D01*
X100162913Y-107626775D01*
X100407069Y-107992180D01*
X100717820Y-108302931D01*
X101083225Y-108547087D01*
X101489241Y-108715264D01*
X101920266Y-108801000D01*
X102359734Y-108801000D01*
X102790759Y-108715264D01*
X103196775Y-108547087D01*
X103562180Y-108302931D01*
X103872931Y-107992180D01*
X104117087Y-107626775D01*
X104285264Y-107220759D01*
X104371000Y-106789734D01*
X104371000Y-106350266D01*
X105409000Y-106350266D01*
X105409000Y-106789734D01*
X105494736Y-107220759D01*
X105662913Y-107626775D01*
X105907069Y-107992180D01*
X106217820Y-108302931D01*
X106583225Y-108547087D01*
X106989241Y-108715264D01*
X107420266Y-108801000D01*
X107859734Y-108801000D01*
X108290759Y-108715264D01*
X108696775Y-108547087D01*
X109062180Y-108302931D01*
X109372931Y-107992180D01*
X109617087Y-107626775D01*
X109785264Y-107220759D01*
X109871000Y-106789734D01*
X109871000Y-106350266D01*
X109785264Y-105919241D01*
X109617087Y-105513225D01*
X109372931Y-105147820D01*
X109062180Y-104837069D01*
X108696775Y-104592913D01*
X108290759Y-104424736D01*
X107859734Y-104339000D01*
X107420266Y-104339000D01*
X106989241Y-104424736D01*
X106583225Y-104592913D01*
X106217820Y-104837069D01*
X105907069Y-105147820D01*
X105662913Y-105513225D01*
X105494736Y-105919241D01*
X105409000Y-106350266D01*
X104371000Y-106350266D01*
X104285264Y-105919241D01*
X104117087Y-105513225D01*
X103872931Y-105147820D01*
X103562180Y-104837069D01*
X103196775Y-104592913D01*
X102790759Y-104424736D01*
X102359734Y-104339000D01*
X101920266Y-104339000D01*
X101489241Y-104424736D01*
X101083225Y-104592913D01*
X100717820Y-104837069D01*
X100407069Y-105147820D01*
X100162913Y-105513225D01*
X99994736Y-105919241D01*
X99909000Y-106350266D01*
X96714144Y-106350266D01*
X96648714Y-106021333D01*
X96506920Y-105679013D01*
X96301068Y-105370933D01*
X96039067Y-105108932D01*
X95730987Y-104903080D01*
X95388667Y-104761286D01*
X95025262Y-104689000D01*
X94654738Y-104689000D01*
X94291333Y-104761286D01*
X93949013Y-104903080D01*
X93640933Y-105108932D01*
X93378932Y-105370933D01*
X93173080Y-105679013D01*
X93031286Y-106021333D01*
X92959000Y-106384738D01*
X89196000Y-106384738D01*
X89196000Y-96194738D01*
X92959000Y-96194738D01*
X92959000Y-96565262D01*
X93031286Y-96928667D01*
X93173080Y-97270987D01*
X93378932Y-97579067D01*
X93640933Y-97841068D01*
X93949013Y-98046920D01*
X94291333Y-98188714D01*
X94654738Y-98261000D01*
X95025262Y-98261000D01*
X95388667Y-98188714D01*
X95730987Y-98046920D01*
X96039067Y-97841068D01*
X96301068Y-97579067D01*
X96434080Y-97380000D01*
X99907157Y-97380000D01*
X99907157Y-101080000D01*
X99914513Y-101154689D01*
X99936299Y-101226508D01*
X99971678Y-101292696D01*
X100019289Y-101350711D01*
X100077304Y-101398322D01*
X100143492Y-101433701D01*
X100215311Y-101455487D01*
X100290000Y-101462843D01*
X101611707Y-101462843D01*
X101614319Y-101489364D01*
X101644819Y-101589910D01*
X101694349Y-101682575D01*
X101761005Y-101763795D01*
X101781354Y-101780495D01*
X102775370Y-102774511D01*
X103785109Y-103784251D01*
X103801805Y-103804595D01*
X103883025Y-103871251D01*
X103975689Y-103920781D01*
X104076235Y-103951281D01*
X104154605Y-103959000D01*
X104154612Y-103959000D01*
X104180799Y-103961579D01*
X104206986Y-103959000D01*
X107098899Y-103959000D01*
X107172141Y-104032242D01*
X107300058Y-104117713D01*
X107442191Y-104176587D01*
X107593078Y-104206600D01*
X107746922Y-104206600D01*
X107897809Y-104176587D01*
X108039942Y-104117713D01*
X108167859Y-104032242D01*
X108276642Y-103923459D01*
X108362113Y-103795542D01*
X108420987Y-103653409D01*
X108451000Y-103502522D01*
X108451000Y-103348678D01*
X108420987Y-103197791D01*
X108362113Y-103055658D01*
X108276642Y-102927741D01*
X108167859Y-102818958D01*
X108039942Y-102733487D01*
X107897809Y-102674613D01*
X107746922Y-102644600D01*
X107593078Y-102644600D01*
X107442191Y-102674613D01*
X107300058Y-102733487D01*
X107172141Y-102818958D01*
X107098899Y-102892200D01*
X104401742Y-102892200D01*
X103489491Y-101979949D01*
X102972384Y-101462843D01*
X103990000Y-101462843D01*
X104064689Y-101455487D01*
X104136508Y-101433701D01*
X104202696Y-101398322D01*
X104260711Y-101350711D01*
X104308322Y-101292696D01*
X104343701Y-101226508D01*
X104365487Y-101154689D01*
X104372843Y-101080000D01*
X104372843Y-97380000D01*
X104365487Y-97305311D01*
X104343701Y-97233492D01*
X104308322Y-97167304D01*
X104260711Y-97109289D01*
X104202696Y-97061678D01*
X104136508Y-97026299D01*
X104064689Y-97004513D01*
X103990000Y-96997157D01*
X100290000Y-96997157D01*
X100215311Y-97004513D01*
X100143492Y-97026299D01*
X100077304Y-97061678D01*
X100019289Y-97109289D01*
X99971678Y-97167304D01*
X99936299Y-97233492D01*
X99914513Y-97305311D01*
X99907157Y-97380000D01*
X96434080Y-97380000D01*
X96506920Y-97270987D01*
X96648714Y-96928667D01*
X96721000Y-96565262D01*
X96721000Y-96194738D01*
X96648714Y-95831333D01*
X96506920Y-95489013D01*
X96301068Y-95180933D01*
X96039067Y-94918932D01*
X95730987Y-94713080D01*
X95388667Y-94571286D01*
X95025262Y-94499000D01*
X94654738Y-94499000D01*
X94291333Y-94571286D01*
X93949013Y-94713080D01*
X93640933Y-94918932D01*
X93378932Y-95180933D01*
X93173080Y-95489013D01*
X93031286Y-95831333D01*
X92959000Y-96194738D01*
X89196000Y-96194738D01*
X89196000Y-93310266D01*
X99909000Y-93310266D01*
X99909000Y-93749734D01*
X99994736Y-94180759D01*
X100162913Y-94586775D01*
X100407069Y-94952180D01*
X100717820Y-95262931D01*
X101083225Y-95507087D01*
X101489241Y-95675264D01*
X101920266Y-95761000D01*
X102359734Y-95761000D01*
X102790759Y-95675264D01*
X103196775Y-95507087D01*
X103562180Y-95262931D01*
X103872931Y-94952180D01*
X104117087Y-94586775D01*
X104285264Y-94180759D01*
X104371000Y-93749734D01*
X104371000Y-93310266D01*
X105409000Y-93310266D01*
X105409000Y-93749734D01*
X105494736Y-94180759D01*
X105662913Y-94586775D01*
X105907069Y-94952180D01*
X106217820Y-95262931D01*
X106583225Y-95507087D01*
X106989241Y-95675264D01*
X107420266Y-95761000D01*
X107859734Y-95761000D01*
X108290759Y-95675264D01*
X108696775Y-95507087D01*
X109062180Y-95262931D01*
X109372931Y-94952180D01*
X109617087Y-94586775D01*
X109785264Y-94180759D01*
X109871000Y-93749734D01*
X109871000Y-93310266D01*
X109785264Y-92879241D01*
X109617087Y-92473225D01*
X109372931Y-92107820D01*
X109062180Y-91797069D01*
X108696775Y-91552913D01*
X108290759Y-91384736D01*
X107859734Y-91299000D01*
X107420266Y-91299000D01*
X106989241Y-91384736D01*
X106583225Y-91552913D01*
X106217820Y-91797069D01*
X105907069Y-92107820D01*
X105662913Y-92473225D01*
X105494736Y-92879241D01*
X105409000Y-93310266D01*
X104371000Y-93310266D01*
X104285264Y-92879241D01*
X104117087Y-92473225D01*
X103872931Y-92107820D01*
X103562180Y-91797069D01*
X103196775Y-91552913D01*
X102790759Y-91384736D01*
X102359734Y-91299000D01*
X101920266Y-91299000D01*
X101489241Y-91384736D01*
X101083225Y-91552913D01*
X100717820Y-91797069D01*
X100407069Y-92107820D01*
X100162913Y-92473225D01*
X99994736Y-92879241D01*
X99909000Y-93310266D01*
X89196000Y-93310266D01*
X89196000Y-90114689D01*
X112036900Y-90114689D01*
X112036900Y-90504911D01*
X112113029Y-90887636D01*
X112262361Y-91248155D01*
X112479157Y-91572614D01*
X112755086Y-91848543D01*
X113079545Y-92065339D01*
X113440064Y-92214671D01*
X113822789Y-92290800D01*
X114213011Y-92290800D01*
X114595736Y-92214671D01*
X114956255Y-92065339D01*
X115280714Y-91848543D01*
X115556643Y-91572614D01*
X115773439Y-91248155D01*
X115922771Y-90887636D01*
X115998900Y-90504911D01*
X115998900Y-90114689D01*
X115922771Y-89731964D01*
X115823232Y-89491655D01*
X118335900Y-89491655D01*
X118335900Y-91127946D01*
X118352439Y-91295867D01*
X118417798Y-91511323D01*
X118523933Y-91709889D01*
X118666768Y-91883933D01*
X118840812Y-92026768D01*
X119039378Y-92132903D01*
X119254834Y-92198261D01*
X119478900Y-92220330D01*
X119702967Y-92198261D01*
X119918423Y-92132903D01*
X120116989Y-92026768D01*
X120291033Y-91883933D01*
X120433868Y-91709889D01*
X120540003Y-91511323D01*
X120605361Y-91295867D01*
X120621900Y-91127946D01*
X120621900Y-89491655D01*
X120875900Y-89491655D01*
X120875900Y-91127946D01*
X120892439Y-91295867D01*
X120957798Y-91511323D01*
X121063933Y-91709889D01*
X121206768Y-91883933D01*
X121380812Y-92026768D01*
X121579378Y-92132903D01*
X121794834Y-92198261D01*
X122018900Y-92220330D01*
X122242967Y-92198261D01*
X122458423Y-92132903D01*
X122656989Y-92026768D01*
X122831033Y-91883933D01*
X122973868Y-91709889D01*
X123080003Y-91511323D01*
X123145361Y-91295867D01*
X123161900Y-91127946D01*
X123161900Y-89491654D01*
X123145361Y-89323733D01*
X123080003Y-89108277D01*
X122973868Y-88909711D01*
X122831033Y-88735667D01*
X122656988Y-88592832D01*
X122458422Y-88486697D01*
X122242966Y-88421339D01*
X122018900Y-88399270D01*
X121794833Y-88421339D01*
X121579377Y-88486697D01*
X121380811Y-88592832D01*
X121206767Y-88735667D01*
X121063932Y-88909712D01*
X120957797Y-89108278D01*
X120892439Y-89323734D01*
X120875900Y-89491655D01*
X120621900Y-89491655D01*
X120621900Y-89491654D01*
X120605361Y-89323733D01*
X120540003Y-89108277D01*
X120433868Y-88909711D01*
X120291033Y-88735667D01*
X120116988Y-88592832D01*
X119918422Y-88486697D01*
X119702966Y-88421339D01*
X119478900Y-88399270D01*
X119254833Y-88421339D01*
X119039377Y-88486697D01*
X118840811Y-88592832D01*
X118666767Y-88735667D01*
X118523932Y-88909712D01*
X118417797Y-89108278D01*
X118352439Y-89323734D01*
X118335900Y-89491655D01*
X115823232Y-89491655D01*
X115773439Y-89371445D01*
X115556643Y-89046986D01*
X115280714Y-88771057D01*
X114956255Y-88554261D01*
X114595736Y-88404929D01*
X114213011Y-88328800D01*
X113822789Y-88328800D01*
X113440064Y-88404929D01*
X113079545Y-88554261D01*
X112755086Y-88771057D01*
X112479157Y-89046986D01*
X112262361Y-89371445D01*
X112113029Y-89731964D01*
X112036900Y-90114689D01*
X89196000Y-90114689D01*
X89196000Y-89511699D01*
X89218040Y-89286918D01*
X89280256Y-89080847D01*
X89381317Y-88890780D01*
X89517368Y-88723964D01*
X89683230Y-88586752D01*
X89872582Y-88484370D01*
X90078219Y-88420714D01*
X90313361Y-88396000D01*
X110592399Y-88396000D01*
X110611859Y-88394083D01*
X110612227Y-88394086D01*
X110618564Y-88393464D01*
X110624751Y-88392814D01*
X110659392Y-88389402D01*
X110660548Y-88389051D01*
X110921578Y-88361616D01*
X110962077Y-88353303D01*
X111002661Y-88345561D01*
X111008757Y-88343721D01*
X111299814Y-88253623D01*
X111337937Y-88237598D01*
X111376234Y-88222125D01*
X111381851Y-88219138D01*
X111381856Y-88219136D01*
X111381860Y-88219133D01*
X111649870Y-88074221D01*
X111684125Y-88051116D01*
X111718717Y-88028480D01*
X111723644Y-88024461D01*
X111723651Y-88024456D01*
X111723657Y-88024450D01*
X111958414Y-87830243D01*
X111987524Y-87800929D01*
X112017065Y-87772001D01*
X112021123Y-87767094D01*
X112213692Y-87530981D01*
X112236570Y-87496548D01*
X112259913Y-87462457D01*
X112262941Y-87456856D01*
X112405982Y-87187836D01*
X112421736Y-87149615D01*
X112438013Y-87111637D01*
X112439896Y-87105554D01*
X112524298Y-86826000D01*
X131366100Y-86826000D01*
X131366100Y-88736480D01*
X131366100Y-88736480D01*
G37*
X131366100Y-88736480D02*
X131223932Y-88909712D01*
X131117797Y-89108278D01*
X131052439Y-89323734D01*
X131035900Y-89491655D01*
X131035900Y-90700799D01*
X131023974Y-90715331D01*
X130996650Y-90748625D01*
X130996649Y-90748627D01*
X130947119Y-90841290D01*
X130941909Y-90858467D01*
X130781900Y-90698458D01*
X130781900Y-89491654D01*
X130765361Y-89323733D01*
X130700003Y-89108277D01*
X130593868Y-88909711D01*
X130451033Y-88735667D01*
X130276988Y-88592832D01*
X130078422Y-88486697D01*
X129862966Y-88421339D01*
X129638900Y-88399270D01*
X129414833Y-88421339D01*
X129199377Y-88486697D01*
X129000811Y-88592832D01*
X128826767Y-88735667D01*
X128683932Y-88909712D01*
X128577797Y-89108278D01*
X128512439Y-89323734D01*
X128495900Y-89491655D01*
X128495900Y-90952459D01*
X128241900Y-90698459D01*
X128241900Y-89491654D01*
X128225361Y-89323733D01*
X128160003Y-89108277D01*
X128053868Y-88909711D01*
X127911033Y-88735667D01*
X127736988Y-88592832D01*
X127538422Y-88486697D01*
X127322966Y-88421339D01*
X127098900Y-88399270D01*
X126874833Y-88421339D01*
X126659377Y-88486697D01*
X126460811Y-88592832D01*
X126286767Y-88735667D01*
X126143932Y-88909712D01*
X126037797Y-89108278D01*
X125972439Y-89323734D01*
X125955900Y-89491655D01*
X125955900Y-91127946D01*
X125972439Y-91295867D01*
X126037798Y-91511323D01*
X126143933Y-91709889D01*
X126286768Y-91883933D01*
X126460812Y-92026768D01*
X126659378Y-92132903D01*
X126874834Y-92198261D01*
X127098900Y-92220330D01*
X127322967Y-92198261D01*
X127538423Y-92132903D01*
X127736989Y-92026768D01*
X127911033Y-91883933D01*
X127914485Y-91879726D01*
X129486501Y-93451742D01*
X129486501Y-93624296D01*
X129307665Y-93550220D01*
X129106469Y-93510200D01*
X128901331Y-93510200D01*
X128700135Y-93550220D01*
X128510612Y-93628723D01*
X128470500Y-93655525D01*
X128470500Y-93626960D01*
X128492993Y-93572658D01*
X128521300Y-93430349D01*
X128521300Y-93285251D01*
X128492993Y-93142942D01*
X128437466Y-93008889D01*
X128356855Y-92888245D01*
X128254255Y-92785645D01*
X128133611Y-92705034D01*
X127999558Y-92649507D01*
X127857249Y-92621200D01*
X127712151Y-92621200D01*
X127569842Y-92649507D01*
X127435789Y-92705034D01*
X127315145Y-92785645D01*
X127212545Y-92888245D01*
X127131934Y-93008889D01*
X127076407Y-93142942D01*
X127048100Y-93285251D01*
X127048100Y-93430349D01*
X127076407Y-93572658D01*
X127098900Y-93626961D01*
X127098900Y-93655525D01*
X127058788Y-93628723D01*
X126869265Y-93550220D01*
X126668069Y-93510200D01*
X126462931Y-93510200D01*
X126309050Y-93540809D01*
X125092300Y-92324059D01*
X125092300Y-92082725D01*
X125196989Y-92026768D01*
X125371033Y-91883933D01*
X125513868Y-91709889D01*
X125620003Y-91511323D01*
X125685361Y-91295867D01*
X125701900Y-91127946D01*
X125701900Y-89491654D01*
X125685361Y-89323733D01*
X125620003Y-89108277D01*
X125513868Y-88909711D01*
X125371033Y-88735667D01*
X125196988Y-88592832D01*
X124998422Y-88486697D01*
X124782966Y-88421339D01*
X124558900Y-88399270D01*
X124334833Y-88421339D01*
X124119377Y-88486697D01*
X123920811Y-88592832D01*
X123746767Y-88735667D01*
X123603932Y-88909712D01*
X123497797Y-89108278D01*
X123432439Y-89323734D01*
X123415900Y-89491655D01*
X123415900Y-91127946D01*
X123432439Y-91295867D01*
X123497798Y-91511323D01*
X123603933Y-91709889D01*
X123746768Y-91883933D01*
X123920812Y-92026768D01*
X124025501Y-92082725D01*
X124025501Y-92518803D01*
X124022921Y-92545000D01*
X124033219Y-92649564D01*
X124063719Y-92750110D01*
X124063720Y-92750111D01*
X124113250Y-92842775D01*
X124120661Y-92851805D01*
X124163207Y-92903648D01*
X124163210Y-92903651D01*
X124179906Y-92923995D01*
X124200250Y-92940691D01*
X125554709Y-94295150D01*
X125524100Y-94449031D01*
X125524100Y-94654169D01*
X125559274Y-94831000D01*
X125426151Y-94831000D01*
X125283842Y-94859307D01*
X125149789Y-94914834D01*
X125029145Y-94995445D01*
X124926545Y-95098045D01*
X124845934Y-95218689D01*
X124790407Y-95352742D01*
X124762100Y-95495051D01*
X124762100Y-95549859D01*
X124378050Y-95933909D01*
X124357706Y-95950605D01*
X124341010Y-95970949D01*
X124341007Y-95970952D01*
X124318374Y-95998531D01*
X124291050Y-96031825D01*
X124291049Y-96031827D01*
X124241519Y-96124490D01*
X124211019Y-96225036D01*
X124200721Y-96329600D01*
X124203301Y-96355797D01*
X124203300Y-101917290D01*
X124164545Y-101956045D01*
X124083934Y-102076689D01*
X124028407Y-102210742D01*
X124000100Y-102353051D01*
X124000100Y-102407859D01*
X123515759Y-102892200D01*
X114881101Y-102892200D01*
X114807859Y-102818958D01*
X114679942Y-102733487D01*
X114537809Y-102674613D01*
X114386922Y-102644600D01*
X114233078Y-102644600D01*
X114082191Y-102674613D01*
X113940058Y-102733487D01*
X113812141Y-102818958D01*
X113703358Y-102927741D01*
X113617887Y-103055658D01*
X113559013Y-103197791D01*
X113529000Y-103348678D01*
X113529000Y-103502522D01*
X113559013Y-103653409D01*
X113560565Y-103657157D01*
X109784943Y-99881535D01*
X109785264Y-99880759D01*
X109871000Y-99449734D01*
X109871000Y-99010266D01*
X109785264Y-98579241D01*
X109617087Y-98173225D01*
X109372931Y-97807820D01*
X109062180Y-97497069D01*
X108696775Y-97252913D01*
X108290759Y-97084736D01*
X107859734Y-96999000D01*
X107420266Y-96999000D01*
X106989241Y-97084736D01*
X106583225Y-97252913D01*
X106217820Y-97497069D01*
X105907069Y-97807820D01*
X105662913Y-98173225D01*
X105494736Y-98579241D01*
X105409000Y-99010266D01*
X105409000Y-99449734D01*
X105494736Y-99880759D01*
X105662913Y-100286775D01*
X105907069Y-100652180D01*
X106217820Y-100962931D01*
X106583225Y-101207087D01*
X106989241Y-101375264D01*
X107420266Y-101461000D01*
X107859734Y-101461000D01*
X108290759Y-101375264D01*
X108291535Y-101374943D01*
X120124000Y-113207410D01*
X120124000Y-113677990D01*
X120048856Y-113818576D01*
X119979141Y-114048396D01*
X119961500Y-114227508D01*
X119961500Y-116023693D01*
X119979142Y-116202805D01*
X120048857Y-116432625D01*
X120162068Y-116644429D01*
X120314425Y-116830076D01*
X120500072Y-116982433D01*
X120711876Y-117095644D01*
X120941696Y-117165359D01*
X121180700Y-117188899D01*
X121419705Y-117165359D01*
X121649525Y-117095644D01*
X121861329Y-116982433D01*
X122046976Y-116830076D01*
X122199333Y-116644429D01*
X122312544Y-116432625D01*
X122382259Y-116202805D01*
X122399900Y-116023693D01*
X122399900Y-114227507D01*
X122382259Y-114048395D01*
X122312544Y-113818575D01*
X122236000Y-113675370D01*
X122236000Y-112821865D01*
X122241108Y-112770000D01*
X122236000Y-112718135D01*
X122236000Y-112718128D01*
X122220720Y-112562988D01*
X122160337Y-112363931D01*
X122062280Y-112180479D01*
X122037191Y-112149908D01*
X121963384Y-112059974D01*
X121963380Y-112059970D01*
X121930317Y-112019683D01*
X121890030Y-111986620D01*
X114078444Y-104175035D01*
X114082191Y-104176587D01*
X114233078Y-104206600D01*
X114386922Y-104206600D01*
X114537809Y-104176587D01*
X114679942Y-104117713D01*
X114807859Y-104032242D01*
X114881101Y-103959000D01*
X123710513Y-103959000D01*
X123736700Y-103961579D01*
X123762887Y-103959000D01*
X123762895Y-103959000D01*
X123841265Y-103951281D01*
X123941811Y-103920781D01*
X124034475Y-103871251D01*
X124115695Y-103804595D01*
X124132396Y-103784245D01*
X124754441Y-103162200D01*
X124809249Y-103162200D01*
X124914500Y-103141264D01*
X124914501Y-110797013D01*
X124834408Y-110677146D01*
X124689354Y-110532092D01*
X124518788Y-110418123D01*
X124329265Y-110339620D01*
X124128069Y-110299600D01*
X123922931Y-110299600D01*
X123721735Y-110339620D01*
X123532212Y-110418123D01*
X123361646Y-110532092D01*
X123216592Y-110677146D01*
X123102623Y-110847712D01*
X123024120Y-111037235D01*
X122984100Y-111238431D01*
X122984100Y-111443569D01*
X123024120Y-111644765D01*
X123102623Y-111834288D01*
X123216592Y-112004854D01*
X123361646Y-112149908D01*
X123532212Y-112263877D01*
X123721735Y-112342380D01*
X123922931Y-112382400D01*
X124128069Y-112382400D01*
X124329265Y-112342380D01*
X124518788Y-112263877D01*
X124689354Y-112149908D01*
X124834408Y-112004854D01*
X124914501Y-111884987D01*
X124914501Y-118417013D01*
X124834408Y-118297146D01*
X124689354Y-118152092D01*
X124518788Y-118038123D01*
X124329265Y-117959620D01*
X124128069Y-117919600D01*
X123922931Y-117919600D01*
X123721735Y-117959620D01*
X123532212Y-118038123D01*
X123361646Y-118152092D01*
X123216592Y-118297146D01*
X123102623Y-118467712D01*
X123024120Y-118657235D01*
X122984100Y-118858431D01*
X122984100Y-119063569D01*
X123024120Y-119264765D01*
X123102623Y-119454288D01*
X123216592Y-119624854D01*
X123361646Y-119769908D01*
X123532212Y-119883877D01*
X123721735Y-119962380D01*
X123922931Y-120002400D01*
X124128069Y-120002400D01*
X124329265Y-119962380D01*
X124518788Y-119883877D01*
X124689354Y-119769908D01*
X124728690Y-119730572D01*
X124739607Y-119785458D01*
X124795134Y-119919511D01*
X124875745Y-120040155D01*
X124978345Y-120142755D01*
X125098989Y-120223366D01*
X125233042Y-120278893D01*
X125375351Y-120307200D01*
X125520449Y-120307200D01*
X125662758Y-120278893D01*
X125796811Y-120223366D01*
X125917455Y-120142755D01*
X126020055Y-120040155D01*
X126100666Y-119919511D01*
X126150501Y-119799200D01*
X126282449Y-119799200D01*
X126424758Y-119770893D01*
X126558811Y-119715366D01*
X126679455Y-119634755D01*
X126782055Y-119532155D01*
X126862666Y-119411511D01*
X126918193Y-119277458D01*
X126946500Y-119135149D01*
X126946500Y-118990051D01*
X126918193Y-118847742D01*
X126862666Y-118713689D01*
X126782055Y-118593045D01*
X126692500Y-118503490D01*
X126692500Y-114083231D01*
X127733900Y-114083231D01*
X127733900Y-114288369D01*
X127773920Y-114489565D01*
X127852423Y-114679088D01*
X127966392Y-114849654D01*
X128111446Y-114994708D01*
X128282012Y-115108677D01*
X128471535Y-115187180D01*
X128672731Y-115227200D01*
X128877869Y-115227200D01*
X129079065Y-115187180D01*
X129268588Y-115108677D01*
X129439154Y-114994708D01*
X129584208Y-114849654D01*
X129698177Y-114679088D01*
X129776680Y-114489565D01*
X129816700Y-114288369D01*
X129816700Y-114083231D01*
X129776680Y-113882035D01*
X129698177Y-113692512D01*
X129584208Y-113521946D01*
X129439154Y-113376892D01*
X129308700Y-113289725D01*
X129308700Y-111976310D01*
X129347455Y-111937555D01*
X129428066Y-111816911D01*
X129483593Y-111682858D01*
X129511900Y-111540549D01*
X129511900Y-111395451D01*
X129483593Y-111253142D01*
X129428066Y-111119089D01*
X129347455Y-110998445D01*
X129244855Y-110895845D01*
X129124211Y-110815234D01*
X128990158Y-110759707D01*
X128847849Y-110731400D01*
X128702751Y-110731400D01*
X128560442Y-110759707D01*
X128426389Y-110815234D01*
X128305745Y-110895845D01*
X128203145Y-110998445D01*
X128122534Y-111119089D01*
X128067007Y-111253142D01*
X128038700Y-111395451D01*
X128038700Y-111540549D01*
X128067007Y-111682858D01*
X128122534Y-111816911D01*
X128203145Y-111937555D01*
X128241901Y-111976311D01*
X128241900Y-113289725D01*
X128111446Y-113376892D01*
X127966392Y-113521946D01*
X127852423Y-113692512D01*
X127773920Y-113882035D01*
X127733900Y-114083231D01*
X126692500Y-114083231D01*
X126692500Y-111849310D01*
X126731255Y-111810555D01*
X126811866Y-111689911D01*
X126867393Y-111555858D01*
X126895700Y-111413549D01*
X126895700Y-111268451D01*
X126867393Y-111126142D01*
X126811866Y-110992089D01*
X126731255Y-110871445D01*
X126628655Y-110768845D01*
X126508011Y-110688234D01*
X126373958Y-110632707D01*
X126231649Y-110604400D01*
X126086551Y-110604400D01*
X125981300Y-110625336D01*
X125981300Y-105816704D01*
X126160135Y-105890780D01*
X126361331Y-105930800D01*
X126566469Y-105930800D01*
X126767665Y-105890780D01*
X126957188Y-105812277D01*
X127127754Y-105698308D01*
X127272808Y-105553254D01*
X127386777Y-105382688D01*
X127465280Y-105193165D01*
X127505300Y-104991969D01*
X127505300Y-104786831D01*
X127465280Y-104585635D01*
X127386777Y-104396112D01*
X127272808Y-104225546D01*
X127127754Y-104080492D01*
X126957188Y-103966523D01*
X126767665Y-103888020D01*
X126566469Y-103848000D01*
X126361331Y-103848000D01*
X126160135Y-103888020D01*
X125981300Y-103962096D01*
X125981300Y-103033731D01*
X126072212Y-103094477D01*
X126261735Y-103172980D01*
X126462931Y-103213000D01*
X126668069Y-103213000D01*
X126869265Y-103172980D01*
X127058788Y-103094477D01*
X127229354Y-102980508D01*
X127374408Y-102835454D01*
X127488377Y-102664888D01*
X127566880Y-102475365D01*
X127606900Y-102274169D01*
X127606900Y-102069031D01*
X127566880Y-101867835D01*
X127488377Y-101678312D01*
X127382924Y-101520491D01*
X127962500Y-102100068D01*
X127962500Y-102274169D01*
X128002520Y-102475365D01*
X128081023Y-102664888D01*
X128194992Y-102835454D01*
X128318101Y-102958563D01*
X128318100Y-104102438D01*
X128194992Y-104225546D01*
X128081023Y-104396112D01*
X128002520Y-104585635D01*
X127962500Y-104786831D01*
X127962500Y-104991969D01*
X128002520Y-105193165D01*
X128081023Y-105382688D01*
X128194992Y-105553254D01*
X128340046Y-105698308D01*
X128510612Y-105812277D01*
X128700135Y-105890780D01*
X128901331Y-105930800D01*
X129106469Y-105930800D01*
X129307665Y-105890780D01*
X129486500Y-105816704D01*
X129486500Y-109283290D01*
X129447745Y-109322045D01*
X129367134Y-109442689D01*
X129311607Y-109576742D01*
X129283300Y-109719051D01*
X129283300Y-109864149D01*
X129311607Y-110006458D01*
X129367134Y-110140511D01*
X129447745Y-110261155D01*
X129550345Y-110363755D01*
X129670989Y-110444366D01*
X129805042Y-110499893D01*
X129947351Y-110528200D01*
X130092449Y-110528200D01*
X130234758Y-110499893D01*
X130368811Y-110444366D01*
X130489455Y-110363755D01*
X130592055Y-110261155D01*
X130672666Y-110140511D01*
X130728193Y-110006458D01*
X130756500Y-109864149D01*
X130756500Y-109719051D01*
X130728193Y-109576742D01*
X130672666Y-109442689D01*
X130592055Y-109322045D01*
X130553300Y-109283290D01*
X130553300Y-99229664D01*
X130658551Y-99250600D01*
X130803649Y-99250600D01*
X130945958Y-99222293D01*
X131080011Y-99166766D01*
X131200655Y-99086155D01*
X131235713Y-99051097D01*
X131366100Y-99052049D01*
X131366100Y-113144400D01*
X131161931Y-113144400D01*
X130960735Y-113184420D01*
X130771212Y-113262923D01*
X130600646Y-113376892D01*
X130455592Y-113521946D01*
X130341623Y-113692512D01*
X130263120Y-113882035D01*
X130223100Y-114083231D01*
X130223100Y-114288369D01*
X130263120Y-114489565D01*
X130341623Y-114679088D01*
X130455592Y-114849654D01*
X130600646Y-114994708D01*
X130731101Y-115081875D01*
X130731100Y-118430329D01*
X130730802Y-118433826D01*
X130731100Y-118456475D01*
X130731100Y-118479194D01*
X130731445Y-118482697D01*
X130749853Y-119881737D01*
X130717745Y-119913845D01*
X130637134Y-120034489D01*
X130581607Y-120168542D01*
X130553300Y-120310851D01*
X130553300Y-120455949D01*
X130581607Y-120598258D01*
X130637134Y-120732311D01*
X130717745Y-120852955D01*
X130757125Y-120892335D01*
X130600646Y-120996892D01*
X130455592Y-121141946D01*
X130341623Y-121312512D01*
X130263120Y-121502035D01*
X130223100Y-121703231D01*
X130223100Y-121908369D01*
X130263120Y-122109565D01*
X130341623Y-122299088D01*
X130455592Y-122469654D01*
X130600646Y-122614708D01*
X130771212Y-122728677D01*
X130960735Y-122807180D01*
X131161931Y-122847200D01*
X131366100Y-122847200D01*
X131366100Y-123174000D01*
X114356792Y-123174000D01*
X114595736Y-123126471D01*
X114956255Y-122977139D01*
X115280714Y-122760343D01*
X115556643Y-122484414D01*
X115773439Y-122159955D01*
X115922771Y-121799436D01*
X115941907Y-121703231D01*
X127733900Y-121703231D01*
X127733900Y-121908369D01*
X127773920Y-122109565D01*
X127852423Y-122299088D01*
X127966392Y-122469654D01*
X128111446Y-122614708D01*
X128282012Y-122728677D01*
X128471535Y-122807180D01*
X128672731Y-122847200D01*
X128877869Y-122847200D01*
X129079065Y-122807180D01*
X129268588Y-122728677D01*
X129439154Y-122614708D01*
X129584208Y-122469654D01*
X129698177Y-122299088D01*
X129776680Y-122109565D01*
X129816700Y-121908369D01*
X129816700Y-121703231D01*
X129776680Y-121502035D01*
X129698177Y-121312512D01*
X129584208Y-121141946D01*
X129439154Y-120996892D01*
X129268588Y-120882923D01*
X129079065Y-120804420D01*
X128877869Y-120764400D01*
X128672731Y-120764400D01*
X128471535Y-120804420D01*
X128282012Y-120882923D01*
X128111446Y-120996892D01*
X127966392Y-121141946D01*
X127852423Y-121312512D01*
X127773920Y-121502035D01*
X127733900Y-121703231D01*
X115941907Y-121703231D01*
X115998900Y-121416711D01*
X115998900Y-121026489D01*
X115922771Y-120643764D01*
X115773439Y-120283245D01*
X115556643Y-119958786D01*
X115280714Y-119682857D01*
X114956255Y-119466061D01*
X114595736Y-119316729D01*
X114213011Y-119240600D01*
X113822789Y-119240600D01*
X113440064Y-119316729D01*
X113079545Y-119466061D01*
X112755086Y-119682857D01*
X112479157Y-119958786D01*
X112262361Y-120283245D01*
X112113029Y-120643764D01*
X112036900Y-121026489D01*
X112036900Y-121416711D01*
X112113029Y-121799436D01*
X112262361Y-122159955D01*
X112479157Y-122484414D01*
X112755086Y-122760343D01*
X113079545Y-122977139D01*
X113440064Y-123126471D01*
X113679008Y-123174000D01*
X112632275Y-123174000D01*
X112544776Y-122891338D01*
X112528740Y-122853191D01*
X112513278Y-122814919D01*
X112510289Y-122809297D01*
X112510289Y-122809296D01*
X112510286Y-122809292D01*
X112365374Y-122541283D01*
X112342249Y-122506998D01*
X112319633Y-122472436D01*
X112315618Y-122467514D01*
X112315609Y-122467501D01*
X112315599Y-122467491D01*
X112121396Y-122232740D01*
X112092065Y-122203613D01*
X112063154Y-122174089D01*
X112058248Y-122170030D01*
X111822134Y-121977461D01*
X111787723Y-121954598D01*
X111753610Y-121931240D01*
X111748016Y-121928216D01*
X111748008Y-121928211D01*
X111748000Y-121928208D01*
X111478989Y-121785171D01*
X111440768Y-121769417D01*
X111402790Y-121753140D01*
X111396711Y-121751258D01*
X111396705Y-121751256D01*
X111105028Y-121663194D01*
X111064503Y-121655170D01*
X111024060Y-121646573D01*
X111017728Y-121645908D01*
X110774070Y-121622017D01*
X110769392Y-121620598D01*
X110702399Y-121614000D01*
X90311699Y-121614000D01*
X90086918Y-121591960D01*
X89880845Y-121529743D01*
X89690782Y-121428684D01*
X89523964Y-121292631D01*
X89386755Y-121126774D01*
X89284370Y-120937418D01*
X89220714Y-120731779D01*
X89196000Y-120496639D01*
X89196000Y-117784738D01*
X92959000Y-117784738D01*
X92959000Y-118155262D01*
X93031286Y-118518667D01*
X93173080Y-118860987D01*
X93378932Y-119169067D01*
X93640933Y-119431068D01*
X93949013Y-119636920D01*
X94291333Y-119778714D01*
X94654738Y-119851000D01*
X95025262Y-119851000D01*
X95388667Y-119778714D01*
X95730987Y-119636920D01*
X96039067Y-119431068D01*
X96301068Y-119169067D01*
X96506920Y-118860987D01*
X96648714Y-118518667D01*
X96721000Y-118155262D01*
X96721000Y-117784738D01*
X96648714Y-117421333D01*
X96506920Y-117079013D01*
X96301068Y-116770933D01*
X96039067Y-116508932D01*
X95730987Y-116303080D01*
X95388667Y-116161286D01*
X95181109Y-116120000D01*
X99907157Y-116120000D01*
X99907157Y-119820000D01*
X99914513Y-119894689D01*
X99936299Y-119966508D01*
X99971678Y-120032696D01*
X100019289Y-120090711D01*
X100077304Y-120138322D01*
X100143492Y-120173701D01*
X100215311Y-120195487D01*
X100290000Y-120202843D01*
X103990000Y-120202843D01*
X104064689Y-120195487D01*
X104136508Y-120173701D01*
X104202696Y-120138322D01*
X104260711Y-120090711D01*
X104308322Y-120032696D01*
X104343701Y-119966508D01*
X104365487Y-119894689D01*
X104372843Y-119820000D01*
X104372843Y-117750266D01*
X105409000Y-117750266D01*
X105409000Y-118189734D01*
X105494736Y-118620759D01*
X105662913Y-119026775D01*
X105907069Y-119392180D01*
X106217820Y-119702931D01*
X106583225Y-119947087D01*
X106989241Y-120115264D01*
X107420266Y-120201000D01*
X107859734Y-120201000D01*
X108290759Y-120115264D01*
X108696775Y-119947087D01*
X109062180Y-119702931D01*
X109372931Y-119392180D01*
X109617087Y-119026775D01*
X109785264Y-118620759D01*
X109871000Y-118189734D01*
X109871000Y-117750266D01*
X109785264Y-117319241D01*
X109617087Y-116913225D01*
X109372931Y-116547820D01*
X109062180Y-116237069D01*
X108696775Y-115992913D01*
X108290759Y-115824736D01*
X107859734Y-115739000D01*
X107420266Y-115739000D01*
X106989241Y-115824736D01*
X106583225Y-115992913D01*
X106217820Y-116237069D01*
X105907069Y-116547820D01*
X105662913Y-116913225D01*
X105494736Y-117319241D01*
X105409000Y-117750266D01*
X104372843Y-117750266D01*
X104372843Y-116120000D01*
X104365487Y-116045311D01*
X104343701Y-115973492D01*
X104308322Y-115907304D01*
X104260711Y-115849289D01*
X104202696Y-115801678D01*
X104136508Y-115766299D01*
X104064689Y-115744513D01*
X103990000Y-115737157D01*
X100290000Y-115737157D01*
X100215311Y-115744513D01*
X100143492Y-115766299D01*
X100077304Y-115801678D01*
X100019289Y-115849289D01*
X99971678Y-115907304D01*
X99936299Y-115973492D01*
X99914513Y-116045311D01*
X99907157Y-116120000D01*
X95181109Y-116120000D01*
X95025262Y-116089000D01*
X94654738Y-116089000D01*
X94291333Y-116161286D01*
X93949013Y-116303080D01*
X93640933Y-116508932D01*
X93378932Y-116770933D01*
X93173080Y-117079013D01*
X93031286Y-117421333D01*
X92959000Y-117784738D01*
X89196000Y-117784738D01*
X89196000Y-113832101D01*
X100613255Y-113832101D01*
X100813080Y-114138882D01*
X101203177Y-114361841D01*
X101629275Y-114504412D01*
X102075001Y-114561116D01*
X102523224Y-114529773D01*
X102956720Y-114411589D01*
X103358830Y-114211104D01*
X103466920Y-114138882D01*
X103666745Y-113832101D01*
X102140000Y-112305355D01*
X100613255Y-113832101D01*
X89196000Y-113832101D01*
X89196000Y-112205001D01*
X99848884Y-112205001D01*
X99880227Y-112653224D01*
X99998411Y-113086720D01*
X100198896Y-113488830D01*
X100271118Y-113596920D01*
X100577899Y-113796745D01*
X102104645Y-112270000D01*
X102175355Y-112270000D01*
X103702101Y-113796745D01*
X104008882Y-113596920D01*
X104231841Y-113206823D01*
X104374412Y-112780725D01*
X104431116Y-112334999D01*
X104411206Y-112050266D01*
X105409000Y-112050266D01*
X105409000Y-112489734D01*
X105494736Y-112920759D01*
X105662913Y-113326775D01*
X105907069Y-113692180D01*
X106217820Y-114002931D01*
X106583225Y-114247087D01*
X106989241Y-114415264D01*
X107420266Y-114501000D01*
X107859734Y-114501000D01*
X108290759Y-114415264D01*
X108696775Y-114247087D01*
X108726077Y-114227508D01*
X114881500Y-114227508D01*
X114881500Y-116023693D01*
X114899142Y-116202805D01*
X114968857Y-116432625D01*
X115082068Y-116644429D01*
X115234425Y-116830076D01*
X115420072Y-116982433D01*
X115631876Y-117095644D01*
X115861696Y-117165359D01*
X116100700Y-117188899D01*
X116339705Y-117165359D01*
X116569525Y-117095644D01*
X116781329Y-116982433D01*
X116966976Y-116830076D01*
X117119333Y-116644429D01*
X117232544Y-116432625D01*
X117302259Y-116202805D01*
X117319900Y-116023693D01*
X117319900Y-115150600D01*
X117371500Y-115150600D01*
X117371500Y-115988800D01*
X117400765Y-116235928D01*
X117477680Y-116472598D01*
X117599289Y-116689716D01*
X117760919Y-116878937D01*
X117956358Y-117032990D01*
X118178096Y-117145954D01*
X118417500Y-117213220D01*
X118615700Y-117124981D01*
X118615700Y-115150600D01*
X118665700Y-115150600D01*
X118665700Y-117124981D01*
X118863900Y-117213220D01*
X119103304Y-117145954D01*
X119325042Y-117032990D01*
X119520481Y-116878937D01*
X119682111Y-116689716D01*
X119803720Y-116472598D01*
X119880635Y-116235928D01*
X119909900Y-115988800D01*
X119909900Y-115150600D01*
X118665700Y-115150600D01*
X118615700Y-115150600D01*
X117371500Y-115150600D01*
X117319900Y-115150600D01*
X117319900Y-114262400D01*
X117371500Y-114262400D01*
X117371500Y-115100600D01*
X118615700Y-115100600D01*
X118615700Y-113126219D01*
X118665700Y-113126219D01*
X118665700Y-115100600D01*
X119909900Y-115100600D01*
X119909900Y-114262400D01*
X119880635Y-114015272D01*
X119803720Y-113778602D01*
X119682111Y-113561484D01*
X119520481Y-113372263D01*
X119325042Y-113218210D01*
X119103304Y-113105246D01*
X118863900Y-113037980D01*
X118665700Y-113126219D01*
X118615700Y-113126219D01*
X118417500Y-113037980D01*
X118178096Y-113105246D01*
X117956358Y-113218210D01*
X117760919Y-113372263D01*
X117599289Y-113561484D01*
X117477680Y-113778602D01*
X117400765Y-114015272D01*
X117371500Y-114262400D01*
X117319900Y-114262400D01*
X117319900Y-114227507D01*
X117302259Y-114048395D01*
X117232544Y-113818575D01*
X117119333Y-113606771D01*
X116966976Y-113421124D01*
X116781328Y-113268767D01*
X116569524Y-113155556D01*
X116339704Y-113085841D01*
X116100700Y-113062301D01*
X115861695Y-113085841D01*
X115631875Y-113155556D01*
X115420071Y-113268767D01*
X115234424Y-113421124D01*
X115082067Y-113606772D01*
X114968856Y-113818576D01*
X114899141Y-114048396D01*
X114881500Y-114227508D01*
X108726077Y-114227508D01*
X109062180Y-114002931D01*
X109372931Y-113692180D01*
X109617087Y-113326775D01*
X109785264Y-112920759D01*
X109871000Y-112489734D01*
X109871000Y-112050266D01*
X109785264Y-111619241D01*
X109617087Y-111213225D01*
X109372931Y-110847820D01*
X109062180Y-110537069D01*
X108696775Y-110292913D01*
X108290759Y-110124736D01*
X107859734Y-110039000D01*
X107420266Y-110039000D01*
X106989241Y-110124736D01*
X106583225Y-110292913D01*
X106217820Y-110537069D01*
X105907069Y-110847820D01*
X105662913Y-111213225D01*
X105494736Y-111619241D01*
X105409000Y-112050266D01*
X104411206Y-112050266D01*
X104399773Y-111886776D01*
X104281589Y-111453280D01*
X104081104Y-111051170D01*
X104008882Y-110943080D01*
X103702101Y-110743255D01*
X102175355Y-112270000D01*
X102104645Y-112270000D01*
X100577899Y-110743255D01*
X100271118Y-110943080D01*
X100048159Y-111333177D01*
X99905588Y-111759275D01*
X99848884Y-112205001D01*
X89196000Y-112205001D01*
X89196000Y-110707899D01*
X100613255Y-110707899D01*
X102140000Y-112234645D01*
X103666745Y-110707899D01*
X103466920Y-110401118D01*
X103076823Y-110178159D01*
X102650725Y-110035588D01*
X102204999Y-109978884D01*
X101756776Y-110010227D01*
X101323280Y-110128411D01*
X100921170Y-110328896D01*
X100813080Y-110401118D01*
X100613255Y-110707899D01*
X89196000Y-110707899D01*
X89196000Y-106384738D01*
X92959000Y-106384738D01*
X92959000Y-106755262D01*
X93031286Y-107118667D01*
X93173080Y-107460987D01*
X93378932Y-107769067D01*
X93640933Y-108031068D01*
X93949013Y-108236920D01*
X94291333Y-108378714D01*
X94654738Y-108451000D01*
X95025262Y-108451000D01*
X95388667Y-108378714D01*
X95730987Y-108236920D01*
X96039067Y-108031068D01*
X96301068Y-107769067D01*
X96506920Y-107460987D01*
X96648714Y-107118667D01*
X96721000Y-106755262D01*
X96721000Y-106384738D01*
X96714144Y-106350266D01*
X99909000Y-106350266D01*
X99909000Y-106789734D01*
X99994736Y-107220759D01*
X100162913Y-107626775D01*
X100407069Y-107992180D01*
X100717820Y-108302931D01*
X101083225Y-108547087D01*
X101489241Y-108715264D01*
X101920266Y-108801000D01*
X102359734Y-108801000D01*
X102790759Y-108715264D01*
X103196775Y-108547087D01*
X103562180Y-108302931D01*
X103872931Y-107992180D01*
X104117087Y-107626775D01*
X104285264Y-107220759D01*
X104371000Y-106789734D01*
X104371000Y-106350266D01*
X105409000Y-106350266D01*
X105409000Y-106789734D01*
X105494736Y-107220759D01*
X105662913Y-107626775D01*
X105907069Y-107992180D01*
X106217820Y-108302931D01*
X106583225Y-108547087D01*
X106989241Y-108715264D01*
X107420266Y-108801000D01*
X107859734Y-108801000D01*
X108290759Y-108715264D01*
X108696775Y-108547087D01*
X109062180Y-108302931D01*
X109372931Y-107992180D01*
X109617087Y-107626775D01*
X109785264Y-107220759D01*
X109871000Y-106789734D01*
X109871000Y-106350266D01*
X109785264Y-105919241D01*
X109617087Y-105513225D01*
X109372931Y-105147820D01*
X109062180Y-104837069D01*
X108696775Y-104592913D01*
X108290759Y-104424736D01*
X107859734Y-104339000D01*
X107420266Y-104339000D01*
X106989241Y-104424736D01*
X106583225Y-104592913D01*
X106217820Y-104837069D01*
X105907069Y-105147820D01*
X105662913Y-105513225D01*
X105494736Y-105919241D01*
X105409000Y-106350266D01*
X104371000Y-106350266D01*
X104285264Y-105919241D01*
X104117087Y-105513225D01*
X103872931Y-105147820D01*
X103562180Y-104837069D01*
X103196775Y-104592913D01*
X102790759Y-104424736D01*
X102359734Y-104339000D01*
X101920266Y-104339000D01*
X101489241Y-104424736D01*
X101083225Y-104592913D01*
X100717820Y-104837069D01*
X100407069Y-105147820D01*
X100162913Y-105513225D01*
X99994736Y-105919241D01*
X99909000Y-106350266D01*
X96714144Y-106350266D01*
X96648714Y-106021333D01*
X96506920Y-105679013D01*
X96301068Y-105370933D01*
X96039067Y-105108932D01*
X95730987Y-104903080D01*
X95388667Y-104761286D01*
X95025262Y-104689000D01*
X94654738Y-104689000D01*
X94291333Y-104761286D01*
X93949013Y-104903080D01*
X93640933Y-105108932D01*
X93378932Y-105370933D01*
X93173080Y-105679013D01*
X93031286Y-106021333D01*
X92959000Y-106384738D01*
X89196000Y-106384738D01*
X89196000Y-96194738D01*
X92959000Y-96194738D01*
X92959000Y-96565262D01*
X93031286Y-96928667D01*
X93173080Y-97270987D01*
X93378932Y-97579067D01*
X93640933Y-97841068D01*
X93949013Y-98046920D01*
X94291333Y-98188714D01*
X94654738Y-98261000D01*
X95025262Y-98261000D01*
X95388667Y-98188714D01*
X95730987Y-98046920D01*
X96039067Y-97841068D01*
X96301068Y-97579067D01*
X96434080Y-97380000D01*
X99907157Y-97380000D01*
X99907157Y-101080000D01*
X99914513Y-101154689D01*
X99936299Y-101226508D01*
X99971678Y-101292696D01*
X100019289Y-101350711D01*
X100077304Y-101398322D01*
X100143492Y-101433701D01*
X100215311Y-101455487D01*
X100290000Y-101462843D01*
X101611707Y-101462843D01*
X101614319Y-101489364D01*
X101644819Y-101589910D01*
X101694349Y-101682575D01*
X101761005Y-101763795D01*
X101781354Y-101780495D01*
X102775370Y-102774511D01*
X103785109Y-103784251D01*
X103801805Y-103804595D01*
X103883025Y-103871251D01*
X103975689Y-103920781D01*
X104076235Y-103951281D01*
X104154605Y-103959000D01*
X104154612Y-103959000D01*
X104180799Y-103961579D01*
X104206986Y-103959000D01*
X107098899Y-103959000D01*
X107172141Y-104032242D01*
X107300058Y-104117713D01*
X107442191Y-104176587D01*
X107593078Y-104206600D01*
X107746922Y-104206600D01*
X107897809Y-104176587D01*
X108039942Y-104117713D01*
X108167859Y-104032242D01*
X108276642Y-103923459D01*
X108362113Y-103795542D01*
X108420987Y-103653409D01*
X108451000Y-103502522D01*
X108451000Y-103348678D01*
X108420987Y-103197791D01*
X108362113Y-103055658D01*
X108276642Y-102927741D01*
X108167859Y-102818958D01*
X108039942Y-102733487D01*
X107897809Y-102674613D01*
X107746922Y-102644600D01*
X107593078Y-102644600D01*
X107442191Y-102674613D01*
X107300058Y-102733487D01*
X107172141Y-102818958D01*
X107098899Y-102892200D01*
X104401742Y-102892200D01*
X103489491Y-101979949D01*
X102972384Y-101462843D01*
X103990000Y-101462843D01*
X104064689Y-101455487D01*
X104136508Y-101433701D01*
X104202696Y-101398322D01*
X104260711Y-101350711D01*
X104308322Y-101292696D01*
X104343701Y-101226508D01*
X104365487Y-101154689D01*
X104372843Y-101080000D01*
X104372843Y-97380000D01*
X104365487Y-97305311D01*
X104343701Y-97233492D01*
X104308322Y-97167304D01*
X104260711Y-97109289D01*
X104202696Y-97061678D01*
X104136508Y-97026299D01*
X104064689Y-97004513D01*
X103990000Y-96997157D01*
X100290000Y-96997157D01*
X100215311Y-97004513D01*
X100143492Y-97026299D01*
X100077304Y-97061678D01*
X100019289Y-97109289D01*
X99971678Y-97167304D01*
X99936299Y-97233492D01*
X99914513Y-97305311D01*
X99907157Y-97380000D01*
X96434080Y-97380000D01*
X96506920Y-97270987D01*
X96648714Y-96928667D01*
X96721000Y-96565262D01*
X96721000Y-96194738D01*
X96648714Y-95831333D01*
X96506920Y-95489013D01*
X96301068Y-95180933D01*
X96039067Y-94918932D01*
X95730987Y-94713080D01*
X95388667Y-94571286D01*
X95025262Y-94499000D01*
X94654738Y-94499000D01*
X94291333Y-94571286D01*
X93949013Y-94713080D01*
X93640933Y-94918932D01*
X93378932Y-95180933D01*
X93173080Y-95489013D01*
X93031286Y-95831333D01*
X92959000Y-96194738D01*
X89196000Y-96194738D01*
X89196000Y-93310266D01*
X99909000Y-93310266D01*
X99909000Y-93749734D01*
X99994736Y-94180759D01*
X100162913Y-94586775D01*
X100407069Y-94952180D01*
X100717820Y-95262931D01*
X101083225Y-95507087D01*
X101489241Y-95675264D01*
X101920266Y-95761000D01*
X102359734Y-95761000D01*
X102790759Y-95675264D01*
X103196775Y-95507087D01*
X103562180Y-95262931D01*
X103872931Y-94952180D01*
X104117087Y-94586775D01*
X104285264Y-94180759D01*
X104371000Y-93749734D01*
X104371000Y-93310266D01*
X105409000Y-93310266D01*
X105409000Y-93749734D01*
X105494736Y-94180759D01*
X105662913Y-94586775D01*
X105907069Y-94952180D01*
X106217820Y-95262931D01*
X106583225Y-95507087D01*
X106989241Y-95675264D01*
X107420266Y-95761000D01*
X107859734Y-95761000D01*
X108290759Y-95675264D01*
X108696775Y-95507087D01*
X109062180Y-95262931D01*
X109372931Y-94952180D01*
X109617087Y-94586775D01*
X109785264Y-94180759D01*
X109871000Y-93749734D01*
X109871000Y-93310266D01*
X109785264Y-92879241D01*
X109617087Y-92473225D01*
X109372931Y-92107820D01*
X109062180Y-91797069D01*
X108696775Y-91552913D01*
X108290759Y-91384736D01*
X107859734Y-91299000D01*
X107420266Y-91299000D01*
X106989241Y-91384736D01*
X106583225Y-91552913D01*
X106217820Y-91797069D01*
X105907069Y-92107820D01*
X105662913Y-92473225D01*
X105494736Y-92879241D01*
X105409000Y-93310266D01*
X104371000Y-93310266D01*
X104285264Y-92879241D01*
X104117087Y-92473225D01*
X103872931Y-92107820D01*
X103562180Y-91797069D01*
X103196775Y-91552913D01*
X102790759Y-91384736D01*
X102359734Y-91299000D01*
X101920266Y-91299000D01*
X101489241Y-91384736D01*
X101083225Y-91552913D01*
X100717820Y-91797069D01*
X100407069Y-92107820D01*
X100162913Y-92473225D01*
X99994736Y-92879241D01*
X99909000Y-93310266D01*
X89196000Y-93310266D01*
X89196000Y-90114689D01*
X112036900Y-90114689D01*
X112036900Y-90504911D01*
X112113029Y-90887636D01*
X112262361Y-91248155D01*
X112479157Y-91572614D01*
X112755086Y-91848543D01*
X113079545Y-92065339D01*
X113440064Y-92214671D01*
X113822789Y-92290800D01*
X114213011Y-92290800D01*
X114595736Y-92214671D01*
X114956255Y-92065339D01*
X115280714Y-91848543D01*
X115556643Y-91572614D01*
X115773439Y-91248155D01*
X115922771Y-90887636D01*
X115998900Y-90504911D01*
X115998900Y-90114689D01*
X115922771Y-89731964D01*
X115823232Y-89491655D01*
X118335900Y-89491655D01*
X118335900Y-91127946D01*
X118352439Y-91295867D01*
X118417798Y-91511323D01*
X118523933Y-91709889D01*
X118666768Y-91883933D01*
X118840812Y-92026768D01*
X119039378Y-92132903D01*
X119254834Y-92198261D01*
X119478900Y-92220330D01*
X119702967Y-92198261D01*
X119918423Y-92132903D01*
X120116989Y-92026768D01*
X120291033Y-91883933D01*
X120433868Y-91709889D01*
X120540003Y-91511323D01*
X120605361Y-91295867D01*
X120621900Y-91127946D01*
X120621900Y-89491655D01*
X120875900Y-89491655D01*
X120875900Y-91127946D01*
X120892439Y-91295867D01*
X120957798Y-91511323D01*
X121063933Y-91709889D01*
X121206768Y-91883933D01*
X121380812Y-92026768D01*
X121579378Y-92132903D01*
X121794834Y-92198261D01*
X122018900Y-92220330D01*
X122242967Y-92198261D01*
X122458423Y-92132903D01*
X122656989Y-92026768D01*
X122831033Y-91883933D01*
X122973868Y-91709889D01*
X123080003Y-91511323D01*
X123145361Y-91295867D01*
X123161900Y-91127946D01*
X123161900Y-89491654D01*
X123145361Y-89323733D01*
X123080003Y-89108277D01*
X122973868Y-88909711D01*
X122831033Y-88735667D01*
X122656988Y-88592832D01*
X122458422Y-88486697D01*
X122242966Y-88421339D01*
X122018900Y-88399270D01*
X121794833Y-88421339D01*
X121579377Y-88486697D01*
X121380811Y-88592832D01*
X121206767Y-88735667D01*
X121063932Y-88909712D01*
X120957797Y-89108278D01*
X120892439Y-89323734D01*
X120875900Y-89491655D01*
X120621900Y-89491655D01*
X120621900Y-89491654D01*
X120605361Y-89323733D01*
X120540003Y-89108277D01*
X120433868Y-88909711D01*
X120291033Y-88735667D01*
X120116988Y-88592832D01*
X119918422Y-88486697D01*
X119702966Y-88421339D01*
X119478900Y-88399270D01*
X119254833Y-88421339D01*
X119039377Y-88486697D01*
X118840811Y-88592832D01*
X118666767Y-88735667D01*
X118523932Y-88909712D01*
X118417797Y-89108278D01*
X118352439Y-89323734D01*
X118335900Y-89491655D01*
X115823232Y-89491655D01*
X115773439Y-89371445D01*
X115556643Y-89046986D01*
X115280714Y-88771057D01*
X114956255Y-88554261D01*
X114595736Y-88404929D01*
X114213011Y-88328800D01*
X113822789Y-88328800D01*
X113440064Y-88404929D01*
X113079545Y-88554261D01*
X112755086Y-88771057D01*
X112479157Y-89046986D01*
X112262361Y-89371445D01*
X112113029Y-89731964D01*
X112036900Y-90114689D01*
X89196000Y-90114689D01*
X89196000Y-89511699D01*
X89218040Y-89286918D01*
X89280256Y-89080847D01*
X89381317Y-88890780D01*
X89517368Y-88723964D01*
X89683230Y-88586752D01*
X89872582Y-88484370D01*
X90078219Y-88420714D01*
X90313361Y-88396000D01*
X110592399Y-88396000D01*
X110611859Y-88394083D01*
X110612227Y-88394086D01*
X110618564Y-88393464D01*
X110624751Y-88392814D01*
X110659392Y-88389402D01*
X110660548Y-88389051D01*
X110921578Y-88361616D01*
X110962077Y-88353303D01*
X111002661Y-88345561D01*
X111008757Y-88343721D01*
X111299814Y-88253623D01*
X111337937Y-88237598D01*
X111376234Y-88222125D01*
X111381851Y-88219138D01*
X111381856Y-88219136D01*
X111381860Y-88219133D01*
X111649870Y-88074221D01*
X111684125Y-88051116D01*
X111718717Y-88028480D01*
X111723644Y-88024461D01*
X111723651Y-88024456D01*
X111723657Y-88024450D01*
X111958414Y-87830243D01*
X111987524Y-87800929D01*
X112017065Y-87772001D01*
X112021123Y-87767094D01*
X112213692Y-87530981D01*
X112236570Y-87496548D01*
X112259913Y-87462457D01*
X112262941Y-87456856D01*
X112405982Y-87187836D01*
X112421736Y-87149615D01*
X112438013Y-87111637D01*
X112439896Y-87105554D01*
X112524298Y-86826000D01*
X131366100Y-86826000D01*
X131366100Y-88736480D01*
G04 #@! TD*
M02*
