G04 #@! TF.GenerationSoftware,KiCad,Pcbnew,5.1.2-f72e74a~84~ubuntu19.04.1*
G04 #@! TF.CreationDate,2019-06-18T19:15:32+02:00*
G04 #@! TF.ProjectId,SLC_Free_PCB,534c435f-4672-4656-955f-5043422e6b69,rev?*
G04 #@! TF.SameCoordinates,Original*
G04 #@! TF.FileFunction,Soldermask,Top*
G04 #@! TF.FilePolarity,Negative*
%FSLAX46Y46*%
G04 Gerber Fmt 4.6, Leading zero omitted, Abs format (unit mm)*
G04 Created by KiCad (PCBNEW 5.1.2-f72e74a~84~ubuntu19.04.1) date 2019-06-18 19:15:32*
%MOMM*%
%LPD*%
G04 APERTURE LIST*
%ADD10O,2.000000X2.000000*%
%ADD11C,2.000000*%
%ADD12C,3.400000*%
%ADD13O,4.100000X3.100000*%
%ADD14R,4.100000X3.100000*%
%ADD15R,11.900000X8.400000*%
%ADD16O,1.778000X3.454400*%
%ADD17O,1.422400X2.743200*%
%ADD18O,1.625600X3.149600*%
%ADD19R,2.800000X2.800000*%
%ADD20O,2.800000X2.800000*%
%ADD21R,2.000000X2.000000*%
G04 APERTURE END LIST*
D10*
X152981500Y-122110000D03*
D11*
X152981500Y-114490000D03*
D12*
X95430000Y-96890000D03*
D13*
X108230000Y-94790000D03*
X108230000Y-98990000D03*
X102730000Y-94790000D03*
D14*
X102730000Y-98990000D03*
D12*
X95420000Y-108380000D03*
X95420000Y-116780000D03*
D13*
X108220000Y-108380000D03*
X108220000Y-112580000D03*
X108220000Y-116780000D03*
X102720000Y-108380000D03*
X102720000Y-112580000D03*
D14*
X102720000Y-116780000D03*
D10*
X182400000Y-94270000D03*
D11*
X172240000Y-94270000D03*
X141150000Y-96050000D03*
X141150000Y-98550000D03*
D10*
X147925000Y-93480000D03*
D11*
X147925000Y-101100000D03*
D10*
X144810000Y-101090000D03*
D11*
X144810000Y-93470000D03*
D10*
X168395000Y-90375000D03*
D11*
X160775000Y-90375000D03*
D10*
X156250000Y-93505000D03*
D11*
X156250000Y-101125000D03*
D10*
X162650000Y-93205000D03*
D11*
X162650000Y-100825000D03*
D10*
X124050000Y-118950000D03*
D11*
X124050000Y-111330000D03*
D10*
X131275000Y-114200000D03*
D11*
X131275000Y-121820000D03*
D10*
X128725000Y-121820000D03*
D11*
X128725000Y-114200000D03*
D10*
X133725000Y-121820000D03*
D11*
X133725000Y-114200000D03*
D10*
X137325000Y-114200000D03*
D11*
X137325000Y-121820000D03*
D10*
X140725000Y-121820000D03*
D11*
X140725000Y-114200000D03*
D10*
X138300300Y-101079400D03*
D11*
X138300300Y-93459400D03*
D10*
X129075000Y-102170000D03*
D11*
X129075000Y-94550000D03*
D10*
X126200000Y-94080000D03*
D11*
X126200000Y-101700000D03*
X126500000Y-104900000D03*
X129000000Y-104900000D03*
X144075000Y-119575000D03*
X144075000Y-117075000D03*
X150275000Y-117075000D03*
X150275000Y-119575000D03*
X188320000Y-115620000D03*
X185820000Y-115620000D03*
X182400000Y-102570000D03*
X184900000Y-102570000D03*
X159356900Y-98500000D03*
X159356900Y-96000000D03*
X153130000Y-93800000D03*
X153130000Y-96300000D03*
X133347300Y-97538000D03*
X133347300Y-100038000D03*
D15*
X117690000Y-97410000D03*
D16*
X115150000Y-115190000D03*
X117690000Y-115190000D03*
X120230000Y-115190000D03*
D15*
X174114300Y-100217200D03*
D16*
X171574300Y-115457200D03*
X174114300Y-115457200D03*
X176654300Y-115457200D03*
D17*
X133347300Y-103848000D03*
X135887300Y-103848000D03*
X138427300Y-103848000D03*
X140967300Y-103848000D03*
X143507300Y-103848000D03*
X146047300Y-103848000D03*
X148587300Y-103848000D03*
X151127300Y-103848000D03*
X153667300Y-103848000D03*
X156207300Y-103848000D03*
X158747300Y-103848000D03*
X161287300Y-103848000D03*
X163827300Y-103848000D03*
X166367300Y-103848000D03*
X166367300Y-111468000D03*
X163827300Y-111468000D03*
X161287300Y-111468000D03*
X158747300Y-111468000D03*
X156207300Y-111468000D03*
X153667300Y-111468000D03*
X143507300Y-111468000D03*
X146047300Y-111468000D03*
X140967300Y-111468000D03*
X138427300Y-111468000D03*
X151127300Y-111468000D03*
X148587300Y-111468000D03*
X135887300Y-111468000D03*
X133347300Y-111468000D03*
D18*
X183817100Y-120586600D03*
X181277100Y-120586600D03*
X178737100Y-120586600D03*
X176197100Y-120586600D03*
X173657100Y-120586600D03*
X157578900Y-90309800D03*
X155038900Y-90309800D03*
X152498900Y-90309800D03*
X149958900Y-90309800D03*
X147418900Y-90309800D03*
X144878900Y-90309800D03*
X142338900Y-90309800D03*
X139798900Y-90309800D03*
X137258900Y-90309800D03*
X134718900Y-90309800D03*
X132178900Y-90309800D03*
X129638900Y-90309800D03*
X127098900Y-90309800D03*
X124558900Y-90309800D03*
X122018900Y-90309800D03*
X119478900Y-90309800D03*
X169593100Y-120586600D03*
X167053100Y-120586600D03*
X164513100Y-120586600D03*
X161973100Y-120586600D03*
X159433100Y-120586600D03*
X156893100Y-120586600D03*
D19*
X183730000Y-90700000D03*
D20*
X173570000Y-90700000D03*
D19*
X182250000Y-105440000D03*
D20*
X182250000Y-115600000D03*
X189140000Y-106300000D03*
D19*
X189140000Y-96140000D03*
D21*
X184900000Y-98160000D03*
D11*
X182400000Y-98160000D03*
X187650000Y-109790000D03*
D21*
X187650000Y-112290000D03*
M02*
