M48
INCH,TZ
T1C0.0120
T2C0.0157
T3C0.0315
T4C0.0320
T5C0.0400
T6C0.0440
T7C0.0472
T8C0.0709
%
G90
G05
T1
X49106Y-38972
X49389Y-47075
X49669Y-43835
X49689Y-46515
X50220Y-36606
X50699Y-43885
X50789Y-39385
X51445Y-43220
X51469Y-38898
X51689Y-47395
X52035Y-37823
X53879Y-39385
X54280Y-46283
X54449Y-37815
X54499Y-42945
X54569Y-46835
X54849Y-47115
X55249Y-46093
X56659Y-38928
X57504Y-38307
X57992Y-44555
X58248Y-38461
X58587Y-37783
X59035Y-37098
X60229Y-47085
X60499Y-39134
X61099Y-46765
X61489Y-45925
X61997Y-43025
X62499Y-39695
X62499Y-45085
X62819Y-46205
X63099Y-46485
X63379Y-46205
X63769Y-45925
X64489Y-46455
X64780Y-45555
X65249Y-46255
X65959Y-38285
T2
X39417Y-40932
X39653Y-40696
X43894Y-46614
X47319Y-47189
X49059Y-37394
X49681Y-38610
X54138Y-38303
X55992Y-42421
X55992Y-47012
X58197Y-47260
X59579Y-42472
T3
X63297Y-35581
X66297Y-35581
X55404Y-44961
X55404Y-47961
X61516Y-36813
X61516Y-39813
X48839Y-43831
X48839Y-46831
X73157Y-45520
X74142Y-45520
X60229Y-45075
X60229Y-48075
X60287Y-36929
X60287Y-37913
X54065Y-44961
X54065Y-47961
X49685Y-37039
X49685Y-40039
X54449Y-36795
X54449Y-39795
X62739Y-37795
X62739Y-38780
X71811Y-38646
X72795Y-38646
X59163Y-46093
X59163Y-47077
X51683Y-44961
X51683Y-47961
X67811Y-37114
X71811Y-37114
X56722Y-46093
X56722Y-47077
X50817Y-37224
X50817Y-40224
X64035Y-36695
X64035Y-39695
X52499Y-38401
X52499Y-39385
X52648Y-44961
X52648Y-47961
X50679Y-44961
X50679Y-47961
X57012Y-36799
X57012Y-39799
X58238Y-36803
X58238Y-39803
X55571Y-37815
X55571Y-38799
X71811Y-40382
X72795Y-40382
X73878Y-43224
X73878Y-44209
X49803Y-41299
X50787Y-41299
T4
X52499Y-40885
X52499Y-43885
X53499Y-40885
X53499Y-43885
X54499Y-40885
X54499Y-43885
X55499Y-40885
X55499Y-43885
X56499Y-40885
X56499Y-43885
X57499Y-40885
X57499Y-43885
X58499Y-40885
X58499Y-43885
X59499Y-40885
X59499Y-43885
X60499Y-40885
X60499Y-43885
X61499Y-40885
X61499Y-43885
X62499Y-40885
X62499Y-43885
X63499Y-40885
X63499Y-43885
X64499Y-40885
X64499Y-43885
X65499Y-40885
X65499Y-43885
T5
X47039Y-35555
X48039Y-35555
X49039Y-35555
X50039Y-35555
X51039Y-35555
X52039Y-35555
X53039Y-35555
X54039Y-35555
X55039Y-35555
X56039Y-35555
X57039Y-35555
X58039Y-35555
X59039Y-35555
X60039Y-35555
X61039Y-35555
X62039Y-35555
X68369Y-47475
X69369Y-47475
X70369Y-47475
X71369Y-47475
X72369Y-47475
X61769Y-47475
X62769Y-47475
X63769Y-47475
X64769Y-47475
X65769Y-47475
X66769Y-47475
T6
X45335Y-45350
X46335Y-45350
X47335Y-45350
X67549Y-45456
X68549Y-45456
X69549Y-45456
T7
X74465Y-37850
X74465Y-41850
X71752Y-41512
X71752Y-45512
X68335Y-35709
X72335Y-35709
T8
X40441Y-42669
X40441Y-44323
X40441Y-45976
X42606Y-42669
X42606Y-44323
X42606Y-45976
X40445Y-37319
X40445Y-38972
X42610Y-37319
X42610Y-38972
T0
M30
