G04 #@! TF.GenerationSoftware,KiCad,Pcbnew,5.1.2-f72e74a~84~ubuntu19.04.1*
G04 #@! TF.CreationDate,2019-06-18T19:15:32+02:00*
G04 #@! TF.ProjectId,SLC_Free_PCB,534c435f-4672-4656-955f-5043422e6b69,rev?*
G04 #@! TF.SameCoordinates,Original*
G04 #@! TF.FileFunction,Copper,L2,Bot*
G04 #@! TF.FilePolarity,Positive*
%FSLAX46Y46*%
G04 Gerber Fmt 4.6, Leading zero omitted, Abs format (unit mm)*
G04 Created by KiCad (PCBNEW 5.1.2-f72e74a~84~ubuntu19.04.1) date 2019-06-18 19:15:32*
%MOMM*%
%LPD*%
G04 APERTURE LIST*
%ADD10O,1.600000X1.600000*%
%ADD11C,1.600000*%
%ADD12O,3.700000X2.700000*%
%ADD13R,3.700000X2.700000*%
%ADD14O,1.676400X3.352800*%
%ADD15O,1.320800X2.641600*%
%ADD16O,1.524000X3.048000*%
%ADD17R,2.400000X2.400000*%
%ADD18O,2.400000X2.400000*%
%ADD19R,1.600000X1.600000*%
%ADD20C,0.800000*%
%ADD21C,0.711200*%
%ADD22C,0.304800*%
%ADD23C,1.016000*%
%ADD24C,0.250000*%
%ADD25C,0.254000*%
G04 APERTURE END LIST*
D10*
X152981500Y-122110000D03*
D11*
X152981500Y-114490000D03*
D12*
X108230000Y-94790000D03*
X108230000Y-98990000D03*
X102730000Y-94790000D03*
D13*
X102730000Y-98990000D03*
D12*
X108220000Y-108380000D03*
X108220000Y-112580000D03*
X108220000Y-116780000D03*
X102720000Y-108380000D03*
X102720000Y-112580000D03*
D13*
X102720000Y-116780000D03*
D10*
X182400000Y-94270000D03*
D11*
X172240000Y-94270000D03*
X141150000Y-96050000D03*
X141150000Y-98550000D03*
D10*
X147925000Y-93480000D03*
D11*
X147925000Y-101100000D03*
D10*
X144810000Y-101090000D03*
D11*
X144810000Y-93470000D03*
D10*
X168395000Y-90375000D03*
D11*
X160775000Y-90375000D03*
D10*
X156250000Y-93505000D03*
D11*
X156250000Y-101125000D03*
D10*
X162650000Y-93205000D03*
D11*
X162650000Y-100825000D03*
D10*
X124050000Y-118950000D03*
D11*
X124050000Y-111330000D03*
D10*
X131275000Y-114200000D03*
D11*
X131275000Y-121820000D03*
D10*
X128725000Y-121820000D03*
D11*
X128725000Y-114200000D03*
D10*
X133725000Y-121820000D03*
D11*
X133725000Y-114200000D03*
D10*
X137325000Y-114200000D03*
D11*
X137325000Y-121820000D03*
D10*
X140725000Y-121820000D03*
D11*
X140725000Y-114200000D03*
D10*
X138300300Y-101079400D03*
D11*
X138300300Y-93459400D03*
D10*
X129075000Y-102170000D03*
D11*
X129075000Y-94550000D03*
D10*
X126200000Y-94080000D03*
D11*
X126200000Y-101700000D03*
X126500000Y-104900000D03*
X129000000Y-104900000D03*
X144075000Y-119575000D03*
X144075000Y-117075000D03*
X150275000Y-117075000D03*
X150275000Y-119575000D03*
X188320000Y-115620000D03*
X185820000Y-115620000D03*
X182400000Y-102570000D03*
X184900000Y-102570000D03*
X159356900Y-98500000D03*
X159356900Y-96000000D03*
X153130000Y-93800000D03*
X153130000Y-96300000D03*
X133347300Y-97538000D03*
X133347300Y-100038000D03*
D14*
X115150000Y-115190000D03*
X117690000Y-115190000D03*
X120230000Y-115190000D03*
X171574300Y-115457200D03*
X174114300Y-115457200D03*
X176654300Y-115457200D03*
D15*
X133347300Y-103848000D03*
X135887300Y-103848000D03*
X138427300Y-103848000D03*
X140967300Y-103848000D03*
X143507300Y-103848000D03*
X146047300Y-103848000D03*
X148587300Y-103848000D03*
X151127300Y-103848000D03*
X153667300Y-103848000D03*
X156207300Y-103848000D03*
X158747300Y-103848000D03*
X161287300Y-103848000D03*
X163827300Y-103848000D03*
X166367300Y-103848000D03*
X166367300Y-111468000D03*
X163827300Y-111468000D03*
X161287300Y-111468000D03*
X158747300Y-111468000D03*
X156207300Y-111468000D03*
X153667300Y-111468000D03*
X143507300Y-111468000D03*
X146047300Y-111468000D03*
X140967300Y-111468000D03*
X138427300Y-111468000D03*
X151127300Y-111468000D03*
X148587300Y-111468000D03*
X135887300Y-111468000D03*
X133347300Y-111468000D03*
D16*
X183817100Y-120586600D03*
X181277100Y-120586600D03*
X178737100Y-120586600D03*
X176197100Y-120586600D03*
X173657100Y-120586600D03*
X157578900Y-90309800D03*
X155038900Y-90309800D03*
X152498900Y-90309800D03*
X149958900Y-90309800D03*
X147418900Y-90309800D03*
X144878900Y-90309800D03*
X142338900Y-90309800D03*
X139798900Y-90309800D03*
X137258900Y-90309800D03*
X134718900Y-90309800D03*
X132178900Y-90309800D03*
X129638900Y-90309800D03*
X127098900Y-90309800D03*
X124558900Y-90309800D03*
X122018900Y-90309800D03*
X119478900Y-90309800D03*
X169593100Y-120586600D03*
X167053100Y-120586600D03*
X164513100Y-120586600D03*
X161973100Y-120586600D03*
X159433100Y-120586600D03*
X156893100Y-120586600D03*
D17*
X183730000Y-90700000D03*
D18*
X173570000Y-90700000D03*
D17*
X182250000Y-105440000D03*
D18*
X182250000Y-115600000D03*
X189140000Y-106300000D03*
D17*
X189140000Y-96140000D03*
D19*
X184900000Y-98160000D03*
D11*
X182400000Y-98160000D03*
X187650000Y-109790000D03*
D19*
X187650000Y-112290000D03*
D20*
X142220000Y-107750000D03*
X142220000Y-119410000D03*
X151330000Y-107880000D03*
X147820000Y-120040000D03*
X124610000Y-94980000D03*
X126190000Y-98070000D03*
D21*
X147950000Y-97690000D03*
X129003900Y-100038000D03*
X127560000Y-92980000D03*
X136852500Y-100038000D03*
X167535700Y-97244000D03*
X138427300Y-109080400D03*
X157473300Y-109283600D03*
X146060000Y-97300000D03*
D20*
X137510000Y-97290000D03*
D21*
X130731100Y-98800000D03*
X148810000Y-95970000D03*
X132170000Y-96070000D03*
X143913700Y-98877600D03*
X153667300Y-99400000D03*
X155191300Y-118783200D03*
X158747300Y-100825400D03*
X126159100Y-111341000D03*
X126209900Y-118148200D03*
X160271300Y-118072000D03*
X137870000Y-117560000D03*
X165732300Y-117487800D03*
X163801900Y-117995800D03*
X159560100Y-117360800D03*
X160982500Y-117360800D03*
X158747300Y-114516000D03*
X161973100Y-116649600D03*
X156181900Y-116649600D03*
X164540000Y-115710000D03*
X130670000Y-109780000D03*
X140332300Y-117075000D03*
X138605100Y-118961000D03*
D20*
X120190000Y-119860000D03*
D21*
X147300000Y-113169800D03*
X149950000Y-94230000D03*
X131289900Y-120383400D03*
X128775300Y-111468000D03*
X138300300Y-96050200D03*
X139316300Y-119672200D03*
D20*
X111490000Y-118400000D03*
D21*
X152981500Y-119596000D03*
X124730000Y-98990000D03*
X125447900Y-119570600D03*
D20*
X100118000Y-103968000D03*
X100718000Y-103368000D03*
D22*
X102710000Y-95510000D02*
X103210000Y-95510000D01*
X102730000Y-94790000D02*
X103230000Y-94790000D01*
D23*
X169593100Y-120586600D02*
X173657100Y-120586600D01*
D22*
X156604000Y-97244000D02*
X167535700Y-97244000D01*
X156600000Y-97240000D02*
X156604000Y-97244000D01*
X147950000Y-97690000D02*
X156150000Y-97690000D01*
X156150000Y-97690000D02*
X156600000Y-97240000D01*
X129003900Y-100038000D02*
X133347300Y-100038000D01*
X147925000Y-101100000D02*
X146475000Y-99650000D01*
X146475000Y-99650000D02*
X143250000Y-99650000D01*
X143250000Y-99650000D02*
X142580000Y-100320000D01*
X142580000Y-100320000D02*
X140180000Y-100320000D01*
X137208099Y-99682401D02*
X136852500Y-100038000D01*
X139542401Y-99682401D02*
X137208099Y-99682401D01*
X140180000Y-100320000D02*
X139542401Y-99682401D01*
X134478670Y-100038000D02*
X136852500Y-100038000D01*
X133347300Y-100038000D02*
X134478670Y-100038000D01*
D23*
X176654300Y-113957200D02*
X176730500Y-113881000D01*
X185800000Y-115600000D02*
X185820000Y-115620000D01*
D22*
X127204401Y-92624401D02*
X127560000Y-92980000D01*
X122504701Y-92624401D02*
X127204401Y-92624401D01*
X122018900Y-90309800D02*
X122018900Y-92138600D01*
X122018900Y-92138600D02*
X122504701Y-92624401D01*
X138427300Y-109080400D02*
X138630500Y-109283600D01*
X138630500Y-109283600D02*
X157223300Y-109283600D01*
X145427106Y-97300000D02*
X137449885Y-97300000D01*
X145427106Y-97300000D02*
X146060000Y-97300000D01*
X138989099Y-95324810D02*
X137215190Y-95324810D01*
X139179099Y-95324809D02*
X138989099Y-95324810D01*
X139879098Y-94624810D02*
X139179099Y-95324809D01*
X143200000Y-94740000D02*
X143084810Y-94624810D01*
X136470000Y-96070000D02*
X132170000Y-96070000D01*
X137215190Y-95324810D02*
X136470000Y-96070000D01*
X143084810Y-94624810D02*
X139879098Y-94624810D01*
X148810000Y-95970000D02*
X148379010Y-95539010D01*
X148379010Y-95539010D02*
X143979010Y-95539010D01*
X143979010Y-95539010D02*
X143200000Y-94760000D01*
X143200000Y-94760000D02*
X143200000Y-94740000D01*
X153144900Y-98877600D02*
X143913700Y-98877600D01*
X153667300Y-99400000D02*
X153144900Y-98877600D01*
X178737100Y-120586600D02*
X178737100Y-118707000D01*
X178737100Y-118707000D02*
X160601500Y-118707000D01*
X160601500Y-118707000D02*
X160525300Y-118783200D01*
X160525300Y-118783200D02*
X159966500Y-118783200D01*
X159966500Y-118783200D02*
X159763300Y-118580000D01*
X159763300Y-118580000D02*
X155394500Y-118580000D01*
X155394500Y-118580000D02*
X155191300Y-118783200D01*
X158747300Y-100825400D02*
X162582700Y-100825400D01*
X124025500Y-111341000D02*
X126159100Y-111341000D01*
X152100000Y-118300000D02*
X152328000Y-118072000D01*
X140509458Y-118300000D02*
X152100000Y-118300000D01*
X152328000Y-118072000D02*
X160271300Y-118072000D01*
X139773458Y-117564000D02*
X140509458Y-118300000D01*
X137870000Y-117560000D02*
X137514401Y-117915599D01*
X138376894Y-117564000D02*
X139773458Y-117564000D01*
X138372894Y-117560000D02*
X138376894Y-117564000D01*
X137870000Y-117560000D02*
X138372894Y-117560000D01*
X137281800Y-118148200D02*
X137870000Y-117560000D01*
X126209900Y-118148200D02*
X137281800Y-118148200D01*
X183817100Y-120586600D02*
X183817100Y-117691000D01*
X183817100Y-117691000D02*
X165935500Y-117691000D01*
X165935500Y-117691000D02*
X165732300Y-117487800D01*
X181277100Y-120586600D02*
X181277100Y-118199000D01*
X163801900Y-117995800D02*
X164005100Y-118199000D01*
X164005100Y-118199000D02*
X181277100Y-118199000D01*
X159560100Y-117360800D02*
X160982500Y-117360800D01*
X158747300Y-114516000D02*
X152981500Y-114516000D01*
X161973100Y-116649600D02*
X156181900Y-116649600D01*
X143507300Y-113093600D02*
X146113700Y-115700000D01*
X146113700Y-115700000D02*
X147000000Y-115700000D01*
X143507300Y-111468000D02*
X143507300Y-113093600D01*
X164500000Y-115700000D02*
X147000000Y-115700000D01*
X131172894Y-109780000D02*
X130670000Y-109780000D01*
X131184494Y-109791600D02*
X131172894Y-109780000D01*
X145031300Y-109791600D02*
X131184494Y-109791600D01*
X146047300Y-110807600D02*
X145031300Y-109791600D01*
X146047300Y-111468000D02*
X146047300Y-110807600D01*
X140332300Y-117075000D02*
X144075000Y-117075000D01*
D24*
X138456370Y-114200000D02*
X140725000Y-114200000D01*
X137325000Y-114200000D02*
X138456370Y-114200000D01*
D22*
X140967300Y-113957700D02*
X140725000Y-114200000D01*
X140967300Y-111468000D02*
X140967300Y-113957700D01*
X140332300Y-114592700D02*
X140725000Y-114200000D01*
X140332300Y-117075000D02*
X140332300Y-114592700D01*
X120190000Y-119860000D02*
X120755685Y-119860000D01*
X120755685Y-119860000D02*
X121177485Y-120281800D01*
X138401900Y-119164200D02*
X138605100Y-118961000D01*
X127560292Y-119164200D02*
X138401900Y-119164200D01*
X121177485Y-120281800D02*
X126442109Y-120281800D01*
X126442109Y-120281800D02*
X127560000Y-119163908D01*
X127560000Y-119163908D02*
X127560292Y-119164200D01*
X151127300Y-112128400D02*
X151127300Y-111468000D01*
X149730301Y-113525399D02*
X151127300Y-112128400D01*
X147655599Y-113525399D02*
X149730301Y-113525399D01*
X147300000Y-113169800D02*
X147655599Y-113525399D01*
X149950000Y-93727106D02*
X149950000Y-94230000D01*
X149950000Y-93620700D02*
X149950000Y-93727106D01*
X152498900Y-91071800D02*
X149950000Y-93620700D01*
X152498900Y-90309800D02*
X152498900Y-91071800D01*
X133702900Y-114185800D02*
X131264500Y-114185800D01*
X135887300Y-112001400D02*
X135887300Y-111468000D01*
X133702900Y-114185800D02*
X135887300Y-112001400D01*
X118730000Y-121297800D02*
X118890000Y-121297800D01*
X130787006Y-120383400D02*
X131289900Y-120383400D01*
X127768327Y-120383400D02*
X130787006Y-120383400D01*
X126853927Y-121297800D02*
X127768327Y-120383400D01*
X118890000Y-121297800D02*
X126853927Y-121297800D01*
X117139391Y-119926200D02*
X118510991Y-121297800D01*
X115338700Y-118148200D02*
X117116700Y-119926200D01*
X105440000Y-113890000D02*
X106190000Y-114640000D01*
X118510991Y-121297800D02*
X118890000Y-121297800D01*
X117116700Y-119926200D02*
X117139391Y-119926200D01*
X106190000Y-114640000D02*
X110666092Y-114640000D01*
X114174292Y-118148200D02*
X115338700Y-118148200D01*
X110666092Y-114640000D02*
X114174292Y-118148200D01*
X102720000Y-108380000D02*
X103280000Y-108380000D01*
X103280000Y-108380000D02*
X105440000Y-110540000D01*
X105440000Y-110540000D02*
X105440000Y-110780000D01*
X105440000Y-110780000D02*
X105440000Y-113890000D01*
X128775300Y-111468000D02*
X133347300Y-111468000D01*
X118361300Y-118961000D02*
X124025500Y-118961000D01*
X115150000Y-115190000D02*
X115150000Y-115749700D01*
X115150000Y-115749700D02*
X118361300Y-118961000D01*
X138300300Y-96050200D02*
X141145100Y-96050200D01*
X147926900Y-93459400D02*
X144777300Y-93459400D01*
X144777000Y-93459400D02*
X138300000Y-93459400D01*
X131360000Y-119672200D02*
X139316300Y-119672200D01*
X131356810Y-119669010D02*
X131360000Y-119672200D01*
X127768808Y-119669010D02*
X131356810Y-119669010D01*
X126648018Y-120789800D02*
X127768808Y-119669010D01*
X109320000Y-112580000D02*
X114320000Y-117580000D01*
X118739592Y-120789800D02*
X126648018Y-120789800D01*
X117624700Y-119697600D02*
X117647392Y-119697600D01*
X114320000Y-117580000D02*
X115507100Y-117580000D01*
X108220000Y-112580000D02*
X109320000Y-112580000D01*
X115507100Y-117580000D02*
X117624700Y-119697600D01*
X117647392Y-119697600D02*
X118739592Y-120789800D01*
X115110100Y-118656200D02*
X118259700Y-121805800D01*
X118259700Y-121805800D02*
X118570000Y-121805800D01*
X118570000Y-121805800D02*
X128775300Y-121805800D01*
X131264500Y-121805800D02*
X128775300Y-121805800D01*
X113410000Y-118656200D02*
X115110100Y-118656200D01*
X112311885Y-118656200D02*
X115110100Y-118656200D01*
X112055685Y-118400000D02*
X112311885Y-118656200D01*
X111490000Y-118400000D02*
X112055685Y-118400000D01*
X155038900Y-90309800D02*
X155038900Y-90568900D01*
X128605000Y-94080000D02*
X129075000Y-94550000D01*
X126200000Y-94080000D02*
X128605000Y-94080000D01*
X152981500Y-119596000D02*
X150238300Y-119596000D01*
X147830000Y-122020000D02*
X148550000Y-121300000D01*
X148550000Y-121300000D02*
X150275000Y-119575000D01*
X143220000Y-122020000D02*
X147830000Y-122020000D01*
X139452999Y-118252999D02*
X143220000Y-122020000D01*
X125803499Y-119215001D02*
X126794999Y-119215001D01*
X125447900Y-119570600D02*
X125803499Y-119215001D01*
X126794999Y-119215001D02*
X127353800Y-118656200D01*
X137893900Y-118656200D02*
X138297101Y-118252999D01*
X127353800Y-118656200D02*
X137893900Y-118656200D01*
X138297101Y-118252999D02*
X139452999Y-118252999D01*
X108230000Y-98990000D02*
X123860000Y-98990000D01*
X123860000Y-98990000D02*
X124730000Y-98990000D01*
X158417100Y-95034200D02*
X159356900Y-95974000D01*
X144910000Y-95034200D02*
X144214200Y-95034200D01*
X144910000Y-95034200D02*
X158417100Y-95034200D01*
X144214200Y-95034200D02*
X143300000Y-94120000D01*
X143300000Y-94120000D02*
X139670000Y-94120000D01*
X139040000Y-94750000D02*
X138970000Y-94820000D01*
X138970000Y-94820000D02*
X139220000Y-94570000D01*
X139670000Y-94120000D02*
X139220000Y-94570000D01*
X139220000Y-94570000D02*
X139040000Y-94750000D01*
X131110000Y-94820000D02*
X138780000Y-94820000D01*
X138780000Y-94820000D02*
X138970000Y-94820000D01*
X129770000Y-96160000D02*
X131110000Y-94820000D01*
X110100000Y-96160000D02*
X129770000Y-96160000D01*
X108730000Y-94790000D02*
X110100000Y-96160000D01*
X108230000Y-94790000D02*
X108730000Y-94790000D01*
X102140000Y-99230000D02*
X102720000Y-99230000D01*
D23*
X102220000Y-116780000D02*
X99280000Y-113840000D01*
X102720000Y-116780000D02*
X102220000Y-116780000D01*
X99280000Y-113840000D02*
X99280000Y-106830000D01*
X99280000Y-104806000D02*
X100118000Y-103968000D01*
D22*
X171207410Y-88337410D02*
X173570000Y-90700000D01*
X103230000Y-98990000D02*
X105400000Y-96820000D01*
X105400000Y-96820000D02*
X105400000Y-93830000D01*
X102730000Y-98990000D02*
X103230000Y-98990000D01*
X105400000Y-93830000D02*
X106730000Y-92500000D01*
X108780000Y-92500000D02*
X108580000Y-92500000D01*
X106730000Y-92500000D02*
X108580000Y-92500000D01*
X108580000Y-92500000D02*
X108742130Y-92500000D01*
D23*
X99280000Y-105910000D02*
X99280000Y-104806000D01*
X99280000Y-106830000D02*
X99280000Y-105910000D01*
X100118000Y-103968000D02*
X100718000Y-103368000D01*
D22*
X114717254Y-92500000D02*
X108580000Y-92500000D01*
X157944523Y-88337410D02*
X171207410Y-88337410D01*
X118842755Y-88337246D02*
X157944450Y-88337337D01*
X157944450Y-88337337D02*
X157944523Y-88337410D01*
X118842755Y-88374499D02*
X114717254Y-92500000D01*
X118842755Y-88337246D02*
X118842755Y-88374499D01*
D25*
G36*
X187476939Y-88619994D02*
G01*
X187211862Y-88885071D01*
X186967269Y-89251131D01*
X186798790Y-89657875D01*
X186712900Y-90089672D01*
X186712900Y-90529928D01*
X186798790Y-90961725D01*
X186967269Y-91368469D01*
X187211862Y-91734529D01*
X187523171Y-92045838D01*
X187889231Y-92290431D01*
X188295975Y-92458910D01*
X188727772Y-92544800D01*
X189168028Y-92544800D01*
X189599825Y-92458910D01*
X190006569Y-92290431D01*
X190372629Y-92045838D01*
X190683938Y-91734529D01*
X190730480Y-91664873D01*
X190729630Y-94438298D01*
X190694494Y-94409463D01*
X190584180Y-94350498D01*
X190464482Y-94314188D01*
X190340000Y-94301928D01*
X187940000Y-94301928D01*
X187815518Y-94314188D01*
X187695820Y-94350498D01*
X187585506Y-94409463D01*
X187488815Y-94488815D01*
X187409463Y-94585506D01*
X187350498Y-94695820D01*
X187314188Y-94815518D01*
X187301928Y-94940000D01*
X187301928Y-97340000D01*
X187314188Y-97464482D01*
X187350498Y-97584180D01*
X187409463Y-97694494D01*
X187488815Y-97791185D01*
X187585506Y-97870537D01*
X187695820Y-97929502D01*
X187815518Y-97965812D01*
X187940000Y-97978072D01*
X190340000Y-97978072D01*
X190464482Y-97965812D01*
X190584180Y-97929502D01*
X190694494Y-97870537D01*
X190728585Y-97842559D01*
X190726269Y-105395200D01*
X190634489Y-105235226D01*
X190398046Y-104964125D01*
X190113257Y-104744361D01*
X189791066Y-104584379D01*
X189551805Y-104511805D01*
X189267000Y-104628568D01*
X189267000Y-106173000D01*
X189287000Y-106173000D01*
X189287000Y-106427000D01*
X189267000Y-106427000D01*
X189267000Y-107971432D01*
X189551805Y-108088195D01*
X189791066Y-108015621D01*
X190113257Y-107855639D01*
X190398046Y-107635875D01*
X190634489Y-107364774D01*
X190725713Y-107205768D01*
X190721834Y-119853586D01*
X190683938Y-119796871D01*
X190372629Y-119485562D01*
X190006569Y-119240969D01*
X189599825Y-119072490D01*
X189168028Y-118986600D01*
X188727772Y-118986600D01*
X188295975Y-119072490D01*
X187889231Y-119240969D01*
X187523171Y-119485562D01*
X187211862Y-119796871D01*
X186967269Y-120162931D01*
X186798790Y-120569675D01*
X186712900Y-121001472D01*
X186712900Y-121441728D01*
X186798790Y-121873525D01*
X186967269Y-122280269D01*
X187211862Y-122646329D01*
X187486650Y-122921117D01*
X154172628Y-122920610D01*
X154180432Y-122911101D01*
X154313682Y-122661808D01*
X154395736Y-122391309D01*
X154423443Y-122110000D01*
X154395736Y-121828691D01*
X154313682Y-121558192D01*
X154180432Y-121308899D01*
X154001108Y-121090392D01*
X153782601Y-120911068D01*
X153533308Y-120777818D01*
X153262809Y-120695764D01*
X153051992Y-120675000D01*
X152911008Y-120675000D01*
X152700191Y-120695764D01*
X152429692Y-120777818D01*
X152180399Y-120911068D01*
X151961892Y-121090392D01*
X151782568Y-121308899D01*
X151649318Y-121558192D01*
X151567264Y-121828691D01*
X151539557Y-122110000D01*
X151567264Y-122391309D01*
X151649318Y-122661808D01*
X151782568Y-122911101D01*
X151790342Y-122920574D01*
X141638633Y-122920419D01*
X141688414Y-122883519D01*
X141877385Y-122675131D01*
X142022070Y-122433881D01*
X142116909Y-122169040D01*
X141995625Y-121947002D01*
X142033451Y-121947002D01*
X142635877Y-122549428D01*
X142660531Y-122579469D01*
X142690570Y-122604121D01*
X142780427Y-122677866D01*
X142886866Y-122734759D01*
X142917217Y-122750982D01*
X143065643Y-122796006D01*
X143181327Y-122807400D01*
X143181337Y-122807400D01*
X143220000Y-122811208D01*
X143258663Y-122807400D01*
X147791337Y-122807400D01*
X147830000Y-122811208D01*
X147868663Y-122807400D01*
X147868673Y-122807400D01*
X147984357Y-122796006D01*
X148132783Y-122750982D01*
X148269572Y-122677866D01*
X148389469Y-122579469D01*
X148414127Y-122549423D01*
X149134121Y-121829430D01*
X149134125Y-121829425D01*
X149983434Y-120980117D01*
X150133665Y-121010000D01*
X150416335Y-121010000D01*
X150693574Y-120954853D01*
X150954727Y-120846680D01*
X151189759Y-120689637D01*
X151389637Y-120489759D01*
X151460704Y-120383400D01*
X152376895Y-120383400D01*
X152512275Y-120473858D01*
X152692553Y-120548532D01*
X152883934Y-120586600D01*
X153079066Y-120586600D01*
X153270447Y-120548532D01*
X153450725Y-120473858D01*
X153612971Y-120365449D01*
X153750949Y-120227471D01*
X153859358Y-120065225D01*
X153934032Y-119884947D01*
X153972100Y-119693566D01*
X153972100Y-119498434D01*
X153934032Y-119307053D01*
X153859358Y-119126775D01*
X153750949Y-118964529D01*
X153645820Y-118859400D01*
X154200700Y-118859400D01*
X154200700Y-118880766D01*
X154238768Y-119072147D01*
X154313442Y-119252425D01*
X154421851Y-119414671D01*
X154559829Y-119552649D01*
X154722075Y-119661058D01*
X154902353Y-119735732D01*
X155093734Y-119773800D01*
X155288866Y-119773800D01*
X155480247Y-119735732D01*
X155498853Y-119728025D01*
X155496100Y-119755976D01*
X155496100Y-121417225D01*
X155516314Y-121622460D01*
X155596197Y-121885795D01*
X155725918Y-122128487D01*
X155900493Y-122341208D01*
X156113214Y-122515783D01*
X156355906Y-122645504D01*
X156619241Y-122725386D01*
X156893100Y-122752359D01*
X157166960Y-122725386D01*
X157430295Y-122645504D01*
X157672987Y-122515783D01*
X157885708Y-122341208D01*
X158060283Y-122128487D01*
X158163101Y-121936128D01*
X158265918Y-122128487D01*
X158440493Y-122341208D01*
X158653214Y-122515783D01*
X158895906Y-122645504D01*
X159159241Y-122725386D01*
X159433100Y-122752359D01*
X159706960Y-122725386D01*
X159970295Y-122645504D01*
X160212987Y-122515783D01*
X160425708Y-122341208D01*
X160600283Y-122128487D01*
X160703101Y-121936128D01*
X160805918Y-122128487D01*
X160980493Y-122341208D01*
X161193214Y-122515783D01*
X161435906Y-122645504D01*
X161699241Y-122725386D01*
X161973100Y-122752359D01*
X162246960Y-122725386D01*
X162510295Y-122645504D01*
X162752987Y-122515783D01*
X162965708Y-122341208D01*
X163140283Y-122128487D01*
X163243101Y-121936128D01*
X163345918Y-122128487D01*
X163520493Y-122341208D01*
X163733214Y-122515783D01*
X163975906Y-122645504D01*
X164239241Y-122725386D01*
X164513100Y-122752359D01*
X164786960Y-122725386D01*
X165050295Y-122645504D01*
X165292987Y-122515783D01*
X165505708Y-122341208D01*
X165680283Y-122128487D01*
X165784138Y-121934187D01*
X165811041Y-122000542D01*
X165962094Y-122230329D01*
X166155074Y-122426232D01*
X166382565Y-122580722D01*
X166635824Y-122687862D01*
X166710030Y-122702820D01*
X166926100Y-122580320D01*
X166926100Y-120713600D01*
X166906100Y-120713600D01*
X166906100Y-120459600D01*
X166926100Y-120459600D01*
X166926100Y-120439600D01*
X167180100Y-120439600D01*
X167180100Y-120459600D01*
X167200100Y-120459600D01*
X167200100Y-120713600D01*
X167180100Y-120713600D01*
X167180100Y-122580320D01*
X167396170Y-122702820D01*
X167470376Y-122687862D01*
X167723635Y-122580722D01*
X167951126Y-122426232D01*
X168144106Y-122230329D01*
X168295159Y-122000542D01*
X168322062Y-121934186D01*
X168425918Y-122128487D01*
X168600493Y-122341208D01*
X168813214Y-122515783D01*
X169055906Y-122645504D01*
X169319241Y-122725386D01*
X169593100Y-122752359D01*
X169866960Y-122725386D01*
X170130295Y-122645504D01*
X170372987Y-122515783D01*
X170585708Y-122341208D01*
X170760283Y-122128487D01*
X170890004Y-121885795D01*
X170937385Y-121729600D01*
X172312815Y-121729600D01*
X172360197Y-121885795D01*
X172489918Y-122128487D01*
X172664493Y-122341208D01*
X172877214Y-122515783D01*
X173119906Y-122645504D01*
X173383241Y-122725386D01*
X173657100Y-122752359D01*
X173930960Y-122725386D01*
X174194295Y-122645504D01*
X174436987Y-122515783D01*
X174649708Y-122341208D01*
X174824283Y-122128487D01*
X174928138Y-121934187D01*
X174955041Y-122000542D01*
X175106094Y-122230329D01*
X175299074Y-122426232D01*
X175526565Y-122580722D01*
X175779824Y-122687862D01*
X175854030Y-122702820D01*
X176070100Y-122580320D01*
X176070100Y-120713600D01*
X176050100Y-120713600D01*
X176050100Y-120459600D01*
X176070100Y-120459600D01*
X176070100Y-120439600D01*
X176324100Y-120439600D01*
X176324100Y-120459600D01*
X176344100Y-120459600D01*
X176344100Y-120713600D01*
X176324100Y-120713600D01*
X176324100Y-122580320D01*
X176540170Y-122702820D01*
X176614376Y-122687862D01*
X176867635Y-122580722D01*
X177095126Y-122426232D01*
X177288106Y-122230329D01*
X177439159Y-122000542D01*
X177466062Y-121934186D01*
X177569918Y-122128487D01*
X177744493Y-122341208D01*
X177957214Y-122515783D01*
X178199906Y-122645504D01*
X178463241Y-122725386D01*
X178737100Y-122752359D01*
X179010960Y-122725386D01*
X179274295Y-122645504D01*
X179516987Y-122515783D01*
X179729708Y-122341208D01*
X179904283Y-122128487D01*
X180007101Y-121936128D01*
X180109918Y-122128487D01*
X180284493Y-122341208D01*
X180497214Y-122515783D01*
X180739906Y-122645504D01*
X181003241Y-122725386D01*
X181277100Y-122752359D01*
X181550960Y-122725386D01*
X181814295Y-122645504D01*
X182056987Y-122515783D01*
X182269708Y-122341208D01*
X182444283Y-122128487D01*
X182547101Y-121936128D01*
X182649918Y-122128487D01*
X182824493Y-122341208D01*
X183037214Y-122515783D01*
X183279906Y-122645504D01*
X183543241Y-122725386D01*
X183817100Y-122752359D01*
X184090960Y-122725386D01*
X184354295Y-122645504D01*
X184596987Y-122515783D01*
X184809708Y-122341208D01*
X184984283Y-122128487D01*
X185114004Y-121885795D01*
X185193886Y-121622460D01*
X185214100Y-121417225D01*
X185214100Y-119755975D01*
X185193886Y-119550740D01*
X185114004Y-119287405D01*
X184984283Y-119044713D01*
X184809707Y-118831992D01*
X184604500Y-118663584D01*
X184604500Y-117729673D01*
X184608309Y-117691000D01*
X184593106Y-117536643D01*
X184548082Y-117388217D01*
X184474966Y-117251428D01*
X184376569Y-117131531D01*
X184256672Y-117033134D01*
X184119883Y-116960018D01*
X183971457Y-116914994D01*
X183855773Y-116903600D01*
X183817100Y-116899791D01*
X183778427Y-116903600D01*
X183553999Y-116903600D01*
X183783129Y-116624404D01*
X183953521Y-116305622D01*
X184058448Y-115959723D01*
X184093878Y-115600000D01*
X184081928Y-115478665D01*
X184385000Y-115478665D01*
X184385000Y-115761335D01*
X184440147Y-116038574D01*
X184548320Y-116299727D01*
X184705363Y-116534759D01*
X184905241Y-116734637D01*
X185140273Y-116891680D01*
X185401426Y-116999853D01*
X185678665Y-117055000D01*
X185961335Y-117055000D01*
X186238574Y-116999853D01*
X186499727Y-116891680D01*
X186734759Y-116734637D01*
X186856694Y-116612702D01*
X187506903Y-116612702D01*
X187578486Y-116856671D01*
X187833996Y-116977571D01*
X188108184Y-117046300D01*
X188390512Y-117060217D01*
X188670130Y-117018787D01*
X188936292Y-116923603D01*
X189061514Y-116856671D01*
X189133097Y-116612702D01*
X188320000Y-115799605D01*
X187506903Y-116612702D01*
X186856694Y-116612702D01*
X186934637Y-116534759D01*
X187068692Y-116334131D01*
X187083329Y-116361514D01*
X187327298Y-116433097D01*
X188140395Y-115620000D01*
X188499605Y-115620000D01*
X189312702Y-116433097D01*
X189556671Y-116361514D01*
X189677571Y-116106004D01*
X189746300Y-115831816D01*
X189760217Y-115549488D01*
X189718787Y-115269870D01*
X189623603Y-115003708D01*
X189556671Y-114878486D01*
X189312702Y-114806903D01*
X188499605Y-115620000D01*
X188140395Y-115620000D01*
X187327298Y-114806903D01*
X187083329Y-114878486D01*
X187069676Y-114907341D01*
X186934637Y-114705241D01*
X186856694Y-114627298D01*
X187506903Y-114627298D01*
X188320000Y-115440395D01*
X189133097Y-114627298D01*
X189061514Y-114383329D01*
X188806004Y-114262429D01*
X188531816Y-114193700D01*
X188249488Y-114179783D01*
X187969870Y-114221213D01*
X187703708Y-114316397D01*
X187578486Y-114383329D01*
X187506903Y-114627298D01*
X186856694Y-114627298D01*
X186734759Y-114505363D01*
X186499727Y-114348320D01*
X186238574Y-114240147D01*
X185961335Y-114185000D01*
X185678665Y-114185000D01*
X185401426Y-114240147D01*
X185140273Y-114348320D01*
X184905241Y-114505363D01*
X184705363Y-114705241D01*
X184548320Y-114940273D01*
X184440147Y-115201426D01*
X184385000Y-115478665D01*
X184081928Y-115478665D01*
X184058448Y-115240277D01*
X183953521Y-114894378D01*
X183783129Y-114575596D01*
X183553819Y-114296181D01*
X183274404Y-114066871D01*
X182955622Y-113896479D01*
X182609723Y-113791552D01*
X182340139Y-113765000D01*
X182159861Y-113765000D01*
X181890277Y-113791552D01*
X181544378Y-113896479D01*
X181225596Y-114066871D01*
X180946181Y-114296181D01*
X180716871Y-114575596D01*
X180546479Y-114894378D01*
X180441552Y-115240277D01*
X180406122Y-115600000D01*
X180441552Y-115959723D01*
X180546479Y-116305622D01*
X180716871Y-116624404D01*
X180946001Y-116903600D01*
X177999654Y-116903600D01*
X178021945Y-116861897D01*
X178106184Y-116584198D01*
X178127500Y-116367772D01*
X178127500Y-114546628D01*
X178106184Y-114330202D01*
X178021945Y-114052503D01*
X177885148Y-113796574D01*
X177868746Y-113776588D01*
X177856961Y-113656933D01*
X177791602Y-113441477D01*
X177685467Y-113242912D01*
X177542633Y-113068867D01*
X177368588Y-112926033D01*
X177170023Y-112819898D01*
X176954567Y-112754539D01*
X176730499Y-112732471D01*
X176506433Y-112754539D01*
X176290977Y-112819898D01*
X176092412Y-112926033D01*
X175961979Y-113033076D01*
X175806376Y-113188679D01*
X175699333Y-113319112D01*
X175593198Y-113517677D01*
X175558519Y-113631995D01*
X175423452Y-113796575D01*
X175383471Y-113871374D01*
X175268663Y-113694937D01*
X175066206Y-113487488D01*
X174827168Y-113323522D01*
X174560735Y-113209341D01*
X174469338Y-113189221D01*
X174241300Y-113310700D01*
X174241300Y-115330200D01*
X174261300Y-115330200D01*
X174261300Y-115584200D01*
X174241300Y-115584200D01*
X174241300Y-115604200D01*
X173987300Y-115604200D01*
X173987300Y-115584200D01*
X173967300Y-115584200D01*
X173967300Y-115330200D01*
X173987300Y-115330200D01*
X173987300Y-113310700D01*
X173759262Y-113189221D01*
X173667865Y-113209341D01*
X173401432Y-113323522D01*
X173162394Y-113487488D01*
X172959937Y-113694937D01*
X172845129Y-113871374D01*
X172805148Y-113796574D01*
X172621049Y-113572250D01*
X172396725Y-113388152D01*
X172140796Y-113251355D01*
X171863097Y-113167116D01*
X171574300Y-113138672D01*
X171285502Y-113167116D01*
X171007803Y-113251355D01*
X170751874Y-113388152D01*
X170527550Y-113572251D01*
X170343452Y-113796575D01*
X170206655Y-114052504D01*
X170122416Y-114330203D01*
X170101100Y-114546629D01*
X170101100Y-116367772D01*
X170122417Y-116584198D01*
X170206656Y-116861897D01*
X170228947Y-116903600D01*
X166533334Y-116903600D01*
X166501749Y-116856329D01*
X166363771Y-116718351D01*
X166201525Y-116609942D01*
X166021247Y-116535268D01*
X165829866Y-116497200D01*
X165634734Y-116497200D01*
X165443353Y-116535268D01*
X165263075Y-116609942D01*
X165100829Y-116718351D01*
X164962851Y-116856329D01*
X164854442Y-117018575D01*
X164779768Y-117198853D01*
X164741700Y-117390234D01*
X164741700Y-117411600D01*
X164602934Y-117411600D01*
X164571349Y-117364329D01*
X164433371Y-117226351D01*
X164271125Y-117117942D01*
X164090847Y-117043268D01*
X163899466Y-117005200D01*
X163704334Y-117005200D01*
X163512953Y-117043268D01*
X163332675Y-117117942D01*
X163170429Y-117226351D01*
X163032451Y-117364329D01*
X162924042Y-117526575D01*
X162849368Y-117706853D01*
X162811300Y-117898234D01*
X162811300Y-117919600D01*
X161800506Y-117919600D01*
X161860358Y-117830025D01*
X161935032Y-117649747D01*
X161936931Y-117640200D01*
X162070666Y-117640200D01*
X162262047Y-117602132D01*
X162442325Y-117527458D01*
X162604571Y-117419049D01*
X162742549Y-117281071D01*
X162850958Y-117118825D01*
X162925632Y-116938547D01*
X162963700Y-116747166D01*
X162963700Y-116552034D01*
X162950844Y-116487400D01*
X163920429Y-116487400D01*
X164070775Y-116587858D01*
X164251053Y-116662532D01*
X164442434Y-116700600D01*
X164637566Y-116700600D01*
X164828947Y-116662532D01*
X165009225Y-116587858D01*
X165171471Y-116479449D01*
X165309449Y-116341471D01*
X165417858Y-116179225D01*
X165492532Y-115998947D01*
X165530600Y-115807566D01*
X165530600Y-115612434D01*
X165492532Y-115421053D01*
X165417858Y-115240775D01*
X165309449Y-115078529D01*
X165171471Y-114940551D01*
X165009225Y-114832142D01*
X164828947Y-114757468D01*
X164637566Y-114719400D01*
X164442434Y-114719400D01*
X164251053Y-114757468D01*
X164070775Y-114832142D01*
X163950361Y-114912600D01*
X159655240Y-114912600D01*
X159699832Y-114804947D01*
X159737900Y-114613566D01*
X159737900Y-114418434D01*
X159699832Y-114227053D01*
X159625158Y-114046775D01*
X159516749Y-113884529D01*
X159378771Y-113746551D01*
X159216525Y-113638142D01*
X159036247Y-113563468D01*
X158844866Y-113525400D01*
X158649734Y-113525400D01*
X158458353Y-113563468D01*
X158278075Y-113638142D01*
X158142695Y-113728600D01*
X154198608Y-113728600D01*
X154096137Y-113575241D01*
X153924856Y-113403960D01*
X154165426Y-113330983D01*
X154390467Y-113210697D01*
X154587718Y-113048818D01*
X154749597Y-112851567D01*
X154869883Y-112626526D01*
X154937300Y-112404285D01*
X155004717Y-112626526D01*
X155125004Y-112851567D01*
X155286883Y-113048818D01*
X155484134Y-113210697D01*
X155709175Y-113330983D01*
X155953358Y-113405056D01*
X156207300Y-113430067D01*
X156461243Y-113405056D01*
X156705426Y-113330983D01*
X156930467Y-113210697D01*
X157127718Y-113048818D01*
X157289597Y-112851567D01*
X157409883Y-112626526D01*
X157477300Y-112404285D01*
X157544717Y-112626526D01*
X157665004Y-112851567D01*
X157826883Y-113048818D01*
X158024134Y-113210697D01*
X158249175Y-113330983D01*
X158493358Y-113405056D01*
X158747300Y-113430067D01*
X159001243Y-113405056D01*
X159245426Y-113330983D01*
X159470467Y-113210697D01*
X159667718Y-113048818D01*
X159829597Y-112851567D01*
X159949883Y-112626526D01*
X160017300Y-112404285D01*
X160084717Y-112626526D01*
X160205004Y-112851567D01*
X160366883Y-113048818D01*
X160564134Y-113210697D01*
X160789175Y-113330983D01*
X161033358Y-113405056D01*
X161287300Y-113430067D01*
X161541243Y-113405056D01*
X161785426Y-113330983D01*
X162010467Y-113210697D01*
X162207718Y-113048818D01*
X162369597Y-112851567D01*
X162489883Y-112626526D01*
X162557300Y-112404285D01*
X162624717Y-112626526D01*
X162745004Y-112851567D01*
X162906883Y-113048818D01*
X163104134Y-113210697D01*
X163329175Y-113330983D01*
X163573358Y-113405056D01*
X163827300Y-113430067D01*
X164081243Y-113405056D01*
X164325426Y-113330983D01*
X164550467Y-113210697D01*
X164747718Y-113048818D01*
X164909597Y-112851567D01*
X165029883Y-112626526D01*
X165099806Y-112396023D01*
X165121567Y-112505680D01*
X165219107Y-112741461D01*
X165360771Y-112953683D01*
X165541116Y-113134189D01*
X165753211Y-113276044D01*
X165988905Y-113373795D01*
X166040195Y-113381820D01*
X166240300Y-113257933D01*
X166240300Y-111595000D01*
X166494300Y-111595000D01*
X166494300Y-113257933D01*
X166694405Y-113381820D01*
X166745695Y-113373795D01*
X166981389Y-113276044D01*
X167193484Y-113134189D01*
X167373829Y-112953683D01*
X167515493Y-112741461D01*
X167613033Y-112505680D01*
X167662700Y-112255400D01*
X167662700Y-111595000D01*
X166494300Y-111595000D01*
X166240300Y-111595000D01*
X166220300Y-111595000D01*
X166220300Y-111490000D01*
X186211928Y-111490000D01*
X186211928Y-113090000D01*
X186224188Y-113214482D01*
X186260498Y-113334180D01*
X186319463Y-113444494D01*
X186398815Y-113541185D01*
X186495506Y-113620537D01*
X186605820Y-113679502D01*
X186725518Y-113715812D01*
X186850000Y-113728072D01*
X188450000Y-113728072D01*
X188574482Y-113715812D01*
X188694180Y-113679502D01*
X188804494Y-113620537D01*
X188901185Y-113541185D01*
X188980537Y-113444494D01*
X189039502Y-113334180D01*
X189075812Y-113214482D01*
X189088072Y-113090000D01*
X189088072Y-111490000D01*
X189075812Y-111365518D01*
X189039502Y-111245820D01*
X188980537Y-111135506D01*
X188901185Y-111038815D01*
X188804494Y-110959463D01*
X188694180Y-110900498D01*
X188574482Y-110864188D01*
X188450000Y-110851928D01*
X188442785Y-110851928D01*
X188463097Y-110782702D01*
X187650000Y-109969605D01*
X186836903Y-110782702D01*
X186857215Y-110851928D01*
X186850000Y-110851928D01*
X186725518Y-110864188D01*
X186605820Y-110900498D01*
X186495506Y-110959463D01*
X186398815Y-111038815D01*
X186319463Y-111135506D01*
X186260498Y-111245820D01*
X186224188Y-111365518D01*
X186211928Y-111490000D01*
X166220300Y-111490000D01*
X166220300Y-111341000D01*
X166240300Y-111341000D01*
X166240300Y-109678067D01*
X166494300Y-109678067D01*
X166494300Y-111341000D01*
X167662700Y-111341000D01*
X167662700Y-110680600D01*
X167613033Y-110430320D01*
X167515493Y-110194539D01*
X167373829Y-109982317D01*
X167252133Y-109860512D01*
X186209783Y-109860512D01*
X186251213Y-110140130D01*
X186346397Y-110406292D01*
X186413329Y-110531514D01*
X186657298Y-110603097D01*
X187470395Y-109790000D01*
X187829605Y-109790000D01*
X188642702Y-110603097D01*
X188886671Y-110531514D01*
X189007571Y-110276004D01*
X189076300Y-110001816D01*
X189090217Y-109719488D01*
X189048787Y-109439870D01*
X188953603Y-109173708D01*
X188886671Y-109048486D01*
X188642702Y-108976903D01*
X187829605Y-109790000D01*
X187470395Y-109790000D01*
X186657298Y-108976903D01*
X186413329Y-109048486D01*
X186292429Y-109303996D01*
X186223700Y-109578184D01*
X186209783Y-109860512D01*
X167252133Y-109860512D01*
X167193484Y-109801811D01*
X166981389Y-109659956D01*
X166745695Y-109562205D01*
X166694405Y-109554180D01*
X166494300Y-109678067D01*
X166240300Y-109678067D01*
X166040195Y-109554180D01*
X165988905Y-109562205D01*
X165753211Y-109659956D01*
X165541116Y-109801811D01*
X165360771Y-109982317D01*
X165219107Y-110194539D01*
X165121567Y-110430320D01*
X165099806Y-110539977D01*
X165029883Y-110309474D01*
X164909597Y-110084433D01*
X164747718Y-109887182D01*
X164550466Y-109725303D01*
X164325425Y-109605017D01*
X164081242Y-109530944D01*
X163827300Y-109505933D01*
X163573357Y-109530944D01*
X163329174Y-109605017D01*
X163104133Y-109725303D01*
X162906882Y-109887182D01*
X162745003Y-110084434D01*
X162624717Y-110309475D01*
X162557300Y-110531716D01*
X162489883Y-110309474D01*
X162369597Y-110084433D01*
X162207718Y-109887182D01*
X162010466Y-109725303D01*
X161785425Y-109605017D01*
X161541242Y-109530944D01*
X161287300Y-109505933D01*
X161033357Y-109530944D01*
X160789174Y-109605017D01*
X160564133Y-109725303D01*
X160366882Y-109887182D01*
X160205003Y-110084434D01*
X160084717Y-110309475D01*
X160017300Y-110531716D01*
X159949883Y-110309474D01*
X159829597Y-110084433D01*
X159667718Y-109887182D01*
X159470466Y-109725303D01*
X159245425Y-109605017D01*
X159001242Y-109530944D01*
X158747300Y-109505933D01*
X158493357Y-109530944D01*
X158430303Y-109550072D01*
X158463900Y-109381166D01*
X158463900Y-109186034D01*
X158425832Y-108994653D01*
X158351158Y-108814375D01*
X158339748Y-108797298D01*
X186836903Y-108797298D01*
X187650000Y-109610395D01*
X188463097Y-108797298D01*
X188391514Y-108553329D01*
X188136004Y-108432429D01*
X187861816Y-108363700D01*
X187579488Y-108349783D01*
X187299870Y-108391213D01*
X187033708Y-108486397D01*
X186908486Y-108553329D01*
X186836903Y-108797298D01*
X158339748Y-108797298D01*
X158242749Y-108652129D01*
X158104771Y-108514151D01*
X157942525Y-108405742D01*
X157762247Y-108331068D01*
X157570866Y-108293000D01*
X157375734Y-108293000D01*
X157184353Y-108331068D01*
X157004075Y-108405742D01*
X156868695Y-108496200D01*
X139228334Y-108496200D01*
X139196749Y-108448929D01*
X139058771Y-108310951D01*
X138896525Y-108202542D01*
X138716247Y-108127868D01*
X138524866Y-108089800D01*
X138329734Y-108089800D01*
X138138353Y-108127868D01*
X137958075Y-108202542D01*
X137795829Y-108310951D01*
X137657851Y-108448929D01*
X137549442Y-108611175D01*
X137474768Y-108791453D01*
X137436700Y-108982834D01*
X137436700Y-109004200D01*
X131327930Y-109004200D01*
X131327251Y-109003994D01*
X131285504Y-108999882D01*
X131139225Y-108902142D01*
X130958947Y-108827468D01*
X130767566Y-108789400D01*
X130572434Y-108789400D01*
X130381053Y-108827468D01*
X130200775Y-108902142D01*
X130038529Y-109010551D01*
X129900551Y-109148529D01*
X129792142Y-109310775D01*
X129717468Y-109491053D01*
X129679400Y-109682434D01*
X129679400Y-109877566D01*
X129717468Y-110068947D01*
X129792142Y-110249225D01*
X129900551Y-110411471D01*
X130038529Y-110549449D01*
X130200775Y-110657858D01*
X130255679Y-110680600D01*
X129379905Y-110680600D01*
X129244525Y-110590142D01*
X129064247Y-110515468D01*
X128872866Y-110477400D01*
X128677734Y-110477400D01*
X128486353Y-110515468D01*
X128306075Y-110590142D01*
X128143829Y-110698551D01*
X128005851Y-110836529D01*
X127897442Y-110998775D01*
X127822768Y-111179053D01*
X127784700Y-111370434D01*
X127784700Y-111565566D01*
X127822768Y-111756947D01*
X127897442Y-111937225D01*
X128005851Y-112099471D01*
X128143829Y-112237449D01*
X128306075Y-112345858D01*
X128486353Y-112420532D01*
X128677734Y-112458600D01*
X128872866Y-112458600D01*
X129064247Y-112420532D01*
X129244525Y-112345858D01*
X129379905Y-112255400D01*
X132058141Y-112255400D01*
X132070644Y-112382343D01*
X132144717Y-112626526D01*
X132265004Y-112851567D01*
X132426883Y-113048818D01*
X132624134Y-113210697D01*
X132663738Y-113231866D01*
X132610363Y-113285241D01*
X132534753Y-113398400D01*
X132473522Y-113398400D01*
X132294608Y-113180392D01*
X132076101Y-113001068D01*
X131826808Y-112867818D01*
X131556309Y-112785764D01*
X131345492Y-112765000D01*
X131204508Y-112765000D01*
X130993691Y-112785764D01*
X130723192Y-112867818D01*
X130473899Y-113001068D01*
X130255392Y-113180392D01*
X130076068Y-113398899D01*
X130003016Y-113535570D01*
X129996680Y-113520273D01*
X129839637Y-113285241D01*
X129639759Y-113085363D01*
X129404727Y-112928320D01*
X129143574Y-112820147D01*
X128866335Y-112765000D01*
X128583665Y-112765000D01*
X128306426Y-112820147D01*
X128045273Y-112928320D01*
X127810241Y-113085363D01*
X127610363Y-113285241D01*
X127453320Y-113520273D01*
X127345147Y-113781426D01*
X127290000Y-114058665D01*
X127290000Y-114341335D01*
X127345147Y-114618574D01*
X127453320Y-114879727D01*
X127610363Y-115114759D01*
X127810241Y-115314637D01*
X128045273Y-115471680D01*
X128306426Y-115579853D01*
X128583665Y-115635000D01*
X128866335Y-115635000D01*
X129143574Y-115579853D01*
X129404727Y-115471680D01*
X129639759Y-115314637D01*
X129839637Y-115114759D01*
X129996680Y-114879727D01*
X130003016Y-114864430D01*
X130076068Y-115001101D01*
X130255392Y-115219608D01*
X130473899Y-115398932D01*
X130723192Y-115532182D01*
X130993691Y-115614236D01*
X131204508Y-115635000D01*
X131345492Y-115635000D01*
X131556309Y-115614236D01*
X131826808Y-115532182D01*
X132076101Y-115398932D01*
X132294608Y-115219608D01*
X132473932Y-115001101D01*
X132488845Y-114973200D01*
X132515777Y-114973200D01*
X132610363Y-115114759D01*
X132810241Y-115314637D01*
X133045273Y-115471680D01*
X133306426Y-115579853D01*
X133583665Y-115635000D01*
X133866335Y-115635000D01*
X134143574Y-115579853D01*
X134404727Y-115471680D01*
X134639759Y-115314637D01*
X134839637Y-115114759D01*
X134996680Y-114879727D01*
X135104853Y-114618574D01*
X135160000Y-114341335D01*
X135160000Y-114058665D01*
X135124094Y-113878157D01*
X135605612Y-113396639D01*
X135633358Y-113405056D01*
X135887300Y-113430067D01*
X136121751Y-113406976D01*
X135992818Y-113648192D01*
X135910764Y-113918691D01*
X135883057Y-114200000D01*
X135910764Y-114481309D01*
X135992818Y-114751808D01*
X136126068Y-115001101D01*
X136305392Y-115219608D01*
X136523899Y-115398932D01*
X136773192Y-115532182D01*
X137043691Y-115614236D01*
X137254508Y-115635000D01*
X137395492Y-115635000D01*
X137606309Y-115614236D01*
X137876808Y-115532182D01*
X138126101Y-115398932D01*
X138344608Y-115219608D01*
X138523932Y-115001101D01*
X138545901Y-114960000D01*
X139506957Y-114960000D01*
X139544901Y-115016788D01*
X139544900Y-116470394D01*
X139454442Y-116605775D01*
X139383684Y-116776600D01*
X138480592Y-116776600D01*
X138339225Y-116682142D01*
X138158947Y-116607468D01*
X137967566Y-116569400D01*
X137772434Y-116569400D01*
X137581053Y-116607468D01*
X137400775Y-116682142D01*
X137238529Y-116790551D01*
X137100551Y-116928529D01*
X136992142Y-117090775D01*
X136917468Y-117271053D01*
X136899616Y-117360800D01*
X126814505Y-117360800D01*
X126679125Y-117270342D01*
X126498847Y-117195668D01*
X126307466Y-117157600D01*
X126112334Y-117157600D01*
X125920953Y-117195668D01*
X125740675Y-117270342D01*
X125578429Y-117378751D01*
X125440451Y-117516729D01*
X125332042Y-117678975D01*
X125257368Y-117859253D01*
X125219300Y-118050634D01*
X125219300Y-118112792D01*
X125069608Y-117930392D01*
X124851101Y-117751068D01*
X124601808Y-117617818D01*
X124331309Y-117535764D01*
X124120492Y-117515000D01*
X123979508Y-117515000D01*
X123768691Y-117535764D01*
X123498192Y-117617818D01*
X123248899Y-117751068D01*
X123030392Y-117930392D01*
X122851068Y-118148899D01*
X122837865Y-118173600D01*
X118687451Y-118173600D01*
X117990412Y-117476561D01*
X118256497Y-117395845D01*
X118512426Y-117259048D01*
X118736750Y-117074950D01*
X118920848Y-116850626D01*
X118960001Y-116777377D01*
X118999153Y-116850626D01*
X119183251Y-117074950D01*
X119407575Y-117259048D01*
X119663504Y-117395845D01*
X119941203Y-117480084D01*
X120230000Y-117508528D01*
X120518798Y-117480084D01*
X120796497Y-117395845D01*
X121052426Y-117259048D01*
X121276750Y-117074950D01*
X121460848Y-116850626D01*
X121597645Y-116594697D01*
X121681884Y-116316998D01*
X121703200Y-116100572D01*
X121703200Y-114279428D01*
X121681884Y-114063002D01*
X121597645Y-113785303D01*
X121460848Y-113529374D01*
X121276749Y-113305050D01*
X121052425Y-113120952D01*
X120796496Y-112984155D01*
X120518797Y-112899916D01*
X120230000Y-112871472D01*
X119941202Y-112899916D01*
X119663503Y-112984155D01*
X119407574Y-113120952D01*
X119183250Y-113305051D01*
X118999152Y-113529375D01*
X118960000Y-113602623D01*
X118920848Y-113529374D01*
X118736749Y-113305050D01*
X118512425Y-113120952D01*
X118256496Y-112984155D01*
X117978797Y-112899916D01*
X117690000Y-112871472D01*
X117401202Y-112899916D01*
X117123503Y-112984155D01*
X116867574Y-113120952D01*
X116643250Y-113305051D01*
X116459152Y-113529375D01*
X116420000Y-113602623D01*
X116380848Y-113529374D01*
X116196749Y-113305050D01*
X115972425Y-113120952D01*
X115716496Y-112984155D01*
X115438797Y-112899916D01*
X115150000Y-112871472D01*
X114861202Y-112899916D01*
X114583503Y-112984155D01*
X114327574Y-113120952D01*
X114103250Y-113305051D01*
X113919152Y-113529375D01*
X113782355Y-113785304D01*
X113698116Y-114063003D01*
X113676800Y-114279429D01*
X113676800Y-115823249D01*
X110689404Y-112835854D01*
X110714604Y-112580000D01*
X110676278Y-112190872D01*
X110562774Y-111816698D01*
X110378453Y-111471857D01*
X110146043Y-111188665D01*
X122615000Y-111188665D01*
X122615000Y-111471335D01*
X122670147Y-111748574D01*
X122778320Y-112009727D01*
X122935363Y-112244759D01*
X123135241Y-112444637D01*
X123370273Y-112601680D01*
X123631426Y-112709853D01*
X123908665Y-112765000D01*
X124191335Y-112765000D01*
X124468574Y-112709853D01*
X124729727Y-112601680D01*
X124964759Y-112444637D01*
X125164637Y-112244759D01*
X125242385Y-112128400D01*
X125554495Y-112128400D01*
X125689875Y-112218858D01*
X125870153Y-112293532D01*
X126061534Y-112331600D01*
X126256666Y-112331600D01*
X126448047Y-112293532D01*
X126628325Y-112218858D01*
X126790571Y-112110449D01*
X126928549Y-111972471D01*
X127036958Y-111810225D01*
X127111632Y-111629947D01*
X127149700Y-111438566D01*
X127149700Y-111243434D01*
X127111632Y-111052053D01*
X127036958Y-110871775D01*
X126928549Y-110709529D01*
X126790571Y-110571551D01*
X126628325Y-110463142D01*
X126448047Y-110388468D01*
X126256666Y-110350400D01*
X126061534Y-110350400D01*
X125870153Y-110388468D01*
X125689875Y-110463142D01*
X125554495Y-110553600D01*
X125257085Y-110553600D01*
X125164637Y-110415241D01*
X124964759Y-110215363D01*
X124729727Y-110058320D01*
X124468574Y-109950147D01*
X124191335Y-109895000D01*
X123908665Y-109895000D01*
X123631426Y-109950147D01*
X123370273Y-110058320D01*
X123135241Y-110215363D01*
X122935363Y-110415241D01*
X122778320Y-110650273D01*
X122670147Y-110911426D01*
X122615000Y-111188665D01*
X110146043Y-111188665D01*
X110130398Y-111169602D01*
X109828143Y-110921547D01*
X109483302Y-110737226D01*
X109109128Y-110623722D01*
X108817510Y-110595000D01*
X107622490Y-110595000D01*
X107330872Y-110623722D01*
X106956698Y-110737226D01*
X106611857Y-110921547D01*
X106309602Y-111169602D01*
X106227400Y-111269765D01*
X106227400Y-110578662D01*
X106231208Y-110539999D01*
X106227400Y-110501336D01*
X106227400Y-110501327D01*
X106216006Y-110385643D01*
X106170982Y-110237217D01*
X106097866Y-110100428D01*
X106064364Y-110059606D01*
X106024121Y-110010569D01*
X106024119Y-110010567D01*
X105999469Y-109980531D01*
X105969434Y-109955882D01*
X105084670Y-109071119D01*
X105176278Y-108769128D01*
X105214604Y-108380000D01*
X105725396Y-108380000D01*
X105763722Y-108769128D01*
X105877226Y-109143302D01*
X106061547Y-109488143D01*
X106309602Y-109790398D01*
X106611857Y-110038453D01*
X106956698Y-110222774D01*
X107330872Y-110336278D01*
X107622490Y-110365000D01*
X108817510Y-110365000D01*
X109109128Y-110336278D01*
X109483302Y-110222774D01*
X109828143Y-110038453D01*
X110130398Y-109790398D01*
X110378453Y-109488143D01*
X110562774Y-109143302D01*
X110676278Y-108769128D01*
X110714604Y-108380000D01*
X110676278Y-107990872D01*
X110562774Y-107616698D01*
X110378453Y-107271857D01*
X110130398Y-106969602D01*
X109828143Y-106721547D01*
X109483302Y-106537226D01*
X109109128Y-106423722D01*
X108817510Y-106395000D01*
X107622490Y-106395000D01*
X107330872Y-106423722D01*
X106956698Y-106537226D01*
X106611857Y-106721547D01*
X106309602Y-106969602D01*
X106061547Y-107271857D01*
X105877226Y-107616698D01*
X105763722Y-107990872D01*
X105725396Y-108380000D01*
X105214604Y-108380000D01*
X105176278Y-107990872D01*
X105062774Y-107616698D01*
X104878453Y-107271857D01*
X104630398Y-106969602D01*
X104328143Y-106721547D01*
X103983302Y-106537226D01*
X103609128Y-106423722D01*
X103317510Y-106395000D01*
X102122490Y-106395000D01*
X101830872Y-106423722D01*
X101456698Y-106537226D01*
X101111857Y-106721547D01*
X100809602Y-106969602D01*
X100561547Y-107271857D01*
X100423000Y-107531061D01*
X100423000Y-105892702D01*
X125686903Y-105892702D01*
X125758486Y-106136671D01*
X126013996Y-106257571D01*
X126288184Y-106326300D01*
X126570512Y-106340217D01*
X126850130Y-106298787D01*
X127116292Y-106203603D01*
X127241514Y-106136671D01*
X127313097Y-105892702D01*
X126500000Y-105079605D01*
X125686903Y-105892702D01*
X100423000Y-105892702D01*
X100423000Y-105279445D01*
X100731933Y-104970512D01*
X125059783Y-104970512D01*
X125101213Y-105250130D01*
X125196397Y-105516292D01*
X125263329Y-105641514D01*
X125507298Y-105713097D01*
X126320395Y-104900000D01*
X125507298Y-104086903D01*
X125263329Y-104158486D01*
X125142429Y-104413996D01*
X125073700Y-104688184D01*
X125059783Y-104970512D01*
X100731933Y-104970512D01*
X100965924Y-104736522D01*
X100965929Y-104736516D01*
X101565924Y-104136521D01*
X101672967Y-104006089D01*
X101725771Y-103907298D01*
X125686903Y-103907298D01*
X126500000Y-104720395D01*
X127313097Y-103907298D01*
X127241514Y-103663329D01*
X126986004Y-103542429D01*
X126711816Y-103473700D01*
X126429488Y-103459783D01*
X126149870Y-103501213D01*
X125883708Y-103596397D01*
X125758486Y-103663329D01*
X125686903Y-103907298D01*
X101725771Y-103907298D01*
X101779102Y-103807524D01*
X101844461Y-103592068D01*
X101866529Y-103368001D01*
X101844461Y-103143933D01*
X101779102Y-102928477D01*
X101672967Y-102729912D01*
X101642430Y-102692702D01*
X125386903Y-102692702D01*
X125458486Y-102936671D01*
X125713996Y-103057571D01*
X125988184Y-103126300D01*
X126270512Y-103140217D01*
X126550130Y-103098787D01*
X126816292Y-103003603D01*
X126941514Y-102936671D01*
X127013097Y-102692702D01*
X126200000Y-101879605D01*
X125386903Y-102692702D01*
X101642430Y-102692702D01*
X101530133Y-102555867D01*
X101356088Y-102413033D01*
X101157523Y-102306898D01*
X100942067Y-102241539D01*
X100717999Y-102219471D01*
X100493932Y-102241539D01*
X100278476Y-102306898D01*
X100079911Y-102413033D01*
X99949479Y-102520076D01*
X99349484Y-103120071D01*
X99349478Y-103120076D01*
X98511478Y-103958077D01*
X98467868Y-103993867D01*
X98325033Y-104167911D01*
X98218897Y-104366477D01*
X98153539Y-104581933D01*
X98137000Y-104749854D01*
X98137000Y-104749861D01*
X98131471Y-104806000D01*
X98137000Y-104862139D01*
X98137000Y-106886145D01*
X98137001Y-106886155D01*
X98137000Y-113783861D01*
X98131471Y-113840000D01*
X98137000Y-113896139D01*
X98137000Y-113896145D01*
X98146283Y-113990398D01*
X98153539Y-114064067D01*
X98168097Y-114112057D01*
X98218897Y-114279522D01*
X98325032Y-114478088D01*
X98467867Y-114652133D01*
X98511482Y-114687927D01*
X100231928Y-116408374D01*
X100231928Y-118130000D01*
X100244188Y-118254482D01*
X100280498Y-118374180D01*
X100339463Y-118484494D01*
X100418815Y-118581185D01*
X100515506Y-118660537D01*
X100625820Y-118719502D01*
X100745518Y-118755812D01*
X100870000Y-118768072D01*
X104570000Y-118768072D01*
X104694482Y-118755812D01*
X104814180Y-118719502D01*
X104924494Y-118660537D01*
X105021185Y-118581185D01*
X105100537Y-118484494D01*
X105159502Y-118374180D01*
X105195812Y-118254482D01*
X105208072Y-118130000D01*
X105208072Y-115430000D01*
X105195812Y-115305518D01*
X105159502Y-115185820D01*
X105100537Y-115075506D01*
X105021185Y-114978815D01*
X104924494Y-114899463D01*
X104814180Y-114840498D01*
X104694482Y-114804188D01*
X104570000Y-114791928D01*
X101848374Y-114791928D01*
X101489026Y-114432581D01*
X101830872Y-114536278D01*
X102122490Y-114565000D01*
X103317510Y-114565000D01*
X103609128Y-114536278D01*
X103983302Y-114422774D01*
X104328143Y-114238453D01*
X104630398Y-113990398D01*
X104655650Y-113959629D01*
X104663995Y-114044357D01*
X104709018Y-114192782D01*
X104775093Y-114316397D01*
X104782135Y-114329572D01*
X104880532Y-114449469D01*
X104910572Y-114474123D01*
X105605881Y-115169433D01*
X105630531Y-115199469D01*
X105660567Y-115224119D01*
X105660569Y-115224121D01*
X105704808Y-115260427D01*
X105750428Y-115297866D01*
X105887217Y-115370982D01*
X106035643Y-115416006D01*
X106151327Y-115427400D01*
X106151336Y-115427400D01*
X106189999Y-115431208D01*
X106228662Y-115427400D01*
X106262168Y-115427400D01*
X106061547Y-115671857D01*
X105877226Y-116016698D01*
X105763722Y-116390872D01*
X105725396Y-116780000D01*
X105763722Y-117169128D01*
X105877226Y-117543302D01*
X106061547Y-117888143D01*
X106309602Y-118190398D01*
X106611857Y-118438453D01*
X106956698Y-118622774D01*
X107330872Y-118736278D01*
X107622490Y-118765000D01*
X108817510Y-118765000D01*
X109109128Y-118736278D01*
X109483302Y-118622774D01*
X109828143Y-118438453D01*
X110130398Y-118190398D01*
X110378453Y-117888143D01*
X110562774Y-117543302D01*
X110676278Y-117169128D01*
X110714604Y-116780000D01*
X110676278Y-116390872D01*
X110562774Y-116016698D01*
X110378453Y-115671857D01*
X110177832Y-115427400D01*
X110339942Y-115427400D01*
X112781341Y-117868800D01*
X112638354Y-117868800D01*
X112615154Y-117840531D01*
X112495257Y-117742134D01*
X112358468Y-117669018D01*
X112210042Y-117623994D01*
X112174172Y-117620461D01*
X112149774Y-117596063D01*
X111980256Y-117482795D01*
X111791898Y-117404774D01*
X111591939Y-117365000D01*
X111388061Y-117365000D01*
X111188102Y-117404774D01*
X110999744Y-117482795D01*
X110830226Y-117596063D01*
X110686063Y-117740226D01*
X110572795Y-117909744D01*
X110494774Y-118098102D01*
X110455000Y-118298061D01*
X110455000Y-118501939D01*
X110494774Y-118701898D01*
X110572795Y-118890256D01*
X110629654Y-118975352D01*
X110583260Y-118966166D01*
X110520289Y-118952781D01*
X110510430Y-118951745D01*
X110219072Y-118923177D01*
X110219069Y-118923177D01*
X110184655Y-118919788D01*
X94084721Y-118920000D01*
X93885340Y-118900451D01*
X93726948Y-118852629D01*
X93580863Y-118774954D01*
X93452648Y-118670384D01*
X93347187Y-118542904D01*
X93268491Y-118397359D01*
X93219567Y-118239313D01*
X93198848Y-118042179D01*
X93198917Y-116569721D01*
X93285000Y-116569721D01*
X93285000Y-116990279D01*
X93367047Y-117402756D01*
X93527988Y-117791302D01*
X93761637Y-118140983D01*
X94059017Y-118438363D01*
X94408698Y-118672012D01*
X94797244Y-118832953D01*
X95209721Y-118915000D01*
X95630279Y-118915000D01*
X96042756Y-118832953D01*
X96431302Y-118672012D01*
X96780983Y-118438363D01*
X97078363Y-118140983D01*
X97312012Y-117791302D01*
X97472953Y-117402756D01*
X97555000Y-116990279D01*
X97555000Y-116569721D01*
X97472953Y-116157244D01*
X97312012Y-115768698D01*
X97078363Y-115419017D01*
X96780983Y-115121637D01*
X96431302Y-114887988D01*
X96042756Y-114727047D01*
X95630279Y-114645000D01*
X95209721Y-114645000D01*
X94797244Y-114727047D01*
X94408698Y-114887988D01*
X94059017Y-115121637D01*
X93761637Y-115419017D01*
X93527988Y-115768698D01*
X93367047Y-116157244D01*
X93285000Y-116569721D01*
X93198917Y-116569721D01*
X93199310Y-108169721D01*
X93285000Y-108169721D01*
X93285000Y-108590279D01*
X93367047Y-109002756D01*
X93527988Y-109391302D01*
X93761637Y-109740983D01*
X94059017Y-110038363D01*
X94408698Y-110272012D01*
X94797244Y-110432953D01*
X95209721Y-110515000D01*
X95630279Y-110515000D01*
X96042756Y-110432953D01*
X96431302Y-110272012D01*
X96780983Y-110038363D01*
X97078363Y-109740983D01*
X97312012Y-109391302D01*
X97472953Y-109002756D01*
X97555000Y-108590279D01*
X97555000Y-108169721D01*
X97472953Y-107757244D01*
X97312012Y-107368698D01*
X97078363Y-107019017D01*
X96780983Y-106721637D01*
X96431302Y-106487988D01*
X96042756Y-106327047D01*
X95630279Y-106245000D01*
X95209721Y-106245000D01*
X94797244Y-106327047D01*
X94408698Y-106487988D01*
X94059017Y-106721637D01*
X93761637Y-107019017D01*
X93527988Y-107368698D01*
X93367047Y-107757244D01*
X93285000Y-108169721D01*
X93199310Y-108169721D01*
X93199610Y-101770512D01*
X124759783Y-101770512D01*
X124801213Y-102050130D01*
X124896397Y-102316292D01*
X124963329Y-102441514D01*
X125207298Y-102513097D01*
X126020395Y-101700000D01*
X126379605Y-101700000D01*
X127192702Y-102513097D01*
X127436671Y-102441514D01*
X127557571Y-102186004D01*
X127626300Y-101911816D01*
X127640217Y-101629488D01*
X127598787Y-101349870D01*
X127503603Y-101083708D01*
X127436671Y-100958486D01*
X127192702Y-100886903D01*
X126379605Y-101700000D01*
X126020395Y-101700000D01*
X125207298Y-100886903D01*
X124963329Y-100958486D01*
X124842429Y-101213996D01*
X124773700Y-101488184D01*
X124759783Y-101770512D01*
X93199610Y-101770512D01*
X93199849Y-96679721D01*
X93295000Y-96679721D01*
X93295000Y-97100279D01*
X93377047Y-97512756D01*
X93537988Y-97901302D01*
X93771637Y-98250983D01*
X94069017Y-98548363D01*
X94418698Y-98782012D01*
X94807244Y-98942953D01*
X95219721Y-99025000D01*
X95640279Y-99025000D01*
X96052756Y-98942953D01*
X96441302Y-98782012D01*
X96790983Y-98548363D01*
X97088363Y-98250983D01*
X97322012Y-97901302D01*
X97482953Y-97512756D01*
X97565000Y-97100279D01*
X97565000Y-96679721D01*
X97482953Y-96267244D01*
X97322012Y-95878698D01*
X97088363Y-95529017D01*
X96790983Y-95231637D01*
X96781534Y-95225323D01*
X100293323Y-95225323D01*
X100347499Y-95432295D01*
X100508976Y-95787211D01*
X100736591Y-96103805D01*
X101021597Y-96369910D01*
X101353041Y-96575300D01*
X101718186Y-96712082D01*
X102103000Y-96775000D01*
X102603000Y-96775000D01*
X102603000Y-94917000D01*
X100408171Y-94917000D01*
X100293323Y-95225323D01*
X96781534Y-95225323D01*
X96441302Y-94997988D01*
X96052756Y-94837047D01*
X95640279Y-94755000D01*
X95219721Y-94755000D01*
X94807244Y-94837047D01*
X94418698Y-94997988D01*
X94069017Y-95231637D01*
X93771637Y-95529017D01*
X93537988Y-95878698D01*
X93377047Y-96267244D01*
X93295000Y-96679721D01*
X93199849Y-96679721D01*
X93199958Y-94354677D01*
X100293323Y-94354677D01*
X100408171Y-94663000D01*
X102603000Y-94663000D01*
X102603000Y-92805000D01*
X102103000Y-92805000D01*
X101718186Y-92867918D01*
X101353041Y-93004700D01*
X101021597Y-93210090D01*
X100736591Y-93476195D01*
X100508976Y-93792789D01*
X100347499Y-94147705D01*
X100293323Y-94354677D01*
X93199958Y-94354677D01*
X93199998Y-93505896D01*
X93219549Y-93306493D01*
X93267371Y-93148101D01*
X93345045Y-93002018D01*
X93449617Y-92873799D01*
X93577095Y-92768340D01*
X93722641Y-92689644D01*
X93880687Y-92640720D01*
X94077837Y-92619999D01*
X105496426Y-92620023D01*
X104870573Y-93245877D01*
X104840532Y-93270531D01*
X104780242Y-93343995D01*
X104742135Y-93390428D01*
X104705319Y-93459305D01*
X104438403Y-93210090D01*
X104106959Y-93004700D01*
X103741814Y-92867918D01*
X103357000Y-92805000D01*
X102857000Y-92805000D01*
X102857000Y-94663000D01*
X102877000Y-94663000D01*
X102877000Y-94917000D01*
X102857000Y-94917000D01*
X102857000Y-96775000D01*
X103357000Y-96775000D01*
X103741814Y-96712082D01*
X104106959Y-96575300D01*
X104438403Y-96369910D01*
X104612600Y-96207265D01*
X104612600Y-96493848D01*
X104104521Y-97001928D01*
X100880000Y-97001928D01*
X100755518Y-97014188D01*
X100635820Y-97050498D01*
X100525506Y-97109463D01*
X100428815Y-97188815D01*
X100349463Y-97285506D01*
X100290498Y-97395820D01*
X100254188Y-97515518D01*
X100241928Y-97640000D01*
X100241928Y-100340000D01*
X100254188Y-100464482D01*
X100290498Y-100584180D01*
X100349463Y-100694494D01*
X100428815Y-100791185D01*
X100525506Y-100870537D01*
X100635820Y-100929502D01*
X100755518Y-100965812D01*
X100880000Y-100978072D01*
X104580000Y-100978072D01*
X104704482Y-100965812D01*
X104824180Y-100929502D01*
X104934494Y-100870537D01*
X105031185Y-100791185D01*
X105110537Y-100694494D01*
X105169502Y-100584180D01*
X105205812Y-100464482D01*
X105218072Y-100340000D01*
X105218072Y-98990000D01*
X105735396Y-98990000D01*
X105773722Y-99379128D01*
X105887226Y-99753302D01*
X106071547Y-100098143D01*
X106319602Y-100400398D01*
X106621857Y-100648453D01*
X106966698Y-100832774D01*
X107340872Y-100946278D01*
X107632490Y-100975000D01*
X108827510Y-100975000D01*
X109119128Y-100946278D01*
X109493302Y-100832774D01*
X109728051Y-100707298D01*
X125386903Y-100707298D01*
X126200000Y-101520395D01*
X127013097Y-100707298D01*
X126941514Y-100463329D01*
X126686004Y-100342429D01*
X126411816Y-100273700D01*
X126129488Y-100259783D01*
X125849870Y-100301213D01*
X125583708Y-100396397D01*
X125458486Y-100463329D01*
X125386903Y-100707298D01*
X109728051Y-100707298D01*
X109838143Y-100648453D01*
X110140398Y-100400398D01*
X110388453Y-100098143D01*
X110559893Y-99777400D01*
X124125395Y-99777400D01*
X124260775Y-99867858D01*
X124441053Y-99942532D01*
X124632434Y-99980600D01*
X124827566Y-99980600D01*
X125018947Y-99942532D01*
X125199225Y-99867858D01*
X125361471Y-99759449D01*
X125499449Y-99621471D01*
X125607858Y-99459225D01*
X125682532Y-99278947D01*
X125720600Y-99087566D01*
X125720600Y-98892434D01*
X125682532Y-98701053D01*
X125607858Y-98520775D01*
X125499449Y-98358529D01*
X125361471Y-98220551D01*
X125199225Y-98112142D01*
X125018947Y-98037468D01*
X124827566Y-97999400D01*
X124632434Y-97999400D01*
X124441053Y-98037468D01*
X124260775Y-98112142D01*
X124125395Y-98202600D01*
X110559893Y-98202600D01*
X110388453Y-97881857D01*
X110140398Y-97579602D01*
X109838143Y-97331547D01*
X109493302Y-97147226D01*
X109119128Y-97033722D01*
X108827510Y-97005000D01*
X107632490Y-97005000D01*
X107340872Y-97033722D01*
X106966698Y-97147226D01*
X106621857Y-97331547D01*
X106319602Y-97579602D01*
X106071547Y-97881857D01*
X105887226Y-98226698D01*
X105773722Y-98600872D01*
X105735396Y-98990000D01*
X105218072Y-98990000D01*
X105218072Y-98115479D01*
X105929434Y-97404118D01*
X105959469Y-97379469D01*
X105986196Y-97346903D01*
X106036222Y-97285945D01*
X106057866Y-97259572D01*
X106130982Y-97122783D01*
X106176006Y-96974357D01*
X106187400Y-96858673D01*
X106187400Y-96858664D01*
X106191208Y-96820001D01*
X106187400Y-96781338D01*
X106187400Y-96039310D01*
X106319602Y-96200398D01*
X106621857Y-96448453D01*
X106966698Y-96632774D01*
X107340872Y-96746278D01*
X107632490Y-96775000D01*
X108827510Y-96775000D01*
X109119128Y-96746278D01*
X109467154Y-96640706D01*
X109515881Y-96689433D01*
X109540531Y-96719469D01*
X109570567Y-96744119D01*
X109570570Y-96744122D01*
X109615728Y-96781182D01*
X109660428Y-96817866D01*
X109797217Y-96890982D01*
X109945643Y-96936006D01*
X110061327Y-96947400D01*
X110061335Y-96947400D01*
X110100000Y-96951208D01*
X110138665Y-96947400D01*
X129731337Y-96947400D01*
X129770000Y-96951208D01*
X129808663Y-96947400D01*
X129808673Y-96947400D01*
X129924357Y-96936006D01*
X130072783Y-96890982D01*
X130209572Y-96817866D01*
X130329469Y-96719469D01*
X130354127Y-96689423D01*
X131206287Y-95837264D01*
X131179400Y-95972434D01*
X131179400Y-96167566D01*
X131217468Y-96358947D01*
X131292142Y-96539225D01*
X131400551Y-96701471D01*
X131538529Y-96839449D01*
X131700775Y-96947858D01*
X131881053Y-97022532D01*
X131993123Y-97044824D01*
X131989729Y-97051996D01*
X131921000Y-97326184D01*
X131907083Y-97608512D01*
X131948513Y-97888130D01*
X132043697Y-98154292D01*
X132110629Y-98279514D01*
X132354598Y-98351097D01*
X133167695Y-97538000D01*
X133153553Y-97523858D01*
X133333158Y-97344253D01*
X133347300Y-97358395D01*
X133361443Y-97344253D01*
X133541048Y-97523858D01*
X133526905Y-97538000D01*
X134340002Y-98351097D01*
X134583971Y-98279514D01*
X134704871Y-98024004D01*
X134773600Y-97749816D01*
X134787517Y-97467488D01*
X134746087Y-97187870D01*
X134650903Y-96921708D01*
X134616530Y-96857400D01*
X136431337Y-96857400D01*
X136470000Y-96861208D01*
X136508663Y-96857400D01*
X136508673Y-96857400D01*
X136571475Y-96851214D01*
X136514774Y-96988102D01*
X136475000Y-97188061D01*
X136475000Y-97391939D01*
X136514774Y-97591898D01*
X136592795Y-97780256D01*
X136706063Y-97949774D01*
X136850226Y-98093937D01*
X137019744Y-98207205D01*
X137208102Y-98285226D01*
X137408061Y-98325000D01*
X137611939Y-98325000D01*
X137811898Y-98285226D01*
X138000256Y-98207205D01*
X138169774Y-98093937D01*
X138176311Y-98087400D01*
X139788383Y-98087400D01*
X139770147Y-98131426D01*
X139715000Y-98408665D01*
X139715000Y-98691335D01*
X139761697Y-98926094D01*
X139696758Y-98906395D01*
X139581074Y-98895001D01*
X139581064Y-98895001D01*
X139542401Y-98891193D01*
X139503738Y-98895001D01*
X137246762Y-98895001D01*
X137208099Y-98891193D01*
X137169436Y-98895001D01*
X137169426Y-98895001D01*
X137053742Y-98906395D01*
X136905316Y-98951419D01*
X136768527Y-99024535D01*
X136736101Y-99051146D01*
X136563553Y-99085468D01*
X136383275Y-99160142D01*
X136247895Y-99250600D01*
X134547035Y-99250600D01*
X134461937Y-99123241D01*
X134262059Y-98923363D01*
X134061431Y-98789308D01*
X134088814Y-98774671D01*
X134160397Y-98530702D01*
X133347300Y-97717605D01*
X132534203Y-98530702D01*
X132605786Y-98774671D01*
X132634641Y-98788324D01*
X132432541Y-98923363D01*
X132232663Y-99123241D01*
X132147565Y-99250600D01*
X131616673Y-99250600D01*
X131683632Y-99088947D01*
X131721700Y-98897566D01*
X131721700Y-98702434D01*
X131683632Y-98511053D01*
X131608958Y-98330775D01*
X131500549Y-98168529D01*
X131362571Y-98030551D01*
X131200325Y-97922142D01*
X131020047Y-97847468D01*
X130828666Y-97809400D01*
X130633534Y-97809400D01*
X130442153Y-97847468D01*
X130261875Y-97922142D01*
X130099629Y-98030551D01*
X129961651Y-98168529D01*
X129853242Y-98330775D01*
X129778568Y-98511053D01*
X129740500Y-98702434D01*
X129740500Y-98897566D01*
X129778568Y-99088947D01*
X129845527Y-99250600D01*
X129608505Y-99250600D01*
X129473125Y-99160142D01*
X129292847Y-99085468D01*
X129101466Y-99047400D01*
X128906334Y-99047400D01*
X128714953Y-99085468D01*
X128534675Y-99160142D01*
X128372429Y-99268551D01*
X128234451Y-99406529D01*
X128126042Y-99568775D01*
X128051368Y-99749053D01*
X128013300Y-99940434D01*
X128013300Y-100135566D01*
X128051368Y-100326947D01*
X128126042Y-100507225D01*
X128234451Y-100669471D01*
X128372429Y-100807449D01*
X128464684Y-100869091D01*
X128273899Y-100971068D01*
X128055392Y-101150392D01*
X127876068Y-101368899D01*
X127742818Y-101618192D01*
X127660764Y-101888691D01*
X127633057Y-102170000D01*
X127660764Y-102451309D01*
X127742818Y-102721808D01*
X127876068Y-102971101D01*
X128055392Y-103189608D01*
X128273899Y-103368932D01*
X128523192Y-103502182D01*
X128582024Y-103520028D01*
X128581426Y-103520147D01*
X128320273Y-103628320D01*
X128085241Y-103785363D01*
X127885363Y-103985241D01*
X127751308Y-104185869D01*
X127736671Y-104158486D01*
X127492702Y-104086903D01*
X126679605Y-104900000D01*
X127492702Y-105713097D01*
X127736671Y-105641514D01*
X127750324Y-105612659D01*
X127885363Y-105814759D01*
X128085241Y-106014637D01*
X128320273Y-106171680D01*
X128581426Y-106279853D01*
X128858665Y-106335000D01*
X129141335Y-106335000D01*
X129418574Y-106279853D01*
X129679727Y-106171680D01*
X129914759Y-106014637D01*
X130114637Y-105814759D01*
X130271680Y-105579727D01*
X130379853Y-105318574D01*
X130435000Y-105041335D01*
X130435000Y-104758665D01*
X130379853Y-104481426D01*
X130271680Y-104220273D01*
X130114637Y-103985241D01*
X129914759Y-103785363D01*
X129679727Y-103628320D01*
X129481567Y-103546240D01*
X129626808Y-103502182D01*
X129876101Y-103368932D01*
X130094608Y-103189608D01*
X130273932Y-102971101D01*
X130407182Y-102721808D01*
X130489236Y-102451309D01*
X130516943Y-102170000D01*
X130489236Y-101888691D01*
X130407182Y-101618192D01*
X130273932Y-101368899D01*
X130094608Y-101150392D01*
X129876101Y-100971068D01*
X129626808Y-100837818D01*
X129601438Y-100830122D01*
X129608505Y-100825400D01*
X132147565Y-100825400D01*
X132232663Y-100952759D01*
X132432541Y-101152637D01*
X132667573Y-101309680D01*
X132928726Y-101417853D01*
X133205965Y-101473000D01*
X133488635Y-101473000D01*
X133765874Y-101417853D01*
X134027027Y-101309680D01*
X134262059Y-101152637D01*
X134461937Y-100952759D01*
X134547035Y-100825400D01*
X136247895Y-100825400D01*
X136383275Y-100915858D01*
X136563553Y-100990532D01*
X136754934Y-101028600D01*
X136863360Y-101028600D01*
X136858357Y-101079400D01*
X136886064Y-101360709D01*
X136968118Y-101631208D01*
X137101368Y-101880501D01*
X137280692Y-102099008D01*
X137498322Y-102277612D01*
X137345003Y-102464434D01*
X137224717Y-102689475D01*
X137157300Y-102911716D01*
X137089883Y-102689474D01*
X136969597Y-102464433D01*
X136807718Y-102267182D01*
X136610466Y-102105303D01*
X136385425Y-101985017D01*
X136141242Y-101910944D01*
X135887300Y-101885933D01*
X135633357Y-101910944D01*
X135389174Y-101985017D01*
X135164133Y-102105303D01*
X134966882Y-102267182D01*
X134805003Y-102464434D01*
X134684717Y-102689475D01*
X134617300Y-102911716D01*
X134549883Y-102689474D01*
X134429597Y-102464433D01*
X134267718Y-102267182D01*
X134070466Y-102105303D01*
X133845425Y-101985017D01*
X133601242Y-101910944D01*
X133347300Y-101885933D01*
X133093357Y-101910944D01*
X132849174Y-101985017D01*
X132624133Y-102105303D01*
X132426882Y-102267182D01*
X132265003Y-102464434D01*
X132144717Y-102689475D01*
X132070644Y-102933658D01*
X132051900Y-103123971D01*
X132051900Y-104572030D01*
X132070644Y-104762343D01*
X132144717Y-105006526D01*
X132265004Y-105231567D01*
X132426883Y-105428818D01*
X132624134Y-105590697D01*
X132849175Y-105710983D01*
X133093358Y-105785056D01*
X133347300Y-105810067D01*
X133601243Y-105785056D01*
X133845426Y-105710983D01*
X134070467Y-105590697D01*
X134267718Y-105428818D01*
X134429597Y-105231567D01*
X134549883Y-105006526D01*
X134617300Y-104784285D01*
X134684717Y-105006526D01*
X134805004Y-105231567D01*
X134966883Y-105428818D01*
X135164134Y-105590697D01*
X135389175Y-105710983D01*
X135633358Y-105785056D01*
X135887300Y-105810067D01*
X136141243Y-105785056D01*
X136385426Y-105710983D01*
X136610467Y-105590697D01*
X136807718Y-105428818D01*
X136969597Y-105231567D01*
X137089883Y-105006526D01*
X137157300Y-104784285D01*
X137224717Y-105006526D01*
X137345004Y-105231567D01*
X137506883Y-105428818D01*
X137704134Y-105590697D01*
X137929175Y-105710983D01*
X138173358Y-105785056D01*
X138427300Y-105810067D01*
X138681243Y-105785056D01*
X138925426Y-105710983D01*
X139150467Y-105590697D01*
X139347718Y-105428818D01*
X139509597Y-105231567D01*
X139629883Y-105006526D01*
X139697300Y-104784285D01*
X139764717Y-105006526D01*
X139885004Y-105231567D01*
X140046883Y-105428818D01*
X140244134Y-105590697D01*
X140469175Y-105710983D01*
X140713358Y-105785056D01*
X140967300Y-105810067D01*
X141221243Y-105785056D01*
X141465426Y-105710983D01*
X141690467Y-105590697D01*
X141887718Y-105428818D01*
X142049597Y-105231567D01*
X142169883Y-105006526D01*
X142237300Y-104784285D01*
X142304717Y-105006526D01*
X142425004Y-105231567D01*
X142586883Y-105428818D01*
X142784134Y-105590697D01*
X143009175Y-105710983D01*
X143253358Y-105785056D01*
X143507300Y-105810067D01*
X143761243Y-105785056D01*
X144005426Y-105710983D01*
X144230467Y-105590697D01*
X144427718Y-105428818D01*
X144589597Y-105231567D01*
X144709883Y-105006526D01*
X144777300Y-104784285D01*
X144844717Y-105006526D01*
X144965004Y-105231567D01*
X145126883Y-105428818D01*
X145324134Y-105590697D01*
X145549175Y-105710983D01*
X145793358Y-105785056D01*
X146047300Y-105810067D01*
X146301243Y-105785056D01*
X146545426Y-105710983D01*
X146770467Y-105590697D01*
X146967718Y-105428818D01*
X147129597Y-105231567D01*
X147249883Y-105006526D01*
X147317300Y-104784285D01*
X147384717Y-105006526D01*
X147505004Y-105231567D01*
X147666883Y-105428818D01*
X147864134Y-105590697D01*
X148089175Y-105710983D01*
X148333358Y-105785056D01*
X148587300Y-105810067D01*
X148841243Y-105785056D01*
X149085426Y-105710983D01*
X149310467Y-105590697D01*
X149507718Y-105428818D01*
X149669597Y-105231567D01*
X149789883Y-105006526D01*
X149857300Y-104784285D01*
X149924717Y-105006526D01*
X150045004Y-105231567D01*
X150206883Y-105428818D01*
X150404134Y-105590697D01*
X150629175Y-105710983D01*
X150873358Y-105785056D01*
X151127300Y-105810067D01*
X151381243Y-105785056D01*
X151625426Y-105710983D01*
X151850467Y-105590697D01*
X152047718Y-105428818D01*
X152209597Y-105231567D01*
X152329883Y-105006526D01*
X152397300Y-104784285D01*
X152464717Y-105006526D01*
X152585004Y-105231567D01*
X152746883Y-105428818D01*
X152944134Y-105590697D01*
X153169175Y-105710983D01*
X153413358Y-105785056D01*
X153667300Y-105810067D01*
X153921243Y-105785056D01*
X154165426Y-105710983D01*
X154390467Y-105590697D01*
X154587718Y-105428818D01*
X154749597Y-105231567D01*
X154869883Y-105006526D01*
X154937300Y-104784285D01*
X155004717Y-105006526D01*
X155125004Y-105231567D01*
X155286883Y-105428818D01*
X155484134Y-105590697D01*
X155709175Y-105710983D01*
X155953358Y-105785056D01*
X156207300Y-105810067D01*
X156461243Y-105785056D01*
X156705426Y-105710983D01*
X156930467Y-105590697D01*
X157127718Y-105428818D01*
X157289597Y-105231567D01*
X157409883Y-105006526D01*
X157477300Y-104784285D01*
X157544717Y-105006526D01*
X157665004Y-105231567D01*
X157826883Y-105428818D01*
X158024134Y-105590697D01*
X158249175Y-105710983D01*
X158493358Y-105785056D01*
X158747300Y-105810067D01*
X159001243Y-105785056D01*
X159245426Y-105710983D01*
X159470467Y-105590697D01*
X159667718Y-105428818D01*
X159829597Y-105231567D01*
X159949883Y-105006526D01*
X160017300Y-104784285D01*
X160084717Y-105006526D01*
X160205004Y-105231567D01*
X160366883Y-105428818D01*
X160564134Y-105590697D01*
X160789175Y-105710983D01*
X161033358Y-105785056D01*
X161287300Y-105810067D01*
X161541243Y-105785056D01*
X161785426Y-105710983D01*
X162010467Y-105590697D01*
X162207718Y-105428818D01*
X162369597Y-105231567D01*
X162489883Y-105006526D01*
X162557300Y-104784285D01*
X162624717Y-105006526D01*
X162745004Y-105231567D01*
X162906883Y-105428818D01*
X163104134Y-105590697D01*
X163329175Y-105710983D01*
X163573358Y-105785056D01*
X163827300Y-105810067D01*
X164081243Y-105785056D01*
X164325426Y-105710983D01*
X164550467Y-105590697D01*
X164747718Y-105428818D01*
X164909597Y-105231567D01*
X165029883Y-105006526D01*
X165097300Y-104784285D01*
X165164717Y-105006526D01*
X165285004Y-105231567D01*
X165446883Y-105428818D01*
X165644134Y-105590697D01*
X165869175Y-105710983D01*
X166113358Y-105785056D01*
X166367300Y-105810067D01*
X166621243Y-105785056D01*
X166865426Y-105710983D01*
X167090467Y-105590697D01*
X167287718Y-105428818D01*
X167449597Y-105231567D01*
X167569883Y-105006526D01*
X167643956Y-104762343D01*
X167662700Y-104572030D01*
X167662700Y-104240000D01*
X180411928Y-104240000D01*
X180411928Y-106640000D01*
X180424188Y-106764482D01*
X180460498Y-106884180D01*
X180519463Y-106994494D01*
X180598815Y-107091185D01*
X180695506Y-107170537D01*
X180805820Y-107229502D01*
X180925518Y-107265812D01*
X181050000Y-107278072D01*
X183450000Y-107278072D01*
X183574482Y-107265812D01*
X183694180Y-107229502D01*
X183804494Y-107170537D01*
X183901185Y-107091185D01*
X183980537Y-106994494D01*
X184039502Y-106884180D01*
X184075812Y-106764482D01*
X184080999Y-106711806D01*
X187351801Y-106711806D01*
X187466500Y-107052754D01*
X187645511Y-107364774D01*
X187881954Y-107635875D01*
X188166743Y-107855639D01*
X188488934Y-108015621D01*
X188728195Y-108088195D01*
X189013000Y-107971432D01*
X189013000Y-106427000D01*
X187468146Y-106427000D01*
X187351801Y-106711806D01*
X184080999Y-106711806D01*
X184088072Y-106640000D01*
X184088072Y-105888194D01*
X187351801Y-105888194D01*
X187468146Y-106173000D01*
X189013000Y-106173000D01*
X189013000Y-104628568D01*
X188728195Y-104511805D01*
X188488934Y-104584379D01*
X188166743Y-104744361D01*
X187881954Y-104964125D01*
X187645511Y-105235226D01*
X187466500Y-105547246D01*
X187351801Y-105888194D01*
X184088072Y-105888194D01*
X184088072Y-104240000D01*
X184075812Y-104115518D01*
X184039502Y-103995820D01*
X183980537Y-103885506D01*
X183901185Y-103788815D01*
X183804494Y-103709463D01*
X183694180Y-103650498D01*
X183574482Y-103614188D01*
X183450000Y-103601928D01*
X183201588Y-103601928D01*
X183213097Y-103562702D01*
X182400000Y-102749605D01*
X181586903Y-103562702D01*
X181598412Y-103601928D01*
X181050000Y-103601928D01*
X180925518Y-103614188D01*
X180805820Y-103650498D01*
X180695506Y-103709463D01*
X180598815Y-103788815D01*
X180519463Y-103885506D01*
X180460498Y-103995820D01*
X180424188Y-104115518D01*
X180411928Y-104240000D01*
X167662700Y-104240000D01*
X167662700Y-103123970D01*
X167643956Y-102933657D01*
X167569883Y-102689474D01*
X167543713Y-102640512D01*
X180959783Y-102640512D01*
X181001213Y-102920130D01*
X181096397Y-103186292D01*
X181163329Y-103311514D01*
X181407298Y-103383097D01*
X182220395Y-102570000D01*
X182579605Y-102570000D01*
X183392702Y-103383097D01*
X183636671Y-103311514D01*
X183650324Y-103282659D01*
X183785363Y-103484759D01*
X183985241Y-103684637D01*
X184220273Y-103841680D01*
X184481426Y-103949853D01*
X184758665Y-104005000D01*
X185041335Y-104005000D01*
X185318574Y-103949853D01*
X185579727Y-103841680D01*
X185814759Y-103684637D01*
X186014637Y-103484759D01*
X186171680Y-103249727D01*
X186279853Y-102988574D01*
X186335000Y-102711335D01*
X186335000Y-102428665D01*
X186279853Y-102151426D01*
X186171680Y-101890273D01*
X186014637Y-101655241D01*
X185814759Y-101455363D01*
X185579727Y-101298320D01*
X185318574Y-101190147D01*
X185041335Y-101135000D01*
X184758665Y-101135000D01*
X184481426Y-101190147D01*
X184220273Y-101298320D01*
X183985241Y-101455363D01*
X183785363Y-101655241D01*
X183651308Y-101855869D01*
X183636671Y-101828486D01*
X183392702Y-101756903D01*
X182579605Y-102570000D01*
X182220395Y-102570000D01*
X181407298Y-101756903D01*
X181163329Y-101828486D01*
X181042429Y-102083996D01*
X180973700Y-102358184D01*
X180959783Y-102640512D01*
X167543713Y-102640512D01*
X167449597Y-102464433D01*
X167287718Y-102267182D01*
X167090466Y-102105303D01*
X166865425Y-101985017D01*
X166621242Y-101910944D01*
X166367300Y-101885933D01*
X166113357Y-101910944D01*
X165869174Y-101985017D01*
X165644133Y-102105303D01*
X165446882Y-102267182D01*
X165285003Y-102464434D01*
X165164717Y-102689475D01*
X165097300Y-102911716D01*
X165029883Y-102689474D01*
X164909597Y-102464433D01*
X164747718Y-102267182D01*
X164550466Y-102105303D01*
X164325425Y-101985017D01*
X164081242Y-101910944D01*
X163827300Y-101885933D01*
X163595647Y-101908749D01*
X163764637Y-101739759D01*
X163873189Y-101577298D01*
X181586903Y-101577298D01*
X182400000Y-102390395D01*
X183213097Y-101577298D01*
X183141514Y-101333329D01*
X182886004Y-101212429D01*
X182611816Y-101143700D01*
X182329488Y-101129783D01*
X182049870Y-101171213D01*
X181783708Y-101266397D01*
X181658486Y-101333329D01*
X181586903Y-101577298D01*
X163873189Y-101577298D01*
X163921680Y-101504727D01*
X164029853Y-101243574D01*
X164085000Y-100966335D01*
X164085000Y-100683665D01*
X164029853Y-100406426D01*
X163921680Y-100145273D01*
X163764637Y-99910241D01*
X163564759Y-99710363D01*
X163329727Y-99553320D01*
X163068574Y-99445147D01*
X162791335Y-99390000D01*
X162508665Y-99390000D01*
X162231426Y-99445147D01*
X161970273Y-99553320D01*
X161735241Y-99710363D01*
X161535363Y-99910241D01*
X161449997Y-100038000D01*
X159351905Y-100038000D01*
X159216525Y-99947542D01*
X159167966Y-99927428D01*
X159427412Y-99940217D01*
X159707030Y-99898787D01*
X159973192Y-99803603D01*
X160098414Y-99736671D01*
X160169997Y-99492702D01*
X159356900Y-98679605D01*
X158543803Y-99492702D01*
X158615386Y-99736671D01*
X158822772Y-99834800D01*
X158649734Y-99834800D01*
X158458353Y-99872868D01*
X158278075Y-99947542D01*
X158115829Y-100055951D01*
X157977851Y-100193929D01*
X157869442Y-100356175D01*
X157794768Y-100536453D01*
X157756700Y-100727834D01*
X157756700Y-100922966D01*
X157794768Y-101114347D01*
X157869442Y-101294625D01*
X157977851Y-101456871D01*
X158115829Y-101594849D01*
X158278075Y-101703258D01*
X158458353Y-101777932D01*
X158649734Y-101816000D01*
X158844866Y-101816000D01*
X159036247Y-101777932D01*
X159216525Y-101703258D01*
X159351905Y-101612800D01*
X161450532Y-101612800D01*
X161535363Y-101739759D01*
X161735241Y-101939637D01*
X161874063Y-102032394D01*
X161785425Y-101985017D01*
X161541242Y-101910944D01*
X161287300Y-101885933D01*
X161033357Y-101910944D01*
X160789174Y-101985017D01*
X160564133Y-102105303D01*
X160366882Y-102267182D01*
X160205003Y-102464434D01*
X160084717Y-102689475D01*
X160017300Y-102911716D01*
X159949883Y-102689474D01*
X159829597Y-102464433D01*
X159667718Y-102267182D01*
X159470466Y-102105303D01*
X159245425Y-101985017D01*
X159001242Y-101910944D01*
X158747300Y-101885933D01*
X158493357Y-101910944D01*
X158249174Y-101985017D01*
X158024133Y-102105303D01*
X157826882Y-102267182D01*
X157665003Y-102464434D01*
X157544717Y-102689475D01*
X157477300Y-102911716D01*
X157409883Y-102689474D01*
X157289597Y-102464433D01*
X157127718Y-102267182D01*
X157125841Y-102265641D01*
X157164759Y-102239637D01*
X157364637Y-102039759D01*
X157521680Y-101804727D01*
X157629853Y-101543574D01*
X157685000Y-101266335D01*
X157685000Y-100983665D01*
X157629853Y-100706426D01*
X157521680Y-100445273D01*
X157364637Y-100210241D01*
X157164759Y-100010363D01*
X156929727Y-99853320D01*
X156668574Y-99745147D01*
X156391335Y-99690000D01*
X156108665Y-99690000D01*
X155831426Y-99745147D01*
X155570273Y-99853320D01*
X155335241Y-100010363D01*
X155135363Y-100210241D01*
X154978320Y-100445273D01*
X154870147Y-100706426D01*
X154815000Y-100983665D01*
X154815000Y-101266335D01*
X154870147Y-101543574D01*
X154978320Y-101804727D01*
X155135363Y-102039759D01*
X155328572Y-102232968D01*
X155286882Y-102267182D01*
X155125003Y-102464434D01*
X155004717Y-102689475D01*
X154937300Y-102911716D01*
X154869883Y-102689474D01*
X154749597Y-102464433D01*
X154587718Y-102267182D01*
X154390466Y-102105303D01*
X154165425Y-101985017D01*
X153921242Y-101910944D01*
X153667300Y-101885933D01*
X153413357Y-101910944D01*
X153169174Y-101985017D01*
X152944133Y-102105303D01*
X152746882Y-102267182D01*
X152585003Y-102464434D01*
X152464717Y-102689475D01*
X152397300Y-102911716D01*
X152329883Y-102689474D01*
X152209597Y-102464433D01*
X152047718Y-102267182D01*
X151850466Y-102105303D01*
X151625425Y-101985017D01*
X151381242Y-101910944D01*
X151127300Y-101885933D01*
X150873357Y-101910944D01*
X150629174Y-101985017D01*
X150404133Y-102105303D01*
X150206882Y-102267182D01*
X150045003Y-102464434D01*
X149924717Y-102689475D01*
X149857300Y-102911716D01*
X149789883Y-102689474D01*
X149669597Y-102464433D01*
X149507718Y-102267182D01*
X149310466Y-102105303D01*
X149085425Y-101985017D01*
X149063877Y-101978481D01*
X149196680Y-101779727D01*
X149304853Y-101518574D01*
X149360000Y-101241335D01*
X149360000Y-100958665D01*
X149304853Y-100681426D01*
X149196680Y-100420273D01*
X149039637Y-100185241D01*
X148839759Y-99985363D01*
X148604727Y-99828320D01*
X148343574Y-99720147D01*
X148066335Y-99665000D01*
X152710005Y-99665000D01*
X152714768Y-99688947D01*
X152789442Y-99869225D01*
X152897851Y-100031471D01*
X153035829Y-100169449D01*
X153198075Y-100277858D01*
X153378353Y-100352532D01*
X153569734Y-100390600D01*
X153764866Y-100390600D01*
X153956247Y-100352532D01*
X154136525Y-100277858D01*
X154298771Y-100169449D01*
X154436749Y-100031471D01*
X154545158Y-99869225D01*
X154619832Y-99688947D01*
X154657900Y-99497566D01*
X154657900Y-99302434D01*
X154619832Y-99111053D01*
X154545158Y-98930775D01*
X154436749Y-98768529D01*
X154298771Y-98630551D01*
X154136525Y-98522142D01*
X154028509Y-98477400D01*
X156111337Y-98477400D01*
X156150000Y-98481208D01*
X156188663Y-98477400D01*
X156188673Y-98477400D01*
X156304357Y-98466006D01*
X156452783Y-98420982D01*
X156589572Y-98347866D01*
X156709469Y-98249469D01*
X156734127Y-98219423D01*
X156922150Y-98031400D01*
X157994966Y-98031400D01*
X157930600Y-98288184D01*
X157916683Y-98570512D01*
X157958113Y-98850130D01*
X158053297Y-99116292D01*
X158120229Y-99241514D01*
X158364198Y-99313097D01*
X159177295Y-98500000D01*
X159163153Y-98485858D01*
X159342758Y-98306253D01*
X159356900Y-98320395D01*
X159371043Y-98306253D01*
X159550648Y-98485858D01*
X159536505Y-98500000D01*
X160349602Y-99313097D01*
X160593571Y-99241514D01*
X160635594Y-99152702D01*
X181586903Y-99152702D01*
X181658486Y-99396671D01*
X181913996Y-99517571D01*
X182188184Y-99586300D01*
X182470512Y-99600217D01*
X182750130Y-99558787D01*
X183016292Y-99463603D01*
X183141514Y-99396671D01*
X183213097Y-99152702D01*
X182400000Y-98339605D01*
X181586903Y-99152702D01*
X160635594Y-99152702D01*
X160714471Y-98986004D01*
X160783200Y-98711816D01*
X160797117Y-98429488D01*
X160755687Y-98149870D01*
X160713320Y-98031400D01*
X166931095Y-98031400D01*
X167066475Y-98121858D01*
X167246753Y-98196532D01*
X167438134Y-98234600D01*
X167633266Y-98234600D01*
X167653817Y-98230512D01*
X180959783Y-98230512D01*
X181001213Y-98510130D01*
X181096397Y-98776292D01*
X181163329Y-98901514D01*
X181407298Y-98973097D01*
X182220395Y-98160000D01*
X182579605Y-98160000D01*
X183392702Y-98973097D01*
X183461928Y-98952785D01*
X183461928Y-98960000D01*
X183474188Y-99084482D01*
X183510498Y-99204180D01*
X183569463Y-99314494D01*
X183648815Y-99411185D01*
X183745506Y-99490537D01*
X183855820Y-99549502D01*
X183975518Y-99585812D01*
X184100000Y-99598072D01*
X185700000Y-99598072D01*
X185824482Y-99585812D01*
X185944180Y-99549502D01*
X186054494Y-99490537D01*
X186151185Y-99411185D01*
X186230537Y-99314494D01*
X186289502Y-99204180D01*
X186325812Y-99084482D01*
X186338072Y-98960000D01*
X186338072Y-97360000D01*
X186325812Y-97235518D01*
X186289502Y-97115820D01*
X186230537Y-97005506D01*
X186151185Y-96908815D01*
X186054494Y-96829463D01*
X185944180Y-96770498D01*
X185824482Y-96734188D01*
X185700000Y-96721928D01*
X184100000Y-96721928D01*
X183975518Y-96734188D01*
X183855820Y-96770498D01*
X183745506Y-96829463D01*
X183648815Y-96908815D01*
X183569463Y-97005506D01*
X183510498Y-97115820D01*
X183474188Y-97235518D01*
X183461928Y-97360000D01*
X183461928Y-97367215D01*
X183392702Y-97346903D01*
X182579605Y-98160000D01*
X182220395Y-98160000D01*
X181407298Y-97346903D01*
X181163329Y-97418486D01*
X181042429Y-97673996D01*
X180973700Y-97948184D01*
X180959783Y-98230512D01*
X167653817Y-98230512D01*
X167824647Y-98196532D01*
X168004925Y-98121858D01*
X168167171Y-98013449D01*
X168305149Y-97875471D01*
X168413558Y-97713225D01*
X168488232Y-97532947D01*
X168526300Y-97341566D01*
X168526300Y-97167298D01*
X181586903Y-97167298D01*
X182400000Y-97980395D01*
X183213097Y-97167298D01*
X183141514Y-96923329D01*
X182886004Y-96802429D01*
X182611816Y-96733700D01*
X182329488Y-96719783D01*
X182049870Y-96761213D01*
X181783708Y-96856397D01*
X181658486Y-96923329D01*
X181586903Y-97167298D01*
X168526300Y-97167298D01*
X168526300Y-97146434D01*
X168488232Y-96955053D01*
X168413558Y-96774775D01*
X168305149Y-96612529D01*
X168167171Y-96474551D01*
X168004925Y-96366142D01*
X167824647Y-96291468D01*
X167633266Y-96253400D01*
X167438134Y-96253400D01*
X167246753Y-96291468D01*
X167066475Y-96366142D01*
X166931095Y-96456600D01*
X160721002Y-96456600D01*
X160736753Y-96418574D01*
X160791900Y-96141335D01*
X160791900Y-95858665D01*
X160736753Y-95581426D01*
X160628580Y-95320273D01*
X160471537Y-95085241D01*
X160271659Y-94885363D01*
X160036627Y-94728320D01*
X159775474Y-94620147D01*
X159498235Y-94565000D01*
X159215565Y-94565000D01*
X159087020Y-94590570D01*
X159001227Y-94504777D01*
X158976569Y-94474731D01*
X158856672Y-94376334D01*
X158719883Y-94303218D01*
X158571457Y-94258194D01*
X158455773Y-94246800D01*
X158455763Y-94246800D01*
X158417100Y-94242992D01*
X158378437Y-94246800D01*
X157470353Y-94246800D01*
X157547070Y-94118881D01*
X157641909Y-93854040D01*
X157520624Y-93632000D01*
X156377000Y-93632000D01*
X156377000Y-93652000D01*
X156123000Y-93652000D01*
X156123000Y-93632000D01*
X154979376Y-93632000D01*
X154858091Y-93854040D01*
X154952930Y-94118881D01*
X155029647Y-94246800D01*
X154497398Y-94246800D01*
X154556300Y-94011816D01*
X154570217Y-93729488D01*
X154528787Y-93449870D01*
X154433603Y-93183708D01*
X154366671Y-93058486D01*
X154122702Y-92986903D01*
X153309605Y-93800000D01*
X153323748Y-93814143D01*
X153144143Y-93993748D01*
X153130000Y-93979605D01*
X153115858Y-93993748D01*
X152936253Y-93814143D01*
X152950395Y-93800000D01*
X152137298Y-92986903D01*
X151893329Y-93058486D01*
X151772429Y-93313996D01*
X151703700Y-93588184D01*
X151689783Y-93870512D01*
X151731213Y-94150130D01*
X151765784Y-94246800D01*
X150940600Y-94246800D01*
X150940600Y-94132434D01*
X150902532Y-93941053D01*
X150855864Y-93828386D01*
X152234712Y-92449539D01*
X152498900Y-92475559D01*
X152599753Y-92465626D01*
X152513708Y-92496397D01*
X152388486Y-92563329D01*
X152316903Y-92807298D01*
X153130000Y-93620395D01*
X153943097Y-92807298D01*
X153871514Y-92563329D01*
X153616004Y-92442429D01*
X153341816Y-92373700D01*
X153059488Y-92359783D01*
X153050214Y-92361157D01*
X153278787Y-92238983D01*
X153491508Y-92064408D01*
X153666083Y-91851687D01*
X153768901Y-91659328D01*
X153871718Y-91851687D01*
X154046293Y-92064408D01*
X154259014Y-92238983D01*
X154501706Y-92368704D01*
X154765041Y-92448586D01*
X155038900Y-92475559D01*
X155276944Y-92452114D01*
X155097615Y-92649869D01*
X154952930Y-92891119D01*
X154858091Y-93155960D01*
X154979376Y-93378000D01*
X156123000Y-93378000D01*
X156123000Y-92235085D01*
X155943622Y-92136534D01*
X156031508Y-92064408D01*
X156206083Y-91851687D01*
X156309938Y-91657387D01*
X156336841Y-91723742D01*
X156487894Y-91953529D01*
X156664698Y-92133011D01*
X156599039Y-92113096D01*
X156377000Y-92235085D01*
X156377000Y-93378000D01*
X157520624Y-93378000D01*
X157615121Y-93205000D01*
X161208057Y-93205000D01*
X161235764Y-93486309D01*
X161317818Y-93756808D01*
X161451068Y-94006101D01*
X161630392Y-94224608D01*
X161848899Y-94403932D01*
X162098192Y-94537182D01*
X162368691Y-94619236D01*
X162579508Y-94640000D01*
X162720492Y-94640000D01*
X162931309Y-94619236D01*
X163201808Y-94537182D01*
X163451101Y-94403932D01*
X163669608Y-94224608D01*
X163748346Y-94128665D01*
X170805000Y-94128665D01*
X170805000Y-94411335D01*
X170860147Y-94688574D01*
X170968320Y-94949727D01*
X171125363Y-95184759D01*
X171325241Y-95384637D01*
X171560273Y-95541680D01*
X171821426Y-95649853D01*
X172098665Y-95705000D01*
X172381335Y-95705000D01*
X172658574Y-95649853D01*
X172919727Y-95541680D01*
X173154759Y-95384637D01*
X173354637Y-95184759D01*
X173511680Y-94949727D01*
X173619853Y-94688574D01*
X173675000Y-94411335D01*
X173675000Y-94270000D01*
X180958057Y-94270000D01*
X180985764Y-94551309D01*
X181067818Y-94821808D01*
X181201068Y-95071101D01*
X181380392Y-95289608D01*
X181598899Y-95468932D01*
X181848192Y-95602182D01*
X182118691Y-95684236D01*
X182329508Y-95705000D01*
X182470492Y-95705000D01*
X182681309Y-95684236D01*
X182951808Y-95602182D01*
X183201101Y-95468932D01*
X183419608Y-95289608D01*
X183598932Y-95071101D01*
X183732182Y-94821808D01*
X183814236Y-94551309D01*
X183841943Y-94270000D01*
X183814236Y-93988691D01*
X183732182Y-93718192D01*
X183598932Y-93468899D01*
X183419608Y-93250392D01*
X183201101Y-93071068D01*
X182951808Y-92937818D01*
X182681309Y-92855764D01*
X182470492Y-92835000D01*
X182329508Y-92835000D01*
X182118691Y-92855764D01*
X181848192Y-92937818D01*
X181598899Y-93071068D01*
X181380392Y-93250392D01*
X181201068Y-93468899D01*
X181067818Y-93718192D01*
X180985764Y-93988691D01*
X180958057Y-94270000D01*
X173675000Y-94270000D01*
X173675000Y-94128665D01*
X173619853Y-93851426D01*
X173511680Y-93590273D01*
X173354637Y-93355241D01*
X173154759Y-93155363D01*
X172919727Y-92998320D01*
X172658574Y-92890147D01*
X172381335Y-92835000D01*
X172098665Y-92835000D01*
X171821426Y-92890147D01*
X171560273Y-92998320D01*
X171325241Y-93155363D01*
X171125363Y-93355241D01*
X170968320Y-93590273D01*
X170860147Y-93851426D01*
X170805000Y-94128665D01*
X163748346Y-94128665D01*
X163848932Y-94006101D01*
X163982182Y-93756808D01*
X164064236Y-93486309D01*
X164091943Y-93205000D01*
X164064236Y-92923691D01*
X163982182Y-92653192D01*
X163848932Y-92403899D01*
X163669608Y-92185392D01*
X163451101Y-92006068D01*
X163201808Y-91872818D01*
X162931309Y-91790764D01*
X162720492Y-91770000D01*
X162579508Y-91770000D01*
X162368691Y-91790764D01*
X162098192Y-91872818D01*
X161848899Y-92006068D01*
X161630392Y-92185392D01*
X161451068Y-92403899D01*
X161317818Y-92653192D01*
X161235764Y-92923691D01*
X161208057Y-93205000D01*
X157615121Y-93205000D01*
X157641909Y-93155960D01*
X157547070Y-92891119D01*
X157402385Y-92649869D01*
X157213414Y-92441481D01*
X157176393Y-92414039D01*
X157235830Y-92426020D01*
X157451900Y-92303520D01*
X157451900Y-90436800D01*
X157705900Y-90436800D01*
X157705900Y-92303520D01*
X157921970Y-92426020D01*
X157996176Y-92411062D01*
X158249435Y-92303922D01*
X158476926Y-92149432D01*
X158669906Y-91953529D01*
X158820959Y-91723742D01*
X158924281Y-91468901D01*
X158975900Y-91198800D01*
X158975900Y-90436800D01*
X157705900Y-90436800D01*
X157451900Y-90436800D01*
X157431900Y-90436800D01*
X157431900Y-90182800D01*
X157451900Y-90182800D01*
X157451900Y-90162800D01*
X157705900Y-90162800D01*
X157705900Y-90182800D01*
X158975900Y-90182800D01*
X158975900Y-89420800D01*
X158924281Y-89150699D01*
X158913785Y-89124810D01*
X160063111Y-89124810D01*
X159860241Y-89260363D01*
X159660363Y-89460241D01*
X159503320Y-89695273D01*
X159395147Y-89956426D01*
X159340000Y-90233665D01*
X159340000Y-90516335D01*
X159395147Y-90793574D01*
X159503320Y-91054727D01*
X159660363Y-91289759D01*
X159860241Y-91489637D01*
X160095273Y-91646680D01*
X160356426Y-91754853D01*
X160633665Y-91810000D01*
X160916335Y-91810000D01*
X161193574Y-91754853D01*
X161454727Y-91646680D01*
X161689759Y-91489637D01*
X161889637Y-91289759D01*
X162046680Y-91054727D01*
X162154853Y-90793574D01*
X162210000Y-90516335D01*
X162210000Y-90233665D01*
X162154853Y-89956426D01*
X162046680Y-89695273D01*
X161889637Y-89460241D01*
X161689759Y-89260363D01*
X161486889Y-89124810D01*
X167689796Y-89124810D01*
X167593899Y-89176068D01*
X167375392Y-89355392D01*
X167196068Y-89573899D01*
X167062818Y-89823192D01*
X166980764Y-90093691D01*
X166953057Y-90375000D01*
X166980764Y-90656309D01*
X167062818Y-90926808D01*
X167196068Y-91176101D01*
X167375392Y-91394608D01*
X167593899Y-91573932D01*
X167843192Y-91707182D01*
X168113691Y-91789236D01*
X168324508Y-91810000D01*
X168465492Y-91810000D01*
X168676309Y-91789236D01*
X168946808Y-91707182D01*
X169196101Y-91573932D01*
X169414608Y-91394608D01*
X169593932Y-91176101D01*
X169727182Y-90926808D01*
X169809236Y-90656309D01*
X169836943Y-90375000D01*
X169809236Y-90093691D01*
X169727182Y-89823192D01*
X169593932Y-89573899D01*
X169414608Y-89355392D01*
X169196101Y-89176068D01*
X169100204Y-89124810D01*
X170881260Y-89124810D01*
X171839562Y-90083112D01*
X171761552Y-90340277D01*
X171726122Y-90700000D01*
X171761552Y-91059723D01*
X171866479Y-91405622D01*
X172036871Y-91724404D01*
X172266181Y-92003819D01*
X172545596Y-92233129D01*
X172864378Y-92403521D01*
X173210277Y-92508448D01*
X173479861Y-92535000D01*
X173660139Y-92535000D01*
X173929723Y-92508448D01*
X174275622Y-92403521D01*
X174594404Y-92233129D01*
X174873819Y-92003819D01*
X175103129Y-91724404D01*
X175273521Y-91405622D01*
X175378448Y-91059723D01*
X175413878Y-90700000D01*
X175378448Y-90340277D01*
X175273521Y-89994378D01*
X175103129Y-89675596D01*
X174959022Y-89500000D01*
X181891928Y-89500000D01*
X181891928Y-91900000D01*
X181904188Y-92024482D01*
X181940498Y-92144180D01*
X181999463Y-92254494D01*
X182078815Y-92351185D01*
X182175506Y-92430537D01*
X182285820Y-92489502D01*
X182405518Y-92525812D01*
X182530000Y-92538072D01*
X184930000Y-92538072D01*
X185054482Y-92525812D01*
X185174180Y-92489502D01*
X185284494Y-92430537D01*
X185381185Y-92351185D01*
X185460537Y-92254494D01*
X185519502Y-92144180D01*
X185555812Y-92024482D01*
X185568072Y-91900000D01*
X185568072Y-89500000D01*
X185555812Y-89375518D01*
X185519502Y-89255820D01*
X185460537Y-89145506D01*
X185381185Y-89048815D01*
X185284494Y-88969463D01*
X185174180Y-88910498D01*
X185054482Y-88874188D01*
X184930000Y-88861928D01*
X182530000Y-88861928D01*
X182405518Y-88874188D01*
X182285820Y-88910498D01*
X182175506Y-88969463D01*
X182078815Y-89048815D01*
X181999463Y-89145506D01*
X181940498Y-89255820D01*
X181904188Y-89375518D01*
X181891928Y-89500000D01*
X174959022Y-89500000D01*
X174873819Y-89396181D01*
X174594404Y-89166871D01*
X174275622Y-88996479D01*
X173929723Y-88891552D01*
X173660139Y-88865000D01*
X173479861Y-88865000D01*
X173210277Y-88891552D01*
X172953112Y-88969562D01*
X172603509Y-88619959D01*
X187476939Y-88619994D01*
X187476939Y-88619994D01*
G37*
X187476939Y-88619994D02*
X187211862Y-88885071D01*
X186967269Y-89251131D01*
X186798790Y-89657875D01*
X186712900Y-90089672D01*
X186712900Y-90529928D01*
X186798790Y-90961725D01*
X186967269Y-91368469D01*
X187211862Y-91734529D01*
X187523171Y-92045838D01*
X187889231Y-92290431D01*
X188295975Y-92458910D01*
X188727772Y-92544800D01*
X189168028Y-92544800D01*
X189599825Y-92458910D01*
X190006569Y-92290431D01*
X190372629Y-92045838D01*
X190683938Y-91734529D01*
X190730480Y-91664873D01*
X190729630Y-94438298D01*
X190694494Y-94409463D01*
X190584180Y-94350498D01*
X190464482Y-94314188D01*
X190340000Y-94301928D01*
X187940000Y-94301928D01*
X187815518Y-94314188D01*
X187695820Y-94350498D01*
X187585506Y-94409463D01*
X187488815Y-94488815D01*
X187409463Y-94585506D01*
X187350498Y-94695820D01*
X187314188Y-94815518D01*
X187301928Y-94940000D01*
X187301928Y-97340000D01*
X187314188Y-97464482D01*
X187350498Y-97584180D01*
X187409463Y-97694494D01*
X187488815Y-97791185D01*
X187585506Y-97870537D01*
X187695820Y-97929502D01*
X187815518Y-97965812D01*
X187940000Y-97978072D01*
X190340000Y-97978072D01*
X190464482Y-97965812D01*
X190584180Y-97929502D01*
X190694494Y-97870537D01*
X190728585Y-97842559D01*
X190726269Y-105395200D01*
X190634489Y-105235226D01*
X190398046Y-104964125D01*
X190113257Y-104744361D01*
X189791066Y-104584379D01*
X189551805Y-104511805D01*
X189267000Y-104628568D01*
X189267000Y-106173000D01*
X189287000Y-106173000D01*
X189287000Y-106427000D01*
X189267000Y-106427000D01*
X189267000Y-107971432D01*
X189551805Y-108088195D01*
X189791066Y-108015621D01*
X190113257Y-107855639D01*
X190398046Y-107635875D01*
X190634489Y-107364774D01*
X190725713Y-107205768D01*
X190721834Y-119853586D01*
X190683938Y-119796871D01*
X190372629Y-119485562D01*
X190006569Y-119240969D01*
X189599825Y-119072490D01*
X189168028Y-118986600D01*
X188727772Y-118986600D01*
X188295975Y-119072490D01*
X187889231Y-119240969D01*
X187523171Y-119485562D01*
X187211862Y-119796871D01*
X186967269Y-120162931D01*
X186798790Y-120569675D01*
X186712900Y-121001472D01*
X186712900Y-121441728D01*
X186798790Y-121873525D01*
X186967269Y-122280269D01*
X187211862Y-122646329D01*
X187486650Y-122921117D01*
X154172628Y-122920610D01*
X154180432Y-122911101D01*
X154313682Y-122661808D01*
X154395736Y-122391309D01*
X154423443Y-122110000D01*
X154395736Y-121828691D01*
X154313682Y-121558192D01*
X154180432Y-121308899D01*
X154001108Y-121090392D01*
X153782601Y-120911068D01*
X153533308Y-120777818D01*
X153262809Y-120695764D01*
X153051992Y-120675000D01*
X152911008Y-120675000D01*
X152700191Y-120695764D01*
X152429692Y-120777818D01*
X152180399Y-120911068D01*
X151961892Y-121090392D01*
X151782568Y-121308899D01*
X151649318Y-121558192D01*
X151567264Y-121828691D01*
X151539557Y-122110000D01*
X151567264Y-122391309D01*
X151649318Y-122661808D01*
X151782568Y-122911101D01*
X151790342Y-122920574D01*
X141638633Y-122920419D01*
X141688414Y-122883519D01*
X141877385Y-122675131D01*
X142022070Y-122433881D01*
X142116909Y-122169040D01*
X141995625Y-121947002D01*
X142033451Y-121947002D01*
X142635877Y-122549428D01*
X142660531Y-122579469D01*
X142690570Y-122604121D01*
X142780427Y-122677866D01*
X142886866Y-122734759D01*
X142917217Y-122750982D01*
X143065643Y-122796006D01*
X143181327Y-122807400D01*
X143181337Y-122807400D01*
X143220000Y-122811208D01*
X143258663Y-122807400D01*
X147791337Y-122807400D01*
X147830000Y-122811208D01*
X147868663Y-122807400D01*
X147868673Y-122807400D01*
X147984357Y-122796006D01*
X148132783Y-122750982D01*
X148269572Y-122677866D01*
X148389469Y-122579469D01*
X148414127Y-122549423D01*
X149134121Y-121829430D01*
X149134125Y-121829425D01*
X149983434Y-120980117D01*
X150133665Y-121010000D01*
X150416335Y-121010000D01*
X150693574Y-120954853D01*
X150954727Y-120846680D01*
X151189759Y-120689637D01*
X151389637Y-120489759D01*
X151460704Y-120383400D01*
X152376895Y-120383400D01*
X152512275Y-120473858D01*
X152692553Y-120548532D01*
X152883934Y-120586600D01*
X153079066Y-120586600D01*
X153270447Y-120548532D01*
X153450725Y-120473858D01*
X153612971Y-120365449D01*
X153750949Y-120227471D01*
X153859358Y-120065225D01*
X153934032Y-119884947D01*
X153972100Y-119693566D01*
X153972100Y-119498434D01*
X153934032Y-119307053D01*
X153859358Y-119126775D01*
X153750949Y-118964529D01*
X153645820Y-118859400D01*
X154200700Y-118859400D01*
X154200700Y-118880766D01*
X154238768Y-119072147D01*
X154313442Y-119252425D01*
X154421851Y-119414671D01*
X154559829Y-119552649D01*
X154722075Y-119661058D01*
X154902353Y-119735732D01*
X155093734Y-119773800D01*
X155288866Y-119773800D01*
X155480247Y-119735732D01*
X155498853Y-119728025D01*
X155496100Y-119755976D01*
X155496100Y-121417225D01*
X155516314Y-121622460D01*
X155596197Y-121885795D01*
X155725918Y-122128487D01*
X155900493Y-122341208D01*
X156113214Y-122515783D01*
X156355906Y-122645504D01*
X156619241Y-122725386D01*
X156893100Y-122752359D01*
X157166960Y-122725386D01*
X157430295Y-122645504D01*
X157672987Y-122515783D01*
X157885708Y-122341208D01*
X158060283Y-122128487D01*
X158163101Y-121936128D01*
X158265918Y-122128487D01*
X158440493Y-122341208D01*
X158653214Y-122515783D01*
X158895906Y-122645504D01*
X159159241Y-122725386D01*
X159433100Y-122752359D01*
X159706960Y-122725386D01*
X159970295Y-122645504D01*
X160212987Y-122515783D01*
X160425708Y-122341208D01*
X160600283Y-122128487D01*
X160703101Y-121936128D01*
X160805918Y-122128487D01*
X160980493Y-122341208D01*
X161193214Y-122515783D01*
X161435906Y-122645504D01*
X161699241Y-122725386D01*
X161973100Y-122752359D01*
X162246960Y-122725386D01*
X162510295Y-122645504D01*
X162752987Y-122515783D01*
X162965708Y-122341208D01*
X163140283Y-122128487D01*
X163243101Y-121936128D01*
X163345918Y-122128487D01*
X163520493Y-122341208D01*
X163733214Y-122515783D01*
X163975906Y-122645504D01*
X164239241Y-122725386D01*
X164513100Y-122752359D01*
X164786960Y-122725386D01*
X165050295Y-122645504D01*
X165292987Y-122515783D01*
X165505708Y-122341208D01*
X165680283Y-122128487D01*
X165784138Y-121934187D01*
X165811041Y-122000542D01*
X165962094Y-122230329D01*
X166155074Y-122426232D01*
X166382565Y-122580722D01*
X166635824Y-122687862D01*
X166710030Y-122702820D01*
X166926100Y-122580320D01*
X166926100Y-120713600D01*
X166906100Y-120713600D01*
X166906100Y-120459600D01*
X166926100Y-120459600D01*
X166926100Y-120439600D01*
X167180100Y-120439600D01*
X167180100Y-120459600D01*
X167200100Y-120459600D01*
X167200100Y-120713600D01*
X167180100Y-120713600D01*
X167180100Y-122580320D01*
X167396170Y-122702820D01*
X167470376Y-122687862D01*
X167723635Y-122580722D01*
X167951126Y-122426232D01*
X168144106Y-122230329D01*
X168295159Y-122000542D01*
X168322062Y-121934186D01*
X168425918Y-122128487D01*
X168600493Y-122341208D01*
X168813214Y-122515783D01*
X169055906Y-122645504D01*
X169319241Y-122725386D01*
X169593100Y-122752359D01*
X169866960Y-122725386D01*
X170130295Y-122645504D01*
X170372987Y-122515783D01*
X170585708Y-122341208D01*
X170760283Y-122128487D01*
X170890004Y-121885795D01*
X170937385Y-121729600D01*
X172312815Y-121729600D01*
X172360197Y-121885795D01*
X172489918Y-122128487D01*
X172664493Y-122341208D01*
X172877214Y-122515783D01*
X173119906Y-122645504D01*
X173383241Y-122725386D01*
X173657100Y-122752359D01*
X173930960Y-122725386D01*
X174194295Y-122645504D01*
X174436987Y-122515783D01*
X174649708Y-122341208D01*
X174824283Y-122128487D01*
X174928138Y-121934187D01*
X174955041Y-122000542D01*
X175106094Y-122230329D01*
X175299074Y-122426232D01*
X175526565Y-122580722D01*
X175779824Y-122687862D01*
X175854030Y-122702820D01*
X176070100Y-122580320D01*
X176070100Y-120713600D01*
X176050100Y-120713600D01*
X176050100Y-120459600D01*
X176070100Y-120459600D01*
X176070100Y-120439600D01*
X176324100Y-120439600D01*
X176324100Y-120459600D01*
X176344100Y-120459600D01*
X176344100Y-120713600D01*
X176324100Y-120713600D01*
X176324100Y-122580320D01*
X176540170Y-122702820D01*
X176614376Y-122687862D01*
X176867635Y-122580722D01*
X177095126Y-122426232D01*
X177288106Y-122230329D01*
X177439159Y-122000542D01*
X177466062Y-121934186D01*
X177569918Y-122128487D01*
X177744493Y-122341208D01*
X177957214Y-122515783D01*
X178199906Y-122645504D01*
X178463241Y-122725386D01*
X178737100Y-122752359D01*
X179010960Y-122725386D01*
X179274295Y-122645504D01*
X179516987Y-122515783D01*
X179729708Y-122341208D01*
X179904283Y-122128487D01*
X180007101Y-121936128D01*
X180109918Y-122128487D01*
X180284493Y-122341208D01*
X180497214Y-122515783D01*
X180739906Y-122645504D01*
X181003241Y-122725386D01*
X181277100Y-122752359D01*
X181550960Y-122725386D01*
X181814295Y-122645504D01*
X182056987Y-122515783D01*
X182269708Y-122341208D01*
X182444283Y-122128487D01*
X182547101Y-121936128D01*
X182649918Y-122128487D01*
X182824493Y-122341208D01*
X183037214Y-122515783D01*
X183279906Y-122645504D01*
X183543241Y-122725386D01*
X183817100Y-122752359D01*
X184090960Y-122725386D01*
X184354295Y-122645504D01*
X184596987Y-122515783D01*
X184809708Y-122341208D01*
X184984283Y-122128487D01*
X185114004Y-121885795D01*
X185193886Y-121622460D01*
X185214100Y-121417225D01*
X185214100Y-119755975D01*
X185193886Y-119550740D01*
X185114004Y-119287405D01*
X184984283Y-119044713D01*
X184809707Y-118831992D01*
X184604500Y-118663584D01*
X184604500Y-117729673D01*
X184608309Y-117691000D01*
X184593106Y-117536643D01*
X184548082Y-117388217D01*
X184474966Y-117251428D01*
X184376569Y-117131531D01*
X184256672Y-117033134D01*
X184119883Y-116960018D01*
X183971457Y-116914994D01*
X183855773Y-116903600D01*
X183817100Y-116899791D01*
X183778427Y-116903600D01*
X183553999Y-116903600D01*
X183783129Y-116624404D01*
X183953521Y-116305622D01*
X184058448Y-115959723D01*
X184093878Y-115600000D01*
X184081928Y-115478665D01*
X184385000Y-115478665D01*
X184385000Y-115761335D01*
X184440147Y-116038574D01*
X184548320Y-116299727D01*
X184705363Y-116534759D01*
X184905241Y-116734637D01*
X185140273Y-116891680D01*
X185401426Y-116999853D01*
X185678665Y-117055000D01*
X185961335Y-117055000D01*
X186238574Y-116999853D01*
X186499727Y-116891680D01*
X186734759Y-116734637D01*
X186856694Y-116612702D01*
X187506903Y-116612702D01*
X187578486Y-116856671D01*
X187833996Y-116977571D01*
X188108184Y-117046300D01*
X188390512Y-117060217D01*
X188670130Y-117018787D01*
X188936292Y-116923603D01*
X189061514Y-116856671D01*
X189133097Y-116612702D01*
X188320000Y-115799605D01*
X187506903Y-116612702D01*
X186856694Y-116612702D01*
X186934637Y-116534759D01*
X187068692Y-116334131D01*
X187083329Y-116361514D01*
X187327298Y-116433097D01*
X188140395Y-115620000D01*
X188499605Y-115620000D01*
X189312702Y-116433097D01*
X189556671Y-116361514D01*
X189677571Y-116106004D01*
X189746300Y-115831816D01*
X189760217Y-115549488D01*
X189718787Y-115269870D01*
X189623603Y-115003708D01*
X189556671Y-114878486D01*
X189312702Y-114806903D01*
X188499605Y-115620000D01*
X188140395Y-115620000D01*
X187327298Y-114806903D01*
X187083329Y-114878486D01*
X187069676Y-114907341D01*
X186934637Y-114705241D01*
X186856694Y-114627298D01*
X187506903Y-114627298D01*
X188320000Y-115440395D01*
X189133097Y-114627298D01*
X189061514Y-114383329D01*
X188806004Y-114262429D01*
X188531816Y-114193700D01*
X188249488Y-114179783D01*
X187969870Y-114221213D01*
X187703708Y-114316397D01*
X187578486Y-114383329D01*
X187506903Y-114627298D01*
X186856694Y-114627298D01*
X186734759Y-114505363D01*
X186499727Y-114348320D01*
X186238574Y-114240147D01*
X185961335Y-114185000D01*
X185678665Y-114185000D01*
X185401426Y-114240147D01*
X185140273Y-114348320D01*
X184905241Y-114505363D01*
X184705363Y-114705241D01*
X184548320Y-114940273D01*
X184440147Y-115201426D01*
X184385000Y-115478665D01*
X184081928Y-115478665D01*
X184058448Y-115240277D01*
X183953521Y-114894378D01*
X183783129Y-114575596D01*
X183553819Y-114296181D01*
X183274404Y-114066871D01*
X182955622Y-113896479D01*
X182609723Y-113791552D01*
X182340139Y-113765000D01*
X182159861Y-113765000D01*
X181890277Y-113791552D01*
X181544378Y-113896479D01*
X181225596Y-114066871D01*
X180946181Y-114296181D01*
X180716871Y-114575596D01*
X180546479Y-114894378D01*
X180441552Y-115240277D01*
X180406122Y-115600000D01*
X180441552Y-115959723D01*
X180546479Y-116305622D01*
X180716871Y-116624404D01*
X180946001Y-116903600D01*
X177999654Y-116903600D01*
X178021945Y-116861897D01*
X178106184Y-116584198D01*
X178127500Y-116367772D01*
X178127500Y-114546628D01*
X178106184Y-114330202D01*
X178021945Y-114052503D01*
X177885148Y-113796574D01*
X177868746Y-113776588D01*
X177856961Y-113656933D01*
X177791602Y-113441477D01*
X177685467Y-113242912D01*
X177542633Y-113068867D01*
X177368588Y-112926033D01*
X177170023Y-112819898D01*
X176954567Y-112754539D01*
X176730499Y-112732471D01*
X176506433Y-112754539D01*
X176290977Y-112819898D01*
X176092412Y-112926033D01*
X175961979Y-113033076D01*
X175806376Y-113188679D01*
X175699333Y-113319112D01*
X175593198Y-113517677D01*
X175558519Y-113631995D01*
X175423452Y-113796575D01*
X175383471Y-113871374D01*
X175268663Y-113694937D01*
X175066206Y-113487488D01*
X174827168Y-113323522D01*
X174560735Y-113209341D01*
X174469338Y-113189221D01*
X174241300Y-113310700D01*
X174241300Y-115330200D01*
X174261300Y-115330200D01*
X174261300Y-115584200D01*
X174241300Y-115584200D01*
X174241300Y-115604200D01*
X173987300Y-115604200D01*
X173987300Y-115584200D01*
X173967300Y-115584200D01*
X173967300Y-115330200D01*
X173987300Y-115330200D01*
X173987300Y-113310700D01*
X173759262Y-113189221D01*
X173667865Y-113209341D01*
X173401432Y-113323522D01*
X173162394Y-113487488D01*
X172959937Y-113694937D01*
X172845129Y-113871374D01*
X172805148Y-113796574D01*
X172621049Y-113572250D01*
X172396725Y-113388152D01*
X172140796Y-113251355D01*
X171863097Y-113167116D01*
X171574300Y-113138672D01*
X171285502Y-113167116D01*
X171007803Y-113251355D01*
X170751874Y-113388152D01*
X170527550Y-113572251D01*
X170343452Y-113796575D01*
X170206655Y-114052504D01*
X170122416Y-114330203D01*
X170101100Y-114546629D01*
X170101100Y-116367772D01*
X170122417Y-116584198D01*
X170206656Y-116861897D01*
X170228947Y-116903600D01*
X166533334Y-116903600D01*
X166501749Y-116856329D01*
X166363771Y-116718351D01*
X166201525Y-116609942D01*
X166021247Y-116535268D01*
X165829866Y-116497200D01*
X165634734Y-116497200D01*
X165443353Y-116535268D01*
X165263075Y-116609942D01*
X165100829Y-116718351D01*
X164962851Y-116856329D01*
X164854442Y-117018575D01*
X164779768Y-117198853D01*
X164741700Y-117390234D01*
X164741700Y-117411600D01*
X164602934Y-117411600D01*
X164571349Y-117364329D01*
X164433371Y-117226351D01*
X164271125Y-117117942D01*
X164090847Y-117043268D01*
X163899466Y-117005200D01*
X163704334Y-117005200D01*
X163512953Y-117043268D01*
X163332675Y-117117942D01*
X163170429Y-117226351D01*
X163032451Y-117364329D01*
X162924042Y-117526575D01*
X162849368Y-117706853D01*
X162811300Y-117898234D01*
X162811300Y-117919600D01*
X161800506Y-117919600D01*
X161860358Y-117830025D01*
X161935032Y-117649747D01*
X161936931Y-117640200D01*
X162070666Y-117640200D01*
X162262047Y-117602132D01*
X162442325Y-117527458D01*
X162604571Y-117419049D01*
X162742549Y-117281071D01*
X162850958Y-117118825D01*
X162925632Y-116938547D01*
X162963700Y-116747166D01*
X162963700Y-116552034D01*
X162950844Y-116487400D01*
X163920429Y-116487400D01*
X164070775Y-116587858D01*
X164251053Y-116662532D01*
X164442434Y-116700600D01*
X164637566Y-116700600D01*
X164828947Y-116662532D01*
X165009225Y-116587858D01*
X165171471Y-116479449D01*
X165309449Y-116341471D01*
X165417858Y-116179225D01*
X165492532Y-115998947D01*
X165530600Y-115807566D01*
X165530600Y-115612434D01*
X165492532Y-115421053D01*
X165417858Y-115240775D01*
X165309449Y-115078529D01*
X165171471Y-114940551D01*
X165009225Y-114832142D01*
X164828947Y-114757468D01*
X164637566Y-114719400D01*
X164442434Y-114719400D01*
X164251053Y-114757468D01*
X164070775Y-114832142D01*
X163950361Y-114912600D01*
X159655240Y-114912600D01*
X159699832Y-114804947D01*
X159737900Y-114613566D01*
X159737900Y-114418434D01*
X159699832Y-114227053D01*
X159625158Y-114046775D01*
X159516749Y-113884529D01*
X159378771Y-113746551D01*
X159216525Y-113638142D01*
X159036247Y-113563468D01*
X158844866Y-113525400D01*
X158649734Y-113525400D01*
X158458353Y-113563468D01*
X158278075Y-113638142D01*
X158142695Y-113728600D01*
X154198608Y-113728600D01*
X154096137Y-113575241D01*
X153924856Y-113403960D01*
X154165426Y-113330983D01*
X154390467Y-113210697D01*
X154587718Y-113048818D01*
X154749597Y-112851567D01*
X154869883Y-112626526D01*
X154937300Y-112404285D01*
X155004717Y-112626526D01*
X155125004Y-112851567D01*
X155286883Y-113048818D01*
X155484134Y-113210697D01*
X155709175Y-113330983D01*
X155953358Y-113405056D01*
X156207300Y-113430067D01*
X156461243Y-113405056D01*
X156705426Y-113330983D01*
X156930467Y-113210697D01*
X157127718Y-113048818D01*
X157289597Y-112851567D01*
X157409883Y-112626526D01*
X157477300Y-112404285D01*
X157544717Y-112626526D01*
X157665004Y-112851567D01*
X157826883Y-113048818D01*
X158024134Y-113210697D01*
X158249175Y-113330983D01*
X158493358Y-113405056D01*
X158747300Y-113430067D01*
X159001243Y-113405056D01*
X159245426Y-113330983D01*
X159470467Y-113210697D01*
X159667718Y-113048818D01*
X159829597Y-112851567D01*
X159949883Y-112626526D01*
X160017300Y-112404285D01*
X160084717Y-112626526D01*
X160205004Y-112851567D01*
X160366883Y-113048818D01*
X160564134Y-113210697D01*
X160789175Y-113330983D01*
X161033358Y-113405056D01*
X161287300Y-113430067D01*
X161541243Y-113405056D01*
X161785426Y-113330983D01*
X162010467Y-113210697D01*
X162207718Y-113048818D01*
X162369597Y-112851567D01*
X162489883Y-112626526D01*
X162557300Y-112404285D01*
X162624717Y-112626526D01*
X162745004Y-112851567D01*
X162906883Y-113048818D01*
X163104134Y-113210697D01*
X163329175Y-113330983D01*
X163573358Y-113405056D01*
X163827300Y-113430067D01*
X164081243Y-113405056D01*
X164325426Y-113330983D01*
X164550467Y-113210697D01*
X164747718Y-113048818D01*
X164909597Y-112851567D01*
X165029883Y-112626526D01*
X165099806Y-112396023D01*
X165121567Y-112505680D01*
X165219107Y-112741461D01*
X165360771Y-112953683D01*
X165541116Y-113134189D01*
X165753211Y-113276044D01*
X165988905Y-113373795D01*
X166040195Y-113381820D01*
X166240300Y-113257933D01*
X166240300Y-111595000D01*
X166494300Y-111595000D01*
X166494300Y-113257933D01*
X166694405Y-113381820D01*
X166745695Y-113373795D01*
X166981389Y-113276044D01*
X167193484Y-113134189D01*
X167373829Y-112953683D01*
X167515493Y-112741461D01*
X167613033Y-112505680D01*
X167662700Y-112255400D01*
X167662700Y-111595000D01*
X166494300Y-111595000D01*
X166240300Y-111595000D01*
X166220300Y-111595000D01*
X166220300Y-111490000D01*
X186211928Y-111490000D01*
X186211928Y-113090000D01*
X186224188Y-113214482D01*
X186260498Y-113334180D01*
X186319463Y-113444494D01*
X186398815Y-113541185D01*
X186495506Y-113620537D01*
X186605820Y-113679502D01*
X186725518Y-113715812D01*
X186850000Y-113728072D01*
X188450000Y-113728072D01*
X188574482Y-113715812D01*
X188694180Y-113679502D01*
X188804494Y-113620537D01*
X188901185Y-113541185D01*
X188980537Y-113444494D01*
X189039502Y-113334180D01*
X189075812Y-113214482D01*
X189088072Y-113090000D01*
X189088072Y-111490000D01*
X189075812Y-111365518D01*
X189039502Y-111245820D01*
X188980537Y-111135506D01*
X188901185Y-111038815D01*
X188804494Y-110959463D01*
X188694180Y-110900498D01*
X188574482Y-110864188D01*
X188450000Y-110851928D01*
X188442785Y-110851928D01*
X188463097Y-110782702D01*
X187650000Y-109969605D01*
X186836903Y-110782702D01*
X186857215Y-110851928D01*
X186850000Y-110851928D01*
X186725518Y-110864188D01*
X186605820Y-110900498D01*
X186495506Y-110959463D01*
X186398815Y-111038815D01*
X186319463Y-111135506D01*
X186260498Y-111245820D01*
X186224188Y-111365518D01*
X186211928Y-111490000D01*
X166220300Y-111490000D01*
X166220300Y-111341000D01*
X166240300Y-111341000D01*
X166240300Y-109678067D01*
X166494300Y-109678067D01*
X166494300Y-111341000D01*
X167662700Y-111341000D01*
X167662700Y-110680600D01*
X167613033Y-110430320D01*
X167515493Y-110194539D01*
X167373829Y-109982317D01*
X167252133Y-109860512D01*
X186209783Y-109860512D01*
X186251213Y-110140130D01*
X186346397Y-110406292D01*
X186413329Y-110531514D01*
X186657298Y-110603097D01*
X187470395Y-109790000D01*
X187829605Y-109790000D01*
X188642702Y-110603097D01*
X188886671Y-110531514D01*
X189007571Y-110276004D01*
X189076300Y-110001816D01*
X189090217Y-109719488D01*
X189048787Y-109439870D01*
X188953603Y-109173708D01*
X188886671Y-109048486D01*
X188642702Y-108976903D01*
X187829605Y-109790000D01*
X187470395Y-109790000D01*
X186657298Y-108976903D01*
X186413329Y-109048486D01*
X186292429Y-109303996D01*
X186223700Y-109578184D01*
X186209783Y-109860512D01*
X167252133Y-109860512D01*
X167193484Y-109801811D01*
X166981389Y-109659956D01*
X166745695Y-109562205D01*
X166694405Y-109554180D01*
X166494300Y-109678067D01*
X166240300Y-109678067D01*
X166040195Y-109554180D01*
X165988905Y-109562205D01*
X165753211Y-109659956D01*
X165541116Y-109801811D01*
X165360771Y-109982317D01*
X165219107Y-110194539D01*
X165121567Y-110430320D01*
X165099806Y-110539977D01*
X165029883Y-110309474D01*
X164909597Y-110084433D01*
X164747718Y-109887182D01*
X164550466Y-109725303D01*
X164325425Y-109605017D01*
X164081242Y-109530944D01*
X163827300Y-109505933D01*
X163573357Y-109530944D01*
X163329174Y-109605017D01*
X163104133Y-109725303D01*
X162906882Y-109887182D01*
X162745003Y-110084434D01*
X162624717Y-110309475D01*
X162557300Y-110531716D01*
X162489883Y-110309474D01*
X162369597Y-110084433D01*
X162207718Y-109887182D01*
X162010466Y-109725303D01*
X161785425Y-109605017D01*
X161541242Y-109530944D01*
X161287300Y-109505933D01*
X161033357Y-109530944D01*
X160789174Y-109605017D01*
X160564133Y-109725303D01*
X160366882Y-109887182D01*
X160205003Y-110084434D01*
X160084717Y-110309475D01*
X160017300Y-110531716D01*
X159949883Y-110309474D01*
X159829597Y-110084433D01*
X159667718Y-109887182D01*
X159470466Y-109725303D01*
X159245425Y-109605017D01*
X159001242Y-109530944D01*
X158747300Y-109505933D01*
X158493357Y-109530944D01*
X158430303Y-109550072D01*
X158463900Y-109381166D01*
X158463900Y-109186034D01*
X158425832Y-108994653D01*
X158351158Y-108814375D01*
X158339748Y-108797298D01*
X186836903Y-108797298D01*
X187650000Y-109610395D01*
X188463097Y-108797298D01*
X188391514Y-108553329D01*
X188136004Y-108432429D01*
X187861816Y-108363700D01*
X187579488Y-108349783D01*
X187299870Y-108391213D01*
X187033708Y-108486397D01*
X186908486Y-108553329D01*
X186836903Y-108797298D01*
X158339748Y-108797298D01*
X158242749Y-108652129D01*
X158104771Y-108514151D01*
X157942525Y-108405742D01*
X157762247Y-108331068D01*
X157570866Y-108293000D01*
X157375734Y-108293000D01*
X157184353Y-108331068D01*
X157004075Y-108405742D01*
X156868695Y-108496200D01*
X139228334Y-108496200D01*
X139196749Y-108448929D01*
X139058771Y-108310951D01*
X138896525Y-108202542D01*
X138716247Y-108127868D01*
X138524866Y-108089800D01*
X138329734Y-108089800D01*
X138138353Y-108127868D01*
X137958075Y-108202542D01*
X137795829Y-108310951D01*
X137657851Y-108448929D01*
X137549442Y-108611175D01*
X137474768Y-108791453D01*
X137436700Y-108982834D01*
X137436700Y-109004200D01*
X131327930Y-109004200D01*
X131327251Y-109003994D01*
X131285504Y-108999882D01*
X131139225Y-108902142D01*
X130958947Y-108827468D01*
X130767566Y-108789400D01*
X130572434Y-108789400D01*
X130381053Y-108827468D01*
X130200775Y-108902142D01*
X130038529Y-109010551D01*
X129900551Y-109148529D01*
X129792142Y-109310775D01*
X129717468Y-109491053D01*
X129679400Y-109682434D01*
X129679400Y-109877566D01*
X129717468Y-110068947D01*
X129792142Y-110249225D01*
X129900551Y-110411471D01*
X130038529Y-110549449D01*
X130200775Y-110657858D01*
X130255679Y-110680600D01*
X129379905Y-110680600D01*
X129244525Y-110590142D01*
X129064247Y-110515468D01*
X128872866Y-110477400D01*
X128677734Y-110477400D01*
X128486353Y-110515468D01*
X128306075Y-110590142D01*
X128143829Y-110698551D01*
X128005851Y-110836529D01*
X127897442Y-110998775D01*
X127822768Y-111179053D01*
X127784700Y-111370434D01*
X127784700Y-111565566D01*
X127822768Y-111756947D01*
X127897442Y-111937225D01*
X128005851Y-112099471D01*
X128143829Y-112237449D01*
X128306075Y-112345858D01*
X128486353Y-112420532D01*
X128677734Y-112458600D01*
X128872866Y-112458600D01*
X129064247Y-112420532D01*
X129244525Y-112345858D01*
X129379905Y-112255400D01*
X132058141Y-112255400D01*
X132070644Y-112382343D01*
X132144717Y-112626526D01*
X132265004Y-112851567D01*
X132426883Y-113048818D01*
X132624134Y-113210697D01*
X132663738Y-113231866D01*
X132610363Y-113285241D01*
X132534753Y-113398400D01*
X132473522Y-113398400D01*
X132294608Y-113180392D01*
X132076101Y-113001068D01*
X131826808Y-112867818D01*
X131556309Y-112785764D01*
X131345492Y-112765000D01*
X131204508Y-112765000D01*
X130993691Y-112785764D01*
X130723192Y-112867818D01*
X130473899Y-113001068D01*
X130255392Y-113180392D01*
X130076068Y-113398899D01*
X130003016Y-113535570D01*
X129996680Y-113520273D01*
X129839637Y-113285241D01*
X129639759Y-113085363D01*
X129404727Y-112928320D01*
X129143574Y-112820147D01*
X128866335Y-112765000D01*
X128583665Y-112765000D01*
X128306426Y-112820147D01*
X128045273Y-112928320D01*
X127810241Y-113085363D01*
X127610363Y-113285241D01*
X127453320Y-113520273D01*
X127345147Y-113781426D01*
X127290000Y-114058665D01*
X127290000Y-114341335D01*
X127345147Y-114618574D01*
X127453320Y-114879727D01*
X127610363Y-115114759D01*
X127810241Y-115314637D01*
X128045273Y-115471680D01*
X128306426Y-115579853D01*
X128583665Y-115635000D01*
X128866335Y-115635000D01*
X129143574Y-115579853D01*
X129404727Y-115471680D01*
X129639759Y-115314637D01*
X129839637Y-115114759D01*
X129996680Y-114879727D01*
X130003016Y-114864430D01*
X130076068Y-115001101D01*
X130255392Y-115219608D01*
X130473899Y-115398932D01*
X130723192Y-115532182D01*
X130993691Y-115614236D01*
X131204508Y-115635000D01*
X131345492Y-115635000D01*
X131556309Y-115614236D01*
X131826808Y-115532182D01*
X132076101Y-115398932D01*
X132294608Y-115219608D01*
X132473932Y-115001101D01*
X132488845Y-114973200D01*
X132515777Y-114973200D01*
X132610363Y-115114759D01*
X132810241Y-115314637D01*
X133045273Y-115471680D01*
X133306426Y-115579853D01*
X133583665Y-115635000D01*
X133866335Y-115635000D01*
X134143574Y-115579853D01*
X134404727Y-115471680D01*
X134639759Y-115314637D01*
X134839637Y-115114759D01*
X134996680Y-114879727D01*
X135104853Y-114618574D01*
X135160000Y-114341335D01*
X135160000Y-114058665D01*
X135124094Y-113878157D01*
X135605612Y-113396639D01*
X135633358Y-113405056D01*
X135887300Y-113430067D01*
X136121751Y-113406976D01*
X135992818Y-113648192D01*
X135910764Y-113918691D01*
X135883057Y-114200000D01*
X135910764Y-114481309D01*
X135992818Y-114751808D01*
X136126068Y-115001101D01*
X136305392Y-115219608D01*
X136523899Y-115398932D01*
X136773192Y-115532182D01*
X137043691Y-115614236D01*
X137254508Y-115635000D01*
X137395492Y-115635000D01*
X137606309Y-115614236D01*
X137876808Y-115532182D01*
X138126101Y-115398932D01*
X138344608Y-115219608D01*
X138523932Y-115001101D01*
X138545901Y-114960000D01*
X139506957Y-114960000D01*
X139544901Y-115016788D01*
X139544900Y-116470394D01*
X139454442Y-116605775D01*
X139383684Y-116776600D01*
X138480592Y-116776600D01*
X138339225Y-116682142D01*
X138158947Y-116607468D01*
X137967566Y-116569400D01*
X137772434Y-116569400D01*
X137581053Y-116607468D01*
X137400775Y-116682142D01*
X137238529Y-116790551D01*
X137100551Y-116928529D01*
X136992142Y-117090775D01*
X136917468Y-117271053D01*
X136899616Y-117360800D01*
X126814505Y-117360800D01*
X126679125Y-117270342D01*
X126498847Y-117195668D01*
X126307466Y-117157600D01*
X126112334Y-117157600D01*
X125920953Y-117195668D01*
X125740675Y-117270342D01*
X125578429Y-117378751D01*
X125440451Y-117516729D01*
X125332042Y-117678975D01*
X125257368Y-117859253D01*
X125219300Y-118050634D01*
X125219300Y-118112792D01*
X125069608Y-117930392D01*
X124851101Y-117751068D01*
X124601808Y-117617818D01*
X124331309Y-117535764D01*
X124120492Y-117515000D01*
X123979508Y-117515000D01*
X123768691Y-117535764D01*
X123498192Y-117617818D01*
X123248899Y-117751068D01*
X123030392Y-117930392D01*
X122851068Y-118148899D01*
X122837865Y-118173600D01*
X118687451Y-118173600D01*
X117990412Y-117476561D01*
X118256497Y-117395845D01*
X118512426Y-117259048D01*
X118736750Y-117074950D01*
X118920848Y-116850626D01*
X118960001Y-116777377D01*
X118999153Y-116850626D01*
X119183251Y-117074950D01*
X119407575Y-117259048D01*
X119663504Y-117395845D01*
X119941203Y-117480084D01*
X120230000Y-117508528D01*
X120518798Y-117480084D01*
X120796497Y-117395845D01*
X121052426Y-117259048D01*
X121276750Y-117074950D01*
X121460848Y-116850626D01*
X121597645Y-116594697D01*
X121681884Y-116316998D01*
X121703200Y-116100572D01*
X121703200Y-114279428D01*
X121681884Y-114063002D01*
X121597645Y-113785303D01*
X121460848Y-113529374D01*
X121276749Y-113305050D01*
X121052425Y-113120952D01*
X120796496Y-112984155D01*
X120518797Y-112899916D01*
X120230000Y-112871472D01*
X119941202Y-112899916D01*
X119663503Y-112984155D01*
X119407574Y-113120952D01*
X119183250Y-113305051D01*
X118999152Y-113529375D01*
X118960000Y-113602623D01*
X118920848Y-113529374D01*
X118736749Y-113305050D01*
X118512425Y-113120952D01*
X118256496Y-112984155D01*
X117978797Y-112899916D01*
X117690000Y-112871472D01*
X117401202Y-112899916D01*
X117123503Y-112984155D01*
X116867574Y-113120952D01*
X116643250Y-113305051D01*
X116459152Y-113529375D01*
X116420000Y-113602623D01*
X116380848Y-113529374D01*
X116196749Y-113305050D01*
X115972425Y-113120952D01*
X115716496Y-112984155D01*
X115438797Y-112899916D01*
X115150000Y-112871472D01*
X114861202Y-112899916D01*
X114583503Y-112984155D01*
X114327574Y-113120952D01*
X114103250Y-113305051D01*
X113919152Y-113529375D01*
X113782355Y-113785304D01*
X113698116Y-114063003D01*
X113676800Y-114279429D01*
X113676800Y-115823249D01*
X110689404Y-112835854D01*
X110714604Y-112580000D01*
X110676278Y-112190872D01*
X110562774Y-111816698D01*
X110378453Y-111471857D01*
X110146043Y-111188665D01*
X122615000Y-111188665D01*
X122615000Y-111471335D01*
X122670147Y-111748574D01*
X122778320Y-112009727D01*
X122935363Y-112244759D01*
X123135241Y-112444637D01*
X123370273Y-112601680D01*
X123631426Y-112709853D01*
X123908665Y-112765000D01*
X124191335Y-112765000D01*
X124468574Y-112709853D01*
X124729727Y-112601680D01*
X124964759Y-112444637D01*
X125164637Y-112244759D01*
X125242385Y-112128400D01*
X125554495Y-112128400D01*
X125689875Y-112218858D01*
X125870153Y-112293532D01*
X126061534Y-112331600D01*
X126256666Y-112331600D01*
X126448047Y-112293532D01*
X126628325Y-112218858D01*
X126790571Y-112110449D01*
X126928549Y-111972471D01*
X127036958Y-111810225D01*
X127111632Y-111629947D01*
X127149700Y-111438566D01*
X127149700Y-111243434D01*
X127111632Y-111052053D01*
X127036958Y-110871775D01*
X126928549Y-110709529D01*
X126790571Y-110571551D01*
X126628325Y-110463142D01*
X126448047Y-110388468D01*
X126256666Y-110350400D01*
X126061534Y-110350400D01*
X125870153Y-110388468D01*
X125689875Y-110463142D01*
X125554495Y-110553600D01*
X125257085Y-110553600D01*
X125164637Y-110415241D01*
X124964759Y-110215363D01*
X124729727Y-110058320D01*
X124468574Y-109950147D01*
X124191335Y-109895000D01*
X123908665Y-109895000D01*
X123631426Y-109950147D01*
X123370273Y-110058320D01*
X123135241Y-110215363D01*
X122935363Y-110415241D01*
X122778320Y-110650273D01*
X122670147Y-110911426D01*
X122615000Y-111188665D01*
X110146043Y-111188665D01*
X110130398Y-111169602D01*
X109828143Y-110921547D01*
X109483302Y-110737226D01*
X109109128Y-110623722D01*
X108817510Y-110595000D01*
X107622490Y-110595000D01*
X107330872Y-110623722D01*
X106956698Y-110737226D01*
X106611857Y-110921547D01*
X106309602Y-111169602D01*
X106227400Y-111269765D01*
X106227400Y-110578662D01*
X106231208Y-110539999D01*
X106227400Y-110501336D01*
X106227400Y-110501327D01*
X106216006Y-110385643D01*
X106170982Y-110237217D01*
X106097866Y-110100428D01*
X106064364Y-110059606D01*
X106024121Y-110010569D01*
X106024119Y-110010567D01*
X105999469Y-109980531D01*
X105969434Y-109955882D01*
X105084670Y-109071119D01*
X105176278Y-108769128D01*
X105214604Y-108380000D01*
X105725396Y-108380000D01*
X105763722Y-108769128D01*
X105877226Y-109143302D01*
X106061547Y-109488143D01*
X106309602Y-109790398D01*
X106611857Y-110038453D01*
X106956698Y-110222774D01*
X107330872Y-110336278D01*
X107622490Y-110365000D01*
X108817510Y-110365000D01*
X109109128Y-110336278D01*
X109483302Y-110222774D01*
X109828143Y-110038453D01*
X110130398Y-109790398D01*
X110378453Y-109488143D01*
X110562774Y-109143302D01*
X110676278Y-108769128D01*
X110714604Y-108380000D01*
X110676278Y-107990872D01*
X110562774Y-107616698D01*
X110378453Y-107271857D01*
X110130398Y-106969602D01*
X109828143Y-106721547D01*
X109483302Y-106537226D01*
X109109128Y-106423722D01*
X108817510Y-106395000D01*
X107622490Y-106395000D01*
X107330872Y-106423722D01*
X106956698Y-106537226D01*
X106611857Y-106721547D01*
X106309602Y-106969602D01*
X106061547Y-107271857D01*
X105877226Y-107616698D01*
X105763722Y-107990872D01*
X105725396Y-108380000D01*
X105214604Y-108380000D01*
X105176278Y-107990872D01*
X105062774Y-107616698D01*
X104878453Y-107271857D01*
X104630398Y-106969602D01*
X104328143Y-106721547D01*
X103983302Y-106537226D01*
X103609128Y-106423722D01*
X103317510Y-106395000D01*
X102122490Y-106395000D01*
X101830872Y-106423722D01*
X101456698Y-106537226D01*
X101111857Y-106721547D01*
X100809602Y-106969602D01*
X100561547Y-107271857D01*
X100423000Y-107531061D01*
X100423000Y-105892702D01*
X125686903Y-105892702D01*
X125758486Y-106136671D01*
X126013996Y-106257571D01*
X126288184Y-106326300D01*
X126570512Y-106340217D01*
X126850130Y-106298787D01*
X127116292Y-106203603D01*
X127241514Y-106136671D01*
X127313097Y-105892702D01*
X126500000Y-105079605D01*
X125686903Y-105892702D01*
X100423000Y-105892702D01*
X100423000Y-105279445D01*
X100731933Y-104970512D01*
X125059783Y-104970512D01*
X125101213Y-105250130D01*
X125196397Y-105516292D01*
X125263329Y-105641514D01*
X125507298Y-105713097D01*
X126320395Y-104900000D01*
X125507298Y-104086903D01*
X125263329Y-104158486D01*
X125142429Y-104413996D01*
X125073700Y-104688184D01*
X125059783Y-104970512D01*
X100731933Y-104970512D01*
X100965924Y-104736522D01*
X100965929Y-104736516D01*
X101565924Y-104136521D01*
X101672967Y-104006089D01*
X101725771Y-103907298D01*
X125686903Y-103907298D01*
X126500000Y-104720395D01*
X127313097Y-103907298D01*
X127241514Y-103663329D01*
X126986004Y-103542429D01*
X126711816Y-103473700D01*
X126429488Y-103459783D01*
X126149870Y-103501213D01*
X125883708Y-103596397D01*
X125758486Y-103663329D01*
X125686903Y-103907298D01*
X101725771Y-103907298D01*
X101779102Y-103807524D01*
X101844461Y-103592068D01*
X101866529Y-103368001D01*
X101844461Y-103143933D01*
X101779102Y-102928477D01*
X101672967Y-102729912D01*
X101642430Y-102692702D01*
X125386903Y-102692702D01*
X125458486Y-102936671D01*
X125713996Y-103057571D01*
X125988184Y-103126300D01*
X126270512Y-103140217D01*
X126550130Y-103098787D01*
X126816292Y-103003603D01*
X126941514Y-102936671D01*
X127013097Y-102692702D01*
X126200000Y-101879605D01*
X125386903Y-102692702D01*
X101642430Y-102692702D01*
X101530133Y-102555867D01*
X101356088Y-102413033D01*
X101157523Y-102306898D01*
X100942067Y-102241539D01*
X100717999Y-102219471D01*
X100493932Y-102241539D01*
X100278476Y-102306898D01*
X100079911Y-102413033D01*
X99949479Y-102520076D01*
X99349484Y-103120071D01*
X99349478Y-103120076D01*
X98511478Y-103958077D01*
X98467868Y-103993867D01*
X98325033Y-104167911D01*
X98218897Y-104366477D01*
X98153539Y-104581933D01*
X98137000Y-104749854D01*
X98137000Y-104749861D01*
X98131471Y-104806000D01*
X98137000Y-104862139D01*
X98137000Y-106886145D01*
X98137001Y-106886155D01*
X98137000Y-113783861D01*
X98131471Y-113840000D01*
X98137000Y-113896139D01*
X98137000Y-113896145D01*
X98146283Y-113990398D01*
X98153539Y-114064067D01*
X98168097Y-114112057D01*
X98218897Y-114279522D01*
X98325032Y-114478088D01*
X98467867Y-114652133D01*
X98511482Y-114687927D01*
X100231928Y-116408374D01*
X100231928Y-118130000D01*
X100244188Y-118254482D01*
X100280498Y-118374180D01*
X100339463Y-118484494D01*
X100418815Y-118581185D01*
X100515506Y-118660537D01*
X100625820Y-118719502D01*
X100745518Y-118755812D01*
X100870000Y-118768072D01*
X104570000Y-118768072D01*
X104694482Y-118755812D01*
X104814180Y-118719502D01*
X104924494Y-118660537D01*
X105021185Y-118581185D01*
X105100537Y-118484494D01*
X105159502Y-118374180D01*
X105195812Y-118254482D01*
X105208072Y-118130000D01*
X105208072Y-115430000D01*
X105195812Y-115305518D01*
X105159502Y-115185820D01*
X105100537Y-115075506D01*
X105021185Y-114978815D01*
X104924494Y-114899463D01*
X104814180Y-114840498D01*
X104694482Y-114804188D01*
X104570000Y-114791928D01*
X101848374Y-114791928D01*
X101489026Y-114432581D01*
X101830872Y-114536278D01*
X102122490Y-114565000D01*
X103317510Y-114565000D01*
X103609128Y-114536278D01*
X103983302Y-114422774D01*
X104328143Y-114238453D01*
X104630398Y-113990398D01*
X104655650Y-113959629D01*
X104663995Y-114044357D01*
X104709018Y-114192782D01*
X104775093Y-114316397D01*
X104782135Y-114329572D01*
X104880532Y-114449469D01*
X104910572Y-114474123D01*
X105605881Y-115169433D01*
X105630531Y-115199469D01*
X105660567Y-115224119D01*
X105660569Y-115224121D01*
X105704808Y-115260427D01*
X105750428Y-115297866D01*
X105887217Y-115370982D01*
X106035643Y-115416006D01*
X106151327Y-115427400D01*
X106151336Y-115427400D01*
X106189999Y-115431208D01*
X106228662Y-115427400D01*
X106262168Y-115427400D01*
X106061547Y-115671857D01*
X105877226Y-116016698D01*
X105763722Y-116390872D01*
X105725396Y-116780000D01*
X105763722Y-117169128D01*
X105877226Y-117543302D01*
X106061547Y-117888143D01*
X106309602Y-118190398D01*
X106611857Y-118438453D01*
X106956698Y-118622774D01*
X107330872Y-118736278D01*
X107622490Y-118765000D01*
X108817510Y-118765000D01*
X109109128Y-118736278D01*
X109483302Y-118622774D01*
X109828143Y-118438453D01*
X110130398Y-118190398D01*
X110378453Y-117888143D01*
X110562774Y-117543302D01*
X110676278Y-117169128D01*
X110714604Y-116780000D01*
X110676278Y-116390872D01*
X110562774Y-116016698D01*
X110378453Y-115671857D01*
X110177832Y-115427400D01*
X110339942Y-115427400D01*
X112781341Y-117868800D01*
X112638354Y-117868800D01*
X112615154Y-117840531D01*
X112495257Y-117742134D01*
X112358468Y-117669018D01*
X112210042Y-117623994D01*
X112174172Y-117620461D01*
X112149774Y-117596063D01*
X111980256Y-117482795D01*
X111791898Y-117404774D01*
X111591939Y-117365000D01*
X111388061Y-117365000D01*
X111188102Y-117404774D01*
X110999744Y-117482795D01*
X110830226Y-117596063D01*
X110686063Y-117740226D01*
X110572795Y-117909744D01*
X110494774Y-118098102D01*
X110455000Y-118298061D01*
X110455000Y-118501939D01*
X110494774Y-118701898D01*
X110572795Y-118890256D01*
X110629654Y-118975352D01*
X110583260Y-118966166D01*
X110520289Y-118952781D01*
X110510430Y-118951745D01*
X110219072Y-118923177D01*
X110219069Y-118923177D01*
X110184655Y-118919788D01*
X94084721Y-118920000D01*
X93885340Y-118900451D01*
X93726948Y-118852629D01*
X93580863Y-118774954D01*
X93452648Y-118670384D01*
X93347187Y-118542904D01*
X93268491Y-118397359D01*
X93219567Y-118239313D01*
X93198848Y-118042179D01*
X93198917Y-116569721D01*
X93285000Y-116569721D01*
X93285000Y-116990279D01*
X93367047Y-117402756D01*
X93527988Y-117791302D01*
X93761637Y-118140983D01*
X94059017Y-118438363D01*
X94408698Y-118672012D01*
X94797244Y-118832953D01*
X95209721Y-118915000D01*
X95630279Y-118915000D01*
X96042756Y-118832953D01*
X96431302Y-118672012D01*
X96780983Y-118438363D01*
X97078363Y-118140983D01*
X97312012Y-117791302D01*
X97472953Y-117402756D01*
X97555000Y-116990279D01*
X97555000Y-116569721D01*
X97472953Y-116157244D01*
X97312012Y-115768698D01*
X97078363Y-115419017D01*
X96780983Y-115121637D01*
X96431302Y-114887988D01*
X96042756Y-114727047D01*
X95630279Y-114645000D01*
X95209721Y-114645000D01*
X94797244Y-114727047D01*
X94408698Y-114887988D01*
X94059017Y-115121637D01*
X93761637Y-115419017D01*
X93527988Y-115768698D01*
X93367047Y-116157244D01*
X93285000Y-116569721D01*
X93198917Y-116569721D01*
X93199310Y-108169721D01*
X93285000Y-108169721D01*
X93285000Y-108590279D01*
X93367047Y-109002756D01*
X93527988Y-109391302D01*
X93761637Y-109740983D01*
X94059017Y-110038363D01*
X94408698Y-110272012D01*
X94797244Y-110432953D01*
X95209721Y-110515000D01*
X95630279Y-110515000D01*
X96042756Y-110432953D01*
X96431302Y-110272012D01*
X96780983Y-110038363D01*
X97078363Y-109740983D01*
X97312012Y-109391302D01*
X97472953Y-109002756D01*
X97555000Y-108590279D01*
X97555000Y-108169721D01*
X97472953Y-107757244D01*
X97312012Y-107368698D01*
X97078363Y-107019017D01*
X96780983Y-106721637D01*
X96431302Y-106487988D01*
X96042756Y-106327047D01*
X95630279Y-106245000D01*
X95209721Y-106245000D01*
X94797244Y-106327047D01*
X94408698Y-106487988D01*
X94059017Y-106721637D01*
X93761637Y-107019017D01*
X93527988Y-107368698D01*
X93367047Y-107757244D01*
X93285000Y-108169721D01*
X93199310Y-108169721D01*
X93199610Y-101770512D01*
X124759783Y-101770512D01*
X124801213Y-102050130D01*
X124896397Y-102316292D01*
X124963329Y-102441514D01*
X125207298Y-102513097D01*
X126020395Y-101700000D01*
X126379605Y-101700000D01*
X127192702Y-102513097D01*
X127436671Y-102441514D01*
X127557571Y-102186004D01*
X127626300Y-101911816D01*
X127640217Y-101629488D01*
X127598787Y-101349870D01*
X127503603Y-101083708D01*
X127436671Y-100958486D01*
X127192702Y-100886903D01*
X126379605Y-101700000D01*
X126020395Y-101700000D01*
X125207298Y-100886903D01*
X124963329Y-100958486D01*
X124842429Y-101213996D01*
X124773700Y-101488184D01*
X124759783Y-101770512D01*
X93199610Y-101770512D01*
X93199849Y-96679721D01*
X93295000Y-96679721D01*
X93295000Y-97100279D01*
X93377047Y-97512756D01*
X93537988Y-97901302D01*
X93771637Y-98250983D01*
X94069017Y-98548363D01*
X94418698Y-98782012D01*
X94807244Y-98942953D01*
X95219721Y-99025000D01*
X95640279Y-99025000D01*
X96052756Y-98942953D01*
X96441302Y-98782012D01*
X96790983Y-98548363D01*
X97088363Y-98250983D01*
X97322012Y-97901302D01*
X97482953Y-97512756D01*
X97565000Y-97100279D01*
X97565000Y-96679721D01*
X97482953Y-96267244D01*
X97322012Y-95878698D01*
X97088363Y-95529017D01*
X96790983Y-95231637D01*
X96781534Y-95225323D01*
X100293323Y-95225323D01*
X100347499Y-95432295D01*
X100508976Y-95787211D01*
X100736591Y-96103805D01*
X101021597Y-96369910D01*
X101353041Y-96575300D01*
X101718186Y-96712082D01*
X102103000Y-96775000D01*
X102603000Y-96775000D01*
X102603000Y-94917000D01*
X100408171Y-94917000D01*
X100293323Y-95225323D01*
X96781534Y-95225323D01*
X96441302Y-94997988D01*
X96052756Y-94837047D01*
X95640279Y-94755000D01*
X95219721Y-94755000D01*
X94807244Y-94837047D01*
X94418698Y-94997988D01*
X94069017Y-95231637D01*
X93771637Y-95529017D01*
X93537988Y-95878698D01*
X93377047Y-96267244D01*
X93295000Y-96679721D01*
X93199849Y-96679721D01*
X93199958Y-94354677D01*
X100293323Y-94354677D01*
X100408171Y-94663000D01*
X102603000Y-94663000D01*
X102603000Y-92805000D01*
X102103000Y-92805000D01*
X101718186Y-92867918D01*
X101353041Y-93004700D01*
X101021597Y-93210090D01*
X100736591Y-93476195D01*
X100508976Y-93792789D01*
X100347499Y-94147705D01*
X100293323Y-94354677D01*
X93199958Y-94354677D01*
X93199998Y-93505896D01*
X93219549Y-93306493D01*
X93267371Y-93148101D01*
X93345045Y-93002018D01*
X93449617Y-92873799D01*
X93577095Y-92768340D01*
X93722641Y-92689644D01*
X93880687Y-92640720D01*
X94077837Y-92619999D01*
X105496426Y-92620023D01*
X104870573Y-93245877D01*
X104840532Y-93270531D01*
X104780242Y-93343995D01*
X104742135Y-93390428D01*
X104705319Y-93459305D01*
X104438403Y-93210090D01*
X104106959Y-93004700D01*
X103741814Y-92867918D01*
X103357000Y-92805000D01*
X102857000Y-92805000D01*
X102857000Y-94663000D01*
X102877000Y-94663000D01*
X102877000Y-94917000D01*
X102857000Y-94917000D01*
X102857000Y-96775000D01*
X103357000Y-96775000D01*
X103741814Y-96712082D01*
X104106959Y-96575300D01*
X104438403Y-96369910D01*
X104612600Y-96207265D01*
X104612600Y-96493848D01*
X104104521Y-97001928D01*
X100880000Y-97001928D01*
X100755518Y-97014188D01*
X100635820Y-97050498D01*
X100525506Y-97109463D01*
X100428815Y-97188815D01*
X100349463Y-97285506D01*
X100290498Y-97395820D01*
X100254188Y-97515518D01*
X100241928Y-97640000D01*
X100241928Y-100340000D01*
X100254188Y-100464482D01*
X100290498Y-100584180D01*
X100349463Y-100694494D01*
X100428815Y-100791185D01*
X100525506Y-100870537D01*
X100635820Y-100929502D01*
X100755518Y-100965812D01*
X100880000Y-100978072D01*
X104580000Y-100978072D01*
X104704482Y-100965812D01*
X104824180Y-100929502D01*
X104934494Y-100870537D01*
X105031185Y-100791185D01*
X105110537Y-100694494D01*
X105169502Y-100584180D01*
X105205812Y-100464482D01*
X105218072Y-100340000D01*
X105218072Y-98990000D01*
X105735396Y-98990000D01*
X105773722Y-99379128D01*
X105887226Y-99753302D01*
X106071547Y-100098143D01*
X106319602Y-100400398D01*
X106621857Y-100648453D01*
X106966698Y-100832774D01*
X107340872Y-100946278D01*
X107632490Y-100975000D01*
X108827510Y-100975000D01*
X109119128Y-100946278D01*
X109493302Y-100832774D01*
X109728051Y-100707298D01*
X125386903Y-100707298D01*
X126200000Y-101520395D01*
X127013097Y-100707298D01*
X126941514Y-100463329D01*
X126686004Y-100342429D01*
X126411816Y-100273700D01*
X126129488Y-100259783D01*
X125849870Y-100301213D01*
X125583708Y-100396397D01*
X125458486Y-100463329D01*
X125386903Y-100707298D01*
X109728051Y-100707298D01*
X109838143Y-100648453D01*
X110140398Y-100400398D01*
X110388453Y-100098143D01*
X110559893Y-99777400D01*
X124125395Y-99777400D01*
X124260775Y-99867858D01*
X124441053Y-99942532D01*
X124632434Y-99980600D01*
X124827566Y-99980600D01*
X125018947Y-99942532D01*
X125199225Y-99867858D01*
X125361471Y-99759449D01*
X125499449Y-99621471D01*
X125607858Y-99459225D01*
X125682532Y-99278947D01*
X125720600Y-99087566D01*
X125720600Y-98892434D01*
X125682532Y-98701053D01*
X125607858Y-98520775D01*
X125499449Y-98358529D01*
X125361471Y-98220551D01*
X125199225Y-98112142D01*
X125018947Y-98037468D01*
X124827566Y-97999400D01*
X124632434Y-97999400D01*
X124441053Y-98037468D01*
X124260775Y-98112142D01*
X124125395Y-98202600D01*
X110559893Y-98202600D01*
X110388453Y-97881857D01*
X110140398Y-97579602D01*
X109838143Y-97331547D01*
X109493302Y-97147226D01*
X109119128Y-97033722D01*
X108827510Y-97005000D01*
X107632490Y-97005000D01*
X107340872Y-97033722D01*
X106966698Y-97147226D01*
X106621857Y-97331547D01*
X106319602Y-97579602D01*
X106071547Y-97881857D01*
X105887226Y-98226698D01*
X105773722Y-98600872D01*
X105735396Y-98990000D01*
X105218072Y-98990000D01*
X105218072Y-98115479D01*
X105929434Y-97404118D01*
X105959469Y-97379469D01*
X105986196Y-97346903D01*
X106036222Y-97285945D01*
X106057866Y-97259572D01*
X106130982Y-97122783D01*
X106176006Y-96974357D01*
X106187400Y-96858673D01*
X106187400Y-96858664D01*
X106191208Y-96820001D01*
X106187400Y-96781338D01*
X106187400Y-96039310D01*
X106319602Y-96200398D01*
X106621857Y-96448453D01*
X106966698Y-96632774D01*
X107340872Y-96746278D01*
X107632490Y-96775000D01*
X108827510Y-96775000D01*
X109119128Y-96746278D01*
X109467154Y-96640706D01*
X109515881Y-96689433D01*
X109540531Y-96719469D01*
X109570567Y-96744119D01*
X109570570Y-96744122D01*
X109615728Y-96781182D01*
X109660428Y-96817866D01*
X109797217Y-96890982D01*
X109945643Y-96936006D01*
X110061327Y-96947400D01*
X110061335Y-96947400D01*
X110100000Y-96951208D01*
X110138665Y-96947400D01*
X129731337Y-96947400D01*
X129770000Y-96951208D01*
X129808663Y-96947400D01*
X129808673Y-96947400D01*
X129924357Y-96936006D01*
X130072783Y-96890982D01*
X130209572Y-96817866D01*
X130329469Y-96719469D01*
X130354127Y-96689423D01*
X131206287Y-95837264D01*
X131179400Y-95972434D01*
X131179400Y-96167566D01*
X131217468Y-96358947D01*
X131292142Y-96539225D01*
X131400551Y-96701471D01*
X131538529Y-96839449D01*
X131700775Y-96947858D01*
X131881053Y-97022532D01*
X131993123Y-97044824D01*
X131989729Y-97051996D01*
X131921000Y-97326184D01*
X131907083Y-97608512D01*
X131948513Y-97888130D01*
X132043697Y-98154292D01*
X132110629Y-98279514D01*
X132354598Y-98351097D01*
X133167695Y-97538000D01*
X133153553Y-97523858D01*
X133333158Y-97344253D01*
X133347300Y-97358395D01*
X133361443Y-97344253D01*
X133541048Y-97523858D01*
X133526905Y-97538000D01*
X134340002Y-98351097D01*
X134583971Y-98279514D01*
X134704871Y-98024004D01*
X134773600Y-97749816D01*
X134787517Y-97467488D01*
X134746087Y-97187870D01*
X134650903Y-96921708D01*
X134616530Y-96857400D01*
X136431337Y-96857400D01*
X136470000Y-96861208D01*
X136508663Y-96857400D01*
X136508673Y-96857400D01*
X136571475Y-96851214D01*
X136514774Y-96988102D01*
X136475000Y-97188061D01*
X136475000Y-97391939D01*
X136514774Y-97591898D01*
X136592795Y-97780256D01*
X136706063Y-97949774D01*
X136850226Y-98093937D01*
X137019744Y-98207205D01*
X137208102Y-98285226D01*
X137408061Y-98325000D01*
X137611939Y-98325000D01*
X137811898Y-98285226D01*
X138000256Y-98207205D01*
X138169774Y-98093937D01*
X138176311Y-98087400D01*
X139788383Y-98087400D01*
X139770147Y-98131426D01*
X139715000Y-98408665D01*
X139715000Y-98691335D01*
X139761697Y-98926094D01*
X139696758Y-98906395D01*
X139581074Y-98895001D01*
X139581064Y-98895001D01*
X139542401Y-98891193D01*
X139503738Y-98895001D01*
X137246762Y-98895001D01*
X137208099Y-98891193D01*
X137169436Y-98895001D01*
X137169426Y-98895001D01*
X137053742Y-98906395D01*
X136905316Y-98951419D01*
X136768527Y-99024535D01*
X136736101Y-99051146D01*
X136563553Y-99085468D01*
X136383275Y-99160142D01*
X136247895Y-99250600D01*
X134547035Y-99250600D01*
X134461937Y-99123241D01*
X134262059Y-98923363D01*
X134061431Y-98789308D01*
X134088814Y-98774671D01*
X134160397Y-98530702D01*
X133347300Y-97717605D01*
X132534203Y-98530702D01*
X132605786Y-98774671D01*
X132634641Y-98788324D01*
X132432541Y-98923363D01*
X132232663Y-99123241D01*
X132147565Y-99250600D01*
X131616673Y-99250600D01*
X131683632Y-99088947D01*
X131721700Y-98897566D01*
X131721700Y-98702434D01*
X131683632Y-98511053D01*
X131608958Y-98330775D01*
X131500549Y-98168529D01*
X131362571Y-98030551D01*
X131200325Y-97922142D01*
X131020047Y-97847468D01*
X130828666Y-97809400D01*
X130633534Y-97809400D01*
X130442153Y-97847468D01*
X130261875Y-97922142D01*
X130099629Y-98030551D01*
X129961651Y-98168529D01*
X129853242Y-98330775D01*
X129778568Y-98511053D01*
X129740500Y-98702434D01*
X129740500Y-98897566D01*
X129778568Y-99088947D01*
X129845527Y-99250600D01*
X129608505Y-99250600D01*
X129473125Y-99160142D01*
X129292847Y-99085468D01*
X129101466Y-99047400D01*
X128906334Y-99047400D01*
X128714953Y-99085468D01*
X128534675Y-99160142D01*
X128372429Y-99268551D01*
X128234451Y-99406529D01*
X128126042Y-99568775D01*
X128051368Y-99749053D01*
X128013300Y-99940434D01*
X128013300Y-100135566D01*
X128051368Y-100326947D01*
X128126042Y-100507225D01*
X128234451Y-100669471D01*
X128372429Y-100807449D01*
X128464684Y-100869091D01*
X128273899Y-100971068D01*
X128055392Y-101150392D01*
X127876068Y-101368899D01*
X127742818Y-101618192D01*
X127660764Y-101888691D01*
X127633057Y-102170000D01*
X127660764Y-102451309D01*
X127742818Y-102721808D01*
X127876068Y-102971101D01*
X128055392Y-103189608D01*
X128273899Y-103368932D01*
X128523192Y-103502182D01*
X128582024Y-103520028D01*
X128581426Y-103520147D01*
X128320273Y-103628320D01*
X128085241Y-103785363D01*
X127885363Y-103985241D01*
X127751308Y-104185869D01*
X127736671Y-104158486D01*
X127492702Y-104086903D01*
X126679605Y-104900000D01*
X127492702Y-105713097D01*
X127736671Y-105641514D01*
X127750324Y-105612659D01*
X127885363Y-105814759D01*
X128085241Y-106014637D01*
X128320273Y-106171680D01*
X128581426Y-106279853D01*
X128858665Y-106335000D01*
X129141335Y-106335000D01*
X129418574Y-106279853D01*
X129679727Y-106171680D01*
X129914759Y-106014637D01*
X130114637Y-105814759D01*
X130271680Y-105579727D01*
X130379853Y-105318574D01*
X130435000Y-105041335D01*
X130435000Y-104758665D01*
X130379853Y-104481426D01*
X130271680Y-104220273D01*
X130114637Y-103985241D01*
X129914759Y-103785363D01*
X129679727Y-103628320D01*
X129481567Y-103546240D01*
X129626808Y-103502182D01*
X129876101Y-103368932D01*
X130094608Y-103189608D01*
X130273932Y-102971101D01*
X130407182Y-102721808D01*
X130489236Y-102451309D01*
X130516943Y-102170000D01*
X130489236Y-101888691D01*
X130407182Y-101618192D01*
X130273932Y-101368899D01*
X130094608Y-101150392D01*
X129876101Y-100971068D01*
X129626808Y-100837818D01*
X129601438Y-100830122D01*
X129608505Y-100825400D01*
X132147565Y-100825400D01*
X132232663Y-100952759D01*
X132432541Y-101152637D01*
X132667573Y-101309680D01*
X132928726Y-101417853D01*
X133205965Y-101473000D01*
X133488635Y-101473000D01*
X133765874Y-101417853D01*
X134027027Y-101309680D01*
X134262059Y-101152637D01*
X134461937Y-100952759D01*
X134547035Y-100825400D01*
X136247895Y-100825400D01*
X136383275Y-100915858D01*
X136563553Y-100990532D01*
X136754934Y-101028600D01*
X136863360Y-101028600D01*
X136858357Y-101079400D01*
X136886064Y-101360709D01*
X136968118Y-101631208D01*
X137101368Y-101880501D01*
X137280692Y-102099008D01*
X137498322Y-102277612D01*
X137345003Y-102464434D01*
X137224717Y-102689475D01*
X137157300Y-102911716D01*
X137089883Y-102689474D01*
X136969597Y-102464433D01*
X136807718Y-102267182D01*
X136610466Y-102105303D01*
X136385425Y-101985017D01*
X136141242Y-101910944D01*
X135887300Y-101885933D01*
X135633357Y-101910944D01*
X135389174Y-101985017D01*
X135164133Y-102105303D01*
X134966882Y-102267182D01*
X134805003Y-102464434D01*
X134684717Y-102689475D01*
X134617300Y-102911716D01*
X134549883Y-102689474D01*
X134429597Y-102464433D01*
X134267718Y-102267182D01*
X134070466Y-102105303D01*
X133845425Y-101985017D01*
X133601242Y-101910944D01*
X133347300Y-101885933D01*
X133093357Y-101910944D01*
X132849174Y-101985017D01*
X132624133Y-102105303D01*
X132426882Y-102267182D01*
X132265003Y-102464434D01*
X132144717Y-102689475D01*
X132070644Y-102933658D01*
X132051900Y-103123971D01*
X132051900Y-104572030D01*
X132070644Y-104762343D01*
X132144717Y-105006526D01*
X132265004Y-105231567D01*
X132426883Y-105428818D01*
X132624134Y-105590697D01*
X132849175Y-105710983D01*
X133093358Y-105785056D01*
X133347300Y-105810067D01*
X133601243Y-105785056D01*
X133845426Y-105710983D01*
X134070467Y-105590697D01*
X134267718Y-105428818D01*
X134429597Y-105231567D01*
X134549883Y-105006526D01*
X134617300Y-104784285D01*
X134684717Y-105006526D01*
X134805004Y-105231567D01*
X134966883Y-105428818D01*
X135164134Y-105590697D01*
X135389175Y-105710983D01*
X135633358Y-105785056D01*
X135887300Y-105810067D01*
X136141243Y-105785056D01*
X136385426Y-105710983D01*
X136610467Y-105590697D01*
X136807718Y-105428818D01*
X136969597Y-105231567D01*
X137089883Y-105006526D01*
X137157300Y-104784285D01*
X137224717Y-105006526D01*
X137345004Y-105231567D01*
X137506883Y-105428818D01*
X137704134Y-105590697D01*
X137929175Y-105710983D01*
X138173358Y-105785056D01*
X138427300Y-105810067D01*
X138681243Y-105785056D01*
X138925426Y-105710983D01*
X139150467Y-105590697D01*
X139347718Y-105428818D01*
X139509597Y-105231567D01*
X139629883Y-105006526D01*
X139697300Y-104784285D01*
X139764717Y-105006526D01*
X139885004Y-105231567D01*
X140046883Y-105428818D01*
X140244134Y-105590697D01*
X140469175Y-105710983D01*
X140713358Y-105785056D01*
X140967300Y-105810067D01*
X141221243Y-105785056D01*
X141465426Y-105710983D01*
X141690467Y-105590697D01*
X141887718Y-105428818D01*
X142049597Y-105231567D01*
X142169883Y-105006526D01*
X142237300Y-104784285D01*
X142304717Y-105006526D01*
X142425004Y-105231567D01*
X142586883Y-105428818D01*
X142784134Y-105590697D01*
X143009175Y-105710983D01*
X143253358Y-105785056D01*
X143507300Y-105810067D01*
X143761243Y-105785056D01*
X144005426Y-105710983D01*
X144230467Y-105590697D01*
X144427718Y-105428818D01*
X144589597Y-105231567D01*
X144709883Y-105006526D01*
X144777300Y-104784285D01*
X144844717Y-105006526D01*
X144965004Y-105231567D01*
X145126883Y-105428818D01*
X145324134Y-105590697D01*
X145549175Y-105710983D01*
X145793358Y-105785056D01*
X146047300Y-105810067D01*
X146301243Y-105785056D01*
X146545426Y-105710983D01*
X146770467Y-105590697D01*
X146967718Y-105428818D01*
X147129597Y-105231567D01*
X147249883Y-105006526D01*
X147317300Y-104784285D01*
X147384717Y-105006526D01*
X147505004Y-105231567D01*
X147666883Y-105428818D01*
X147864134Y-105590697D01*
X148089175Y-105710983D01*
X148333358Y-105785056D01*
X148587300Y-105810067D01*
X148841243Y-105785056D01*
X149085426Y-105710983D01*
X149310467Y-105590697D01*
X149507718Y-105428818D01*
X149669597Y-105231567D01*
X149789883Y-105006526D01*
X149857300Y-104784285D01*
X149924717Y-105006526D01*
X150045004Y-105231567D01*
X150206883Y-105428818D01*
X150404134Y-105590697D01*
X150629175Y-105710983D01*
X150873358Y-105785056D01*
X151127300Y-105810067D01*
X151381243Y-105785056D01*
X151625426Y-105710983D01*
X151850467Y-105590697D01*
X152047718Y-105428818D01*
X152209597Y-105231567D01*
X152329883Y-105006526D01*
X152397300Y-104784285D01*
X152464717Y-105006526D01*
X152585004Y-105231567D01*
X152746883Y-105428818D01*
X152944134Y-105590697D01*
X153169175Y-105710983D01*
X153413358Y-105785056D01*
X153667300Y-105810067D01*
X153921243Y-105785056D01*
X154165426Y-105710983D01*
X154390467Y-105590697D01*
X154587718Y-105428818D01*
X154749597Y-105231567D01*
X154869883Y-105006526D01*
X154937300Y-104784285D01*
X155004717Y-105006526D01*
X155125004Y-105231567D01*
X155286883Y-105428818D01*
X155484134Y-105590697D01*
X155709175Y-105710983D01*
X155953358Y-105785056D01*
X156207300Y-105810067D01*
X156461243Y-105785056D01*
X156705426Y-105710983D01*
X156930467Y-105590697D01*
X157127718Y-105428818D01*
X157289597Y-105231567D01*
X157409883Y-105006526D01*
X157477300Y-104784285D01*
X157544717Y-105006526D01*
X157665004Y-105231567D01*
X157826883Y-105428818D01*
X158024134Y-105590697D01*
X158249175Y-105710983D01*
X158493358Y-105785056D01*
X158747300Y-105810067D01*
X159001243Y-105785056D01*
X159245426Y-105710983D01*
X159470467Y-105590697D01*
X159667718Y-105428818D01*
X159829597Y-105231567D01*
X159949883Y-105006526D01*
X160017300Y-104784285D01*
X160084717Y-105006526D01*
X160205004Y-105231567D01*
X160366883Y-105428818D01*
X160564134Y-105590697D01*
X160789175Y-105710983D01*
X161033358Y-105785056D01*
X161287300Y-105810067D01*
X161541243Y-105785056D01*
X161785426Y-105710983D01*
X162010467Y-105590697D01*
X162207718Y-105428818D01*
X162369597Y-105231567D01*
X162489883Y-105006526D01*
X162557300Y-104784285D01*
X162624717Y-105006526D01*
X162745004Y-105231567D01*
X162906883Y-105428818D01*
X163104134Y-105590697D01*
X163329175Y-105710983D01*
X163573358Y-105785056D01*
X163827300Y-105810067D01*
X164081243Y-105785056D01*
X164325426Y-105710983D01*
X164550467Y-105590697D01*
X164747718Y-105428818D01*
X164909597Y-105231567D01*
X165029883Y-105006526D01*
X165097300Y-104784285D01*
X165164717Y-105006526D01*
X165285004Y-105231567D01*
X165446883Y-105428818D01*
X165644134Y-105590697D01*
X165869175Y-105710983D01*
X166113358Y-105785056D01*
X166367300Y-105810067D01*
X166621243Y-105785056D01*
X166865426Y-105710983D01*
X167090467Y-105590697D01*
X167287718Y-105428818D01*
X167449597Y-105231567D01*
X167569883Y-105006526D01*
X167643956Y-104762343D01*
X167662700Y-104572030D01*
X167662700Y-104240000D01*
X180411928Y-104240000D01*
X180411928Y-106640000D01*
X180424188Y-106764482D01*
X180460498Y-106884180D01*
X180519463Y-106994494D01*
X180598815Y-107091185D01*
X180695506Y-107170537D01*
X180805820Y-107229502D01*
X180925518Y-107265812D01*
X181050000Y-107278072D01*
X183450000Y-107278072D01*
X183574482Y-107265812D01*
X183694180Y-107229502D01*
X183804494Y-107170537D01*
X183901185Y-107091185D01*
X183980537Y-106994494D01*
X184039502Y-106884180D01*
X184075812Y-106764482D01*
X184080999Y-106711806D01*
X187351801Y-106711806D01*
X187466500Y-107052754D01*
X187645511Y-107364774D01*
X187881954Y-107635875D01*
X188166743Y-107855639D01*
X188488934Y-108015621D01*
X188728195Y-108088195D01*
X189013000Y-107971432D01*
X189013000Y-106427000D01*
X187468146Y-106427000D01*
X187351801Y-106711806D01*
X184080999Y-106711806D01*
X184088072Y-106640000D01*
X184088072Y-105888194D01*
X187351801Y-105888194D01*
X187468146Y-106173000D01*
X189013000Y-106173000D01*
X189013000Y-104628568D01*
X188728195Y-104511805D01*
X188488934Y-104584379D01*
X188166743Y-104744361D01*
X187881954Y-104964125D01*
X187645511Y-105235226D01*
X187466500Y-105547246D01*
X187351801Y-105888194D01*
X184088072Y-105888194D01*
X184088072Y-104240000D01*
X184075812Y-104115518D01*
X184039502Y-103995820D01*
X183980537Y-103885506D01*
X183901185Y-103788815D01*
X183804494Y-103709463D01*
X183694180Y-103650498D01*
X183574482Y-103614188D01*
X183450000Y-103601928D01*
X183201588Y-103601928D01*
X183213097Y-103562702D01*
X182400000Y-102749605D01*
X181586903Y-103562702D01*
X181598412Y-103601928D01*
X181050000Y-103601928D01*
X180925518Y-103614188D01*
X180805820Y-103650498D01*
X180695506Y-103709463D01*
X180598815Y-103788815D01*
X180519463Y-103885506D01*
X180460498Y-103995820D01*
X180424188Y-104115518D01*
X180411928Y-104240000D01*
X167662700Y-104240000D01*
X167662700Y-103123970D01*
X167643956Y-102933657D01*
X167569883Y-102689474D01*
X167543713Y-102640512D01*
X180959783Y-102640512D01*
X181001213Y-102920130D01*
X181096397Y-103186292D01*
X181163329Y-103311514D01*
X181407298Y-103383097D01*
X182220395Y-102570000D01*
X182579605Y-102570000D01*
X183392702Y-103383097D01*
X183636671Y-103311514D01*
X183650324Y-103282659D01*
X183785363Y-103484759D01*
X183985241Y-103684637D01*
X184220273Y-103841680D01*
X184481426Y-103949853D01*
X184758665Y-104005000D01*
X185041335Y-104005000D01*
X185318574Y-103949853D01*
X185579727Y-103841680D01*
X185814759Y-103684637D01*
X186014637Y-103484759D01*
X186171680Y-103249727D01*
X186279853Y-102988574D01*
X186335000Y-102711335D01*
X186335000Y-102428665D01*
X186279853Y-102151426D01*
X186171680Y-101890273D01*
X186014637Y-101655241D01*
X185814759Y-101455363D01*
X185579727Y-101298320D01*
X185318574Y-101190147D01*
X185041335Y-101135000D01*
X184758665Y-101135000D01*
X184481426Y-101190147D01*
X184220273Y-101298320D01*
X183985241Y-101455363D01*
X183785363Y-101655241D01*
X183651308Y-101855869D01*
X183636671Y-101828486D01*
X183392702Y-101756903D01*
X182579605Y-102570000D01*
X182220395Y-102570000D01*
X181407298Y-101756903D01*
X181163329Y-101828486D01*
X181042429Y-102083996D01*
X180973700Y-102358184D01*
X180959783Y-102640512D01*
X167543713Y-102640512D01*
X167449597Y-102464433D01*
X167287718Y-102267182D01*
X167090466Y-102105303D01*
X166865425Y-101985017D01*
X166621242Y-101910944D01*
X166367300Y-101885933D01*
X166113357Y-101910944D01*
X165869174Y-101985017D01*
X165644133Y-102105303D01*
X165446882Y-102267182D01*
X165285003Y-102464434D01*
X165164717Y-102689475D01*
X165097300Y-102911716D01*
X165029883Y-102689474D01*
X164909597Y-102464433D01*
X164747718Y-102267182D01*
X164550466Y-102105303D01*
X164325425Y-101985017D01*
X164081242Y-101910944D01*
X163827300Y-101885933D01*
X163595647Y-101908749D01*
X163764637Y-101739759D01*
X163873189Y-101577298D01*
X181586903Y-101577298D01*
X182400000Y-102390395D01*
X183213097Y-101577298D01*
X183141514Y-101333329D01*
X182886004Y-101212429D01*
X182611816Y-101143700D01*
X182329488Y-101129783D01*
X182049870Y-101171213D01*
X181783708Y-101266397D01*
X181658486Y-101333329D01*
X181586903Y-101577298D01*
X163873189Y-101577298D01*
X163921680Y-101504727D01*
X164029853Y-101243574D01*
X164085000Y-100966335D01*
X164085000Y-100683665D01*
X164029853Y-100406426D01*
X163921680Y-100145273D01*
X163764637Y-99910241D01*
X163564759Y-99710363D01*
X163329727Y-99553320D01*
X163068574Y-99445147D01*
X162791335Y-99390000D01*
X162508665Y-99390000D01*
X162231426Y-99445147D01*
X161970273Y-99553320D01*
X161735241Y-99710363D01*
X161535363Y-99910241D01*
X161449997Y-100038000D01*
X159351905Y-100038000D01*
X159216525Y-99947542D01*
X159167966Y-99927428D01*
X159427412Y-99940217D01*
X159707030Y-99898787D01*
X159973192Y-99803603D01*
X160098414Y-99736671D01*
X160169997Y-99492702D01*
X159356900Y-98679605D01*
X158543803Y-99492702D01*
X158615386Y-99736671D01*
X158822772Y-99834800D01*
X158649734Y-99834800D01*
X158458353Y-99872868D01*
X158278075Y-99947542D01*
X158115829Y-100055951D01*
X157977851Y-100193929D01*
X157869442Y-100356175D01*
X157794768Y-100536453D01*
X157756700Y-100727834D01*
X157756700Y-100922966D01*
X157794768Y-101114347D01*
X157869442Y-101294625D01*
X157977851Y-101456871D01*
X158115829Y-101594849D01*
X158278075Y-101703258D01*
X158458353Y-101777932D01*
X158649734Y-101816000D01*
X158844866Y-101816000D01*
X159036247Y-101777932D01*
X159216525Y-101703258D01*
X159351905Y-101612800D01*
X161450532Y-101612800D01*
X161535363Y-101739759D01*
X161735241Y-101939637D01*
X161874063Y-102032394D01*
X161785425Y-101985017D01*
X161541242Y-101910944D01*
X161287300Y-101885933D01*
X161033357Y-101910944D01*
X160789174Y-101985017D01*
X160564133Y-102105303D01*
X160366882Y-102267182D01*
X160205003Y-102464434D01*
X160084717Y-102689475D01*
X160017300Y-102911716D01*
X159949883Y-102689474D01*
X159829597Y-102464433D01*
X159667718Y-102267182D01*
X159470466Y-102105303D01*
X159245425Y-101985017D01*
X159001242Y-101910944D01*
X158747300Y-101885933D01*
X158493357Y-101910944D01*
X158249174Y-101985017D01*
X158024133Y-102105303D01*
X157826882Y-102267182D01*
X157665003Y-102464434D01*
X157544717Y-102689475D01*
X157477300Y-102911716D01*
X157409883Y-102689474D01*
X157289597Y-102464433D01*
X157127718Y-102267182D01*
X157125841Y-102265641D01*
X157164759Y-102239637D01*
X157364637Y-102039759D01*
X157521680Y-101804727D01*
X157629853Y-101543574D01*
X157685000Y-101266335D01*
X157685000Y-100983665D01*
X157629853Y-100706426D01*
X157521680Y-100445273D01*
X157364637Y-100210241D01*
X157164759Y-100010363D01*
X156929727Y-99853320D01*
X156668574Y-99745147D01*
X156391335Y-99690000D01*
X156108665Y-99690000D01*
X155831426Y-99745147D01*
X155570273Y-99853320D01*
X155335241Y-100010363D01*
X155135363Y-100210241D01*
X154978320Y-100445273D01*
X154870147Y-100706426D01*
X154815000Y-100983665D01*
X154815000Y-101266335D01*
X154870147Y-101543574D01*
X154978320Y-101804727D01*
X155135363Y-102039759D01*
X155328572Y-102232968D01*
X155286882Y-102267182D01*
X155125003Y-102464434D01*
X155004717Y-102689475D01*
X154937300Y-102911716D01*
X154869883Y-102689474D01*
X154749597Y-102464433D01*
X154587718Y-102267182D01*
X154390466Y-102105303D01*
X154165425Y-101985017D01*
X153921242Y-101910944D01*
X153667300Y-101885933D01*
X153413357Y-101910944D01*
X153169174Y-101985017D01*
X152944133Y-102105303D01*
X152746882Y-102267182D01*
X152585003Y-102464434D01*
X152464717Y-102689475D01*
X152397300Y-102911716D01*
X152329883Y-102689474D01*
X152209597Y-102464433D01*
X152047718Y-102267182D01*
X151850466Y-102105303D01*
X151625425Y-101985017D01*
X151381242Y-101910944D01*
X151127300Y-101885933D01*
X150873357Y-101910944D01*
X150629174Y-101985017D01*
X150404133Y-102105303D01*
X150206882Y-102267182D01*
X150045003Y-102464434D01*
X149924717Y-102689475D01*
X149857300Y-102911716D01*
X149789883Y-102689474D01*
X149669597Y-102464433D01*
X149507718Y-102267182D01*
X149310466Y-102105303D01*
X149085425Y-101985017D01*
X149063877Y-101978481D01*
X149196680Y-101779727D01*
X149304853Y-101518574D01*
X149360000Y-101241335D01*
X149360000Y-100958665D01*
X149304853Y-100681426D01*
X149196680Y-100420273D01*
X149039637Y-100185241D01*
X148839759Y-99985363D01*
X148604727Y-99828320D01*
X148343574Y-99720147D01*
X148066335Y-99665000D01*
X152710005Y-99665000D01*
X152714768Y-99688947D01*
X152789442Y-99869225D01*
X152897851Y-100031471D01*
X153035829Y-100169449D01*
X153198075Y-100277858D01*
X153378353Y-100352532D01*
X153569734Y-100390600D01*
X153764866Y-100390600D01*
X153956247Y-100352532D01*
X154136525Y-100277858D01*
X154298771Y-100169449D01*
X154436749Y-100031471D01*
X154545158Y-99869225D01*
X154619832Y-99688947D01*
X154657900Y-99497566D01*
X154657900Y-99302434D01*
X154619832Y-99111053D01*
X154545158Y-98930775D01*
X154436749Y-98768529D01*
X154298771Y-98630551D01*
X154136525Y-98522142D01*
X154028509Y-98477400D01*
X156111337Y-98477400D01*
X156150000Y-98481208D01*
X156188663Y-98477400D01*
X156188673Y-98477400D01*
X156304357Y-98466006D01*
X156452783Y-98420982D01*
X156589572Y-98347866D01*
X156709469Y-98249469D01*
X156734127Y-98219423D01*
X156922150Y-98031400D01*
X157994966Y-98031400D01*
X157930600Y-98288184D01*
X157916683Y-98570512D01*
X157958113Y-98850130D01*
X158053297Y-99116292D01*
X158120229Y-99241514D01*
X158364198Y-99313097D01*
X159177295Y-98500000D01*
X159163153Y-98485858D01*
X159342758Y-98306253D01*
X159356900Y-98320395D01*
X159371043Y-98306253D01*
X159550648Y-98485858D01*
X159536505Y-98500000D01*
X160349602Y-99313097D01*
X160593571Y-99241514D01*
X160635594Y-99152702D01*
X181586903Y-99152702D01*
X181658486Y-99396671D01*
X181913996Y-99517571D01*
X182188184Y-99586300D01*
X182470512Y-99600217D01*
X182750130Y-99558787D01*
X183016292Y-99463603D01*
X183141514Y-99396671D01*
X183213097Y-99152702D01*
X182400000Y-98339605D01*
X181586903Y-99152702D01*
X160635594Y-99152702D01*
X160714471Y-98986004D01*
X160783200Y-98711816D01*
X160797117Y-98429488D01*
X160755687Y-98149870D01*
X160713320Y-98031400D01*
X166931095Y-98031400D01*
X167066475Y-98121858D01*
X167246753Y-98196532D01*
X167438134Y-98234600D01*
X167633266Y-98234600D01*
X167653817Y-98230512D01*
X180959783Y-98230512D01*
X181001213Y-98510130D01*
X181096397Y-98776292D01*
X181163329Y-98901514D01*
X181407298Y-98973097D01*
X182220395Y-98160000D01*
X182579605Y-98160000D01*
X183392702Y-98973097D01*
X183461928Y-98952785D01*
X183461928Y-98960000D01*
X183474188Y-99084482D01*
X183510498Y-99204180D01*
X183569463Y-99314494D01*
X183648815Y-99411185D01*
X183745506Y-99490537D01*
X183855820Y-99549502D01*
X183975518Y-99585812D01*
X184100000Y-99598072D01*
X185700000Y-99598072D01*
X185824482Y-99585812D01*
X185944180Y-99549502D01*
X186054494Y-99490537D01*
X186151185Y-99411185D01*
X186230537Y-99314494D01*
X186289502Y-99204180D01*
X186325812Y-99084482D01*
X186338072Y-98960000D01*
X186338072Y-97360000D01*
X186325812Y-97235518D01*
X186289502Y-97115820D01*
X186230537Y-97005506D01*
X186151185Y-96908815D01*
X186054494Y-96829463D01*
X185944180Y-96770498D01*
X185824482Y-96734188D01*
X185700000Y-96721928D01*
X184100000Y-96721928D01*
X183975518Y-96734188D01*
X183855820Y-96770498D01*
X183745506Y-96829463D01*
X183648815Y-96908815D01*
X183569463Y-97005506D01*
X183510498Y-97115820D01*
X183474188Y-97235518D01*
X183461928Y-97360000D01*
X183461928Y-97367215D01*
X183392702Y-97346903D01*
X182579605Y-98160000D01*
X182220395Y-98160000D01*
X181407298Y-97346903D01*
X181163329Y-97418486D01*
X181042429Y-97673996D01*
X180973700Y-97948184D01*
X180959783Y-98230512D01*
X167653817Y-98230512D01*
X167824647Y-98196532D01*
X168004925Y-98121858D01*
X168167171Y-98013449D01*
X168305149Y-97875471D01*
X168413558Y-97713225D01*
X168488232Y-97532947D01*
X168526300Y-97341566D01*
X168526300Y-97167298D01*
X181586903Y-97167298D01*
X182400000Y-97980395D01*
X183213097Y-97167298D01*
X183141514Y-96923329D01*
X182886004Y-96802429D01*
X182611816Y-96733700D01*
X182329488Y-96719783D01*
X182049870Y-96761213D01*
X181783708Y-96856397D01*
X181658486Y-96923329D01*
X181586903Y-97167298D01*
X168526300Y-97167298D01*
X168526300Y-97146434D01*
X168488232Y-96955053D01*
X168413558Y-96774775D01*
X168305149Y-96612529D01*
X168167171Y-96474551D01*
X168004925Y-96366142D01*
X167824647Y-96291468D01*
X167633266Y-96253400D01*
X167438134Y-96253400D01*
X167246753Y-96291468D01*
X167066475Y-96366142D01*
X166931095Y-96456600D01*
X160721002Y-96456600D01*
X160736753Y-96418574D01*
X160791900Y-96141335D01*
X160791900Y-95858665D01*
X160736753Y-95581426D01*
X160628580Y-95320273D01*
X160471537Y-95085241D01*
X160271659Y-94885363D01*
X160036627Y-94728320D01*
X159775474Y-94620147D01*
X159498235Y-94565000D01*
X159215565Y-94565000D01*
X159087020Y-94590570D01*
X159001227Y-94504777D01*
X158976569Y-94474731D01*
X158856672Y-94376334D01*
X158719883Y-94303218D01*
X158571457Y-94258194D01*
X158455773Y-94246800D01*
X158455763Y-94246800D01*
X158417100Y-94242992D01*
X158378437Y-94246800D01*
X157470353Y-94246800D01*
X157547070Y-94118881D01*
X157641909Y-93854040D01*
X157520624Y-93632000D01*
X156377000Y-93632000D01*
X156377000Y-93652000D01*
X156123000Y-93652000D01*
X156123000Y-93632000D01*
X154979376Y-93632000D01*
X154858091Y-93854040D01*
X154952930Y-94118881D01*
X155029647Y-94246800D01*
X154497398Y-94246800D01*
X154556300Y-94011816D01*
X154570217Y-93729488D01*
X154528787Y-93449870D01*
X154433603Y-93183708D01*
X154366671Y-93058486D01*
X154122702Y-92986903D01*
X153309605Y-93800000D01*
X153323748Y-93814143D01*
X153144143Y-93993748D01*
X153130000Y-93979605D01*
X153115858Y-93993748D01*
X152936253Y-93814143D01*
X152950395Y-93800000D01*
X152137298Y-92986903D01*
X151893329Y-93058486D01*
X151772429Y-93313996D01*
X151703700Y-93588184D01*
X151689783Y-93870512D01*
X151731213Y-94150130D01*
X151765784Y-94246800D01*
X150940600Y-94246800D01*
X150940600Y-94132434D01*
X150902532Y-93941053D01*
X150855864Y-93828386D01*
X152234712Y-92449539D01*
X152498900Y-92475559D01*
X152599753Y-92465626D01*
X152513708Y-92496397D01*
X152388486Y-92563329D01*
X152316903Y-92807298D01*
X153130000Y-93620395D01*
X153943097Y-92807298D01*
X153871514Y-92563329D01*
X153616004Y-92442429D01*
X153341816Y-92373700D01*
X153059488Y-92359783D01*
X153050214Y-92361157D01*
X153278787Y-92238983D01*
X153491508Y-92064408D01*
X153666083Y-91851687D01*
X153768901Y-91659328D01*
X153871718Y-91851687D01*
X154046293Y-92064408D01*
X154259014Y-92238983D01*
X154501706Y-92368704D01*
X154765041Y-92448586D01*
X155038900Y-92475559D01*
X155276944Y-92452114D01*
X155097615Y-92649869D01*
X154952930Y-92891119D01*
X154858091Y-93155960D01*
X154979376Y-93378000D01*
X156123000Y-93378000D01*
X156123000Y-92235085D01*
X155943622Y-92136534D01*
X156031508Y-92064408D01*
X156206083Y-91851687D01*
X156309938Y-91657387D01*
X156336841Y-91723742D01*
X156487894Y-91953529D01*
X156664698Y-92133011D01*
X156599039Y-92113096D01*
X156377000Y-92235085D01*
X156377000Y-93378000D01*
X157520624Y-93378000D01*
X157615121Y-93205000D01*
X161208057Y-93205000D01*
X161235764Y-93486309D01*
X161317818Y-93756808D01*
X161451068Y-94006101D01*
X161630392Y-94224608D01*
X161848899Y-94403932D01*
X162098192Y-94537182D01*
X162368691Y-94619236D01*
X162579508Y-94640000D01*
X162720492Y-94640000D01*
X162931309Y-94619236D01*
X163201808Y-94537182D01*
X163451101Y-94403932D01*
X163669608Y-94224608D01*
X163748346Y-94128665D01*
X170805000Y-94128665D01*
X170805000Y-94411335D01*
X170860147Y-94688574D01*
X170968320Y-94949727D01*
X171125363Y-95184759D01*
X171325241Y-95384637D01*
X171560273Y-95541680D01*
X171821426Y-95649853D01*
X172098665Y-95705000D01*
X172381335Y-95705000D01*
X172658574Y-95649853D01*
X172919727Y-95541680D01*
X173154759Y-95384637D01*
X173354637Y-95184759D01*
X173511680Y-94949727D01*
X173619853Y-94688574D01*
X173675000Y-94411335D01*
X173675000Y-94270000D01*
X180958057Y-94270000D01*
X180985764Y-94551309D01*
X181067818Y-94821808D01*
X181201068Y-95071101D01*
X181380392Y-95289608D01*
X181598899Y-95468932D01*
X181848192Y-95602182D01*
X182118691Y-95684236D01*
X182329508Y-95705000D01*
X182470492Y-95705000D01*
X182681309Y-95684236D01*
X182951808Y-95602182D01*
X183201101Y-95468932D01*
X183419608Y-95289608D01*
X183598932Y-95071101D01*
X183732182Y-94821808D01*
X183814236Y-94551309D01*
X183841943Y-94270000D01*
X183814236Y-93988691D01*
X183732182Y-93718192D01*
X183598932Y-93468899D01*
X183419608Y-93250392D01*
X183201101Y-93071068D01*
X182951808Y-92937818D01*
X182681309Y-92855764D01*
X182470492Y-92835000D01*
X182329508Y-92835000D01*
X182118691Y-92855764D01*
X181848192Y-92937818D01*
X181598899Y-93071068D01*
X181380392Y-93250392D01*
X181201068Y-93468899D01*
X181067818Y-93718192D01*
X180985764Y-93988691D01*
X180958057Y-94270000D01*
X173675000Y-94270000D01*
X173675000Y-94128665D01*
X173619853Y-93851426D01*
X173511680Y-93590273D01*
X173354637Y-93355241D01*
X173154759Y-93155363D01*
X172919727Y-92998320D01*
X172658574Y-92890147D01*
X172381335Y-92835000D01*
X172098665Y-92835000D01*
X171821426Y-92890147D01*
X171560273Y-92998320D01*
X171325241Y-93155363D01*
X171125363Y-93355241D01*
X170968320Y-93590273D01*
X170860147Y-93851426D01*
X170805000Y-94128665D01*
X163748346Y-94128665D01*
X163848932Y-94006101D01*
X163982182Y-93756808D01*
X164064236Y-93486309D01*
X164091943Y-93205000D01*
X164064236Y-92923691D01*
X163982182Y-92653192D01*
X163848932Y-92403899D01*
X163669608Y-92185392D01*
X163451101Y-92006068D01*
X163201808Y-91872818D01*
X162931309Y-91790764D01*
X162720492Y-91770000D01*
X162579508Y-91770000D01*
X162368691Y-91790764D01*
X162098192Y-91872818D01*
X161848899Y-92006068D01*
X161630392Y-92185392D01*
X161451068Y-92403899D01*
X161317818Y-92653192D01*
X161235764Y-92923691D01*
X161208057Y-93205000D01*
X157615121Y-93205000D01*
X157641909Y-93155960D01*
X157547070Y-92891119D01*
X157402385Y-92649869D01*
X157213414Y-92441481D01*
X157176393Y-92414039D01*
X157235830Y-92426020D01*
X157451900Y-92303520D01*
X157451900Y-90436800D01*
X157705900Y-90436800D01*
X157705900Y-92303520D01*
X157921970Y-92426020D01*
X157996176Y-92411062D01*
X158249435Y-92303922D01*
X158476926Y-92149432D01*
X158669906Y-91953529D01*
X158820959Y-91723742D01*
X158924281Y-91468901D01*
X158975900Y-91198800D01*
X158975900Y-90436800D01*
X157705900Y-90436800D01*
X157451900Y-90436800D01*
X157431900Y-90436800D01*
X157431900Y-90182800D01*
X157451900Y-90182800D01*
X157451900Y-90162800D01*
X157705900Y-90162800D01*
X157705900Y-90182800D01*
X158975900Y-90182800D01*
X158975900Y-89420800D01*
X158924281Y-89150699D01*
X158913785Y-89124810D01*
X160063111Y-89124810D01*
X159860241Y-89260363D01*
X159660363Y-89460241D01*
X159503320Y-89695273D01*
X159395147Y-89956426D01*
X159340000Y-90233665D01*
X159340000Y-90516335D01*
X159395147Y-90793574D01*
X159503320Y-91054727D01*
X159660363Y-91289759D01*
X159860241Y-91489637D01*
X160095273Y-91646680D01*
X160356426Y-91754853D01*
X160633665Y-91810000D01*
X160916335Y-91810000D01*
X161193574Y-91754853D01*
X161454727Y-91646680D01*
X161689759Y-91489637D01*
X161889637Y-91289759D01*
X162046680Y-91054727D01*
X162154853Y-90793574D01*
X162210000Y-90516335D01*
X162210000Y-90233665D01*
X162154853Y-89956426D01*
X162046680Y-89695273D01*
X161889637Y-89460241D01*
X161689759Y-89260363D01*
X161486889Y-89124810D01*
X167689796Y-89124810D01*
X167593899Y-89176068D01*
X167375392Y-89355392D01*
X167196068Y-89573899D01*
X167062818Y-89823192D01*
X166980764Y-90093691D01*
X166953057Y-90375000D01*
X166980764Y-90656309D01*
X167062818Y-90926808D01*
X167196068Y-91176101D01*
X167375392Y-91394608D01*
X167593899Y-91573932D01*
X167843192Y-91707182D01*
X168113691Y-91789236D01*
X168324508Y-91810000D01*
X168465492Y-91810000D01*
X168676309Y-91789236D01*
X168946808Y-91707182D01*
X169196101Y-91573932D01*
X169414608Y-91394608D01*
X169593932Y-91176101D01*
X169727182Y-90926808D01*
X169809236Y-90656309D01*
X169836943Y-90375000D01*
X169809236Y-90093691D01*
X169727182Y-89823192D01*
X169593932Y-89573899D01*
X169414608Y-89355392D01*
X169196101Y-89176068D01*
X169100204Y-89124810D01*
X170881260Y-89124810D01*
X171839562Y-90083112D01*
X171761552Y-90340277D01*
X171726122Y-90700000D01*
X171761552Y-91059723D01*
X171866479Y-91405622D01*
X172036871Y-91724404D01*
X172266181Y-92003819D01*
X172545596Y-92233129D01*
X172864378Y-92403521D01*
X173210277Y-92508448D01*
X173479861Y-92535000D01*
X173660139Y-92535000D01*
X173929723Y-92508448D01*
X174275622Y-92403521D01*
X174594404Y-92233129D01*
X174873819Y-92003819D01*
X175103129Y-91724404D01*
X175273521Y-91405622D01*
X175378448Y-91059723D01*
X175413878Y-90700000D01*
X175378448Y-90340277D01*
X175273521Y-89994378D01*
X175103129Y-89675596D01*
X174959022Y-89500000D01*
X181891928Y-89500000D01*
X181891928Y-91900000D01*
X181904188Y-92024482D01*
X181940498Y-92144180D01*
X181999463Y-92254494D01*
X182078815Y-92351185D01*
X182175506Y-92430537D01*
X182285820Y-92489502D01*
X182405518Y-92525812D01*
X182530000Y-92538072D01*
X184930000Y-92538072D01*
X185054482Y-92525812D01*
X185174180Y-92489502D01*
X185284494Y-92430537D01*
X185381185Y-92351185D01*
X185460537Y-92254494D01*
X185519502Y-92144180D01*
X185555812Y-92024482D01*
X185568072Y-91900000D01*
X185568072Y-89500000D01*
X185555812Y-89375518D01*
X185519502Y-89255820D01*
X185460537Y-89145506D01*
X185381185Y-89048815D01*
X185284494Y-88969463D01*
X185174180Y-88910498D01*
X185054482Y-88874188D01*
X184930000Y-88861928D01*
X182530000Y-88861928D01*
X182405518Y-88874188D01*
X182285820Y-88910498D01*
X182175506Y-88969463D01*
X182078815Y-89048815D01*
X181999463Y-89145506D01*
X181940498Y-89255820D01*
X181904188Y-89375518D01*
X181891928Y-89500000D01*
X174959022Y-89500000D01*
X174873819Y-89396181D01*
X174594404Y-89166871D01*
X174275622Y-88996479D01*
X173929723Y-88891552D01*
X173660139Y-88865000D01*
X173479861Y-88865000D01*
X173210277Y-88891552D01*
X172953112Y-88969562D01*
X172603509Y-88619959D01*
X187476939Y-88619994D01*
G36*
X140597998Y-120511549D02*
G01*
X140597998Y-120550084D01*
X140375961Y-120428096D01*
X140241913Y-120468754D01*
X139987580Y-120588963D01*
X139761586Y-120756481D01*
X139572615Y-120964869D01*
X139427930Y-121206119D01*
X139333091Y-121470960D01*
X139454376Y-121693000D01*
X140598000Y-121693000D01*
X140598000Y-121673000D01*
X140852000Y-121673000D01*
X140852000Y-121693000D01*
X140872000Y-121693000D01*
X140872000Y-121947000D01*
X140852000Y-121947000D01*
X140852000Y-121967000D01*
X140598000Y-121967000D01*
X140598000Y-121947000D01*
X139454376Y-121947000D01*
X139333091Y-122169040D01*
X139427930Y-122433881D01*
X139572615Y-122675131D01*
X139761586Y-122883519D01*
X139811329Y-122920391D01*
X138254028Y-122920368D01*
X138439637Y-122734759D01*
X138596680Y-122499727D01*
X138704853Y-122238574D01*
X138760000Y-121961335D01*
X138760000Y-121678665D01*
X138704853Y-121401426D01*
X138596680Y-121140273D01*
X138439637Y-120905241D01*
X138239759Y-120705363D01*
X138004727Y-120548320D01*
X137790538Y-120459600D01*
X138711695Y-120459600D01*
X138847075Y-120550058D01*
X139027353Y-120624732D01*
X139218734Y-120662800D01*
X139413866Y-120662800D01*
X139605247Y-120624732D01*
X139785525Y-120550058D01*
X139947771Y-120441649D01*
X140085749Y-120303671D01*
X140194158Y-120141425D01*
X140204033Y-120117584D01*
X140597998Y-120511549D01*
X140597998Y-120511549D01*
G37*
X140597998Y-120511549D02*
X140597998Y-120550084D01*
X140375961Y-120428096D01*
X140241913Y-120468754D01*
X139987580Y-120588963D01*
X139761586Y-120756481D01*
X139572615Y-120964869D01*
X139427930Y-121206119D01*
X139333091Y-121470960D01*
X139454376Y-121693000D01*
X140598000Y-121693000D01*
X140598000Y-121673000D01*
X140852000Y-121673000D01*
X140852000Y-121693000D01*
X140872000Y-121693000D01*
X140872000Y-121947000D01*
X140852000Y-121947000D01*
X140852000Y-121967000D01*
X140598000Y-121967000D01*
X140598000Y-121947000D01*
X139454376Y-121947000D01*
X139333091Y-122169040D01*
X139427930Y-122433881D01*
X139572615Y-122675131D01*
X139761586Y-122883519D01*
X139811329Y-122920391D01*
X138254028Y-122920368D01*
X138439637Y-122734759D01*
X138596680Y-122499727D01*
X138704853Y-122238574D01*
X138760000Y-121961335D01*
X138760000Y-121678665D01*
X138704853Y-121401426D01*
X138596680Y-121140273D01*
X138439637Y-120905241D01*
X138239759Y-120705363D01*
X138004727Y-120548320D01*
X137790538Y-120459600D01*
X138711695Y-120459600D01*
X138847075Y-120550058D01*
X139027353Y-120624732D01*
X139218734Y-120662800D01*
X139413866Y-120662800D01*
X139605247Y-120624732D01*
X139785525Y-120550058D01*
X139947771Y-120441649D01*
X140085749Y-120303671D01*
X140194158Y-120141425D01*
X140204033Y-120117584D01*
X140597998Y-120511549D01*
G36*
X142717429Y-119088996D02*
G01*
X142648700Y-119363184D01*
X142634783Y-119645512D01*
X142676213Y-119925130D01*
X142771397Y-120191292D01*
X142838329Y-120316514D01*
X143082298Y-120388097D01*
X143895395Y-119575000D01*
X143881253Y-119560858D01*
X144060858Y-119381253D01*
X144075000Y-119395395D01*
X144089143Y-119381253D01*
X144268748Y-119560858D01*
X144254605Y-119575000D01*
X145067702Y-120388097D01*
X145311671Y-120316514D01*
X145432571Y-120061004D01*
X145501300Y-119786816D01*
X145515217Y-119504488D01*
X145473787Y-119224870D01*
X145424625Y-119087400D01*
X148923738Y-119087400D01*
X148895147Y-119156426D01*
X148840000Y-119433665D01*
X148840000Y-119716335D01*
X148869883Y-119866566D01*
X148020575Y-120715875D01*
X148020570Y-120715879D01*
X147503850Y-121232600D01*
X143546151Y-121232600D01*
X142881253Y-120567702D01*
X143261903Y-120567702D01*
X143333486Y-120811671D01*
X143588996Y-120932571D01*
X143863184Y-121001300D01*
X144145512Y-121015217D01*
X144425130Y-120973787D01*
X144691292Y-120878603D01*
X144816514Y-120811671D01*
X144888097Y-120567702D01*
X144075000Y-119754605D01*
X143261903Y-120567702D01*
X142881253Y-120567702D01*
X141400950Y-119087400D01*
X142718184Y-119087400D01*
X142717429Y-119088996D01*
X142717429Y-119088996D01*
G37*
X142717429Y-119088996D02*
X142648700Y-119363184D01*
X142634783Y-119645512D01*
X142676213Y-119925130D01*
X142771397Y-120191292D01*
X142838329Y-120316514D01*
X143082298Y-120388097D01*
X143895395Y-119575000D01*
X143881253Y-119560858D01*
X144060858Y-119381253D01*
X144075000Y-119395395D01*
X144089143Y-119381253D01*
X144268748Y-119560858D01*
X144254605Y-119575000D01*
X145067702Y-120388097D01*
X145311671Y-120316514D01*
X145432571Y-120061004D01*
X145501300Y-119786816D01*
X145515217Y-119504488D01*
X145473787Y-119224870D01*
X145424625Y-119087400D01*
X148923738Y-119087400D01*
X148895147Y-119156426D01*
X148840000Y-119433665D01*
X148840000Y-119716335D01*
X148869883Y-119866566D01*
X148020575Y-120715875D01*
X148020570Y-120715879D01*
X147503850Y-121232600D01*
X143546151Y-121232600D01*
X142881253Y-120567702D01*
X143261903Y-120567702D01*
X143333486Y-120811671D01*
X143588996Y-120932571D01*
X143863184Y-121001300D01*
X144145512Y-121015217D01*
X144425130Y-120973787D01*
X144691292Y-120878603D01*
X144816514Y-120811671D01*
X144888097Y-120567702D01*
X144075000Y-119754605D01*
X143261903Y-120567702D01*
X142881253Y-120567702D01*
X141400950Y-119087400D01*
X142718184Y-119087400D01*
X142717429Y-119088996D01*
G36*
X150468748Y-117060858D02*
G01*
X150454605Y-117075000D01*
X150468748Y-117089143D01*
X150289143Y-117268748D01*
X150275000Y-117254605D01*
X150260858Y-117268748D01*
X150081253Y-117089143D01*
X150095395Y-117075000D01*
X150081253Y-117060858D01*
X150260858Y-116881253D01*
X150275000Y-116895395D01*
X150289143Y-116881253D01*
X150468748Y-117060858D01*
X150468748Y-117060858D01*
G37*
X150468748Y-117060858D02*
X150454605Y-117075000D01*
X150468748Y-117089143D01*
X150289143Y-117268748D01*
X150275000Y-117254605D01*
X150260858Y-117268748D01*
X150081253Y-117089143D01*
X150095395Y-117075000D01*
X150081253Y-117060858D01*
X150260858Y-116881253D01*
X150275000Y-116895395D01*
X150289143Y-116881253D01*
X150468748Y-117060858D01*
G36*
X119605900Y-90182800D02*
G01*
X119625900Y-90182800D01*
X119625900Y-90436800D01*
X119605900Y-90436800D01*
X119605900Y-92303520D01*
X119821970Y-92426020D01*
X119896176Y-92411062D01*
X120149435Y-92303922D01*
X120376926Y-92149432D01*
X120569906Y-91953529D01*
X120720959Y-91723742D01*
X120747862Y-91657386D01*
X120851718Y-91851687D01*
X121026293Y-92064408D01*
X121237453Y-92237702D01*
X121242895Y-92292957D01*
X121287918Y-92441382D01*
X121325010Y-92510775D01*
X121361035Y-92578172D01*
X121459432Y-92698069D01*
X121489473Y-92722723D01*
X121920577Y-93153828D01*
X121945232Y-93183870D01*
X122065129Y-93282267D01*
X122201918Y-93355383D01*
X122350344Y-93400407D01*
X122466028Y-93411801D01*
X122466037Y-93411801D01*
X122504700Y-93415609D01*
X122543363Y-93411801D01*
X124930030Y-93411801D01*
X124867818Y-93528192D01*
X124785764Y-93798691D01*
X124758057Y-94080000D01*
X124785764Y-94361309D01*
X124867818Y-94631808D01*
X125001068Y-94881101D01*
X125180392Y-95099608D01*
X125398899Y-95278932D01*
X125574139Y-95372600D01*
X110627589Y-95372600D01*
X110686278Y-95179128D01*
X110724604Y-94790000D01*
X110686278Y-94400872D01*
X110572774Y-94026698D01*
X110388453Y-93681857D01*
X110140398Y-93379602D01*
X110028050Y-93287400D01*
X114678591Y-93287400D01*
X114717254Y-93291208D01*
X114755917Y-93287400D01*
X114755927Y-93287400D01*
X114871611Y-93276006D01*
X115020037Y-93230982D01*
X115156826Y-93157866D01*
X115276723Y-93059469D01*
X115301382Y-93029422D01*
X117894004Y-90436800D01*
X118081900Y-90436800D01*
X118081900Y-91198800D01*
X118133519Y-91468901D01*
X118236841Y-91723742D01*
X118387894Y-91953529D01*
X118580874Y-92149432D01*
X118808365Y-92303922D01*
X119061624Y-92411062D01*
X119135830Y-92426020D01*
X119351900Y-92303520D01*
X119351900Y-90436800D01*
X118081900Y-90436800D01*
X117894004Y-90436800D01*
X118148005Y-90182800D01*
X119351900Y-90182800D01*
X119351900Y-90162800D01*
X119605900Y-90162800D01*
X119605900Y-90182800D01*
X119605900Y-90182800D01*
G37*
X119605900Y-90182800D02*
X119625900Y-90182800D01*
X119625900Y-90436800D01*
X119605900Y-90436800D01*
X119605900Y-92303520D01*
X119821970Y-92426020D01*
X119896176Y-92411062D01*
X120149435Y-92303922D01*
X120376926Y-92149432D01*
X120569906Y-91953529D01*
X120720959Y-91723742D01*
X120747862Y-91657386D01*
X120851718Y-91851687D01*
X121026293Y-92064408D01*
X121237453Y-92237702D01*
X121242895Y-92292957D01*
X121287918Y-92441382D01*
X121325010Y-92510775D01*
X121361035Y-92578172D01*
X121459432Y-92698069D01*
X121489473Y-92722723D01*
X121920577Y-93153828D01*
X121945232Y-93183870D01*
X122065129Y-93282267D01*
X122201918Y-93355383D01*
X122350344Y-93400407D01*
X122466028Y-93411801D01*
X122466037Y-93411801D01*
X122504700Y-93415609D01*
X122543363Y-93411801D01*
X124930030Y-93411801D01*
X124867818Y-93528192D01*
X124785764Y-93798691D01*
X124758057Y-94080000D01*
X124785764Y-94361309D01*
X124867818Y-94631808D01*
X125001068Y-94881101D01*
X125180392Y-95099608D01*
X125398899Y-95278932D01*
X125574139Y-95372600D01*
X110627589Y-95372600D01*
X110686278Y-95179128D01*
X110724604Y-94790000D01*
X110686278Y-94400872D01*
X110572774Y-94026698D01*
X110388453Y-93681857D01*
X110140398Y-93379602D01*
X110028050Y-93287400D01*
X114678591Y-93287400D01*
X114717254Y-93291208D01*
X114755917Y-93287400D01*
X114755927Y-93287400D01*
X114871611Y-93276006D01*
X115020037Y-93230982D01*
X115156826Y-93157866D01*
X115276723Y-93059469D01*
X115301382Y-93029422D01*
X117894004Y-90436800D01*
X118081900Y-90436800D01*
X118081900Y-91198800D01*
X118133519Y-91468901D01*
X118236841Y-91723742D01*
X118387894Y-91953529D01*
X118580874Y-92149432D01*
X118808365Y-92303922D01*
X119061624Y-92411062D01*
X119135830Y-92426020D01*
X119351900Y-92303520D01*
X119351900Y-90436800D01*
X118081900Y-90436800D01*
X117894004Y-90436800D01*
X118148005Y-90182800D01*
X119351900Y-90182800D01*
X119351900Y-90162800D01*
X119605900Y-90162800D01*
X119605900Y-90182800D01*
M02*
