G04 #@! TF.GenerationSoftware,KiCad,Pcbnew,5.1.4-e60b266~84~ubuntu19.04.1*
G04 #@! TF.CreationDate,2019-08-18T21:03:41+02:00*
G04 #@! TF.ProjectId,SLC_Free_PCB,534c435f-4672-4656-955f-5043422e6b69,rev?*
G04 #@! TF.SameCoordinates,Original*
G04 #@! TF.FileFunction,Copper,L1,Top*
G04 #@! TF.FilePolarity,Positive*
%FSLAX46Y46*%
G04 Gerber Fmt 4.6, Leading zero omitted, Abs format (unit mm)*
G04 Created by KiCad (PCBNEW 5.1.4-e60b266~84~ubuntu19.04.1) date 2019-08-18 21:03:41*
%MOMM*%
%LPD*%
G04 APERTURE LIST*
%ADD10O,1.600000X1.600000*%
%ADD11C,1.600000*%
%ADD12O,3.700000X2.700000*%
%ADD13R,3.700000X2.700000*%
%ADD14R,11.500000X8.000000*%
%ADD15O,1.676400X3.352800*%
%ADD16O,1.320800X2.641600*%
%ADD17O,1.524000X3.048000*%
%ADD18R,2.400000X2.400000*%
%ADD19O,2.400000X2.400000*%
%ADD20R,1.600000X1.600000*%
%ADD21C,0.800000*%
%ADD22C,0.711200*%
%ADD23C,0.304800*%
%ADD24C,1.350000*%
%ADD25C,0.609600*%
%ADD26C,1.016000*%
%ADD27C,0.250000*%
%ADD28C,0.203200*%
%ADD29C,0.254000*%
G04 APERTURE END LIST*
D10*
X152981500Y-122110000D03*
D11*
X152981500Y-114490000D03*
D12*
X108230000Y-94790000D03*
X108230000Y-98990000D03*
X102730000Y-94790000D03*
D13*
X102730000Y-98990000D03*
D12*
X108220000Y-108380000D03*
X108220000Y-112580000D03*
X108220000Y-116780000D03*
X102720000Y-108380000D03*
X102720000Y-112580000D03*
D13*
X102720000Y-116780000D03*
D10*
X182400000Y-94270000D03*
D11*
X172240000Y-94270000D03*
X141150000Y-96050000D03*
X141150000Y-98550000D03*
D10*
X147925000Y-93480000D03*
D11*
X147925000Y-101100000D03*
D10*
X144810000Y-101090000D03*
D11*
X144810000Y-93470000D03*
D10*
X168395000Y-90375000D03*
D11*
X160775000Y-90375000D03*
D10*
X156250000Y-93505000D03*
D11*
X156250000Y-101125000D03*
D10*
X162650000Y-93205000D03*
D11*
X162650000Y-100825000D03*
D10*
X124050000Y-118950000D03*
D11*
X124050000Y-111330000D03*
D10*
X131275000Y-114200000D03*
D11*
X131275000Y-121820000D03*
D10*
X128725000Y-121820000D03*
D11*
X128725000Y-114200000D03*
D10*
X133725000Y-121820000D03*
D11*
X133725000Y-114200000D03*
D10*
X137325000Y-114200000D03*
D11*
X137325000Y-121820000D03*
D10*
X140725000Y-121820000D03*
D11*
X140725000Y-114200000D03*
D10*
X138300300Y-101079400D03*
D11*
X138300300Y-93459400D03*
D10*
X129075000Y-102170000D03*
D11*
X129075000Y-94550000D03*
D10*
X126200000Y-94080000D03*
D11*
X126200000Y-101700000D03*
X126500000Y-104900000D03*
X129000000Y-104900000D03*
X144075000Y-119575000D03*
X144075000Y-117075000D03*
X150275000Y-117075000D03*
X150275000Y-119575000D03*
X188320000Y-115620000D03*
X185820000Y-115620000D03*
X182400000Y-102570000D03*
X184900000Y-102570000D03*
X159356900Y-98500000D03*
X159356900Y-96000000D03*
X153130000Y-93800000D03*
X153130000Y-96300000D03*
X133347300Y-97538000D03*
X133347300Y-100038000D03*
D14*
X117690000Y-97410000D03*
D15*
X115150000Y-115190000D03*
X117690000Y-115190000D03*
X120230000Y-115190000D03*
D14*
X174114300Y-100217200D03*
D15*
X171574300Y-115457200D03*
X174114300Y-115457200D03*
X176654300Y-115457200D03*
D16*
X133347300Y-103848000D03*
X135887300Y-103848000D03*
X138427300Y-103848000D03*
X140967300Y-103848000D03*
X143507300Y-103848000D03*
X146047300Y-103848000D03*
X148587300Y-103848000D03*
X151127300Y-103848000D03*
X153667300Y-103848000D03*
X156207300Y-103848000D03*
X158747300Y-103848000D03*
X161287300Y-103848000D03*
X163827300Y-103848000D03*
X166367300Y-103848000D03*
X166367300Y-111468000D03*
X163827300Y-111468000D03*
X161287300Y-111468000D03*
X158747300Y-111468000D03*
X156207300Y-111468000D03*
X153667300Y-111468000D03*
X143507300Y-111468000D03*
X146047300Y-111468000D03*
X140967300Y-111468000D03*
X138427300Y-111468000D03*
X151127300Y-111468000D03*
X148587300Y-111468000D03*
X135887300Y-111468000D03*
X133347300Y-111468000D03*
D17*
X183817100Y-120586600D03*
X181277100Y-120586600D03*
X178737100Y-120586600D03*
X176197100Y-120586600D03*
X173657100Y-120586600D03*
X157578900Y-90309800D03*
X155038900Y-90309800D03*
X152498900Y-90309800D03*
X149958900Y-90309800D03*
X147418900Y-90309800D03*
X144878900Y-90309800D03*
X142338900Y-90309800D03*
X139798900Y-90309800D03*
X137258900Y-90309800D03*
X134718900Y-90309800D03*
X132178900Y-90309800D03*
X129638900Y-90309800D03*
X127098900Y-90309800D03*
X124558900Y-90309800D03*
X122018900Y-90309800D03*
X119478900Y-90309800D03*
X169593100Y-120586600D03*
X167053100Y-120586600D03*
X164513100Y-120586600D03*
X161973100Y-120586600D03*
X159433100Y-120586600D03*
X156893100Y-120586600D03*
D18*
X183730000Y-90700000D03*
D19*
X173570000Y-90700000D03*
D18*
X182250000Y-105440000D03*
D19*
X182250000Y-115600000D03*
X189140000Y-106300000D03*
D18*
X189140000Y-96140000D03*
D20*
X184900000Y-98160000D03*
D11*
X182400000Y-98160000D03*
X187650000Y-109790000D03*
D20*
X187650000Y-112290000D03*
D21*
X142220000Y-107750000D03*
X142220000Y-119410000D03*
X151330000Y-107880000D03*
X147820000Y-120040000D03*
X124610000Y-94980000D03*
X126190000Y-98070000D03*
D22*
X147950000Y-97690000D03*
X129003900Y-100038000D03*
X127560000Y-92980000D03*
X136852500Y-100038000D03*
X167535700Y-97244000D03*
X138427300Y-109080400D03*
X157473300Y-109283600D03*
X146060000Y-97300000D03*
D21*
X137510000Y-97290000D03*
D22*
X130731100Y-98800000D03*
X148810000Y-95970000D03*
X132170000Y-96070000D03*
X143913700Y-98877600D03*
X153667300Y-99400000D03*
X155191300Y-118783200D03*
X158747300Y-100825400D03*
X126159100Y-111341000D03*
X126209900Y-118148200D03*
X160271300Y-118072000D03*
X137870000Y-117560000D03*
X165732300Y-117487800D03*
X163801900Y-117995800D03*
X159560100Y-117360800D03*
X160982500Y-117360800D03*
X158747300Y-114516000D03*
X161973100Y-116649600D03*
X156181900Y-116649600D03*
X164540000Y-115710000D03*
X130670000Y-109780000D03*
X140332300Y-117075000D03*
X138605100Y-118961000D03*
D21*
X120190000Y-119860000D03*
D22*
X147300000Y-113169800D03*
X149950000Y-94230000D03*
X131289900Y-120383400D03*
X128775300Y-111468000D03*
X138300300Y-96050200D03*
X139316300Y-119672200D03*
D21*
X111490000Y-118400000D03*
D22*
X152981500Y-119596000D03*
X124730000Y-98990000D03*
X125447900Y-119570600D03*
D21*
X100118000Y-103968000D03*
X100718000Y-103368000D03*
D23*
X150898699Y-116395601D02*
X150898699Y-114391301D01*
X150238300Y-117056000D02*
X150898699Y-116395601D01*
X150898699Y-114391301D02*
X152390000Y-112900000D01*
X152390000Y-108940000D02*
X151330000Y-107880000D01*
X152390000Y-112900000D02*
X152390000Y-108940000D01*
D24*
X120230000Y-112163600D02*
X120230000Y-115190000D01*
X120230000Y-111990000D02*
X120230000Y-112163600D01*
D25*
X142220000Y-108315685D02*
X142220000Y-119410000D01*
X142220000Y-107750000D02*
X142220000Y-108315685D01*
D23*
X147820000Y-120040000D02*
X147820000Y-119474300D01*
X147820000Y-119474300D02*
X147944300Y-119350000D01*
X147944300Y-119350000D02*
X150238300Y-117056000D01*
D25*
X140725000Y-120905000D02*
X142220000Y-119410000D01*
X140725000Y-121820000D02*
X140725000Y-120905000D01*
D24*
X102730000Y-94790000D02*
X101490000Y-94790000D01*
X102730000Y-94790000D02*
X101300000Y-94790000D01*
D26*
X102730000Y-94790000D02*
X101360000Y-94790000D01*
D25*
X125009999Y-95379999D02*
X125009999Y-96889999D01*
X124610000Y-94980000D02*
X125009999Y-95379999D01*
X125009999Y-96889999D02*
X126190000Y-98070000D01*
X126190000Y-98070000D02*
X126190000Y-98070000D01*
D24*
X98620000Y-97530000D02*
X101360000Y-94790000D01*
X98620000Y-104450000D02*
X98620000Y-97530000D01*
X99771301Y-105601301D02*
X98620000Y-104450000D01*
X120230000Y-115190000D02*
X120230000Y-110992602D01*
X114838699Y-105601301D02*
X99771301Y-105601301D01*
X120230000Y-110992602D02*
X114838699Y-105601301D01*
D25*
X133347300Y-103848000D02*
X133347300Y-100038000D01*
X129003900Y-104889400D02*
X129003900Y-102171600D01*
X168348500Y-90386000D02*
X167535700Y-91198800D01*
X167535700Y-91198800D02*
X167535700Y-97244000D01*
D27*
X136852500Y-100540894D02*
X136575000Y-100818394D01*
X136852500Y-100038000D02*
X136852500Y-100540894D01*
X136575000Y-100818394D02*
X136575000Y-101675000D01*
X136575000Y-101675000D02*
X137150000Y-102250000D01*
X137150000Y-102250000D02*
X137150000Y-112525000D01*
X137150000Y-112525000D02*
X135725000Y-113950000D01*
X135725000Y-113950000D02*
X135725000Y-114925000D01*
X135725000Y-114925000D02*
X136950000Y-116150000D01*
X136950000Y-116150000D02*
X136950000Y-120300000D01*
X137325000Y-120675000D02*
X137325000Y-121820000D01*
X136950000Y-120300000D02*
X137325000Y-120675000D01*
D23*
X147950000Y-101075000D02*
X147925000Y-101100000D01*
X147950000Y-97690000D02*
X147950000Y-101075000D01*
X129075000Y-100109100D02*
X129003900Y-100038000D01*
X129075000Y-102170000D02*
X129075000Y-100109100D01*
X127560000Y-93482894D02*
X127550000Y-93492894D01*
X127560000Y-92980000D02*
X127560000Y-93482894D01*
X127550000Y-98584100D02*
X129003900Y-100038000D01*
X127550000Y-93492894D02*
X127550000Y-98584100D01*
D26*
X185800000Y-115600000D02*
X185820000Y-115620000D01*
X182250000Y-115600000D02*
X185800000Y-115600000D01*
X185820000Y-114120000D02*
X187650000Y-112290000D01*
X185820000Y-115620000D02*
X185820000Y-114120000D01*
X181607200Y-114957200D02*
X182250000Y-115600000D01*
X176654300Y-115795400D02*
X176654300Y-114957200D01*
X182107200Y-115457200D02*
X182250000Y-115600000D01*
X176654300Y-115457200D02*
X182107200Y-115457200D01*
X176654300Y-116295400D02*
X176654300Y-115457200D01*
X173657100Y-119292600D02*
X176654300Y-116295400D01*
X173657100Y-120586600D02*
X173657100Y-119292600D01*
D25*
X167535700Y-97244000D02*
X167535700Y-109384300D01*
X169593100Y-111441700D02*
X167535700Y-109384300D01*
X169593100Y-120586600D02*
X169593100Y-111441700D01*
D23*
X133702900Y-121805800D02*
X134871300Y-120637400D01*
X135887300Y-105676800D02*
X135887300Y-103848000D01*
X134871300Y-120637400D02*
X134871300Y-115508700D01*
X134871300Y-115508700D02*
X135160000Y-115220000D01*
X135160000Y-115220000D02*
X135160000Y-113470000D01*
X135160000Y-113470000D02*
X134620000Y-112930000D01*
X134620000Y-112930000D02*
X134620000Y-106944100D01*
X134620000Y-106944100D02*
X135160000Y-106404100D01*
X134871300Y-106692800D02*
X135160000Y-106404100D01*
X135160000Y-106404100D02*
X135887300Y-105676800D01*
X138427300Y-103848000D02*
X138427300Y-109080400D01*
X156893100Y-118757800D02*
X157510000Y-118140900D01*
X156893100Y-120586600D02*
X156893100Y-118757800D01*
X157473300Y-118104200D02*
X157473300Y-109283600D01*
X157510000Y-118140900D02*
X157473300Y-118104200D01*
X140967300Y-98768000D02*
X141145100Y-98590200D01*
X141150000Y-103665300D02*
X140967300Y-103848000D01*
X141150000Y-98550000D02*
X141150000Y-103665300D01*
X143507300Y-103848000D02*
X143507300Y-102349400D01*
X143507300Y-102349400D02*
X144777300Y-101079400D01*
X129638900Y-91071800D02*
X129638900Y-90309800D01*
X131086699Y-92519599D02*
X129638900Y-91071800D01*
X131086699Y-98444401D02*
X131086699Y-92519599D01*
X130731100Y-98800000D02*
X131086699Y-98444401D01*
X146047300Y-97417300D02*
X146040000Y-97410000D01*
X146047300Y-103848000D02*
X146047300Y-97417300D01*
X135434315Y-98800000D02*
X134920000Y-98800000D01*
X137510000Y-97290000D02*
X136944315Y-97290000D01*
X136944315Y-97290000D02*
X135434315Y-98800000D01*
X130731100Y-98800000D02*
X134920000Y-98800000D01*
X134920000Y-98800000D02*
X135384200Y-98800000D01*
X148587300Y-103848000D02*
X148942900Y-103492400D01*
X148587300Y-103848000D02*
X148587300Y-102972700D01*
X148587300Y-102972700D02*
X149360000Y-102200000D01*
X149360000Y-96520000D02*
X148810000Y-95970000D01*
X149360000Y-102200000D02*
X149360000Y-96520000D01*
X132178900Y-96061100D02*
X132170000Y-96070000D01*
X132178900Y-90309800D02*
X132178900Y-96061100D01*
X151127300Y-103848000D02*
X151127300Y-91478200D01*
X151127300Y-91478200D02*
X149958900Y-90309800D01*
X144878900Y-91071800D02*
X144878900Y-90309800D01*
X142990000Y-92960700D02*
X144878900Y-91071800D01*
X153667300Y-103848000D02*
X153667300Y-102222400D01*
X153667300Y-102222400D02*
X153667300Y-99400000D01*
X142990000Y-97953900D02*
X143913700Y-98877600D01*
X142990000Y-92960700D02*
X142990000Y-97953900D01*
X155191300Y-118783200D02*
X155191300Y-106718200D01*
X155191300Y-106718200D02*
X156207300Y-105702200D01*
X156207300Y-105702200D02*
X156207300Y-103848000D01*
X156207300Y-99357300D02*
X156207300Y-103848000D01*
X153130000Y-96280000D02*
X156207300Y-99357300D01*
X158747300Y-103848000D02*
X158747300Y-100825400D01*
X126209900Y-111391800D02*
X126159100Y-111341000D01*
X126209900Y-118148200D02*
X126209900Y-111391800D01*
X161287300Y-105600600D02*
X161287300Y-103848000D01*
X159990000Y-106897900D02*
X161287300Y-105600600D01*
X159990000Y-113810000D02*
X159990000Y-106897900D01*
X160268101Y-114088101D02*
X159990000Y-113810000D01*
X160271300Y-118072000D02*
X160268101Y-118068801D01*
X160268101Y-118068801D02*
X160268101Y-114088101D01*
X166367300Y-105727600D02*
X166367300Y-103848000D01*
X165090000Y-107004900D02*
X166367300Y-105727600D01*
X165090000Y-113870000D02*
X165090000Y-107004900D01*
X165351300Y-114131300D02*
X165090000Y-113870000D01*
X165732300Y-117487800D02*
X165351300Y-117106800D01*
X165351300Y-117106800D02*
X165351300Y-114131300D01*
X163827300Y-111468000D02*
X163827300Y-115735200D01*
X163827300Y-115735200D02*
X163801900Y-115760600D01*
X163801900Y-115760600D02*
X163801900Y-117995800D01*
X159433100Y-120586600D02*
X159433100Y-117487800D01*
X159433100Y-117487800D02*
X159560100Y-117360800D01*
X160982500Y-117360800D02*
X160982500Y-111772800D01*
X160982500Y-111772800D02*
X161287300Y-111468000D01*
X158747300Y-114516000D02*
X158747300Y-111468000D01*
X161973100Y-120586600D02*
X161973100Y-116649600D01*
X156207300Y-111468000D02*
X156207300Y-116624200D01*
X156207300Y-116624200D02*
X156181900Y-116649600D01*
X164540000Y-120559700D02*
X164513100Y-120586600D01*
X164540000Y-115710000D02*
X164540000Y-120559700D01*
X130680000Y-109267106D02*
X130670000Y-109277106D01*
X130680000Y-100350000D02*
X130680000Y-109267106D01*
X127098900Y-90309800D02*
X130581889Y-93792789D01*
X130670000Y-109277106D02*
X130670000Y-109780000D01*
X130680000Y-100350000D02*
X129720000Y-99390000D01*
X129720000Y-99390000D02*
X129720000Y-96811889D01*
X129720000Y-96811889D02*
X130581889Y-95950000D01*
X130581889Y-93792789D02*
X130581889Y-95950000D01*
D28*
X136776300Y-113779400D02*
X136852500Y-113703200D01*
D23*
X138605100Y-118961000D02*
X138757500Y-118808600D01*
X138600000Y-118975000D02*
X138600000Y-111964600D01*
X138757500Y-111798200D02*
X138427300Y-111468000D01*
X100562493Y-119202494D02*
X99860000Y-118500000D01*
X120190000Y-119860000D02*
X119624315Y-119860000D01*
X119624315Y-119860000D02*
X118963691Y-119199376D01*
X100562597Y-119202390D02*
X100562493Y-119202494D01*
X118963691Y-119199376D02*
X107600624Y-119199376D01*
X107600624Y-119199376D02*
X107597610Y-119202390D01*
X107597610Y-119202390D02*
X100562597Y-119202390D01*
X102720000Y-112580000D02*
X102220000Y-112580000D01*
X99860000Y-118500000D02*
X99860000Y-115360000D01*
X99860000Y-114940000D02*
X99860000Y-115360000D01*
X102220000Y-112580000D02*
X99860000Y-114940000D01*
X147300000Y-112666906D02*
X147310000Y-112656906D01*
X147300000Y-113169800D02*
X147300000Y-112666906D01*
X147310000Y-112656906D02*
X147310000Y-102630000D01*
X147418900Y-91071800D02*
X146390000Y-92100700D01*
X147418900Y-90309800D02*
X147418900Y-91071800D01*
X146755301Y-99924699D02*
X146552110Y-100127890D01*
X146552110Y-101872110D02*
X147310000Y-102630000D01*
X146552110Y-100127890D02*
X146552110Y-101872110D01*
X146755301Y-99924699D02*
X146765301Y-99924699D01*
X146765301Y-99924699D02*
X147040000Y-99650000D01*
X147040000Y-96460000D02*
X146390000Y-95810000D01*
X146390000Y-92100700D02*
X146390000Y-95810000D01*
X147040000Y-99650000D02*
X147040000Y-96460000D01*
X148587300Y-109690000D02*
X148587300Y-111468000D01*
X149950000Y-108327300D02*
X149017300Y-109260000D01*
X149654100Y-108623200D02*
X149017300Y-109260000D01*
X149950000Y-94230000D02*
X149950000Y-108327300D01*
X149017300Y-109260000D02*
X148587300Y-109690000D01*
X131289900Y-120383400D02*
X131264500Y-118453000D01*
X131264500Y-118453000D02*
X131264500Y-114185800D01*
X128775300Y-114185800D02*
X128775300Y-111468000D01*
X138300300Y-101079400D02*
X138300300Y-96050200D01*
X139675000Y-112866300D02*
X139316300Y-113225000D01*
X139675000Y-94834100D02*
X139675000Y-112866300D01*
X138300300Y-93459400D02*
X139675000Y-94834100D01*
X139316300Y-119672200D02*
X139316300Y-113225000D01*
X110924315Y-118400000D02*
X111490000Y-118400000D01*
X110629749Y-118694566D02*
X110924315Y-118400000D01*
X107388511Y-118697580D02*
X107391525Y-118694566D01*
X107391525Y-118694566D02*
X110629749Y-118694566D01*
X105410000Y-118270000D02*
X105837580Y-118697580D01*
X105837580Y-118697580D02*
X107388511Y-118697580D01*
X107720000Y-108380000D02*
X108220000Y-108380000D01*
X105410000Y-110500000D02*
X105410000Y-118270000D01*
X108220000Y-108380000D02*
X107270000Y-108380000D01*
X105410000Y-110240000D02*
X105410000Y-110500000D01*
X107270000Y-108380000D02*
X105410000Y-110240000D01*
D27*
X155038900Y-91071800D02*
X155038900Y-90309800D01*
D23*
X155038900Y-90309800D02*
X155038900Y-90588346D01*
D25*
X159975001Y-91174999D02*
X160775000Y-90375000D01*
X158811390Y-92338610D02*
X159975001Y-91174999D01*
X157014716Y-92338610D02*
X158811390Y-92338610D01*
X155038900Y-90309800D02*
X155038900Y-90362794D01*
X155038900Y-90362794D02*
X157014716Y-92338610D01*
D23*
X124558900Y-92438900D02*
X126200000Y-94080000D01*
X124558900Y-90309800D02*
X124558900Y-92438900D01*
X152981500Y-119596000D02*
X152981500Y-122136000D01*
X125440000Y-119059806D02*
X125447900Y-119067706D01*
X125447900Y-119067706D02*
X125447900Y-119570600D01*
X125440000Y-110210000D02*
X125440000Y-119059806D01*
X124730000Y-98990000D02*
X124730000Y-109500000D01*
X124730000Y-109500000D02*
X125440000Y-110210000D01*
X162151900Y-93205000D02*
X162650000Y-93205000D01*
X159356900Y-96000000D02*
X162151900Y-93205000D01*
X102710000Y-99710000D02*
X103210000Y-99710000D01*
D26*
X102730000Y-101356000D02*
X102730000Y-98990000D01*
X100718000Y-103368000D02*
X102730000Y-101356000D01*
X100118000Y-103968000D02*
X100718000Y-103368000D01*
D23*
X103230000Y-98990000D02*
X102730000Y-98990000D01*
X105330000Y-96890000D02*
X103230000Y-98990000D01*
X118137410Y-89079844D02*
X114717254Y-92500000D01*
X105330000Y-93900000D02*
X105330000Y-96890000D01*
X114717254Y-92500000D02*
X106730000Y-92500000D01*
X106730000Y-92500000D02*
X105330000Y-93900000D01*
X118137410Y-89079844D02*
X118137410Y-89072590D01*
X118879844Y-88337410D02*
X118137410Y-89079844D01*
X172370001Y-89497411D02*
X171210000Y-88337410D01*
X171210000Y-88337410D02*
X118879844Y-88337410D01*
X173570000Y-90700000D02*
X172370001Y-89500001D01*
X172370001Y-89500001D02*
X172370001Y-89497411D01*
D26*
X179310000Y-90700000D02*
X175740000Y-94270000D01*
X183730000Y-90700000D02*
X179310000Y-90700000D01*
X172240000Y-94270000D02*
X175740000Y-94270000D01*
X184900000Y-102320000D02*
X184900000Y-102440000D01*
X184900000Y-97850000D02*
X184920000Y-97830000D01*
X184890000Y-102330000D02*
X184900000Y-102320000D01*
X184900000Y-102320000D02*
X184900000Y-102790000D01*
X180034000Y-105440000D02*
X182250000Y-105440000D01*
X171574300Y-113899700D02*
X180034000Y-105440000D01*
X171574300Y-115457200D02*
X171574300Y-113899700D01*
X184900000Y-102320000D02*
X184900000Y-98160000D01*
X184900000Y-96770000D02*
X182400000Y-94270000D01*
X184900000Y-98160000D02*
X184900000Y-96770000D01*
X187120000Y-98160000D02*
X189140000Y-96140000D01*
X184900000Y-98160000D02*
X187120000Y-98160000D01*
X184900000Y-102790000D02*
X182250000Y-105440000D01*
X184900000Y-102570000D02*
X184900000Y-102790000D01*
D29*
G36*
X121063932Y-88909712D02*
G01*
X120957797Y-89108278D01*
X120892439Y-89323734D01*
X120875900Y-89491655D01*
X120875900Y-91127946D01*
X120892439Y-91295867D01*
X120957798Y-91511323D01*
X121063933Y-91709889D01*
X121206768Y-91883933D01*
X121380812Y-92026768D01*
X121579378Y-92132903D01*
X121794834Y-92198261D01*
X122018900Y-92220330D01*
X122242967Y-92198261D01*
X122458423Y-92132903D01*
X122656989Y-92026768D01*
X122831033Y-91883933D01*
X122973868Y-91709889D01*
X123080003Y-91511323D01*
X123145361Y-91295867D01*
X123161900Y-91127946D01*
X123161900Y-89491654D01*
X123145361Y-89323733D01*
X123080003Y-89108277D01*
X122973868Y-88909711D01*
X122941943Y-88870810D01*
X123635858Y-88870810D01*
X123603932Y-88909712D01*
X123497797Y-89108278D01*
X123432439Y-89323734D01*
X123415900Y-89491655D01*
X123415900Y-91127946D01*
X123432439Y-91295867D01*
X123497798Y-91511323D01*
X123603933Y-91709889D01*
X123746768Y-91883933D01*
X123920812Y-92026768D01*
X124025501Y-92082725D01*
X124025501Y-92412703D01*
X124022921Y-92438900D01*
X124033219Y-92543464D01*
X124063719Y-92644010D01*
X124084146Y-92682225D01*
X124113250Y-92736675D01*
X124137976Y-92766803D01*
X124163207Y-92797548D01*
X124163210Y-92797551D01*
X124179906Y-92817895D01*
X124200250Y-92834591D01*
X125077529Y-93711871D01*
X125036088Y-93848484D01*
X125013286Y-94080000D01*
X125036088Y-94311516D01*
X125041371Y-94328933D01*
X124979942Y-94287887D01*
X124837809Y-94229013D01*
X124686922Y-94199000D01*
X124533078Y-94199000D01*
X124382191Y-94229013D01*
X124240058Y-94287887D01*
X124112141Y-94373358D01*
X124003358Y-94482141D01*
X123917887Y-94610058D01*
X123859013Y-94752191D01*
X123829000Y-94903078D01*
X123829000Y-95056922D01*
X123859013Y-95207809D01*
X123917887Y-95349942D01*
X124003358Y-95477859D01*
X124112141Y-95586642D01*
X124240058Y-95672113D01*
X124324199Y-95706966D01*
X124324200Y-96856311D01*
X124320882Y-96889999D01*
X124334123Y-97024439D01*
X124373338Y-97153713D01*
X124437019Y-97272852D01*
X124490132Y-97337570D01*
X124522720Y-97377279D01*
X124548885Y-97398752D01*
X125436796Y-98286664D01*
X125439013Y-98297809D01*
X125497887Y-98439942D01*
X125583358Y-98567859D01*
X125692141Y-98676642D01*
X125820058Y-98762113D01*
X125962191Y-98820987D01*
X126113078Y-98851000D01*
X126266922Y-98851000D01*
X126417809Y-98820987D01*
X126559942Y-98762113D01*
X126687859Y-98676642D01*
X126796642Y-98567859D01*
X126882113Y-98439942D01*
X126940987Y-98297809D01*
X126971000Y-98146922D01*
X126971000Y-97993078D01*
X126940987Y-97842191D01*
X126882113Y-97700058D01*
X126796642Y-97572141D01*
X126687859Y-97463358D01*
X126559942Y-97377887D01*
X126417809Y-97319013D01*
X126406664Y-97316796D01*
X125695799Y-96605932D01*
X125695799Y-95413677D01*
X125699116Y-95379998D01*
X125695799Y-95346319D01*
X125695799Y-95346310D01*
X125685876Y-95245559D01*
X125649221Y-95124724D01*
X125745864Y-95176381D01*
X125968484Y-95243912D01*
X126141984Y-95261000D01*
X126258016Y-95261000D01*
X126431516Y-95243912D01*
X126654136Y-95176381D01*
X126859303Y-95066717D01*
X127016600Y-94937627D01*
X127016601Y-98557903D01*
X127014021Y-98584100D01*
X127024319Y-98688664D01*
X127054819Y-98789210D01*
X127073092Y-98823396D01*
X127104350Y-98881875D01*
X127131674Y-98915169D01*
X127154307Y-98942748D01*
X127154310Y-98942751D01*
X127171006Y-98963095D01*
X127191350Y-98979791D01*
X128267300Y-100055742D01*
X128267300Y-100110549D01*
X128295607Y-100252858D01*
X128351134Y-100386911D01*
X128431745Y-100507555D01*
X128534345Y-100610155D01*
X128541601Y-100615003D01*
X128541601Y-101115986D01*
X128415697Y-101183283D01*
X128235866Y-101330866D01*
X128088283Y-101510697D01*
X127978619Y-101715864D01*
X127911088Y-101938484D01*
X127888286Y-102170000D01*
X127911088Y-102401516D01*
X127978619Y-102624136D01*
X128088283Y-102829303D01*
X128235866Y-103009134D01*
X128318101Y-103076622D01*
X128318100Y-103935255D01*
X128247157Y-103982658D01*
X128082658Y-104147157D01*
X127953412Y-104340587D01*
X127864386Y-104555515D01*
X127819000Y-104783682D01*
X127819000Y-105016318D01*
X127864386Y-105244485D01*
X127953412Y-105459413D01*
X128082658Y-105652843D01*
X128247157Y-105817342D01*
X128440587Y-105946588D01*
X128655515Y-106035614D01*
X128883682Y-106081000D01*
X129116318Y-106081000D01*
X129344485Y-106035614D01*
X129559413Y-105946588D01*
X129752843Y-105817342D01*
X129917342Y-105652843D01*
X130046588Y-105459413D01*
X130135614Y-105244485D01*
X130146601Y-105189253D01*
X130146601Y-109165019D01*
X130144319Y-109172542D01*
X130136600Y-109250912D01*
X130136600Y-109250919D01*
X130134331Y-109273959D01*
X130097845Y-109310445D01*
X130017234Y-109431089D01*
X129961707Y-109565142D01*
X129933400Y-109707451D01*
X129933400Y-109852549D01*
X129961707Y-109994858D01*
X130017234Y-110128911D01*
X130097845Y-110249555D01*
X130200445Y-110352155D01*
X130321089Y-110432766D01*
X130455142Y-110488293D01*
X130597451Y-110516600D01*
X130742549Y-110516600D01*
X130884858Y-110488293D01*
X131018911Y-110432766D01*
X131139555Y-110352155D01*
X131242155Y-110249555D01*
X131322766Y-110128911D01*
X131366100Y-110024294D01*
X131366100Y-113022258D01*
X131333016Y-113019000D01*
X131216984Y-113019000D01*
X131043484Y-113036088D01*
X130820864Y-113103619D01*
X130615697Y-113213283D01*
X130435866Y-113360866D01*
X130288283Y-113540697D01*
X130178619Y-113745864D01*
X130111088Y-113968484D01*
X130088286Y-114200000D01*
X130111088Y-114431516D01*
X130178619Y-114654136D01*
X130288283Y-114859303D01*
X130435866Y-115039134D01*
X130615697Y-115186717D01*
X130731101Y-115248402D01*
X130731100Y-118430329D01*
X130730802Y-118433826D01*
X130731100Y-118456475D01*
X130731100Y-118479194D01*
X130731445Y-118482697D01*
X130749853Y-119881737D01*
X130717745Y-119913845D01*
X130637134Y-120034489D01*
X130581607Y-120168542D01*
X130553300Y-120310851D01*
X130553300Y-120455949D01*
X130581607Y-120598258D01*
X130637134Y-120732311D01*
X130680335Y-120796967D01*
X130522157Y-120902658D01*
X130357658Y-121067157D01*
X130228412Y-121260587D01*
X130139386Y-121475515D01*
X130094000Y-121703682D01*
X130094000Y-121936318D01*
X130139386Y-122164485D01*
X130228412Y-122379413D01*
X130357658Y-122572843D01*
X130522157Y-122737342D01*
X130715587Y-122866588D01*
X130930515Y-122955614D01*
X131158682Y-123001000D01*
X131366100Y-123001000D01*
X131366100Y-123174262D01*
X114356775Y-123174003D01*
X114595736Y-123126471D01*
X114956255Y-122977139D01*
X115280714Y-122760343D01*
X115556643Y-122484414D01*
X115773439Y-122159955D01*
X115914253Y-121820000D01*
X127538286Y-121820000D01*
X127561088Y-122051516D01*
X127628619Y-122274136D01*
X127738283Y-122479303D01*
X127885866Y-122659134D01*
X128065697Y-122806717D01*
X128270864Y-122916381D01*
X128493484Y-122983912D01*
X128666984Y-123001000D01*
X128783016Y-123001000D01*
X128956516Y-122983912D01*
X129179136Y-122916381D01*
X129384303Y-122806717D01*
X129564134Y-122659134D01*
X129711717Y-122479303D01*
X129821381Y-122274136D01*
X129888912Y-122051516D01*
X129911714Y-121820000D01*
X129888912Y-121588484D01*
X129821381Y-121365864D01*
X129711717Y-121160697D01*
X129564134Y-120980866D01*
X129384303Y-120833283D01*
X129179136Y-120723619D01*
X128956516Y-120656088D01*
X128783016Y-120639000D01*
X128666984Y-120639000D01*
X128493484Y-120656088D01*
X128270864Y-120723619D01*
X128065697Y-120833283D01*
X127885866Y-120980866D01*
X127738283Y-121160697D01*
X127628619Y-121365864D01*
X127561088Y-121588484D01*
X127538286Y-121820000D01*
X115914253Y-121820000D01*
X115922771Y-121799436D01*
X115998900Y-121416711D01*
X115998900Y-121026489D01*
X115922771Y-120643764D01*
X115773439Y-120283245D01*
X115556643Y-119958786D01*
X115330633Y-119732776D01*
X118742750Y-119732776D01*
X119228624Y-120218651D01*
X119245320Y-120238995D01*
X119326540Y-120305651D01*
X119419204Y-120355181D01*
X119519750Y-120385681D01*
X119598120Y-120393400D01*
X119598127Y-120393400D01*
X119621168Y-120395669D01*
X119692141Y-120466642D01*
X119820058Y-120552113D01*
X119962191Y-120610987D01*
X120113078Y-120641000D01*
X120266922Y-120641000D01*
X120417809Y-120610987D01*
X120559942Y-120552113D01*
X120687859Y-120466642D01*
X120796642Y-120357859D01*
X120882113Y-120229942D01*
X120940987Y-120087809D01*
X120971000Y-119936922D01*
X120971000Y-119783078D01*
X120940987Y-119632191D01*
X120882113Y-119490058D01*
X120796642Y-119362141D01*
X120687859Y-119253358D01*
X120559942Y-119167887D01*
X120417809Y-119109013D01*
X120266922Y-119079000D01*
X120113078Y-119079000D01*
X119962191Y-119109013D01*
X119820058Y-119167887D01*
X119740022Y-119221365D01*
X119468657Y-118950000D01*
X122863286Y-118950000D01*
X122886088Y-119181516D01*
X122953619Y-119404136D01*
X123063283Y-119609303D01*
X123210866Y-119789134D01*
X123390697Y-119936717D01*
X123595864Y-120046381D01*
X123818484Y-120113912D01*
X123991984Y-120131000D01*
X124108016Y-120131000D01*
X124281516Y-120113912D01*
X124504136Y-120046381D01*
X124709303Y-119936717D01*
X124778678Y-119879783D01*
X124795134Y-119919511D01*
X124875745Y-120040155D01*
X124978345Y-120142755D01*
X125098989Y-120223366D01*
X125233042Y-120278893D01*
X125375351Y-120307200D01*
X125520449Y-120307200D01*
X125662758Y-120278893D01*
X125796811Y-120223366D01*
X125917455Y-120142755D01*
X126020055Y-120040155D01*
X126100666Y-119919511D01*
X126156193Y-119785458D01*
X126184500Y-119643149D01*
X126184500Y-119498051D01*
X126156193Y-119355742D01*
X126100666Y-119221689D01*
X126020055Y-119101045D01*
X125983569Y-119064559D01*
X125981300Y-119041519D01*
X125981300Y-119041511D01*
X125973581Y-118963141D01*
X125973400Y-118962544D01*
X125973400Y-118847529D01*
X125995042Y-118856493D01*
X126137351Y-118884800D01*
X126282449Y-118884800D01*
X126424758Y-118856493D01*
X126558811Y-118800966D01*
X126679455Y-118720355D01*
X126782055Y-118617755D01*
X126862666Y-118497111D01*
X126918193Y-118363058D01*
X126946500Y-118220749D01*
X126946500Y-118075651D01*
X126918193Y-117933342D01*
X126862666Y-117799289D01*
X126782055Y-117678645D01*
X126743300Y-117639890D01*
X126743300Y-114083682D01*
X127544000Y-114083682D01*
X127544000Y-114316318D01*
X127589386Y-114544485D01*
X127678412Y-114759413D01*
X127807658Y-114952843D01*
X127972157Y-115117342D01*
X128165587Y-115246588D01*
X128380515Y-115335614D01*
X128608682Y-115381000D01*
X128841318Y-115381000D01*
X129069485Y-115335614D01*
X129284413Y-115246588D01*
X129477843Y-115117342D01*
X129642342Y-114952843D01*
X129771588Y-114759413D01*
X129860614Y-114544485D01*
X129906000Y-114316318D01*
X129906000Y-114083682D01*
X129860614Y-113855515D01*
X129771588Y-113640587D01*
X129642342Y-113447157D01*
X129477843Y-113282658D01*
X129308700Y-113169640D01*
X129308700Y-111976310D01*
X129347455Y-111937555D01*
X129428066Y-111816911D01*
X129483593Y-111682858D01*
X129511900Y-111540549D01*
X129511900Y-111395451D01*
X129483593Y-111253142D01*
X129428066Y-111119089D01*
X129347455Y-110998445D01*
X129244855Y-110895845D01*
X129124211Y-110815234D01*
X128990158Y-110759707D01*
X128847849Y-110731400D01*
X128702751Y-110731400D01*
X128560442Y-110759707D01*
X128426389Y-110815234D01*
X128305745Y-110895845D01*
X128203145Y-110998445D01*
X128122534Y-111119089D01*
X128067007Y-111253142D01*
X128038700Y-111395451D01*
X128038700Y-111540549D01*
X128067007Y-111682858D01*
X128122534Y-111816911D01*
X128203145Y-111937555D01*
X128241901Y-111976311D01*
X128241900Y-113121802D01*
X128165587Y-113153412D01*
X127972157Y-113282658D01*
X127807658Y-113447157D01*
X127678412Y-113640587D01*
X127589386Y-113855515D01*
X127544000Y-114083682D01*
X126743300Y-114083682D01*
X126743300Y-111792528D01*
X126811866Y-111689911D01*
X126867393Y-111555858D01*
X126895700Y-111413549D01*
X126895700Y-111268451D01*
X126867393Y-111126142D01*
X126811866Y-110992089D01*
X126731255Y-110871445D01*
X126628655Y-110768845D01*
X126508011Y-110688234D01*
X126373958Y-110632707D01*
X126231649Y-110604400D01*
X126086551Y-110604400D01*
X125973400Y-110626907D01*
X125973400Y-110236194D01*
X125975980Y-110210000D01*
X125967993Y-110128911D01*
X125965681Y-110105435D01*
X125935181Y-110004889D01*
X125885651Y-109912225D01*
X125818995Y-109831005D01*
X125798645Y-109814304D01*
X125263400Y-109279059D01*
X125263400Y-104783682D01*
X125319000Y-104783682D01*
X125319000Y-105016318D01*
X125364386Y-105244485D01*
X125453412Y-105459413D01*
X125582658Y-105652843D01*
X125747157Y-105817342D01*
X125940587Y-105946588D01*
X126155515Y-106035614D01*
X126383682Y-106081000D01*
X126616318Y-106081000D01*
X126844485Y-106035614D01*
X127059413Y-105946588D01*
X127252843Y-105817342D01*
X127417342Y-105652843D01*
X127546588Y-105459413D01*
X127635614Y-105244485D01*
X127681000Y-105016318D01*
X127681000Y-104783682D01*
X127635614Y-104555515D01*
X127546588Y-104340587D01*
X127417342Y-104147157D01*
X127252843Y-103982658D01*
X127059413Y-103853412D01*
X126844485Y-103764386D01*
X126616318Y-103719000D01*
X126383682Y-103719000D01*
X126155515Y-103764386D01*
X125940587Y-103853412D01*
X125747157Y-103982658D01*
X125582658Y-104147157D01*
X125453412Y-104340587D01*
X125364386Y-104555515D01*
X125319000Y-104783682D01*
X125263400Y-104783682D01*
X125263400Y-102424021D01*
X125282658Y-102452843D01*
X125447157Y-102617342D01*
X125640587Y-102746588D01*
X125855515Y-102835614D01*
X126083682Y-102881000D01*
X126316318Y-102881000D01*
X126544485Y-102835614D01*
X126759413Y-102746588D01*
X126952843Y-102617342D01*
X127117342Y-102452843D01*
X127246588Y-102259413D01*
X127335614Y-102044485D01*
X127381000Y-101816318D01*
X127381000Y-101583682D01*
X127335614Y-101355515D01*
X127246588Y-101140587D01*
X127117342Y-100947157D01*
X126952843Y-100782658D01*
X126759413Y-100653412D01*
X126544485Y-100564386D01*
X126316318Y-100519000D01*
X126083682Y-100519000D01*
X125855515Y-100564386D01*
X125640587Y-100653412D01*
X125447157Y-100782658D01*
X125282658Y-100947157D01*
X125263400Y-100975979D01*
X125263400Y-99498310D01*
X125302155Y-99459555D01*
X125382766Y-99338911D01*
X125438293Y-99204858D01*
X125466600Y-99062549D01*
X125466600Y-98917451D01*
X125438293Y-98775142D01*
X125382766Y-98641089D01*
X125302155Y-98520445D01*
X125199555Y-98417845D01*
X125078911Y-98337234D01*
X124944858Y-98281707D01*
X124802549Y-98253400D01*
X124657451Y-98253400D01*
X124515142Y-98281707D01*
X124381089Y-98337234D01*
X124260445Y-98417845D01*
X124157845Y-98520445D01*
X124077234Y-98641089D01*
X124021707Y-98775142D01*
X123993400Y-98917451D01*
X123993400Y-99062549D01*
X124021707Y-99204858D01*
X124077234Y-99338911D01*
X124157845Y-99459555D01*
X124196600Y-99498310D01*
X124196601Y-109473803D01*
X124194021Y-109500000D01*
X124204319Y-109604564D01*
X124234819Y-109705110D01*
X124240009Y-109714819D01*
X124284350Y-109797775D01*
X124296915Y-109813085D01*
X124334307Y-109858648D01*
X124334310Y-109858651D01*
X124351006Y-109878995D01*
X124371350Y-109895691D01*
X124906600Y-110430941D01*
X124906600Y-110516415D01*
X124802843Y-110412658D01*
X124609413Y-110283412D01*
X124394485Y-110194386D01*
X124166318Y-110149000D01*
X123933682Y-110149000D01*
X123705515Y-110194386D01*
X123490587Y-110283412D01*
X123297157Y-110412658D01*
X123132658Y-110577157D01*
X123003412Y-110770587D01*
X122914386Y-110985515D01*
X122869000Y-111213682D01*
X122869000Y-111446318D01*
X122914386Y-111674485D01*
X123003412Y-111889413D01*
X123132658Y-112082843D01*
X123297157Y-112247342D01*
X123490587Y-112376588D01*
X123705515Y-112465614D01*
X123933682Y-112511000D01*
X124166318Y-112511000D01*
X124394485Y-112465614D01*
X124609413Y-112376588D01*
X124802843Y-112247342D01*
X124906600Y-112143585D01*
X124906601Y-118132150D01*
X124889134Y-118110866D01*
X124709303Y-117963283D01*
X124504136Y-117853619D01*
X124281516Y-117786088D01*
X124108016Y-117769000D01*
X123991984Y-117769000D01*
X123818484Y-117786088D01*
X123595864Y-117853619D01*
X123390697Y-117963283D01*
X123210866Y-118110866D01*
X123063283Y-118290697D01*
X122953619Y-118495864D01*
X122886088Y-118718484D01*
X122863286Y-118950000D01*
X119468657Y-118950000D01*
X119359386Y-118840730D01*
X119342686Y-118820381D01*
X119261466Y-118753725D01*
X119168802Y-118704195D01*
X119068256Y-118673695D01*
X118989886Y-118665976D01*
X118989878Y-118665976D01*
X118963691Y-118663397D01*
X118937504Y-118665976D01*
X112225178Y-118665976D01*
X112240987Y-118627809D01*
X112271000Y-118476922D01*
X112271000Y-118323078D01*
X112240987Y-118172191D01*
X112182113Y-118030058D01*
X112096642Y-117902141D01*
X111987859Y-117793358D01*
X111859942Y-117707887D01*
X111717809Y-117649013D01*
X111566922Y-117619000D01*
X111413078Y-117619000D01*
X111262191Y-117649013D01*
X111120058Y-117707887D01*
X110992141Y-117793358D01*
X110921168Y-117864331D01*
X110898127Y-117866600D01*
X110898120Y-117866600D01*
X110819750Y-117874319D01*
X110719204Y-117904819D01*
X110626540Y-117954349D01*
X110545320Y-118021005D01*
X110528619Y-118041355D01*
X110408808Y-118161166D01*
X107417711Y-118161166D01*
X107391524Y-118158587D01*
X107365338Y-118161166D01*
X107365330Y-118161166D01*
X107334729Y-118164180D01*
X106058522Y-118164180D01*
X105943400Y-118049059D01*
X105943400Y-112580000D01*
X105980625Y-112580000D01*
X106014047Y-112919335D01*
X106113027Y-113245630D01*
X106273763Y-113546345D01*
X106490076Y-113809924D01*
X106753655Y-114026237D01*
X107054370Y-114186973D01*
X107380665Y-114285953D01*
X107634968Y-114311000D01*
X108805032Y-114311000D01*
X108998873Y-114291908D01*
X113930800Y-114291908D01*
X113930800Y-116088093D01*
X113948442Y-116267205D01*
X114018157Y-116497025D01*
X114131368Y-116708829D01*
X114283725Y-116894476D01*
X114469372Y-117046833D01*
X114681176Y-117160044D01*
X114910996Y-117229759D01*
X115150000Y-117253299D01*
X115389005Y-117229759D01*
X115618825Y-117160044D01*
X115830629Y-117046833D01*
X116016276Y-116894476D01*
X116168633Y-116708829D01*
X116281844Y-116497025D01*
X116351559Y-116267205D01*
X116369200Y-116088093D01*
X116369200Y-114291907D01*
X116351559Y-114112795D01*
X116281844Y-113882975D01*
X116168633Y-113671171D01*
X116016276Y-113485524D01*
X115830628Y-113333167D01*
X115618824Y-113219956D01*
X115389004Y-113150241D01*
X115150000Y-113126701D01*
X114910995Y-113150241D01*
X114681175Y-113219956D01*
X114469371Y-113333167D01*
X114283724Y-113485524D01*
X114131367Y-113671172D01*
X114018156Y-113882976D01*
X113948441Y-114112796D01*
X113930800Y-114291908D01*
X108998873Y-114291908D01*
X109059335Y-114285953D01*
X109385630Y-114186973D01*
X109686345Y-114026237D01*
X109949924Y-113809924D01*
X110166237Y-113546345D01*
X110326973Y-113245630D01*
X110425953Y-112919335D01*
X110459375Y-112580000D01*
X110425953Y-112240665D01*
X110326973Y-111914370D01*
X110166237Y-111613655D01*
X109949924Y-111350076D01*
X109686345Y-111133763D01*
X109385630Y-110973027D01*
X109059335Y-110874047D01*
X108805032Y-110849000D01*
X107634968Y-110849000D01*
X107380665Y-110874047D01*
X107054370Y-110973027D01*
X106753655Y-111133763D01*
X106490076Y-111350076D01*
X106273763Y-111613655D01*
X106113027Y-111914370D01*
X106014047Y-112240665D01*
X105980625Y-112580000D01*
X105943400Y-112580000D01*
X105943400Y-110460941D01*
X106657234Y-109747107D01*
X106753655Y-109826237D01*
X107054370Y-109986973D01*
X107380665Y-110085953D01*
X107634968Y-110111000D01*
X108805032Y-110111000D01*
X109059335Y-110085953D01*
X109385630Y-109986973D01*
X109686345Y-109826237D01*
X109949924Y-109609924D01*
X110166237Y-109346345D01*
X110326973Y-109045630D01*
X110425953Y-108719335D01*
X110459375Y-108380000D01*
X110425953Y-108040665D01*
X110326973Y-107714370D01*
X110166237Y-107413655D01*
X109949924Y-107150076D01*
X109686345Y-106933763D01*
X109385630Y-106773027D01*
X109059335Y-106674047D01*
X108889312Y-106657301D01*
X114401291Y-106657301D01*
X119174001Y-111430012D01*
X119174001Y-111938121D01*
X119174000Y-111938129D01*
X119174000Y-113741080D01*
X119098156Y-113882976D01*
X119028441Y-114112796D01*
X119010800Y-114291908D01*
X119010800Y-116088093D01*
X119028442Y-116267205D01*
X119098157Y-116497025D01*
X119211368Y-116708829D01*
X119363725Y-116894476D01*
X119549372Y-117046833D01*
X119761176Y-117160044D01*
X119990996Y-117229759D01*
X120230000Y-117253299D01*
X120469005Y-117229759D01*
X120698825Y-117160044D01*
X120910629Y-117046833D01*
X121096276Y-116894476D01*
X121248633Y-116708829D01*
X121361844Y-116497025D01*
X121431559Y-116267205D01*
X121449200Y-116088093D01*
X121449200Y-114291907D01*
X121431559Y-114112795D01*
X121361844Y-113882975D01*
X121286000Y-113741080D01*
X121286000Y-111044466D01*
X121291108Y-110992602D01*
X121286000Y-110940737D01*
X121286000Y-110940730D01*
X121270720Y-110785590D01*
X121210337Y-110586533D01*
X121112280Y-110403081D01*
X120980317Y-110242285D01*
X120940025Y-110209218D01*
X115622088Y-104891282D01*
X115589016Y-104850984D01*
X115428220Y-104719021D01*
X115244768Y-104620964D01*
X115045711Y-104560581D01*
X114890571Y-104545301D01*
X114890563Y-104545301D01*
X114838699Y-104540193D01*
X114786835Y-104545301D01*
X100797934Y-104545301D01*
X101377495Y-103965741D01*
X101377499Y-103965736D01*
X103327743Y-102015493D01*
X103361659Y-101987659D01*
X103472753Y-101852291D01*
X103555303Y-101697851D01*
X103606136Y-101530274D01*
X103619000Y-101399667D01*
X103619000Y-101399660D01*
X103623300Y-101356000D01*
X103619000Y-101312340D01*
X103619000Y-100722843D01*
X104580000Y-100722843D01*
X104654689Y-100715487D01*
X104726508Y-100693701D01*
X104792696Y-100658322D01*
X104850711Y-100610711D01*
X104898322Y-100552696D01*
X104933701Y-100486508D01*
X104955487Y-100414689D01*
X104962843Y-100340000D01*
X104962843Y-98990000D01*
X105990625Y-98990000D01*
X106024047Y-99329335D01*
X106123027Y-99655630D01*
X106283763Y-99956345D01*
X106500076Y-100219924D01*
X106763655Y-100436237D01*
X107064370Y-100596973D01*
X107390665Y-100695953D01*
X107644968Y-100721000D01*
X108815032Y-100721000D01*
X109069335Y-100695953D01*
X109395630Y-100596973D01*
X109696345Y-100436237D01*
X109959924Y-100219924D01*
X110176237Y-99956345D01*
X110336973Y-99655630D01*
X110435953Y-99329335D01*
X110469375Y-98990000D01*
X110435953Y-98650665D01*
X110336973Y-98324370D01*
X110176237Y-98023655D01*
X109959924Y-97760076D01*
X109696345Y-97543763D01*
X109395630Y-97383027D01*
X109069335Y-97284047D01*
X108815032Y-97259000D01*
X107644968Y-97259000D01*
X107390665Y-97284047D01*
X107064370Y-97383027D01*
X106763655Y-97543763D01*
X106500076Y-97760076D01*
X106283763Y-98023655D01*
X106123027Y-98324370D01*
X106024047Y-98650665D01*
X105990625Y-98990000D01*
X104962843Y-98990000D01*
X104962843Y-98011499D01*
X105688651Y-97285691D01*
X105708995Y-97268995D01*
X105775651Y-97187775D01*
X105825181Y-97095111D01*
X105855681Y-96994565D01*
X105863400Y-96916195D01*
X105863400Y-96916188D01*
X105865979Y-96890001D01*
X105863400Y-96863814D01*
X105863400Y-94790000D01*
X105990625Y-94790000D01*
X106024047Y-95129335D01*
X106123027Y-95455630D01*
X106283763Y-95756345D01*
X106500076Y-96019924D01*
X106763655Y-96236237D01*
X107064370Y-96396973D01*
X107390665Y-96495953D01*
X107644968Y-96521000D01*
X108815032Y-96521000D01*
X109069335Y-96495953D01*
X109395630Y-96396973D01*
X109696345Y-96236237D01*
X109959924Y-96019924D01*
X110176237Y-95756345D01*
X110336973Y-95455630D01*
X110435953Y-95129335D01*
X110469375Y-94790000D01*
X110435953Y-94450665D01*
X110336973Y-94124370D01*
X110176237Y-93823655D01*
X109959924Y-93560076D01*
X109696345Y-93343763D01*
X109395630Y-93183027D01*
X109069335Y-93084047D01*
X108815032Y-93059000D01*
X107644968Y-93059000D01*
X107390665Y-93084047D01*
X107064370Y-93183027D01*
X106763655Y-93343763D01*
X106500076Y-93560076D01*
X106283763Y-93823655D01*
X106123027Y-94124370D01*
X106024047Y-94450665D01*
X105990625Y-94790000D01*
X105863400Y-94790000D01*
X105863400Y-94120941D01*
X106950942Y-93033400D01*
X111876612Y-93033400D01*
X111865311Y-93034513D01*
X111793492Y-93056299D01*
X111727304Y-93091678D01*
X111669289Y-93139289D01*
X111621678Y-93197304D01*
X111586299Y-93263492D01*
X111564513Y-93335311D01*
X111557157Y-93410000D01*
X111557157Y-101410000D01*
X111564513Y-101484689D01*
X111586299Y-101556508D01*
X111621678Y-101622696D01*
X111669289Y-101680711D01*
X111727304Y-101728322D01*
X111793492Y-101763701D01*
X111865311Y-101785487D01*
X111940000Y-101792843D01*
X123440000Y-101792843D01*
X123514689Y-101785487D01*
X123586508Y-101763701D01*
X123652696Y-101728322D01*
X123710711Y-101680711D01*
X123758322Y-101622696D01*
X123793701Y-101556508D01*
X123815487Y-101484689D01*
X123822843Y-101410000D01*
X123822843Y-93410000D01*
X123815487Y-93335311D01*
X123793701Y-93263492D01*
X123758322Y-93197304D01*
X123710711Y-93139289D01*
X123652696Y-93091678D01*
X123586508Y-93056299D01*
X123514689Y-93034513D01*
X123440000Y-93027157D01*
X114806833Y-93027157D01*
X114821819Y-93025681D01*
X114922365Y-92995181D01*
X115015029Y-92945651D01*
X115096249Y-92878995D01*
X115112950Y-92858645D01*
X118335900Y-89635696D01*
X118335900Y-91127946D01*
X118352439Y-91295867D01*
X118417798Y-91511323D01*
X118523933Y-91709889D01*
X118666768Y-91883933D01*
X118840812Y-92026768D01*
X119039378Y-92132903D01*
X119254834Y-92198261D01*
X119478900Y-92220330D01*
X119702967Y-92198261D01*
X119918423Y-92132903D01*
X120116989Y-92026768D01*
X120291033Y-91883933D01*
X120433868Y-91709889D01*
X120540003Y-91511323D01*
X120605361Y-91295867D01*
X120621900Y-91127946D01*
X120621900Y-89491654D01*
X120605361Y-89323733D01*
X120540003Y-89108277D01*
X120433868Y-88909711D01*
X120401943Y-88870810D01*
X121095858Y-88870810D01*
X121063932Y-88909712D01*
X121063932Y-88909712D01*
G37*
X121063932Y-88909712D02*
X120957797Y-89108278D01*
X120892439Y-89323734D01*
X120875900Y-89491655D01*
X120875900Y-91127946D01*
X120892439Y-91295867D01*
X120957798Y-91511323D01*
X121063933Y-91709889D01*
X121206768Y-91883933D01*
X121380812Y-92026768D01*
X121579378Y-92132903D01*
X121794834Y-92198261D01*
X122018900Y-92220330D01*
X122242967Y-92198261D01*
X122458423Y-92132903D01*
X122656989Y-92026768D01*
X122831033Y-91883933D01*
X122973868Y-91709889D01*
X123080003Y-91511323D01*
X123145361Y-91295867D01*
X123161900Y-91127946D01*
X123161900Y-89491654D01*
X123145361Y-89323733D01*
X123080003Y-89108277D01*
X122973868Y-88909711D01*
X122941943Y-88870810D01*
X123635858Y-88870810D01*
X123603932Y-88909712D01*
X123497797Y-89108278D01*
X123432439Y-89323734D01*
X123415900Y-89491655D01*
X123415900Y-91127946D01*
X123432439Y-91295867D01*
X123497798Y-91511323D01*
X123603933Y-91709889D01*
X123746768Y-91883933D01*
X123920812Y-92026768D01*
X124025501Y-92082725D01*
X124025501Y-92412703D01*
X124022921Y-92438900D01*
X124033219Y-92543464D01*
X124063719Y-92644010D01*
X124084146Y-92682225D01*
X124113250Y-92736675D01*
X124137976Y-92766803D01*
X124163207Y-92797548D01*
X124163210Y-92797551D01*
X124179906Y-92817895D01*
X124200250Y-92834591D01*
X125077529Y-93711871D01*
X125036088Y-93848484D01*
X125013286Y-94080000D01*
X125036088Y-94311516D01*
X125041371Y-94328933D01*
X124979942Y-94287887D01*
X124837809Y-94229013D01*
X124686922Y-94199000D01*
X124533078Y-94199000D01*
X124382191Y-94229013D01*
X124240058Y-94287887D01*
X124112141Y-94373358D01*
X124003358Y-94482141D01*
X123917887Y-94610058D01*
X123859013Y-94752191D01*
X123829000Y-94903078D01*
X123829000Y-95056922D01*
X123859013Y-95207809D01*
X123917887Y-95349942D01*
X124003358Y-95477859D01*
X124112141Y-95586642D01*
X124240058Y-95672113D01*
X124324199Y-95706966D01*
X124324200Y-96856311D01*
X124320882Y-96889999D01*
X124334123Y-97024439D01*
X124373338Y-97153713D01*
X124437019Y-97272852D01*
X124490132Y-97337570D01*
X124522720Y-97377279D01*
X124548885Y-97398752D01*
X125436796Y-98286664D01*
X125439013Y-98297809D01*
X125497887Y-98439942D01*
X125583358Y-98567859D01*
X125692141Y-98676642D01*
X125820058Y-98762113D01*
X125962191Y-98820987D01*
X126113078Y-98851000D01*
X126266922Y-98851000D01*
X126417809Y-98820987D01*
X126559942Y-98762113D01*
X126687859Y-98676642D01*
X126796642Y-98567859D01*
X126882113Y-98439942D01*
X126940987Y-98297809D01*
X126971000Y-98146922D01*
X126971000Y-97993078D01*
X126940987Y-97842191D01*
X126882113Y-97700058D01*
X126796642Y-97572141D01*
X126687859Y-97463358D01*
X126559942Y-97377887D01*
X126417809Y-97319013D01*
X126406664Y-97316796D01*
X125695799Y-96605932D01*
X125695799Y-95413677D01*
X125699116Y-95379998D01*
X125695799Y-95346319D01*
X125695799Y-95346310D01*
X125685876Y-95245559D01*
X125649221Y-95124724D01*
X125745864Y-95176381D01*
X125968484Y-95243912D01*
X126141984Y-95261000D01*
X126258016Y-95261000D01*
X126431516Y-95243912D01*
X126654136Y-95176381D01*
X126859303Y-95066717D01*
X127016600Y-94937627D01*
X127016601Y-98557903D01*
X127014021Y-98584100D01*
X127024319Y-98688664D01*
X127054819Y-98789210D01*
X127073092Y-98823396D01*
X127104350Y-98881875D01*
X127131674Y-98915169D01*
X127154307Y-98942748D01*
X127154310Y-98942751D01*
X127171006Y-98963095D01*
X127191350Y-98979791D01*
X128267300Y-100055742D01*
X128267300Y-100110549D01*
X128295607Y-100252858D01*
X128351134Y-100386911D01*
X128431745Y-100507555D01*
X128534345Y-100610155D01*
X128541601Y-100615003D01*
X128541601Y-101115986D01*
X128415697Y-101183283D01*
X128235866Y-101330866D01*
X128088283Y-101510697D01*
X127978619Y-101715864D01*
X127911088Y-101938484D01*
X127888286Y-102170000D01*
X127911088Y-102401516D01*
X127978619Y-102624136D01*
X128088283Y-102829303D01*
X128235866Y-103009134D01*
X128318101Y-103076622D01*
X128318100Y-103935255D01*
X128247157Y-103982658D01*
X128082658Y-104147157D01*
X127953412Y-104340587D01*
X127864386Y-104555515D01*
X127819000Y-104783682D01*
X127819000Y-105016318D01*
X127864386Y-105244485D01*
X127953412Y-105459413D01*
X128082658Y-105652843D01*
X128247157Y-105817342D01*
X128440587Y-105946588D01*
X128655515Y-106035614D01*
X128883682Y-106081000D01*
X129116318Y-106081000D01*
X129344485Y-106035614D01*
X129559413Y-105946588D01*
X129752843Y-105817342D01*
X129917342Y-105652843D01*
X130046588Y-105459413D01*
X130135614Y-105244485D01*
X130146601Y-105189253D01*
X130146601Y-109165019D01*
X130144319Y-109172542D01*
X130136600Y-109250912D01*
X130136600Y-109250919D01*
X130134331Y-109273959D01*
X130097845Y-109310445D01*
X130017234Y-109431089D01*
X129961707Y-109565142D01*
X129933400Y-109707451D01*
X129933400Y-109852549D01*
X129961707Y-109994858D01*
X130017234Y-110128911D01*
X130097845Y-110249555D01*
X130200445Y-110352155D01*
X130321089Y-110432766D01*
X130455142Y-110488293D01*
X130597451Y-110516600D01*
X130742549Y-110516600D01*
X130884858Y-110488293D01*
X131018911Y-110432766D01*
X131139555Y-110352155D01*
X131242155Y-110249555D01*
X131322766Y-110128911D01*
X131366100Y-110024294D01*
X131366100Y-113022258D01*
X131333016Y-113019000D01*
X131216984Y-113019000D01*
X131043484Y-113036088D01*
X130820864Y-113103619D01*
X130615697Y-113213283D01*
X130435866Y-113360866D01*
X130288283Y-113540697D01*
X130178619Y-113745864D01*
X130111088Y-113968484D01*
X130088286Y-114200000D01*
X130111088Y-114431516D01*
X130178619Y-114654136D01*
X130288283Y-114859303D01*
X130435866Y-115039134D01*
X130615697Y-115186717D01*
X130731101Y-115248402D01*
X130731100Y-118430329D01*
X130730802Y-118433826D01*
X130731100Y-118456475D01*
X130731100Y-118479194D01*
X130731445Y-118482697D01*
X130749853Y-119881737D01*
X130717745Y-119913845D01*
X130637134Y-120034489D01*
X130581607Y-120168542D01*
X130553300Y-120310851D01*
X130553300Y-120455949D01*
X130581607Y-120598258D01*
X130637134Y-120732311D01*
X130680335Y-120796967D01*
X130522157Y-120902658D01*
X130357658Y-121067157D01*
X130228412Y-121260587D01*
X130139386Y-121475515D01*
X130094000Y-121703682D01*
X130094000Y-121936318D01*
X130139386Y-122164485D01*
X130228412Y-122379413D01*
X130357658Y-122572843D01*
X130522157Y-122737342D01*
X130715587Y-122866588D01*
X130930515Y-122955614D01*
X131158682Y-123001000D01*
X131366100Y-123001000D01*
X131366100Y-123174262D01*
X114356775Y-123174003D01*
X114595736Y-123126471D01*
X114956255Y-122977139D01*
X115280714Y-122760343D01*
X115556643Y-122484414D01*
X115773439Y-122159955D01*
X115914253Y-121820000D01*
X127538286Y-121820000D01*
X127561088Y-122051516D01*
X127628619Y-122274136D01*
X127738283Y-122479303D01*
X127885866Y-122659134D01*
X128065697Y-122806717D01*
X128270864Y-122916381D01*
X128493484Y-122983912D01*
X128666984Y-123001000D01*
X128783016Y-123001000D01*
X128956516Y-122983912D01*
X129179136Y-122916381D01*
X129384303Y-122806717D01*
X129564134Y-122659134D01*
X129711717Y-122479303D01*
X129821381Y-122274136D01*
X129888912Y-122051516D01*
X129911714Y-121820000D01*
X129888912Y-121588484D01*
X129821381Y-121365864D01*
X129711717Y-121160697D01*
X129564134Y-120980866D01*
X129384303Y-120833283D01*
X129179136Y-120723619D01*
X128956516Y-120656088D01*
X128783016Y-120639000D01*
X128666984Y-120639000D01*
X128493484Y-120656088D01*
X128270864Y-120723619D01*
X128065697Y-120833283D01*
X127885866Y-120980866D01*
X127738283Y-121160697D01*
X127628619Y-121365864D01*
X127561088Y-121588484D01*
X127538286Y-121820000D01*
X115914253Y-121820000D01*
X115922771Y-121799436D01*
X115998900Y-121416711D01*
X115998900Y-121026489D01*
X115922771Y-120643764D01*
X115773439Y-120283245D01*
X115556643Y-119958786D01*
X115330633Y-119732776D01*
X118742750Y-119732776D01*
X119228624Y-120218651D01*
X119245320Y-120238995D01*
X119326540Y-120305651D01*
X119419204Y-120355181D01*
X119519750Y-120385681D01*
X119598120Y-120393400D01*
X119598127Y-120393400D01*
X119621168Y-120395669D01*
X119692141Y-120466642D01*
X119820058Y-120552113D01*
X119962191Y-120610987D01*
X120113078Y-120641000D01*
X120266922Y-120641000D01*
X120417809Y-120610987D01*
X120559942Y-120552113D01*
X120687859Y-120466642D01*
X120796642Y-120357859D01*
X120882113Y-120229942D01*
X120940987Y-120087809D01*
X120971000Y-119936922D01*
X120971000Y-119783078D01*
X120940987Y-119632191D01*
X120882113Y-119490058D01*
X120796642Y-119362141D01*
X120687859Y-119253358D01*
X120559942Y-119167887D01*
X120417809Y-119109013D01*
X120266922Y-119079000D01*
X120113078Y-119079000D01*
X119962191Y-119109013D01*
X119820058Y-119167887D01*
X119740022Y-119221365D01*
X119468657Y-118950000D01*
X122863286Y-118950000D01*
X122886088Y-119181516D01*
X122953619Y-119404136D01*
X123063283Y-119609303D01*
X123210866Y-119789134D01*
X123390697Y-119936717D01*
X123595864Y-120046381D01*
X123818484Y-120113912D01*
X123991984Y-120131000D01*
X124108016Y-120131000D01*
X124281516Y-120113912D01*
X124504136Y-120046381D01*
X124709303Y-119936717D01*
X124778678Y-119879783D01*
X124795134Y-119919511D01*
X124875745Y-120040155D01*
X124978345Y-120142755D01*
X125098989Y-120223366D01*
X125233042Y-120278893D01*
X125375351Y-120307200D01*
X125520449Y-120307200D01*
X125662758Y-120278893D01*
X125796811Y-120223366D01*
X125917455Y-120142755D01*
X126020055Y-120040155D01*
X126100666Y-119919511D01*
X126156193Y-119785458D01*
X126184500Y-119643149D01*
X126184500Y-119498051D01*
X126156193Y-119355742D01*
X126100666Y-119221689D01*
X126020055Y-119101045D01*
X125983569Y-119064559D01*
X125981300Y-119041519D01*
X125981300Y-119041511D01*
X125973581Y-118963141D01*
X125973400Y-118962544D01*
X125973400Y-118847529D01*
X125995042Y-118856493D01*
X126137351Y-118884800D01*
X126282449Y-118884800D01*
X126424758Y-118856493D01*
X126558811Y-118800966D01*
X126679455Y-118720355D01*
X126782055Y-118617755D01*
X126862666Y-118497111D01*
X126918193Y-118363058D01*
X126946500Y-118220749D01*
X126946500Y-118075651D01*
X126918193Y-117933342D01*
X126862666Y-117799289D01*
X126782055Y-117678645D01*
X126743300Y-117639890D01*
X126743300Y-114083682D01*
X127544000Y-114083682D01*
X127544000Y-114316318D01*
X127589386Y-114544485D01*
X127678412Y-114759413D01*
X127807658Y-114952843D01*
X127972157Y-115117342D01*
X128165587Y-115246588D01*
X128380515Y-115335614D01*
X128608682Y-115381000D01*
X128841318Y-115381000D01*
X129069485Y-115335614D01*
X129284413Y-115246588D01*
X129477843Y-115117342D01*
X129642342Y-114952843D01*
X129771588Y-114759413D01*
X129860614Y-114544485D01*
X129906000Y-114316318D01*
X129906000Y-114083682D01*
X129860614Y-113855515D01*
X129771588Y-113640587D01*
X129642342Y-113447157D01*
X129477843Y-113282658D01*
X129308700Y-113169640D01*
X129308700Y-111976310D01*
X129347455Y-111937555D01*
X129428066Y-111816911D01*
X129483593Y-111682858D01*
X129511900Y-111540549D01*
X129511900Y-111395451D01*
X129483593Y-111253142D01*
X129428066Y-111119089D01*
X129347455Y-110998445D01*
X129244855Y-110895845D01*
X129124211Y-110815234D01*
X128990158Y-110759707D01*
X128847849Y-110731400D01*
X128702751Y-110731400D01*
X128560442Y-110759707D01*
X128426389Y-110815234D01*
X128305745Y-110895845D01*
X128203145Y-110998445D01*
X128122534Y-111119089D01*
X128067007Y-111253142D01*
X128038700Y-111395451D01*
X128038700Y-111540549D01*
X128067007Y-111682858D01*
X128122534Y-111816911D01*
X128203145Y-111937555D01*
X128241901Y-111976311D01*
X128241900Y-113121802D01*
X128165587Y-113153412D01*
X127972157Y-113282658D01*
X127807658Y-113447157D01*
X127678412Y-113640587D01*
X127589386Y-113855515D01*
X127544000Y-114083682D01*
X126743300Y-114083682D01*
X126743300Y-111792528D01*
X126811866Y-111689911D01*
X126867393Y-111555858D01*
X126895700Y-111413549D01*
X126895700Y-111268451D01*
X126867393Y-111126142D01*
X126811866Y-110992089D01*
X126731255Y-110871445D01*
X126628655Y-110768845D01*
X126508011Y-110688234D01*
X126373958Y-110632707D01*
X126231649Y-110604400D01*
X126086551Y-110604400D01*
X125973400Y-110626907D01*
X125973400Y-110236194D01*
X125975980Y-110210000D01*
X125967993Y-110128911D01*
X125965681Y-110105435D01*
X125935181Y-110004889D01*
X125885651Y-109912225D01*
X125818995Y-109831005D01*
X125798645Y-109814304D01*
X125263400Y-109279059D01*
X125263400Y-104783682D01*
X125319000Y-104783682D01*
X125319000Y-105016318D01*
X125364386Y-105244485D01*
X125453412Y-105459413D01*
X125582658Y-105652843D01*
X125747157Y-105817342D01*
X125940587Y-105946588D01*
X126155515Y-106035614D01*
X126383682Y-106081000D01*
X126616318Y-106081000D01*
X126844485Y-106035614D01*
X127059413Y-105946588D01*
X127252843Y-105817342D01*
X127417342Y-105652843D01*
X127546588Y-105459413D01*
X127635614Y-105244485D01*
X127681000Y-105016318D01*
X127681000Y-104783682D01*
X127635614Y-104555515D01*
X127546588Y-104340587D01*
X127417342Y-104147157D01*
X127252843Y-103982658D01*
X127059413Y-103853412D01*
X126844485Y-103764386D01*
X126616318Y-103719000D01*
X126383682Y-103719000D01*
X126155515Y-103764386D01*
X125940587Y-103853412D01*
X125747157Y-103982658D01*
X125582658Y-104147157D01*
X125453412Y-104340587D01*
X125364386Y-104555515D01*
X125319000Y-104783682D01*
X125263400Y-104783682D01*
X125263400Y-102424021D01*
X125282658Y-102452843D01*
X125447157Y-102617342D01*
X125640587Y-102746588D01*
X125855515Y-102835614D01*
X126083682Y-102881000D01*
X126316318Y-102881000D01*
X126544485Y-102835614D01*
X126759413Y-102746588D01*
X126952843Y-102617342D01*
X127117342Y-102452843D01*
X127246588Y-102259413D01*
X127335614Y-102044485D01*
X127381000Y-101816318D01*
X127381000Y-101583682D01*
X127335614Y-101355515D01*
X127246588Y-101140587D01*
X127117342Y-100947157D01*
X126952843Y-100782658D01*
X126759413Y-100653412D01*
X126544485Y-100564386D01*
X126316318Y-100519000D01*
X126083682Y-100519000D01*
X125855515Y-100564386D01*
X125640587Y-100653412D01*
X125447157Y-100782658D01*
X125282658Y-100947157D01*
X125263400Y-100975979D01*
X125263400Y-99498310D01*
X125302155Y-99459555D01*
X125382766Y-99338911D01*
X125438293Y-99204858D01*
X125466600Y-99062549D01*
X125466600Y-98917451D01*
X125438293Y-98775142D01*
X125382766Y-98641089D01*
X125302155Y-98520445D01*
X125199555Y-98417845D01*
X125078911Y-98337234D01*
X124944858Y-98281707D01*
X124802549Y-98253400D01*
X124657451Y-98253400D01*
X124515142Y-98281707D01*
X124381089Y-98337234D01*
X124260445Y-98417845D01*
X124157845Y-98520445D01*
X124077234Y-98641089D01*
X124021707Y-98775142D01*
X123993400Y-98917451D01*
X123993400Y-99062549D01*
X124021707Y-99204858D01*
X124077234Y-99338911D01*
X124157845Y-99459555D01*
X124196600Y-99498310D01*
X124196601Y-109473803D01*
X124194021Y-109500000D01*
X124204319Y-109604564D01*
X124234819Y-109705110D01*
X124240009Y-109714819D01*
X124284350Y-109797775D01*
X124296915Y-109813085D01*
X124334307Y-109858648D01*
X124334310Y-109858651D01*
X124351006Y-109878995D01*
X124371350Y-109895691D01*
X124906600Y-110430941D01*
X124906600Y-110516415D01*
X124802843Y-110412658D01*
X124609413Y-110283412D01*
X124394485Y-110194386D01*
X124166318Y-110149000D01*
X123933682Y-110149000D01*
X123705515Y-110194386D01*
X123490587Y-110283412D01*
X123297157Y-110412658D01*
X123132658Y-110577157D01*
X123003412Y-110770587D01*
X122914386Y-110985515D01*
X122869000Y-111213682D01*
X122869000Y-111446318D01*
X122914386Y-111674485D01*
X123003412Y-111889413D01*
X123132658Y-112082843D01*
X123297157Y-112247342D01*
X123490587Y-112376588D01*
X123705515Y-112465614D01*
X123933682Y-112511000D01*
X124166318Y-112511000D01*
X124394485Y-112465614D01*
X124609413Y-112376588D01*
X124802843Y-112247342D01*
X124906600Y-112143585D01*
X124906601Y-118132150D01*
X124889134Y-118110866D01*
X124709303Y-117963283D01*
X124504136Y-117853619D01*
X124281516Y-117786088D01*
X124108016Y-117769000D01*
X123991984Y-117769000D01*
X123818484Y-117786088D01*
X123595864Y-117853619D01*
X123390697Y-117963283D01*
X123210866Y-118110866D01*
X123063283Y-118290697D01*
X122953619Y-118495864D01*
X122886088Y-118718484D01*
X122863286Y-118950000D01*
X119468657Y-118950000D01*
X119359386Y-118840730D01*
X119342686Y-118820381D01*
X119261466Y-118753725D01*
X119168802Y-118704195D01*
X119068256Y-118673695D01*
X118989886Y-118665976D01*
X118989878Y-118665976D01*
X118963691Y-118663397D01*
X118937504Y-118665976D01*
X112225178Y-118665976D01*
X112240987Y-118627809D01*
X112271000Y-118476922D01*
X112271000Y-118323078D01*
X112240987Y-118172191D01*
X112182113Y-118030058D01*
X112096642Y-117902141D01*
X111987859Y-117793358D01*
X111859942Y-117707887D01*
X111717809Y-117649013D01*
X111566922Y-117619000D01*
X111413078Y-117619000D01*
X111262191Y-117649013D01*
X111120058Y-117707887D01*
X110992141Y-117793358D01*
X110921168Y-117864331D01*
X110898127Y-117866600D01*
X110898120Y-117866600D01*
X110819750Y-117874319D01*
X110719204Y-117904819D01*
X110626540Y-117954349D01*
X110545320Y-118021005D01*
X110528619Y-118041355D01*
X110408808Y-118161166D01*
X107417711Y-118161166D01*
X107391524Y-118158587D01*
X107365338Y-118161166D01*
X107365330Y-118161166D01*
X107334729Y-118164180D01*
X106058522Y-118164180D01*
X105943400Y-118049059D01*
X105943400Y-112580000D01*
X105980625Y-112580000D01*
X106014047Y-112919335D01*
X106113027Y-113245630D01*
X106273763Y-113546345D01*
X106490076Y-113809924D01*
X106753655Y-114026237D01*
X107054370Y-114186973D01*
X107380665Y-114285953D01*
X107634968Y-114311000D01*
X108805032Y-114311000D01*
X108998873Y-114291908D01*
X113930800Y-114291908D01*
X113930800Y-116088093D01*
X113948442Y-116267205D01*
X114018157Y-116497025D01*
X114131368Y-116708829D01*
X114283725Y-116894476D01*
X114469372Y-117046833D01*
X114681176Y-117160044D01*
X114910996Y-117229759D01*
X115150000Y-117253299D01*
X115389005Y-117229759D01*
X115618825Y-117160044D01*
X115830629Y-117046833D01*
X116016276Y-116894476D01*
X116168633Y-116708829D01*
X116281844Y-116497025D01*
X116351559Y-116267205D01*
X116369200Y-116088093D01*
X116369200Y-114291907D01*
X116351559Y-114112795D01*
X116281844Y-113882975D01*
X116168633Y-113671171D01*
X116016276Y-113485524D01*
X115830628Y-113333167D01*
X115618824Y-113219956D01*
X115389004Y-113150241D01*
X115150000Y-113126701D01*
X114910995Y-113150241D01*
X114681175Y-113219956D01*
X114469371Y-113333167D01*
X114283724Y-113485524D01*
X114131367Y-113671172D01*
X114018156Y-113882976D01*
X113948441Y-114112796D01*
X113930800Y-114291908D01*
X108998873Y-114291908D01*
X109059335Y-114285953D01*
X109385630Y-114186973D01*
X109686345Y-114026237D01*
X109949924Y-113809924D01*
X110166237Y-113546345D01*
X110326973Y-113245630D01*
X110425953Y-112919335D01*
X110459375Y-112580000D01*
X110425953Y-112240665D01*
X110326973Y-111914370D01*
X110166237Y-111613655D01*
X109949924Y-111350076D01*
X109686345Y-111133763D01*
X109385630Y-110973027D01*
X109059335Y-110874047D01*
X108805032Y-110849000D01*
X107634968Y-110849000D01*
X107380665Y-110874047D01*
X107054370Y-110973027D01*
X106753655Y-111133763D01*
X106490076Y-111350076D01*
X106273763Y-111613655D01*
X106113027Y-111914370D01*
X106014047Y-112240665D01*
X105980625Y-112580000D01*
X105943400Y-112580000D01*
X105943400Y-110460941D01*
X106657234Y-109747107D01*
X106753655Y-109826237D01*
X107054370Y-109986973D01*
X107380665Y-110085953D01*
X107634968Y-110111000D01*
X108805032Y-110111000D01*
X109059335Y-110085953D01*
X109385630Y-109986973D01*
X109686345Y-109826237D01*
X109949924Y-109609924D01*
X110166237Y-109346345D01*
X110326973Y-109045630D01*
X110425953Y-108719335D01*
X110459375Y-108380000D01*
X110425953Y-108040665D01*
X110326973Y-107714370D01*
X110166237Y-107413655D01*
X109949924Y-107150076D01*
X109686345Y-106933763D01*
X109385630Y-106773027D01*
X109059335Y-106674047D01*
X108889312Y-106657301D01*
X114401291Y-106657301D01*
X119174001Y-111430012D01*
X119174001Y-111938121D01*
X119174000Y-111938129D01*
X119174000Y-113741080D01*
X119098156Y-113882976D01*
X119028441Y-114112796D01*
X119010800Y-114291908D01*
X119010800Y-116088093D01*
X119028442Y-116267205D01*
X119098157Y-116497025D01*
X119211368Y-116708829D01*
X119363725Y-116894476D01*
X119549372Y-117046833D01*
X119761176Y-117160044D01*
X119990996Y-117229759D01*
X120230000Y-117253299D01*
X120469005Y-117229759D01*
X120698825Y-117160044D01*
X120910629Y-117046833D01*
X121096276Y-116894476D01*
X121248633Y-116708829D01*
X121361844Y-116497025D01*
X121431559Y-116267205D01*
X121449200Y-116088093D01*
X121449200Y-114291907D01*
X121431559Y-114112795D01*
X121361844Y-113882975D01*
X121286000Y-113741080D01*
X121286000Y-111044466D01*
X121291108Y-110992602D01*
X121286000Y-110940737D01*
X121286000Y-110940730D01*
X121270720Y-110785590D01*
X121210337Y-110586533D01*
X121112280Y-110403081D01*
X120980317Y-110242285D01*
X120940025Y-110209218D01*
X115622088Y-104891282D01*
X115589016Y-104850984D01*
X115428220Y-104719021D01*
X115244768Y-104620964D01*
X115045711Y-104560581D01*
X114890571Y-104545301D01*
X114890563Y-104545301D01*
X114838699Y-104540193D01*
X114786835Y-104545301D01*
X100797934Y-104545301D01*
X101377495Y-103965741D01*
X101377499Y-103965736D01*
X103327743Y-102015493D01*
X103361659Y-101987659D01*
X103472753Y-101852291D01*
X103555303Y-101697851D01*
X103606136Y-101530274D01*
X103619000Y-101399667D01*
X103619000Y-101399660D01*
X103623300Y-101356000D01*
X103619000Y-101312340D01*
X103619000Y-100722843D01*
X104580000Y-100722843D01*
X104654689Y-100715487D01*
X104726508Y-100693701D01*
X104792696Y-100658322D01*
X104850711Y-100610711D01*
X104898322Y-100552696D01*
X104933701Y-100486508D01*
X104955487Y-100414689D01*
X104962843Y-100340000D01*
X104962843Y-98990000D01*
X105990625Y-98990000D01*
X106024047Y-99329335D01*
X106123027Y-99655630D01*
X106283763Y-99956345D01*
X106500076Y-100219924D01*
X106763655Y-100436237D01*
X107064370Y-100596973D01*
X107390665Y-100695953D01*
X107644968Y-100721000D01*
X108815032Y-100721000D01*
X109069335Y-100695953D01*
X109395630Y-100596973D01*
X109696345Y-100436237D01*
X109959924Y-100219924D01*
X110176237Y-99956345D01*
X110336973Y-99655630D01*
X110435953Y-99329335D01*
X110469375Y-98990000D01*
X110435953Y-98650665D01*
X110336973Y-98324370D01*
X110176237Y-98023655D01*
X109959924Y-97760076D01*
X109696345Y-97543763D01*
X109395630Y-97383027D01*
X109069335Y-97284047D01*
X108815032Y-97259000D01*
X107644968Y-97259000D01*
X107390665Y-97284047D01*
X107064370Y-97383027D01*
X106763655Y-97543763D01*
X106500076Y-97760076D01*
X106283763Y-98023655D01*
X106123027Y-98324370D01*
X106024047Y-98650665D01*
X105990625Y-98990000D01*
X104962843Y-98990000D01*
X104962843Y-98011499D01*
X105688651Y-97285691D01*
X105708995Y-97268995D01*
X105775651Y-97187775D01*
X105825181Y-97095111D01*
X105855681Y-96994565D01*
X105863400Y-96916195D01*
X105863400Y-96916188D01*
X105865979Y-96890001D01*
X105863400Y-96863814D01*
X105863400Y-94790000D01*
X105990625Y-94790000D01*
X106024047Y-95129335D01*
X106123027Y-95455630D01*
X106283763Y-95756345D01*
X106500076Y-96019924D01*
X106763655Y-96236237D01*
X107064370Y-96396973D01*
X107390665Y-96495953D01*
X107644968Y-96521000D01*
X108815032Y-96521000D01*
X109069335Y-96495953D01*
X109395630Y-96396973D01*
X109696345Y-96236237D01*
X109959924Y-96019924D01*
X110176237Y-95756345D01*
X110336973Y-95455630D01*
X110435953Y-95129335D01*
X110469375Y-94790000D01*
X110435953Y-94450665D01*
X110336973Y-94124370D01*
X110176237Y-93823655D01*
X109959924Y-93560076D01*
X109696345Y-93343763D01*
X109395630Y-93183027D01*
X109069335Y-93084047D01*
X108815032Y-93059000D01*
X107644968Y-93059000D01*
X107390665Y-93084047D01*
X107064370Y-93183027D01*
X106763655Y-93343763D01*
X106500076Y-93560076D01*
X106283763Y-93823655D01*
X106123027Y-94124370D01*
X106024047Y-94450665D01*
X105990625Y-94790000D01*
X105863400Y-94790000D01*
X105863400Y-94120941D01*
X106950942Y-93033400D01*
X111876612Y-93033400D01*
X111865311Y-93034513D01*
X111793492Y-93056299D01*
X111727304Y-93091678D01*
X111669289Y-93139289D01*
X111621678Y-93197304D01*
X111586299Y-93263492D01*
X111564513Y-93335311D01*
X111557157Y-93410000D01*
X111557157Y-101410000D01*
X111564513Y-101484689D01*
X111586299Y-101556508D01*
X111621678Y-101622696D01*
X111669289Y-101680711D01*
X111727304Y-101728322D01*
X111793492Y-101763701D01*
X111865311Y-101785487D01*
X111940000Y-101792843D01*
X123440000Y-101792843D01*
X123514689Y-101785487D01*
X123586508Y-101763701D01*
X123652696Y-101728322D01*
X123710711Y-101680711D01*
X123758322Y-101622696D01*
X123793701Y-101556508D01*
X123815487Y-101484689D01*
X123822843Y-101410000D01*
X123822843Y-93410000D01*
X123815487Y-93335311D01*
X123793701Y-93263492D01*
X123758322Y-93197304D01*
X123710711Y-93139289D01*
X123652696Y-93091678D01*
X123586508Y-93056299D01*
X123514689Y-93034513D01*
X123440000Y-93027157D01*
X114806833Y-93027157D01*
X114821819Y-93025681D01*
X114922365Y-92995181D01*
X115015029Y-92945651D01*
X115096249Y-92878995D01*
X115112950Y-92858645D01*
X118335900Y-89635696D01*
X118335900Y-91127946D01*
X118352439Y-91295867D01*
X118417798Y-91511323D01*
X118523933Y-91709889D01*
X118666768Y-91883933D01*
X118840812Y-92026768D01*
X119039378Y-92132903D01*
X119254834Y-92198261D01*
X119478900Y-92220330D01*
X119702967Y-92198261D01*
X119918423Y-92132903D01*
X120116989Y-92026768D01*
X120291033Y-91883933D01*
X120433868Y-91709889D01*
X120540003Y-91511323D01*
X120605361Y-91295867D01*
X120621900Y-91127946D01*
X120621900Y-89491654D01*
X120605361Y-89323733D01*
X120540003Y-89108277D01*
X120433868Y-88909711D01*
X120401943Y-88870810D01*
X121095858Y-88870810D01*
X121063932Y-88909712D01*
M02*
