G04 #@! TF.GenerationSoftware,KiCad,Pcbnew,5.1.4-e60b266~84~ubuntu19.04.1*
G04 #@! TF.CreationDate,2019-08-18T21:03:41+02:00*
G04 #@! TF.ProjectId,SLC_Free_PCB,534c435f-4672-4656-955f-5043422e6b69,rev?*
G04 #@! TF.SameCoordinates,Original*
G04 #@! TF.FileFunction,Legend,Top*
G04 #@! TF.FilePolarity,Positive*
%FSLAX46Y46*%
G04 Gerber Fmt 4.6, Leading zero omitted, Abs format (unit mm)*
G04 Created by KiCad (PCBNEW 5.1.4-e60b266~84~ubuntu19.04.1) date 2019-08-18 21:03:41*
%MOMM*%
%LPD*%
G04 APERTURE LIST*
%ADD10C,0.081280*%
%ADD11C,0.048768*%
%ADD12C,0.065024*%
%ADD13C,0.113792*%
%ADD14C,0.101600*%
%ADD15C,0.120000*%
%ADD16C,0.152400*%
%ADD17C,0.050800*%
%ADD18C,0.100000*%
%ADD19C,0.150000*%
%ADD20C,0.096520*%
G04 APERTURE END LIST*
D10*
X173179338Y-117990139D02*
X173179338Y-118449758D01*
X173638957Y-118495720D01*
X173592995Y-118449758D01*
X173547033Y-118357834D01*
X173547033Y-118128025D01*
X173592995Y-118036101D01*
X173638957Y-117990139D01*
X173730880Y-117944177D01*
X173960690Y-117944177D01*
X174052614Y-117990139D01*
X174098576Y-118036101D01*
X174144538Y-118128025D01*
X174144538Y-118357834D01*
X174098576Y-118449758D01*
X174052614Y-118495720D01*
X173501071Y-117622444D02*
X174144538Y-117392634D01*
X173501071Y-117162825D01*
X175638300Y-118020377D02*
X175592338Y-118112301D01*
X175592338Y-118250187D01*
X175638300Y-118388072D01*
X175730223Y-118479996D01*
X175822147Y-118525958D01*
X176005995Y-118571920D01*
X176143880Y-118571920D01*
X176327728Y-118525958D01*
X176419652Y-118479996D01*
X176511576Y-118388072D01*
X176557538Y-118250187D01*
X176557538Y-118158263D01*
X176511576Y-118020377D01*
X176465614Y-117974415D01*
X176143880Y-117974415D01*
X176143880Y-118158263D01*
X175914071Y-117560758D02*
X176557538Y-117560758D01*
X176005995Y-117560758D02*
X175960033Y-117514796D01*
X175914071Y-117422872D01*
X175914071Y-117284987D01*
X175960033Y-117193063D01*
X176051957Y-117147101D01*
X176557538Y-117147101D01*
X176557538Y-116273825D02*
X175592338Y-116273825D01*
X176511576Y-116273825D02*
X176557538Y-116365748D01*
X176557538Y-116549596D01*
X176511576Y-116641520D01*
X176465614Y-116687482D01*
X176373690Y-116733444D01*
X176097919Y-116733444D01*
X176005995Y-116687482D01*
X175960033Y-116641520D01*
X175914071Y-116549596D01*
X175914071Y-116365748D01*
X175960033Y-116273825D01*
X175158941Y-123283838D02*
X175158941Y-122318638D01*
X175526636Y-122318638D01*
X175618560Y-122364600D01*
X175664522Y-122410561D01*
X175710484Y-122502485D01*
X175710484Y-122640371D01*
X175664522Y-122732295D01*
X175618560Y-122778257D01*
X175526636Y-122824219D01*
X175158941Y-122824219D01*
X176124141Y-123283838D02*
X176124141Y-122640371D01*
X176124141Y-122824219D02*
X176170103Y-122732295D01*
X176216065Y-122686333D01*
X176307989Y-122640371D01*
X176399912Y-122640371D01*
X176859532Y-123283838D02*
X176767608Y-123237876D01*
X176721646Y-123191914D01*
X176675684Y-123099990D01*
X176675684Y-122824219D01*
X176721646Y-122732295D01*
X176767608Y-122686333D01*
X176859532Y-122640371D01*
X176997417Y-122640371D01*
X177089341Y-122686333D01*
X177135303Y-122732295D01*
X177181265Y-122824219D01*
X177181265Y-123099990D01*
X177135303Y-123191914D01*
X177089341Y-123237876D01*
X176997417Y-123283838D01*
X176859532Y-123283838D01*
X178008579Y-122640371D02*
X178008579Y-123421723D01*
X177962617Y-123513647D01*
X177916655Y-123559609D01*
X177824732Y-123605571D01*
X177686846Y-123605571D01*
X177594922Y-123559609D01*
X178008579Y-123237876D02*
X177916655Y-123283838D01*
X177732808Y-123283838D01*
X177640884Y-123237876D01*
X177594922Y-123191914D01*
X177548960Y-123099990D01*
X177548960Y-122824219D01*
X177594922Y-122732295D01*
X177640884Y-122686333D01*
X177732808Y-122640371D01*
X177916655Y-122640371D01*
X178008579Y-122686333D01*
X179203589Y-123283838D02*
X179203589Y-122318638D01*
X179203589Y-122778257D02*
X179755132Y-122778257D01*
X179755132Y-123283838D02*
X179755132Y-122318638D01*
X180582446Y-123237876D02*
X180490522Y-123283838D01*
X180306674Y-123283838D01*
X180214751Y-123237876D01*
X180168789Y-123145952D01*
X180168789Y-122778257D01*
X180214751Y-122686333D01*
X180306674Y-122640371D01*
X180490522Y-122640371D01*
X180582446Y-122686333D01*
X180628408Y-122778257D01*
X180628408Y-122870180D01*
X180168789Y-122962104D01*
X181455722Y-123283838D02*
X181455722Y-122778257D01*
X181409760Y-122686333D01*
X181317836Y-122640371D01*
X181133989Y-122640371D01*
X181042065Y-122686333D01*
X181455722Y-123237876D02*
X181363798Y-123283838D01*
X181133989Y-123283838D01*
X181042065Y-123237876D01*
X180996103Y-123145952D01*
X180996103Y-123054028D01*
X181042065Y-122962104D01*
X181133989Y-122916142D01*
X181363798Y-122916142D01*
X181455722Y-122870180D01*
X182328998Y-123283838D02*
X182328998Y-122318638D01*
X182328998Y-123237876D02*
X182237074Y-123283838D01*
X182053227Y-123283838D01*
X181961303Y-123237876D01*
X181915341Y-123191914D01*
X181869379Y-123099990D01*
X181869379Y-122824219D01*
X181915341Y-122732295D01*
X181961303Y-122686333D01*
X182053227Y-122640371D01*
X182237074Y-122640371D01*
X182328998Y-122686333D01*
X183156312Y-123237876D02*
X183064389Y-123283838D01*
X182880541Y-123283838D01*
X182788617Y-123237876D01*
X182742655Y-123145952D01*
X182742655Y-122778257D01*
X182788617Y-122686333D01*
X182880541Y-122640371D01*
X183064389Y-122640371D01*
X183156312Y-122686333D01*
X183202274Y-122778257D01*
X183202274Y-122870180D01*
X182742655Y-122962104D01*
X183615932Y-123283838D02*
X183615932Y-122640371D01*
X183615932Y-122824219D02*
X183661893Y-122732295D01*
X183707855Y-122686333D01*
X183799779Y-122640371D01*
X183891703Y-122640371D01*
X156820141Y-122420238D02*
X156820141Y-123201590D01*
X156866103Y-123293514D01*
X156912065Y-123339476D01*
X157003989Y-123385438D01*
X157187836Y-123385438D01*
X157279760Y-123339476D01*
X157325722Y-123293514D01*
X157371684Y-123201590D01*
X157371684Y-122420238D01*
X157831303Y-122741971D02*
X157831303Y-123385438D01*
X157831303Y-122833895D02*
X157877265Y-122787933D01*
X157969189Y-122741971D01*
X158107074Y-122741971D01*
X158198998Y-122787933D01*
X158244960Y-122879857D01*
X158244960Y-123385438D01*
X159118236Y-122741971D02*
X159118236Y-123385438D01*
X158704579Y-122741971D02*
X158704579Y-123247552D01*
X158750541Y-123339476D01*
X158842465Y-123385438D01*
X158980351Y-123385438D01*
X159072274Y-123339476D01*
X159118236Y-123293514D01*
X159531893Y-123339476D02*
X159623817Y-123385438D01*
X159807665Y-123385438D01*
X159899589Y-123339476D01*
X159945551Y-123247552D01*
X159945551Y-123201590D01*
X159899589Y-123109666D01*
X159807665Y-123063704D01*
X159669779Y-123063704D01*
X159577855Y-123017742D01*
X159531893Y-122925819D01*
X159531893Y-122879857D01*
X159577855Y-122787933D01*
X159669779Y-122741971D01*
X159807665Y-122741971D01*
X159899589Y-122787933D01*
X160726903Y-123339476D02*
X160634979Y-123385438D01*
X160451132Y-123385438D01*
X160359208Y-123339476D01*
X160313246Y-123247552D01*
X160313246Y-122879857D01*
X160359208Y-122787933D01*
X160451132Y-122741971D01*
X160634979Y-122741971D01*
X160726903Y-122787933D01*
X160772865Y-122879857D01*
X160772865Y-122971780D01*
X160313246Y-123063704D01*
X161600179Y-123385438D02*
X161600179Y-122420238D01*
X161600179Y-123339476D02*
X161508255Y-123385438D01*
X161324408Y-123385438D01*
X161232484Y-123339476D01*
X161186522Y-123293514D01*
X161140560Y-123201590D01*
X161140560Y-122925819D01*
X161186522Y-122833895D01*
X161232484Y-122787933D01*
X161324408Y-122741971D01*
X161508255Y-122741971D01*
X161600179Y-122787933D01*
X162795189Y-123385438D02*
X162795189Y-122420238D01*
X163162884Y-122420238D01*
X163254808Y-122466200D01*
X163300770Y-122512161D01*
X163346732Y-122604085D01*
X163346732Y-122741971D01*
X163300770Y-122833895D01*
X163254808Y-122879857D01*
X163162884Y-122925819D01*
X162795189Y-122925819D01*
X163760389Y-123385438D02*
X163760389Y-122741971D01*
X163760389Y-122420238D02*
X163714427Y-122466200D01*
X163760389Y-122512161D01*
X163806351Y-122466200D01*
X163760389Y-122420238D01*
X163760389Y-122512161D01*
X164220008Y-122741971D02*
X164220008Y-123385438D01*
X164220008Y-122833895D02*
X164265970Y-122787933D01*
X164357893Y-122741971D01*
X164495779Y-122741971D01*
X164587703Y-122787933D01*
X164633665Y-122879857D01*
X164633665Y-123385438D01*
X165828674Y-123385438D02*
X165828674Y-122420238D01*
X165828674Y-122879857D02*
X166380217Y-122879857D01*
X166380217Y-123385438D02*
X166380217Y-122420238D01*
X167207532Y-123339476D02*
X167115608Y-123385438D01*
X166931760Y-123385438D01*
X166839836Y-123339476D01*
X166793874Y-123247552D01*
X166793874Y-122879857D01*
X166839836Y-122787933D01*
X166931760Y-122741971D01*
X167115608Y-122741971D01*
X167207532Y-122787933D01*
X167253493Y-122879857D01*
X167253493Y-122971780D01*
X166793874Y-123063704D01*
X168080808Y-123385438D02*
X168080808Y-122879857D01*
X168034846Y-122787933D01*
X167942922Y-122741971D01*
X167759074Y-122741971D01*
X167667151Y-122787933D01*
X168080808Y-123339476D02*
X167988884Y-123385438D01*
X167759074Y-123385438D01*
X167667151Y-123339476D01*
X167621189Y-123247552D01*
X167621189Y-123155628D01*
X167667151Y-123063704D01*
X167759074Y-123017742D01*
X167988884Y-123017742D01*
X168080808Y-122971780D01*
X168954084Y-123385438D02*
X168954084Y-122420238D01*
X168954084Y-123339476D02*
X168862160Y-123385438D01*
X168678312Y-123385438D01*
X168586389Y-123339476D01*
X168540427Y-123293514D01*
X168494465Y-123201590D01*
X168494465Y-122925819D01*
X168540427Y-122833895D01*
X168586389Y-122787933D01*
X168678312Y-122741971D01*
X168862160Y-122741971D01*
X168954084Y-122787933D01*
X169781398Y-123339476D02*
X169689474Y-123385438D01*
X169505627Y-123385438D01*
X169413703Y-123339476D01*
X169367741Y-123247552D01*
X169367741Y-122879857D01*
X169413703Y-122787933D01*
X169505627Y-122741971D01*
X169689474Y-122741971D01*
X169781398Y-122787933D01*
X169827360Y-122879857D01*
X169827360Y-122971780D01*
X169367741Y-123063704D01*
X170241017Y-123385438D02*
X170241017Y-122741971D01*
X170241017Y-122925819D02*
X170286979Y-122833895D01*
X170332941Y-122787933D01*
X170424865Y-122741971D01*
X170516789Y-122741971D01*
X169089938Y-118066339D02*
X169089938Y-118525958D01*
X169549557Y-118571920D01*
X169503595Y-118525958D01*
X169457633Y-118434034D01*
X169457633Y-118204225D01*
X169503595Y-118112301D01*
X169549557Y-118066339D01*
X169641480Y-118020377D01*
X169871290Y-118020377D01*
X169963214Y-118066339D01*
X170009176Y-118112301D01*
X170055138Y-118204225D01*
X170055138Y-118434034D01*
X170009176Y-118525958D01*
X169963214Y-118571920D01*
X169411671Y-117698644D02*
X170055138Y-117468834D01*
X169411671Y-117239025D01*
X166570500Y-118096577D02*
X166524538Y-118188501D01*
X166524538Y-118326387D01*
X166570500Y-118464272D01*
X166662423Y-118556196D01*
X166754347Y-118602158D01*
X166938195Y-118648120D01*
X167076080Y-118648120D01*
X167259928Y-118602158D01*
X167351852Y-118556196D01*
X167443776Y-118464272D01*
X167489738Y-118326387D01*
X167489738Y-118234463D01*
X167443776Y-118096577D01*
X167397814Y-118050615D01*
X167076080Y-118050615D01*
X167076080Y-118234463D01*
X166846271Y-117636958D02*
X167489738Y-117636958D01*
X166938195Y-117636958D02*
X166892233Y-117590996D01*
X166846271Y-117499072D01*
X166846271Y-117361187D01*
X166892233Y-117269263D01*
X166984157Y-117223301D01*
X167489738Y-117223301D01*
X167489738Y-116350025D02*
X166524538Y-116350025D01*
X167443776Y-116350025D02*
X167489738Y-116441948D01*
X167489738Y-116625796D01*
X167443776Y-116717720D01*
X167397814Y-116763682D01*
X167305890Y-116809644D01*
X167030119Y-116809644D01*
X166938195Y-116763682D01*
X166892233Y-116717720D01*
X166846271Y-116625796D01*
X166846271Y-116441948D01*
X166892233Y-116350025D01*
D11*
X157119522Y-118766015D02*
X156540402Y-118766015D01*
X156540402Y-118545397D01*
X156567980Y-118490243D01*
X156595557Y-118462666D01*
X156650711Y-118435089D01*
X156733442Y-118435089D01*
X156788597Y-118462666D01*
X156816174Y-118490243D01*
X156843751Y-118545397D01*
X156843751Y-118766015D01*
X156540402Y-118076586D02*
X156540402Y-118021432D01*
X156567980Y-117966277D01*
X156595557Y-117938700D01*
X156650711Y-117911123D01*
X156761020Y-117883546D01*
X156898905Y-117883546D01*
X157009214Y-117911123D01*
X157064368Y-117938700D01*
X157091945Y-117966277D01*
X157119522Y-118021432D01*
X157119522Y-118076586D01*
X157091945Y-118131740D01*
X157064368Y-118159317D01*
X157009214Y-118186895D01*
X156898905Y-118214472D01*
X156761020Y-118214472D01*
X156650711Y-118186895D01*
X156595557Y-118159317D01*
X156567980Y-118131740D01*
X156540402Y-118076586D01*
X157312562Y-117469889D02*
X157312562Y-117607775D01*
X156485248Y-117607775D01*
X156485248Y-117469889D01*
X156733442Y-117001077D02*
X157119522Y-117001077D01*
X156512825Y-117138963D02*
X156926482Y-117276849D01*
X156926482Y-116918346D01*
X157312562Y-116752883D02*
X157312562Y-116614997D01*
X156485248Y-116614997D01*
X156485248Y-116752883D01*
X158897522Y-118893015D02*
X158318402Y-118893015D01*
X158318402Y-118672397D01*
X158345980Y-118617243D01*
X158373557Y-118589666D01*
X158428711Y-118562089D01*
X158511442Y-118562089D01*
X158566597Y-118589666D01*
X158594174Y-118617243D01*
X158621751Y-118672397D01*
X158621751Y-118893015D01*
X158897522Y-118010546D02*
X158897522Y-118341472D01*
X158897522Y-118176009D02*
X158318402Y-118176009D01*
X158401134Y-118231163D01*
X158456288Y-118286317D01*
X158483865Y-118341472D01*
X159090562Y-117596889D02*
X159090562Y-117734775D01*
X158263248Y-117734775D01*
X158263248Y-117596889D01*
X158318402Y-117431426D02*
X158318402Y-117072923D01*
X158539020Y-117265963D01*
X158539020Y-117183232D01*
X158566597Y-117128077D01*
X158594174Y-117100500D01*
X158649328Y-117072923D01*
X158787214Y-117072923D01*
X158842368Y-117100500D01*
X158869945Y-117128077D01*
X158897522Y-117183232D01*
X158897522Y-117348695D01*
X158869945Y-117403849D01*
X158842368Y-117431426D01*
X159090562Y-116879883D02*
X159090562Y-116741997D01*
X158263248Y-116741997D01*
X158263248Y-116879883D01*
X162910722Y-118816815D02*
X162331602Y-118816815D01*
X162331602Y-118596197D01*
X162359180Y-118541043D01*
X162386757Y-118513466D01*
X162441911Y-118485889D01*
X162524642Y-118485889D01*
X162579797Y-118513466D01*
X162607374Y-118541043D01*
X162634951Y-118596197D01*
X162634951Y-118816815D01*
X162910722Y-117934346D02*
X162910722Y-118265272D01*
X162910722Y-118099809D02*
X162331602Y-118099809D01*
X162414334Y-118154963D01*
X162469488Y-118210117D01*
X162497065Y-118265272D01*
X163103762Y-117520689D02*
X163103762Y-117658575D01*
X162276448Y-117658575D01*
X162276448Y-117520689D01*
X162331602Y-117355226D02*
X162331602Y-116969146D01*
X162910722Y-117217340D01*
X163103762Y-116803683D02*
X163103762Y-116665797D01*
X162276448Y-116665797D01*
X162276448Y-116803683D01*
X164968122Y-118740615D02*
X164389002Y-118740615D01*
X164389002Y-118519997D01*
X164416580Y-118464843D01*
X164444157Y-118437266D01*
X164499311Y-118409689D01*
X164582042Y-118409689D01*
X164637197Y-118437266D01*
X164664774Y-118464843D01*
X164692351Y-118519997D01*
X164692351Y-118740615D01*
X164444157Y-118189072D02*
X164416580Y-118161495D01*
X164389002Y-118106340D01*
X164389002Y-117968455D01*
X164416580Y-117913300D01*
X164444157Y-117885723D01*
X164499311Y-117858146D01*
X164554465Y-117858146D01*
X164637197Y-117885723D01*
X164968122Y-118216649D01*
X164968122Y-117858146D01*
X165161162Y-117444489D02*
X165161162Y-117582375D01*
X164333848Y-117582375D01*
X164333848Y-117444489D01*
X164389002Y-117279026D02*
X164389002Y-116892946D01*
X164968122Y-117141140D01*
X165161162Y-116727483D02*
X165161162Y-116589597D01*
X164333848Y-116589597D01*
X164333848Y-116727483D01*
D12*
X112711130Y-101920086D02*
X111938970Y-101920086D01*
X111938970Y-101625930D01*
X111975740Y-101552391D01*
X112012509Y-101515622D01*
X112086048Y-101478852D01*
X112196357Y-101478852D01*
X112269896Y-101515622D01*
X112306665Y-101552391D01*
X112343435Y-101625930D01*
X112343435Y-101920086D01*
X111938970Y-101000848D02*
X111938970Y-100853770D01*
X111975740Y-100780231D01*
X112049279Y-100706692D01*
X112196357Y-100669922D01*
X112453743Y-100669922D01*
X112600821Y-100706692D01*
X112674360Y-100780231D01*
X112711130Y-100853770D01*
X112711130Y-101000848D01*
X112674360Y-101074387D01*
X112600821Y-101147926D01*
X112453743Y-101184696D01*
X112196357Y-101184696D01*
X112049279Y-101147926D01*
X111975740Y-101074387D01*
X111938970Y-101000848D01*
X111938970Y-100412536D02*
X112711130Y-100228688D01*
X112159587Y-100081610D01*
X112711130Y-99934532D01*
X111938970Y-99750684D01*
X112306665Y-99456528D02*
X112306665Y-99199142D01*
X112711130Y-99088833D02*
X112711130Y-99456528D01*
X111938970Y-99456528D01*
X111938970Y-99088833D01*
X112711130Y-98316673D02*
X112343435Y-98574060D01*
X112711130Y-98757907D02*
X111938970Y-98757907D01*
X111938970Y-98463751D01*
X111975740Y-98390212D01*
X112012509Y-98353442D01*
X112086048Y-98316673D01*
X112196357Y-98316673D01*
X112269896Y-98353442D01*
X112306665Y-98390212D01*
X112343435Y-98463751D01*
X112343435Y-98757907D01*
X112416974Y-97985747D02*
X112416974Y-97397435D01*
X112711130Y-97691591D02*
X112122818Y-97691591D01*
X111938970Y-96882662D02*
X111938970Y-96735583D01*
X111975740Y-96662044D01*
X112049279Y-96588505D01*
X112196357Y-96551736D01*
X112453743Y-96551736D01*
X112600821Y-96588505D01*
X112674360Y-96662044D01*
X112711130Y-96735583D01*
X112711130Y-96882662D01*
X112674360Y-96956201D01*
X112600821Y-97029740D01*
X112453743Y-97066509D01*
X112196357Y-97066509D01*
X112049279Y-97029740D01*
X111975740Y-96956201D01*
X111938970Y-96882662D01*
X111938970Y-96220810D02*
X112564052Y-96220810D01*
X112637591Y-96184041D01*
X112674360Y-96147271D01*
X112711130Y-96073732D01*
X112711130Y-95926654D01*
X112674360Y-95853115D01*
X112637591Y-95816345D01*
X112564052Y-95779576D01*
X111938970Y-95779576D01*
X111938970Y-95522189D02*
X111938970Y-95080955D01*
X112711130Y-95301572D02*
X111938970Y-95301572D01*
X112711130Y-94823568D02*
X111938970Y-94823568D01*
X111938970Y-94529412D01*
X111975740Y-94455873D01*
X112012509Y-94419103D01*
X112086048Y-94382334D01*
X112196357Y-94382334D01*
X112269896Y-94419103D01*
X112306665Y-94455873D01*
X112343435Y-94529412D01*
X112343435Y-94823568D01*
X111938970Y-94051408D02*
X112564052Y-94051408D01*
X112637591Y-94014639D01*
X112674360Y-93977869D01*
X112711130Y-93904330D01*
X112711130Y-93757252D01*
X112674360Y-93683713D01*
X112637591Y-93646943D01*
X112564052Y-93610174D01*
X111938970Y-93610174D01*
X111938970Y-93352787D02*
X111938970Y-92911553D01*
X112711130Y-93132170D02*
X111938970Y-93132170D01*
D13*
X102453511Y-104135653D02*
X101681351Y-104135653D01*
X102067431Y-104135653D02*
X102067431Y-102784373D01*
X101938738Y-102977413D01*
X101810044Y-103106106D01*
X101681351Y-103170453D01*
X103611751Y-103234800D02*
X103611751Y-104135653D01*
X103290018Y-102720026D02*
X102968284Y-103685226D01*
X103804791Y-103685226D01*
X104319564Y-104135653D02*
X104319564Y-102784373D01*
X104834338Y-102784373D01*
X104963031Y-102848720D01*
X105027378Y-102913066D01*
X105091724Y-103041760D01*
X105091724Y-103234800D01*
X105027378Y-103363493D01*
X104963031Y-103427840D01*
X104834338Y-103492186D01*
X104319564Y-103492186D01*
X105863884Y-104135653D02*
X105735191Y-104071306D01*
X105670844Y-104006960D01*
X105606498Y-103878266D01*
X105606498Y-103492186D01*
X105670844Y-103363493D01*
X105735191Y-103299146D01*
X105863884Y-103234800D01*
X106056924Y-103234800D01*
X106185618Y-103299146D01*
X106249964Y-103363493D01*
X106314311Y-103492186D01*
X106314311Y-103878266D01*
X106249964Y-104006960D01*
X106185618Y-104071306D01*
X106056924Y-104135653D01*
X105863884Y-104135653D01*
X106893431Y-104135653D02*
X106893431Y-103234800D01*
X106893431Y-102784373D02*
X106829084Y-102848720D01*
X106893431Y-102913066D01*
X106957778Y-102848720D01*
X106893431Y-102784373D01*
X106893431Y-102913066D01*
X107536898Y-103234800D02*
X107536898Y-104135653D01*
X107536898Y-103363493D02*
X107601244Y-103299146D01*
X107729938Y-103234800D01*
X107922978Y-103234800D01*
X108051671Y-103299146D01*
X108116018Y-103427840D01*
X108116018Y-104135653D01*
X108566444Y-103234800D02*
X109081218Y-103234800D01*
X108759484Y-102784373D02*
X108759484Y-103942613D01*
X108823831Y-104071306D01*
X108952524Y-104135653D01*
X109081218Y-104135653D01*
X109402951Y-102784373D02*
X110303804Y-102784373D01*
X109724684Y-104135653D01*
D12*
X181609960Y-118644656D02*
X181646730Y-118534347D01*
X181646730Y-118350500D01*
X181609960Y-118276961D01*
X181573191Y-118240191D01*
X181499652Y-118203422D01*
X181426113Y-118203422D01*
X181352574Y-118240191D01*
X181315804Y-118276961D01*
X181279035Y-118350500D01*
X181242265Y-118497578D01*
X181205496Y-118571117D01*
X181168726Y-118607886D01*
X181095187Y-118644656D01*
X181021648Y-118644656D01*
X180948109Y-118607886D01*
X180911340Y-118571117D01*
X180874570Y-118497578D01*
X180874570Y-118313730D01*
X180911340Y-118203422D01*
X181573191Y-117431262D02*
X181609960Y-117468031D01*
X181646730Y-117578340D01*
X181646730Y-117651879D01*
X181609960Y-117762187D01*
X181536421Y-117835726D01*
X181462882Y-117872496D01*
X181315804Y-117909265D01*
X181205496Y-117909265D01*
X181058418Y-117872496D01*
X180984879Y-117835726D01*
X180911340Y-117762187D01*
X180874570Y-117651879D01*
X180874570Y-117578340D01*
X180911340Y-117468031D01*
X180948109Y-117431262D01*
X181646730Y-116732641D02*
X181646730Y-117100336D01*
X180874570Y-117100336D01*
X182920910Y-118669020D02*
X183031219Y-118705790D01*
X183215066Y-118705790D01*
X183288605Y-118669020D01*
X183325375Y-118632251D01*
X183362144Y-118558712D01*
X183362144Y-118485173D01*
X183325375Y-118411634D01*
X183288605Y-118374864D01*
X183215066Y-118338095D01*
X183067988Y-118301325D01*
X182994449Y-118264556D01*
X182957680Y-118227786D01*
X182920910Y-118154247D01*
X182920910Y-118080708D01*
X182957680Y-118007169D01*
X182994449Y-117970400D01*
X183067988Y-117933630D01*
X183251836Y-117933630D01*
X183362144Y-117970400D01*
X183693070Y-118705790D02*
X183693070Y-117933630D01*
X183876918Y-117933630D01*
X183987226Y-117970400D01*
X184060765Y-118043939D01*
X184097535Y-118117478D01*
X184134304Y-118264556D01*
X184134304Y-118374864D01*
X184097535Y-118521942D01*
X184060765Y-118595481D01*
X183987226Y-118669020D01*
X183876918Y-118705790D01*
X183693070Y-118705790D01*
X184428461Y-118485173D02*
X184796156Y-118485173D01*
X184354922Y-118705790D02*
X184612308Y-117933630D01*
X184869695Y-118705790D01*
D14*
X115845849Y-122865095D02*
X116018206Y-122922547D01*
X116305468Y-122922547D01*
X116420373Y-122865095D01*
X116477825Y-122807642D01*
X116535278Y-122692738D01*
X116535278Y-122577833D01*
X116477825Y-122462928D01*
X116420373Y-122405476D01*
X116305468Y-122348023D01*
X116075659Y-122290571D01*
X115960754Y-122233119D01*
X115903301Y-122175666D01*
X115845849Y-122060761D01*
X115845849Y-121945857D01*
X115903301Y-121830952D01*
X115960754Y-121773500D01*
X116075659Y-121716047D01*
X116362920Y-121716047D01*
X116535278Y-121773500D01*
X117626873Y-122922547D02*
X117052349Y-122922547D01*
X117052349Y-121716047D01*
X118718468Y-122807642D02*
X118661016Y-122865095D01*
X118488659Y-122922547D01*
X118373754Y-122922547D01*
X118201397Y-122865095D01*
X118086492Y-122750190D01*
X118029040Y-122635285D01*
X117971587Y-122405476D01*
X117971587Y-122233119D01*
X118029040Y-122003309D01*
X118086492Y-121888404D01*
X118201397Y-121773500D01*
X118373754Y-121716047D01*
X118488659Y-121716047D01*
X118661016Y-121773500D01*
X118718468Y-121830952D01*
X119637706Y-122290571D02*
X119235540Y-122290571D01*
X119235540Y-122922547D02*
X119235540Y-121716047D01*
X119810063Y-121716047D01*
X120269682Y-122922547D02*
X120269682Y-122118214D01*
X120269682Y-122348023D02*
X120327135Y-122233119D01*
X120384587Y-122175666D01*
X120499492Y-122118214D01*
X120614397Y-122118214D01*
X121476182Y-122865095D02*
X121361278Y-122922547D01*
X121131468Y-122922547D01*
X121016563Y-122865095D01*
X120959111Y-122750190D01*
X120959111Y-122290571D01*
X121016563Y-122175666D01*
X121131468Y-122118214D01*
X121361278Y-122118214D01*
X121476182Y-122175666D01*
X121533635Y-122290571D01*
X121533635Y-122405476D01*
X120959111Y-122520380D01*
X122510325Y-122865095D02*
X122395420Y-122922547D01*
X122165611Y-122922547D01*
X122050706Y-122865095D01*
X121993254Y-122750190D01*
X121993254Y-122290571D01*
X122050706Y-122175666D01*
X122165611Y-122118214D01*
X122395420Y-122118214D01*
X122510325Y-122175666D01*
X122567778Y-122290571D01*
X122567778Y-122405476D01*
X121993254Y-122520380D01*
X122912492Y-121716047D02*
X123314659Y-122922547D01*
X123716825Y-121716047D01*
X124061540Y-121830952D02*
X124118992Y-121773500D01*
X124233897Y-121716047D01*
X124521159Y-121716047D01*
X124636063Y-121773500D01*
X124693516Y-121830952D01*
X124750968Y-121945857D01*
X124750968Y-122060761D01*
X124693516Y-122233119D01*
X124004087Y-122922547D01*
X124750968Y-122922547D01*
X125268040Y-122807642D02*
X125325492Y-122865095D01*
X125268040Y-122922547D01*
X125210587Y-122865095D01*
X125268040Y-122807642D01*
X125268040Y-122922547D01*
X126072373Y-121716047D02*
X126187278Y-121716047D01*
X126302182Y-121773500D01*
X126359635Y-121830952D01*
X126417087Y-121945857D01*
X126474540Y-122175666D01*
X126474540Y-122462928D01*
X126417087Y-122692738D01*
X126359635Y-122807642D01*
X126302182Y-122865095D01*
X126187278Y-122922547D01*
X126072373Y-122922547D01*
X125957468Y-122865095D01*
X125900016Y-122807642D01*
X125842563Y-122692738D01*
X125785111Y-122462928D01*
X125785111Y-122175666D01*
X125842563Y-121945857D01*
X125900016Y-121830952D01*
X125957468Y-121773500D01*
X126072373Y-121716047D01*
X127623587Y-122922547D02*
X126934159Y-122922547D01*
X127278873Y-122922547D02*
X127278873Y-121716047D01*
X127163968Y-121888404D01*
X127049063Y-122003309D01*
X126934159Y-122060761D01*
D15*
X151611500Y-121570000D02*
X151941500Y-121570000D01*
X151611500Y-115030000D02*
X151611500Y-121570000D01*
X151941500Y-115030000D02*
X151611500Y-115030000D01*
X154351500Y-121570000D02*
X154021500Y-121570000D01*
X154351500Y-115030000D02*
X154351500Y-121570000D01*
X154021500Y-115030000D02*
X154351500Y-115030000D01*
X102430000Y-101590000D02*
X102730000Y-100990000D01*
X103030000Y-101590000D02*
X102430000Y-101590000D01*
X102730000Y-100990000D02*
X103030000Y-101590000D01*
X101730000Y-97380000D02*
X101730000Y-96400000D01*
X104840000Y-94490000D02*
X106120000Y-94490000D01*
X104840000Y-95090000D02*
X106120000Y-95090000D01*
X104840000Y-98690000D02*
X106120000Y-98690000D01*
X104840000Y-99290000D02*
X106120000Y-99290000D01*
X88720000Y-91980000D02*
X88720000Y-96890000D01*
X101740000Y-91980000D02*
X88720000Y-91980000D01*
X101740000Y-92790000D02*
X101740000Y-91980000D01*
X88720000Y-101800000D02*
X88720000Y-96890000D01*
X101740000Y-101800000D02*
X88720000Y-101800000D01*
X101740000Y-100990000D02*
X101740000Y-101800000D01*
X102420000Y-119380000D02*
X102720000Y-118780000D01*
X103020000Y-119380000D02*
X102420000Y-119380000D01*
X102720000Y-118780000D02*
X103020000Y-119380000D01*
X101720000Y-110970000D02*
X101720000Y-109990000D01*
X101720000Y-115170000D02*
X101720000Y-114190000D01*
X104830000Y-108080000D02*
X106110000Y-108080000D01*
X104830000Y-108680000D02*
X106110000Y-108680000D01*
X104830000Y-112280000D02*
X106110000Y-112280000D01*
X104830000Y-112880000D02*
X106110000Y-112880000D01*
X104830000Y-116480000D02*
X106110000Y-116480000D01*
X104830000Y-117080000D02*
X106110000Y-117080000D01*
X88710000Y-105570000D02*
X88710000Y-112580000D01*
X101730000Y-105570000D02*
X88710000Y-105570000D01*
X101730000Y-106380000D02*
X101730000Y-105570000D01*
X88710000Y-119590000D02*
X88710000Y-112580000D01*
X101730000Y-119590000D02*
X88710000Y-119590000D01*
X101730000Y-118780000D02*
X101730000Y-119590000D01*
X181360000Y-94270000D02*
X180590000Y-94270000D01*
X173280000Y-94270000D02*
X174050000Y-94270000D01*
X180590000Y-92900000D02*
X174050000Y-92900000D01*
X180590000Y-95640000D02*
X180590000Y-92900000D01*
X174050000Y-95640000D02*
X180590000Y-95640000D01*
X174050000Y-92900000D02*
X174050000Y-95640000D01*
X142205000Y-95680000D02*
X142270000Y-95680000D01*
X140030000Y-95680000D02*
X140095000Y-95680000D01*
X142205000Y-98920000D02*
X142270000Y-98920000D01*
X140030000Y-98920000D02*
X140095000Y-98920000D01*
X142270000Y-98920000D02*
X142270000Y-95680000D01*
X140030000Y-98920000D02*
X140030000Y-95680000D01*
X149295000Y-94020000D02*
X148965000Y-94020000D01*
X149295000Y-100560000D02*
X149295000Y-94020000D01*
X148965000Y-100560000D02*
X149295000Y-100560000D01*
X146555000Y-94020000D02*
X146885000Y-94020000D01*
X146555000Y-100560000D02*
X146555000Y-94020000D01*
X146885000Y-100560000D02*
X146555000Y-100560000D01*
X143440000Y-100550000D02*
X143770000Y-100550000D01*
X143440000Y-94010000D02*
X143440000Y-100550000D01*
X143770000Y-94010000D02*
X143440000Y-94010000D01*
X146180000Y-100550000D02*
X145850000Y-100550000D01*
X146180000Y-94010000D02*
X146180000Y-100550000D01*
X145850000Y-94010000D02*
X146180000Y-94010000D01*
X167855000Y-91745000D02*
X167855000Y-91415000D01*
X161315000Y-91745000D02*
X167855000Y-91745000D01*
X161315000Y-91415000D02*
X161315000Y-91745000D01*
X167855000Y-89005000D02*
X167855000Y-89335000D01*
X161315000Y-89005000D02*
X167855000Y-89005000D01*
X161315000Y-89335000D02*
X161315000Y-89005000D01*
X157620000Y-94045000D02*
X157290000Y-94045000D01*
X157620000Y-100585000D02*
X157620000Y-94045000D01*
X157290000Y-100585000D02*
X157620000Y-100585000D01*
X154880000Y-94045000D02*
X155210000Y-94045000D01*
X154880000Y-100585000D02*
X154880000Y-94045000D01*
X155210000Y-100585000D02*
X154880000Y-100585000D01*
X164020000Y-93745000D02*
X163690000Y-93745000D01*
X164020000Y-100285000D02*
X164020000Y-93745000D01*
X163690000Y-100285000D02*
X164020000Y-100285000D01*
X161280000Y-93745000D02*
X161610000Y-93745000D01*
X161280000Y-100285000D02*
X161280000Y-93745000D01*
X161610000Y-100285000D02*
X161280000Y-100285000D01*
X122680000Y-118410000D02*
X123010000Y-118410000D01*
X122680000Y-111870000D02*
X122680000Y-118410000D01*
X123010000Y-111870000D02*
X122680000Y-111870000D01*
X125420000Y-118410000D02*
X125090000Y-118410000D01*
X125420000Y-111870000D02*
X125420000Y-118410000D01*
X125090000Y-111870000D02*
X125420000Y-111870000D01*
X132645000Y-114740000D02*
X132315000Y-114740000D01*
X132645000Y-121280000D02*
X132645000Y-114740000D01*
X132315000Y-121280000D02*
X132645000Y-121280000D01*
X129905000Y-114740000D02*
X130235000Y-114740000D01*
X129905000Y-121280000D02*
X129905000Y-114740000D01*
X130235000Y-121280000D02*
X129905000Y-121280000D01*
X127355000Y-121280000D02*
X127685000Y-121280000D01*
X127355000Y-114740000D02*
X127355000Y-121280000D01*
X127685000Y-114740000D02*
X127355000Y-114740000D01*
X130095000Y-121280000D02*
X129765000Y-121280000D01*
X130095000Y-114740000D02*
X130095000Y-121280000D01*
X129765000Y-114740000D02*
X130095000Y-114740000D01*
X132355000Y-121280000D02*
X132685000Y-121280000D01*
X132355000Y-114740000D02*
X132355000Y-121280000D01*
X132685000Y-114740000D02*
X132355000Y-114740000D01*
X135095000Y-121280000D02*
X134765000Y-121280000D01*
X135095000Y-114740000D02*
X135095000Y-121280000D01*
X134765000Y-114740000D02*
X135095000Y-114740000D01*
X138695000Y-114740000D02*
X138365000Y-114740000D01*
X138695000Y-121280000D02*
X138695000Y-114740000D01*
X138365000Y-121280000D02*
X138695000Y-121280000D01*
X135955000Y-114740000D02*
X136285000Y-114740000D01*
X135955000Y-121280000D02*
X135955000Y-114740000D01*
X136285000Y-121280000D02*
X135955000Y-121280000D01*
X139355000Y-121280000D02*
X139685000Y-121280000D01*
X139355000Y-114740000D02*
X139355000Y-121280000D01*
X139685000Y-114740000D02*
X139355000Y-114740000D01*
X142095000Y-121280000D02*
X141765000Y-121280000D01*
X142095000Y-114740000D02*
X142095000Y-121280000D01*
X141765000Y-114740000D02*
X142095000Y-114740000D01*
X136930300Y-100539400D02*
X137260300Y-100539400D01*
X136930300Y-93999400D02*
X136930300Y-100539400D01*
X137260300Y-93999400D02*
X136930300Y-93999400D01*
X139670300Y-100539400D02*
X139340300Y-100539400D01*
X139670300Y-93999400D02*
X139670300Y-100539400D01*
X139340300Y-93999400D02*
X139670300Y-93999400D01*
X127705000Y-101630000D02*
X128035000Y-101630000D01*
X127705000Y-95090000D02*
X127705000Y-101630000D01*
X128035000Y-95090000D02*
X127705000Y-95090000D01*
X130445000Y-101630000D02*
X130115000Y-101630000D01*
X130445000Y-95090000D02*
X130445000Y-101630000D01*
X130115000Y-95090000D02*
X130445000Y-95090000D01*
X127570000Y-94620000D02*
X127240000Y-94620000D01*
X127570000Y-101160000D02*
X127570000Y-94620000D01*
X127240000Y-101160000D02*
X127570000Y-101160000D01*
X124830000Y-94620000D02*
X125160000Y-94620000D01*
X124830000Y-101160000D02*
X124830000Y-94620000D01*
X125160000Y-101160000D02*
X124830000Y-101160000D01*
X126130000Y-103845000D02*
X126130000Y-103780000D01*
X126130000Y-106020000D02*
X126130000Y-105955000D01*
X129370000Y-103845000D02*
X129370000Y-103780000D01*
X129370000Y-106020000D02*
X129370000Y-105955000D01*
X129370000Y-103780000D02*
X126130000Y-103780000D01*
X129370000Y-106020000D02*
X126130000Y-106020000D01*
X143020000Y-119945000D02*
X142955000Y-119945000D01*
X145195000Y-119945000D02*
X145130000Y-119945000D01*
X143020000Y-116705000D02*
X142955000Y-116705000D01*
X145195000Y-116705000D02*
X145130000Y-116705000D01*
X142955000Y-116705000D02*
X142955000Y-119945000D01*
X145195000Y-116705000D02*
X145195000Y-119945000D01*
X151330000Y-116705000D02*
X151395000Y-116705000D01*
X149155000Y-116705000D02*
X149220000Y-116705000D01*
X151330000Y-119945000D02*
X151395000Y-119945000D01*
X149155000Y-119945000D02*
X149220000Y-119945000D01*
X151395000Y-119945000D02*
X151395000Y-116705000D01*
X149155000Y-119945000D02*
X149155000Y-116705000D01*
X188690000Y-116675000D02*
X188690000Y-116740000D01*
X188690000Y-114500000D02*
X188690000Y-114565000D01*
X185450000Y-116675000D02*
X185450000Y-116740000D01*
X185450000Y-114500000D02*
X185450000Y-114565000D01*
X185450000Y-116740000D02*
X188690000Y-116740000D01*
X185450000Y-114500000D02*
X188690000Y-114500000D01*
X182030000Y-101515000D02*
X182030000Y-101450000D01*
X182030000Y-103690000D02*
X182030000Y-103625000D01*
X185270000Y-101515000D02*
X185270000Y-101450000D01*
X185270000Y-103690000D02*
X185270000Y-103625000D01*
X185270000Y-101450000D02*
X182030000Y-101450000D01*
X185270000Y-103690000D02*
X182030000Y-103690000D01*
X158301900Y-98870000D02*
X158236900Y-98870000D01*
X160476900Y-98870000D02*
X160411900Y-98870000D01*
X158301900Y-95630000D02*
X158236900Y-95630000D01*
X160476900Y-95630000D02*
X160411900Y-95630000D01*
X158236900Y-95630000D02*
X158236900Y-98870000D01*
X160476900Y-95630000D02*
X160476900Y-98870000D01*
X154185000Y-93430000D02*
X154250000Y-93430000D01*
X152010000Y-93430000D02*
X152075000Y-93430000D01*
X154185000Y-96670000D02*
X154250000Y-96670000D01*
X152010000Y-96670000D02*
X152075000Y-96670000D01*
X154250000Y-96670000D02*
X154250000Y-93430000D01*
X152010000Y-96670000D02*
X152010000Y-93430000D01*
X134402300Y-97168000D02*
X134467300Y-97168000D01*
X132227300Y-97168000D02*
X132292300Y-97168000D01*
X134402300Y-100408000D02*
X134467300Y-100408000D01*
X132227300Y-100408000D02*
X132292300Y-100408000D01*
X134467300Y-100408000D02*
X134467300Y-97168000D01*
X132227300Y-100408000D02*
X132227300Y-97168000D01*
D16*
X112483000Y-110110000D02*
X122897000Y-110110000D01*
X122897000Y-94235000D02*
X112483000Y-94235000D01*
X122897000Y-110110000D02*
X122897000Y-97664000D01*
X122897000Y-97664000D02*
X122008000Y-97664000D01*
X122008000Y-97664000D02*
X122008000Y-96140000D01*
X122008000Y-96140000D02*
X122897000Y-96140000D01*
X122897000Y-96140000D02*
X122897000Y-94235000D01*
X112483000Y-110110000D02*
X112483000Y-97664000D01*
X112483000Y-97664000D02*
X113372000Y-97664000D01*
X113372000Y-97664000D02*
X113372000Y-96140000D01*
X113372000Y-96140000D02*
X112483000Y-96140000D01*
X112483000Y-96140000D02*
X112483000Y-94235000D01*
D17*
X113118000Y-109475000D02*
X122262000Y-109475000D01*
X122262000Y-101220000D02*
X122262000Y-109475000D01*
X122262000Y-101220000D02*
X113118000Y-101220000D01*
X113118000Y-109475000D02*
X113118000Y-101220000D01*
D18*
G36*
X119849000Y-113539000D02*
G01*
X120611000Y-113539000D01*
X120611000Y-112904000D01*
X119849000Y-112904000D01*
X119849000Y-113539000D01*
G37*
G36*
X117309000Y-113539000D02*
G01*
X118071000Y-113539000D01*
X118071000Y-112904000D01*
X117309000Y-112904000D01*
X117309000Y-113539000D01*
G37*
G36*
X114769000Y-113539000D02*
G01*
X115531000Y-113539000D01*
X115531000Y-112904000D01*
X114769000Y-112904000D01*
X114769000Y-113539000D01*
G37*
G36*
X114515000Y-112904000D02*
G01*
X115785000Y-112904000D01*
X115785000Y-110110000D01*
X114515000Y-110110000D01*
X114515000Y-112904000D01*
G37*
G36*
X117055000Y-112904000D02*
G01*
X118325000Y-112904000D01*
X118325000Y-110110000D01*
X117055000Y-110110000D01*
X117055000Y-112904000D01*
G37*
G36*
X119595000Y-112904000D02*
G01*
X120865000Y-112904000D01*
X120865000Y-110110000D01*
X119595000Y-110110000D01*
X119595000Y-112904000D01*
G37*
D16*
X168907300Y-112917200D02*
X179321300Y-112917200D01*
X179321300Y-97042200D02*
X168907300Y-97042200D01*
X179321300Y-112917200D02*
X179321300Y-100471200D01*
X179321300Y-100471200D02*
X178432300Y-100471200D01*
X178432300Y-100471200D02*
X178432300Y-98947200D01*
X178432300Y-98947200D02*
X179321300Y-98947200D01*
X179321300Y-98947200D02*
X179321300Y-97042200D01*
X168907300Y-112917200D02*
X168907300Y-100471200D01*
X168907300Y-100471200D02*
X169796300Y-100471200D01*
X169796300Y-100471200D02*
X169796300Y-98947200D01*
X169796300Y-98947200D02*
X168907300Y-98947200D01*
X168907300Y-98947200D02*
X168907300Y-97042200D01*
D17*
X169542300Y-112282200D02*
X178686300Y-112282200D01*
X178686300Y-104027200D02*
X178686300Y-112282200D01*
X178686300Y-104027200D02*
X169542300Y-104027200D01*
X169542300Y-112282200D02*
X169542300Y-104027200D01*
D18*
G36*
X176273300Y-116346200D02*
G01*
X177035300Y-116346200D01*
X177035300Y-115711200D01*
X176273300Y-115711200D01*
X176273300Y-116346200D01*
G37*
G36*
X173733300Y-116346200D02*
G01*
X174495300Y-116346200D01*
X174495300Y-115711200D01*
X173733300Y-115711200D01*
X173733300Y-116346200D01*
G37*
G36*
X171193300Y-116346200D02*
G01*
X171955300Y-116346200D01*
X171955300Y-115711200D01*
X171193300Y-115711200D01*
X171193300Y-116346200D01*
G37*
G36*
X170939300Y-115711200D02*
G01*
X172209300Y-115711200D01*
X172209300Y-112917200D01*
X170939300Y-112917200D01*
X170939300Y-115711200D01*
G37*
G36*
X173479300Y-115711200D02*
G01*
X174749300Y-115711200D01*
X174749300Y-112917200D01*
X173479300Y-112917200D01*
X173479300Y-115711200D01*
G37*
G36*
X176019300Y-115711200D02*
G01*
X177289300Y-115711200D01*
X177289300Y-112917200D01*
X176019300Y-112917200D01*
X176019300Y-115711200D01*
G37*
D16*
X132077300Y-108674000D02*
G75*
G03X132077300Y-106642000I0J1016000D01*
G01*
X132077300Y-110579000D02*
X132077300Y-108674000D01*
X132077300Y-104737000D02*
X132077300Y-106642000D01*
X167637300Y-104737000D02*
X167637300Y-110579000D01*
X132077300Y-110579000D02*
X167637300Y-110579000D01*
X167637300Y-104737000D02*
X132077300Y-104737000D01*
X184452100Y-121856600D02*
X183182100Y-121856600D01*
X182547100Y-121221600D02*
X183182100Y-121856600D01*
X183182100Y-119316600D02*
X182547100Y-119951600D01*
X185087100Y-121221600D02*
X184452100Y-121856600D01*
X185087100Y-119951600D02*
X185087100Y-121221600D01*
X184452100Y-119316600D02*
X185087100Y-119951600D01*
X183182100Y-119316600D02*
X184452100Y-119316600D01*
X174292100Y-121856600D02*
X173022100Y-121856600D01*
X172387100Y-121221600D02*
X173022100Y-121856600D01*
X173022100Y-119316600D02*
X172387100Y-119951600D01*
X172387100Y-119951600D02*
X172387100Y-121221600D01*
X175562100Y-121856600D02*
X174927100Y-121221600D01*
X176832100Y-121856600D02*
X175562100Y-121856600D01*
X177467100Y-121221600D02*
X176832100Y-121856600D01*
X177467100Y-119951600D02*
X177467100Y-121221600D01*
X176832100Y-119316600D02*
X177467100Y-119951600D01*
X175562100Y-119316600D02*
X176832100Y-119316600D01*
X174927100Y-119951600D02*
X175562100Y-119316600D01*
X174927100Y-121221600D02*
X174292100Y-121856600D01*
X174927100Y-119951600D02*
X174927100Y-121221600D01*
X174292100Y-119316600D02*
X174927100Y-119951600D01*
X173022100Y-119316600D02*
X174292100Y-119316600D01*
X181912100Y-121856600D02*
X180642100Y-121856600D01*
X180007100Y-121221600D02*
X180642100Y-121856600D01*
X180642100Y-119316600D02*
X180007100Y-119951600D01*
X178102100Y-121856600D02*
X177467100Y-121221600D01*
X179372100Y-121856600D02*
X178102100Y-121856600D01*
X180007100Y-121221600D02*
X179372100Y-121856600D01*
X180007100Y-119951600D02*
X180007100Y-121221600D01*
X179372100Y-119316600D02*
X180007100Y-119951600D01*
X178102100Y-119316600D02*
X179372100Y-119316600D01*
X177467100Y-119951600D02*
X178102100Y-119316600D01*
X182547100Y-121221600D02*
X181912100Y-121856600D01*
X182547100Y-119951600D02*
X182547100Y-121221600D01*
X181912100Y-119316600D02*
X182547100Y-119951600D01*
X180642100Y-119316600D02*
X181912100Y-119316600D01*
X156943900Y-91579800D02*
X156308900Y-90944800D01*
X158213900Y-91579800D02*
X156943900Y-91579800D01*
X158848900Y-90944800D02*
X158213900Y-91579800D01*
X158848900Y-89674800D02*
X158848900Y-90944800D01*
X158213900Y-89039800D02*
X158848900Y-89674800D01*
X156943900Y-89039800D02*
X158213900Y-89039800D01*
X156308900Y-89674800D02*
X156943900Y-89039800D01*
X120113900Y-91579800D02*
X118843900Y-91579800D01*
X118208900Y-90944800D02*
X118843900Y-91579800D01*
X118843900Y-89039800D02*
X118208900Y-89674800D01*
X118208900Y-89674800D02*
X118208900Y-90944800D01*
X121383900Y-91579800D02*
X120748900Y-90944800D01*
X122653900Y-91579800D02*
X121383900Y-91579800D01*
X123288900Y-90944800D02*
X122653900Y-91579800D01*
X123288900Y-89674800D02*
X123288900Y-90944800D01*
X122653900Y-89039800D02*
X123288900Y-89674800D01*
X121383900Y-89039800D02*
X122653900Y-89039800D01*
X120748900Y-89674800D02*
X121383900Y-89039800D01*
X120748900Y-90944800D02*
X120113900Y-91579800D01*
X120748900Y-89674800D02*
X120748900Y-90944800D01*
X120113900Y-89039800D02*
X120748900Y-89674800D01*
X118843900Y-89039800D02*
X120113900Y-89039800D01*
X127733900Y-91579800D02*
X126463900Y-91579800D01*
X125828900Y-90944800D02*
X126463900Y-91579800D01*
X126463900Y-89039800D02*
X125828900Y-89674800D01*
X123923900Y-91579800D02*
X123288900Y-90944800D01*
X125193900Y-91579800D02*
X123923900Y-91579800D01*
X125828900Y-90944800D02*
X125193900Y-91579800D01*
X125828900Y-89674800D02*
X125828900Y-90944800D01*
X125193900Y-89039800D02*
X125828900Y-89674800D01*
X123923900Y-89039800D02*
X125193900Y-89039800D01*
X123288900Y-89674800D02*
X123923900Y-89039800D01*
X129003900Y-91579800D02*
X128368900Y-90944800D01*
X130273900Y-91579800D02*
X129003900Y-91579800D01*
X130908900Y-90944800D02*
X130273900Y-91579800D01*
X130908900Y-89674800D02*
X130908900Y-90944800D01*
X130273900Y-89039800D02*
X130908900Y-89674800D01*
X129003900Y-89039800D02*
X130273900Y-89039800D01*
X128368900Y-89674800D02*
X129003900Y-89039800D01*
X128368900Y-90944800D02*
X127733900Y-91579800D01*
X128368900Y-89674800D02*
X128368900Y-90944800D01*
X127733900Y-89039800D02*
X128368900Y-89674800D01*
X126463900Y-89039800D02*
X127733900Y-89039800D01*
X135353900Y-91579800D02*
X134083900Y-91579800D01*
X133448900Y-90944800D02*
X134083900Y-91579800D01*
X134083900Y-89039800D02*
X133448900Y-89674800D01*
X131543900Y-91579800D02*
X130908900Y-90944800D01*
X132813900Y-91579800D02*
X131543900Y-91579800D01*
X133448900Y-90944800D02*
X132813900Y-91579800D01*
X133448900Y-89674800D02*
X133448900Y-90944800D01*
X132813900Y-89039800D02*
X133448900Y-89674800D01*
X131543900Y-89039800D02*
X132813900Y-89039800D01*
X130908900Y-89674800D02*
X131543900Y-89039800D01*
X136623900Y-91579800D02*
X135988900Y-90944800D01*
X137893900Y-91579800D02*
X136623900Y-91579800D01*
X138528900Y-90944800D02*
X137893900Y-91579800D01*
X138528900Y-89674800D02*
X138528900Y-90944800D01*
X137893900Y-89039800D02*
X138528900Y-89674800D01*
X136623900Y-89039800D02*
X137893900Y-89039800D01*
X135988900Y-89674800D02*
X136623900Y-89039800D01*
X135988900Y-90944800D02*
X135353900Y-91579800D01*
X135988900Y-89674800D02*
X135988900Y-90944800D01*
X135353900Y-89039800D02*
X135988900Y-89674800D01*
X134083900Y-89039800D02*
X135353900Y-89039800D01*
X142973900Y-91579800D02*
X141703900Y-91579800D01*
X141068900Y-90944800D02*
X141703900Y-91579800D01*
X141703900Y-89039800D02*
X141068900Y-89674800D01*
X139163900Y-91579800D02*
X138528900Y-90944800D01*
X140433900Y-91579800D02*
X139163900Y-91579800D01*
X141068900Y-90944800D02*
X140433900Y-91579800D01*
X141068900Y-89674800D02*
X141068900Y-90944800D01*
X140433900Y-89039800D02*
X141068900Y-89674800D01*
X139163900Y-89039800D02*
X140433900Y-89039800D01*
X138528900Y-89674800D02*
X139163900Y-89039800D01*
X144243900Y-91579800D02*
X143608900Y-90944800D01*
X145513900Y-91579800D02*
X144243900Y-91579800D01*
X146148900Y-90944800D02*
X145513900Y-91579800D01*
X146148900Y-89674800D02*
X146148900Y-90944800D01*
X145513900Y-89039800D02*
X146148900Y-89674800D01*
X144243900Y-89039800D02*
X145513900Y-89039800D01*
X143608900Y-89674800D02*
X144243900Y-89039800D01*
X143608900Y-90944800D02*
X142973900Y-91579800D01*
X143608900Y-89674800D02*
X143608900Y-90944800D01*
X142973900Y-89039800D02*
X143608900Y-89674800D01*
X141703900Y-89039800D02*
X142973900Y-89039800D01*
X150593900Y-91579800D02*
X149323900Y-91579800D01*
X148688900Y-90944800D02*
X149323900Y-91579800D01*
X149323900Y-89039800D02*
X148688900Y-89674800D01*
X146783900Y-91579800D02*
X146148900Y-90944800D01*
X148053900Y-91579800D02*
X146783900Y-91579800D01*
X148688900Y-90944800D02*
X148053900Y-91579800D01*
X148688900Y-89674800D02*
X148688900Y-90944800D01*
X148053900Y-89039800D02*
X148688900Y-89674800D01*
X146783900Y-89039800D02*
X148053900Y-89039800D01*
X146148900Y-89674800D02*
X146783900Y-89039800D01*
X151863900Y-91579800D02*
X151228900Y-90944800D01*
X153133900Y-91579800D02*
X151863900Y-91579800D01*
X153768900Y-90944800D02*
X153133900Y-91579800D01*
X153768900Y-89674800D02*
X153768900Y-90944800D01*
X153133900Y-89039800D02*
X153768900Y-89674800D01*
X151863900Y-89039800D02*
X153133900Y-89039800D01*
X151228900Y-89674800D02*
X151863900Y-89039800D01*
X151228900Y-90944800D02*
X150593900Y-91579800D01*
X151228900Y-89674800D02*
X151228900Y-90944800D01*
X150593900Y-89039800D02*
X151228900Y-89674800D01*
X149323900Y-89039800D02*
X150593900Y-89039800D01*
X154403900Y-91579800D02*
X153768900Y-90944800D01*
X155673900Y-91579800D02*
X154403900Y-91579800D01*
X156308900Y-90944800D02*
X155673900Y-91579800D01*
X156308900Y-89674800D02*
X156308900Y-90944800D01*
X155673900Y-89039800D02*
X156308900Y-89674800D01*
X154403900Y-89039800D02*
X155673900Y-89039800D01*
X153768900Y-89674800D02*
X154403900Y-89039800D01*
X170228100Y-121856600D02*
X168958100Y-121856600D01*
X168323100Y-121221600D02*
X168958100Y-121856600D01*
X168958100Y-119316600D02*
X168323100Y-119951600D01*
X170863100Y-121221600D02*
X170228100Y-121856600D01*
X170863100Y-119951600D02*
X170863100Y-121221600D01*
X170228100Y-119316600D02*
X170863100Y-119951600D01*
X168958100Y-119316600D02*
X170228100Y-119316600D01*
X157528100Y-121856600D02*
X156258100Y-121856600D01*
X155623100Y-121221600D02*
X156258100Y-121856600D01*
X156258100Y-119316600D02*
X155623100Y-119951600D01*
X155623100Y-119951600D02*
X155623100Y-121221600D01*
X158798100Y-121856600D02*
X158163100Y-121221600D01*
X160068100Y-121856600D02*
X158798100Y-121856600D01*
X160703100Y-121221600D02*
X160068100Y-121856600D01*
X160703100Y-119951600D02*
X160703100Y-121221600D01*
X160068100Y-119316600D02*
X160703100Y-119951600D01*
X158798100Y-119316600D02*
X160068100Y-119316600D01*
X158163100Y-119951600D02*
X158798100Y-119316600D01*
X158163100Y-121221600D02*
X157528100Y-121856600D01*
X158163100Y-119951600D02*
X158163100Y-121221600D01*
X157528100Y-119316600D02*
X158163100Y-119951600D01*
X156258100Y-119316600D02*
X157528100Y-119316600D01*
X165148100Y-121856600D02*
X163878100Y-121856600D01*
X163243100Y-121221600D02*
X163878100Y-121856600D01*
X163878100Y-119316600D02*
X163243100Y-119951600D01*
X161338100Y-121856600D02*
X160703100Y-121221600D01*
X162608100Y-121856600D02*
X161338100Y-121856600D01*
X163243100Y-121221600D02*
X162608100Y-121856600D01*
X163243100Y-119951600D02*
X163243100Y-121221600D01*
X162608100Y-119316600D02*
X163243100Y-119951600D01*
X161338100Y-119316600D02*
X162608100Y-119316600D01*
X160703100Y-119951600D02*
X161338100Y-119316600D01*
X166418100Y-121856600D02*
X165783100Y-121221600D01*
X167688100Y-121856600D02*
X166418100Y-121856600D01*
X168323100Y-121221600D02*
X167688100Y-121856600D01*
X168323100Y-119951600D02*
X168323100Y-121221600D01*
X167688100Y-119316600D02*
X168323100Y-119951600D01*
X166418100Y-119316600D02*
X167688100Y-119316600D01*
X165783100Y-119951600D02*
X166418100Y-119316600D01*
X165783100Y-121221600D02*
X165148100Y-121856600D01*
X165783100Y-119951600D02*
X165783100Y-121221600D01*
X165148100Y-119316600D02*
X165783100Y-119951600D01*
X163878100Y-119316600D02*
X165148100Y-119316600D01*
D15*
X182570000Y-92140000D02*
X182570000Y-92620000D01*
X182570000Y-92620000D02*
X174730000Y-92620000D01*
X174730000Y-92620000D02*
X174730000Y-92140000D01*
X182570000Y-89260000D02*
X182570000Y-88780000D01*
X182570000Y-88780000D02*
X174730000Y-88780000D01*
X174730000Y-88780000D02*
X174730000Y-89260000D01*
X181310000Y-92620000D02*
X181310000Y-88780000D01*
X181190000Y-92620000D02*
X181190000Y-88780000D01*
X181430000Y-92620000D02*
X181430000Y-88780000D01*
X183690000Y-106600000D02*
X184170000Y-106600000D01*
X184170000Y-106600000D02*
X184170000Y-114440000D01*
X184170000Y-114440000D02*
X183690000Y-114440000D01*
X180810000Y-106600000D02*
X180330000Y-106600000D01*
X180330000Y-106600000D02*
X180330000Y-114440000D01*
X180330000Y-114440000D02*
X180810000Y-114440000D01*
X184170000Y-107860000D02*
X180330000Y-107860000D01*
X184170000Y-107980000D02*
X180330000Y-107980000D01*
X184170000Y-107740000D02*
X180330000Y-107740000D01*
X191060000Y-98440000D02*
X187220000Y-98440000D01*
X191060000Y-98680000D02*
X187220000Y-98680000D01*
X191060000Y-98560000D02*
X187220000Y-98560000D01*
X187220000Y-105140000D02*
X187700000Y-105140000D01*
X187220000Y-97300000D02*
X187220000Y-105140000D01*
X187700000Y-97300000D02*
X187220000Y-97300000D01*
X191060000Y-105140000D02*
X190580000Y-105140000D01*
X191060000Y-97300000D02*
X191060000Y-105140000D01*
X190580000Y-97300000D02*
X191060000Y-97300000D01*
X186270000Y-98160000D02*
G75*
G03X186270000Y-98160000I-2620000J0D01*
G01*
X183650000Y-100740000D02*
X183650000Y-95580000D01*
X183610000Y-100740000D02*
X183610000Y-95580000D01*
X183570000Y-100739000D02*
X183570000Y-95581000D01*
X183530000Y-100738000D02*
X183530000Y-95582000D01*
X183490000Y-100736000D02*
X183490000Y-95584000D01*
X183450000Y-100733000D02*
X183450000Y-95587000D01*
X183410000Y-100729000D02*
X183410000Y-99200000D01*
X183410000Y-97120000D02*
X183410000Y-95591000D01*
X183370000Y-100725000D02*
X183370000Y-99200000D01*
X183370000Y-97120000D02*
X183370000Y-95595000D01*
X183330000Y-100721000D02*
X183330000Y-99200000D01*
X183330000Y-97120000D02*
X183330000Y-95599000D01*
X183290000Y-100716000D02*
X183290000Y-99200000D01*
X183290000Y-97120000D02*
X183290000Y-95604000D01*
X183250000Y-100710000D02*
X183250000Y-99200000D01*
X183250000Y-97120000D02*
X183250000Y-95610000D01*
X183210000Y-100703000D02*
X183210000Y-99200000D01*
X183210000Y-97120000D02*
X183210000Y-95617000D01*
X183170000Y-100696000D02*
X183170000Y-99200000D01*
X183170000Y-97120000D02*
X183170000Y-95624000D01*
X183130000Y-100688000D02*
X183130000Y-99200000D01*
X183130000Y-97120000D02*
X183130000Y-95632000D01*
X183090000Y-100680000D02*
X183090000Y-99200000D01*
X183090000Y-97120000D02*
X183090000Y-95640000D01*
X183050000Y-100671000D02*
X183050000Y-99200000D01*
X183050000Y-97120000D02*
X183050000Y-95649000D01*
X183010000Y-100661000D02*
X183010000Y-99200000D01*
X183010000Y-97120000D02*
X183010000Y-95659000D01*
X182970000Y-100651000D02*
X182970000Y-99200000D01*
X182970000Y-97120000D02*
X182970000Y-95669000D01*
X182929000Y-100640000D02*
X182929000Y-99200000D01*
X182929000Y-97120000D02*
X182929000Y-95680000D01*
X182889000Y-100628000D02*
X182889000Y-99200000D01*
X182889000Y-97120000D02*
X182889000Y-95692000D01*
X182849000Y-100615000D02*
X182849000Y-99200000D01*
X182849000Y-97120000D02*
X182849000Y-95705000D01*
X182809000Y-100602000D02*
X182809000Y-99200000D01*
X182809000Y-97120000D02*
X182809000Y-95718000D01*
X182769000Y-100588000D02*
X182769000Y-99200000D01*
X182769000Y-97120000D02*
X182769000Y-95732000D01*
X182729000Y-100574000D02*
X182729000Y-99200000D01*
X182729000Y-97120000D02*
X182729000Y-95746000D01*
X182689000Y-100558000D02*
X182689000Y-99200000D01*
X182689000Y-97120000D02*
X182689000Y-95762000D01*
X182649000Y-100542000D02*
X182649000Y-99200000D01*
X182649000Y-97120000D02*
X182649000Y-95778000D01*
X182609000Y-100525000D02*
X182609000Y-99200000D01*
X182609000Y-97120000D02*
X182609000Y-95795000D01*
X182569000Y-100508000D02*
X182569000Y-99200000D01*
X182569000Y-97120000D02*
X182569000Y-95812000D01*
X182529000Y-100489000D02*
X182529000Y-99200000D01*
X182529000Y-97120000D02*
X182529000Y-95831000D01*
X182489000Y-100470000D02*
X182489000Y-99200000D01*
X182489000Y-97120000D02*
X182489000Y-95850000D01*
X182449000Y-100450000D02*
X182449000Y-99200000D01*
X182449000Y-97120000D02*
X182449000Y-95870000D01*
X182409000Y-100428000D02*
X182409000Y-99200000D01*
X182409000Y-97120000D02*
X182409000Y-95892000D01*
X182369000Y-100407000D02*
X182369000Y-99200000D01*
X182369000Y-97120000D02*
X182369000Y-95913000D01*
X182329000Y-100384000D02*
X182329000Y-99200000D01*
X182329000Y-97120000D02*
X182329000Y-95936000D01*
X182289000Y-100360000D02*
X182289000Y-99200000D01*
X182289000Y-97120000D02*
X182289000Y-95960000D01*
X182249000Y-100335000D02*
X182249000Y-99200000D01*
X182249000Y-97120000D02*
X182249000Y-95985000D01*
X182209000Y-100309000D02*
X182209000Y-99200000D01*
X182209000Y-97120000D02*
X182209000Y-96011000D01*
X182169000Y-100282000D02*
X182169000Y-99200000D01*
X182169000Y-97120000D02*
X182169000Y-96038000D01*
X182129000Y-100255000D02*
X182129000Y-99200000D01*
X182129000Y-97120000D02*
X182129000Y-96065000D01*
X182089000Y-100225000D02*
X182089000Y-99200000D01*
X182089000Y-97120000D02*
X182089000Y-96095000D01*
X182049000Y-100195000D02*
X182049000Y-99200000D01*
X182049000Y-97120000D02*
X182049000Y-96125000D01*
X182009000Y-100164000D02*
X182009000Y-99200000D01*
X182009000Y-97120000D02*
X182009000Y-96156000D01*
X181969000Y-100131000D02*
X181969000Y-99200000D01*
X181969000Y-97120000D02*
X181969000Y-96189000D01*
X181929000Y-100097000D02*
X181929000Y-99200000D01*
X181929000Y-97120000D02*
X181929000Y-96223000D01*
X181889000Y-100061000D02*
X181889000Y-99200000D01*
X181889000Y-97120000D02*
X181889000Y-96259000D01*
X181849000Y-100024000D02*
X181849000Y-99200000D01*
X181849000Y-97120000D02*
X181849000Y-96296000D01*
X181809000Y-99986000D02*
X181809000Y-99200000D01*
X181809000Y-97120000D02*
X181809000Y-96334000D01*
X181769000Y-99945000D02*
X181769000Y-99200000D01*
X181769000Y-97120000D02*
X181769000Y-96375000D01*
X181729000Y-99903000D02*
X181729000Y-99200000D01*
X181729000Y-97120000D02*
X181729000Y-96417000D01*
X181689000Y-99859000D02*
X181689000Y-99200000D01*
X181689000Y-97120000D02*
X181689000Y-96461000D01*
X181649000Y-99813000D02*
X181649000Y-99200000D01*
X181649000Y-97120000D02*
X181649000Y-96507000D01*
X181609000Y-99765000D02*
X181609000Y-99200000D01*
X181609000Y-97120000D02*
X181609000Y-96555000D01*
X181569000Y-99714000D02*
X181569000Y-99200000D01*
X181569000Y-97120000D02*
X181569000Y-96606000D01*
X181529000Y-99660000D02*
X181529000Y-99200000D01*
X181529000Y-97120000D02*
X181529000Y-96660000D01*
X181489000Y-99603000D02*
X181489000Y-99200000D01*
X181489000Y-97120000D02*
X181489000Y-96717000D01*
X181449000Y-99543000D02*
X181449000Y-99200000D01*
X181449000Y-97120000D02*
X181449000Y-96777000D01*
X181409000Y-99479000D02*
X181409000Y-99200000D01*
X181409000Y-97120000D02*
X181409000Y-96841000D01*
X181369000Y-99411000D02*
X181369000Y-99200000D01*
X181369000Y-97120000D02*
X181369000Y-96909000D01*
X181329000Y-99338000D02*
X181329000Y-96982000D01*
X181289000Y-99258000D02*
X181289000Y-97062000D01*
X181249000Y-99171000D02*
X181249000Y-97149000D01*
X181209000Y-99075000D02*
X181209000Y-97245000D01*
X181169000Y-98965000D02*
X181169000Y-97355000D01*
X181129000Y-98837000D02*
X181129000Y-97483000D01*
X181089000Y-98678000D02*
X181089000Y-97642000D01*
X181049000Y-98444000D02*
X181049000Y-97876000D01*
X186454775Y-99635000D02*
X185954775Y-99635000D01*
X186204775Y-99885000D02*
X186204775Y-99385000D01*
X185925000Y-113594775D02*
X186425000Y-113594775D01*
X186175000Y-113844775D02*
X186175000Y-113344775D01*
X187366000Y-108439000D02*
X187934000Y-108439000D01*
X187132000Y-108479000D02*
X188168000Y-108479000D01*
X186973000Y-108519000D02*
X188327000Y-108519000D01*
X186845000Y-108559000D02*
X188455000Y-108559000D01*
X186735000Y-108599000D02*
X188565000Y-108599000D01*
X186639000Y-108639000D02*
X188661000Y-108639000D01*
X186552000Y-108679000D02*
X188748000Y-108679000D01*
X186472000Y-108719000D02*
X188828000Y-108719000D01*
X188690000Y-108759000D02*
X188901000Y-108759000D01*
X186399000Y-108759000D02*
X186610000Y-108759000D01*
X188690000Y-108799000D02*
X188969000Y-108799000D01*
X186331000Y-108799000D02*
X186610000Y-108799000D01*
X188690000Y-108839000D02*
X189033000Y-108839000D01*
X186267000Y-108839000D02*
X186610000Y-108839000D01*
X188690000Y-108879000D02*
X189093000Y-108879000D01*
X186207000Y-108879000D02*
X186610000Y-108879000D01*
X188690000Y-108919000D02*
X189150000Y-108919000D01*
X186150000Y-108919000D02*
X186610000Y-108919000D01*
X188690000Y-108959000D02*
X189204000Y-108959000D01*
X186096000Y-108959000D02*
X186610000Y-108959000D01*
X188690000Y-108999000D02*
X189255000Y-108999000D01*
X186045000Y-108999000D02*
X186610000Y-108999000D01*
X188690000Y-109039000D02*
X189303000Y-109039000D01*
X185997000Y-109039000D02*
X186610000Y-109039000D01*
X188690000Y-109079000D02*
X189349000Y-109079000D01*
X185951000Y-109079000D02*
X186610000Y-109079000D01*
X188690000Y-109119000D02*
X189393000Y-109119000D01*
X185907000Y-109119000D02*
X186610000Y-109119000D01*
X188690000Y-109159000D02*
X189435000Y-109159000D01*
X185865000Y-109159000D02*
X186610000Y-109159000D01*
X188690000Y-109199000D02*
X189476000Y-109199000D01*
X185824000Y-109199000D02*
X186610000Y-109199000D01*
X188690000Y-109239000D02*
X189514000Y-109239000D01*
X185786000Y-109239000D02*
X186610000Y-109239000D01*
X188690000Y-109279000D02*
X189551000Y-109279000D01*
X185749000Y-109279000D02*
X186610000Y-109279000D01*
X188690000Y-109319000D02*
X189587000Y-109319000D01*
X185713000Y-109319000D02*
X186610000Y-109319000D01*
X188690000Y-109359000D02*
X189621000Y-109359000D01*
X185679000Y-109359000D02*
X186610000Y-109359000D01*
X188690000Y-109399000D02*
X189654000Y-109399000D01*
X185646000Y-109399000D02*
X186610000Y-109399000D01*
X188690000Y-109439000D02*
X189685000Y-109439000D01*
X185615000Y-109439000D02*
X186610000Y-109439000D01*
X188690000Y-109479000D02*
X189715000Y-109479000D01*
X185585000Y-109479000D02*
X186610000Y-109479000D01*
X188690000Y-109519000D02*
X189745000Y-109519000D01*
X185555000Y-109519000D02*
X186610000Y-109519000D01*
X188690000Y-109559000D02*
X189772000Y-109559000D01*
X185528000Y-109559000D02*
X186610000Y-109559000D01*
X188690000Y-109599000D02*
X189799000Y-109599000D01*
X185501000Y-109599000D02*
X186610000Y-109599000D01*
X188690000Y-109639000D02*
X189825000Y-109639000D01*
X185475000Y-109639000D02*
X186610000Y-109639000D01*
X188690000Y-109679000D02*
X189850000Y-109679000D01*
X185450000Y-109679000D02*
X186610000Y-109679000D01*
X188690000Y-109719000D02*
X189874000Y-109719000D01*
X185426000Y-109719000D02*
X186610000Y-109719000D01*
X188690000Y-109759000D02*
X189897000Y-109759000D01*
X185403000Y-109759000D02*
X186610000Y-109759000D01*
X188690000Y-109799000D02*
X189918000Y-109799000D01*
X185382000Y-109799000D02*
X186610000Y-109799000D01*
X188690000Y-109839000D02*
X189940000Y-109839000D01*
X185360000Y-109839000D02*
X186610000Y-109839000D01*
X188690000Y-109879000D02*
X189960000Y-109879000D01*
X185340000Y-109879000D02*
X186610000Y-109879000D01*
X188690000Y-109919000D02*
X189979000Y-109919000D01*
X185321000Y-109919000D02*
X186610000Y-109919000D01*
X188690000Y-109959000D02*
X189998000Y-109959000D01*
X185302000Y-109959000D02*
X186610000Y-109959000D01*
X188690000Y-109999000D02*
X190015000Y-109999000D01*
X185285000Y-109999000D02*
X186610000Y-109999000D01*
X188690000Y-110039000D02*
X190032000Y-110039000D01*
X185268000Y-110039000D02*
X186610000Y-110039000D01*
X188690000Y-110079000D02*
X190048000Y-110079000D01*
X185252000Y-110079000D02*
X186610000Y-110079000D01*
X188690000Y-110119000D02*
X190064000Y-110119000D01*
X185236000Y-110119000D02*
X186610000Y-110119000D01*
X188690000Y-110159000D02*
X190078000Y-110159000D01*
X185222000Y-110159000D02*
X186610000Y-110159000D01*
X188690000Y-110199000D02*
X190092000Y-110199000D01*
X185208000Y-110199000D02*
X186610000Y-110199000D01*
X188690000Y-110239000D02*
X190105000Y-110239000D01*
X185195000Y-110239000D02*
X186610000Y-110239000D01*
X188690000Y-110279000D02*
X190118000Y-110279000D01*
X185182000Y-110279000D02*
X186610000Y-110279000D01*
X188690000Y-110319000D02*
X190130000Y-110319000D01*
X185170000Y-110319000D02*
X186610000Y-110319000D01*
X188690000Y-110360000D02*
X190141000Y-110360000D01*
X185159000Y-110360000D02*
X186610000Y-110360000D01*
X188690000Y-110400000D02*
X190151000Y-110400000D01*
X185149000Y-110400000D02*
X186610000Y-110400000D01*
X188690000Y-110440000D02*
X190161000Y-110440000D01*
X185139000Y-110440000D02*
X186610000Y-110440000D01*
X188690000Y-110480000D02*
X190170000Y-110480000D01*
X185130000Y-110480000D02*
X186610000Y-110480000D01*
X188690000Y-110520000D02*
X190178000Y-110520000D01*
X185122000Y-110520000D02*
X186610000Y-110520000D01*
X188690000Y-110560000D02*
X190186000Y-110560000D01*
X185114000Y-110560000D02*
X186610000Y-110560000D01*
X188690000Y-110600000D02*
X190193000Y-110600000D01*
X185107000Y-110600000D02*
X186610000Y-110600000D01*
X188690000Y-110640000D02*
X190200000Y-110640000D01*
X185100000Y-110640000D02*
X186610000Y-110640000D01*
X188690000Y-110680000D02*
X190206000Y-110680000D01*
X185094000Y-110680000D02*
X186610000Y-110680000D01*
X188690000Y-110720000D02*
X190211000Y-110720000D01*
X185089000Y-110720000D02*
X186610000Y-110720000D01*
X188690000Y-110760000D02*
X190215000Y-110760000D01*
X185085000Y-110760000D02*
X186610000Y-110760000D01*
X188690000Y-110800000D02*
X190219000Y-110800000D01*
X185081000Y-110800000D02*
X186610000Y-110800000D01*
X185077000Y-110840000D02*
X190223000Y-110840000D01*
X185074000Y-110880000D02*
X190226000Y-110880000D01*
X185072000Y-110920000D02*
X190228000Y-110920000D01*
X185071000Y-110960000D02*
X190229000Y-110960000D01*
X185070000Y-111000000D02*
X190230000Y-111000000D01*
X185070000Y-111040000D02*
X190230000Y-111040000D01*
X190270000Y-111040000D02*
G75*
G03X190270000Y-111040000I-2620000J0D01*
G01*
D19*
X153422380Y-118952857D02*
X152946190Y-119286190D01*
X153422380Y-119524285D02*
X152422380Y-119524285D01*
X152422380Y-119143333D01*
X152470000Y-119048095D01*
X152517619Y-119000476D01*
X152612857Y-118952857D01*
X152755714Y-118952857D01*
X152850952Y-119000476D01*
X152898571Y-119048095D01*
X152946190Y-119143333D01*
X152946190Y-119524285D01*
X153422380Y-118000476D02*
X153422380Y-118571904D01*
X153422380Y-118286190D02*
X152422380Y-118286190D01*
X152565238Y-118381428D01*
X152660476Y-118476666D01*
X152708095Y-118571904D01*
X152517619Y-117619523D02*
X152470000Y-117571904D01*
X152422380Y-117476666D01*
X152422380Y-117238571D01*
X152470000Y-117143333D01*
X152517619Y-117095714D01*
X152612857Y-117048095D01*
X152708095Y-117048095D01*
X152850952Y-117095714D01*
X153422380Y-117667142D01*
X153422380Y-117048095D01*
X87082380Y-97723333D02*
X87796666Y-97723333D01*
X87939523Y-97770952D01*
X88034761Y-97866190D01*
X88082380Y-98009047D01*
X88082380Y-98104285D01*
X88082380Y-97247142D02*
X87082380Y-97247142D01*
X87082380Y-96866190D01*
X87130000Y-96770952D01*
X87177619Y-96723333D01*
X87272857Y-96675714D01*
X87415714Y-96675714D01*
X87510952Y-96723333D01*
X87558571Y-96770952D01*
X87606190Y-96866190D01*
X87606190Y-97247142D01*
X88082380Y-95723333D02*
X88082380Y-96294761D01*
X88082380Y-96009047D02*
X87082380Y-96009047D01*
X87225238Y-96104285D01*
X87320476Y-96199523D01*
X87368095Y-96294761D01*
X87072380Y-113413333D02*
X87786666Y-113413333D01*
X87929523Y-113460952D01*
X88024761Y-113556190D01*
X88072380Y-113699047D01*
X88072380Y-113794285D01*
X88072380Y-112937142D02*
X87072380Y-112937142D01*
X87072380Y-112556190D01*
X87120000Y-112460952D01*
X87167619Y-112413333D01*
X87262857Y-112365714D01*
X87405714Y-112365714D01*
X87500952Y-112413333D01*
X87548571Y-112460952D01*
X87596190Y-112556190D01*
X87596190Y-112937142D01*
X87167619Y-111984761D02*
X87120000Y-111937142D01*
X87072380Y-111841904D01*
X87072380Y-111603809D01*
X87120000Y-111508571D01*
X87167619Y-111460952D01*
X87262857Y-111413333D01*
X87358095Y-111413333D01*
X87500952Y-111460952D01*
X88072380Y-112032380D01*
X88072380Y-111413333D01*
X177093333Y-94772380D02*
X176760000Y-94296190D01*
X176521904Y-94772380D02*
X176521904Y-93772380D01*
X176902857Y-93772380D01*
X176998095Y-93820000D01*
X177045714Y-93867619D01*
X177093333Y-93962857D01*
X177093333Y-94105714D01*
X177045714Y-94200952D01*
X176998095Y-94248571D01*
X176902857Y-94296190D01*
X176521904Y-94296190D01*
X178045714Y-94772380D02*
X177474285Y-94772380D01*
X177760000Y-94772380D02*
X177760000Y-93772380D01*
X177664761Y-93915238D01*
X177569523Y-94010476D01*
X177474285Y-94058095D01*
X140973333Y-94637142D02*
X140925714Y-94684761D01*
X140782857Y-94732380D01*
X140687619Y-94732380D01*
X140544761Y-94684761D01*
X140449523Y-94589523D01*
X140401904Y-94494285D01*
X140354285Y-94303809D01*
X140354285Y-94160952D01*
X140401904Y-93970476D01*
X140449523Y-93875238D01*
X140544761Y-93780000D01*
X140687619Y-93732380D01*
X140782857Y-93732380D01*
X140925714Y-93780000D01*
X140973333Y-93827619D01*
X141830476Y-93732380D02*
X141640000Y-93732380D01*
X141544761Y-93780000D01*
X141497142Y-93827619D01*
X141401904Y-93970476D01*
X141354285Y-94160952D01*
X141354285Y-94541904D01*
X141401904Y-94637142D01*
X141449523Y-94684761D01*
X141544761Y-94732380D01*
X141735238Y-94732380D01*
X141830476Y-94684761D01*
X141878095Y-94637142D01*
X141925714Y-94541904D01*
X141925714Y-94303809D01*
X141878095Y-94208571D01*
X141830476Y-94160952D01*
X141735238Y-94113333D01*
X141544761Y-94113333D01*
X141449523Y-94160952D01*
X141401904Y-94208571D01*
X141354285Y-94303809D01*
X148272380Y-97526666D02*
X147796190Y-97860000D01*
X148272380Y-98098095D02*
X147272380Y-98098095D01*
X147272380Y-97717142D01*
X147320000Y-97621904D01*
X147367619Y-97574285D01*
X147462857Y-97526666D01*
X147605714Y-97526666D01*
X147700952Y-97574285D01*
X147748571Y-97621904D01*
X147796190Y-97717142D01*
X147796190Y-98098095D01*
X147272380Y-97193333D02*
X147272380Y-96526666D01*
X148272380Y-96955238D01*
X145302380Y-97436666D02*
X144826190Y-97770000D01*
X145302380Y-98008095D02*
X144302380Y-98008095D01*
X144302380Y-97627142D01*
X144350000Y-97531904D01*
X144397619Y-97484285D01*
X144492857Y-97436666D01*
X144635714Y-97436666D01*
X144730952Y-97484285D01*
X144778571Y-97531904D01*
X144826190Y-97627142D01*
X144826190Y-98008095D01*
X144730952Y-96865238D02*
X144683333Y-96960476D01*
X144635714Y-97008095D01*
X144540476Y-97055714D01*
X144492857Y-97055714D01*
X144397619Y-97008095D01*
X144350000Y-96960476D01*
X144302380Y-96865238D01*
X144302380Y-96674761D01*
X144350000Y-96579523D01*
X144397619Y-96531904D01*
X144492857Y-96484285D01*
X144540476Y-96484285D01*
X144635714Y-96531904D01*
X144683333Y-96579523D01*
X144730952Y-96674761D01*
X144730952Y-96865238D01*
X144778571Y-96960476D01*
X144826190Y-97008095D01*
X144921428Y-97055714D01*
X145111904Y-97055714D01*
X145207142Y-97008095D01*
X145254761Y-96960476D01*
X145302380Y-96865238D01*
X145302380Y-96674761D01*
X145254761Y-96579523D01*
X145207142Y-96531904D01*
X145111904Y-96484285D01*
X144921428Y-96484285D01*
X144826190Y-96531904D01*
X144778571Y-96579523D01*
X144730952Y-96674761D01*
X163887142Y-90822380D02*
X163553809Y-90346190D01*
X163315714Y-90822380D02*
X163315714Y-89822380D01*
X163696666Y-89822380D01*
X163791904Y-89870000D01*
X163839523Y-89917619D01*
X163887142Y-90012857D01*
X163887142Y-90155714D01*
X163839523Y-90250952D01*
X163791904Y-90298571D01*
X163696666Y-90346190D01*
X163315714Y-90346190D01*
X164839523Y-90822380D02*
X164268095Y-90822380D01*
X164553809Y-90822380D02*
X164553809Y-89822380D01*
X164458571Y-89965238D01*
X164363333Y-90060476D01*
X164268095Y-90108095D01*
X165696666Y-89822380D02*
X165506190Y-89822380D01*
X165410952Y-89870000D01*
X165363333Y-89917619D01*
X165268095Y-90060476D01*
X165220476Y-90250952D01*
X165220476Y-90631904D01*
X165268095Y-90727142D01*
X165315714Y-90774761D01*
X165410952Y-90822380D01*
X165601428Y-90822380D01*
X165696666Y-90774761D01*
X165744285Y-90727142D01*
X165791904Y-90631904D01*
X165791904Y-90393809D01*
X165744285Y-90298571D01*
X165696666Y-90250952D01*
X165601428Y-90203333D01*
X165410952Y-90203333D01*
X165315714Y-90250952D01*
X165268095Y-90298571D01*
X165220476Y-90393809D01*
X156692380Y-97872857D02*
X156216190Y-98206190D01*
X156692380Y-98444285D02*
X155692380Y-98444285D01*
X155692380Y-98063333D01*
X155740000Y-97968095D01*
X155787619Y-97920476D01*
X155882857Y-97872857D01*
X156025714Y-97872857D01*
X156120952Y-97920476D01*
X156168571Y-97968095D01*
X156216190Y-98063333D01*
X156216190Y-98444285D01*
X156692380Y-96920476D02*
X156692380Y-97491904D01*
X156692380Y-97206190D02*
X155692380Y-97206190D01*
X155835238Y-97301428D01*
X155930476Y-97396666D01*
X155978095Y-97491904D01*
X155692380Y-96301428D02*
X155692380Y-96206190D01*
X155740000Y-96110952D01*
X155787619Y-96063333D01*
X155882857Y-96015714D01*
X156073333Y-95968095D01*
X156311428Y-95968095D01*
X156501904Y-96015714D01*
X156597142Y-96063333D01*
X156644761Y-96110952D01*
X156692380Y-96206190D01*
X156692380Y-96301428D01*
X156644761Y-96396666D01*
X156597142Y-96444285D01*
X156501904Y-96491904D01*
X156311428Y-96539523D01*
X156073333Y-96539523D01*
X155882857Y-96491904D01*
X155787619Y-96444285D01*
X155740000Y-96396666D01*
X155692380Y-96301428D01*
X165512380Y-97642857D02*
X165036190Y-97976190D01*
X165512380Y-98214285D02*
X164512380Y-98214285D01*
X164512380Y-97833333D01*
X164560000Y-97738095D01*
X164607619Y-97690476D01*
X164702857Y-97642857D01*
X164845714Y-97642857D01*
X164940952Y-97690476D01*
X164988571Y-97738095D01*
X165036190Y-97833333D01*
X165036190Y-98214285D01*
X165512380Y-96690476D02*
X165512380Y-97261904D01*
X165512380Y-96976190D02*
X164512380Y-96976190D01*
X164655238Y-97071428D01*
X164750476Y-97166666D01*
X164798095Y-97261904D01*
X165512380Y-95738095D02*
X165512380Y-96309523D01*
X165512380Y-96023809D02*
X164512380Y-96023809D01*
X164655238Y-96119047D01*
X164750476Y-96214285D01*
X164798095Y-96309523D01*
X126872380Y-115782857D02*
X126396190Y-116116190D01*
X126872380Y-116354285D02*
X125872380Y-116354285D01*
X125872380Y-115973333D01*
X125920000Y-115878095D01*
X125967619Y-115830476D01*
X126062857Y-115782857D01*
X126205714Y-115782857D01*
X126300952Y-115830476D01*
X126348571Y-115878095D01*
X126396190Y-115973333D01*
X126396190Y-116354285D01*
X126872380Y-114830476D02*
X126872380Y-115401904D01*
X126872380Y-115116190D02*
X125872380Y-115116190D01*
X126015238Y-115211428D01*
X126110476Y-115306666D01*
X126158095Y-115401904D01*
X125872380Y-114497142D02*
X125872380Y-113878095D01*
X126253333Y-114211428D01*
X126253333Y-114068571D01*
X126300952Y-113973333D01*
X126348571Y-113925714D01*
X126443809Y-113878095D01*
X126681904Y-113878095D01*
X126777142Y-113925714D01*
X126824761Y-113973333D01*
X126872380Y-114068571D01*
X126872380Y-114354285D01*
X126824761Y-114449523D01*
X126777142Y-114497142D01*
X129112380Y-118096666D02*
X128636190Y-118430000D01*
X129112380Y-118668095D02*
X128112380Y-118668095D01*
X128112380Y-118287142D01*
X128160000Y-118191904D01*
X128207619Y-118144285D01*
X128302857Y-118096666D01*
X128445714Y-118096666D01*
X128540952Y-118144285D01*
X128588571Y-118191904D01*
X128636190Y-118287142D01*
X128636190Y-118668095D01*
X128112380Y-117763333D02*
X128112380Y-117144285D01*
X128493333Y-117477619D01*
X128493333Y-117334761D01*
X128540952Y-117239523D01*
X128588571Y-117191904D01*
X128683809Y-117144285D01*
X128921904Y-117144285D01*
X129017142Y-117191904D01*
X129064761Y-117239523D01*
X129112380Y-117334761D01*
X129112380Y-117620476D01*
X129064761Y-117715714D01*
X129017142Y-117763333D01*
X131547380Y-118176666D02*
X131071190Y-118510000D01*
X131547380Y-118748095D02*
X130547380Y-118748095D01*
X130547380Y-118367142D01*
X130595000Y-118271904D01*
X130642619Y-118224285D01*
X130737857Y-118176666D01*
X130880714Y-118176666D01*
X130975952Y-118224285D01*
X131023571Y-118271904D01*
X131071190Y-118367142D01*
X131071190Y-118748095D01*
X130642619Y-117795714D02*
X130595000Y-117748095D01*
X130547380Y-117652857D01*
X130547380Y-117414761D01*
X130595000Y-117319523D01*
X130642619Y-117271904D01*
X130737857Y-117224285D01*
X130833095Y-117224285D01*
X130975952Y-117271904D01*
X131547380Y-117843333D01*
X131547380Y-117224285D01*
X134272380Y-118136666D02*
X133796190Y-118470000D01*
X134272380Y-118708095D02*
X133272380Y-118708095D01*
X133272380Y-118327142D01*
X133320000Y-118231904D01*
X133367619Y-118184285D01*
X133462857Y-118136666D01*
X133605714Y-118136666D01*
X133700952Y-118184285D01*
X133748571Y-118231904D01*
X133796190Y-118327142D01*
X133796190Y-118708095D01*
X133272380Y-117279523D02*
X133272380Y-117470000D01*
X133320000Y-117565238D01*
X133367619Y-117612857D01*
X133510476Y-117708095D01*
X133700952Y-117755714D01*
X134081904Y-117755714D01*
X134177142Y-117708095D01*
X134224761Y-117660476D01*
X134272380Y-117565238D01*
X134272380Y-117374761D01*
X134224761Y-117279523D01*
X134177142Y-117231904D01*
X134081904Y-117184285D01*
X133843809Y-117184285D01*
X133748571Y-117231904D01*
X133700952Y-117279523D01*
X133653333Y-117374761D01*
X133653333Y-117565238D01*
X133700952Y-117660476D01*
X133748571Y-117708095D01*
X133843809Y-117755714D01*
X137662380Y-118346666D02*
X137186190Y-118680000D01*
X137662380Y-118918095D02*
X136662380Y-118918095D01*
X136662380Y-118537142D01*
X136710000Y-118441904D01*
X136757619Y-118394285D01*
X136852857Y-118346666D01*
X136995714Y-118346666D01*
X137090952Y-118394285D01*
X137138571Y-118441904D01*
X137186190Y-118537142D01*
X137186190Y-118918095D01*
X136662380Y-117441904D02*
X136662380Y-117918095D01*
X137138571Y-117965714D01*
X137090952Y-117918095D01*
X137043333Y-117822857D01*
X137043333Y-117584761D01*
X137090952Y-117489523D01*
X137138571Y-117441904D01*
X137233809Y-117394285D01*
X137471904Y-117394285D01*
X137567142Y-117441904D01*
X137614761Y-117489523D01*
X137662380Y-117584761D01*
X137662380Y-117822857D01*
X137614761Y-117918095D01*
X137567142Y-117965714D01*
X141282380Y-118136666D02*
X140806190Y-118470000D01*
X141282380Y-118708095D02*
X140282380Y-118708095D01*
X140282380Y-118327142D01*
X140330000Y-118231904D01*
X140377619Y-118184285D01*
X140472857Y-118136666D01*
X140615714Y-118136666D01*
X140710952Y-118184285D01*
X140758571Y-118231904D01*
X140806190Y-118327142D01*
X140806190Y-118708095D01*
X141282380Y-117660476D02*
X141282380Y-117470000D01*
X141234761Y-117374761D01*
X141187142Y-117327142D01*
X141044285Y-117231904D01*
X140853809Y-117184285D01*
X140472857Y-117184285D01*
X140377619Y-117231904D01*
X140330000Y-117279523D01*
X140282380Y-117374761D01*
X140282380Y-117565238D01*
X140330000Y-117660476D01*
X140377619Y-117708095D01*
X140472857Y-117755714D01*
X140710952Y-117755714D01*
X140806190Y-117708095D01*
X140853809Y-117660476D01*
X140901428Y-117565238D01*
X140901428Y-117374761D01*
X140853809Y-117279523D01*
X140806190Y-117231904D01*
X140710952Y-117184285D01*
X138602380Y-97376666D02*
X138126190Y-97710000D01*
X138602380Y-97948095D02*
X137602380Y-97948095D01*
X137602380Y-97567142D01*
X137650000Y-97471904D01*
X137697619Y-97424285D01*
X137792857Y-97376666D01*
X137935714Y-97376666D01*
X138030952Y-97424285D01*
X138078571Y-97471904D01*
X138126190Y-97567142D01*
X138126190Y-97948095D01*
X137935714Y-96519523D02*
X138602380Y-96519523D01*
X137554761Y-96757619D02*
X138269047Y-96995714D01*
X138269047Y-96376666D01*
X129512380Y-99092857D02*
X129036190Y-99426190D01*
X129512380Y-99664285D02*
X128512380Y-99664285D01*
X128512380Y-99283333D01*
X128560000Y-99188095D01*
X128607619Y-99140476D01*
X128702857Y-99092857D01*
X128845714Y-99092857D01*
X128940952Y-99140476D01*
X128988571Y-99188095D01*
X129036190Y-99283333D01*
X129036190Y-99664285D01*
X129512380Y-98140476D02*
X129512380Y-98711904D01*
X129512380Y-98426190D02*
X128512380Y-98426190D01*
X128655238Y-98521428D01*
X128750476Y-98616666D01*
X128798095Y-98711904D01*
X128845714Y-97283333D02*
X129512380Y-97283333D01*
X128464761Y-97521428D02*
X129179047Y-97759523D01*
X129179047Y-97140476D01*
X126572380Y-98582857D02*
X126096190Y-98916190D01*
X126572380Y-99154285D02*
X125572380Y-99154285D01*
X125572380Y-98773333D01*
X125620000Y-98678095D01*
X125667619Y-98630476D01*
X125762857Y-98582857D01*
X125905714Y-98582857D01*
X126000952Y-98630476D01*
X126048571Y-98678095D01*
X126096190Y-98773333D01*
X126096190Y-99154285D01*
X126572380Y-97630476D02*
X126572380Y-98201904D01*
X126572380Y-97916190D02*
X125572380Y-97916190D01*
X125715238Y-98011428D01*
X125810476Y-98106666D01*
X125858095Y-98201904D01*
X125572380Y-96725714D02*
X125572380Y-97201904D01*
X126048571Y-97249523D01*
X126000952Y-97201904D01*
X125953333Y-97106666D01*
X125953333Y-96868571D01*
X126000952Y-96773333D01*
X126048571Y-96725714D01*
X126143809Y-96678095D01*
X126381904Y-96678095D01*
X126477142Y-96725714D01*
X126524761Y-96773333D01*
X126572380Y-96868571D01*
X126572380Y-97106666D01*
X126524761Y-97201904D01*
X126477142Y-97249523D01*
X127107142Y-107507142D02*
X127059523Y-107554761D01*
X126916666Y-107602380D01*
X126821428Y-107602380D01*
X126678571Y-107554761D01*
X126583333Y-107459523D01*
X126535714Y-107364285D01*
X126488095Y-107173809D01*
X126488095Y-107030952D01*
X126535714Y-106840476D01*
X126583333Y-106745238D01*
X126678571Y-106650000D01*
X126821428Y-106602380D01*
X126916666Y-106602380D01*
X127059523Y-106650000D01*
X127107142Y-106697619D01*
X128059523Y-107602380D02*
X127488095Y-107602380D01*
X127773809Y-107602380D02*
X127773809Y-106602380D01*
X127678571Y-106745238D01*
X127583333Y-106840476D01*
X127488095Y-106888095D01*
X129011904Y-107602380D02*
X128440476Y-107602380D01*
X128726190Y-107602380D02*
X128726190Y-106602380D01*
X128630952Y-106745238D01*
X128535714Y-106840476D01*
X128440476Y-106888095D01*
X146682142Y-118491666D02*
X146729761Y-118539285D01*
X146777380Y-118682142D01*
X146777380Y-118777380D01*
X146729761Y-118920238D01*
X146634523Y-119015476D01*
X146539285Y-119063095D01*
X146348809Y-119110714D01*
X146205952Y-119110714D01*
X146015476Y-119063095D01*
X145920238Y-119015476D01*
X145825000Y-118920238D01*
X145777380Y-118777380D01*
X145777380Y-118682142D01*
X145825000Y-118539285D01*
X145872619Y-118491666D01*
X145777380Y-118158333D02*
X145777380Y-117491666D01*
X146777380Y-117920238D01*
X148382142Y-118967857D02*
X148429761Y-119015476D01*
X148477380Y-119158333D01*
X148477380Y-119253571D01*
X148429761Y-119396428D01*
X148334523Y-119491666D01*
X148239285Y-119539285D01*
X148048809Y-119586904D01*
X147905952Y-119586904D01*
X147715476Y-119539285D01*
X147620238Y-119491666D01*
X147525000Y-119396428D01*
X147477380Y-119253571D01*
X147477380Y-119158333D01*
X147525000Y-119015476D01*
X147572619Y-118967857D01*
X148477380Y-118015476D02*
X148477380Y-118586904D01*
X148477380Y-118301190D02*
X147477380Y-118301190D01*
X147620238Y-118396428D01*
X147715476Y-118491666D01*
X147763095Y-118586904D01*
X147477380Y-117396428D02*
X147477380Y-117301190D01*
X147525000Y-117205952D01*
X147572619Y-117158333D01*
X147667857Y-117110714D01*
X147858333Y-117063095D01*
X148096428Y-117063095D01*
X148286904Y-117110714D01*
X148382142Y-117158333D01*
X148429761Y-117205952D01*
X148477380Y-117301190D01*
X148477380Y-117396428D01*
X148429761Y-117491666D01*
X148382142Y-117539285D01*
X148286904Y-117586904D01*
X148096428Y-117634523D01*
X147858333Y-117634523D01*
X147667857Y-117586904D01*
X147572619Y-117539285D01*
X147525000Y-117491666D01*
X147477380Y-117396428D01*
X186853333Y-118077142D02*
X186805714Y-118124761D01*
X186662857Y-118172380D01*
X186567619Y-118172380D01*
X186424761Y-118124761D01*
X186329523Y-118029523D01*
X186281904Y-117934285D01*
X186234285Y-117743809D01*
X186234285Y-117600952D01*
X186281904Y-117410476D01*
X186329523Y-117315238D01*
X186424761Y-117220000D01*
X186567619Y-117172380D01*
X186662857Y-117172380D01*
X186805714Y-117220000D01*
X186853333Y-117267619D01*
X187710476Y-117505714D02*
X187710476Y-118172380D01*
X187472380Y-117124761D02*
X187234285Y-117839047D01*
X187853333Y-117839047D01*
X185353333Y-105017142D02*
X185305714Y-105064761D01*
X185162857Y-105112380D01*
X185067619Y-105112380D01*
X184924761Y-105064761D01*
X184829523Y-104969523D01*
X184781904Y-104874285D01*
X184734285Y-104683809D01*
X184734285Y-104540952D01*
X184781904Y-104350476D01*
X184829523Y-104255238D01*
X184924761Y-104160000D01*
X185067619Y-104112380D01*
X185162857Y-104112380D01*
X185305714Y-104160000D01*
X185353333Y-104207619D01*
X185734285Y-104207619D02*
X185781904Y-104160000D01*
X185877142Y-104112380D01*
X186115238Y-104112380D01*
X186210476Y-104160000D01*
X186258095Y-104207619D01*
X186305714Y-104302857D01*
X186305714Y-104398095D01*
X186258095Y-104540952D01*
X185686666Y-105112380D01*
X186305714Y-105112380D01*
X159727142Y-93986666D02*
X159774761Y-94034285D01*
X159822380Y-94177142D01*
X159822380Y-94272380D01*
X159774761Y-94415238D01*
X159679523Y-94510476D01*
X159584285Y-94558095D01*
X159393809Y-94605714D01*
X159250952Y-94605714D01*
X159060476Y-94558095D01*
X158965238Y-94510476D01*
X158870000Y-94415238D01*
X158822380Y-94272380D01*
X158822380Y-94177142D01*
X158870000Y-94034285D01*
X158917619Y-93986666D01*
X159822380Y-93510476D02*
X159822380Y-93320000D01*
X159774761Y-93224761D01*
X159727142Y-93177142D01*
X159584285Y-93081904D01*
X159393809Y-93034285D01*
X159012857Y-93034285D01*
X158917619Y-93081904D01*
X158870000Y-93129523D01*
X158822380Y-93224761D01*
X158822380Y-93415238D01*
X158870000Y-93510476D01*
X158917619Y-93558095D01*
X159012857Y-93605714D01*
X159250952Y-93605714D01*
X159346190Y-93558095D01*
X159393809Y-93510476D01*
X159441428Y-93415238D01*
X159441428Y-93224761D01*
X159393809Y-93129523D01*
X159346190Y-93081904D01*
X159250952Y-93034285D01*
X151237142Y-95216666D02*
X151284761Y-95264285D01*
X151332380Y-95407142D01*
X151332380Y-95502380D01*
X151284761Y-95645238D01*
X151189523Y-95740476D01*
X151094285Y-95788095D01*
X150903809Y-95835714D01*
X150760952Y-95835714D01*
X150570476Y-95788095D01*
X150475238Y-95740476D01*
X150380000Y-95645238D01*
X150332380Y-95502380D01*
X150332380Y-95407142D01*
X150380000Y-95264285D01*
X150427619Y-95216666D01*
X150760952Y-94645238D02*
X150713333Y-94740476D01*
X150665714Y-94788095D01*
X150570476Y-94835714D01*
X150522857Y-94835714D01*
X150427619Y-94788095D01*
X150380000Y-94740476D01*
X150332380Y-94645238D01*
X150332380Y-94454761D01*
X150380000Y-94359523D01*
X150427619Y-94311904D01*
X150522857Y-94264285D01*
X150570476Y-94264285D01*
X150665714Y-94311904D01*
X150713333Y-94359523D01*
X150760952Y-94454761D01*
X150760952Y-94645238D01*
X150808571Y-94740476D01*
X150856190Y-94788095D01*
X150951428Y-94835714D01*
X151141904Y-94835714D01*
X151237142Y-94788095D01*
X151284761Y-94740476D01*
X151332380Y-94645238D01*
X151332380Y-94454761D01*
X151284761Y-94359523D01*
X151237142Y-94311904D01*
X151141904Y-94264285D01*
X150951428Y-94264285D01*
X150856190Y-94311904D01*
X150808571Y-94359523D01*
X150760952Y-94454761D01*
X131647142Y-98826666D02*
X131694761Y-98874285D01*
X131742380Y-99017142D01*
X131742380Y-99112380D01*
X131694761Y-99255238D01*
X131599523Y-99350476D01*
X131504285Y-99398095D01*
X131313809Y-99445714D01*
X131170952Y-99445714D01*
X130980476Y-99398095D01*
X130885238Y-99350476D01*
X130790000Y-99255238D01*
X130742380Y-99112380D01*
X130742380Y-99017142D01*
X130790000Y-98874285D01*
X130837619Y-98826666D01*
X130742380Y-97921904D02*
X130742380Y-98398095D01*
X131218571Y-98445714D01*
X131170952Y-98398095D01*
X131123333Y-98302857D01*
X131123333Y-98064761D01*
X131170952Y-97969523D01*
X131218571Y-97921904D01*
X131313809Y-97874285D01*
X131551904Y-97874285D01*
X131647142Y-97921904D01*
X131694761Y-97969523D01*
X131742380Y-98064761D01*
X131742380Y-98302857D01*
X131694761Y-98398095D01*
X131647142Y-98445714D01*
D20*
X113834038Y-103340452D02*
X112868838Y-103340452D01*
X113742114Y-102329290D02*
X113788076Y-102375252D01*
X113834038Y-102513138D01*
X113834038Y-102605062D01*
X113788076Y-102742947D01*
X113696152Y-102834871D01*
X113604228Y-102880833D01*
X113420380Y-102926795D01*
X113282495Y-102926795D01*
X113098647Y-102880833D01*
X113006723Y-102834871D01*
X112914800Y-102742947D01*
X112868838Y-102605062D01*
X112868838Y-102513138D01*
X112914800Y-102375252D01*
X112960761Y-102329290D01*
X112868838Y-102007557D02*
X112868838Y-101410052D01*
X113236533Y-101731785D01*
X113236533Y-101593900D01*
X113282495Y-101501976D01*
X113328457Y-101456014D01*
X113420380Y-101410052D01*
X113650190Y-101410052D01*
X113742114Y-101456014D01*
X113788076Y-101501976D01*
X113834038Y-101593900D01*
X113834038Y-101869671D01*
X113788076Y-101961595D01*
X113742114Y-102007557D01*
D14*
X113494887Y-100644266D02*
X113954506Y-100644266D01*
X113402963Y-100920038D02*
X113724697Y-99954838D01*
X114046430Y-100920038D01*
X114873744Y-100920038D02*
X114322201Y-100920038D01*
X114597973Y-100920038D02*
X114597973Y-99954838D01*
X114506049Y-100092723D01*
X114414125Y-100184647D01*
X114322201Y-100230609D01*
X115195478Y-99954838D02*
X115838944Y-99954838D01*
X115425287Y-100920038D01*
X116252601Y-100874076D02*
X116252601Y-100920038D01*
X116206640Y-101011961D01*
X116160678Y-101057923D01*
X117125878Y-99954838D02*
X116666259Y-99954838D01*
X116620297Y-100414457D01*
X116666259Y-100368495D01*
X116758182Y-100322533D01*
X116987992Y-100322533D01*
X117079916Y-100368495D01*
X117125878Y-100414457D01*
X117171840Y-100506380D01*
X117171840Y-100736190D01*
X117125878Y-100828114D01*
X117079916Y-100874076D01*
X116987992Y-100920038D01*
X116758182Y-100920038D01*
X116666259Y-100874076D01*
X116620297Y-100828114D01*
X117585497Y-100920038D02*
X117585497Y-100276571D01*
X117585497Y-100368495D02*
X117631459Y-100322533D01*
X117723382Y-100276571D01*
X117861268Y-100276571D01*
X117953192Y-100322533D01*
X117999154Y-100414457D01*
X117999154Y-100920038D01*
X117999154Y-100414457D02*
X118045116Y-100322533D01*
X118137040Y-100276571D01*
X118274925Y-100276571D01*
X118366849Y-100322533D01*
X118412811Y-100414457D01*
X118412811Y-100920038D01*
X118872430Y-100920038D02*
X118872430Y-100276571D01*
X118872430Y-100368495D02*
X118918392Y-100322533D01*
X119010316Y-100276571D01*
X119148201Y-100276571D01*
X119240125Y-100322533D01*
X119286087Y-100414457D01*
X119286087Y-100920038D01*
X119286087Y-100414457D02*
X119332049Y-100322533D01*
X119423973Y-100276571D01*
X119561859Y-100276571D01*
X119653782Y-100322533D01*
X119699744Y-100414457D01*
X119699744Y-100920038D01*
D19*
D20*
X131594038Y-108297452D02*
X130628838Y-108297452D01*
X131502114Y-107286290D02*
X131548076Y-107332252D01*
X131594038Y-107470138D01*
X131594038Y-107562062D01*
X131548076Y-107699947D01*
X131456152Y-107791871D01*
X131364228Y-107837833D01*
X131180380Y-107883795D01*
X131042495Y-107883795D01*
X130858647Y-107837833D01*
X130766723Y-107791871D01*
X130674800Y-107699947D01*
X130628838Y-107562062D01*
X130628838Y-107470138D01*
X130674800Y-107332252D01*
X130720761Y-107286290D01*
X130720761Y-106918595D02*
X130674800Y-106872633D01*
X130628838Y-106780709D01*
X130628838Y-106550900D01*
X130674800Y-106458976D01*
X130720761Y-106413014D01*
X130812685Y-106367052D01*
X130904609Y-106367052D01*
X131042495Y-106413014D01*
X131594038Y-106964557D01*
X131594038Y-106367052D01*
X172264938Y-120934785D02*
X172954366Y-120934785D01*
X173092252Y-120980747D01*
X173184176Y-121072671D01*
X173230138Y-121210557D01*
X173230138Y-121302480D01*
X173230138Y-120475166D02*
X172264938Y-120475166D01*
X172264938Y-120107471D01*
X172310900Y-120015547D01*
X172356861Y-119969585D01*
X172448785Y-119923623D01*
X172586671Y-119923623D01*
X172678595Y-119969585D01*
X172724557Y-120015547D01*
X172770519Y-120107471D01*
X172770519Y-120475166D01*
X172264938Y-119601890D02*
X172264938Y-119004385D01*
X172632633Y-119326118D01*
X172632633Y-119188233D01*
X172678595Y-119096309D01*
X172724557Y-119050347D01*
X172816480Y-119004385D01*
X173046290Y-119004385D01*
X173138214Y-119050347D01*
X173184176Y-119096309D01*
X173230138Y-119188233D01*
X173230138Y-119464004D01*
X173184176Y-119555928D01*
X173138214Y-119601890D01*
X117121538Y-87912681D02*
X117810966Y-87912681D01*
X117948852Y-87958642D01*
X118040776Y-88050566D01*
X118086738Y-88188452D01*
X118086738Y-88280376D01*
X118086738Y-87453062D02*
X117121538Y-87453062D01*
X117121538Y-87085366D01*
X117167500Y-86993442D01*
X117213461Y-86947481D01*
X117305385Y-86901519D01*
X117443271Y-86901519D01*
X117535195Y-86947481D01*
X117581157Y-86993442D01*
X117627119Y-87085366D01*
X117627119Y-87453062D01*
X117443271Y-86074204D02*
X118086738Y-86074204D01*
X117075576Y-86304014D02*
X117765004Y-86533823D01*
X117765004Y-85936319D01*
D19*
X177331904Y-91132380D02*
X177331904Y-90132380D01*
X177570000Y-90132380D01*
X177712857Y-90180000D01*
X177808095Y-90275238D01*
X177855714Y-90370476D01*
X177903333Y-90560952D01*
X177903333Y-90703809D01*
X177855714Y-90894285D01*
X177808095Y-90989523D01*
X177712857Y-91084761D01*
X177570000Y-91132380D01*
X177331904Y-91132380D01*
X178284285Y-90227619D02*
X178331904Y-90180000D01*
X178427142Y-90132380D01*
X178665238Y-90132380D01*
X178760476Y-90180000D01*
X178808095Y-90227619D01*
X178855714Y-90322857D01*
X178855714Y-90418095D01*
X178808095Y-90560952D01*
X178236666Y-91132380D01*
X178855714Y-91132380D01*
X182732380Y-111808095D02*
X181732380Y-111808095D01*
X181732380Y-111570000D01*
X181780000Y-111427142D01*
X181875238Y-111331904D01*
X181970476Y-111284285D01*
X182160952Y-111236666D01*
X182303809Y-111236666D01*
X182494285Y-111284285D01*
X182589523Y-111331904D01*
X182684761Y-111427142D01*
X182732380Y-111570000D01*
X182732380Y-111808095D01*
X182732380Y-110284285D02*
X182732380Y-110855714D01*
X182732380Y-110570000D02*
X181732380Y-110570000D01*
X181875238Y-110665238D01*
X181970476Y-110760476D01*
X182018095Y-110855714D01*
X189552380Y-102548095D02*
X188552380Y-102548095D01*
X188552380Y-102310000D01*
X188600000Y-102167142D01*
X188695238Y-102071904D01*
X188790476Y-102024285D01*
X188980952Y-101976666D01*
X189123809Y-101976666D01*
X189314285Y-102024285D01*
X189409523Y-102071904D01*
X189504761Y-102167142D01*
X189552380Y-102310000D01*
X189552380Y-102548095D01*
X188552380Y-101643333D02*
X188552380Y-101024285D01*
X188933333Y-101357619D01*
X188933333Y-101214761D01*
X188980952Y-101119523D01*
X189028571Y-101071904D01*
X189123809Y-101024285D01*
X189361904Y-101024285D01*
X189457142Y-101071904D01*
X189504761Y-101119523D01*
X189552380Y-101214761D01*
X189552380Y-101500476D01*
X189504761Y-101595714D01*
X189457142Y-101643333D01*
X186403333Y-96987142D02*
X186355714Y-97034761D01*
X186212857Y-97082380D01*
X186117619Y-97082380D01*
X185974761Y-97034761D01*
X185879523Y-96939523D01*
X185831904Y-96844285D01*
X185784285Y-96653809D01*
X185784285Y-96510952D01*
X185831904Y-96320476D01*
X185879523Y-96225238D01*
X185974761Y-96130000D01*
X186117619Y-96082380D01*
X186212857Y-96082380D01*
X186355714Y-96130000D01*
X186403333Y-96177619D01*
X187355714Y-97082380D02*
X186784285Y-97082380D01*
X187070000Y-97082380D02*
X187070000Y-96082380D01*
X186974761Y-96225238D01*
X186879523Y-96320476D01*
X186784285Y-96368095D01*
X185373333Y-108227142D02*
X185325714Y-108274761D01*
X185182857Y-108322380D01*
X185087619Y-108322380D01*
X184944761Y-108274761D01*
X184849523Y-108179523D01*
X184801904Y-108084285D01*
X184754285Y-107893809D01*
X184754285Y-107750952D01*
X184801904Y-107560476D01*
X184849523Y-107465238D01*
X184944761Y-107370000D01*
X185087619Y-107322380D01*
X185182857Y-107322380D01*
X185325714Y-107370000D01*
X185373333Y-107417619D01*
X185706666Y-107322380D02*
X186325714Y-107322380D01*
X185992380Y-107703333D01*
X186135238Y-107703333D01*
X186230476Y-107750952D01*
X186278095Y-107798571D01*
X186325714Y-107893809D01*
X186325714Y-108131904D01*
X186278095Y-108227142D01*
X186230476Y-108274761D01*
X186135238Y-108322380D01*
X185849523Y-108322380D01*
X185754285Y-108274761D01*
X185706666Y-108227142D01*
M02*
